{
	"asset":{
		"generator":"Khronos glTF Blender I/O v5.2.40",
		"version":"2.0"
	},
	"scene":0,
	"scenes":[
		{
			"name":"Scene",
			"nodes":[
				0
			]
		}
	],
	"nodes":[
		{
			"mesh":0,
			"name":"Barrikade"
		}
	],
	"materials":[
		{
			"doubleSided":true,
			"name":"Burg",
			"pbrMetallicRoughness":{
				"metallicFactor":0,
				"roughnessFactor":0.8999999761581421
			}
		}
	],
	"meshes":[
		{
			"name":"Barrikade",
			"primitives":[
				{
					"attributes":{
						"POSITION":0,
						"NORMAL":1,
						"TEXCOORD_0":2,
						"COLOR_0":3
					},
					"indices":4,
					"material":0
				}
			]
		}
	],
	"accessors":[
		{
			"bufferView":0,
			"componentType":5126,
			"count":1830,
			"max":[
				3.695770740509033,
				1.9102617502212524,
				0.8865753412246704
			],
			"min":[
				-3.6750454902648926,
				-0.2008066177368164,
				-1.0500000715255737
			],
			"type":"VEC3"
		},
		{
			"bufferView":1,
			"componentType":5126,
			"count":1830,
			"type":"VEC3"
		},
		{
			"bufferView":2,
			"componentType":5126,
			"count":1830,
			"type":"VEC2"
		},
		{
			"bufferView":3,
			"componentType":5126,
			"count":1830,
			"type":"VEC3"
		},
		{
			"bufferView":4,
			"componentType":5123,
			"count":2628,
			"type":"SCALAR"
		}
	],
	"bufferViews":[
		{
			"buffer":0,
			"byteLength":21960,
			"byteOffset":0,
			"target":34962
		},
		{
			"buffer":0,
			"byteLength":21960,
			"byteOffset":21960,
			"target":34962
		},
		{
			"buffer":0,
			"byteLength":14640,
			"byteOffset":43920,
			"target":34962
		},
		{
			"buffer":0,
			"byteLength":21960,
			"byteOffset":58560,
			"target":34962
		},
		{
			"buffer":0,
			"byteLength":5256,
			"byteOffset":80520,
			"target":34963
		}
	],
	"buffers":[
		{
			"byteLength":85776,
			"uri":"barrikade.bin"
		}
	]
}
