{
	"asset":{
		"generator":"Khronos glTF Blender I/O v5.2.40",
		"version":"2.0"
	},
	"extensionsUsed":[
		"KHR_materials_emissive_strength"
	],
	"scene":0,
	"scenes":[
		{
			"name":"Scene",
			"nodes":[
				0
			]
		}
	],
	"nodes":[
		{
			"mesh":0,
			"name":"Rathaus"
		}
	],
	"materials":[
		{
			"doubleSided":true,
			"name":"Vorkommen",
			"pbrMetallicRoughness":{
				"metallicFactor":0,
				"roughnessFactor":0.8500000238418579
			}
		},
		{
			"doubleSided":true,
			"emissiveFactor":[
				1,
				0.43415364623069763,
				0.0802198201417923
			],
			"extensions":{
				"KHR_materials_emissive_strength":{
					"emissiveStrength":2.200000047683716
				}
			},
			"name":"RathausLeuchten",
			"pbrMetallicRoughness":{
				"metallicFactor":0,
				"roughnessFactor":0.5
			}
		}
	],
	"meshes":[
		{
			"name":"Rathaus",
			"primitives":[
				{
					"attributes":{
						"POSITION":0,
						"NORMAL":1,
						"COLOR_0":2
					},
					"indices":3,
					"material":0
				},
				{
					"attributes":{
						"POSITION":4,
						"NORMAL":5,
						"COLOR_0":6
					},
					"indices":7,
					"material":1
				}
			]
		}
	],
	"accessors":[
		{
			"bufferView":0,
			"componentType":5126,
			"count":72756,
			"max":[
				13.00082778930664,
				18.720001220703125,
				9.725069999694824
			],
			"min":[
				-12.026826858520508,
				-1.0499999523162842,
				-9.936068534851074
			],
			"type":"VEC3"
		},
		{
			"bufferView":1,
			"componentType":5126,
			"count":72756,
			"type":"VEC3"
		},
		{
			"bufferView":2,
			"componentType":5126,
			"count":72756,
			"type":"VEC3"
		},
		{
			"bufferView":3,
			"componentType":5125,
			"count":95364,
			"type":"SCALAR"
		},
		{
			"bufferView":4,
			"componentType":5126,
			"count":396,
			"max":[
				5.8184003829956055,
				9.109999656677246,
				4.661803245544434
			],
			"min":[
				-5.8184003829956055,
				0.20000000298023224,
				-3.5250000953674316
			],
			"type":"VEC3"
		},
		{
			"bufferView":5,
			"componentType":5126,
			"count":396,
			"type":"VEC3"
		},
		{
			"bufferView":6,
			"componentType":5126,
			"count":396,
			"type":"VEC3"
		},
		{
			"bufferView":7,
			"componentType":5123,
			"count":576,
			"type":"SCALAR"
		}
	],
	"bufferViews":[
		{
			"buffer":0,
			"byteLength":873072,
			"byteOffset":0,
			"target":34962
		},
		{
			"buffer":0,
			"byteLength":873072,
			"byteOffset":873072,
			"target":34962
		},
		{
			"buffer":0,
			"byteLength":873072,
			"byteOffset":1746144,
			"target":34962
		},
		{
			"buffer":0,
			"byteLength":381456,
			"byteOffset":2619216,
			"target":34963
		},
		{
			"buffer":0,
			"byteLength":4752,
			"byteOffset":3000672,
			"target":34962
		},
		{
			"buffer":0,
			"byteLength":4752,
			"byteOffset":3005424,
			"target":34962
		},
		{
			"buffer":0,
			"byteLength":4752,
			"byteOffset":3010176,
			"target":34962
		},
		{
			"buffer":0,
			"byteLength":1152,
			"byteOffset":3014928,
			"target":34963
		}
	],
	"buffers":[
		{
			"byteLength":3016080,
			"uri":"dorfhalle_2.bin"
		}
	]
}
