{
	"asset":{
		"generator":"Khronos glTF Blender I/O v5.2.40",
		"version":"2.0"
	},
	"extensionsUsed":[
		"KHR_materials_emissive_strength"
	],
	"scene":0,
	"scenes":[
		{
			"name":"Scene",
			"nodes":[
				0
			]
		}
	],
	"nodes":[
		{
			"mesh":0,
			"name":"Dorfhalle"
		}
	],
	"materials":[
		{
			"doubleSided":true,
			"name":"Vorkommen",
			"pbrMetallicRoughness":{
				"metallicFactor":0,
				"roughnessFactor":0.8500000238418579
			}
		},
		{
			"doubleSided":true,
			"emissiveFactor":[
				1,
				0.43415364623069763,
				0.0802198201417923
			],
			"extensions":{
				"KHR_materials_emissive_strength":{
					"emissiveStrength":2.200000047683716
				}
			},
			"name":"DorfhalleLeuchten",
			"pbrMetallicRoughness":{
				"metallicFactor":0,
				"roughnessFactor":0.5
			}
		}
	],
	"meshes":[
		{
			"name":"Dorfhalle",
			"primitives":[
				{
					"attributes":{
						"POSITION":0,
						"NORMAL":1,
						"COLOR_0":2
					},
					"indices":3,
					"material":0
				},
				{
					"attributes":{
						"POSITION":4,
						"NORMAL":5,
						"COLOR_0":6
					},
					"indices":7,
					"material":1
				}
			]
		}
	],
	"accessors":[
		{
			"bufferView":0,
			"componentType":5126,
			"count":28428,
			"max":[
				12.004745483398438,
				8.640000343322754,
				10.395071983337402
			],
			"min":[
				-11.839527130126953,
				-0.800000011920929,
				-10.511070251464844
			],
			"type":"VEC3"
		},
		{
			"bufferView":1,
			"componentType":5126,
			"count":28428,
			"type":"VEC3"
		},
		{
			"bufferView":2,
			"componentType":5126,
			"count":28428,
			"type":"VEC3"
		},
		{
			"bufferView":3,
			"componentType":5123,
			"count":36252,
			"type":"SCALAR"
		},
		{
			"bufferView":4,
			"componentType":5126,
			"count":192,
			"max":[
				5.664999961853027,
				2.8000001907348633,
				4.75
			],
			"min":[
				-5.664999961853027,
				0.1499999761581421,
				-3.325000047683716
			],
			"type":"VEC3"
		},
		{
			"bufferView":5,
			"componentType":5126,
			"count":192,
			"type":"VEC3"
		},
		{
			"bufferView":6,
			"componentType":5126,
			"count":192,
			"type":"VEC3"
		},
		{
			"bufferView":7,
			"componentType":5123,
			"count":288,
			"type":"SCALAR"
		}
	],
	"bufferViews":[
		{
			"buffer":0,
			"byteLength":341136,
			"byteOffset":0,
			"target":34962
		},
		{
			"buffer":0,
			"byteLength":341136,
			"byteOffset":341136,
			"target":34962
		},
		{
			"buffer":0,
			"byteLength":341136,
			"byteOffset":682272,
			"target":34962
		},
		{
			"buffer":0,
			"byteLength":72504,
			"byteOffset":1023408,
			"target":34963
		},
		{
			"buffer":0,
			"byteLength":2304,
			"byteOffset":1095912,
			"target":34962
		},
		{
			"buffer":0,
			"byteLength":2304,
			"byteOffset":1098216,
			"target":34962
		},
		{
			"buffer":0,
			"byteLength":2304,
			"byteOffset":1100520,
			"target":34962
		},
		{
			"buffer":0,
			"byteLength":576,
			"byteOffset":1102824,
			"target":34963
		}
	],
	"buffers":[
		{
			"byteLength":1103400,
			"uri":"dorfhalle_1.bin"
		}
	]
}
