{
	"asset":{
		"generator":"Khronos glTF Blender I/O v5.2.40",
		"version":"2.0"
	},
	"extensionsUsed":[
		"KHR_materials_emissive_strength"
	],
	"scene":0,
	"scenes":[
		{
			"name":"Scene",
			"nodes":[
				0
			]
		}
	],
	"nodes":[
		{
			"mesh":0,
			"name":"Burgfried"
		}
	],
	"materials":[
		{
			"doubleSided":true,
			"name":"Vorkommen",
			"pbrMetallicRoughness":{
				"metallicFactor":0,
				"roughnessFactor":0.8500000238418579
			}
		},
		{
			"doubleSided":true,
			"emissiveFactor":[
				1,
				0.43415364623069763,
				0.0802198201417923
			],
			"extensions":{
				"KHR_materials_emissive_strength":{
					"emissiveStrength":2.200000047683716
				}
			},
			"name":"BurgfriedLeuchten",
			"pbrMetallicRoughness":{
				"metallicFactor":0,
				"roughnessFactor":0.5
			}
		}
	],
	"meshes":[
		{
			"name":"Burgfried",
			"primitives":[
				{
					"attributes":{
						"POSITION":0,
						"NORMAL":1,
						"COLOR_0":2
					},
					"indices":3,
					"material":0
				},
				{
					"attributes":{
						"POSITION":4,
						"NORMAL":5,
						"COLOR_0":6
					},
					"indices":7,
					"material":1
				}
			]
		}
	],
	"accessors":[
		{
			"bufferView":0,
			"componentType":5126,
			"count":100328,
			"max":[
				12.289011001586914,
				22.720001220703125,
				10.483644485473633
			],
			"min":[
				-12.062315940856934,
				-1.0499999523162842,
				-10.153642654418945
			],
			"type":"VEC3"
		},
		{
			"bufferView":1,
			"componentType":5126,
			"count":100328,
			"type":"VEC3"
		},
		{
			"bufferView":2,
			"componentType":5126,
			"count":100328,
			"type":"VEC3"
		},
		{
			"bufferView":3,
			"componentType":5125,
			"count":135762,
			"type":"SCALAR"
		},
		{
			"bufferView":4,
			"componentType":5126,
			"count":900,
			"max":[
				8.300000190734863,
				14.90000057220459,
				6.070000171661377
			],
			"min":[
				-8.783136367797852,
				0.20000000298023224,
				-8.183136940002441
			],
			"type":"VEC3"
		},
		{
			"bufferView":5,
			"componentType":5126,
			"count":900,
			"type":"VEC3"
		},
		{
			"bufferView":6,
			"componentType":5126,
			"count":900,
			"type":"VEC3"
		},
		{
			"bufferView":7,
			"componentType":5123,
			"count":1332,
			"type":"SCALAR"
		}
	],
	"bufferViews":[
		{
			"buffer":0,
			"byteLength":1203936,
			"byteOffset":0,
			"target":34962
		},
		{
			"buffer":0,
			"byteLength":1203936,
			"byteOffset":1203936,
			"target":34962
		},
		{
			"buffer":0,
			"byteLength":1203936,
			"byteOffset":2407872,
			"target":34962
		},
		{
			"buffer":0,
			"byteLength":543048,
			"byteOffset":3611808,
			"target":34963
		},
		{
			"buffer":0,
			"byteLength":10800,
			"byteOffset":4154856,
			"target":34962
		},
		{
			"buffer":0,
			"byteLength":10800,
			"byteOffset":4165656,
			"target":34962
		},
		{
			"buffer":0,
			"byteLength":10800,
			"byteOffset":4176456,
			"target":34962
		},
		{
			"buffer":0,
			"byteLength":2664,
			"byteOffset":4187256,
			"target":34963
		}
	],
	"buffers":[
		{
			"byteLength":4189920,
			"uri":"dorfhalle_3.bin"
		}
	]
}
