{
	"asset":{
		"generator":"Khronos glTF Blender I/O v5.2.40",
		"version":"2.0"
	},
	"extensionsUsed":[
		"KHR_materials_emissive_strength"
	],
	"scene":0,
	"scenes":[
		{
			"name":"Scene",
			"nodes":[
				0
			]
		}
	],
	"nodes":[
		{
			"mesh":0,
			"name":"Erzmine"
		}
	],
	"materials":[
		{
			"doubleSided":true,
			"name":"Vorkommen",
			"pbrMetallicRoughness":{
				"metallicFactor":0,
				"roughnessFactor":0.8500000238418579
			}
		},
		{
			"doubleSided":true,
			"emissiveFactor":[
				1,
				0.43415364623069763,
				0.0802198201417923
			],
			"extensions":{
				"KHR_materials_emissive_strength":{
					"emissiveStrength":2.200000047683716
				}
			},
			"name":"ErzmineLeuchten",
			"pbrMetallicRoughness":{
				"metallicFactor":0,
				"roughnessFactor":0.5
			}
		}
	],
	"meshes":[
		{
			"name":"Erzmine",
			"primitives":[
				{
					"attributes":{
						"POSITION":0,
						"NORMAL":1,
						"COLOR_0":2
					},
					"indices":3,
					"material":0
				},
				{
					"attributes":{
						"POSITION":4,
						"NORMAL":5,
						"COLOR_0":6
					},
					"indices":7,
					"material":1
				}
			]
		}
	],
	"accessors":[
		{
			"bufferView":0,
			"componentType":5126,
			"count":64944,
			"max":[
				7.935255527496338,
				4.736721038818359,
				7.454660415649414
			],
			"min":[
				-8.160649299621582,
				-2.6523396968841553,
				-7.497315883636475
			],
			"type":"VEC3"
		},
		{
			"bufferView":1,
			"componentType":5126,
			"count":64944,
			"type":"VEC3"
		},
		{
			"bufferView":2,
			"componentType":5126,
			"count":64944,
			"type":"VEC3"
		},
		{
			"bufferView":3,
			"componentType":5123,
			"count":67764,
			"type":"SCALAR"
		},
		{
			"bufferView":4,
			"componentType":5126,
			"count":128,
			"max":[
				2.0999999046325684,
				2.059999942779541,
				2.145435333251953
			],
			"min":[
				-1.2599999904632568,
				1.0628242492675781,
				-0.18000000715255737
			],
			"type":"VEC3"
		},
		{
			"bufferView":5,
			"componentType":5126,
			"count":128,
			"type":"VEC3"
		},
		{
			"bufferView":6,
			"componentType":5126,
			"count":128,
			"type":"VEC3"
		},
		{
			"bufferView":7,
			"componentType":5123,
			"count":168,
			"type":"SCALAR"
		}
	],
	"bufferViews":[
		{
			"buffer":0,
			"byteLength":779328,
			"byteOffset":0,
			"target":34962
		},
		{
			"buffer":0,
			"byteLength":779328,
			"byteOffset":779328,
			"target":34962
		},
		{
			"buffer":0,
			"byteLength":779328,
			"byteOffset":1558656,
			"target":34962
		},
		{
			"buffer":0,
			"byteLength":135528,
			"byteOffset":2337984,
			"target":34963
		},
		{
			"buffer":0,
			"byteLength":1536,
			"byteOffset":2473512,
			"target":34962
		},
		{
			"buffer":0,
			"byteLength":1536,
			"byteOffset":2475048,
			"target":34962
		},
		{
			"buffer":0,
			"byteLength":1536,
			"byteOffset":2476584,
			"target":34962
		},
		{
			"buffer":0,
			"byteLength":336,
			"byteOffset":2478120,
			"target":34963
		}
	],
	"buffers":[
		{
			"byteLength":2478456,
			"uri":"erzmine.bin"
		}
	]
}
