{
	"asset":{
		"generator":"Khronos glTF Blender I/O v5.2.40",
		"version":"2.0"
	},
	"scene":0,
	"scenes":[
		{
			"name":"Scene",
			"nodes":[
				0
			]
		}
	],
	"nodes":[
		{
			"mesh":0,
			"name":"Falle_teer"
		}
	],
	"materials":[
		{
			"doubleSided":true,
			"name":"Burg",
			"pbrMetallicRoughness":{
				"metallicFactor":0,
				"roughnessFactor":0.8999999761581421
			}
		}
	],
	"meshes":[
		{
			"name":"Falle_teer",
			"primitives":[
				{
					"attributes":{
						"POSITION":0,
						"NORMAL":1,
						"TEXCOORD_0":2,
						"COLOR_0":3
					},
					"indices":4,
					"material":0
				}
			]
		}
	],
	"accessors":[
		{
			"bufferView":0,
			"componentType":5126,
			"count":642,
			"max":[
				2.6214101314544678,
				0.7018909454345703,
				2.0570566654205322
			],
			"min":[
				-2.212751865386963,
				-0.009999999776482582,
				-1.9500000476837158
			],
			"type":"VEC3"
		},
		{
			"bufferView":1,
			"componentType":5126,
			"count":642,
			"type":"VEC3"
		},
		{
			"bufferView":2,
			"componentType":5126,
			"count":642,
			"type":"VEC2"
		},
		{
			"bufferView":3,
			"componentType":5126,
			"count":642,
			"type":"VEC3"
		},
		{
			"bufferView":4,
			"componentType":5123,
			"count":906,
			"type":"SCALAR"
		}
	],
	"bufferViews":[
		{
			"buffer":0,
			"byteLength":7704,
			"byteOffset":0,
			"target":34962
		},
		{
			"buffer":0,
			"byteLength":7704,
			"byteOffset":7704,
			"target":34962
		},
		{
			"buffer":0,
			"byteLength":5136,
			"byteOffset":15408,
			"target":34962
		},
		{
			"buffer":0,
			"byteLength":7704,
			"byteOffset":20544,
			"target":34962
		},
		{
			"buffer":0,
			"byteLength":1812,
			"byteOffset":28248,
			"target":34963
		}
	],
	"buffers":[
		{
			"byteLength":30060,
			"uri":"falle_teer.bin"
		}
	]
}
