{
	"asset":{
		"generator":"Khronos glTF Blender I/O v5.2.40",
		"version":"2.0"
	},
	"extensionsUsed":[
		"KHR_materials_emissive_strength"
	],
	"scene":0,
	"scenes":[
		{
			"name":"Scene",
			"nodes":[
				0
			]
		}
	],
	"nodes":[
		{
			"mesh":0,
			"name":"Holzfaeller"
		}
	],
	"materials":[
		{
			"doubleSided":true,
			"name":"Vorkommen",
			"pbrMetallicRoughness":{
				"metallicFactor":0,
				"roughnessFactor":0.8500000238418579
			}
		},
		{
			"doubleSided":true,
			"emissiveFactor":[
				1,
				0.43415364623069763,
				0.0802198201417923
			],
			"extensions":{
				"KHR_materials_emissive_strength":{
					"emissiveStrength":2.200000047683716
				}
			},
			"name":"HolzfaellerLeuchten",
			"pbrMetallicRoughness":{
				"metallicFactor":0,
				"roughnessFactor":0.5
			}
		}
	],
	"meshes":[
		{
			"name":"Holzfaeller",
			"primitives":[
				{
					"attributes":{
						"POSITION":0,
						"NORMAL":1,
						"COLOR_0":2
					},
					"indices":3,
					"material":0
				},
				{
					"attributes":{
						"POSITION":4,
						"NORMAL":5,
						"COLOR_0":6
					},
					"indices":7,
					"material":1
				}
			]
		}
	],
	"accessors":[
		{
			"bufferView":0,
			"componentType":5126,
			"count":57358,
			"max":[
				7.610915660858154,
				6.555000305175781,
				6.304245471954346
			],
			"min":[
				-8.586552619934082,
				-1.0499999523162842,
				-6.947192192077637
			],
			"type":"VEC3"
		},
		{
			"bufferView":1,
			"componentType":5126,
			"count":57358,
			"type":"VEC3"
		},
		{
			"bufferView":2,
			"componentType":5126,
			"count":57358,
			"type":"VEC3"
		},
		{
			"bufferView":3,
			"componentType":5123,
			"count":82338,
			"type":"SCALAR"
		},
		{
			"bufferView":4,
			"componentType":5126,
			"count":96,
			"max":[
				3.119999885559082,
				2.4650001525878906,
				4.079999923706055
			],
			"min":[
				-3.119999885559082,
				1.4800000190734863,
				-0.699999988079071
			],
			"type":"VEC3"
		},
		{
			"bufferView":5,
			"componentType":5126,
			"count":96,
			"type":"VEC3"
		},
		{
			"bufferView":6,
			"componentType":5126,
			"count":96,
			"type":"VEC3"
		},
		{
			"bufferView":7,
			"componentType":5123,
			"count":144,
			"type":"SCALAR"
		}
	],
	"bufferViews":[
		{
			"buffer":0,
			"byteLength":688296,
			"byteOffset":0,
			"target":34962
		},
		{
			"buffer":0,
			"byteLength":688296,
			"byteOffset":688296,
			"target":34962
		},
		{
			"buffer":0,
			"byteLength":688296,
			"byteOffset":1376592,
			"target":34962
		},
		{
			"buffer":0,
			"byteLength":164676,
			"byteOffset":2064888,
			"target":34963
		},
		{
			"buffer":0,
			"byteLength":1152,
			"byteOffset":2229564,
			"target":34962
		},
		{
			"buffer":0,
			"byteLength":1152,
			"byteOffset":2230716,
			"target":34962
		},
		{
			"buffer":0,
			"byteLength":1152,
			"byteOffset":2231868,
			"target":34962
		},
		{
			"buffer":0,
			"byteLength":288,
			"byteOffset":2233020,
			"target":34963
		}
	],
	"buffers":[
		{
			"byteLength":2233308,
			"uri":"holzfaeller.bin"
		}
	]
}
