{
	"asset":{
		"generator":"Khronos glTF Blender I/O v5.2.40",
		"version":"2.0"
	},
	"extensionsUsed":[
		"KHR_materials_emissive_strength"
	],
	"scene":0,
	"scenes":[
		{
			"name":"Scene",
			"nodes":[
				0
			]
		}
	],
	"nodes":[
		{
			"mesh":0,
			"name":"Kristallturm"
		}
	],
	"materials":[
		{
			"doubleSided":true,
			"name":"Vorkommen",
			"pbrMetallicRoughness":{
				"metallicFactor":0,
				"roughnessFactor":0.8500000238418579
			}
		},
		{
			"doubleSided":true,
			"emissiveFactor":[
				1,
				0.43415364623069763,
				0.0802198201417923
			],
			"extensions":{
				"KHR_materials_emissive_strength":{
					"emissiveStrength":2.200000047683716
				}
			},
			"name":"KristallturmLeuchten",
			"pbrMetallicRoughness":{
				"metallicFactor":0,
				"roughnessFactor":0.5
			}
		}
	],
	"meshes":[
		{
			"name":"Kristallturm",
			"primitives":[
				{
					"attributes":{
						"POSITION":0,
						"NORMAL":1,
						"COLOR_0":2
					},
					"indices":3,
					"material":0
				},
				{
					"attributes":{
						"POSITION":4,
						"NORMAL":5,
						"COLOR_0":6
					},
					"indices":7,
					"material":1
				}
			]
		}
	],
	"accessors":[
		{
			"bufferView":0,
			"componentType":5126,
			"count":45160,
			"max":[
				6.8842973709106445,
				11.699999809265137,
				6.700368404388428
			],
			"min":[
				-7.3809814453125,
				-0.800000011920929,
				-7.224846363067627
			],
			"type":"VEC3"
		},
		{
			"bufferView":1,
			"componentType":5126,
			"count":45160,
			"type":"VEC3"
		},
		{
			"bufferView":2,
			"componentType":5126,
			"count":45160,
			"type":"VEC3"
		},
		{
			"bufferView":3,
			"componentType":5123,
			"count":61500,
			"type":"SCALAR"
		},
		{
			"bufferView":4,
			"componentType":5126,
			"count":7704,
			"max":[
				5.800265312194824,
				14.725957870483398,
				4.279999732971191
			],
			"min":[
				-5.431206226348877,
				-0.08383539319038391,
				-4.039498329162598
			],
			"type":"VEC3"
		},
		{
			"bufferView":5,
			"componentType":5126,
			"count":7704,
			"type":"VEC3"
		},
		{
			"bufferView":6,
			"componentType":5126,
			"count":7704,
			"type":"VEC3"
		},
		{
			"bufferView":7,
			"componentType":5123,
			"count":11208,
			"type":"SCALAR"
		}
	],
	"bufferViews":[
		{
			"buffer":0,
			"byteLength":541920,
			"byteOffset":0,
			"target":34962
		},
		{
			"buffer":0,
			"byteLength":541920,
			"byteOffset":541920,
			"target":34962
		},
		{
			"buffer":0,
			"byteLength":541920,
			"byteOffset":1083840,
			"target":34962
		},
		{
			"buffer":0,
			"byteLength":123000,
			"byteOffset":1625760,
			"target":34963
		},
		{
			"buffer":0,
			"byteLength":92448,
			"byteOffset":1748760,
			"target":34962
		},
		{
			"buffer":0,
			"byteLength":92448,
			"byteOffset":1841208,
			"target":34962
		},
		{
			"buffer":0,
			"byteLength":92448,
			"byteOffset":1933656,
			"target":34962
		},
		{
			"buffer":0,
			"byteLength":22416,
			"byteOffset":2026104,
			"target":34963
		}
	],
	"buffers":[
		{
			"byteLength":2048520,
			"uri":"kristallturm.bin"
		}
	]
}
