{
	"asset":{
		"generator":"Khronos glTF Blender I/O v5.2.40",
		"version":"2.0"
	},
	"extensionsUsed":[
		"KHR_materials_emissive_strength"
	],
	"scene":0,
	"scenes":[
		{
			"name":"Scene",
			"nodes":[
				0
			]
		}
	],
	"nodes":[
		{
			"mesh":0,
			"name":"Lehmgrube"
		}
	],
	"materials":[
		{
			"doubleSided":true,
			"name":"Vorkommen",
			"pbrMetallicRoughness":{
				"metallicFactor":0,
				"roughnessFactor":0.8500000238418579
			}
		},
		{
			"doubleSided":true,
			"emissiveFactor":[
				1,
				0.43415364623069763,
				0.0802198201417923
			],
			"extensions":{
				"KHR_materials_emissive_strength":{
					"emissiveStrength":2.200000047683716
				}
			},
			"name":"LehmgrubeLeuchten",
			"pbrMetallicRoughness":{
				"metallicFactor":0,
				"roughnessFactor":0.5
			}
		}
	],
	"meshes":[
		{
			"name":"Lehmgrube",
			"primitives":[
				{
					"attributes":{
						"POSITION":0,
						"NORMAL":1,
						"COLOR_0":2
					},
					"indices":3,
					"material":0
				},
				{
					"attributes":{
						"POSITION":4,
						"NORMAL":5,
						"COLOR_0":6
					},
					"indices":7,
					"material":1
				}
			]
		}
	],
	"accessors":[
		{
			"bufferView":0,
			"componentType":5126,
			"count":45322,
			"max":[
				7.726298809051514,
				3.6893672943115234,
				7.1854681968688965
			],
			"min":[
				-7.772916793823242,
				-1.599206566810608,
				-7.724610328674316
			],
			"type":"VEC3"
		},
		{
			"bufferView":1,
			"componentType":5126,
			"count":45322,
			"type":"VEC3"
		},
		{
			"bufferView":2,
			"componentType":5126,
			"count":45322,
			"type":"VEC3"
		},
		{
			"bufferView":3,
			"componentType":5123,
			"count":59970,
			"type":"SCALAR"
		},
		{
			"bufferView":4,
			"componentType":5126,
			"count":72,
			"max":[
				4.700000286102295,
				1.9600000381469727,
				4.380000114440918
			],
			"min":[
				-2.059999942779541,
				0.17499998211860657,
				0.6700000762939453
			],
			"type":"VEC3"
		},
		{
			"bufferView":5,
			"componentType":5126,
			"count":72,
			"type":"VEC3"
		},
		{
			"bufferView":6,
			"componentType":5126,
			"count":72,
			"type":"VEC3"
		},
		{
			"bufferView":7,
			"componentType":5123,
			"count":108,
			"type":"SCALAR"
		}
	],
	"bufferViews":[
		{
			"buffer":0,
			"byteLength":543864,
			"byteOffset":0,
			"target":34962
		},
		{
			"buffer":0,
			"byteLength":543864,
			"byteOffset":543864,
			"target":34962
		},
		{
			"buffer":0,
			"byteLength":543864,
			"byteOffset":1087728,
			"target":34962
		},
		{
			"buffer":0,
			"byteLength":119940,
			"byteOffset":1631592,
			"target":34963
		},
		{
			"buffer":0,
			"byteLength":864,
			"byteOffset":1751532,
			"target":34962
		},
		{
			"buffer":0,
			"byteLength":864,
			"byteOffset":1752396,
			"target":34962
		},
		{
			"buffer":0,
			"byteLength":864,
			"byteOffset":1753260,
			"target":34962
		},
		{
			"buffer":0,
			"byteLength":216,
			"byteOffset":1754124,
			"target":34963
		}
	],
	"buffers":[
		{
			"byteLength":1754340,
			"uri":"lehmgrube.bin"
		}
	]
}
