{
	"asset":{
		"generator":"Khronos glTF Blender I/O v5.2.40",
		"version":"2.0"
	},
	"extensionsUsed":[
		"KHR_materials_emissive_strength"
	],
	"scene":0,
	"scenes":[
		{
			"name":"Scene",
			"nodes":[
				0
			]
		}
	],
	"nodes":[
		{
			"mesh":0,
			"name":"Schutzstein"
		}
	],
	"materials":[
		{
			"doubleSided":true,
			"name":"Burg",
			"pbrMetallicRoughness":{
				"metallicFactor":0,
				"roughnessFactor":0.8999999761581421
			}
		},
		{
			"doubleSided":true,
			"emissiveFactor":[
				1,
				0.7605245113372803,
				0.3915724754333496
			],
			"extensions":{
				"KHR_materials_emissive_strength":{
					"emissiveStrength":2.5
				}
			},
			"name":"SchutzsteinGlas",
			"pbrMetallicRoughness":{
				"metallicFactor":0,
				"roughnessFactor":0.5
			}
		}
	],
	"meshes":[
		{
			"name":"Schutzstein",
			"primitives":[
				{
					"attributes":{
						"POSITION":0,
						"NORMAL":1,
						"TEXCOORD_0":2,
						"COLOR_0":3
					},
					"indices":4,
					"material":0
				},
				{
					"attributes":{
						"POSITION":5,
						"NORMAL":6,
						"TEXCOORD_0":7,
						"COLOR_0":8
					},
					"indices":9,
					"material":1
				}
			]
		}
	],
	"accessors":[
		{
			"bufferView":0,
			"componentType":5126,
			"count":680,
			"max":[
				2.5999999046325684,
				5.149999618530273,
				2.5999999046325684
			],
			"min":[
				-2.5999999046325684,
				-0.6000000238418579,
				-2.5999999046325684
			],
			"type":"VEC3"
		},
		{
			"bufferView":1,
			"componentType":5126,
			"count":680,
			"type":"VEC3"
		},
		{
			"bufferView":2,
			"componentType":5126,
			"count":680,
			"type":"VEC2"
		},
		{
			"bufferView":3,
			"componentType":5126,
			"count":680,
			"type":"VEC3"
		},
		{
			"bufferView":4,
			"componentType":5123,
			"count":1002,
			"type":"SCALAR"
		},
		{
			"bufferView":5,
			"componentType":5126,
			"count":300,
			"max":[
				0.7098610997200012,
				6.599999904632568,
				0.7098610997200012
			],
			"min":[
				-0.7098610997200012,
				1.5,
				-0.7098610997200012
			],
			"type":"VEC3"
		},
		{
			"bufferView":6,
			"componentType":5126,
			"count":300,
			"type":"VEC3"
		},
		{
			"bufferView":7,
			"componentType":5126,
			"count":300,
			"type":"VEC2"
		},
		{
			"bufferView":8,
			"componentType":5126,
			"count":300,
			"type":"VEC3"
		},
		{
			"bufferView":9,
			"componentType":5123,
			"count":420,
			"type":"SCALAR"
		}
	],
	"bufferViews":[
		{
			"buffer":0,
			"byteLength":8160,
			"byteOffset":0,
			"target":34962
		},
		{
			"buffer":0,
			"byteLength":8160,
			"byteOffset":8160,
			"target":34962
		},
		{
			"buffer":0,
			"byteLength":5440,
			"byteOffset":16320,
			"target":34962
		},
		{
			"buffer":0,
			"byteLength":8160,
			"byteOffset":21760,
			"target":34962
		},
		{
			"buffer":0,
			"byteLength":2004,
			"byteOffset":29920,
			"target":34963
		},
		{
			"buffer":0,
			"byteLength":3600,
			"byteOffset":31924,
			"target":34962
		},
		{
			"buffer":0,
			"byteLength":3600,
			"byteOffset":35524,
			"target":34962
		},
		{
			"buffer":0,
			"byteLength":2400,
			"byteOffset":39124,
			"target":34962
		},
		{
			"buffer":0,
			"byteLength":3600,
			"byteOffset":41524,
			"target":34962
		},
		{
			"buffer":0,
			"byteLength":840,
			"byteOffset":45124,
			"target":34963
		}
	],
	"buffers":[
		{
			"byteLength":45964,
			"uri":"schutzstein.bin"
		}
	]
}
