{
	"asset":{
		"generator":"Khronos glTF Blender I/O v5.2.40",
		"version":"2.0"
	},
	"extensionsUsed":[
		"KHR_materials_emissive_strength"
	],
	"scene":0,
	"scenes":[
		{
			"name":"Scene",
			"nodes":[
				0
			]
		}
	],
	"nodes":[
		{
			"mesh":0,
			"name":"Steinbruch"
		}
	],
	"materials":[
		{
			"doubleSided":true,
			"name":"Vorkommen",
			"pbrMetallicRoughness":{
				"metallicFactor":0,
				"roughnessFactor":0.8500000238418579
			}
		},
		{
			"doubleSided":true,
			"emissiveFactor":[
				1,
				0.43415364623069763,
				0.0802198201417923
			],
			"extensions":{
				"KHR_materials_emissive_strength":{
					"emissiveStrength":2.200000047683716
				}
			},
			"name":"SteinbruchLeuchten",
			"pbrMetallicRoughness":{
				"metallicFactor":0,
				"roughnessFactor":0.5
			}
		}
	],
	"meshes":[
		{
			"name":"Steinbruch",
			"primitives":[
				{
					"attributes":{
						"POSITION":0,
						"NORMAL":1,
						"COLOR_0":2
					},
					"indices":3,
					"material":0
				},
				{
					"attributes":{
						"POSITION":4,
						"NORMAL":5,
						"COLOR_0":6
					},
					"indices":7,
					"material":1
				}
			]
		}
	],
	"accessors":[
		{
			"bufferView":0,
			"componentType":5126,
			"count":22830,
			"max":[
				9.203144073486328,
				6.084226131439209,
				7.279931545257568
			],
			"min":[
				-9.24719524383545,
				-2.6518750190734863,
				-7.7032270431518555
			],
			"type":"VEC3"
		},
		{
			"bufferView":1,
			"componentType":5126,
			"count":22830,
			"type":"VEC3"
		},
		{
			"bufferView":2,
			"componentType":5126,
			"count":22830,
			"type":"VEC3"
		},
		{
			"bufferView":3,
			"componentType":5123,
			"count":26418,
			"type":"SCALAR"
		},
		{
			"bufferView":4,
			"componentType":5126,
			"count":24,
			"max":[
				2.3999998569488525,
				1.9600000381469727,
				4.480000019073486
			],
			"min":[
				2.240000009536743,
				1.6800000667572021,
				4.320000171661377
			],
			"type":"VEC3"
		},
		{
			"bufferView":5,
			"componentType":5126,
			"count":24,
			"type":"VEC3"
		},
		{
			"bufferView":6,
			"componentType":5126,
			"count":24,
			"type":"VEC3"
		},
		{
			"bufferView":7,
			"componentType":5123,
			"count":36,
			"type":"SCALAR"
		}
	],
	"bufferViews":[
		{
			"buffer":0,
			"byteLength":273960,
			"byteOffset":0,
			"target":34962
		},
		{
			"buffer":0,
			"byteLength":273960,
			"byteOffset":273960,
			"target":34962
		},
		{
			"buffer":0,
			"byteLength":273960,
			"byteOffset":547920,
			"target":34962
		},
		{
			"buffer":0,
			"byteLength":52836,
			"byteOffset":821880,
			"target":34963
		},
		{
			"buffer":0,
			"byteLength":288,
			"byteOffset":874716,
			"target":34962
		},
		{
			"buffer":0,
			"byteLength":288,
			"byteOffset":875004,
			"target":34962
		},
		{
			"buffer":0,
			"byteLength":288,
			"byteOffset":875292,
			"target":34962
		},
		{
			"buffer":0,
			"byteLength":72,
			"byteOffset":875580,
			"target":34963
		}
	],
	"buffers":[
		{
			"byteLength":875652,
			"uri":"steinbruch.bin"
		}
	]
}
