{
	"asset":{
		"generator":"Khronos glTF Blender I/O v5.2.40",
		"version":"2.0"
	},
	"extensionsUsed":[
		"KHR_materials_emissive_strength"
	],
	"scene":0,
	"scenes":[
		{
			"name":"Scene",
			"nodes":[
				0
			]
		}
	],
	"nodes":[
		{
			"mesh":0,
			"name":"Turm_arkan_1"
		}
	],
	"materials":[
		{
			"doubleSided":true,
			"name":"Vorkommen",
			"pbrMetallicRoughness":{
				"metallicFactor":0,
				"roughnessFactor":0.8500000238418579
			}
		},
		{
			"doubleSided":true,
			"emissiveFactor":[
				1,
				0.43415364623069763,
				0.0802198201417923
			],
			"extensions":{
				"KHR_materials_emissive_strength":{
					"emissiveStrength":2.200000047683716
				}
			},
			"name":"Turm_arkan_1Leuchten",
			"pbrMetallicRoughness":{
				"metallicFactor":0,
				"roughnessFactor":0.5
			}
		}
	],
	"meshes":[
		{
			"name":"Turm_arkan_1",
			"primitives":[
				{
					"attributes":{
						"POSITION":0,
						"NORMAL":1,
						"COLOR_0":2
					},
					"indices":3,
					"material":0
				},
				{
					"attributes":{
						"POSITION":4,
						"NORMAL":5,
						"COLOR_0":6
					},
					"indices":7,
					"material":1
				}
			]
		}
	],
	"accessors":[
		{
			"bufferView":0,
			"componentType":5126,
			"count":14556,
			"max":[
				2.229973316192627,
				4.800000190734863,
				2.198759078979492
			],
			"min":[
				-2.1556448936462402,
				-0.6000000238418579,
				-2.2075839042663574
			],
			"type":"VEC3"
		},
		{
			"bufferView":1,
			"componentType":5126,
			"count":14556,
			"type":"VEC3"
		},
		{
			"bufferView":2,
			"componentType":5126,
			"count":14556,
			"type":"VEC3"
		},
		{
			"bufferView":3,
			"componentType":5123,
			"count":19200,
			"type":"SCALAR"
		},
		{
			"bufferView":4,
			"componentType":5126,
			"count":576,
			"max":[
				1.9500000476837158,
				3.7471117973327637,
				1.9070254564285278
			],
			"min":[
				-1.6773779392242432,
				1.3528883457183838,
				-1.9070254564285278
			],
			"type":"VEC3"
		},
		{
			"bufferView":5,
			"componentType":5126,
			"count":576,
			"type":"VEC3"
		},
		{
			"bufferView":6,
			"componentType":5126,
			"count":576,
			"type":"VEC3"
		},
		{
			"bufferView":7,
			"componentType":5123,
			"count":804,
			"type":"SCALAR"
		}
	],
	"bufferViews":[
		{
			"buffer":0,
			"byteLength":174672,
			"byteOffset":0,
			"target":34962
		},
		{
			"buffer":0,
			"byteLength":174672,
			"byteOffset":174672,
			"target":34962
		},
		{
			"buffer":0,
			"byteLength":174672,
			"byteOffset":349344,
			"target":34962
		},
		{
			"buffer":0,
			"byteLength":38400,
			"byteOffset":524016,
			"target":34963
		},
		{
			"buffer":0,
			"byteLength":6912,
			"byteOffset":562416,
			"target":34962
		},
		{
			"buffer":0,
			"byteLength":6912,
			"byteOffset":569328,
			"target":34962
		},
		{
			"buffer":0,
			"byteLength":6912,
			"byteOffset":576240,
			"target":34962
		},
		{
			"buffer":0,
			"byteLength":1608,
			"byteOffset":583152,
			"target":34963
		}
	],
	"buffers":[
		{
			"byteLength":584760,
			"uri":"turm_arkan_1.bin"
		}
	]
}
