{
	"asset":{
		"generator":"Khronos glTF Blender I/O v5.2.40",
		"version":"2.0"
	},
	"extensionsUsed":[
		"KHR_materials_emissive_strength"
	],
	"scene":0,
	"scenes":[
		{
			"name":"Scene",
			"nodes":[
				0
			]
		}
	],
	"nodes":[
		{
			"mesh":0,
			"name":"Turm_sonne_2"
		}
	],
	"materials":[
		{
			"doubleSided":true,
			"name":"Burg",
			"pbrMetallicRoughness":{
				"metallicFactor":0,
				"roughnessFactor":0.8999999761581421
			}
		},
		{
			"doubleSided":true,
			"emissiveFactor":[
				1,
				0.7605245113372803,
				0.3915724754333496
			],
			"extensions":{
				"KHR_materials_emissive_strength":{
					"emissiveStrength":2
				}
			},
			"name":"Turm_sonne_2Glas",
			"pbrMetallicRoughness":{
				"metallicFactor":0,
				"roughnessFactor":0.5
			}
		}
	],
	"meshes":[
		{
			"name":"Turm_sonne_2",
			"primitives":[
				{
					"attributes":{
						"POSITION":0,
						"NORMAL":1,
						"TEXCOORD_0":2,
						"COLOR_0":3
					},
					"indices":4,
					"material":0
				},
				{
					"attributes":{
						"POSITION":5,
						"NORMAL":6,
						"TEXCOORD_0":7,
						"COLOR_0":8
					},
					"indices":9,
					"material":1
				}
			]
		}
	],
	"accessors":[
		{
			"bufferView":0,
			"componentType":5126,
			"count":1128,
			"max":[
				1.7590667009353638,
				6.599999904632568,
				1.7590667009353638
			],
			"min":[
				-1.7590667009353638,
				-0.6000000238418579,
				-2.032013416290283
			],
			"type":"VEC3"
		},
		{
			"bufferView":1,
			"componentType":5126,
			"count":1128,
			"type":"VEC3"
		},
		{
			"bufferView":2,
			"componentType":5126,
			"count":1128,
			"type":"VEC2"
		},
		{
			"bufferView":3,
			"componentType":5126,
			"count":1128,
			"type":"VEC3"
		},
		{
			"bufferView":4,
			"componentType":5123,
			"count":1944,
			"type":"SCALAR"
		},
		{
			"bufferView":5,
			"componentType":5126,
			"count":120,
			"max":[
				1.004091739654541,
				4.200000286102295,
				1.0040916204452515
			],
			"min":[
				-1.004091739654541,
				3.4000000953674316,
				-1.0040916204452515
			],
			"type":"VEC3"
		},
		{
			"bufferView":6,
			"componentType":5126,
			"count":120,
			"type":"VEC3"
		},
		{
			"bufferView":7,
			"componentType":5126,
			"count":120,
			"type":"VEC2"
		},
		{
			"bufferView":8,
			"componentType":5126,
			"count":120,
			"type":"VEC3"
		},
		{
			"bufferView":9,
			"componentType":5123,
			"count":192,
			"type":"SCALAR"
		}
	],
	"bufferViews":[
		{
			"buffer":0,
			"byteLength":13536,
			"byteOffset":0,
			"target":34962
		},
		{
			"buffer":0,
			"byteLength":13536,
			"byteOffset":13536,
			"target":34962
		},
		{
			"buffer":0,
			"byteLength":9024,
			"byteOffset":27072,
			"target":34962
		},
		{
			"buffer":0,
			"byteLength":13536,
			"byteOffset":36096,
			"target":34962
		},
		{
			"buffer":0,
			"byteLength":3888,
			"byteOffset":49632,
			"target":34963
		},
		{
			"buffer":0,
			"byteLength":1440,
			"byteOffset":53520,
			"target":34962
		},
		{
			"buffer":0,
			"byteLength":1440,
			"byteOffset":54960,
			"target":34962
		},
		{
			"buffer":0,
			"byteLength":960,
			"byteOffset":56400,
			"target":34962
		},
		{
			"buffer":0,
			"byteLength":1440,
			"byteOffset":57360,
			"target":34962
		},
		{
			"buffer":0,
			"byteLength":384,
			"byteOffset":58800,
			"target":34963
		}
	],
	"buffers":[
		{
			"byteLength":59184,
			"uri":"turm_sonne_2.bin"
		}
	]
}
