{
	"asset":{
		"generator":"Khronos glTF Blender I/O v5.2.40",
		"version":"2.0"
	},
	"scene":0,
	"scenes":[
		{
			"name":"Scene",
			"nodes":[
				0
			]
		}
	],
	"nodes":[
		{
			"mesh":0,
			"name":"Turm_schatz_1"
		}
	],
	"materials":[
		{
			"doubleSided":true,
			"name":"Vorkommen",
			"pbrMetallicRoughness":{
				"metallicFactor":0,
				"roughnessFactor":0.8500000238418579
			}
		}
	],
	"meshes":[
		{
			"name":"Turm_schatz_1",
			"primitives":[
				{
					"attributes":{
						"POSITION":0,
						"NORMAL":1,
						"COLOR_0":2
					},
					"indices":3,
					"material":0
				}
			]
		}
	],
	"accessors":[
		{
			"bufferView":0,
			"componentType":5126,
			"count":19046,
			"max":[
				1.9500001668930054,
				4.860000133514404,
				2.8931634426116943
			],
			"min":[
				-1.9500001668930054,
				-0.5999999046325684,
				-1.9500000476837158
			],
			"type":"VEC3"
		},
		{
			"bufferView":1,
			"componentType":5126,
			"count":19046,
			"type":"VEC3"
		},
		{
			"bufferView":2,
			"componentType":5126,
			"count":19046,
			"type":"VEC3"
		},
		{
			"bufferView":3,
			"componentType":5123,
			"count":26580,
			"type":"SCALAR"
		}
	],
	"bufferViews":[
		{
			"buffer":0,
			"byteLength":228552,
			"byteOffset":0,
			"target":34962
		},
		{
			"buffer":0,
			"byteLength":228552,
			"byteOffset":228552,
			"target":34962
		},
		{
			"buffer":0,
			"byteLength":228552,
			"byteOffset":457104,
			"target":34962
		},
		{
			"buffer":0,
			"byteLength":53160,
			"byteOffset":685656,
			"target":34963
		}
	],
	"buffers":[
		{
			"byteLength":738816,
			"uri":"turm_schatz_1.bin"
		}
	]
}
