{
	"asset":{
		"generator":"Khronos glTF Blender I/O v5.2.40",
		"version":"2.0"
	},
	"extensionsUsed":[
		"KHR_materials_emissive_strength"
	],
	"scene":0,
	"scenes":[
		{
			"name":"Scene",
			"nodes":[
				0
			]
		}
	],
	"nodes":[
		{
			"mesh":0,
			"name":"Turm_arkan_2"
		}
	],
	"materials":[
		{
			"doubleSided":true,
			"name":"Burg",
			"pbrMetallicRoughness":{
				"metallicFactor":0,
				"roughnessFactor":0.8999999761581421
			}
		},
		{
			"doubleSided":true,
			"emissiveFactor":[
				1,
				0.7605245113372803,
				0.3915724754333496
			],
			"extensions":{
				"KHR_materials_emissive_strength":{
					"emissiveStrength":2
				}
			},
			"name":"Turm_arkan_2Glas",
			"pbrMetallicRoughness":{
				"metallicFactor":0,
				"roughnessFactor":0.5
			}
		}
	],
	"meshes":[
		{
			"name":"Turm_arkan_2",
			"primitives":[
				{
					"attributes":{
						"POSITION":0,
						"NORMAL":1,
						"TEXCOORD_0":2,
						"COLOR_0":3
					},
					"indices":4,
					"material":0
				},
				{
					"attributes":{
						"POSITION":5,
						"NORMAL":6,
						"TEXCOORD_0":7,
						"COLOR_0":8
					},
					"indices":9,
					"material":1
				}
			]
		}
	],
	"accessors":[
		{
			"bufferView":0,
			"componentType":5126,
			"count":648,
			"max":[
				1.7590667009353638,
				6.599999904632568,
				1.7590667009353638
			],
			"min":[
				-1.7590667009353638,
				-0.6000000238418579,
				-1.9396253824234009
			],
			"type":"VEC3"
		},
		{
			"bufferView":1,
			"componentType":5126,
			"count":648,
			"type":"VEC3"
		},
		{
			"bufferView":2,
			"componentType":5126,
			"count":648,
			"type":"VEC2"
		},
		{
			"bufferView":3,
			"componentType":5126,
			"count":648,
			"type":"VEC3"
		},
		{
			"bufferView":4,
			"componentType":5123,
			"count":1044,
			"type":"SCALAR"
		},
		{
			"bufferView":5,
			"componentType":5126,
			"count":616,
			"max":[
				1.7600001096725464,
				5.950000286102295,
				1.7186670303344727
			],
			"min":[
				-1.509098768234253,
				1.7999999523162842,
				-1.7186670303344727
			],
			"type":"VEC3"
		},
		{
			"bufferView":6,
			"componentType":5126,
			"count":616,
			"type":"VEC3"
		},
		{
			"bufferView":7,
			"componentType":5126,
			"count":616,
			"type":"VEC2"
		},
		{
			"bufferView":8,
			"componentType":5126,
			"count":616,
			"type":"VEC3"
		},
		{
			"bufferView":9,
			"componentType":5123,
			"count":870,
			"type":"SCALAR"
		}
	],
	"bufferViews":[
		{
			"buffer":0,
			"byteLength":7776,
			"byteOffset":0,
			"target":34962
		},
		{
			"buffer":0,
			"byteLength":7776,
			"byteOffset":7776,
			"target":34962
		},
		{
			"buffer":0,
			"byteLength":5184,
			"byteOffset":15552,
			"target":34962
		},
		{
			"buffer":0,
			"byteLength":7776,
			"byteOffset":20736,
			"target":34962
		},
		{
			"buffer":0,
			"byteLength":2088,
			"byteOffset":28512,
			"target":34963
		},
		{
			"buffer":0,
			"byteLength":7392,
			"byteOffset":30600,
			"target":34962
		},
		{
			"buffer":0,
			"byteLength":7392,
			"byteOffset":37992,
			"target":34962
		},
		{
			"buffer":0,
			"byteLength":4928,
			"byteOffset":45384,
			"target":34962
		},
		{
			"buffer":0,
			"byteLength":7392,
			"byteOffset":50312,
			"target":34962
		},
		{
			"buffer":0,
			"byteLength":1740,
			"byteOffset":57704,
			"target":34963
		}
	],
	"buffers":[
		{
			"byteLength":59444,
			"uri":"turm_arkan_2.bin"
		}
	]
}
