{
	"asset":{
		"generator":"Khronos glTF Blender I/O v5.2.40",
		"version":"2.0"
	},
	"scene":0,
	"scenes":[
		{
			"name":"Scene",
			"nodes":[
				0
			]
		}
	],
	"nodes":[
		{
			"mesh":0,
			"name":"Turm_pfeil_3"
		}
	],
	"materials":[
		{
			"doubleSided":true,
			"name":"Burg",
			"pbrMetallicRoughness":{
				"metallicFactor":0,
				"roughnessFactor":0.8999999761581421
			}
		}
	],
	"meshes":[
		{
			"name":"Turm_pfeil_3",
			"primitives":[
				{
					"attributes":{
						"POSITION":0,
						"NORMAL":1,
						"TEXCOORD_0":2,
						"COLOR_0":3
					},
					"indices":4,
					"material":0
				}
			]
		}
	],
	"accessors":[
		{
			"bufferView":0,
			"componentType":5126,
			"count":1776,
			"max":[
				1.8200000524520874,
				9.100000381469727,
				1.8200000524520874
			],
			"min":[
				-1.8200000524520874,
				-0.6000000238418579,
				-1.8200000524520874
			],
			"type":"VEC3"
		},
		{
			"bufferView":1,
			"componentType":5126,
			"count":1776,
			"type":"VEC3"
		},
		{
			"bufferView":2,
			"componentType":5126,
			"count":1776,
			"type":"VEC2"
		},
		{
			"bufferView":3,
			"componentType":5126,
			"count":1776,
			"type":"VEC3"
		},
		{
			"bufferView":4,
			"componentType":5123,
			"count":2736,
			"type":"SCALAR"
		}
	],
	"bufferViews":[
		{
			"buffer":0,
			"byteLength":21312,
			"byteOffset":0,
			"target":34962
		},
		{
			"buffer":0,
			"byteLength":21312,
			"byteOffset":21312,
			"target":34962
		},
		{
			"buffer":0,
			"byteLength":14208,
			"byteOffset":42624,
			"target":34962
		},
		{
			"buffer":0,
			"byteLength":21312,
			"byteOffset":56832,
			"target":34962
		},
		{
			"buffer":0,
			"byteLength":5472,
			"byteOffset":78144,
			"target":34963
		}
	],
	"buffers":[
		{
			"byteLength":83616,
			"uri":"turm_pfeil_3.bin"
		}
	]
}
