{
	"asset":{
		"generator":"Khronos glTF Blender I/O v5.2.40",
		"version":"2.0"
	},
	"scene":0,
	"scenes":[
		{
			"name":"Scene",
			"nodes":[
				0
			]
		}
	],
	"nodes":[
		{
			"mesh":0,
			"name":"Kopf_pfeil"
		}
	],
	"materials":[
		{
			"doubleSided":true,
			"name":"Burg",
			"pbrMetallicRoughness":{
				"metallicFactor":0,
				"roughnessFactor":0.8999999761581421
			}
		}
	],
	"meshes":[
		{
			"name":"Kopf_pfeil",
			"primitives":[
				{
					"attributes":{
						"POSITION":0,
						"NORMAL":1,
						"TEXCOORD_0":2,
						"COLOR_0":3
					},
					"indices":4,
					"material":0
				}
			]
		}
	],
	"accessors":[
		{
			"bufferView":0,
			"componentType":5126,
			"count":268,
			"max":[
				1.1520241498947144,
				1.25,
				1.7200000286102295
			],
			"min":[
				-1.1520241498947144,
				0,
				-0.6000000238418579
			],
			"type":"VEC3"
		},
		{
			"bufferView":1,
			"componentType":5126,
			"count":268,
			"type":"VEC3"
		},
		{
			"bufferView":2,
			"componentType":5126,
			"count":268,
			"type":"VEC2"
		},
		{
			"bufferView":3,
			"componentType":5126,
			"count":268,
			"type":"VEC3"
		},
		{
			"bufferView":4,
			"componentType":5123,
			"count":426,
			"type":"SCALAR"
		}
	],
	"bufferViews":[
		{
			"buffer":0,
			"byteLength":3216,
			"byteOffset":0,
			"target":34962
		},
		{
			"buffer":0,
			"byteLength":3216,
			"byteOffset":3216,
			"target":34962
		},
		{
			"buffer":0,
			"byteLength":2144,
			"byteOffset":6432,
			"target":34962
		},
		{
			"buffer":0,
			"byteLength":3216,
			"byteOffset":8576,
			"target":34962
		},
		{
			"buffer":0,
			"byteLength":852,
			"byteOffset":11792,
			"target":34963
		}
	],
	"buffers":[
		{
			"byteLength":12644,
			"uri":"turm_pfeil_kopf.bin"
		}
	]
}
