{
	"asset":{
		"generator":"Khronos glTF Blender I/O v5.2.40",
		"version":"2.0"
	},
	"extensionsUsed":[
		"KHR_materials_emissive_strength"
	],
	"scene":0,
	"scenes":[
		{
			"name":"Scene",
			"nodes":[
				0
			]
		}
	],
	"nodes":[
		{
			"mesh":0,
			"name":"Turm_blitz_3"
		}
	],
	"materials":[
		{
			"doubleSided":true,
			"name":"Vorkommen",
			"pbrMetallicRoughness":{
				"metallicFactor":0,
				"roughnessFactor":0.8500000238418579
			}
		},
		{
			"doubleSided":true,
			"emissiveFactor":[
				1,
				0.43415364623069763,
				0.0802198201417923
			],
			"extensions":{
				"KHR_materials_emissive_strength":{
					"emissiveStrength":2.200000047683716
				}
			},
			"name":"Turm_blitz_3Leuchten",
			"pbrMetallicRoughness":{
				"metallicFactor":0,
				"roughnessFactor":0.5
			}
		}
	],
	"meshes":[
		{
			"name":"Turm_blitz_3",
			"primitives":[
				{
					"attributes":{
						"POSITION":0,
						"NORMAL":1,
						"COLOR_0":2
					},
					"indices":3,
					"material":0
				},
				{
					"attributes":{
						"POSITION":4,
						"NORMAL":5,
						"COLOR_0":6
					},
					"indices":7,
					"material":1
				}
			]
		}
	],
	"accessors":[
		{
			"bufferView":0,
			"componentType":5126,
			"count":23016,
			"max":[
				2.111232280731201,
				9.019999504089355,
				2.1076362133026123
			],
			"min":[
				-2.072021007537842,
				-0.6000000238418579,
				-2.114683151245117
			],
			"type":"VEC3"
		},
		{
			"bufferView":1,
			"componentType":5126,
			"count":23016,
			"type":"VEC3"
		},
		{
			"bufferView":2,
			"componentType":5126,
			"count":23016,
			"type":"VEC3"
		},
		{
			"bufferView":3,
			"componentType":5123,
			"count":31608,
			"type":"SCALAR"
		},
		{
			"bufferView":4,
			"componentType":5126,
			"count":240,
			"max":[
				1.559999942779541,
				7.360000133514404,
				1.3724355697631836
			],
			"min":[
				-0.8600000143051147,
				7,
				-1.3724355697631836
			],
			"type":"VEC3"
		},
		{
			"bufferView":5,
			"componentType":5126,
			"count":240,
			"type":"VEC3"
		},
		{
			"bufferView":6,
			"componentType":5126,
			"count":240,
			"type":"VEC3"
		},
		{
			"bufferView":7,
			"componentType":5123,
			"count":288,
			"type":"SCALAR"
		}
	],
	"bufferViews":[
		{
			"buffer":0,
			"byteLength":276192,
			"byteOffset":0,
			"target":34962
		},
		{
			"buffer":0,
			"byteLength":276192,
			"byteOffset":276192,
			"target":34962
		},
		{
			"buffer":0,
			"byteLength":276192,
			"byteOffset":552384,
			"target":34962
		},
		{
			"buffer":0,
			"byteLength":63216,
			"byteOffset":828576,
			"target":34963
		},
		{
			"buffer":0,
			"byteLength":2880,
			"byteOffset":891792,
			"target":34962
		},
		{
			"buffer":0,
			"byteLength":2880,
			"byteOffset":894672,
			"target":34962
		},
		{
			"buffer":0,
			"byteLength":2880,
			"byteOffset":897552,
			"target":34962
		},
		{
			"buffer":0,
			"byteLength":576,
			"byteOffset":900432,
			"target":34963
		}
	],
	"buffers":[
		{
			"byteLength":901008,
			"uri":"turm_blitz_3.bin"
		}
	]
}
