{
	"asset":{
		"generator":"Khronos glTF Blender I/O v5.2.40",
		"version":"2.0"
	},
	"extensionsUsed":[
		"KHR_materials_emissive_strength"
	],
	"scene":0,
	"scenes":[
		{
			"name":"Scene",
			"nodes":[
				0
			]
		}
	],
	"nodes":[
		{
			"mesh":0,
			"name":"Turm_schatz_3"
		}
	],
	"materials":[
		{
			"doubleSided":true,
			"name":"Burg",
			"pbrMetallicRoughness":{
				"metallicFactor":0,
				"roughnessFactor":0.8999999761581421
			}
		},
		{
			"doubleSided":true,
			"emissiveFactor":[
				1,
				0.7605245113372803,
				0.3915724754333496
			],
			"extensions":{
				"KHR_materials_emissive_strength":{
					"emissiveStrength":2
				}
			},
			"name":"Turm_schatz_3Glas",
			"pbrMetallicRoughness":{
				"metallicFactor":0,
				"roughnessFactor":0.5
			}
		}
	],
	"meshes":[
		{
			"name":"Turm_schatz_3",
			"primitives":[
				{
					"attributes":{
						"POSITION":0,
						"NORMAL":1,
						"TEXCOORD_0":2,
						"COLOR_0":3
					},
					"indices":4,
					"material":0
				},
				{
					"attributes":{
						"POSITION":5,
						"NORMAL":6,
						"TEXCOORD_0":7,
						"COLOR_0":8
					},
					"indices":9,
					"material":1
				}
			]
		}
	],
	"accessors":[
		{
			"bufferView":0,
			"componentType":5126,
			"count":2260,
			"max":[
				2.179999828338623,
				7.5,
				2.8500001430511475
			],
			"min":[
				-2.179999828338623,
				-0.6000000238418579,
				-2.179999828338623
			],
			"type":"VEC3"
		},
		{
			"bufferView":1,
			"componentType":5126,
			"count":2260,
			"type":"VEC3"
		},
		{
			"bufferView":2,
			"componentType":5126,
			"count":2260,
			"type":"VEC2"
		},
		{
			"bufferView":3,
			"componentType":5126,
			"count":2260,
			"type":"VEC3"
		},
		{
			"bufferView":4,
			"componentType":5123,
			"count":3384,
			"type":"SCALAR"
		},
		{
			"bufferView":5,
			"componentType":5126,
			"count":120,
			"max":[
				1.899999976158142,
				4.949999809265137,
				1.899999976158142
			],
			"min":[
				-1.899999976158142,
				4.199999809265137,
				-1.899999976158142
			],
			"type":"VEC3"
		},
		{
			"bufferView":6,
			"componentType":5126,
			"count":120,
			"type":"VEC3"
		},
		{
			"bufferView":7,
			"componentType":5126,
			"count":120,
			"type":"VEC2"
		},
		{
			"bufferView":8,
			"componentType":5126,
			"count":120,
			"type":"VEC3"
		},
		{
			"bufferView":9,
			"componentType":5123,
			"count":192,
			"type":"SCALAR"
		}
	],
	"bufferViews":[
		{
			"buffer":0,
			"byteLength":27120,
			"byteOffset":0,
			"target":34962
		},
		{
			"buffer":0,
			"byteLength":27120,
			"byteOffset":27120,
			"target":34962
		},
		{
			"buffer":0,
			"byteLength":18080,
			"byteOffset":54240,
			"target":34962
		},
		{
			"buffer":0,
			"byteLength":27120,
			"byteOffset":72320,
			"target":34962
		},
		{
			"buffer":0,
			"byteLength":6768,
			"byteOffset":99440,
			"target":34963
		},
		{
			"buffer":0,
			"byteLength":1440,
			"byteOffset":106208,
			"target":34962
		},
		{
			"buffer":0,
			"byteLength":1440,
			"byteOffset":107648,
			"target":34962
		},
		{
			"buffer":0,
			"byteLength":960,
			"byteOffset":109088,
			"target":34962
		},
		{
			"buffer":0,
			"byteLength":1440,
			"byteOffset":110048,
			"target":34962
		},
		{
			"buffer":0,
			"byteLength":384,
			"byteOffset":111488,
			"target":34963
		}
	],
	"buffers":[
		{
			"byteLength":111872,
			"uri":"turm_schatz_3.bin"
		}
	]
}
