{
	"asset":{
		"generator":"Khronos glTF Blender I/O v5.2.40",
		"version":"2.0"
	},
	"extensionsUsed":[
		"KHR_materials_emissive_strength"
	],
	"scene":0,
	"scenes":[
		{
			"name":"Scene",
			"nodes":[
				0
			]
		}
	],
	"nodes":[
		{
			"mesh":0,
			"name":"Kopf_schatz"
		}
	],
	"materials":[
		{
			"doubleSided":true,
			"name":"Burg",
			"pbrMetallicRoughness":{
				"metallicFactor":0,
				"roughnessFactor":0.8999999761581421
			}
		},
		{
			"doubleSided":true,
			"emissiveFactor":[
				1,
				0.7605245113372803,
				0.3915724754333496
			],
			"extensions":{
				"KHR_materials_emissive_strength":{
					"emissiveStrength":2.5
				}
			},
			"name":"Kopf_schatzGlas",
			"pbrMetallicRoughness":{
				"metallicFactor":0,
				"roughnessFactor":0.5
			}
		}
	],
	"meshes":[
		{
			"name":"Kopf_schatz",
			"primitives":[
				{
					"attributes":{
						"POSITION":0,
						"NORMAL":1,
						"TEXCOORD_0":2,
						"COLOR_0":3
					},
					"indices":4,
					"material":0
				},
				{
					"attributes":{
						"POSITION":5,
						"NORMAL":6,
						"TEXCOORD_0":7,
						"COLOR_0":8
					},
					"indices":9,
					"material":1
				}
			]
		}
	],
	"accessors":[
		{
			"bufferView":0,
			"componentType":5126,
			"count":484,
			"max":[
				0.8799999952316284,
				1.1309165954589844,
				0.599615216255188
			],
			"min":[
				-0.8799999952316284,
				0,
				-0.7021966576576233
			],
			"type":"VEC3"
		},
		{
			"bufferView":1,
			"componentType":5126,
			"count":484,
			"type":"VEC3"
		},
		{
			"bufferView":2,
			"componentType":5126,
			"count":484,
			"type":"VEC2"
		},
		{
			"bufferView":3,
			"componentType":5126,
			"count":484,
			"type":"VEC3"
		},
		{
			"bufferView":4,
			"componentType":5123,
			"count":768,
			"type":"SCALAR"
		},
		{
			"bufferView":5,
			"componentType":5126,
			"count":36,
			"max":[
				0.1599999964237213,
				1.1600000858306885,
				0.1385640650987625
			],
			"min":[
				-0.1599999964237213,
				0.800000011920929,
				-0.1385640650987625
			],
			"type":"VEC3"
		},
		{
			"bufferView":6,
			"componentType":5126,
			"count":36,
			"type":"VEC3"
		},
		{
			"bufferView":7,
			"componentType":5126,
			"count":36,
			"type":"VEC2"
		},
		{
			"bufferView":8,
			"componentType":5126,
			"count":36,
			"type":"VEC3"
		},
		{
			"bufferView":9,
			"componentType":5123,
			"count":36,
			"type":"SCALAR"
		}
	],
	"bufferViews":[
		{
			"buffer":0,
			"byteLength":5808,
			"byteOffset":0,
			"target":34962
		},
		{
			"buffer":0,
			"byteLength":5808,
			"byteOffset":5808,
			"target":34962
		},
		{
			"buffer":0,
			"byteLength":3872,
			"byteOffset":11616,
			"target":34962
		},
		{
			"buffer":0,
			"byteLength":5808,
			"byteOffset":15488,
			"target":34962
		},
		{
			"buffer":0,
			"byteLength":1536,
			"byteOffset":21296,
			"target":34963
		},
		{
			"buffer":0,
			"byteLength":432,
			"byteOffset":22832,
			"target":34962
		},
		{
			"buffer":0,
			"byteLength":432,
			"byteOffset":23264,
			"target":34962
		},
		{
			"buffer":0,
			"byteLength":288,
			"byteOffset":23696,
			"target":34962
		},
		{
			"buffer":0,
			"byteLength":432,
			"byteOffset":23984,
			"target":34962
		},
		{
			"buffer":0,
			"byteLength":72,
			"byteOffset":24416,
			"target":34963
		}
	],
	"buffers":[
		{
			"byteLength":24488,
			"uri":"turm_schatz_kopf.bin"
		}
	]
}
