{
	"asset":{
		"generator":"Khronos glTF Blender I/O v5.2.40",
		"version":"2.0"
	},
	"extensionsUsed":[
		"KHR_materials_emissive_strength"
	],
	"scene":0,
	"scenes":[
		{
			"name":"Scene",
			"nodes":[
				0
			]
		}
	],
	"nodes":[
		{
			"mesh":0,
			"name":"Turm_gift_3"
		}
	],
	"materials":[
		{
			"doubleSided":true,
			"name":"Burg",
			"pbrMetallicRoughness":{
				"metallicFactor":0,
				"roughnessFactor":0.8999999761581421
			}
		},
		{
			"doubleSided":true,
			"emissiveFactor":[
				1,
				0.7605245113372803,
				0.3915724754333496
			],
			"extensions":{
				"KHR_materials_emissive_strength":{
					"emissiveStrength":2
				}
			},
			"name":"Turm_gift_3Glas",
			"pbrMetallicRoughness":{
				"metallicFactor":0,
				"roughnessFactor":0.5
			}
		}
	],
	"meshes":[
		{
			"name":"Turm_gift_3",
			"primitives":[
				{
					"attributes":{
						"POSITION":0,
						"NORMAL":1,
						"TEXCOORD_0":2,
						"COLOR_0":3
					},
					"indices":4,
					"material":0
				},
				{
					"attributes":{
						"POSITION":5,
						"NORMAL":6,
						"TEXCOORD_0":7,
						"COLOR_0":8
					},
					"indices":9,
					"material":1
				}
			]
		}
	],
	"accessors":[
		{
			"bufferView":0,
			"componentType":5126,
			"count":2012,
			"max":[
				1.7590667009353638,
				7.800000190734863,
				1.7590667009353638
			],
			"min":[
				-1.7590667009353638,
				-0.6000000238418579,
				-2.032013416290283
			],
			"type":"VEC3"
		},
		{
			"bufferView":1,
			"componentType":5126,
			"count":2012,
			"type":"VEC3"
		},
		{
			"bufferView":2,
			"componentType":5126,
			"count":2012,
			"type":"VEC2"
		},
		{
			"bufferView":3,
			"componentType":5126,
			"count":2012,
			"type":"VEC3"
		},
		{
			"bufferView":4,
			"componentType":5123,
			"count":3084,
			"type":"SCALAR"
		},
		{
			"bufferView":5,
			"componentType":5126,
			"count":180,
			"max":[
				1.4313262701034546,
				0.14000000059604645,
				1.482951283454895
			],
			"min":[
				-1.2772208452224731,
				0,
				-0.9961784482002258
			],
			"type":"VEC3"
		},
		{
			"bufferView":6,
			"componentType":5126,
			"count":180,
			"type":"VEC3"
		},
		{
			"bufferView":7,
			"componentType":5126,
			"count":180,
			"type":"VEC2"
		},
		{
			"bufferView":8,
			"componentType":5126,
			"count":180,
			"type":"VEC3"
		},
		{
			"bufferView":9,
			"componentType":5123,
			"count":216,
			"type":"SCALAR"
		}
	],
	"bufferViews":[
		{
			"buffer":0,
			"byteLength":24144,
			"byteOffset":0,
			"target":34962
		},
		{
			"buffer":0,
			"byteLength":24144,
			"byteOffset":24144,
			"target":34962
		},
		{
			"buffer":0,
			"byteLength":16096,
			"byteOffset":48288,
			"target":34962
		},
		{
			"buffer":0,
			"byteLength":24144,
			"byteOffset":64384,
			"target":34962
		},
		{
			"buffer":0,
			"byteLength":6168,
			"byteOffset":88528,
			"target":34963
		},
		{
			"buffer":0,
			"byteLength":2160,
			"byteOffset":94696,
			"target":34962
		},
		{
			"buffer":0,
			"byteLength":2160,
			"byteOffset":96856,
			"target":34962
		},
		{
			"buffer":0,
			"byteLength":1440,
			"byteOffset":99016,
			"target":34962
		},
		{
			"buffer":0,
			"byteLength":2160,
			"byteOffset":100456,
			"target":34962
		},
		{
			"buffer":0,
			"byteLength":432,
			"byteOffset":102616,
			"target":34963
		}
	],
	"buffers":[
		{
			"byteLength":103048,
			"uri":"turm_gift_3.bin"
		}
	]
}
