{
	"asset":{
		"generator":"Khronos glTF Blender I/O v5.2.40",
		"version":"2.0"
	},
	"extensionsUsed":[
		"KHR_materials_emissive_strength"
	],
	"scene":0,
	"scenes":[
		{
			"name":"Scene",
			"nodes":[
				0
			]
		}
	],
	"nodes":[
		{
			"mesh":0,
			"name":"Kopf_feuer"
		}
	],
	"materials":[
		{
			"doubleSided":true,
			"name":"Burg",
			"pbrMetallicRoughness":{
				"metallicFactor":0,
				"roughnessFactor":0.8999999761581421
			}
		},
		{
			"doubleSided":true,
			"emissiveFactor":[
				1,
				0.7605245113372803,
				0.3915724754333496
			],
			"extensions":{
				"KHR_materials_emissive_strength":{
					"emissiveStrength":2.5
				}
			},
			"name":"Kopf_feuerGlas",
			"pbrMetallicRoughness":{
				"metallicFactor":0,
				"roughnessFactor":0.5
			}
		}
	],
	"meshes":[
		{
			"name":"Kopf_feuer",
			"primitives":[
				{
					"attributes":{
						"POSITION":0,
						"NORMAL":1,
						"TEXCOORD_0":2,
						"COLOR_0":3
					},
					"indices":4,
					"material":0
				},
				{
					"attributes":{
						"POSITION":5,
						"NORMAL":6,
						"TEXCOORD_0":7,
						"COLOR_0":8
					},
					"indices":9,
					"material":1
				}
			]
		}
	],
	"accessors":[
		{
			"bufferView":0,
			"componentType":5126,
			"count":300,
			"max":[
				0.9207106828689575,
				1.5,
				1.600000023841858
			],
			"min":[
				-0.9207106828689575,
				0,
				-0.8559508919715881
			],
			"type":"VEC3"
		},
		{
			"bufferView":1,
			"componentType":5126,
			"count":300,
			"type":"VEC3"
		},
		{
			"bufferView":2,
			"componentType":5126,
			"count":300,
			"type":"VEC2"
		},
		{
			"bufferView":3,
			"componentType":5126,
			"count":300,
			"type":"VEC3"
		},
		{
			"bufferView":4,
			"componentType":5123,
			"count":462,
			"type":"SCALAR"
		},
		{
			"bufferView":5,
			"componentType":5126,
			"count":72,
			"max":[
				0.476313978433609,
				2.1999998092651367,
				0.550000011920929
			],
			"min":[
				-0.476313978433609,
				0.8999999761581421,
				-0.550000011920929
			],
			"type":"VEC3"
		},
		{
			"bufferView":6,
			"componentType":5126,
			"count":72,
			"type":"VEC3"
		},
		{
			"bufferView":7,
			"componentType":5126,
			"count":72,
			"type":"VEC2"
		},
		{
			"bufferView":8,
			"componentType":5126,
			"count":72,
			"type":"VEC3"
		},
		{
			"bufferView":9,
			"componentType":5123,
			"count":90,
			"type":"SCALAR"
		}
	],
	"bufferViews":[
		{
			"buffer":0,
			"byteLength":3600,
			"byteOffset":0,
			"target":34962
		},
		{
			"buffer":0,
			"byteLength":3600,
			"byteOffset":3600,
			"target":34962
		},
		{
			"buffer":0,
			"byteLength":2400,
			"byteOffset":7200,
			"target":34962
		},
		{
			"buffer":0,
			"byteLength":3600,
			"byteOffset":9600,
			"target":34962
		},
		{
			"buffer":0,
			"byteLength":924,
			"byteOffset":13200,
			"target":34963
		},
		{
			"buffer":0,
			"byteLength":864,
			"byteOffset":14124,
			"target":34962
		},
		{
			"buffer":0,
			"byteLength":864,
			"byteOffset":14988,
			"target":34962
		},
		{
			"buffer":0,
			"byteLength":576,
			"byteOffset":15852,
			"target":34962
		},
		{
			"buffer":0,
			"byteLength":864,
			"byteOffset":16428,
			"target":34962
		},
		{
			"buffer":0,
			"byteLength":180,
			"byteOffset":17292,
			"target":34963
		}
	],
	"buffers":[
		{
			"byteLength":17472,
			"uri":"turm_feuer_kopf.bin"
		}
	]
}
