{
	"asset":{
		"generator":"Khronos glTF Blender I/O v5.2.40",
		"version":"2.0"
	},
	"extensionsUsed":[
		"KHR_materials_emissive_strength"
	],
	"scene":0,
	"scenes":[
		{
			"name":"Scene",
			"nodes":[
				0
			]
		}
	],
	"nodes":[
		{
			"mesh":0,
			"name":"Kopf_sonne"
		}
	],
	"materials":[
		{
			"doubleSided":true,
			"name":"Burg",
			"pbrMetallicRoughness":{
				"metallicFactor":0,
				"roughnessFactor":0.8999999761581421
			}
		},
		{
			"doubleSided":true,
			"emissiveFactor":[
				1,
				0.7605245113372803,
				0.3915724754333496
			],
			"extensions":{
				"KHR_materials_emissive_strength":{
					"emissiveStrength":2.5
				}
			},
			"name":"Kopf_sonneGlas",
			"pbrMetallicRoughness":{
				"metallicFactor":0,
				"roughnessFactor":0.5
			}
		}
	],
	"meshes":[
		{
			"name":"Kopf_sonne",
			"primitives":[
				{
					"attributes":{
						"POSITION":0,
						"NORMAL":1,
						"TEXCOORD_0":2,
						"COLOR_0":3
					},
					"indices":4,
					"material":0
				},
				{
					"attributes":{
						"POSITION":5,
						"NORMAL":6,
						"TEXCOORD_0":7,
						"COLOR_0":8
					},
					"indices":9,
					"material":1
				}
			]
		}
	],
	"accessors":[
		{
			"bufferView":0,
			"componentType":5126,
			"count":408,
			"max":[
				1.1299999952316284,
				2.429999828338623,
				0.5
			],
			"min":[
				-1.1299999952316284,
				0,
				-0.5
			],
			"type":"VEC3"
		},
		{
			"bufferView":1,
			"componentType":5126,
			"count":408,
			"type":"VEC3"
		},
		{
			"bufferView":2,
			"componentType":5126,
			"count":408,
			"type":"VEC2"
		},
		{
			"bufferView":3,
			"componentType":5126,
			"count":408,
			"type":"VEC3"
		},
		{
			"bufferView":4,
			"componentType":5123,
			"count":600,
			"type":"SCALAR"
		},
		{
			"bufferView":5,
			"componentType":5126,
			"count":96,
			"max":[
				0.5,
				1.7999999523162842,
				0.1000000387430191
			],
			"min":[
				-0.5,
				0.7999999523162842,
				-0.02000003680586815
			],
			"type":"VEC3"
		},
		{
			"bufferView":6,
			"componentType":5126,
			"count":96,
			"type":"VEC3"
		},
		{
			"bufferView":7,
			"componentType":5126,
			"count":96,
			"type":"VEC2"
		},
		{
			"bufferView":8,
			"componentType":5126,
			"count":96,
			"type":"VEC3"
		},
		{
			"bufferView":9,
			"componentType":5123,
			"count":180,
			"type":"SCALAR"
		}
	],
	"bufferViews":[
		{
			"buffer":0,
			"byteLength":4896,
			"byteOffset":0,
			"target":34962
		},
		{
			"buffer":0,
			"byteLength":4896,
			"byteOffset":4896,
			"target":34962
		},
		{
			"buffer":0,
			"byteLength":3264,
			"byteOffset":9792,
			"target":34962
		},
		{
			"buffer":0,
			"byteLength":4896,
			"byteOffset":13056,
			"target":34962
		},
		{
			"buffer":0,
			"byteLength":1200,
			"byteOffset":17952,
			"target":34963
		},
		{
			"buffer":0,
			"byteLength":1152,
			"byteOffset":19152,
			"target":34962
		},
		{
			"buffer":0,
			"byteLength":1152,
			"byteOffset":20304,
			"target":34962
		},
		{
			"buffer":0,
			"byteLength":768,
			"byteOffset":21456,
			"target":34962
		},
		{
			"buffer":0,
			"byteLength":1152,
			"byteOffset":22224,
			"target":34962
		},
		{
			"buffer":0,
			"byteLength":360,
			"byteOffset":23376,
			"target":34963
		}
	],
	"buffers":[
		{
			"byteLength":23736,
			"uri":"turm_sonne_kopf.bin"
		}
	]
}
