{
	"asset":{
		"generator":"Khronos glTF Blender I/O v5.2.40",
		"version":"2.0"
	},
	"extensionsUsed":[
		"KHR_materials_emissive_strength"
	],
	"scene":0,
	"scenes":[
		{
			"name":"Scene",
			"nodes":[
				0
			]
		}
	],
	"nodes":[
		{
			"mesh":0,
			"name":"Turm_runen_3"
		}
	],
	"materials":[
		{
			"doubleSided":true,
			"name":"Vorkommen",
			"pbrMetallicRoughness":{
				"metallicFactor":0,
				"roughnessFactor":0.8500000238418579
			}
		},
		{
			"doubleSided":true,
			"emissiveFactor":[
				1,
				0.43415364623069763,
				0.0802198201417923
			],
			"extensions":{
				"KHR_materials_emissive_strength":{
					"emissiveStrength":2.200000047683716
				}
			},
			"name":"Turm_runen_3Leuchten",
			"pbrMetallicRoughness":{
				"metallicFactor":0,
				"roughnessFactor":0.5
			}
		}
	],
	"meshes":[
		{
			"name":"Turm_runen_3",
			"primitives":[
				{
					"attributes":{
						"POSITION":0,
						"NORMAL":1,
						"COLOR_0":2
					},
					"indices":3,
					"material":0
				},
				{
					"attributes":{
						"POSITION":4,
						"NORMAL":5,
						"COLOR_0":6
					},
					"indices":7,
					"material":1
				}
			]
		}
	],
	"accessors":[
		{
			"bufferView":0,
			"componentType":5126,
			"count":24888,
			"max":[
				2.7960774898529053,
				8.819999694824219,
				2.8297531604766846
			],
			"min":[
				-2.8599462509155273,
				-0.6000000238418579,
				-2.8498194217681885
			],
			"type":"VEC3"
		},
		{
			"bufferView":1,
			"componentType":5126,
			"count":24888,
			"type":"VEC3"
		},
		{
			"bufferView":2,
			"componentType":5126,
			"count":24888,
			"type":"VEC3"
		},
		{
			"bufferView":3,
			"componentType":5123,
			"count":33552,
			"type":"SCALAR"
		},
		{
			"bufferView":4,
			"componentType":5126,
			"count":432,
			"max":[
				2.367769718170166,
				2.7303109169006348,
				2.4127726554870605
			],
			"min":[
				-2.367769718170166,
				0.5499999523162842,
				-2.4127726554870605
			],
			"type":"VEC3"
		},
		{
			"bufferView":5,
			"componentType":5126,
			"count":432,
			"type":"VEC3"
		},
		{
			"bufferView":6,
			"componentType":5126,
			"count":432,
			"type":"VEC3"
		},
		{
			"bufferView":7,
			"componentType":5123,
			"count":648,
			"type":"SCALAR"
		}
	],
	"bufferViews":[
		{
			"buffer":0,
			"byteLength":298656,
			"byteOffset":0,
			"target":34962
		},
		{
			"buffer":0,
			"byteLength":298656,
			"byteOffset":298656,
			"target":34962
		},
		{
			"buffer":0,
			"byteLength":298656,
			"byteOffset":597312,
			"target":34962
		},
		{
			"buffer":0,
			"byteLength":67104,
			"byteOffset":895968,
			"target":34963
		},
		{
			"buffer":0,
			"byteLength":5184,
			"byteOffset":963072,
			"target":34962
		},
		{
			"buffer":0,
			"byteLength":5184,
			"byteOffset":968256,
			"target":34962
		},
		{
			"buffer":0,
			"byteLength":5184,
			"byteOffset":973440,
			"target":34962
		},
		{
			"buffer":0,
			"byteLength":1296,
			"byteOffset":978624,
			"target":34963
		}
	],
	"buffers":[
		{
			"byteLength":979920,
			"uri":"turm_runen_3.bin"
		}
	]
}
