{
	"asset":{
		"generator":"Khronos glTF Blender I/O v5.2.40",
		"version":"2.0"
	},
	"extensionsUsed":[
		"KHR_materials_emissive_strength"
	],
	"scene":0,
	"scenes":[
		{
			"name":"Scene",
			"nodes":[
				0
			]
		}
	],
	"nodes":[
		{
			"mesh":0,
			"name":"Turm_runen_2"
		}
	],
	"materials":[
		{
			"doubleSided":true,
			"name":"Burg",
			"pbrMetallicRoughness":{
				"metallicFactor":0,
				"roughnessFactor":0.8999999761581421
			}
		},
		{
			"doubleSided":true,
			"emissiveFactor":[
				1,
				0.7605245113372803,
				0.3915724754333496
			],
			"extensions":{
				"KHR_materials_emissive_strength":{
					"emissiveStrength":2
				}
			},
			"name":"Turm_runen_2Glas",
			"pbrMetallicRoughness":{
				"metallicFactor":0,
				"roughnessFactor":0.5
			}
		}
	],
	"meshes":[
		{
			"name":"Turm_runen_2",
			"primitives":[
				{
					"attributes":{
						"POSITION":0,
						"NORMAL":1,
						"TEXCOORD_0":2,
						"COLOR_0":3
					},
					"indices":4,
					"material":0
				},
				{
					"attributes":{
						"POSITION":5,
						"NORMAL":6,
						"TEXCOORD_0":7,
						"COLOR_0":8
					},
					"indices":9,
					"material":1
				}
			]
		}
	],
	"accessors":[
		{
			"bufferView":0,
			"componentType":5126,
			"count":1116,
			"max":[
				2.514155387878418,
				6.599999904632568,
				2.301555633544922
			],
			"min":[
				-2.5359389781951904,
				-0.6000000238418579,
				-2.578582763671875
			],
			"type":"VEC3"
		},
		{
			"bufferView":1,
			"componentType":5126,
			"count":1116,
			"type":"VEC3"
		},
		{
			"bufferView":2,
			"componentType":5126,
			"count":1116,
			"type":"VEC2"
		},
		{
			"bufferView":3,
			"componentType":5126,
			"count":1116,
			"type":"VEC3"
		},
		{
			"bufferView":4,
			"componentType":5123,
			"count":1680,
			"type":"SCALAR"
		},
		{
			"bufferView":5,
			"componentType":5126,
			"count":552,
			"max":[
				2.4957103729248047,
				2.799999952316284,
				2.234502077102661
			],
			"min":[
				-2.5205326080322266,
				0.2920644283294678,
				-2.616344451904297
			],
			"type":"VEC3"
		},
		{
			"bufferView":6,
			"componentType":5126,
			"count":552,
			"type":"VEC3"
		},
		{
			"bufferView":7,
			"componentType":5126,
			"count":552,
			"type":"VEC2"
		},
		{
			"bufferView":8,
			"componentType":5126,
			"count":552,
			"type":"VEC3"
		},
		{
			"bufferView":9,
			"componentType":5123,
			"count":828,
			"type":"SCALAR"
		}
	],
	"bufferViews":[
		{
			"buffer":0,
			"byteLength":13392,
			"byteOffset":0,
			"target":34962
		},
		{
			"buffer":0,
			"byteLength":13392,
			"byteOffset":13392,
			"target":34962
		},
		{
			"buffer":0,
			"byteLength":8928,
			"byteOffset":26784,
			"target":34962
		},
		{
			"buffer":0,
			"byteLength":13392,
			"byteOffset":35712,
			"target":34962
		},
		{
			"buffer":0,
			"byteLength":3360,
			"byteOffset":49104,
			"target":34963
		},
		{
			"buffer":0,
			"byteLength":6624,
			"byteOffset":52464,
			"target":34962
		},
		{
			"buffer":0,
			"byteLength":6624,
			"byteOffset":59088,
			"target":34962
		},
		{
			"buffer":0,
			"byteLength":4416,
			"byteOffset":65712,
			"target":34962
		},
		{
			"buffer":0,
			"byteLength":6624,
			"byteOffset":70128,
			"target":34962
		},
		{
			"buffer":0,
			"byteLength":1656,
			"byteOffset":76752,
			"target":34963
		}
	],
	"buffers":[
		{
			"byteLength":78408,
			"uri":"turm_runen_2.bin"
		}
	]
}
