{
	"asset":{
		"generator":"Khronos glTF Blender I/O v5.2.40",
		"version":"2.0"
	},
	"scene":0,
	"scenes":[
		{
			"name":"Scene",
			"nodes":[
				0
			]
		}
	],
	"nodes":[
		{
			"mesh":0,
			"name":"Kopf_katapult"
		}
	],
	"materials":[
		{
			"doubleSided":true,
			"name":"Burg",
			"pbrMetallicRoughness":{
				"metallicFactor":0,
				"roughnessFactor":0.8999999761581421
			}
		}
	],
	"meshes":[
		{
			"name":"Kopf_katapult",
			"primitives":[
				{
					"attributes":{
						"POSITION":0,
						"NORMAL":1,
						"TEXCOORD_0":2,
						"COLOR_0":3
					},
					"indices":4,
					"material":0
				}
			]
		}
	],
	"accessors":[
		{
			"bufferView":0,
			"componentType":5126,
			"count":392,
			"max":[
				1.2000000476837158,
				2.1585044860839844,
				1.2000000476837158
			],
			"min":[
				-1.2000000476837158,
				0,
				-2.1000001430511475
			],
			"type":"VEC3"
		},
		{
			"bufferView":1,
			"componentType":5126,
			"count":392,
			"type":"VEC3"
		},
		{
			"bufferView":2,
			"componentType":5126,
			"count":392,
			"type":"VEC2"
		},
		{
			"bufferView":3,
			"componentType":5126,
			"count":392,
			"type":"VEC3"
		},
		{
			"bufferView":4,
			"componentType":5123,
			"count":576,
			"type":"SCALAR"
		}
	],
	"bufferViews":[
		{
			"buffer":0,
			"byteLength":4704,
			"byteOffset":0,
			"target":34962
		},
		{
			"buffer":0,
			"byteLength":4704,
			"byteOffset":4704,
			"target":34962
		},
		{
			"buffer":0,
			"byteLength":3136,
			"byteOffset":9408,
			"target":34962
		},
		{
			"buffer":0,
			"byteLength":4704,
			"byteOffset":12544,
			"target":34962
		},
		{
			"buffer":0,
			"byteLength":1152,
			"byteOffset":17248,
			"target":34963
		}
	],
	"buffers":[
		{
			"byteLength":18400,
			"uri":"turm_katapult_kopf.bin"
		}
	]
}
