{
	"asset":{
		"generator":"Khronos glTF Blender I/O v5.2.40",
		"version":"2.0"
	},
	"extensionsUsed":[
		"KHR_materials_emissive_strength"
	],
	"scene":0,
	"scenes":[
		{
			"name":"Scene",
			"nodes":[
				0
			]
		}
	],
	"nodes":[
		{
			"mesh":0,
			"name":"Turm_frost_3"
		}
	],
	"materials":[
		{
			"doubleSided":true,
			"name":"Burg",
			"pbrMetallicRoughness":{
				"metallicFactor":0,
				"roughnessFactor":0.8999999761581421
			}
		},
		{
			"doubleSided":true,
			"emissiveFactor":[
				1,
				0.7605245113372803,
				0.3915724754333496
			],
			"extensions":{
				"KHR_materials_emissive_strength":{
					"emissiveStrength":2
				}
			},
			"name":"Turm_frost_3Glas",
			"pbrMetallicRoughness":{
				"metallicFactor":0,
				"roughnessFactor":0.5
			}
		}
	],
	"meshes":[
		{
			"name":"Turm_frost_3",
			"primitives":[
				{
					"attributes":{
						"POSITION":0,
						"NORMAL":1,
						"TEXCOORD_0":2,
						"COLOR_0":3
					},
					"indices":4,
					"material":0
				},
				{
					"attributes":{
						"POSITION":5,
						"NORMAL":6,
						"TEXCOORD_0":7,
						"COLOR_0":8
					},
					"indices":9,
					"material":1
				}
			]
		}
	],
	"accessors":[
		{
			"bufferView":0,
			"componentType":5126,
			"count":824,
			"max":[
				1.7590667009353638,
				7.800000190734863,
				1.7590667009353638
			],
			"min":[
				-1.7590667009353638,
				-0.6000000238418579,
				-1.9858193397521973
			],
			"type":"VEC3"
		},
		{
			"bufferView":1,
			"componentType":5126,
			"count":824,
			"type":"VEC3"
		},
		{
			"bufferView":2,
			"componentType":5126,
			"count":824,
			"type":"VEC2"
		},
		{
			"bufferView":3,
			"componentType":5126,
			"count":824,
			"type":"VEC3"
		},
		{
			"bufferView":4,
			"componentType":5123,
			"count":1272,
			"type":"SCALAR"
		},
		{
			"bufferView":5,
			"componentType":5126,
			"count":340,
			"max":[
				1.917077660560608,
				5.400000095367432,
				1.8627816438674927
			],
			"min":[
				-2.163835048675537,
				-0.04856351390480995,
				-2.028045654296875
			],
			"type":"VEC3"
		},
		{
			"bufferView":6,
			"componentType":5126,
			"count":340,
			"type":"VEC3"
		},
		{
			"bufferView":7,
			"componentType":5126,
			"count":340,
			"type":"VEC2"
		},
		{
			"bufferView":8,
			"componentType":5126,
			"count":340,
			"type":"VEC3"
		},
		{
			"bufferView":9,
			"componentType":5123,
			"count":456,
			"type":"SCALAR"
		}
	],
	"bufferViews":[
		{
			"buffer":0,
			"byteLength":9888,
			"byteOffset":0,
			"target":34962
		},
		{
			"buffer":0,
			"byteLength":9888,
			"byteOffset":9888,
			"target":34962
		},
		{
			"buffer":0,
			"byteLength":6592,
			"byteOffset":19776,
			"target":34962
		},
		{
			"buffer":0,
			"byteLength":9888,
			"byteOffset":26368,
			"target":34962
		},
		{
			"buffer":0,
			"byteLength":2544,
			"byteOffset":36256,
			"target":34963
		},
		{
			"buffer":0,
			"byteLength":4080,
			"byteOffset":38800,
			"target":34962
		},
		{
			"buffer":0,
			"byteLength":4080,
			"byteOffset":42880,
			"target":34962
		},
		{
			"buffer":0,
			"byteLength":2720,
			"byteOffset":46960,
			"target":34962
		},
		{
			"buffer":0,
			"byteLength":4080,
			"byteOffset":49680,
			"target":34962
		},
		{
			"buffer":0,
			"byteLength":912,
			"byteOffset":53760,
			"target":34963
		}
	],
	"buffers":[
		{
			"byteLength":54672,
			"uri":"turm_frost_3.bin"
		}
	]
}
