{
	"asset":{
		"generator":"Khronos glTF Blender I/O v5.2.40",
		"version":"2.0"
	},
	"scene":0,
	"scenes":[
		{
			"name":"Scene",
			"nodes":[
				0
			]
		}
	],
	"nodes":[
		{
			"mesh":0,
			"name":"Kopf_sturm"
		}
	],
	"materials":[
		{
			"doubleSided":true,
			"name":"Burg",
			"pbrMetallicRoughness":{
				"metallicFactor":0,
				"roughnessFactor":0.8999999761581421
			}
		}
	],
	"meshes":[
		{
			"name":"Kopf_sturm",
			"primitives":[
				{
					"attributes":{
						"POSITION":0,
						"NORMAL":1,
						"TEXCOORD_0":2,
						"COLOR_0":3
					},
					"indices":4,
					"material":0
				}
			]
		}
	],
	"accessors":[
		{
			"bufferView":0,
			"componentType":5126,
			"count":612,
			"max":[
				0.699999988079071,
				1.7000000476837158,
				1.100000023841858
			],
			"min":[
				-0.699999988079071,
				0,
				-0.6200000047683716
			],
			"type":"VEC3"
		},
		{
			"bufferView":1,
			"componentType":5126,
			"count":612,
			"type":"VEC3"
		},
		{
			"bufferView":2,
			"componentType":5126,
			"count":612,
			"type":"VEC2"
		},
		{
			"bufferView":3,
			"componentType":5126,
			"count":612,
			"type":"VEC3"
		},
		{
			"bufferView":4,
			"componentType":5123,
			"count":1056,
			"type":"SCALAR"
		}
	],
	"bufferViews":[
		{
			"buffer":0,
			"byteLength":7344,
			"byteOffset":0,
			"target":34962
		},
		{
			"buffer":0,
			"byteLength":7344,
			"byteOffset":7344,
			"target":34962
		},
		{
			"buffer":0,
			"byteLength":4896,
			"byteOffset":14688,
			"target":34962
		},
		{
			"buffer":0,
			"byteLength":7344,
			"byteOffset":19584,
			"target":34962
		},
		{
			"buffer":0,
			"byteLength":2112,
			"byteOffset":26928,
			"target":34963
		}
	],
	"buffers":[
		{
			"byteLength":29040,
			"uri":"turm_sturm_kopf.bin"
		}
	]
}
