{
	"asset":{
		"generator":"Khronos glTF Blender I/O v5.2.40",
		"version":"2.0"
	},
	"scene":0,
	"scenes":[
		{
			"name":"Scene",
			"nodes":[
				0
			]
		}
	],
	"nodes":[
		{
			"mesh":0,
			"name":"Turm_sturm_2"
		}
	],
	"materials":[
		{
			"doubleSided":true,
			"name":"Vorkommen",
			"pbrMetallicRoughness":{
				"metallicFactor":0,
				"roughnessFactor":0.8500000238418579
			}
		}
	],
	"meshes":[
		{
			"name":"Turm_sturm_2",
			"primitives":[
				{
					"attributes":{
						"POSITION":0,
						"NORMAL":1,
						"COLOR_0":2
					},
					"indices":3,
					"material":0
				}
			]
		}
	],
	"accessors":[
		{
			"bufferView":0,
			"componentType":5126,
			"count":17908,
			"max":[
				2.209322929382324,
				6,
				2.235931634902954
			],
			"min":[
				-2.210864782333374,
				-0.6000000238418579,
				-2.268467664718628
			],
			"type":"VEC3"
		},
		{
			"bufferView":1,
			"componentType":5126,
			"count":17908,
			"type":"VEC3"
		},
		{
			"bufferView":2,
			"componentType":5126,
			"count":17908,
			"type":"VEC3"
		},
		{
			"bufferView":3,
			"componentType":5123,
			"count":23904,
			"type":"SCALAR"
		}
	],
	"bufferViews":[
		{
			"buffer":0,
			"byteLength":214896,
			"byteOffset":0,
			"target":34962
		},
		{
			"buffer":0,
			"byteLength":214896,
			"byteOffset":214896,
			"target":34962
		},
		{
			"buffer":0,
			"byteLength":214896,
			"byteOffset":429792,
			"target":34962
		},
		{
			"buffer":0,
			"byteLength":47808,
			"byteOffset":644688,
			"target":34963
		}
	],
	"buffers":[
		{
			"byteLength":692496,
			"uri":"turm_sturm_2.bin"
		}
	]
}
