{
	"asset":{
		"generator":"Khronos glTF Blender I/O v5.2.40",
		"version":"2.0"
	},
	"scene":0,
	"scenes":[
		{
			"name":"Scene",
			"nodes":[
				0
			]
		}
	],
	"nodes":[
		{
			"mesh":0,
			"name":"Turm_katapult_2"
		}
	],
	"materials":[
		{
			"doubleSided":true,
			"name":"Vorkommen",
			"pbrMetallicRoughness":{
				"metallicFactor":0,
				"roughnessFactor":0.8500000238418579
			}
		}
	],
	"meshes":[
		{
			"name":"Turm_katapult_2",
			"primitives":[
				{
					"attributes":{
						"POSITION":0,
						"NORMAL":1,
						"COLOR_0":2
					},
					"indices":3,
					"material":0
				}
			]
		}
	],
	"accessors":[
		{
			"bufferView":0,
			"componentType":5126,
			"count":27582,
			"max":[
				2.5500001907348633,
				6.819999694824219,
				2.8141539096832275
			],
			"min":[
				-2.5500001907348633,
				-0.6000001430511475,
				-2.5500001907348633
			],
			"type":"VEC3"
		},
		{
			"bufferView":1,
			"componentType":5126,
			"count":27582,
			"type":"VEC3"
		},
		{
			"bufferView":2,
			"componentType":5126,
			"count":27582,
			"type":"VEC3"
		},
		{
			"bufferView":3,
			"componentType":5123,
			"count":37704,
			"type":"SCALAR"
		}
	],
	"bufferViews":[
		{
			"buffer":0,
			"byteLength":330984,
			"byteOffset":0,
			"target":34962
		},
		{
			"buffer":0,
			"byteLength":330984,
			"byteOffset":330984,
			"target":34962
		},
		{
			"buffer":0,
			"byteLength":330984,
			"byteOffset":661968,
			"target":34962
		},
		{
			"buffer":0,
			"byteLength":75408,
			"byteOffset":992952,
			"target":34963
		}
	],
	"buffers":[
		{
			"byteLength":1068360,
			"uri":"turm_katapult_2.bin"
		}
	]
}
