{
	"asset":{
		"generator":"Khronos glTF Blender I/O v5.2.40",
		"version":"2.0"
	},
	"scene":0,
	"scenes":[
		{
			"name":"Scene",
			"nodes":[
				0
			]
		}
	],
	"nodes":[
		{
			"mesh":0,
			"name":"Turm_sturm_3"
		}
	],
	"materials":[
		{
			"doubleSided":true,
			"name":"Vorkommen",
			"pbrMetallicRoughness":{
				"metallicFactor":0,
				"roughnessFactor":0.8500000238418579
			}
		}
	],
	"meshes":[
		{
			"name":"Turm_sturm_3",
			"primitives":[
				{
					"attributes":{
						"POSITION":0,
						"NORMAL":1,
						"COLOR_0":2
					},
					"indices":3,
					"material":0
				}
			]
		}
	],
	"accessors":[
		{
			"bufferView":0,
			"componentType":5126,
			"count":21504,
			"max":[
				2.239845037460327,
				8.819999694824219,
				2.2791967391967773
			],
			"min":[
				-2.2216813564300537,
				-0.6000000238418579,
				-2.257905960083008
			],
			"type":"VEC3"
		},
		{
			"bufferView":1,
			"componentType":5126,
			"count":21504,
			"type":"VEC3"
		},
		{
			"bufferView":2,
			"componentType":5126,
			"count":21504,
			"type":"VEC3"
		},
		{
			"bufferView":3,
			"componentType":5123,
			"count":29088,
			"type":"SCALAR"
		}
	],
	"bufferViews":[
		{
			"buffer":0,
			"byteLength":258048,
			"byteOffset":0,
			"target":34962
		},
		{
			"buffer":0,
			"byteLength":258048,
			"byteOffset":258048,
			"target":34962
		},
		{
			"buffer":0,
			"byteLength":258048,
			"byteOffset":516096,
			"target":34962
		},
		{
			"buffer":0,
			"byteLength":58176,
			"byteOffset":774144,
			"target":34963
		}
	],
	"buffers":[
		{
			"byteLength":832320,
			"uri":"turm_sturm_3.bin"
		}
	]
}
