{
	"asset":{
		"generator":"Khronos glTF Blender I/O v5.2.40",
		"version":"2.0"
	},
	"extensionsUsed":[
		"KHR_materials_emissive_strength"
	],
	"scene":0,
	"scenes":[
		{
			"name":"Scene",
			"nodes":[
				0
			]
		}
	],
	"nodes":[
		{
			"mesh":0,
			"name":"Kopf_spaeher"
		}
	],
	"materials":[
		{
			"doubleSided":true,
			"name":"Vorkommen",
			"pbrMetallicRoughness":{
				"metallicFactor":0,
				"roughnessFactor":0.8500000238418579
			}
		},
		{
			"doubleSided":true,
			"emissiveFactor":[
				1,
				0.43415364623069763,
				0.0802198201417923
			],
			"extensions":{
				"KHR_materials_emissive_strength":{
					"emissiveStrength":2.200000047683716
				}
			},
			"name":"Kopf_spaeherLeuchten",
			"pbrMetallicRoughness":{
				"metallicFactor":0,
				"roughnessFactor":0.5
			}
		}
	],
	"meshes":[
		{
			"name":"Kopf_spaeher",
			"primitives":[
				{
					"attributes":{
						"POSITION":0,
						"NORMAL":1,
						"COLOR_0":2
					},
					"indices":3,
					"material":0
				},
				{
					"attributes":{
						"POSITION":4,
						"NORMAL":5,
						"COLOR_0":6
					},
					"indices":7,
					"material":1
				}
			]
		}
	],
	"accessors":[
		{
			"bufferView":0,
			"componentType":5126,
			"count":1036,
			"max":[
				1,
				1.3999338150024414,
				1.0037082433700562
			],
			"min":[
				-0.4000000059604645,
				0,
				-0.47999998927116394
			],
			"type":"VEC3"
		},
		{
			"bufferView":1,
			"componentType":5126,
			"count":1036,
			"type":"VEC3"
		},
		{
			"bufferView":2,
			"componentType":5126,
			"count":1036,
			"type":"VEC3"
		},
		{
			"bufferView":3,
			"componentType":5123,
			"count":1500,
			"type":"SCALAR"
		},
		{
			"bufferView":4,
			"componentType":5126,
			"count":72,
			"max":[
				0.949999988079071,
				1.2999999523162842,
				0.9699999690055847
			],
			"min":[
				-0.05999999865889549,
				0.5800000429153442,
				-0.4300000071525574
			],
			"type":"VEC3"
		},
		{
			"bufferView":5,
			"componentType":5126,
			"count":72,
			"type":"VEC3"
		},
		{
			"bufferView":6,
			"componentType":5126,
			"count":72,
			"type":"VEC3"
		},
		{
			"bufferView":7,
			"componentType":5123,
			"count":84,
			"type":"SCALAR"
		}
	],
	"bufferViews":[
		{
			"buffer":0,
			"byteLength":12432,
			"byteOffset":0,
			"target":34962
		},
		{
			"buffer":0,
			"byteLength":12432,
			"byteOffset":12432,
			"target":34962
		},
		{
			"buffer":0,
			"byteLength":12432,
			"byteOffset":24864,
			"target":34962
		},
		{
			"buffer":0,
			"byteLength":3000,
			"byteOffset":37296,
			"target":34963
		},
		{
			"buffer":0,
			"byteLength":864,
			"byteOffset":40296,
			"target":34962
		},
		{
			"buffer":0,
			"byteLength":864,
			"byteOffset":41160,
			"target":34962
		},
		{
			"buffer":0,
			"byteLength":864,
			"byteOffset":42024,
			"target":34962
		},
		{
			"buffer":0,
			"byteLength":168,
			"byteOffset":42888,
			"target":34963
		}
	],
	"buffers":[
		{
			"byteLength":43056,
			"uri":"turm_spaeher_kopf.bin"
		}
	]
}
