{
	"asset":{
		"generator":"Khronos glTF Blender I/O v5.2.40",
		"version":"2.0"
	},
	"scene":0,
	"scenes":[
		{
			"name":"Scene",
			"nodes":[
				0
			]
		}
	],
	"nodes":[
		{
			"mesh":0,
			"name":"Turm_pfeil_1"
		}
	],
	"materials":[
		{
			"doubleSided":true,
			"name":"Burg",
			"pbrMetallicRoughness":{
				"metallicFactor":0,
				"roughnessFactor":0.8999999761581421
			}
		}
	],
	"meshes":[
		{
			"name":"Turm_pfeil_1",
			"primitives":[
				{
					"attributes":{
						"POSITION":0,
						"NORMAL":1,
						"TEXCOORD_0":2,
						"COLOR_0":3
					},
					"indices":4,
					"material":0
				}
			]
		}
	],
	"accessors":[
		{
			"bufferView":0,
			"componentType":5126,
			"count":936,
			"max":[
				1.7590667009353638,
				5.130000114440918,
				1.7590667009353638
			],
			"min":[
				-1.7590667009353638,
				-0.6000000238418579,
				-1.7590667009353638
			],
			"type":"VEC3"
		},
		{
			"bufferView":1,
			"componentType":5126,
			"count":936,
			"type":"VEC3"
		},
		{
			"bufferView":2,
			"componentType":5126,
			"count":936,
			"type":"VEC2"
		},
		{
			"bufferView":3,
			"componentType":5126,
			"count":936,
			"type":"VEC3"
		},
		{
			"bufferView":4,
			"componentType":5123,
			"count":1464,
			"type":"SCALAR"
		}
	],
	"bufferViews":[
		{
			"buffer":0,
			"byteLength":11232,
			"byteOffset":0,
			"target":34962
		},
		{
			"buffer":0,
			"byteLength":11232,
			"byteOffset":11232,
			"target":34962
		},
		{
			"buffer":0,
			"byteLength":7488,
			"byteOffset":22464,
			"target":34962
		},
		{
			"buffer":0,
			"byteLength":11232,
			"byteOffset":29952,
			"target":34962
		},
		{
			"buffer":0,
			"byteLength":2928,
			"byteOffset":41184,
			"target":34963
		}
	],
	"buffers":[
		{
			"byteLength":44112,
			"uri":"turm_pfeil_1.bin"
		}
	]
}
