{
	"asset":{
		"generator":"Khronos glTF Blender I/O v5.2.40",
		"version":"2.0"
	},
	"scene":0,
	"scenes":[
		{
			"name":"Scene",
			"nodes":[
				0
			]
		}
	],
	"nodes":[
		{
			"mesh":0,
			"name":"Turm_schatz_2"
		}
	],
	"materials":[
		{
			"doubleSided":true,
			"name":"Burg",
			"pbrMetallicRoughness":{
				"metallicFactor":0,
				"roughnessFactor":0.8999999761581421
			}
		}
	],
	"meshes":[
		{
			"name":"Turm_schatz_2",
			"primitives":[
				{
					"attributes":{
						"POSITION":0,
						"NORMAL":1,
						"TEXCOORD_0":2,
						"COLOR_0":3
					},
					"indices":4,
					"material":0
				}
			]
		}
	],
	"accessors":[
		{
			"bufferView":0,
			"componentType":5126,
			"count":2260,
			"max":[
				2.179999828338623,
				6.300000190734863,
				2.8500001430511475
			],
			"min":[
				-2.179999828338623,
				-0.6000000238418579,
				-2.179999828338623
			],
			"type":"VEC3"
		},
		{
			"bufferView":1,
			"componentType":5126,
			"count":2260,
			"type":"VEC3"
		},
		{
			"bufferView":2,
			"componentType":5126,
			"count":2260,
			"type":"VEC2"
		},
		{
			"bufferView":3,
			"componentType":5126,
			"count":2260,
			"type":"VEC3"
		},
		{
			"bufferView":4,
			"componentType":5123,
			"count":3384,
			"type":"SCALAR"
		}
	],
	"bufferViews":[
		{
			"buffer":0,
			"byteLength":27120,
			"byteOffset":0,
			"target":34962
		},
		{
			"buffer":0,
			"byteLength":27120,
			"byteOffset":27120,
			"target":34962
		},
		{
			"buffer":0,
			"byteLength":18080,
			"byteOffset":54240,
			"target":34962
		},
		{
			"buffer":0,
			"byteLength":27120,
			"byteOffset":72320,
			"target":34962
		},
		{
			"buffer":0,
			"byteLength":6768,
			"byteOffset":99440,
			"target":34963
		}
	],
	"buffers":[
		{
			"byteLength":106208,
			"uri":"turm_schatz_2.bin"
		}
	]
}
