{
	"asset":{
		"generator":"Khronos glTF Blender I/O v5.2.40",
		"version":"2.0"
	},
	"scene":0,
	"scenes":[
		{
			"name":"Scene",
			"nodes":[
				0
			]
		}
	],
	"nodes":[
		{
			"mesh":0,
			"name":"Turm_spaeher_1"
		}
	],
	"materials":[
		{
			"doubleSided":true,
			"name":"Burg",
			"pbrMetallicRoughness":{
				"metallicFactor":0,
				"roughnessFactor":0.8999999761581421
			}
		}
	],
	"meshes":[
		{
			"name":"Turm_spaeher_1",
			"primitives":[
				{
					"attributes":{
						"POSITION":0,
						"NORMAL":1,
						"TEXCOORD_0":2,
						"COLOR_0":3
					},
					"indices":4,
					"material":0
				}
			]
		}
	],
	"accessors":[
		{
			"bufferView":0,
			"componentType":5126,
			"count":1102,
			"max":[
				1.399999976158142,
				9.300000190734863,
				1.399999976158142
			],
			"min":[
				-1.399999976158142,
				-0.6000000238418579,
				-1.399999976158142
			],
			"type":"VEC3"
		},
		{
			"bufferView":1,
			"componentType":5126,
			"count":1102,
			"type":"VEC3"
		},
		{
			"bufferView":2,
			"componentType":5126,
			"count":1102,
			"type":"VEC2"
		},
		{
			"bufferView":3,
			"componentType":5126,
			"count":1102,
			"type":"VEC3"
		},
		{
			"bufferView":4,
			"componentType":5123,
			"count":1710,
			"type":"SCALAR"
		}
	],
	"bufferViews":[
		{
			"buffer":0,
			"byteLength":13224,
			"byteOffset":0,
			"target":34962
		},
		{
			"buffer":0,
			"byteLength":13224,
			"byteOffset":13224,
			"target":34962
		},
		{
			"buffer":0,
			"byteLength":8816,
			"byteOffset":26448,
			"target":34962
		},
		{
			"buffer":0,
			"byteLength":13224,
			"byteOffset":35264,
			"target":34962
		},
		{
			"buffer":0,
			"byteLength":3420,
			"byteOffset":48488,
			"target":34963
		}
	],
	"buffers":[
		{
			"byteLength":51908,
			"uri":"turm_spaeher_1.bin"
		}
	]
}
