{
	"asset":{
		"generator":"Khronos glTF Blender I/O v5.2.40",
		"version":"2.0"
	},
	"scene":0,
	"scenes":[
		{
			"name":"Scene",
			"nodes":[
				0
			]
		}
	],
	"nodes":[
		{
			"mesh":0,
			"name":"Turm_banner_2"
		}
	],
	"materials":[
		{
			"doubleSided":true,
			"name":"Vorkommen",
			"pbrMetallicRoughness":{
				"metallicFactor":0,
				"roughnessFactor":0.8500000238418579
			}
		}
	],
	"meshes":[
		{
			"name":"Turm_banner_2",
			"primitives":[
				{
					"attributes":{
						"POSITION":0,
						"NORMAL":1,
						"COLOR_0":2
					},
					"indices":3,
					"material":0
				}
			]
		}
	],
	"accessors":[
		{
			"bufferView":0,
			"componentType":5126,
			"count":15452,
			"max":[
				2.6850407123565674,
				6.349999904632568,
				2.6850407123565674
			],
			"min":[
				-2.6850407123565674,
				-0.6000000238418579,
				-2.6850407123565674
			],
			"type":"VEC3"
		},
		{
			"bufferView":1,
			"componentType":5126,
			"count":15452,
			"type":"VEC3"
		},
		{
			"bufferView":2,
			"componentType":5126,
			"count":15452,
			"type":"VEC3"
		},
		{
			"bufferView":3,
			"componentType":5123,
			"count":21300,
			"type":"SCALAR"
		}
	],
	"bufferViews":[
		{
			"buffer":0,
			"byteLength":185424,
			"byteOffset":0,
			"target":34962
		},
		{
			"buffer":0,
			"byteLength":185424,
			"byteOffset":185424,
			"target":34962
		},
		{
			"buffer":0,
			"byteLength":185424,
			"byteOffset":370848,
			"target":34962
		},
		{
			"buffer":0,
			"byteLength":42600,
			"byteOffset":556272,
			"target":34963
		}
	],
	"buffers":[
		{
			"byteLength":598872,
			"uri":"turm_banner_2.bin"
		}
	]
}
