{
	"asset":{
		"generator":"Khronos glTF Blender I/O v5.2.40",
		"version":"2.0"
	},
	"extensionsUsed":[
		"KHR_materials_emissive_strength"
	],
	"scene":0,
	"scenes":[
		{
			"name":"Scene",
			"nodes":[
				0
			]
		}
	],
	"nodes":[
		{
			"mesh":0,
			"name":"Kopf_runen"
		}
	],
	"materials":[
		{
			"doubleSided":true,
			"name":"Burg",
			"pbrMetallicRoughness":{
				"metallicFactor":0,
				"roughnessFactor":0.8999999761581421
			}
		},
		{
			"doubleSided":true,
			"emissiveFactor":[
				1,
				0.7605245113372803,
				0.3915724754333496
			],
			"extensions":{
				"KHR_materials_emissive_strength":{
					"emissiveStrength":2.5
				}
			},
			"name":"Kopf_runenGlas",
			"pbrMetallicRoughness":{
				"metallicFactor":0,
				"roughnessFactor":0.5
			}
		}
	],
	"meshes":[
		{
			"name":"Kopf_runen",
			"primitives":[
				{
					"attributes":{
						"POSITION":0,
						"NORMAL":1,
						"TEXCOORD_0":2,
						"COLOR_0":3
					},
					"indices":4,
					"material":0
				},
				{
					"attributes":{
						"POSITION":5,
						"NORMAL":6,
						"TEXCOORD_0":7,
						"COLOR_0":8
					},
					"indices":9,
					"material":1
				}
			]
		}
	],
	"accessors":[
		{
			"bufferView":0,
			"componentType":5126,
			"count":180,
			"max":[
				0.675000011920929,
				2.25,
				0.6000000238418579
			],
			"min":[
				-0.675000011920929,
				0,
				-0.6000000238418579
			],
			"type":"VEC3"
		},
		{
			"bufferView":1,
			"componentType":5126,
			"count":180,
			"type":"VEC3"
		},
		{
			"bufferView":2,
			"componentType":5126,
			"count":180,
			"type":"VEC2"
		},
		{
			"bufferView":3,
			"componentType":5126,
			"count":180,
			"type":"VEC3"
		},
		{
			"bufferView":4,
			"componentType":5123,
			"count":288,
			"type":"SCALAR"
		},
		{
			"bufferView":5,
			"componentType":5126,
			"count":36,
			"max":[
				0.21650634706020355,
				1.4600000381469727,
				0.25
			],
			"min":[
				-0.21650634706020355,
				0.7400000095367432,
				-0.25
			],
			"type":"VEC3"
		},
		{
			"bufferView":6,
			"componentType":5126,
			"count":36,
			"type":"VEC3"
		},
		{
			"bufferView":7,
			"componentType":5126,
			"count":36,
			"type":"VEC2"
		},
		{
			"bufferView":8,
			"componentType":5126,
			"count":36,
			"type":"VEC3"
		},
		{
			"bufferView":9,
			"componentType":5123,
			"count":60,
			"type":"SCALAR"
		}
	],
	"bufferViews":[
		{
			"buffer":0,
			"byteLength":2160,
			"byteOffset":0,
			"target":34962
		},
		{
			"buffer":0,
			"byteLength":2160,
			"byteOffset":2160,
			"target":34962
		},
		{
			"buffer":0,
			"byteLength":1440,
			"byteOffset":4320,
			"target":34962
		},
		{
			"buffer":0,
			"byteLength":2160,
			"byteOffset":5760,
			"target":34962
		},
		{
			"buffer":0,
			"byteLength":576,
			"byteOffset":7920,
			"target":34963
		},
		{
			"buffer":0,
			"byteLength":432,
			"byteOffset":8496,
			"target":34962
		},
		{
			"buffer":0,
			"byteLength":432,
			"byteOffset":8928,
			"target":34962
		},
		{
			"buffer":0,
			"byteLength":288,
			"byteOffset":9360,
			"target":34962
		},
		{
			"buffer":0,
			"byteLength":432,
			"byteOffset":9648,
			"target":34962
		},
		{
			"buffer":0,
			"byteLength":120,
			"byteOffset":10080,
			"target":34963
		}
	],
	"buffers":[
		{
			"byteLength":10200,
			"uri":"turm_runen_kopf.bin"
		}
	]
}
