{
	"asset":{
		"generator":"Khronos glTF Blender I/O v5.2.40",
		"version":"2.0"
	},
	"scene":0,
	"scenes":[
		{
			"name":"Scene",
			"nodes":[
				0
			]
		}
	],
	"nodes":[
		{
			"mesh":0,
			"name":"Kopf_kaserne"
		}
	],
	"materials":[
		{
			"doubleSided":true,
			"name":"Vorkommen",
			"pbrMetallicRoughness":{
				"metallicFactor":0,
				"roughnessFactor":0.8500000238418579
			}
		}
	],
	"meshes":[
		{
			"name":"Kopf_kaserne",
			"primitives":[
				{
					"attributes":{
						"POSITION":0,
						"NORMAL":1,
						"COLOR_0":2
					},
					"indices":3,
					"material":0
				}
			]
		}
	],
	"accessors":[
		{
			"bufferView":0,
			"componentType":5126,
			"count":1144,
			"max":[
				1.850000023841858,
				4.849999904632568,
				1.101013422012329
			],
			"min":[
				-0.3499999940395355,
				0,
				-0.3412247598171234
			],
			"type":"VEC3"
		},
		{
			"bufferView":1,
			"componentType":5126,
			"count":1144,
			"type":"VEC3"
		},
		{
			"bufferView":2,
			"componentType":5126,
			"count":1144,
			"type":"VEC3"
		},
		{
			"bufferView":3,
			"componentType":5123,
			"count":1656,
			"type":"SCALAR"
		}
	],
	"bufferViews":[
		{
			"buffer":0,
			"byteLength":13728,
			"byteOffset":0,
			"target":34962
		},
		{
			"buffer":0,
			"byteLength":13728,
			"byteOffset":13728,
			"target":34962
		},
		{
			"buffer":0,
			"byteLength":13728,
			"byteOffset":27456,
			"target":34962
		},
		{
			"buffer":0,
			"byteLength":3312,
			"byteOffset":41184,
			"target":34963
		}
	],
	"buffers":[
		{
			"byteLength":44496,
			"uri":"turm_kaserne_kopf.bin"
		}
	]
}
