{
	"asset":{
		"generator":"Khronos glTF Blender I/O v5.2.40",
		"version":"2.0"
	},
	"extensionsUsed":[
		"KHR_materials_emissive_strength"
	],
	"scene":0,
	"scenes":[
		{
			"name":"Scene",
			"nodes":[
				0
			]
		}
	],
	"nodes":[
		{
			"mesh":0,
			"name":"Turm_gift_2"
		}
	],
	"materials":[
		{
			"doubleSided":true,
			"name":"Vorkommen",
			"pbrMetallicRoughness":{
				"metallicFactor":0,
				"roughnessFactor":0.8500000238418579
			}
		},
		{
			"doubleSided":true,
			"emissiveFactor":[
				1,
				0.43415364623069763,
				0.0802198201417923
			],
			"extensions":{
				"KHR_materials_emissive_strength":{
					"emissiveStrength":2.200000047683716
				}
			},
			"name":"Turm_gift_2Leuchten",
			"pbrMetallicRoughness":{
				"metallicFactor":0,
				"roughnessFactor":0.5
			}
		}
	],
	"meshes":[
		{
			"name":"Turm_gift_2",
			"primitives":[
				{
					"attributes":{
						"POSITION":0,
						"NORMAL":1,
						"COLOR_0":2
					},
					"indices":3,
					"material":0
				},
				{
					"attributes":{
						"POSITION":4,
						"NORMAL":5,
						"COLOR_0":6
					},
					"indices":7,
					"material":1
				}
			]
		}
	],
	"accessors":[
		{
			"bufferView":0,
			"componentType":5126,
			"count":16448,
			"max":[
				2.3868026733398438,
				6.349999904632568,
				2.6494014263153076
			],
			"min":[
				-2.3360698223114014,
				-0.6000000238418579,
				-2.1713221073150635
			],
			"type":"VEC3"
		},
		{
			"bufferView":1,
			"componentType":5126,
			"count":16448,
			"type":"VEC3"
		},
		{
			"bufferView":2,
			"componentType":5126,
			"count":16448,
			"type":"VEC3"
		},
		{
			"bufferView":3,
			"componentType":5123,
			"count":22020,
			"type":"SCALAR"
		},
		{
			"bufferView":4,
			"componentType":5126,
			"count":144,
			"max":[
				2.30680251121521,
				0.7400000095367432,
				2.569401502609253
			],
			"min":[
				-2.2560698986053467,
				0.7200000286102295,
				-1.5386364459991455
			],
			"type":"VEC3"
		},
		{
			"bufferView":5,
			"componentType":5126,
			"count":144,
			"type":"VEC3"
		},
		{
			"bufferView":6,
			"componentType":5126,
			"count":144,
			"type":"VEC3"
		},
		{
			"bufferView":7,
			"componentType":5123,
			"count":198,
			"type":"SCALAR"
		}
	],
	"bufferViews":[
		{
			"buffer":0,
			"byteLength":197376,
			"byteOffset":0,
			"target":34962
		},
		{
			"buffer":0,
			"byteLength":197376,
			"byteOffset":197376,
			"target":34962
		},
		{
			"buffer":0,
			"byteLength":197376,
			"byteOffset":394752,
			"target":34962
		},
		{
			"buffer":0,
			"byteLength":44040,
			"byteOffset":592128,
			"target":34963
		},
		{
			"buffer":0,
			"byteLength":1728,
			"byteOffset":636168,
			"target":34962
		},
		{
			"buffer":0,
			"byteLength":1728,
			"byteOffset":637896,
			"target":34962
		},
		{
			"buffer":0,
			"byteLength":1728,
			"byteOffset":639624,
			"target":34962
		},
		{
			"buffer":0,
			"byteLength":396,
			"byteOffset":641352,
			"target":34963
		}
	],
	"buffers":[
		{
			"byteLength":641748,
			"uri":"turm_gift_2.bin"
		}
	]
}
