{
	"asset":{
		"generator":"Khronos glTF Blender I/O v5.2.40",
		"version":"2.0"
	},
	"extensionsUsed":[
		"KHR_materials_emissive_strength"
	],
	"scene":0,
	"scenes":[
		{
			"name":"Scene",
			"nodes":[
				0
			]
		}
	],
	"nodes":[
		{
			"mesh":0,
			"name":"Turm_feuer_2"
		}
	],
	"materials":[
		{
			"doubleSided":true,
			"name":"Vorkommen",
			"pbrMetallicRoughness":{
				"metallicFactor":0,
				"roughnessFactor":0.8500000238418579
			}
		},
		{
			"doubleSided":true,
			"emissiveFactor":[
				1,
				0.43415364623069763,
				0.0802198201417923
			],
			"extensions":{
				"KHR_materials_emissive_strength":{
					"emissiveStrength":2.200000047683716
				}
			},
			"name":"Turm_feuer_2Leuchten",
			"pbrMetallicRoughness":{
				"metallicFactor":0,
				"roughnessFactor":0.5
			}
		}
	],
	"meshes":[
		{
			"name":"Turm_feuer_2",
			"primitives":[
				{
					"attributes":{
						"POSITION":0,
						"NORMAL":1,
						"COLOR_0":2
					},
					"indices":3,
					"material":0
				},
				{
					"attributes":{
						"POSITION":4,
						"NORMAL":5,
						"COLOR_0":6
					},
					"indices":7,
					"material":1
				}
			]
		}
	],
	"accessors":[
		{
			"bufferView":0,
			"componentType":5126,
			"count":18824,
			"max":[
				2.3350870609283447,
				6,
				2.3188538551330566
			],
			"min":[
				-2.235419511795044,
				-0.6000000238418579,
				-2.270589828491211
			],
			"type":"VEC3"
		},
		{
			"bufferView":1,
			"componentType":5126,
			"count":18824,
			"type":"VEC3"
		},
		{
			"bufferView":2,
			"componentType":5126,
			"count":18824,
			"type":"VEC3"
		},
		{
			"bufferView":3,
			"componentType":5123,
			"count":25212,
			"type":"SCALAR"
		},
		{
			"bufferView":4,
			"componentType":5126,
			"count":336,
			"max":[
				1.880329966545105,
				4.353384971618652,
				1.7917113304138184
			],
			"min":[
				-1.880329966545105,
				0.6299999952316284,
				-1.8140562772750854
			],
			"type":"VEC3"
		},
		{
			"bufferView":5,
			"componentType":5126,
			"count":336,
			"type":"VEC3"
		},
		{
			"bufferView":6,
			"componentType":5126,
			"count":336,
			"type":"VEC3"
		},
		{
			"bufferView":7,
			"componentType":5123,
			"count":468,
			"type":"SCALAR"
		}
	],
	"bufferViews":[
		{
			"buffer":0,
			"byteLength":225888,
			"byteOffset":0,
			"target":34962
		},
		{
			"buffer":0,
			"byteLength":225888,
			"byteOffset":225888,
			"target":34962
		},
		{
			"buffer":0,
			"byteLength":225888,
			"byteOffset":451776,
			"target":34962
		},
		{
			"buffer":0,
			"byteLength":50424,
			"byteOffset":677664,
			"target":34963
		},
		{
			"buffer":0,
			"byteLength":4032,
			"byteOffset":728088,
			"target":34962
		},
		{
			"buffer":0,
			"byteLength":4032,
			"byteOffset":732120,
			"target":34962
		},
		{
			"buffer":0,
			"byteLength":4032,
			"byteOffset":736152,
			"target":34962
		},
		{
			"buffer":0,
			"byteLength":936,
			"byteOffset":740184,
			"target":34963
		}
	],
	"buffers":[
		{
			"byteLength":741120,
			"uri":"turm_feuer_2.bin"
		}
	]
}
