{
	"asset":{
		"generator":"Khronos glTF Blender I/O v5.2.40",
		"version":"2.0"
	},
	"extensionsUsed":[
		"KHR_materials_emissive_strength"
	],
	"scene":0,
	"scenes":[
		{
			"name":"Scene",
			"nodes":[
				0
			]
		}
	],
	"nodes":[
		{
			"mesh":0,
			"name":"Kopf_blitz"
		}
	],
	"materials":[
		{
			"doubleSided":true,
			"name":"Vorkommen",
			"pbrMetallicRoughness":{
				"metallicFactor":0,
				"roughnessFactor":0.8500000238418579
			}
		},
		{
			"doubleSided":true,
			"emissiveFactor":[
				1,
				0.43415364623069763,
				0.0802198201417923
			],
			"extensions":{
				"KHR_materials_emissive_strength":{
					"emissiveStrength":2.200000047683716
				}
			},
			"name":"Kopf_blitzLeuchten",
			"pbrMetallicRoughness":{
				"metallicFactor":0,
				"roughnessFactor":0.5
			}
		}
	],
	"meshes":[
		{
			"name":"Kopf_blitz",
			"primitives":[
				{
					"attributes":{
						"POSITION":0,
						"NORMAL":1,
						"COLOR_0":2
					},
					"indices":3,
					"material":0
				},
				{
					"attributes":{
						"POSITION":4,
						"NORMAL":5,
						"COLOR_0":6
					},
					"indices":7,
					"material":1
				}
			]
		}
	],
	"accessors":[
		{
			"bufferView":0,
			"componentType":5126,
			"count":1488,
			"max":[
				0.5,
				2.2149300575256348,
				0.48746395111083984
			],
			"min":[
				-0.5,
				0,
				-0.48746395111083984
			],
			"type":"VEC3"
		},
		{
			"bufferView":1,
			"componentType":5126,
			"count":1488,
			"type":"VEC3"
		},
		{
			"bufferView":2,
			"componentType":5126,
			"count":1488,
			"type":"VEC3"
		},
		{
			"bufferView":3,
			"componentType":5123,
			"count":2352,
			"type":"SCALAR"
		},
		{
			"bufferView":4,
			"componentType":5126,
			"count":312,
			"max":[
				0.4489087462425232,
				2.2799999713897705,
				0.4408702552318573
			],
			"min":[
				-0.4489087462425232,
				1.4500000476837158,
				-0.4408702552318573
			],
			"type":"VEC3"
		},
		{
			"bufferView":5,
			"componentType":5126,
			"count":312,
			"type":"VEC3"
		},
		{
			"bufferView":6,
			"componentType":5126,
			"count":312,
			"type":"VEC3"
		},
		{
			"bufferView":7,
			"componentType":5123,
			"count":360,
			"type":"SCALAR"
		}
	],
	"bufferViews":[
		{
			"buffer":0,
			"byteLength":17856,
			"byteOffset":0,
			"target":34962
		},
		{
			"buffer":0,
			"byteLength":17856,
			"byteOffset":17856,
			"target":34962
		},
		{
			"buffer":0,
			"byteLength":17856,
			"byteOffset":35712,
			"target":34962
		},
		{
			"buffer":0,
			"byteLength":4704,
			"byteOffset":53568,
			"target":34963
		},
		{
			"buffer":0,
			"byteLength":3744,
			"byteOffset":58272,
			"target":34962
		},
		{
			"buffer":0,
			"byteLength":3744,
			"byteOffset":62016,
			"target":34962
		},
		{
			"buffer":0,
			"byteLength":3744,
			"byteOffset":65760,
			"target":34962
		},
		{
			"buffer":0,
			"byteLength":720,
			"byteOffset":69504,
			"target":34963
		}
	],
	"buffers":[
		{
			"byteLength":70224,
			"uri":"turm_blitz_kopf.bin"
		}
	]
}
