{
	"asset":{
		"generator":"Khronos glTF Blender I/O v5.2.40",
		"version":"2.0"
	},
	"extensionsUsed":[
		"KHR_materials_emissive_strength"
	],
	"scene":0,
	"scenes":[
		{
			"name":"Scene",
			"nodes":[
				0
			]
		}
	],
	"nodes":[
		{
			"mesh":0,
			"name":"Turm_frost_1"
		}
	],
	"materials":[
		{
			"doubleSided":true,
			"name":"Vorkommen",
			"pbrMetallicRoughness":{
				"metallicFactor":0,
				"roughnessFactor":0.8500000238418579
			}
		},
		{
			"doubleSided":true,
			"emissiveFactor":[
				1,
				0.43415364623069763,
				0.0802198201417923
			],
			"extensions":{
				"KHR_materials_emissive_strength":{
					"emissiveStrength":2.200000047683716
				}
			},
			"name":"Turm_frost_1Leuchten",
			"pbrMetallicRoughness":{
				"metallicFactor":0,
				"roughnessFactor":0.5
			}
		}
	],
	"meshes":[
		{
			"name":"Turm_frost_1",
			"primitives":[
				{
					"attributes":{
						"POSITION":0,
						"NORMAL":1,
						"COLOR_0":2
					},
					"indices":3,
					"material":0
				},
				{
					"attributes":{
						"POSITION":4,
						"NORMAL":5,
						"COLOR_0":6
					},
					"indices":7,
					"material":1
				}
			]
		}
	],
	"accessors":[
		{
			"bufferView":0,
			"componentType":5126,
			"count":14980,
			"max":[
				2.2063708305358887,
				4.849999904632568,
				2.2093734741210938
			],
			"min":[
				-2.2526473999023438,
				-0.6000000238418579,
				-2.149374485015869
			],
			"type":"VEC3"
		},
		{
			"bufferView":1,
			"componentType":5126,
			"count":14980,
			"type":"VEC3"
		},
		{
			"bufferView":2,
			"componentType":5126,
			"count":14980,
			"type":"VEC3"
		},
		{
			"bufferView":3,
			"componentType":5123,
			"count":19716,
			"type":"SCALAR"
		},
		{
			"bufferView":4,
			"componentType":5126,
			"count":1440,
			"max":[
				2.3742177486419678,
				1.0024724006652832,
				2.3777575492858887
			],
			"min":[
				-2.1207025051116943,
				-0.20922726392745972,
				-1.6127578020095825
			],
			"type":"VEC3"
		},
		{
			"bufferView":5,
			"componentType":5126,
			"count":1440,
			"type":"VEC3"
		},
		{
			"bufferView":6,
			"componentType":5126,
			"count":1440,
			"type":"VEC3"
		},
		{
			"bufferView":7,
			"componentType":5123,
			"count":2070,
			"type":"SCALAR"
		}
	],
	"bufferViews":[
		{
			"buffer":0,
			"byteLength":179760,
			"byteOffset":0,
			"target":34962
		},
		{
			"buffer":0,
			"byteLength":179760,
			"byteOffset":179760,
			"target":34962
		},
		{
			"buffer":0,
			"byteLength":179760,
			"byteOffset":359520,
			"target":34962
		},
		{
			"buffer":0,
			"byteLength":39432,
			"byteOffset":539280,
			"target":34963
		},
		{
			"buffer":0,
			"byteLength":17280,
			"byteOffset":578712,
			"target":34962
		},
		{
			"buffer":0,
			"byteLength":17280,
			"byteOffset":595992,
			"target":34962
		},
		{
			"buffer":0,
			"byteLength":17280,
			"byteOffset":613272,
			"target":34962
		},
		{
			"buffer":0,
			"byteLength":4140,
			"byteOffset":630552,
			"target":34963
		}
	],
	"buffers":[
		{
			"byteLength":634692,
			"uri":"turm_frost_1.bin"
		}
	]
}
