{
	"asset":{
		"generator":"Khronos glTF Blender I/O v5.2.40",
		"version":"2.0"
	},
	"scene":0,
	"scenes":[
		{
			"name":"Scene",
			"nodes":[
				0
			]
		}
	],
	"nodes":[
		{
			"mesh":0,
			"name":"Turm_banner_3"
		}
	],
	"materials":[
		{
			"doubleSided":true,
			"name":"Burg",
			"pbrMetallicRoughness":{
				"metallicFactor":0,
				"roughnessFactor":0.8999999761581421
			}
		}
	],
	"meshes":[
		{
			"name":"Turm_banner_3",
			"primitives":[
				{
					"attributes":{
						"POSITION":0,
						"NORMAL":1,
						"TEXCOORD_0":2,
						"COLOR_0":3
					},
					"indices":4,
					"material":0
				}
			]
		}
	],
	"accessors":[
		{
			"bufferView":0,
			"componentType":5126,
			"count":2804,
			"max":[
				2.5011839866638184,
				7.800000190734863,
				2.217968225479126
			],
			"min":[
				-2.4819326400756836,
				-0.6000000238418579,
				-2.619779586791992
			],
			"type":"VEC3"
		},
		{
			"bufferView":1,
			"componentType":5126,
			"count":2804,
			"type":"VEC3"
		},
		{
			"bufferView":2,
			"componentType":5126,
			"count":2804,
			"type":"VEC2"
		},
		{
			"bufferView":3,
			"componentType":5126,
			"count":2804,
			"type":"VEC3"
		},
		{
			"bufferView":4,
			"componentType":5123,
			"count":4524,
			"type":"SCALAR"
		}
	],
	"bufferViews":[
		{
			"buffer":0,
			"byteLength":33648,
			"byteOffset":0,
			"target":34962
		},
		{
			"buffer":0,
			"byteLength":33648,
			"byteOffset":33648,
			"target":34962
		},
		{
			"buffer":0,
			"byteLength":22432,
			"byteOffset":67296,
			"target":34962
		},
		{
			"buffer":0,
			"byteLength":33648,
			"byteOffset":89728,
			"target":34962
		},
		{
			"buffer":0,
			"byteLength":9048,
			"byteOffset":123376,
			"target":34963
		}
	],
	"buffers":[
		{
			"byteLength":132424,
			"uri":"turm_banner_3.bin"
		}
	]
}
