{
	"asset":{
		"generator":"Khronos glTF Blender I/O v5.2.40",
		"version":"2.0"
	},
	"extensionsUsed":[
		"KHR_materials_emissive_strength"
	],
	"scene":0,
	"scenes":[
		{
			"name":"Scene",
			"nodes":[
				0
			]
		}
	],
	"nodes":[
		{
			"mesh":0,
			"name":"Turm_runen_1"
		}
	],
	"materials":[
		{
			"doubleSided":true,
			"name":"Burg",
			"pbrMetallicRoughness":{
				"metallicFactor":0,
				"roughnessFactor":0.8999999761581421
			}
		},
		{
			"doubleSided":true,
			"emissiveFactor":[
				1,
				0.7605245113372803,
				0.3915724754333496
			],
			"extensions":{
				"KHR_materials_emissive_strength":{
					"emissiveStrength":2
				}
			},
			"name":"Turm_runen_1Glas",
			"pbrMetallicRoughness":{
				"metallicFactor":0,
				"roughnessFactor":0.5
			}
		}
	],
	"meshes":[
		{
			"name":"Turm_runen_1",
			"primitives":[
				{
					"attributes":{
						"POSITION":0,
						"NORMAL":1,
						"TEXCOORD_0":2,
						"COLOR_0":3
					},
					"indices":4,
					"material":0
				},
				{
					"attributes":{
						"POSITION":5,
						"NORMAL":6,
						"TEXCOORD_0":7,
						"COLOR_0":8
					},
					"indices":9,
					"material":1
				}
			]
		}
	],
	"accessors":[
		{
			"bufferView":0,
			"componentType":5126,
			"count":756,
			"max":[
				2.560685157775879,
				4.899999618530273,
				2.5158579349517822
			],
			"min":[
				-2.515934467315674,
				-0.6000000238418579,
				-2.514404296875
			],
			"type":"VEC3"
		},
		{
			"bufferView":1,
			"componentType":5126,
			"count":756,
			"type":"VEC3"
		},
		{
			"bufferView":2,
			"componentType":5126,
			"count":756,
			"type":"VEC2"
		},
		{
			"bufferView":3,
			"componentType":5126,
			"count":756,
			"type":"VEC3"
		},
		{
			"bufferView":4,
			"componentType":5123,
			"count":1128,
			"type":"SCALAR"
		},
		{
			"bufferView":5,
			"componentType":5126,
			"count":528,
			"max":[
				2.5478320121765137,
				2.799999952316284,
				2.5102241039276123
			],
			"min":[
				-2.510958671569824,
				0.2921595573425293,
				-2.4976539611816406
			],
			"type":"VEC3"
		},
		{
			"bufferView":6,
			"componentType":5126,
			"count":528,
			"type":"VEC3"
		},
		{
			"bufferView":7,
			"componentType":5126,
			"count":528,
			"type":"VEC2"
		},
		{
			"bufferView":8,
			"componentType":5126,
			"count":528,
			"type":"VEC3"
		},
		{
			"bufferView":9,
			"componentType":5123,
			"count":792,
			"type":"SCALAR"
		}
	],
	"bufferViews":[
		{
			"buffer":0,
			"byteLength":9072,
			"byteOffset":0,
			"target":34962
		},
		{
			"buffer":0,
			"byteLength":9072,
			"byteOffset":9072,
			"target":34962
		},
		{
			"buffer":0,
			"byteLength":6048,
			"byteOffset":18144,
			"target":34962
		},
		{
			"buffer":0,
			"byteLength":9072,
			"byteOffset":24192,
			"target":34962
		},
		{
			"buffer":0,
			"byteLength":2256,
			"byteOffset":33264,
			"target":34963
		},
		{
			"buffer":0,
			"byteLength":6336,
			"byteOffset":35520,
			"target":34962
		},
		{
			"buffer":0,
			"byteLength":6336,
			"byteOffset":41856,
			"target":34962
		},
		{
			"buffer":0,
			"byteLength":4224,
			"byteOffset":48192,
			"target":34962
		},
		{
			"buffer":0,
			"byteLength":6336,
			"byteOffset":52416,
			"target":34962
		},
		{
			"buffer":0,
			"byteLength":1584,
			"byteOffset":58752,
			"target":34963
		}
	],
	"buffers":[
		{
			"byteLength":60336,
			"uri":"turm_runen_1.bin"
		}
	]
}
