{
	"asset":{
		"generator":"Khronos glTF Blender I/O v5.2.40",
		"version":"2.0"
	},
	"scene":0,
	"scenes":[
		{
			"name":"Scene",
			"nodes":[
				0
			]
		}
	],
	"nodes":[
		{
			"mesh":0,
			"name":"Turm_katapult_1"
		}
	],
	"materials":[
		{
			"doubleSided":true,
			"name":"Vorkommen",
			"pbrMetallicRoughness":{
				"metallicFactor":0,
				"roughnessFactor":0.8500000238418579
			}
		}
	],
	"meshes":[
		{
			"name":"Turm_katapult_1",
			"primitives":[
				{
					"attributes":{
						"POSITION":0,
						"NORMAL":1,
						"COLOR_0":2
					},
					"indices":3,
					"material":0
				}
			]
		}
	],
	"accessors":[
		{
			"bufferView":0,
			"componentType":5126,
			"count":22420,
			"max":[
				2.5500001907348633,
				5.619999885559082,
				2.782325267791748
			],
			"min":[
				-2.5500001907348633,
				-0.6000000238418579,
				-2.5500001907348633
			],
			"type":"VEC3"
		},
		{
			"bufferView":1,
			"componentType":5126,
			"count":22420,
			"type":"VEC3"
		},
		{
			"bufferView":2,
			"componentType":5126,
			"count":22420,
			"type":"VEC3"
		},
		{
			"bufferView":3,
			"componentType":5123,
			"count":30648,
			"type":"SCALAR"
		}
	],
	"bufferViews":[
		{
			"buffer":0,
			"byteLength":269040,
			"byteOffset":0,
			"target":34962
		},
		{
			"buffer":0,
			"byteLength":269040,
			"byteOffset":269040,
			"target":34962
		},
		{
			"buffer":0,
			"byteLength":269040,
			"byteOffset":538080,
			"target":34962
		},
		{
			"buffer":0,
			"byteLength":61296,
			"byteOffset":807120,
			"target":34963
		}
	],
	"buffers":[
		{
			"byteLength":868416,
			"uri":"turm_katapult_1.bin"
		}
	]
}
