{
	"asset":{
		"generator":"Khronos glTF Blender I/O v5.2.40",
		"version":"2.0"
	},
	"scene":0,
	"scenes":[
		{
			"name":"Scene",
			"nodes":[
				0
			]
		}
	],
	"nodes":[
		{
			"mesh":0,
			"name":"Kopf_banner"
		}
	],
	"materials":[
		{
			"doubleSided":true,
			"name":"Burg",
			"pbrMetallicRoughness":{
				"metallicFactor":0,
				"roughnessFactor":0.8999999761581421
			}
		}
	],
	"meshes":[
		{
			"name":"Kopf_banner",
			"primitives":[
				{
					"attributes":{
						"POSITION":0,
						"NORMAL":1,
						"TEXCOORD_0":2,
						"COLOR_0":3
					},
					"indices":4,
					"material":0
				}
			]
		}
	],
	"accessors":[
		{
			"bufferView":0,
			"componentType":5126,
			"count":234,
			"max":[
				1.8499999046325684,
				4.849999904632568,
				0.30000001192092896
			],
			"min":[
				-0.30000001192092896,
				0,
				-0.30000001192092896
			],
			"type":"VEC3"
		},
		{
			"bufferView":1,
			"componentType":5126,
			"count":234,
			"type":"VEC3"
		},
		{
			"bufferView":2,
			"componentType":5126,
			"count":234,
			"type":"VEC2"
		},
		{
			"bufferView":3,
			"componentType":5126,
			"count":234,
			"type":"VEC3"
		},
		{
			"bufferView":4,
			"componentType":5123,
			"count":360,
			"type":"SCALAR"
		}
	],
	"bufferViews":[
		{
			"buffer":0,
			"byteLength":2808,
			"byteOffset":0,
			"target":34962
		},
		{
			"buffer":0,
			"byteLength":2808,
			"byteOffset":2808,
			"target":34962
		},
		{
			"buffer":0,
			"byteLength":1872,
			"byteOffset":5616,
			"target":34962
		},
		{
			"buffer":0,
			"byteLength":2808,
			"byteOffset":7488,
			"target":34962
		},
		{
			"buffer":0,
			"byteLength":720,
			"byteOffset":10296,
			"target":34963
		}
	],
	"buffers":[
		{
			"byteLength":11016,
			"uri":"turm_banner_kopf.bin"
		}
	]
}
