{
	"asset":{
		"generator":"Khronos glTF Blender I/O v5.2.40",
		"version":"2.0"
	},
	"scene":0,
	"scenes":[
		{
			"name":"Scene",
			"nodes":[
				0
			]
		}
	],
	"nodes":[
		{
			"mesh":0,
			"name":"Kopf_balliste"
		}
	],
	"materials":[
		{
			"doubleSided":true,
			"name":"Vorkommen",
			"pbrMetallicRoughness":{
				"metallicFactor":0,
				"roughnessFactor":0.8500000238418579
			}
		}
	],
	"meshes":[
		{
			"name":"Kopf_balliste",
			"primitives":[
				{
					"attributes":{
						"POSITION":0,
						"NORMAL":1,
						"COLOR_0":2
					},
					"indices":3,
					"material":0
				}
			]
		}
	],
	"accessors":[
		{
			"bufferView":0,
			"componentType":5126,
			"count":2160,
			"max":[
				1.4959999322891235,
				1.409999966621399,
				2.0999999046325684
			],
			"min":[
				-1.4959999322891235,
				0,
				-1.0499999523162842
			],
			"type":"VEC3"
		},
		{
			"bufferView":1,
			"componentType":5126,
			"count":2160,
			"type":"VEC3"
		},
		{
			"bufferView":2,
			"componentType":5126,
			"count":2160,
			"type":"VEC3"
		},
		{
			"bufferView":3,
			"componentType":5123,
			"count":3222,
			"type":"SCALAR"
		}
	],
	"bufferViews":[
		{
			"buffer":0,
			"byteLength":25920,
			"byteOffset":0,
			"target":34962
		},
		{
			"buffer":0,
			"byteLength":25920,
			"byteOffset":25920,
			"target":34962
		},
		{
			"buffer":0,
			"byteLength":25920,
			"byteOffset":51840,
			"target":34962
		},
		{
			"buffer":0,
			"byteLength":6444,
			"byteOffset":77760,
			"target":34963
		}
	],
	"buffers":[
		{
			"byteLength":84204,
			"uri":"turm_balliste_kopf.bin"
		}
	]
}
