{
	"asset":{
		"generator":"Khronos glTF Blender I/O v5.2.40",
		"version":"2.0"
	},
	"extensionsUsed":[
		"KHR_materials_emissive_strength"
	],
	"scene":0,
	"scenes":[
		{
			"name":"Scene",
			"nodes":[
				0
			]
		}
	],
	"nodes":[
		{
			"mesh":0,
			"name":"Turm_gift_1"
		}
	],
	"materials":[
		{
			"doubleSided":true,
			"name":"Vorkommen",
			"pbrMetallicRoughness":{
				"metallicFactor":0,
				"roughnessFactor":0.8500000238418579
			}
		},
		{
			"doubleSided":true,
			"emissiveFactor":[
				1,
				0.43415364623069763,
				0.0802198201417923
			],
			"extensions":{
				"KHR_materials_emissive_strength":{
					"emissiveStrength":2.200000047683716
				}
			},
			"name":"Turm_gift_1Leuchten",
			"pbrMetallicRoughness":{
				"metallicFactor":0,
				"roughnessFactor":0.5
			}
		}
	],
	"meshes":[
		{
			"name":"Turm_gift_1",
			"primitives":[
				{
					"attributes":{
						"POSITION":0,
						"NORMAL":1,
						"COLOR_0":2
					},
					"indices":3,
					"material":0
				},
				{
					"attributes":{
						"POSITION":4,
						"NORMAL":5,
						"COLOR_0":6
					},
					"indices":7,
					"material":1
				}
			]
		}
	],
	"accessors":[
		{
			"bufferView":0,
			"componentType":5126,
			"count":15724,
			"max":[
				2.3868026733398438,
				5.150000095367432,
				2.2298054695129395
			],
			"min":[
				-2.3360698223114014,
				-0.6000000238418579,
				-2.1978471279144287
			],
			"type":"VEC3"
		},
		{
			"bufferView":1,
			"componentType":5126,
			"count":15724,
			"type":"VEC3"
		},
		{
			"bufferView":2,
			"componentType":5126,
			"count":15724,
			"type":"VEC3"
		},
		{
			"bufferView":3,
			"componentType":5123,
			"count":20940,
			"type":"SCALAR"
		},
		{
			"bufferView":4,
			"componentType":5126,
			"count":96,
			"max":[
				2.30680251121521,
				0.7400000095367432,
				-0.6107649803161621
			],
			"min":[
				-2.2560698986053467,
				0.7200000286102295,
				-1.5386364459991455
			],
			"type":"VEC3"
		},
		{
			"bufferView":5,
			"componentType":5126,
			"count":96,
			"type":"VEC3"
		},
		{
			"bufferView":6,
			"componentType":5126,
			"count":96,
			"type":"VEC3"
		},
		{
			"bufferView":7,
			"componentType":5123,
			"count":132,
			"type":"SCALAR"
		}
	],
	"bufferViews":[
		{
			"buffer":0,
			"byteLength":188688,
			"byteOffset":0,
			"target":34962
		},
		{
			"buffer":0,
			"byteLength":188688,
			"byteOffset":188688,
			"target":34962
		},
		{
			"buffer":0,
			"byteLength":188688,
			"byteOffset":377376,
			"target":34962
		},
		{
			"buffer":0,
			"byteLength":41880,
			"byteOffset":566064,
			"target":34963
		},
		{
			"buffer":0,
			"byteLength":1152,
			"byteOffset":607944,
			"target":34962
		},
		{
			"buffer":0,
			"byteLength":1152,
			"byteOffset":609096,
			"target":34962
		},
		{
			"buffer":0,
			"byteLength":1152,
			"byteOffset":610248,
			"target":34962
		},
		{
			"buffer":0,
			"byteLength":264,
			"byteOffset":611400,
			"target":34963
		}
	],
	"buffers":[
		{
			"byteLength":611664,
			"uri":"turm_gift_1.bin"
		}
	]
}
