{
	"asset":{
		"generator":"Khronos glTF Blender I/O v5.2.40",
		"version":"2.0"
	},
	"extensionsUsed":[
		"KHR_materials_emissive_strength"
	],
	"scene":0,
	"scenes":[
		{
			"name":"Scene",
			"nodes":[
				0
			]
		}
	],
	"nodes":[
		{
			"mesh":0,
			"name":"Turm_kaserne_3"
		}
	],
	"materials":[
		{
			"doubleSided":true,
			"name":"Burg",
			"pbrMetallicRoughness":{
				"metallicFactor":0,
				"roughnessFactor":0.8999999761581421
			}
		},
		{
			"doubleSided":true,
			"emissiveFactor":[
				1,
				0.7605245113372803,
				0.3915724754333496
			],
			"extensions":{
				"KHR_materials_emissive_strength":{
					"emissiveStrength":2
				}
			},
			"name":"Turm_kaserne_3Glas",
			"pbrMetallicRoughness":{
				"metallicFactor":0,
				"roughnessFactor":0.5
			}
		}
	],
	"meshes":[
		{
			"name":"Turm_kaserne_3",
			"primitives":[
				{
					"attributes":{
						"POSITION":0,
						"NORMAL":1,
						"TEXCOORD_0":2,
						"COLOR_0":3
					},
					"indices":4,
					"material":0
				},
				{
					"attributes":{
						"POSITION":5,
						"NORMAL":6,
						"TEXCOORD_0":7,
						"COLOR_0":8
					},
					"indices":9,
					"material":1
				}
			]
		}
	],
	"accessors":[
		{
			"bufferView":0,
			"componentType":5126,
			"count":1786,
			"max":[
				2.297487258911133,
				7.599999904632568,
				2.509999990463257
			],
			"min":[
				-2.297487258911133,
				-0.6000000238418579,
				-2.297487258911133
			],
			"type":"VEC3"
		},
		{
			"bufferView":1,
			"componentType":5126,
			"count":1786,
			"type":"VEC3"
		},
		{
			"bufferView":2,
			"componentType":5126,
			"count":1786,
			"type":"VEC2"
		},
		{
			"bufferView":3,
			"componentType":5126,
			"count":1786,
			"type":"VEC3"
		},
		{
			"bufferView":4,
			"componentType":5123,
			"count":2868,
			"type":"SCALAR"
		},
		{
			"bufferView":5,
			"componentType":5126,
			"count":162,
			"max":[
				2.0999999046325684,
				5.400000095367432,
				2.28660249710083
			],
			"min":[
				-2.0999999046325684,
				2.75,
				-2.0999999046325684
			],
			"type":"VEC3"
		},
		{
			"bufferView":6,
			"componentType":5126,
			"count":162,
			"type":"VEC3"
		},
		{
			"bufferView":7,
			"componentType":5126,
			"count":162,
			"type":"VEC2"
		},
		{
			"bufferView":8,
			"componentType":5126,
			"count":162,
			"type":"VEC3"
		},
		{
			"bufferView":9,
			"componentType":5123,
			"count":216,
			"type":"SCALAR"
		}
	],
	"bufferViews":[
		{
			"buffer":0,
			"byteLength":21432,
			"byteOffset":0,
			"target":34962
		},
		{
			"buffer":0,
			"byteLength":21432,
			"byteOffset":21432,
			"target":34962
		},
		{
			"buffer":0,
			"byteLength":14288,
			"byteOffset":42864,
			"target":34962
		},
		{
			"buffer":0,
			"byteLength":21432,
			"byteOffset":57152,
			"target":34962
		},
		{
			"buffer":0,
			"byteLength":5736,
			"byteOffset":78584,
			"target":34963
		},
		{
			"buffer":0,
			"byteLength":1944,
			"byteOffset":84320,
			"target":34962
		},
		{
			"buffer":0,
			"byteLength":1944,
			"byteOffset":86264,
			"target":34962
		},
		{
			"buffer":0,
			"byteLength":1296,
			"byteOffset":88208,
			"target":34962
		},
		{
			"buffer":0,
			"byteLength":1944,
			"byteOffset":89504,
			"target":34962
		},
		{
			"buffer":0,
			"byteLength":432,
			"byteOffset":91448,
			"target":34963
		}
	],
	"buffers":[
		{
			"byteLength":91880,
			"uri":"turm_kaserne_3.bin"
		}
	]
}
