{
	"asset":{
		"generator":"Khronos glTF Blender I/O v5.2.40",
		"version":"2.0"
	},
	"scene":0,
	"scenes":[
		{
			"name":"Scene",
			"nodes":[
				0
			]
		}
	],
	"nodes":[
		{
			"mesh":0,
			"name":"Turm_pfeil_2"
		}
	],
	"materials":[
		{
			"doubleSided":true,
			"name":"Burg",
			"pbrMetallicRoughness":{
				"metallicFactor":0,
				"roughnessFactor":0.8999999761581421
			}
		}
	],
	"meshes":[
		{
			"name":"Turm_pfeil_2",
			"primitives":[
				{
					"attributes":{
						"POSITION":0,
						"NORMAL":1,
						"TEXCOORD_0":2,
						"COLOR_0":3
					},
					"indices":4,
					"material":0
				}
			]
		}
	],
	"accessors":[
		{
			"bufferView":0,
			"componentType":5126,
			"count":1416,
			"max":[
				1.7590667009353638,
				7.600000381469727,
				1.7590667009353638
			],
			"min":[
				-1.7590667009353638,
				-0.6000000238418579,
				-1.80208158493042
			],
			"type":"VEC3"
		},
		{
			"bufferView":1,
			"componentType":5126,
			"count":1416,
			"type":"VEC3"
		},
		{
			"bufferView":2,
			"componentType":5126,
			"count":1416,
			"type":"VEC2"
		},
		{
			"bufferView":3,
			"componentType":5126,
			"count":1416,
			"type":"VEC3"
		},
		{
			"bufferView":4,
			"componentType":5123,
			"count":2196,
			"type":"SCALAR"
		}
	],
	"bufferViews":[
		{
			"buffer":0,
			"byteLength":16992,
			"byteOffset":0,
			"target":34962
		},
		{
			"buffer":0,
			"byteLength":16992,
			"byteOffset":16992,
			"target":34962
		},
		{
			"buffer":0,
			"byteLength":11328,
			"byteOffset":33984,
			"target":34962
		},
		{
			"buffer":0,
			"byteLength":16992,
			"byteOffset":45312,
			"target":34962
		},
		{
			"buffer":0,
			"byteLength":4392,
			"byteOffset":62304,
			"target":34963
		}
	],
	"buffers":[
		{
			"byteLength":66696,
			"uri":"turm_pfeil_2.bin"
		}
	]
}
