{
	"asset":{
		"generator":"Khronos glTF Blender I/O v5.2.40",
		"version":"2.0"
	},
	"scene":0,
	"scenes":[
		{
			"name":"Scene",
			"nodes":[
				0
			]
		}
	],
	"nodes":[
		{
			"mesh":0,
			"name":"Turm_banner_1"
		}
	],
	"materials":[
		{
			"doubleSided":true,
			"name":"Burg",
			"pbrMetallicRoughness":{
				"metallicFactor":0,
				"roughnessFactor":0.8999999761581421
			}
		}
	],
	"meshes":[
		{
			"name":"Turm_banner_1",
			"primitives":[
				{
					"attributes":{
						"POSITION":0,
						"NORMAL":1,
						"TEXCOORD_0":2,
						"COLOR_0":3
					},
					"indices":4,
					"material":0
				}
			]
		}
	],
	"accessors":[
		{
			"bufferView":0,
			"componentType":5126,
			"count":1476,
			"max":[
				2.5011839866638184,
				5.130000114440918,
				2.565232753753662
			],
			"min":[
				-2.0133554935455322,
				-0.6000000238418579,
				-1.915088176727295
			],
			"type":"VEC3"
		},
		{
			"bufferView":1,
			"componentType":5126,
			"count":1476,
			"type":"VEC3"
		},
		{
			"bufferView":2,
			"componentType":5126,
			"count":1476,
			"type":"VEC2"
		},
		{
			"bufferView":3,
			"componentType":5126,
			"count":1476,
			"type":"VEC3"
		},
		{
			"bufferView":4,
			"componentType":5123,
			"count":2436,
			"type":"SCALAR"
		}
	],
	"bufferViews":[
		{
			"buffer":0,
			"byteLength":17712,
			"byteOffset":0,
			"target":34962
		},
		{
			"buffer":0,
			"byteLength":17712,
			"byteOffset":17712,
			"target":34962
		},
		{
			"buffer":0,
			"byteLength":11808,
			"byteOffset":35424,
			"target":34962
		},
		{
			"buffer":0,
			"byteLength":17712,
			"byteOffset":47232,
			"target":34962
		},
		{
			"buffer":0,
			"byteLength":4872,
			"byteOffset":64944,
			"target":34963
		}
	],
	"buffers":[
		{
			"byteLength":69816,
			"uri":"turm_banner_1.bin"
		}
	]
}
