{
	"asset":{
		"generator":"Khronos glTF Blender I/O v5.2.40",
		"version":"2.0"
	},
	"extensionsUsed":[
		"KHR_materials_emissive_strength"
	],
	"scene":0,
	"scenes":[
		{
			"name":"Scene",
			"nodes":[
				0
			]
		}
	],
	"nodes":[
		{
			"mesh":0,
			"name":"Turm_spaeher_2"
		}
	],
	"materials":[
		{
			"doubleSided":true,
			"name":"Vorkommen",
			"pbrMetallicRoughness":{
				"metallicFactor":0,
				"roughnessFactor":0.8500000238418579
			}
		},
		{
			"doubleSided":true,
			"emissiveFactor":[
				1,
				0.43415364623069763,
				0.0802198201417923
			],
			"extensions":{
				"KHR_materials_emissive_strength":{
					"emissiveStrength":2.200000047683716
				}
			},
			"name":"Turm_spaeher_2Leuchten",
			"pbrMetallicRoughness":{
				"metallicFactor":0,
				"roughnessFactor":0.5
			}
		}
	],
	"meshes":[
		{
			"name":"Turm_spaeher_2",
			"primitives":[
				{
					"attributes":{
						"POSITION":0,
						"NORMAL":1,
						"COLOR_0":2
					},
					"indices":3,
					"material":0
				},
				{
					"attributes":{
						"POSITION":4,
						"NORMAL":5,
						"COLOR_0":6
					},
					"indices":7,
					"material":1
				}
			]
		}
	],
	"accessors":[
		{
			"bufferView":0,
			"componentType":5126,
			"count":20808,
			"max":[
				1.9496526718139648,
				11.269999504089355,
				1.9250776767730713
			],
			"min":[
				-1.9279277324676514,
				-0.6000000238418579,
				-1.9250777959823608
			],
			"type":"VEC3"
		},
		{
			"bufferView":1,
			"componentType":5126,
			"count":20808,
			"type":"VEC3"
		},
		{
			"bufferView":2,
			"componentType":5126,
			"count":20808,
			"type":"VEC3"
		},
		{
			"bufferView":3,
			"componentType":5123,
			"count":28500,
			"type":"SCALAR"
		},
		{
			"bufferView":4,
			"componentType":5126,
			"count":48,
			"max":[
				1.3838834762573242,
				7.059999942779541,
				0.9638834595680237
			],
			"min":[
				-0.5438835024833679,
				6.78000020980835,
				-0.9638834595680237
			],
			"type":"VEC3"
		},
		{
			"bufferView":5,
			"componentType":5126,
			"count":48,
			"type":"VEC3"
		},
		{
			"bufferView":6,
			"componentType":5126,
			"count":48,
			"type":"VEC3"
		},
		{
			"bufferView":7,
			"componentType":5123,
			"count":72,
			"type":"SCALAR"
		}
	],
	"bufferViews":[
		{
			"buffer":0,
			"byteLength":249696,
			"byteOffset":0,
			"target":34962
		},
		{
			"buffer":0,
			"byteLength":249696,
			"byteOffset":249696,
			"target":34962
		},
		{
			"buffer":0,
			"byteLength":249696,
			"byteOffset":499392,
			"target":34962
		},
		{
			"buffer":0,
			"byteLength":57000,
			"byteOffset":749088,
			"target":34963
		},
		{
			"buffer":0,
			"byteLength":576,
			"byteOffset":806088,
			"target":34962
		},
		{
			"buffer":0,
			"byteLength":576,
			"byteOffset":806664,
			"target":34962
		},
		{
			"buffer":0,
			"byteLength":576,
			"byteOffset":807240,
			"target":34962
		},
		{
			"buffer":0,
			"byteLength":144,
			"byteOffset":807816,
			"target":34963
		}
	],
	"buffers":[
		{
			"byteLength":807960,
			"uri":"turm_spaeher_2.bin"
		}
	]
}
