{
	"asset":{
		"generator":"Khronos glTF Blender I/O v5.2.40",
		"version":"2.0"
	},
	"extensionsUsed":[
		"KHR_materials_emissive_strength"
	],
	"scene":0,
	"scenes":[
		{
			"name":"Scene",
			"nodes":[
				0
			]
		}
	],
	"nodes":[
		{
			"mesh":0,
			"name":"Turm_arkan_3"
		}
	],
	"materials":[
		{
			"doubleSided":true,
			"name":"Vorkommen",
			"pbrMetallicRoughness":{
				"metallicFactor":0,
				"roughnessFactor":0.8500000238418579
			}
		},
		{
			"doubleSided":true,
			"emissiveFactor":[
				1,
				0.43415364623069763,
				0.0802198201417923
			],
			"extensions":{
				"KHR_materials_emissive_strength":{
					"emissiveStrength":2.200000047683716
				}
			},
			"name":"Turm_arkan_3Leuchten",
			"pbrMetallicRoughness":{
				"metallicFactor":0,
				"roughnessFactor":0.5
			}
		}
	],
	"meshes":[
		{
			"name":"Turm_arkan_3",
			"primitives":[
				{
					"attributes":{
						"POSITION":0,
						"NORMAL":1,
						"COLOR_0":2
					},
					"indices":3,
					"material":0
				},
				{
					"attributes":{
						"POSITION":4,
						"NORMAL":5,
						"COLOR_0":6
					},
					"indices":7,
					"material":1
				}
			]
		}
	],
	"accessors":[
		{
			"bufferView":0,
			"componentType":5126,
			"count":20616,
			"max":[
				2.2119367122650146,
				8.819999694824219,
				2.211801290512085
			],
			"min":[
				-2.2604730129241943,
				-0.6000000238418579,
				-2.260533094406128
			],
			"type":"VEC3"
		},
		{
			"bufferView":1,
			"componentType":5126,
			"count":20616,
			"type":"VEC3"
		},
		{
			"bufferView":2,
			"componentType":5126,
			"count":20616,
			"type":"VEC3"
		},
		{
			"bufferView":3,
			"componentType":5123,
			"count":27732,
			"type":"SCALAR"
		},
		{
			"bufferView":4,
			"componentType":5126,
			"count":1536,
			"max":[
				1.9500000476837158,
				7.052600383758545,
				1.949857234954834
			],
			"min":[
				-1.8904691934585571,
				1.3528883457183838,
				-1.9498573541641235
			],
			"type":"VEC3"
		},
		{
			"bufferView":5,
			"componentType":5126,
			"count":1536,
			"type":"VEC3"
		},
		{
			"bufferView":6,
			"componentType":5126,
			"count":1536,
			"type":"VEC3"
		},
		{
			"bufferView":7,
			"componentType":5123,
			"count":2160,
			"type":"SCALAR"
		}
	],
	"bufferViews":[
		{
			"buffer":0,
			"byteLength":247392,
			"byteOffset":0,
			"target":34962
		},
		{
			"buffer":0,
			"byteLength":247392,
			"byteOffset":247392,
			"target":34962
		},
		{
			"buffer":0,
			"byteLength":247392,
			"byteOffset":494784,
			"target":34962
		},
		{
			"buffer":0,
			"byteLength":55464,
			"byteOffset":742176,
			"target":34963
		},
		{
			"buffer":0,
			"byteLength":18432,
			"byteOffset":797640,
			"target":34962
		},
		{
			"buffer":0,
			"byteLength":18432,
			"byteOffset":816072,
			"target":34962
		},
		{
			"buffer":0,
			"byteLength":18432,
			"byteOffset":834504,
			"target":34962
		},
		{
			"buffer":0,
			"byteLength":4320,
			"byteOffset":852936,
			"target":34963
		}
	],
	"buffers":[
		{
			"byteLength":857256,
			"uri":"turm_arkan_3.bin"
		}
	]
}
