{
	"asset":{
		"generator":"Khronos glTF Blender I/O v5.2.40",
		"version":"2.0"
	},
	"extensionsUsed":[
		"KHR_materials_emissive_strength"
	],
	"scene":0,
	"scenes":[
		{
			"name":"Scene",
			"nodes":[
				0
			]
		}
	],
	"nodes":[
		{
			"mesh":0,
			"name":"Turm_feuer_1"
		}
	],
	"materials":[
		{
			"doubleSided":true,
			"name":"Burg",
			"pbrMetallicRoughness":{
				"metallicFactor":0,
				"roughnessFactor":0.8999999761581421
			}
		},
		{
			"doubleSided":true,
			"emissiveFactor":[
				1,
				0.7605245113372803,
				0.3915724754333496
			],
			"extensions":{
				"KHR_materials_emissive_strength":{
					"emissiveStrength":2
				}
			},
			"name":"Turm_feuer_1Glas",
			"pbrMetallicRoughness":{
				"metallicFactor":0,
				"roughnessFactor":0.5
			}
		}
	],
	"meshes":[
		{
			"name":"Turm_feuer_1",
			"primitives":[
				{
					"attributes":{
						"POSITION":0,
						"NORMAL":1,
						"TEXCOORD_0":2,
						"COLOR_0":3
					},
					"indices":4,
					"material":0
				},
				{
					"attributes":{
						"POSITION":5,
						"NORMAL":6,
						"TEXCOORD_0":7,
						"COLOR_0":8
					},
					"indices":9,
					"material":1
				}
			]
		}
	],
	"accessors":[
		{
			"bufferView":0,
			"componentType":5126,
			"count":384,
			"max":[
				1.8625411987304688,
				4.899999618530273,
				1.8625411987304688
			],
			"min":[
				-1.8625411987304688,
				-0.6000000238418579,
				-1.8625411987304688
			],
			"type":"VEC3"
		},
		{
			"bufferView":1,
			"componentType":5126,
			"count":384,
			"type":"VEC3"
		},
		{
			"bufferView":2,
			"componentType":5126,
			"count":384,
			"type":"VEC2"
		},
		{
			"bufferView":3,
			"componentType":5126,
			"count":384,
			"type":"VEC3"
		},
		{
			"bufferView":4,
			"componentType":5123,
			"count":624,
			"type":"SCALAR"
		},
		{
			"bufferView":5,
			"componentType":5126,
			"count":96,
			"max":[
				1.0818734169006348,
				2.8000001907348633,
				1.0818732976913452
			],
			"min":[
				-1.0818734169006348,
				1.600000023841858,
				-1.0818732976913452
			],
			"type":"VEC3"
		},
		{
			"bufferView":6,
			"componentType":5126,
			"count":96,
			"type":"VEC3"
		},
		{
			"bufferView":7,
			"componentType":5126,
			"count":96,
			"type":"VEC2"
		},
		{
			"bufferView":8,
			"componentType":5126,
			"count":96,
			"type":"VEC3"
		},
		{
			"bufferView":9,
			"componentType":5123,
			"count":144,
			"type":"SCALAR"
		}
	],
	"bufferViews":[
		{
			"buffer":0,
			"byteLength":4608,
			"byteOffset":0,
			"target":34962
		},
		{
			"buffer":0,
			"byteLength":4608,
			"byteOffset":4608,
			"target":34962
		},
		{
			"buffer":0,
			"byteLength":3072,
			"byteOffset":9216,
			"target":34962
		},
		{
			"buffer":0,
			"byteLength":4608,
			"byteOffset":12288,
			"target":34962
		},
		{
			"buffer":0,
			"byteLength":1248,
			"byteOffset":16896,
			"target":34963
		},
		{
			"buffer":0,
			"byteLength":1152,
			"byteOffset":18144,
			"target":34962
		},
		{
			"buffer":0,
			"byteLength":1152,
			"byteOffset":19296,
			"target":34962
		},
		{
			"buffer":0,
			"byteLength":768,
			"byteOffset":20448,
			"target":34962
		},
		{
			"buffer":0,
			"byteLength":1152,
			"byteOffset":21216,
			"target":34962
		},
		{
			"buffer":0,
			"byteLength":288,
			"byteOffset":22368,
			"target":34963
		}
	],
	"buffers":[
		{
			"byteLength":22656,
			"uri":"turm_feuer_1.bin"
		}
	]
}
