{
	"asset":{
		"generator":"Khronos glTF Blender I/O v5.2.40",
		"version":"2.0"
	},
	"extensionsUsed":[
		"KHR_materials_emissive_strength"
	],
	"scene":0,
	"scenes":[
		{
			"name":"Scene",
			"nodes":[
				0
			]
		}
	],
	"nodes":[
		{
			"mesh":0,
			"name":"Kopf_gift"
		}
	],
	"materials":[
		{
			"doubleSided":true,
			"name":"Burg",
			"pbrMetallicRoughness":{
				"metallicFactor":0,
				"roughnessFactor":0.8999999761581421
			}
		},
		{
			"doubleSided":true,
			"emissiveFactor":[
				1,
				0.7605245113372803,
				0.3915724754333496
			],
			"extensions":{
				"KHR_materials_emissive_strength":{
					"emissiveStrength":2.5
				}
			},
			"name":"Kopf_giftGlas",
			"pbrMetallicRoughness":{
				"metallicFactor":0,
				"roughnessFactor":0.5
			}
		}
	],
	"meshes":[
		{
			"name":"Kopf_gift",
			"primitives":[
				{
					"attributes":{
						"POSITION":0,
						"NORMAL":1,
						"TEXCOORD_0":2,
						"COLOR_0":3
					},
					"indices":4,
					"material":0
				},
				{
					"attributes":{
						"POSITION":5,
						"NORMAL":6,
						"TEXCOORD_0":7,
						"COLOR_0":8
					},
					"indices":9,
					"material":1
				}
			]
		}
	],
	"accessors":[
		{
			"bufferView":0,
			"componentType":5126,
			"count":340,
			"max":[
				0.7200000286102295,
				1.2905255556106567,
				1.379422903060913
			],
			"min":[
				-0.7200000286102295,
				0,
				-0.6847606897354126
			],
			"type":"VEC3"
		},
		{
			"bufferView":1,
			"componentType":5126,
			"count":340,
			"type":"VEC3"
		},
		{
			"bufferView":2,
			"componentType":5126,
			"count":340,
			"type":"VEC2"
		},
		{
			"bufferView":3,
			"componentType":5126,
			"count":340,
			"type":"VEC3"
		},
		{
			"bufferView":4,
			"componentType":5123,
			"count":546,
			"type":"SCALAR"
		},
		{
			"bufferView":5,
			"componentType":5126,
			"count":240,
			"max":[
				0.5325916409492493,
				1.2599999904632568,
				0.5600000023841858
			],
			"min":[
				-0.5325916409492493,
				1.0499999523162842,
				-0.5600000023841858
			],
			"type":"VEC3"
		},
		{
			"bufferView":6,
			"componentType":5126,
			"count":240,
			"type":"VEC3"
		},
		{
			"bufferView":7,
			"componentType":5126,
			"count":240,
			"type":"VEC2"
		},
		{
			"bufferView":8,
			"componentType":5126,
			"count":240,
			"type":"VEC3"
		},
		{
			"bufferView":9,
			"componentType":5123,
			"count":288,
			"type":"SCALAR"
		}
	],
	"bufferViews":[
		{
			"buffer":0,
			"byteLength":4080,
			"byteOffset":0,
			"target":34962
		},
		{
			"buffer":0,
			"byteLength":4080,
			"byteOffset":4080,
			"target":34962
		},
		{
			"buffer":0,
			"byteLength":2720,
			"byteOffset":8160,
			"target":34962
		},
		{
			"buffer":0,
			"byteLength":4080,
			"byteOffset":10880,
			"target":34962
		},
		{
			"buffer":0,
			"byteLength":1092,
			"byteOffset":14960,
			"target":34963
		},
		{
			"buffer":0,
			"byteLength":2880,
			"byteOffset":16052,
			"target":34962
		},
		{
			"buffer":0,
			"byteLength":2880,
			"byteOffset":18932,
			"target":34962
		},
		{
			"buffer":0,
			"byteLength":1920,
			"byteOffset":21812,
			"target":34962
		},
		{
			"buffer":0,
			"byteLength":2880,
			"byteOffset":23732,
			"target":34962
		},
		{
			"buffer":0,
			"byteLength":576,
			"byteOffset":26612,
			"target":34963
		}
	],
	"buffers":[
		{
			"byteLength":27188,
			"uri":"turm_gift_kopf.bin"
		}
	]
}
