{
	"asset":{
		"generator":"Khronos glTF Blender I/O v5.2.40",
		"version":"2.0"
	},
	"extensionsUsed":[
		"KHR_materials_emissive_strength"
	],
	"scene":0,
	"scenes":[
		{
			"name":"Scene",
			"nodes":[
				0
			]
		}
	],
	"nodes":[
		{
			"mesh":0,
			"name":"Kopf_arkan"
		}
	],
	"materials":[
		{
			"doubleSided":true,
			"name":"Burg",
			"pbrMetallicRoughness":{
				"metallicFactor":0,
				"roughnessFactor":0.8999999761581421
			}
		},
		{
			"doubleSided":true,
			"emissiveFactor":[
				1,
				0.7605245113372803,
				0.3915724754333496
			],
			"extensions":{
				"KHR_materials_emissive_strength":{
					"emissiveStrength":2.5
				}
			},
			"name":"Kopf_arkanGlas",
			"pbrMetallicRoughness":{
				"metallicFactor":0,
				"roughnessFactor":0.5
			}
		}
	],
	"meshes":[
		{
			"name":"Kopf_arkan",
			"primitives":[
				{
					"attributes":{
						"POSITION":0,
						"NORMAL":1,
						"TEXCOORD_0":2,
						"COLOR_0":3
					},
					"indices":4,
					"material":0
				},
				{
					"attributes":{
						"POSITION":5,
						"NORMAL":6,
						"TEXCOORD_0":7,
						"COLOR_0":8
					},
					"indices":9,
					"material":1
				}
			]
		}
	],
	"accessors":[
		{
			"bufferView":0,
			"componentType":5126,
			"count":816,
			"max":[
				0.699999988079071,
				1.4716506004333496,
				0.629801332950592
			],
			"min":[
				-0.7000000476837158,
				0,
				-0.629801332950592
			],
			"type":"VEC3"
		},
		{
			"bufferView":1,
			"componentType":5126,
			"count":816,
			"type":"VEC3"
		},
		{
			"bufferView":2,
			"componentType":5126,
			"count":816,
			"type":"VEC2"
		},
		{
			"bufferView":3,
			"componentType":5126,
			"count":816,
			"type":"VEC3"
		},
		{
			"bufferView":4,
			"componentType":5123,
			"count":1236,
			"type":"SCALAR"
		},
		{
			"bufferView":5,
			"componentType":5126,
			"count":420,
			"max":[
				0.699999988079071,
				1.8000000715255737,
				0.25980761647224426
			],
			"min":[
				-0.7000000476837158,
				0.4000000059604645,
				-0.25980761647224426
			],
			"type":"VEC3"
		},
		{
			"bufferView":6,
			"componentType":5126,
			"count":420,
			"type":"VEC3"
		},
		{
			"bufferView":7,
			"componentType":5126,
			"count":420,
			"type":"VEC2"
		},
		{
			"bufferView":8,
			"componentType":5126,
			"count":420,
			"type":"VEC3"
		},
		{
			"bufferView":9,
			"componentType":5123,
			"count":612,
			"type":"SCALAR"
		}
	],
	"bufferViews":[
		{
			"buffer":0,
			"byteLength":9792,
			"byteOffset":0,
			"target":34962
		},
		{
			"buffer":0,
			"byteLength":9792,
			"byteOffset":9792,
			"target":34962
		},
		{
			"buffer":0,
			"byteLength":6528,
			"byteOffset":19584,
			"target":34962
		},
		{
			"buffer":0,
			"byteLength":9792,
			"byteOffset":26112,
			"target":34962
		},
		{
			"buffer":0,
			"byteLength":2472,
			"byteOffset":35904,
			"target":34963
		},
		{
			"buffer":0,
			"byteLength":5040,
			"byteOffset":38376,
			"target":34962
		},
		{
			"buffer":0,
			"byteLength":5040,
			"byteOffset":43416,
			"target":34962
		},
		{
			"buffer":0,
			"byteLength":3360,
			"byteOffset":48456,
			"target":34962
		},
		{
			"buffer":0,
			"byteLength":5040,
			"byteOffset":51816,
			"target":34962
		},
		{
			"buffer":0,
			"byteLength":1224,
			"byteOffset":56856,
			"target":34963
		}
	],
	"buffers":[
		{
			"byteLength":58080,
			"uri":"turm_arkan_kopf.bin"
		}
	]
}
