{
	"asset":{
		"generator":"Khronos glTF Blender I/O v5.2.40",
		"version":"2.0"
	},
	"extensionsUsed":[
		"KHR_materials_emissive_strength"
	],
	"scene":0,
	"scenes":[
		{
			"name":"Scene",
			"nodes":[
				0
			]
		}
	],
	"nodes":[
		{
			"mesh":0,
			"name":"Turm_blitz_1"
		}
	],
	"materials":[
		{
			"doubleSided":true,
			"name":"Burg",
			"pbrMetallicRoughness":{
				"metallicFactor":0,
				"roughnessFactor":0.8999999761581421
			}
		},
		{
			"doubleSided":true,
			"emissiveFactor":[
				1,
				0.7605245113372803,
				0.3915724754333496
			],
			"extensions":{
				"KHR_materials_emissive_strength":{
					"emissiveStrength":2
				}
			},
			"name":"Turm_blitz_1Glas",
			"pbrMetallicRoughness":{
				"metallicFactor":0,
				"roughnessFactor":0.5
			}
		}
	],
	"meshes":[
		{
			"name":"Turm_blitz_1",
			"primitives":[
				{
					"attributes":{
						"POSITION":0,
						"NORMAL":1,
						"TEXCOORD_0":2,
						"COLOR_0":3
					},
					"indices":4,
					"material":0
				},
				{
					"attributes":{
						"POSITION":5,
						"NORMAL":6,
						"TEXCOORD_0":7,
						"COLOR_0":8
					},
					"indices":9,
					"material":1
				}
			]
		}
	],
	"accessors":[
		{
			"bufferView":0,
			"componentType":5126,
			"count":588,
			"max":[
				1.6555922031402588,
				4.199999809265137,
				1.6555922031402588
			],
			"min":[
				-1.6555922031402588,
				-0.6000000238418579,
				-1.6555922031402588
			],
			"type":"VEC3"
		},
		{
			"bufferView":1,
			"componentType":5126,
			"count":588,
			"type":"VEC3"
		},
		{
			"bufferView":2,
			"componentType":5126,
			"count":588,
			"type":"VEC2"
		},
		{
			"bufferView":3,
			"componentType":5126,
			"count":588,
			"type":"VEC3"
		},
		{
			"bufferView":4,
			"componentType":5123,
			"count":1044,
			"type":"SCALAR"
		},
		{
			"bufferView":5,
			"componentType":5126,
			"count":108,
			"max":[
				1.3899999856948853,
				4.230000019073486,
				1.203775405883789
			],
			"min":[
				-0.7649999856948853,
				3.950000047683716,
				-1.203775405883789
			],
			"type":"VEC3"
		},
		{
			"bufferView":6,
			"componentType":5126,
			"count":108,
			"type":"VEC3"
		},
		{
			"bufferView":7,
			"componentType":5126,
			"count":108,
			"type":"VEC2"
		},
		{
			"bufferView":8,
			"componentType":5126,
			"count":108,
			"type":"VEC3"
		},
		{
			"bufferView":9,
			"componentType":5123,
			"count":108,
			"type":"SCALAR"
		}
	],
	"bufferViews":[
		{
			"buffer":0,
			"byteLength":7056,
			"byteOffset":0,
			"target":34962
		},
		{
			"buffer":0,
			"byteLength":7056,
			"byteOffset":7056,
			"target":34962
		},
		{
			"buffer":0,
			"byteLength":4704,
			"byteOffset":14112,
			"target":34962
		},
		{
			"buffer":0,
			"byteLength":7056,
			"byteOffset":18816,
			"target":34962
		},
		{
			"buffer":0,
			"byteLength":2088,
			"byteOffset":25872,
			"target":34963
		},
		{
			"buffer":0,
			"byteLength":1296,
			"byteOffset":27960,
			"target":34962
		},
		{
			"buffer":0,
			"byteLength":1296,
			"byteOffset":29256,
			"target":34962
		},
		{
			"buffer":0,
			"byteLength":864,
			"byteOffset":30552,
			"target":34962
		},
		{
			"buffer":0,
			"byteLength":1296,
			"byteOffset":31416,
			"target":34962
		},
		{
			"buffer":0,
			"byteLength":216,
			"byteOffset":32712,
			"target":34963
		}
	],
	"buffers":[
		{
			"byteLength":32928,
			"uri":"turm_blitz_1.bin"
		}
	]
}
