{
	"asset":{
		"generator":"Khronos glTF Blender I/O v5.2.40",
		"version":"2.0"
	},
	"extensionsUsed":[
		"KHR_materials_emissive_strength"
	],
	"scene":0,
	"scenes":[
		{
			"name":"Scene",
			"nodes":[
				0
			]
		}
	],
	"nodes":[
		{
			"mesh":0,
			"name":"Turm_sonne_1"
		}
	],
	"materials":[
		{
			"doubleSided":true,
			"name":"Burg",
			"pbrMetallicRoughness":{
				"metallicFactor":0,
				"roughnessFactor":0.8999999761581421
			}
		},
		{
			"doubleSided":true,
			"emissiveFactor":[
				1,
				0.7605245113372803,
				0.3915724754333496
			],
			"extensions":{
				"KHR_materials_emissive_strength":{
					"emissiveStrength":2
				}
			},
			"name":"Turm_sonne_1Glas",
			"pbrMetallicRoughness":{
				"metallicFactor":0,
				"roughnessFactor":0.5
			}
		}
	],
	"meshes":[
		{
			"name":"Turm_sonne_1",
			"primitives":[
				{
					"attributes":{
						"POSITION":0,
						"NORMAL":1,
						"TEXCOORD_0":2,
						"COLOR_0":3
					},
					"indices":4,
					"material":0
				},
				{
					"attributes":{
						"POSITION":5,
						"NORMAL":6,
						"TEXCOORD_0":7,
						"COLOR_0":8
					},
					"indices":9,
					"material":1
				}
			]
		}
	],
	"accessors":[
		{
			"bufferView":0,
			"componentType":5126,
			"count":864,
			"max":[
				1.7590667009353638,
				4.21999979019165,
				1.7590667009353638
			],
			"min":[
				-1.7590667009353638,
				-0.6000000238418579,
				-1.7590667009353638
			],
			"type":"VEC3"
		},
		{
			"bufferView":1,
			"componentType":5126,
			"count":864,
			"type":"VEC3"
		},
		{
			"bufferView":2,
			"componentType":5126,
			"count":864,
			"type":"VEC2"
		},
		{
			"bufferView":3,
			"componentType":5126,
			"count":864,
			"type":"VEC3"
		},
		{
			"bufferView":4,
			"componentType":5123,
			"count":1524,
			"type":"SCALAR"
		},
		{
			"bufferView":5,
			"componentType":5126,
			"count":120,
			"max":[
				1.004091739654541,
				3,
				1.0040916204452515
			],
			"min":[
				-1.004091739654541,
				2.200000047683716,
				-1.0040916204452515
			],
			"type":"VEC3"
		},
		{
			"bufferView":6,
			"componentType":5126,
			"count":120,
			"type":"VEC3"
		},
		{
			"bufferView":7,
			"componentType":5126,
			"count":120,
			"type":"VEC2"
		},
		{
			"bufferView":8,
			"componentType":5126,
			"count":120,
			"type":"VEC3"
		},
		{
			"bufferView":9,
			"componentType":5123,
			"count":192,
			"type":"SCALAR"
		}
	],
	"bufferViews":[
		{
			"buffer":0,
			"byteLength":10368,
			"byteOffset":0,
			"target":34962
		},
		{
			"buffer":0,
			"byteLength":10368,
			"byteOffset":10368,
			"target":34962
		},
		{
			"buffer":0,
			"byteLength":6912,
			"byteOffset":20736,
			"target":34962
		},
		{
			"buffer":0,
			"byteLength":10368,
			"byteOffset":27648,
			"target":34962
		},
		{
			"buffer":0,
			"byteLength":3048,
			"byteOffset":38016,
			"target":34963
		},
		{
			"buffer":0,
			"byteLength":1440,
			"byteOffset":41064,
			"target":34962
		},
		{
			"buffer":0,
			"byteLength":1440,
			"byteOffset":42504,
			"target":34962
		},
		{
			"buffer":0,
			"byteLength":960,
			"byteOffset":43944,
			"target":34962
		},
		{
			"buffer":0,
			"byteLength":1440,
			"byteOffset":44904,
			"target":34962
		},
		{
			"buffer":0,
			"byteLength":384,
			"byteOffset":46344,
			"target":34963
		}
	],
	"buffers":[
		{
			"byteLength":46728,
			"uri":"turm_sonne_1.bin"
		}
	]
}
