{
	"asset":{
		"generator":"Khronos glTF Blender I/O v5.2.40",
		"version":"2.0"
	},
	"extensionsUsed":[
		"KHR_materials_emissive_strength"
	],
	"scene":0,
	"scenes":[
		{
			"name":"Scene",
			"nodes":[
				0
			]
		}
	],
	"nodes":[
		{
			"mesh":0,
			"name":"Kopf_frost"
		}
	],
	"materials":[
		{
			"doubleSided":true,
			"name":"Burg",
			"pbrMetallicRoughness":{
				"metallicFactor":0,
				"roughnessFactor":0.8999999761581421
			}
		},
		{
			"doubleSided":true,
			"emissiveFactor":[
				1,
				0.7605245113372803,
				0.3915724754333496
			],
			"extensions":{
				"KHR_materials_emissive_strength":{
					"emissiveStrength":2.5
				}
			},
			"name":"Kopf_frostGlas",
			"pbrMetallicRoughness":{
				"metallicFactor":0,
				"roughnessFactor":0.5
			}
		}
	],
	"meshes":[
		{
			"name":"Kopf_frost",
			"primitives":[
				{
					"attributes":{
						"POSITION":0,
						"NORMAL":1,
						"TEXCOORD_0":2,
						"COLOR_0":3
					},
					"indices":4,
					"material":0
				},
				{
					"attributes":{
						"POSITION":5,
						"NORMAL":6,
						"TEXCOORD_0":7,
						"COLOR_0":8
					},
					"indices":9,
					"material":1
				}
			]
		}
	],
	"accessors":[
		{
			"bufferView":0,
			"componentType":5126,
			"count":48,
			"max":[
				0.550000011920929,
				0.25,
				0.550000011920929
			],
			"min":[
				-0.550000011920929,
				0,
				-0.550000011920929
			],
			"type":"VEC3"
		},
		{
			"bufferView":1,
			"componentType":5126,
			"count":48,
			"type":"VEC3"
		},
		{
			"bufferView":2,
			"componentType":5126,
			"count":48,
			"type":"VEC2"
		},
		{
			"bufferView":3,
			"componentType":5126,
			"count":48,
			"type":"VEC3"
		},
		{
			"bufferView":4,
			"componentType":5123,
			"count":84,
			"type":"SCALAR"
		},
		{
			"bufferView":5,
			"componentType":5126,
			"count":156,
			"max":[
				0.508030116558075,
				2.0999999046325684,
				0.497904509305954
			],
			"min":[
				-0.49918049573898315,
				0.18278998136520386,
				-0.497904509305954
			],
			"type":"VEC3"
		},
		{
			"bufferView":6,
			"componentType":5126,
			"count":156,
			"type":"VEC3"
		},
		{
			"bufferView":7,
			"componentType":5126,
			"count":156,
			"type":"VEC2"
		},
		{
			"bufferView":8,
			"componentType":5126,
			"count":156,
			"type":"VEC3"
		},
		{
			"bufferView":9,
			"componentType":5123,
			"count":180,
			"type":"SCALAR"
		}
	],
	"bufferViews":[
		{
			"buffer":0,
			"byteLength":576,
			"byteOffset":0,
			"target":34962
		},
		{
			"buffer":0,
			"byteLength":576,
			"byteOffset":576,
			"target":34962
		},
		{
			"buffer":0,
			"byteLength":384,
			"byteOffset":1152,
			"target":34962
		},
		{
			"buffer":0,
			"byteLength":576,
			"byteOffset":1536,
			"target":34962
		},
		{
			"buffer":0,
			"byteLength":168,
			"byteOffset":2112,
			"target":34963
		},
		{
			"buffer":0,
			"byteLength":1872,
			"byteOffset":2280,
			"target":34962
		},
		{
			"buffer":0,
			"byteLength":1872,
			"byteOffset":4152,
			"target":34962
		},
		{
			"buffer":0,
			"byteLength":1248,
			"byteOffset":6024,
			"target":34962
		},
		{
			"buffer":0,
			"byteLength":1872,
			"byteOffset":7272,
			"target":34962
		},
		{
			"buffer":0,
			"byteLength":360,
			"byteOffset":9144,
			"target":34963
		}
	],
	"buffers":[
		{
			"byteLength":9504,
			"uri":"turm_frost_kopf.bin"
		}
	]
}
