{
	"asset":{
		"generator":"Khronos glTF Blender I/O v5.2.40",
		"version":"2.0"
	},
	"scene":0,
	"scenes":[
		{
			"name":"Scene",
			"nodes":[
				0
			]
		}
	],
	"nodes":[
		{
			"mesh":0,
			"name":"Turm_katapult_3"
		}
	],
	"materials":[
		{
			"doubleSided":true,
			"name":"Vorkommen",
			"pbrMetallicRoughness":{
				"metallicFactor":0,
				"roughnessFactor":0.8500000238418579
			}
		}
	],
	"meshes":[
		{
			"name":"Turm_katapult_3",
			"primitives":[
				{
					"attributes":{
						"POSITION":0,
						"NORMAL":1,
						"COLOR_0":2
					},
					"indices":3,
					"material":0
				}
			]
		}
	],
	"accessors":[
		{
			"bufferView":0,
			"componentType":5126,
			"count":34494,
			"max":[
				2.75,
				9.420000076293945,
				2.7850000858306885
			],
			"min":[
				-2.5500001907348633,
				-0.6000000238418579,
				-2.5500001907348633
			],
			"type":"VEC3"
		},
		{
			"bufferView":1,
			"componentType":5126,
			"count":34494,
			"type":"VEC3"
		},
		{
			"bufferView":2,
			"componentType":5126,
			"count":34494,
			"type":"VEC3"
		},
		{
			"bufferView":3,
			"componentType":5123,
			"count":47232,
			"type":"SCALAR"
		}
	],
	"bufferViews":[
		{
			"buffer":0,
			"byteLength":413928,
			"byteOffset":0,
			"target":34962
		},
		{
			"buffer":0,
			"byteLength":413928,
			"byteOffset":413928,
			"target":34962
		},
		{
			"buffer":0,
			"byteLength":413928,
			"byteOffset":827856,
			"target":34962
		},
		{
			"buffer":0,
			"byteLength":94464,
			"byteOffset":1241784,
			"target":34963
		}
	],
	"buffers":[
		{
			"byteLength":1336248,
			"uri":"turm_katapult_3.bin"
		}
	]
}
