{
	"asset":{
		"generator":"Khronos glTF Blender I/O v5.2.40",
		"version":"2.0"
	},
	"extensionsUsed":[
		"KHR_materials_emissive_strength"
	],
	"scene":0,
	"scenes":[
		{
			"name":"Scene",
			"nodes":[
				0
			]
		}
	],
	"nodes":[
		{
			"mesh":0,
			"name":"Turm_blitz_2"
		}
	],
	"materials":[
		{
			"doubleSided":true,
			"name":"Vorkommen",
			"pbrMetallicRoughness":{
				"metallicFactor":0,
				"roughnessFactor":0.8500000238418579
			}
		},
		{
			"doubleSided":true,
			"emissiveFactor":[
				1,
				0.43415364623069763,
				0.0802198201417923
			],
			"extensions":{
				"KHR_materials_emissive_strength":{
					"emissiveStrength":2.200000047683716
				}
			},
			"name":"Turm_blitz_2Leuchten",
			"pbrMetallicRoughness":{
				"metallicFactor":0,
				"roughnessFactor":0.5
			}
		}
	],
	"meshes":[
		{
			"name":"Turm_blitz_2",
			"primitives":[
				{
					"attributes":{
						"POSITION":0,
						"NORMAL":1,
						"COLOR_0":2
					},
					"indices":3,
					"material":0
				},
				{
					"attributes":{
						"POSITION":4,
						"NORMAL":5,
						"COLOR_0":6
					},
					"indices":7,
					"material":1
				}
			]
		}
	],
	"accessors":[
		{
			"bufferView":0,
			"componentType":5126,
			"count":19076,
			"max":[
				2.063084363937378,
				6.099999904632568,
				2.169778823852539
			],
			"min":[
				-2.020688056945801,
				-0.6000000238418579,
				-2.126511573791504
			],
			"type":"VEC3"
		},
		{
			"bufferView":1,
			"componentType":5126,
			"count":19076,
			"type":"VEC3"
		},
		{
			"bufferView":2,
			"componentType":5126,
			"count":19076,
			"type":"VEC3"
		},
		{
			"bufferView":3,
			"componentType":5123,
			"count":25956,
			"type":"SCALAR"
		},
		{
			"bufferView":4,
			"componentType":5126,
			"count":240,
			"max":[
				1.559999942779541,
				6.160000324249268,
				1.3724355697631836
			],
			"min":[
				-0.8600000143051147,
				5.800000190734863,
				-1.3724355697631836
			],
			"type":"VEC3"
		},
		{
			"bufferView":5,
			"componentType":5126,
			"count":240,
			"type":"VEC3"
		},
		{
			"bufferView":6,
			"componentType":5126,
			"count":240,
			"type":"VEC3"
		},
		{
			"bufferView":7,
			"componentType":5123,
			"count":288,
			"type":"SCALAR"
		}
	],
	"bufferViews":[
		{
			"buffer":0,
			"byteLength":228912,
			"byteOffset":0,
			"target":34962
		},
		{
			"buffer":0,
			"byteLength":228912,
			"byteOffset":228912,
			"target":34962
		},
		{
			"buffer":0,
			"byteLength":228912,
			"byteOffset":457824,
			"target":34962
		},
		{
			"buffer":0,
			"byteLength":51912,
			"byteOffset":686736,
			"target":34963
		},
		{
			"buffer":0,
			"byteLength":2880,
			"byteOffset":738648,
			"target":34962
		},
		{
			"buffer":0,
			"byteLength":2880,
			"byteOffset":741528,
			"target":34962
		},
		{
			"buffer":0,
			"byteLength":2880,
			"byteOffset":744408,
			"target":34962
		},
		{
			"buffer":0,
			"byteLength":576,
			"byteOffset":747288,
			"target":34963
		}
	],
	"buffers":[
		{
			"byteLength":747864,
			"uri":"turm_blitz_2.bin"
		}
	]
}
