{
	"asset":{
		"generator":"Khronos glTF Blender I/O v5.2.40",
		"version":"2.0"
	},
	"scene":0,
	"scenes":[
		{
			"name":"Scene",
			"nodes":[
				13
			]
		}
	],
	"nodes":[
		{
			"name":"Bein.HL.unten",
			"rotation":[
				-0.070407934486866,
				9.89261479844572e-06,
				0.011902290396392345,
				0.9974473118782043
			],
			"scale":[
				0.9999999403953552,
				1,
				0.9999999403953552
			],
			"translation":[
				-4.6631704719857225e-08,
				0.4211861491203308,
				-2.200249582529068e-08
			]
		},
		{
			"children":[
				0
			],
			"name":"Bein.HL.oben",
			"rotation":[
				0.008416307158768177,
				-0.654891312122345,
				0.7556293606758118,
				0.008416365832090378
			],
			"scale":[
				1,
				0.9999998211860657,
				1
			],
			"translation":[
				-0.23000001907348633,
				0.016386650502681732,
				-0.05129743739962578
			]
		},
		{
			"name":"Bein.HR.unten",
			"rotation":[
				-0.0704079419374466,
				-9.641768883739132e-06,
				-0.011902297846972942,
				0.9974473118782043
			],
			"scale":[
				0.9999998807907104,
				1,
				0.9999998807907104
			],
			"translation":[
				1.2918734526579101e-08,
				0.42118626832962036,
				-7.177004590630531e-08
			]
		},
		{
			"children":[
				2
			],
			"name":"Bein.HR.oben",
			"rotation":[
				0.00841598492115736,
				0.6548913717269897,
				-0.755629301071167,
				0.008416130207479
			],
			"scale":[
				0.9999999403953552,
				1,
				1
			],
			"translation":[
				0.22999998927116394,
				0.016386650502681732,
				-0.051297616213560104
			]
		},
		{
			"name":"Bein.VL.unten",
			"rotation":[
				0.001097739557735622,
				3.3379203845385064e-09,
				-3.929774006206088e-10,
				0.9999994039535522
			],
			"scale":[
				1,
				0.9999999403953552,
				0.9999999403953552
			],
			"translation":[
				3.00301450373297e-11,
				0.4218977987766266,
				-7.2648491666882364e-09
			]
		},
		{
			"children":[
				4
			],
			"name":"Bein.VL.oben",
			"rotation":[
				1.3548766730764328e-07,
				-0.7154166102409363,
				0.6986982226371765,
				1.3929674480550602e-07
			],
			"scale":[
				1,
				0.9999997615814209,
				0.9999999403953552
			],
			"translation":[
				-0.24000003933906555,
				1.033794641494751,
				-0.12396890670061111
			]
		},
		{
			"name":"Bein.VR.unten",
			"rotation":[
				0.001097739557735622,
				3.3379203845385064e-09,
				-3.929774006206088e-10,
				0.9999994039535522
			],
			"scale":[
				1,
				0.9999999403953552,
				0.9999999403953552
			],
			"translation":[
				3.00301450373297e-11,
				0.4218977987766266,
				-7.63631202715942e-09
			]
		},
		{
			"children":[
				6
			],
			"name":"Bein.VR.oben",
			"rotation":[
				1.3548766730764328e-07,
				-0.7154166102409363,
				0.6986982226371765,
				1.3929674480550602e-07
			],
			"scale":[
				1,
				0.9999997615814209,
				0.9999999403953552
			],
			"translation":[
				0.2399999499320984,
				1.033794641494751,
				-0.12396909296512604
			]
		},
		{
			"name":"Kopf",
			"rotation":[
				-0.046766508370637894,
				3.572374396298983e-07,
				2.3786896008459735e-08,
				0.9989058375358582
			],
			"scale":[
				1,
				0.9999999403953552,
				1
			],
			"translation":[
				1.9344494403680454e-14,
				0.36124783754348755,
				-5.960464477539063e-08
			]
		},
		{
			"children":[
				8
			],
			"name":"Hals",
			"rotation":[
				-0.07714705914258957,
				-2.3771079327161715e-07,
				4.843586864922145e-08,
				0.9970197081565857
			],
			"scale":[
				1,
				1.0000001192092896,
				1
			],
			"translation":[
				2.6645352591003757e-14,
				1.1228535175323486,
				5.21540641784668e-08
			]
		},
		{
			"name":"Schwanz",
			"rotation":[
				1.946724808021827e-07,
				-0.019673623144626617,
				0.9998065233230591,
				3.830591399633931e-09
			],
			"scale":[
				1,
				1.0000003576278687,
				1.0000005960464478
			],
			"translation":[
				-1.1097815111327236e-08,
				-0.30280014872550964,
				-0.028498634696006775
			]
		},
		{
			"children":[
				1,
				3,
				5,
				7,
				9,
				10
			],
			"name":"Koerper",
			"rotation":[
				1.3268353882267547e-07,
				0.7318630814552307,
				0.6814517378807068,
				1.424989761744655e-07
			],
			"scale":[
				1,
				0.9999998807907104,
				1.0000064373016357
			],
			"translation":[
				0,
				0.9700000286102295,
				-0.6200000047683716
			]
		},
		{
			"mesh":0,
			"name":"BaerRealistisch",
			"skin":0
		},
		{
			"children":[
				12,
				11
			],
			"name":"BaerRealistischSkelett"
		}
	],
	"animations":[
		{
			"channels":[
				{
					"sampler":0,
					"target":{
						"node":11,
						"path":"translation"
					}
				},
				{
					"sampler":1,
					"target":{
						"node":11,
						"path":"rotation"
					}
				},
				{
					"sampler":2,
					"target":{
						"node":11,
						"path":"scale"
					}
				},
				{
					"sampler":3,
					"target":{
						"node":1,
						"path":"translation"
					}
				},
				{
					"sampler":4,
					"target":{
						"node":1,
						"path":"rotation"
					}
				},
				{
					"sampler":5,
					"target":{
						"node":1,
						"path":"scale"
					}
				},
				{
					"sampler":6,
					"target":{
						"node":0,
						"path":"translation"
					}
				},
				{
					"sampler":7,
					"target":{
						"node":0,
						"path":"rotation"
					}
				},
				{
					"sampler":8,
					"target":{
						"node":0,
						"path":"scale"
					}
				},
				{
					"sampler":9,
					"target":{
						"node":3,
						"path":"translation"
					}
				},
				{
					"sampler":10,
					"target":{
						"node":3,
						"path":"rotation"
					}
				},
				{
					"sampler":11,
					"target":{
						"node":3,
						"path":"scale"
					}
				},
				{
					"sampler":12,
					"target":{
						"node":2,
						"path":"translation"
					}
				},
				{
					"sampler":13,
					"target":{
						"node":2,
						"path":"rotation"
					}
				},
				{
					"sampler":14,
					"target":{
						"node":2,
						"path":"scale"
					}
				},
				{
					"sampler":15,
					"target":{
						"node":5,
						"path":"translation"
					}
				},
				{
					"sampler":16,
					"target":{
						"node":5,
						"path":"rotation"
					}
				},
				{
					"sampler":17,
					"target":{
						"node":5,
						"path":"scale"
					}
				},
				{
					"sampler":18,
					"target":{
						"node":4,
						"path":"translation"
					}
				},
				{
					"sampler":19,
					"target":{
						"node":4,
						"path":"rotation"
					}
				},
				{
					"sampler":20,
					"target":{
						"node":4,
						"path":"scale"
					}
				},
				{
					"sampler":21,
					"target":{
						"node":7,
						"path":"translation"
					}
				},
				{
					"sampler":22,
					"target":{
						"node":7,
						"path":"rotation"
					}
				},
				{
					"sampler":23,
					"target":{
						"node":7,
						"path":"scale"
					}
				},
				{
					"sampler":24,
					"target":{
						"node":6,
						"path":"translation"
					}
				},
				{
					"sampler":25,
					"target":{
						"node":6,
						"path":"rotation"
					}
				},
				{
					"sampler":26,
					"target":{
						"node":6,
						"path":"scale"
					}
				},
				{
					"sampler":27,
					"target":{
						"node":9,
						"path":"translation"
					}
				},
				{
					"sampler":28,
					"target":{
						"node":9,
						"path":"rotation"
					}
				},
				{
					"sampler":29,
					"target":{
						"node":9,
						"path":"scale"
					}
				},
				{
					"sampler":30,
					"target":{
						"node":8,
						"path":"translation"
					}
				},
				{
					"sampler":31,
					"target":{
						"node":8,
						"path":"rotation"
					}
				},
				{
					"sampler":32,
					"target":{
						"node":8,
						"path":"scale"
					}
				},
				{
					"sampler":33,
					"target":{
						"node":10,
						"path":"translation"
					}
				},
				{
					"sampler":34,
					"target":{
						"node":10,
						"path":"rotation"
					}
				},
				{
					"sampler":35,
					"target":{
						"node":10,
						"path":"scale"
					}
				}
			],
			"name":"Idle",
			"samplers":[
				{
					"input":7,
					"interpolation":"LINEAR",
					"output":8
				},
				{
					"input":9,
					"interpolation":"STEP",
					"output":10
				},
				{
					"input":9,
					"interpolation":"STEP",
					"output":11
				},
				{
					"input":9,
					"interpolation":"STEP",
					"output":12
				},
				{
					"input":9,
					"interpolation":"STEP",
					"output":13
				},
				{
					"input":9,
					"interpolation":"STEP",
					"output":14
				},
				{
					"input":9,
					"interpolation":"STEP",
					"output":15
				},
				{
					"input":9,
					"interpolation":"STEP",
					"output":16
				},
				{
					"input":9,
					"interpolation":"STEP",
					"output":17
				},
				{
					"input":9,
					"interpolation":"STEP",
					"output":18
				},
				{
					"input":9,
					"interpolation":"STEP",
					"output":19
				},
				{
					"input":9,
					"interpolation":"STEP",
					"output":20
				},
				{
					"input":9,
					"interpolation":"STEP",
					"output":21
				},
				{
					"input":9,
					"interpolation":"STEP",
					"output":22
				},
				{
					"input":9,
					"interpolation":"STEP",
					"output":23
				},
				{
					"input":9,
					"interpolation":"STEP",
					"output":24
				},
				{
					"input":9,
					"interpolation":"STEP",
					"output":25
				},
				{
					"input":9,
					"interpolation":"STEP",
					"output":26
				},
				{
					"input":9,
					"interpolation":"STEP",
					"output":27
				},
				{
					"input":9,
					"interpolation":"STEP",
					"output":28
				},
				{
					"input":9,
					"interpolation":"STEP",
					"output":14
				},
				{
					"input":9,
					"interpolation":"STEP",
					"output":29
				},
				{
					"input":9,
					"interpolation":"STEP",
					"output":25
				},
				{
					"input":9,
					"interpolation":"STEP",
					"output":26
				},
				{
					"input":9,
					"interpolation":"STEP",
					"output":30
				},
				{
					"input":9,
					"interpolation":"STEP",
					"output":28
				},
				{
					"input":9,
					"interpolation":"STEP",
					"output":14
				},
				{
					"input":9,
					"interpolation":"STEP",
					"output":31
				},
				{
					"input":7,
					"interpolation":"LINEAR",
					"output":32
				},
				{
					"input":9,
					"interpolation":"STEP",
					"output":33
				},
				{
					"input":9,
					"interpolation":"STEP",
					"output":34
				},
				{
					"input":7,
					"interpolation":"LINEAR",
					"output":35
				},
				{
					"input":9,
					"interpolation":"STEP",
					"output":36
				},
				{
					"input":9,
					"interpolation":"STEP",
					"output":37
				},
				{
					"input":9,
					"interpolation":"STEP",
					"output":38
				},
				{
					"input":9,
					"interpolation":"STEP",
					"output":39
				}
			]
		},
		{
			"channels":[
				{
					"sampler":0,
					"target":{
						"node":11,
						"path":"translation"
					}
				},
				{
					"sampler":1,
					"target":{
						"node":11,
						"path":"rotation"
					}
				},
				{
					"sampler":2,
					"target":{
						"node":11,
						"path":"scale"
					}
				},
				{
					"sampler":3,
					"target":{
						"node":1,
						"path":"translation"
					}
				},
				{
					"sampler":4,
					"target":{
						"node":1,
						"path":"rotation"
					}
				},
				{
					"sampler":5,
					"target":{
						"node":1,
						"path":"scale"
					}
				},
				{
					"sampler":6,
					"target":{
						"node":0,
						"path":"translation"
					}
				},
				{
					"sampler":7,
					"target":{
						"node":0,
						"path":"rotation"
					}
				},
				{
					"sampler":8,
					"target":{
						"node":0,
						"path":"scale"
					}
				},
				{
					"sampler":9,
					"target":{
						"node":3,
						"path":"translation"
					}
				},
				{
					"sampler":10,
					"target":{
						"node":3,
						"path":"rotation"
					}
				},
				{
					"sampler":11,
					"target":{
						"node":3,
						"path":"scale"
					}
				},
				{
					"sampler":12,
					"target":{
						"node":2,
						"path":"translation"
					}
				},
				{
					"sampler":13,
					"target":{
						"node":2,
						"path":"rotation"
					}
				},
				{
					"sampler":14,
					"target":{
						"node":2,
						"path":"scale"
					}
				},
				{
					"sampler":15,
					"target":{
						"node":5,
						"path":"translation"
					}
				},
				{
					"sampler":16,
					"target":{
						"node":5,
						"path":"rotation"
					}
				},
				{
					"sampler":17,
					"target":{
						"node":5,
						"path":"scale"
					}
				},
				{
					"sampler":18,
					"target":{
						"node":4,
						"path":"translation"
					}
				},
				{
					"sampler":19,
					"target":{
						"node":4,
						"path":"rotation"
					}
				},
				{
					"sampler":20,
					"target":{
						"node":4,
						"path":"scale"
					}
				},
				{
					"sampler":21,
					"target":{
						"node":7,
						"path":"translation"
					}
				},
				{
					"sampler":22,
					"target":{
						"node":7,
						"path":"rotation"
					}
				},
				{
					"sampler":23,
					"target":{
						"node":7,
						"path":"scale"
					}
				},
				{
					"sampler":24,
					"target":{
						"node":6,
						"path":"translation"
					}
				},
				{
					"sampler":25,
					"target":{
						"node":6,
						"path":"rotation"
					}
				},
				{
					"sampler":26,
					"target":{
						"node":6,
						"path":"scale"
					}
				},
				{
					"sampler":27,
					"target":{
						"node":9,
						"path":"translation"
					}
				},
				{
					"sampler":28,
					"target":{
						"node":9,
						"path":"rotation"
					}
				},
				{
					"sampler":29,
					"target":{
						"node":9,
						"path":"scale"
					}
				},
				{
					"sampler":30,
					"target":{
						"node":8,
						"path":"translation"
					}
				},
				{
					"sampler":31,
					"target":{
						"node":8,
						"path":"rotation"
					}
				},
				{
					"sampler":32,
					"target":{
						"node":8,
						"path":"scale"
					}
				},
				{
					"sampler":33,
					"target":{
						"node":10,
						"path":"translation"
					}
				},
				{
					"sampler":34,
					"target":{
						"node":10,
						"path":"rotation"
					}
				},
				{
					"sampler":35,
					"target":{
						"node":10,
						"path":"scale"
					}
				}
			],
			"name":"Laufen",
			"samplers":[
				{
					"input":40,
					"interpolation":"LINEAR",
					"output":41
				},
				{
					"input":42,
					"interpolation":"STEP",
					"output":10
				},
				{
					"input":42,
					"interpolation":"STEP",
					"output":11
				},
				{
					"input":42,
					"interpolation":"STEP",
					"output":12
				},
				{
					"input":40,
					"interpolation":"LINEAR",
					"output":43
				},
				{
					"input":42,
					"interpolation":"STEP",
					"output":44
				},
				{
					"input":42,
					"interpolation":"STEP",
					"output":45
				},
				{
					"input":40,
					"interpolation":"LINEAR",
					"output":46
				},
				{
					"input":42,
					"interpolation":"STEP",
					"output":47
				},
				{
					"input":42,
					"interpolation":"STEP",
					"output":18
				},
				{
					"input":40,
					"interpolation":"LINEAR",
					"output":48
				},
				{
					"input":42,
					"interpolation":"STEP",
					"output":49
				},
				{
					"input":42,
					"interpolation":"STEP",
					"output":50
				},
				{
					"input":40,
					"interpolation":"LINEAR",
					"output":51
				},
				{
					"input":42,
					"interpolation":"STEP",
					"output":52
				},
				{
					"input":42,
					"interpolation":"STEP",
					"output":24
				},
				{
					"input":40,
					"interpolation":"LINEAR",
					"output":53
				},
				{
					"input":42,
					"interpolation":"STEP",
					"output":26
				},
				{
					"input":42,
					"interpolation":"STEP",
					"output":54
				},
				{
					"input":40,
					"interpolation":"LINEAR",
					"output":55
				},
				{
					"input":42,
					"interpolation":"STEP",
					"output":36
				},
				{
					"input":42,
					"interpolation":"STEP",
					"output":29
				},
				{
					"input":40,
					"interpolation":"LINEAR",
					"output":56
				},
				{
					"input":42,
					"interpolation":"STEP",
					"output":26
				},
				{
					"input":42,
					"interpolation":"STEP",
					"output":57
				},
				{
					"input":40,
					"interpolation":"LINEAR",
					"output":58
				},
				{
					"input":42,
					"interpolation":"STEP",
					"output":14
				},
				{
					"input":42,
					"interpolation":"STEP",
					"output":31
				},
				{
					"input":42,
					"interpolation":"STEP",
					"output":59
				},
				{
					"input":42,
					"interpolation":"STEP",
					"output":33
				},
				{
					"input":42,
					"interpolation":"STEP",
					"output":60
				},
				{
					"input":40,
					"interpolation":"LINEAR",
					"output":61
				},
				{
					"input":42,
					"interpolation":"STEP",
					"output":62
				},
				{
					"input":42,
					"interpolation":"STEP",
					"output":37
				},
				{
					"input":42,
					"interpolation":"STEP",
					"output":38
				},
				{
					"input":42,
					"interpolation":"STEP",
					"output":39
				}
			]
		},
		{
			"channels":[
				{
					"sampler":0,
					"target":{
						"node":11,
						"path":"translation"
					}
				},
				{
					"sampler":1,
					"target":{
						"node":11,
						"path":"rotation"
					}
				},
				{
					"sampler":2,
					"target":{
						"node":11,
						"path":"scale"
					}
				},
				{
					"sampler":3,
					"target":{
						"node":1,
						"path":"translation"
					}
				},
				{
					"sampler":4,
					"target":{
						"node":1,
						"path":"rotation"
					}
				},
				{
					"sampler":5,
					"target":{
						"node":1,
						"path":"scale"
					}
				},
				{
					"sampler":6,
					"target":{
						"node":0,
						"path":"translation"
					}
				},
				{
					"sampler":7,
					"target":{
						"node":0,
						"path":"rotation"
					}
				},
				{
					"sampler":8,
					"target":{
						"node":0,
						"path":"scale"
					}
				},
				{
					"sampler":9,
					"target":{
						"node":3,
						"path":"translation"
					}
				},
				{
					"sampler":10,
					"target":{
						"node":3,
						"path":"rotation"
					}
				},
				{
					"sampler":11,
					"target":{
						"node":3,
						"path":"scale"
					}
				},
				{
					"sampler":12,
					"target":{
						"node":2,
						"path":"translation"
					}
				},
				{
					"sampler":13,
					"target":{
						"node":2,
						"path":"rotation"
					}
				},
				{
					"sampler":14,
					"target":{
						"node":2,
						"path":"scale"
					}
				},
				{
					"sampler":15,
					"target":{
						"node":5,
						"path":"translation"
					}
				},
				{
					"sampler":16,
					"target":{
						"node":5,
						"path":"rotation"
					}
				},
				{
					"sampler":17,
					"target":{
						"node":5,
						"path":"scale"
					}
				},
				{
					"sampler":18,
					"target":{
						"node":4,
						"path":"translation"
					}
				},
				{
					"sampler":19,
					"target":{
						"node":4,
						"path":"rotation"
					}
				},
				{
					"sampler":20,
					"target":{
						"node":4,
						"path":"scale"
					}
				},
				{
					"sampler":21,
					"target":{
						"node":7,
						"path":"translation"
					}
				},
				{
					"sampler":22,
					"target":{
						"node":7,
						"path":"rotation"
					}
				},
				{
					"sampler":23,
					"target":{
						"node":7,
						"path":"scale"
					}
				},
				{
					"sampler":24,
					"target":{
						"node":6,
						"path":"translation"
					}
				},
				{
					"sampler":25,
					"target":{
						"node":6,
						"path":"rotation"
					}
				},
				{
					"sampler":26,
					"target":{
						"node":6,
						"path":"scale"
					}
				},
				{
					"sampler":27,
					"target":{
						"node":9,
						"path":"translation"
					}
				},
				{
					"sampler":28,
					"target":{
						"node":9,
						"path":"rotation"
					}
				},
				{
					"sampler":29,
					"target":{
						"node":9,
						"path":"scale"
					}
				},
				{
					"sampler":30,
					"target":{
						"node":8,
						"path":"translation"
					}
				},
				{
					"sampler":31,
					"target":{
						"node":8,
						"path":"rotation"
					}
				},
				{
					"sampler":32,
					"target":{
						"node":8,
						"path":"scale"
					}
				},
				{
					"sampler":33,
					"target":{
						"node":10,
						"path":"translation"
					}
				},
				{
					"sampler":34,
					"target":{
						"node":10,
						"path":"rotation"
					}
				},
				{
					"sampler":35,
					"target":{
						"node":10,
						"path":"scale"
					}
				}
			],
			"name":"Rennen",
			"samplers":[
				{
					"input":63,
					"interpolation":"LINEAR",
					"output":64
				},
				{
					"input":63,
					"interpolation":"LINEAR",
					"output":65
				},
				{
					"input":66,
					"interpolation":"STEP",
					"output":67
				},
				{
					"input":66,
					"interpolation":"STEP",
					"output":68
				},
				{
					"input":63,
					"interpolation":"LINEAR",
					"output":69
				},
				{
					"input":66,
					"interpolation":"STEP",
					"output":44
				},
				{
					"input":66,
					"interpolation":"STEP",
					"output":70
				},
				{
					"input":63,
					"interpolation":"LINEAR",
					"output":71
				},
				{
					"input":66,
					"interpolation":"STEP",
					"output":72
				},
				{
					"input":66,
					"interpolation":"STEP",
					"output":73
				},
				{
					"input":63,
					"interpolation":"LINEAR",
					"output":74
				},
				{
					"input":66,
					"interpolation":"STEP",
					"output":75
				},
				{
					"input":66,
					"interpolation":"STEP",
					"output":76
				},
				{
					"input":63,
					"interpolation":"LINEAR",
					"output":77
				},
				{
					"input":66,
					"interpolation":"STEP",
					"output":78
				},
				{
					"input":66,
					"interpolation":"STEP",
					"output":79
				},
				{
					"input":63,
					"interpolation":"LINEAR",
					"output":80
				},
				{
					"input":66,
					"interpolation":"STEP",
					"output":26
				},
				{
					"input":66,
					"interpolation":"STEP",
					"output":81
				},
				{
					"input":63,
					"interpolation":"LINEAR",
					"output":82
				},
				{
					"input":66,
					"interpolation":"STEP",
					"output":36
				},
				{
					"input":66,
					"interpolation":"STEP",
					"output":83
				},
				{
					"input":63,
					"interpolation":"LINEAR",
					"output":84
				},
				{
					"input":66,
					"interpolation":"STEP",
					"output":26
				},
				{
					"input":66,
					"interpolation":"STEP",
					"output":85
				},
				{
					"input":63,
					"interpolation":"LINEAR",
					"output":86
				},
				{
					"input":66,
					"interpolation":"STEP",
					"output":14
				},
				{
					"input":66,
					"interpolation":"STEP",
					"output":87
				},
				{
					"input":66,
					"interpolation":"STEP",
					"output":59
				},
				{
					"input":66,
					"interpolation":"STEP",
					"output":36
				},
				{
					"input":66,
					"interpolation":"STEP",
					"output":88
				},
				{
					"input":63,
					"interpolation":"LINEAR",
					"output":89
				},
				{
					"input":66,
					"interpolation":"STEP",
					"output":36
				},
				{
					"input":66,
					"interpolation":"STEP",
					"output":90
				},
				{
					"input":66,
					"interpolation":"STEP",
					"output":91
				},
				{
					"input":66,
					"interpolation":"STEP",
					"output":92
				}
			]
		}
	],
	"materials":[
		{
			"doubleSided":true,
			"name":"BaerRealistisch",
			"pbrMetallicRoughness":{
				"baseColorTexture":{
					"index":0
				},
				"metallicFactor":0,
				"roughnessFactor":0.8500000238418579
			}
		}
	],
	"meshes":[
		{
			"name":"Mesh",
			"primitives":[
				{
					"attributes":{
						"POSITION":0,
						"NORMAL":1,
						"TEXCOORD_0":2,
						"JOINTS_0":3,
						"WEIGHTS_0":4
					},
					"indices":5,
					"material":0
				}
			]
		}
	],
	"textures":[
		{
			"sampler":0,
			"source":0
		}
	],
	"images":[
		{
			"mimeType":"image/png",
			"name":"baer_realistisch_fell",
			"uri":"baer_realistisch_fell.png"
		}
	],
	"skins":[
		{
			"inverseBindMatrices":6,
			"joints":[
				11,
				1,
				0,
				3,
				2,
				5,
				4,
				7,
				6,
				9,
				8,
				10
			],
			"name":"BaerRealistischSkelett"
		}
	],
	"accessors":[
		{
			"bufferView":0,
			"componentType":5126,
			"count":2185,
			"max":[
				0.4017501175403595,
				1.4390275478363037,
				1.505710244178772
			],
			"min":[
				-0.40259358286857605,
				-0.006697874516248703,
				-1.0806891918182373
			],
			"type":"VEC3"
		},
		{
			"bufferView":1,
			"componentType":5126,
			"count":2185,
			"type":"VEC3"
		},
		{
			"bufferView":2,
			"componentType":5126,
			"count":2185,
			"type":"VEC2"
		},
		{
			"bufferView":3,
			"componentType":5121,
			"count":2185,
			"type":"VEC4"
		},
		{
			"bufferView":4,
			"componentType":5126,
			"count":2185,
			"type":"VEC4"
		},
		{
			"bufferView":5,
			"componentType":5123,
			"count":8496,
			"type":"SCALAR"
		},
		{
			"bufferView":6,
			"componentType":5126,
			"count":12,
			"type":"MAT4"
		},
		{
			"bufferView":7,
			"componentType":5126,
			"count":121,
			"max":[
				4
			],
			"min":[
				0
			],
			"type":"SCALAR"
		},
		{
			"bufferView":8,
			"componentType":5126,
			"count":121,
			"type":"VEC3"
		},
		{
			"bufferView":9,
			"componentType":5126,
			"count":2,
			"max":[
				4
			],
			"min":[
				0
			],
			"type":"SCALAR"
		},
		{
			"bufferView":10,
			"componentType":5126,
			"count":2,
			"type":"VEC4"
		},
		{
			"bufferView":11,
			"componentType":5126,
			"count":2,
			"type":"VEC3"
		},
		{
			"bufferView":12,
			"componentType":5126,
			"count":2,
			"type":"VEC3"
		},
		{
			"bufferView":13,
			"componentType":5126,
			"count":2,
			"type":"VEC4"
		},
		{
			"bufferView":14,
			"componentType":5126,
			"count":2,
			"type":"VEC3"
		},
		{
			"bufferView":15,
			"componentType":5126,
			"count":2,
			"type":"VEC3"
		},
		{
			"bufferView":16,
			"componentType":5126,
			"count":2,
			"type":"VEC4"
		},
		{
			"bufferView":17,
			"componentType":5126,
			"count":2,
			"type":"VEC3"
		},
		{
			"bufferView":18,
			"componentType":5126,
			"count":2,
			"type":"VEC3"
		},
		{
			"bufferView":19,
			"componentType":5126,
			"count":2,
			"type":"VEC4"
		},
		{
			"bufferView":20,
			"componentType":5126,
			"count":2,
			"type":"VEC3"
		},
		{
			"bufferView":21,
			"componentType":5126,
			"count":2,
			"type":"VEC3"
		},
		{
			"bufferView":22,
			"componentType":5126,
			"count":2,
			"type":"VEC4"
		},
		{
			"bufferView":23,
			"componentType":5126,
			"count":2,
			"type":"VEC3"
		},
		{
			"bufferView":24,
			"componentType":5126,
			"count":2,
			"type":"VEC3"
		},
		{
			"bufferView":25,
			"componentType":5126,
			"count":2,
			"type":"VEC4"
		},
		{
			"bufferView":26,
			"componentType":5126,
			"count":2,
			"type":"VEC3"
		},
		{
			"bufferView":27,
			"componentType":5126,
			"count":2,
			"type":"VEC3"
		},
		{
			"bufferView":28,
			"componentType":5126,
			"count":2,
			"type":"VEC4"
		},
		{
			"bufferView":29,
			"componentType":5126,
			"count":2,
			"type":"VEC3"
		},
		{
			"bufferView":30,
			"componentType":5126,
			"count":2,
			"type":"VEC3"
		},
		{
			"bufferView":31,
			"componentType":5126,
			"count":2,
			"type":"VEC3"
		},
		{
			"bufferView":32,
			"componentType":5126,
			"count":121,
			"type":"VEC4"
		},
		{
			"bufferView":33,
			"componentType":5126,
			"count":2,
			"type":"VEC3"
		},
		{
			"bufferView":34,
			"componentType":5126,
			"count":2,
			"type":"VEC3"
		},
		{
			"bufferView":35,
			"componentType":5126,
			"count":121,
			"type":"VEC4"
		},
		{
			"bufferView":36,
			"componentType":5126,
			"count":2,
			"type":"VEC3"
		},
		{
			"bufferView":37,
			"componentType":5126,
			"count":2,
			"type":"VEC3"
		},
		{
			"bufferView":38,
			"componentType":5126,
			"count":2,
			"type":"VEC4"
		},
		{
			"bufferView":39,
			"componentType":5126,
			"count":2,
			"type":"VEC3"
		},
		{
			"bufferView":40,
			"componentType":5126,
			"count":25,
			"max":[
				0.8
			],
			"min":[
				0
			],
			"type":"SCALAR"
		},
		{
			"bufferView":41,
			"componentType":5126,
			"count":25,
			"type":"VEC3"
		},
		{
			"bufferView":42,
			"componentType":5126,
			"count":2,
			"max":[
				0.8
			],
			"min":[
				0
			],
			"type":"SCALAR"
		},
		{
			"bufferView":43,
			"componentType":5126,
			"count":25,
			"type":"VEC4"
		},
		{
			"bufferView":44,
			"componentType":5126,
			"count":2,
			"type":"VEC3"
		},
		{
			"bufferView":45,
			"componentType":5126,
			"count":2,
			"type":"VEC3"
		},
		{
			"bufferView":46,
			"componentType":5126,
			"count":25,
			"type":"VEC4"
		},
		{
			"bufferView":47,
			"componentType":5126,
			"count":2,
			"type":"VEC3"
		},
		{
			"bufferView":48,
			"componentType":5126,
			"count":25,
			"type":"VEC4"
		},
		{
			"bufferView":49,
			"componentType":5126,
			"count":2,
			"type":"VEC3"
		},
		{
			"bufferView":50,
			"componentType":5126,
			"count":2,
			"type":"VEC3"
		},
		{
			"bufferView":51,
			"componentType":5126,
			"count":25,
			"type":"VEC4"
		},
		{
			"bufferView":52,
			"componentType":5126,
			"count":2,
			"type":"VEC3"
		},
		{
			"bufferView":53,
			"componentType":5126,
			"count":25,
			"type":"VEC4"
		},
		{
			"bufferView":54,
			"componentType":5126,
			"count":2,
			"type":"VEC3"
		},
		{
			"bufferView":55,
			"componentType":5126,
			"count":25,
			"type":"VEC4"
		},
		{
			"bufferView":56,
			"componentType":5126,
			"count":25,
			"type":"VEC4"
		},
		{
			"bufferView":57,
			"componentType":5126,
			"count":2,
			"type":"VEC3"
		},
		{
			"bufferView":58,
			"componentType":5126,
			"count":25,
			"type":"VEC4"
		},
		{
			"bufferView":59,
			"componentType":5126,
			"count":2,
			"type":"VEC4"
		},
		{
			"bufferView":60,
			"componentType":5126,
			"count":2,
			"type":"VEC3"
		},
		{
			"bufferView":61,
			"componentType":5126,
			"count":25,
			"type":"VEC4"
		},
		{
			"bufferView":62,
			"componentType":5126,
			"count":2,
			"type":"VEC3"
		},
		{
			"bufferView":63,
			"componentType":5126,
			"count":19,
			"max":[
				0.6
			],
			"min":[
				0
			],
			"type":"SCALAR"
		},
		{
			"bufferView":64,
			"componentType":5126,
			"count":19,
			"type":"VEC3"
		},
		{
			"bufferView":65,
			"componentType":5126,
			"count":19,
			"type":"VEC4"
		},
		{
			"bufferView":66,
			"componentType":5126,
			"count":2,
			"max":[
				0.6
			],
			"min":[
				0
			],
			"type":"SCALAR"
		},
		{
			"bufferView":67,
			"componentType":5126,
			"count":2,
			"type":"VEC3"
		},
		{
			"bufferView":68,
			"componentType":5126,
			"count":2,
			"type":"VEC3"
		},
		{
			"bufferView":69,
			"componentType":5126,
			"count":19,
			"type":"VEC4"
		},
		{
			"bufferView":70,
			"componentType":5126,
			"count":2,
			"type":"VEC3"
		},
		{
			"bufferView":71,
			"componentType":5126,
			"count":19,
			"type":"VEC4"
		},
		{
			"bufferView":72,
			"componentType":5126,
			"count":2,
			"type":"VEC3"
		},
		{
			"bufferView":73,
			"componentType":5126,
			"count":2,
			"type":"VEC3"
		},
		{
			"bufferView":74,
			"componentType":5126,
			"count":19,
			"type":"VEC4"
		},
		{
			"bufferView":75,
			"componentType":5126,
			"count":2,
			"type":"VEC3"
		},
		{
			"bufferView":76,
			"componentType":5126,
			"count":2,
			"type":"VEC3"
		},
		{
			"bufferView":77,
			"componentType":5126,
			"count":19,
			"type":"VEC4"
		},
		{
			"bufferView":78,
			"componentType":5126,
			"count":2,
			"type":"VEC3"
		},
		{
			"bufferView":79,
			"componentType":5126,
			"count":2,
			"type":"VEC3"
		},
		{
			"bufferView":80,
			"componentType":5126,
			"count":19,
			"type":"VEC4"
		},
		{
			"bufferView":81,
			"componentType":5126,
			"count":2,
			"type":"VEC3"
		},
		{
			"bufferView":82,
			"componentType":5126,
			"count":19,
			"type":"VEC4"
		},
		{
			"bufferView":83,
			"componentType":5126,
			"count":2,
			"type":"VEC3"
		},
		{
			"bufferView":84,
			"componentType":5126,
			"count":19,
			"type":"VEC4"
		},
		{
			"bufferView":85,
			"componentType":5126,
			"count":2,
			"type":"VEC3"
		},
		{
			"bufferView":86,
			"componentType":5126,
			"count":19,
			"type":"VEC4"
		},
		{
			"bufferView":87,
			"componentType":5126,
			"count":2,
			"type":"VEC3"
		},
		{
			"bufferView":88,
			"componentType":5126,
			"count":2,
			"type":"VEC3"
		},
		{
			"bufferView":89,
			"componentType":5126,
			"count":19,
			"type":"VEC4"
		},
		{
			"bufferView":90,
			"componentType":5126,
			"count":2,
			"type":"VEC3"
		},
		{
			"bufferView":91,
			"componentType":5126,
			"count":2,
			"type":"VEC4"
		},
		{
			"bufferView":92,
			"componentType":5126,
			"count":2,
			"type":"VEC3"
		}
	],
	"bufferViews":[
		{
			"buffer":0,
			"byteLength":26220,
			"byteOffset":0,
			"target":34962
		},
		{
			"buffer":0,
			"byteLength":26220,
			"byteOffset":26220,
			"target":34962
		},
		{
			"buffer":0,
			"byteLength":17480,
			"byteOffset":52440,
			"target":34962
		},
		{
			"buffer":0,
			"byteLength":8740,
			"byteOffset":69920,
			"target":34962
		},
		{
			"buffer":0,
			"byteLength":34960,
			"byteOffset":78660,
			"target":34962
		},
		{
			"buffer":0,
			"byteLength":16992,
			"byteOffset":113620,
			"target":34963
		},
		{
			"buffer":0,
			"byteLength":768,
			"byteOffset":130612
		},
		{
			"buffer":0,
			"byteLength":484,
			"byteOffset":131380
		},
		{
			"buffer":0,
			"byteLength":1452,
			"byteOffset":131864
		},
		{
			"buffer":0,
			"byteLength":8,
			"byteOffset":133316
		},
		{
			"buffer":0,
			"byteLength":32,
			"byteOffset":133324
		},
		{
			"buffer":0,
			"byteLength":24,
			"byteOffset":133356
		},
		{
			"buffer":0,
			"byteLength":24,
			"byteOffset":133380
		},
		{
			"buffer":0,
			"byteLength":32,
			"byteOffset":133404
		},
		{
			"buffer":0,
			"byteLength":24,
			"byteOffset":133436
		},
		{
			"buffer":0,
			"byteLength":24,
			"byteOffset":133460
		},
		{
			"buffer":0,
			"byteLength":32,
			"byteOffset":133484
		},
		{
			"buffer":0,
			"byteLength":24,
			"byteOffset":133516
		},
		{
			"buffer":0,
			"byteLength":24,
			"byteOffset":133540
		},
		{
			"buffer":0,
			"byteLength":32,
			"byteOffset":133564
		},
		{
			"buffer":0,
			"byteLength":24,
			"byteOffset":133596
		},
		{
			"buffer":0,
			"byteLength":24,
			"byteOffset":133620
		},
		{
			"buffer":0,
			"byteLength":32,
			"byteOffset":133644
		},
		{
			"buffer":0,
			"byteLength":24,
			"byteOffset":133676
		},
		{
			"buffer":0,
			"byteLength":24,
			"byteOffset":133700
		},
		{
			"buffer":0,
			"byteLength":32,
			"byteOffset":133724
		},
		{
			"buffer":0,
			"byteLength":24,
			"byteOffset":133756
		},
		{
			"buffer":0,
			"byteLength":24,
			"byteOffset":133780
		},
		{
			"buffer":0,
			"byteLength":32,
			"byteOffset":133804
		},
		{
			"buffer":0,
			"byteLength":24,
			"byteOffset":133836
		},
		{
			"buffer":0,
			"byteLength":24,
			"byteOffset":133860
		},
		{
			"buffer":0,
			"byteLength":24,
			"byteOffset":133884
		},
		{
			"buffer":0,
			"byteLength":1936,
			"byteOffset":133908
		},
		{
			"buffer":0,
			"byteLength":24,
			"byteOffset":135844
		},
		{
			"buffer":0,
			"byteLength":24,
			"byteOffset":135868
		},
		{
			"buffer":0,
			"byteLength":1936,
			"byteOffset":135892
		},
		{
			"buffer":0,
			"byteLength":24,
			"byteOffset":137828
		},
		{
			"buffer":0,
			"byteLength":24,
			"byteOffset":137852
		},
		{
			"buffer":0,
			"byteLength":32,
			"byteOffset":137876
		},
		{
			"buffer":0,
			"byteLength":24,
			"byteOffset":137908
		},
		{
			"buffer":0,
			"byteLength":100,
			"byteOffset":137932
		},
		{
			"buffer":0,
			"byteLength":300,
			"byteOffset":138032
		},
		{
			"buffer":0,
			"byteLength":8,
			"byteOffset":138332
		},
		{
			"buffer":0,
			"byteLength":400,
			"byteOffset":138340
		},
		{
			"buffer":0,
			"byteLength":24,
			"byteOffset":138740
		},
		{
			"buffer":0,
			"byteLength":24,
			"byteOffset":138764
		},
		{
			"buffer":0,
			"byteLength":400,
			"byteOffset":138788
		},
		{
			"buffer":0,
			"byteLength":24,
			"byteOffset":139188
		},
		{
			"buffer":0,
			"byteLength":400,
			"byteOffset":139212
		},
		{
			"buffer":0,
			"byteLength":24,
			"byteOffset":139612
		},
		{
			"buffer":0,
			"byteLength":24,
			"byteOffset":139636
		},
		{
			"buffer":0,
			"byteLength":400,
			"byteOffset":139660
		},
		{
			"buffer":0,
			"byteLength":24,
			"byteOffset":140060
		},
		{
			"buffer":0,
			"byteLength":400,
			"byteOffset":140084
		},
		{
			"buffer":0,
			"byteLength":24,
			"byteOffset":140484
		},
		{
			"buffer":0,
			"byteLength":400,
			"byteOffset":140508
		},
		{
			"buffer":0,
			"byteLength":400,
			"byteOffset":140908
		},
		{
			"buffer":0,
			"byteLength":24,
			"byteOffset":141308
		},
		{
			"buffer":0,
			"byteLength":400,
			"byteOffset":141332
		},
		{
			"buffer":0,
			"byteLength":32,
			"byteOffset":141732
		},
		{
			"buffer":0,
			"byteLength":24,
			"byteOffset":141764
		},
		{
			"buffer":0,
			"byteLength":400,
			"byteOffset":141788
		},
		{
			"buffer":0,
			"byteLength":24,
			"byteOffset":142188
		},
		{
			"buffer":0,
			"byteLength":76,
			"byteOffset":142212
		},
		{
			"buffer":0,
			"byteLength":228,
			"byteOffset":142288
		},
		{
			"buffer":0,
			"byteLength":304,
			"byteOffset":142516
		},
		{
			"buffer":0,
			"byteLength":8,
			"byteOffset":142820
		},
		{
			"buffer":0,
			"byteLength":24,
			"byteOffset":142828
		},
		{
			"buffer":0,
			"byteLength":24,
			"byteOffset":142852
		},
		{
			"buffer":0,
			"byteLength":304,
			"byteOffset":142876
		},
		{
			"buffer":0,
			"byteLength":24,
			"byteOffset":143180
		},
		{
			"buffer":0,
			"byteLength":304,
			"byteOffset":143204
		},
		{
			"buffer":0,
			"byteLength":24,
			"byteOffset":143508
		},
		{
			"buffer":0,
			"byteLength":24,
			"byteOffset":143532
		},
		{
			"buffer":0,
			"byteLength":304,
			"byteOffset":143556
		},
		{
			"buffer":0,
			"byteLength":24,
			"byteOffset":143860
		},
		{
			"buffer":0,
			"byteLength":24,
			"byteOffset":143884
		},
		{
			"buffer":0,
			"byteLength":304,
			"byteOffset":143908
		},
		{
			"buffer":0,
			"byteLength":24,
			"byteOffset":144212
		},
		{
			"buffer":0,
			"byteLength":24,
			"byteOffset":144236
		},
		{
			"buffer":0,
			"byteLength":304,
			"byteOffset":144260
		},
		{
			"buffer":0,
			"byteLength":24,
			"byteOffset":144564
		},
		{
			"buffer":0,
			"byteLength":304,
			"byteOffset":144588
		},
		{
			"buffer":0,
			"byteLength":24,
			"byteOffset":144892
		},
		{
			"buffer":0,
			"byteLength":304,
			"byteOffset":144916
		},
		{
			"buffer":0,
			"byteLength":24,
			"byteOffset":145220
		},
		{
			"buffer":0,
			"byteLength":304,
			"byteOffset":145244
		},
		{
			"buffer":0,
			"byteLength":24,
			"byteOffset":145548
		},
		{
			"buffer":0,
			"byteLength":24,
			"byteOffset":145572
		},
		{
			"buffer":0,
			"byteLength":304,
			"byteOffset":145596
		},
		{
			"buffer":0,
			"byteLength":24,
			"byteOffset":145900
		},
		{
			"buffer":0,
			"byteLength":32,
			"byteOffset":145924
		},
		{
			"buffer":0,
			"byteLength":24,
			"byteOffset":145956
		}
	],
	"samplers":[
		{
			"magFilter":9729,
			"minFilter":9987
		}
	],
	"buffers":[
		{
			"byteLength":145980,
			"uri":"baer_realistisch.bin"
		}
	]
}
