{
	"asset":{
		"generator":"Khronos glTF Blender I/O v5.2.40",
		"version":"2.0"
	},
	"scene":0,
	"scenes":[
		{
			"name":"Scene",
			"nodes":[
				8
			]
		}
	],
	"nodes":[
		{
			"name":"Bein.HL",
			"rotation":[
				-3.0908619663705394e-08,
				0.7071067690849304,
				-0.7071067690849304,
				3.0908619663705394e-08
			],
			"translation":[
				-0.30000001192092896,
				0.10000002384185791,
				-0.09999996423721313
			]
		},
		{
			"name":"Bein.HR",
			"rotation":[
				-3.0908619663705394e-08,
				0.7071067690849304,
				-0.7071067690849304,
				3.0908619663705394e-08
			],
			"translation":[
				0.30000001192092896,
				0.10000002384185791,
				-0.09999996423721313
			]
		},
		{
			"name":"Bein.VL",
			"rotation":[
				-3.0908619663705394e-08,
				0.7071067690849304,
				-0.7071067690849304,
				3.0908619663705394e-08
			],
			"translation":[
				-0.30000001192092896,
				1.3199999332427979,
				-0.09999996423721313
			]
		},
		{
			"name":"Bein.VR",
			"rotation":[
				-3.0908619663705394e-08,
				0.7071067690849304,
				-0.7071067690849304,
				3.0908619663705394e-08
			],
			"translation":[
				0.30000001192092896,
				1.3199999332427979,
				-0.09999996423721313
			]
		},
		{
			"name":"Kopf",
			"translation":[
				0,
				1.5,
				0.19999998807907104
			]
		},
		{
			"name":"Schwanz",
			"rotation":[
				0,
				0,
				-1,
				0
			],
			"translation":[
				0,
				-0.30000001192092896,
				0.09999996423721313
			]
		},
		{
			"children":[
				0,
				1,
				2,
				3,
				4,
				5
			],
			"name":"Koerper",
			"rotation":[
				0,
				0.7071067690849304,
				0.7071067690849304,
				0
			],
			"translation":[
				0,
				0.949999988079071,
				-0.699999988079071
			]
		},
		{
			"mesh":0,
			"name":"Baer",
			"skin":0
		},
		{
			"children":[
				7,
				6
			],
			"name":"BaerSkelett"
		}
	],
	"animations":[
		{
			"channels":[
				{
					"sampler":0,
					"target":{
						"node":6,
						"path":"translation"
					}
				},
				{
					"sampler":1,
					"target":{
						"node":6,
						"path":"rotation"
					}
				},
				{
					"sampler":2,
					"target":{
						"node":6,
						"path":"scale"
					}
				},
				{
					"sampler":3,
					"target":{
						"node":0,
						"path":"translation"
					}
				},
				{
					"sampler":4,
					"target":{
						"node":0,
						"path":"rotation"
					}
				},
				{
					"sampler":5,
					"target":{
						"node":0,
						"path":"scale"
					}
				},
				{
					"sampler":6,
					"target":{
						"node":1,
						"path":"translation"
					}
				},
				{
					"sampler":7,
					"target":{
						"node":1,
						"path":"rotation"
					}
				},
				{
					"sampler":8,
					"target":{
						"node":1,
						"path":"scale"
					}
				},
				{
					"sampler":9,
					"target":{
						"node":2,
						"path":"translation"
					}
				},
				{
					"sampler":10,
					"target":{
						"node":2,
						"path":"rotation"
					}
				},
				{
					"sampler":11,
					"target":{
						"node":2,
						"path":"scale"
					}
				},
				{
					"sampler":12,
					"target":{
						"node":3,
						"path":"translation"
					}
				},
				{
					"sampler":13,
					"target":{
						"node":3,
						"path":"rotation"
					}
				},
				{
					"sampler":14,
					"target":{
						"node":3,
						"path":"scale"
					}
				},
				{
					"sampler":15,
					"target":{
						"node":4,
						"path":"translation"
					}
				},
				{
					"sampler":16,
					"target":{
						"node":4,
						"path":"rotation"
					}
				},
				{
					"sampler":17,
					"target":{
						"node":4,
						"path":"scale"
					}
				},
				{
					"sampler":18,
					"target":{
						"node":5,
						"path":"translation"
					}
				},
				{
					"sampler":19,
					"target":{
						"node":5,
						"path":"rotation"
					}
				},
				{
					"sampler":20,
					"target":{
						"node":5,
						"path":"scale"
					}
				}
			],
			"name":"Idle",
			"samplers":[
				{
					"input":21,
					"interpolation":"LINEAR",
					"output":22
				},
				{
					"input":23,
					"interpolation":"STEP",
					"output":24
				},
				{
					"input":23,
					"interpolation":"STEP",
					"output":25
				},
				{
					"input":23,
					"interpolation":"STEP",
					"output":26
				},
				{
					"input":23,
					"interpolation":"STEP",
					"output":27
				},
				{
					"input":23,
					"interpolation":"STEP",
					"output":25
				},
				{
					"input":23,
					"interpolation":"STEP",
					"output":28
				},
				{
					"input":23,
					"interpolation":"STEP",
					"output":27
				},
				{
					"input":23,
					"interpolation":"STEP",
					"output":25
				},
				{
					"input":23,
					"interpolation":"STEP",
					"output":29
				},
				{
					"input":23,
					"interpolation":"STEP",
					"output":27
				},
				{
					"input":23,
					"interpolation":"STEP",
					"output":25
				},
				{
					"input":23,
					"interpolation":"STEP",
					"output":30
				},
				{
					"input":23,
					"interpolation":"STEP",
					"output":27
				},
				{
					"input":23,
					"interpolation":"STEP",
					"output":25
				},
				{
					"input":23,
					"interpolation":"STEP",
					"output":31
				},
				{
					"input":21,
					"interpolation":"LINEAR",
					"output":32
				},
				{
					"input":23,
					"interpolation":"STEP",
					"output":33
				},
				{
					"input":23,
					"interpolation":"STEP",
					"output":34
				},
				{
					"input":21,
					"interpolation":"LINEAR",
					"output":35
				},
				{
					"input":23,
					"interpolation":"STEP",
					"output":25
				}
			]
		},
		{
			"channels":[
				{
					"sampler":0,
					"target":{
						"node":6,
						"path":"translation"
					}
				},
				{
					"sampler":1,
					"target":{
						"node":6,
						"path":"rotation"
					}
				},
				{
					"sampler":2,
					"target":{
						"node":6,
						"path":"scale"
					}
				},
				{
					"sampler":3,
					"target":{
						"node":0,
						"path":"translation"
					}
				},
				{
					"sampler":4,
					"target":{
						"node":0,
						"path":"rotation"
					}
				},
				{
					"sampler":5,
					"target":{
						"node":0,
						"path":"scale"
					}
				},
				{
					"sampler":6,
					"target":{
						"node":1,
						"path":"translation"
					}
				},
				{
					"sampler":7,
					"target":{
						"node":1,
						"path":"rotation"
					}
				},
				{
					"sampler":8,
					"target":{
						"node":1,
						"path":"scale"
					}
				},
				{
					"sampler":9,
					"target":{
						"node":2,
						"path":"translation"
					}
				},
				{
					"sampler":10,
					"target":{
						"node":2,
						"path":"rotation"
					}
				},
				{
					"sampler":11,
					"target":{
						"node":2,
						"path":"scale"
					}
				},
				{
					"sampler":12,
					"target":{
						"node":3,
						"path":"translation"
					}
				},
				{
					"sampler":13,
					"target":{
						"node":3,
						"path":"rotation"
					}
				},
				{
					"sampler":14,
					"target":{
						"node":3,
						"path":"scale"
					}
				},
				{
					"sampler":15,
					"target":{
						"node":4,
						"path":"translation"
					}
				},
				{
					"sampler":16,
					"target":{
						"node":4,
						"path":"rotation"
					}
				},
				{
					"sampler":17,
					"target":{
						"node":4,
						"path":"scale"
					}
				},
				{
					"sampler":18,
					"target":{
						"node":5,
						"path":"translation"
					}
				},
				{
					"sampler":19,
					"target":{
						"node":5,
						"path":"rotation"
					}
				},
				{
					"sampler":20,
					"target":{
						"node":5,
						"path":"scale"
					}
				}
			],
			"name":"Laufen",
			"samplers":[
				{
					"input":36,
					"interpolation":"LINEAR",
					"output":37
				},
				{
					"input":38,
					"interpolation":"STEP",
					"output":24
				},
				{
					"input":38,
					"interpolation":"STEP",
					"output":25
				},
				{
					"input":38,
					"interpolation":"STEP",
					"output":26
				},
				{
					"input":36,
					"interpolation":"LINEAR",
					"output":39
				},
				{
					"input":38,
					"interpolation":"STEP",
					"output":25
				},
				{
					"input":38,
					"interpolation":"STEP",
					"output":28
				},
				{
					"input":36,
					"interpolation":"LINEAR",
					"output":40
				},
				{
					"input":38,
					"interpolation":"STEP",
					"output":25
				},
				{
					"input":38,
					"interpolation":"STEP",
					"output":29
				},
				{
					"input":36,
					"interpolation":"LINEAR",
					"output":40
				},
				{
					"input":38,
					"interpolation":"STEP",
					"output":25
				},
				{
					"input":38,
					"interpolation":"STEP",
					"output":30
				},
				{
					"input":36,
					"interpolation":"LINEAR",
					"output":39
				},
				{
					"input":38,
					"interpolation":"STEP",
					"output":25
				},
				{
					"input":38,
					"interpolation":"STEP",
					"output":31
				},
				{
					"input":36,
					"interpolation":"LINEAR",
					"output":41
				},
				{
					"input":38,
					"interpolation":"STEP",
					"output":25
				},
				{
					"input":38,
					"interpolation":"STEP",
					"output":34
				},
				{
					"input":38,
					"interpolation":"STEP",
					"output":42
				},
				{
					"input":38,
					"interpolation":"STEP",
					"output":25
				}
			]
		},
		{
			"channels":[
				{
					"sampler":0,
					"target":{
						"node":6,
						"path":"translation"
					}
				},
				{
					"sampler":1,
					"target":{
						"node":6,
						"path":"rotation"
					}
				},
				{
					"sampler":2,
					"target":{
						"node":6,
						"path":"scale"
					}
				},
				{
					"sampler":3,
					"target":{
						"node":0,
						"path":"translation"
					}
				},
				{
					"sampler":4,
					"target":{
						"node":0,
						"path":"rotation"
					}
				},
				{
					"sampler":5,
					"target":{
						"node":0,
						"path":"scale"
					}
				},
				{
					"sampler":6,
					"target":{
						"node":1,
						"path":"translation"
					}
				},
				{
					"sampler":7,
					"target":{
						"node":1,
						"path":"rotation"
					}
				},
				{
					"sampler":8,
					"target":{
						"node":1,
						"path":"scale"
					}
				},
				{
					"sampler":9,
					"target":{
						"node":2,
						"path":"translation"
					}
				},
				{
					"sampler":10,
					"target":{
						"node":2,
						"path":"rotation"
					}
				},
				{
					"sampler":11,
					"target":{
						"node":2,
						"path":"scale"
					}
				},
				{
					"sampler":12,
					"target":{
						"node":3,
						"path":"translation"
					}
				},
				{
					"sampler":13,
					"target":{
						"node":3,
						"path":"rotation"
					}
				},
				{
					"sampler":14,
					"target":{
						"node":3,
						"path":"scale"
					}
				},
				{
					"sampler":15,
					"target":{
						"node":4,
						"path":"translation"
					}
				},
				{
					"sampler":16,
					"target":{
						"node":4,
						"path":"rotation"
					}
				},
				{
					"sampler":17,
					"target":{
						"node":4,
						"path":"scale"
					}
				},
				{
					"sampler":18,
					"target":{
						"node":5,
						"path":"translation"
					}
				},
				{
					"sampler":19,
					"target":{
						"node":5,
						"path":"rotation"
					}
				},
				{
					"sampler":20,
					"target":{
						"node":5,
						"path":"scale"
					}
				}
			],
			"name":"Rennen",
			"samplers":[
				{
					"input":43,
					"interpolation":"LINEAR",
					"output":44
				},
				{
					"input":43,
					"interpolation":"LINEAR",
					"output":45
				},
				{
					"input":46,
					"interpolation":"STEP",
					"output":25
				},
				{
					"input":46,
					"interpolation":"STEP",
					"output":47
				},
				{
					"input":43,
					"interpolation":"LINEAR",
					"output":48
				},
				{
					"input":46,
					"interpolation":"STEP",
					"output":25
				},
				{
					"input":46,
					"interpolation":"STEP",
					"output":49
				},
				{
					"input":43,
					"interpolation":"LINEAR",
					"output":50
				},
				{
					"input":46,
					"interpolation":"STEP",
					"output":51
				},
				{
					"input":46,
					"interpolation":"STEP",
					"output":52
				},
				{
					"input":43,
					"interpolation":"LINEAR",
					"output":53
				},
				{
					"input":46,
					"interpolation":"STEP",
					"output":51
				},
				{
					"input":46,
					"interpolation":"STEP",
					"output":54
				},
				{
					"input":43,
					"interpolation":"LINEAR",
					"output":55
				},
				{
					"input":46,
					"interpolation":"STEP",
					"output":25
				},
				{
					"input":46,
					"interpolation":"STEP",
					"output":56
				},
				{
					"input":43,
					"interpolation":"LINEAR",
					"output":57
				},
				{
					"input":46,
					"interpolation":"STEP",
					"output":51
				},
				{
					"input":46,
					"interpolation":"STEP",
					"output":58
				},
				{
					"input":46,
					"interpolation":"STEP",
					"output":42
				},
				{
					"input":46,
					"interpolation":"STEP",
					"output":25
				}
			]
		}
	],
	"materials":[
		{
			"name":"baer",
			"pbrMetallicRoughness":{
				"baseColorFactor":[
					0.14702726900577545,
					0.05780543014407158,
					0.021219009533524513,
					1
				],
				"metallicFactor":0,
				"roughnessFactor":0.8999999761581421
			}
		},
		{
			"name":"baer_schnauze",
			"pbrMetallicRoughness":{
				"baseColorFactor":[
					0.4677838087081909,
					0.2541520893573761,
					0.1119324266910553,
					1
				],
				"metallicFactor":0,
				"roughnessFactor":0.8999999761581421
			}
		},
		{
			"name":"schwarz",
			"pbrMetallicRoughness":{
				"baseColorFactor":[
					0.012983032502233982,
					0.012983032502233982,
					0.01599629409611225,
					1
				],
				"metallicFactor":0,
				"roughnessFactor":0.4000000059604645
			}
		},
		{
			"name":"baer_dunkel",
			"pbrMetallicRoughness":{
				"baseColorFactor":[
					0.061246052384376526,
					0.022173885256052017,
					0.01032982300966978,
					1
				],
				"metallicFactor":0,
				"roughnessFactor":0.8999999761581421
			}
		}
	],
	"meshes":[
		{
			"name":"Baer",
			"primitives":[
				{
					"attributes":{
						"POSITION":0,
						"NORMAL":1,
						"JOINTS_0":2,
						"WEIGHTS_0":3
					},
					"indices":4,
					"material":0
				},
				{
					"attributes":{
						"POSITION":5,
						"NORMAL":6,
						"JOINTS_0":7,
						"WEIGHTS_0":8
					},
					"indices":9,
					"material":1
				},
				{
					"attributes":{
						"POSITION":10,
						"NORMAL":11,
						"JOINTS_0":12,
						"WEIGHTS_0":13
					},
					"indices":14,
					"material":2
				},
				{
					"attributes":{
						"POSITION":15,
						"NORMAL":16,
						"JOINTS_0":17,
						"WEIGHTS_0":18
					},
					"indices":19,
					"material":3
				}
			]
		}
	],
	"skins":[
		{
			"inverseBindMatrices":20,
			"joints":[
				6,
				0,
				1,
				2,
				3,
				4,
				5
			],
			"name":"BaerSkelett"
		}
	],
	"accessors":[
		{
			"bufferView":0,
			"componentType":5126,
			"count":1332,
			"max":[
				0.5209488868713379,
				1.5700000524520874,
				1.3677294254302979
			],
			"min":[
				-0.5197278261184692,
				0.06815990805625916,
				-1.1650640964508057
			],
			"type":"VEC3"
		},
		{
			"bufferView":1,
			"componentType":5126,
			"count":1332,
			"type":"VEC3"
		},
		{
			"bufferView":2,
			"componentType":5121,
			"count":1332,
			"type":"VEC4"
		},
		{
			"bufferView":3,
			"componentType":5126,
			"count":1332,
			"type":"VEC4"
		},
		{
			"bufferView":4,
			"componentType":5123,
			"count":1476,
			"type":"SCALAR"
		},
		{
			"bufferView":5,
			"componentType":5126,
			"count":240,
			"max":[
				0.15359584987163544,
				1.2325999736785889,
				1.5509999990463257
			],
			"min":[
				-0.15359584987163544,
				0.9674000144004822,
				1.1090000867843628
			],
			"type":"VEC3"
		},
		{
			"bufferView":6,
			"componentType":5126,
			"count":240,
			"type":"VEC3"
		},
		{
			"bufferView":7,
			"componentType":5121,
			"count":240,
			"type":"VEC4"
		},
		{
			"bufferView":8,
			"componentType":5126,
			"count":240,
			"type":"VEC4"
		},
		{
			"bufferView":9,
			"componentType":5123,
			"count":240,
			"type":"SCALAR"
		},
		{
			"bufferView":10,
			"componentType":5126,
			"count":180,
			"max":[
				0.17577700316905975,
				1.3399999141693115,
				1.5897624492645264
			],
			"min":[
				-0.17577700316905975,
				1.097999930381775,
				1.2359744310379028
			],
			"type":"VEC3"
		},
		{
			"bufferView":11,
			"componentType":5126,
			"count":180,
			"type":"VEC3"
		},
		{
			"bufferView":12,
			"componentType":5121,
			"count":180,
			"type":"VEC4"
		},
		{
			"bufferView":13,
			"componentType":5126,
			"count":180,
			"type":"VEC4"
		},
		{
			"bufferView":14,
			"componentType":5123,
			"count":180,
			"type":"SCALAR"
		},
		{
			"bufferView":15,
			"componentType":5126,
			"count":360,
			"max":[
				0.4520522654056549,
				1.5199999809265137,
				1.0153114795684814
			],
			"min":[
				-0.4520522654056549,
				-0.0034999996423721313,
				-0.7307610511779785
			],
			"type":"VEC3"
		},
		{
			"bufferView":16,
			"componentType":5126,
			"count":360,
			"type":"VEC3"
		},
		{
			"bufferView":17,
			"componentType":5121,
			"count":360,
			"type":"VEC4"
		},
		{
			"bufferView":18,
			"componentType":5126,
			"count":360,
			"type":"VEC4"
		},
		{
			"bufferView":19,
			"componentType":5123,
			"count":360,
			"type":"SCALAR"
		},
		{
			"bufferView":20,
			"componentType":5126,
			"count":7,
			"type":"MAT4"
		},
		{
			"bufferView":21,
			"componentType":5126,
			"count":121,
			"max":[
				4
			],
			"min":[
				0
			],
			"type":"SCALAR"
		},
		{
			"bufferView":22,
			"componentType":5126,
			"count":121,
			"type":"VEC3"
		},
		{
			"bufferView":23,
			"componentType":5126,
			"count":2,
			"max":[
				4
			],
			"min":[
				0
			],
			"type":"SCALAR"
		},
		{
			"bufferView":24,
			"componentType":5126,
			"count":2,
			"type":"VEC4"
		},
		{
			"bufferView":25,
			"componentType":5126,
			"count":2,
			"type":"VEC3"
		},
		{
			"bufferView":26,
			"componentType":5126,
			"count":2,
			"type":"VEC3"
		},
		{
			"bufferView":27,
			"componentType":5126,
			"count":2,
			"type":"VEC4"
		},
		{
			"bufferView":28,
			"componentType":5126,
			"count":2,
			"type":"VEC3"
		},
		{
			"bufferView":29,
			"componentType":5126,
			"count":2,
			"type":"VEC3"
		},
		{
			"bufferView":30,
			"componentType":5126,
			"count":2,
			"type":"VEC3"
		},
		{
			"bufferView":31,
			"componentType":5126,
			"count":2,
			"type":"VEC3"
		},
		{
			"bufferView":32,
			"componentType":5126,
			"count":121,
			"type":"VEC4"
		},
		{
			"bufferView":33,
			"componentType":5126,
			"count":2,
			"type":"VEC3"
		},
		{
			"bufferView":34,
			"componentType":5126,
			"count":2,
			"type":"VEC3"
		},
		{
			"bufferView":35,
			"componentType":5126,
			"count":121,
			"type":"VEC4"
		},
		{
			"bufferView":36,
			"componentType":5126,
			"count":25,
			"max":[
				0.8
			],
			"min":[
				0
			],
			"type":"SCALAR"
		},
		{
			"bufferView":37,
			"componentType":5126,
			"count":25,
			"type":"VEC3"
		},
		{
			"bufferView":38,
			"componentType":5126,
			"count":2,
			"max":[
				0.8
			],
			"min":[
				0
			],
			"type":"SCALAR"
		},
		{
			"bufferView":39,
			"componentType":5126,
			"count":25,
			"type":"VEC4"
		},
		{
			"bufferView":40,
			"componentType":5126,
			"count":25,
			"type":"VEC4"
		},
		{
			"bufferView":41,
			"componentType":5126,
			"count":25,
			"type":"VEC4"
		},
		{
			"bufferView":42,
			"componentType":5126,
			"count":2,
			"type":"VEC4"
		},
		{
			"bufferView":43,
			"componentType":5126,
			"count":17,
			"max":[
				0.5333333333333333
			],
			"min":[
				0
			],
			"type":"SCALAR"
		},
		{
			"bufferView":44,
			"componentType":5126,
			"count":17,
			"type":"VEC3"
		},
		{
			"bufferView":45,
			"componentType":5126,
			"count":17,
			"type":"VEC4"
		},
		{
			"bufferView":46,
			"componentType":5126,
			"count":2,
			"max":[
				0.5333333333333333
			],
			"min":[
				0
			],
			"type":"SCALAR"
		},
		{
			"bufferView":47,
			"componentType":5126,
			"count":2,
			"type":"VEC3"
		},
		{
			"bufferView":48,
			"componentType":5126,
			"count":17,
			"type":"VEC4"
		},
		{
			"bufferView":49,
			"componentType":5126,
			"count":2,
			"type":"VEC3"
		},
		{
			"bufferView":50,
			"componentType":5126,
			"count":17,
			"type":"VEC4"
		},
		{
			"bufferView":51,
			"componentType":5126,
			"count":2,
			"type":"VEC3"
		},
		{
			"bufferView":52,
			"componentType":5126,
			"count":2,
			"type":"VEC3"
		},
		{
			"bufferView":53,
			"componentType":5126,
			"count":17,
			"type":"VEC4"
		},
		{
			"bufferView":54,
			"componentType":5126,
			"count":2,
			"type":"VEC3"
		},
		{
			"bufferView":55,
			"componentType":5126,
			"count":17,
			"type":"VEC4"
		},
		{
			"bufferView":56,
			"componentType":5126,
			"count":2,
			"type":"VEC3"
		},
		{
			"bufferView":57,
			"componentType":5126,
			"count":17,
			"type":"VEC4"
		},
		{
			"bufferView":58,
			"componentType":5126,
			"count":2,
			"type":"VEC3"
		}
	],
	"bufferViews":[
		{
			"buffer":0,
			"byteLength":15984,
			"byteOffset":0,
			"target":34962
		},
		{
			"buffer":0,
			"byteLength":15984,
			"byteOffset":15984,
			"target":34962
		},
		{
			"buffer":0,
			"byteLength":5328,
			"byteOffset":31968,
			"target":34962
		},
		{
			"buffer":0,
			"byteLength":21312,
			"byteOffset":37296,
			"target":34962
		},
		{
			"buffer":0,
			"byteLength":2952,
			"byteOffset":58608,
			"target":34963
		},
		{
			"buffer":0,
			"byteLength":2880,
			"byteOffset":61560,
			"target":34962
		},
		{
			"buffer":0,
			"byteLength":2880,
			"byteOffset":64440,
			"target":34962
		},
		{
			"buffer":0,
			"byteLength":960,
			"byteOffset":67320,
			"target":34962
		},
		{
			"buffer":0,
			"byteLength":3840,
			"byteOffset":68280,
			"target":34962
		},
		{
			"buffer":0,
			"byteLength":480,
			"byteOffset":72120,
			"target":34963
		},
		{
			"buffer":0,
			"byteLength":2160,
			"byteOffset":72600,
			"target":34962
		},
		{
			"buffer":0,
			"byteLength":2160,
			"byteOffset":74760,
			"target":34962
		},
		{
			"buffer":0,
			"byteLength":720,
			"byteOffset":76920,
			"target":34962
		},
		{
			"buffer":0,
			"byteLength":2880,
			"byteOffset":77640,
			"target":34962
		},
		{
			"buffer":0,
			"byteLength":360,
			"byteOffset":80520,
			"target":34963
		},
		{
			"buffer":0,
			"byteLength":4320,
			"byteOffset":80880,
			"target":34962
		},
		{
			"buffer":0,
			"byteLength":4320,
			"byteOffset":85200,
			"target":34962
		},
		{
			"buffer":0,
			"byteLength":1440,
			"byteOffset":89520,
			"target":34962
		},
		{
			"buffer":0,
			"byteLength":5760,
			"byteOffset":90960,
			"target":34962
		},
		{
			"buffer":0,
			"byteLength":720,
			"byteOffset":96720,
			"target":34963
		},
		{
			"buffer":0,
			"byteLength":448,
			"byteOffset":97440
		},
		{
			"buffer":0,
			"byteLength":484,
			"byteOffset":97888
		},
		{
			"buffer":0,
			"byteLength":1452,
			"byteOffset":98372
		},
		{
			"buffer":0,
			"byteLength":8,
			"byteOffset":99824
		},
		{
			"buffer":0,
			"byteLength":32,
			"byteOffset":99832
		},
		{
			"buffer":0,
			"byteLength":24,
			"byteOffset":99864
		},
		{
			"buffer":0,
			"byteLength":24,
			"byteOffset":99888
		},
		{
			"buffer":0,
			"byteLength":32,
			"byteOffset":99912
		},
		{
			"buffer":0,
			"byteLength":24,
			"byteOffset":99944
		},
		{
			"buffer":0,
			"byteLength":24,
			"byteOffset":99968
		},
		{
			"buffer":0,
			"byteLength":24,
			"byteOffset":99992
		},
		{
			"buffer":0,
			"byteLength":24,
			"byteOffset":100016
		},
		{
			"buffer":0,
			"byteLength":1936,
			"byteOffset":100040
		},
		{
			"buffer":0,
			"byteLength":24,
			"byteOffset":101976
		},
		{
			"buffer":0,
			"byteLength":24,
			"byteOffset":102000
		},
		{
			"buffer":0,
			"byteLength":1936,
			"byteOffset":102024
		},
		{
			"buffer":0,
			"byteLength":100,
			"byteOffset":103960
		},
		{
			"buffer":0,
			"byteLength":300,
			"byteOffset":104060
		},
		{
			"buffer":0,
			"byteLength":8,
			"byteOffset":104360
		},
		{
			"buffer":0,
			"byteLength":400,
			"byteOffset":104368
		},
		{
			"buffer":0,
			"byteLength":400,
			"byteOffset":104768
		},
		{
			"buffer":0,
			"byteLength":400,
			"byteOffset":105168
		},
		{
			"buffer":0,
			"byteLength":32,
			"byteOffset":105568
		},
		{
			"buffer":0,
			"byteLength":68,
			"byteOffset":105600
		},
		{
			"buffer":0,
			"byteLength":204,
			"byteOffset":105668
		},
		{
			"buffer":0,
			"byteLength":272,
			"byteOffset":105872
		},
		{
			"buffer":0,
			"byteLength":8,
			"byteOffset":106144
		},
		{
			"buffer":0,
			"byteLength":24,
			"byteOffset":106152
		},
		{
			"buffer":0,
			"byteLength":272,
			"byteOffset":106176
		},
		{
			"buffer":0,
			"byteLength":24,
			"byteOffset":106448
		},
		{
			"buffer":0,
			"byteLength":272,
			"byteOffset":106472
		},
		{
			"buffer":0,
			"byteLength":24,
			"byteOffset":106744
		},
		{
			"buffer":0,
			"byteLength":24,
			"byteOffset":106768
		},
		{
			"buffer":0,
			"byteLength":272,
			"byteOffset":106792
		},
		{
			"buffer":0,
			"byteLength":24,
			"byteOffset":107064
		},
		{
			"buffer":0,
			"byteLength":272,
			"byteOffset":107088
		},
		{
			"buffer":0,
			"byteLength":24,
			"byteOffset":107360
		},
		{
			"buffer":0,
			"byteLength":272,
			"byteOffset":107384
		},
		{
			"buffer":0,
			"byteLength":24,
			"byteOffset":107656
		}
	],
	"buffers":[
		{
			"byteLength":107680,
			"uri":"baer.bin"
		}
	]
}
