{
	"asset":{
		"generator":"Khronos glTF Blender I/O v5.2.40",
		"version":"2.0"
	},
	"scene":0,
	"scenes":[
		{
			"name":"Scene",
			"nodes":[
				14
			]
		}
	],
	"nodes":[
		{
			"name":"Bein.HL.unten",
			"rotation":[
				0.317406564950943,
				0.0007885408704169095,
				0.015125824138522148,
				0.9481685757637024
			],
			"translation":[
				3.4496583367626954e-09,
				0.11657234281301498,
				6.892671766678404e-09
			]
		},
		{
			"children":[
				0
			],
			"name":"Bein.HL.oben",
			"rotation":[
				5.531812874437492e-08,
				-0.7764236330986023,
				0.6302114129066467,
				5.8618351062023066e-08
			],
			"scale":[
				1,
				0.9999999403953552,
				1
			],
			"translation":[
				-0.05719999969005585,
				0.013645384460687637,
				-0.031093107536435127
			]
		},
		{
			"name":"Bein.HR.unten",
			"rotation":[
				0.317406564950943,
				-0.0007885275990702212,
				-0.015125816687941551,
				0.9481685757637024
			],
			"translation":[
				-4.000922260161133e-09,
				0.11657233536243439,
				8.008488983080042e-09
			]
		},
		{
			"children":[
				2
			],
			"name":"Bein.HR.oben",
			"rotation":[
				5.531812874437492e-08,
				-0.7764236330986023,
				0.6302114129066467,
				5.8618351062023066e-08
			],
			"scale":[
				1,
				0.9999999403953552,
				1
			],
			"translation":[
				0.05719999223947525,
				0.013645382598042488,
				-0.031093154102563858
			]
		},
		{
			"name":"Bein.VL.unten",
			"rotation":[
				-0.0903497189283371,
				7.868310802905398e-08,
				-1.875573030218902e-09,
				0.995910108089447
			],
			"scale":[
				1,
				0.9999999403953552,
				1
			],
			"translation":[
				-3.883410482075078e-09,
				0.1404956579208374,
				1.2528654558252583e-08
			]
		},
		{
			"children":[
				4
			],
			"name":"Bein.VL.oben",
			"rotation":[
				6.261586094069571e-08,
				-0.6705772876739502,
				0.7418397068977356,
				5.062717534087824e-08
			],
			"scale":[
				1,
				0.9999997019767761,
				0.9999998211860657
			],
			"translation":[
				-0.052000004798173904,
				0.3613363802433014,
				-0.053306613117456436
			]
		},
		{
			"name":"Bein.VR.unten",
			"rotation":[
				-0.0903497189283371,
				7.868310802905398e-08,
				-1.875573030218902e-09,
				0.995910108089447
			],
			"scale":[
				1,
				0.9999999403953552,
				1
			],
			"translation":[
				-3.883410926164288e-09,
				0.1404956579208374,
				1.2151393669057597e-08
			]
		},
		{
			"children":[
				6
			],
			"name":"Bein.VR.oben",
			"rotation":[
				6.261586094069571e-08,
				-0.6705772876739502,
				0.7418397068977356,
				5.062717534087824e-08
			],
			"scale":[
				1,
				0.9999997019767761,
				0.9999998211860657
			],
			"translation":[
				0.05199998989701271,
				0.3613363802433014,
				-0.05330665782094002
			]
		},
		{
			"name":"Kopf",
			"rotation":[
				-0.2426946610212326,
				4.564021144522201e-13,
				-2.121701747626048e-08,
				0.9701027274131775
			],
			"translation":[
				5.224052408784848e-16,
				0.1967468410730362,
				4.470348358154297e-08
			]
		},
		{
			"children":[
				8
			],
			"name":"Hals",
			"rotation":[
				0.1939568668603897,
				1.1694555013264107e-07,
				-6.165330024288096e-09,
				0.9810100793838501
			],
			"scale":[
				1,
				0.9999998807907104,
				0.9999999403953552
			],
			"translation":[
				-1.6651894825455175e-15,
				0.37516331672668457,
				-9.313225746154785e-10
			]
		},
		{
			"name":"Schwanz2",
			"rotation":[
				0.11301868408918381,
				2.96116802189772e-08,
				3.368187950769652e-09,
				0.9935929179191589
			],
			"scale":[
				1,
				1,
				0.9999999403953552
			],
			"translation":[
				-1.9905274260476058e-20,
				0.13853460550308228,
				-2.9802322387695312e-08
			]
		},
		{
			"children":[
				10
			],
			"name":"Schwanz1",
			"rotation":[
				7.145105485051317e-08,
				-0.3230263292789459,
				0.9463899731636047,
				2.4387794894664694e-08
			],
			"scale":[
				1,
				1.0000001192092896,
				1.0000001192092896
			],
			"translation":[
				1.2842009677882515e-09,
				-0.051562536507844925,
				0.008504854515194893
			]
		},
		{
			"children":[
				1,
				3,
				5,
				7,
				9,
				11
			],
			"name":"Koerper",
			"rotation":[
				5.165516725469388e-08,
				0.7293006777763367,
				0.6841933727264404,
				5.506067424221328e-08
			],
			"scale":[
				1,
				1.000000238418579,
				1.0000041723251343
			],
			"translation":[
				0,
				0.3296799957752228,
				-0.18719999492168427
			]
		},
		{
			"mesh":0,
			"name":"Fuchs",
			"skin":0
		},
		{
			"children":[
				13,
				12
			],
			"name":"FuchsSkelett"
		}
	],
	"animations":[
		{
			"channels":[
				{
					"sampler":0,
					"target":{
						"node":12,
						"path":"translation"
					}
				},
				{
					"sampler":1,
					"target":{
						"node":12,
						"path":"rotation"
					}
				},
				{
					"sampler":2,
					"target":{
						"node":12,
						"path":"scale"
					}
				},
				{
					"sampler":3,
					"target":{
						"node":1,
						"path":"translation"
					}
				},
				{
					"sampler":4,
					"target":{
						"node":1,
						"path":"rotation"
					}
				},
				{
					"sampler":5,
					"target":{
						"node":1,
						"path":"scale"
					}
				},
				{
					"sampler":6,
					"target":{
						"node":0,
						"path":"translation"
					}
				},
				{
					"sampler":7,
					"target":{
						"node":0,
						"path":"rotation"
					}
				},
				{
					"sampler":8,
					"target":{
						"node":0,
						"path":"scale"
					}
				},
				{
					"sampler":9,
					"target":{
						"node":3,
						"path":"translation"
					}
				},
				{
					"sampler":10,
					"target":{
						"node":3,
						"path":"rotation"
					}
				},
				{
					"sampler":11,
					"target":{
						"node":3,
						"path":"scale"
					}
				},
				{
					"sampler":12,
					"target":{
						"node":2,
						"path":"translation"
					}
				},
				{
					"sampler":13,
					"target":{
						"node":2,
						"path":"rotation"
					}
				},
				{
					"sampler":14,
					"target":{
						"node":2,
						"path":"scale"
					}
				},
				{
					"sampler":15,
					"target":{
						"node":5,
						"path":"translation"
					}
				},
				{
					"sampler":16,
					"target":{
						"node":5,
						"path":"rotation"
					}
				},
				{
					"sampler":17,
					"target":{
						"node":5,
						"path":"scale"
					}
				},
				{
					"sampler":18,
					"target":{
						"node":4,
						"path":"translation"
					}
				},
				{
					"sampler":19,
					"target":{
						"node":4,
						"path":"rotation"
					}
				},
				{
					"sampler":20,
					"target":{
						"node":4,
						"path":"scale"
					}
				},
				{
					"sampler":21,
					"target":{
						"node":7,
						"path":"translation"
					}
				},
				{
					"sampler":22,
					"target":{
						"node":7,
						"path":"rotation"
					}
				},
				{
					"sampler":23,
					"target":{
						"node":7,
						"path":"scale"
					}
				},
				{
					"sampler":24,
					"target":{
						"node":6,
						"path":"translation"
					}
				},
				{
					"sampler":25,
					"target":{
						"node":6,
						"path":"rotation"
					}
				},
				{
					"sampler":26,
					"target":{
						"node":6,
						"path":"scale"
					}
				},
				{
					"sampler":27,
					"target":{
						"node":9,
						"path":"translation"
					}
				},
				{
					"sampler":28,
					"target":{
						"node":9,
						"path":"rotation"
					}
				},
				{
					"sampler":29,
					"target":{
						"node":9,
						"path":"scale"
					}
				},
				{
					"sampler":30,
					"target":{
						"node":8,
						"path":"translation"
					}
				},
				{
					"sampler":31,
					"target":{
						"node":8,
						"path":"rotation"
					}
				},
				{
					"sampler":32,
					"target":{
						"node":8,
						"path":"scale"
					}
				},
				{
					"sampler":33,
					"target":{
						"node":11,
						"path":"translation"
					}
				},
				{
					"sampler":34,
					"target":{
						"node":11,
						"path":"rotation"
					}
				},
				{
					"sampler":35,
					"target":{
						"node":11,
						"path":"scale"
					}
				},
				{
					"sampler":36,
					"target":{
						"node":10,
						"path":"translation"
					}
				},
				{
					"sampler":37,
					"target":{
						"node":10,
						"path":"rotation"
					}
				},
				{
					"sampler":38,
					"target":{
						"node":10,
						"path":"scale"
					}
				}
			],
			"name":"Idle",
			"samplers":[
				{
					"input":7,
					"interpolation":"LINEAR",
					"output":8
				},
				{
					"input":9,
					"interpolation":"STEP",
					"output":10
				},
				{
					"input":9,
					"interpolation":"STEP",
					"output":11
				},
				{
					"input":9,
					"interpolation":"STEP",
					"output":12
				},
				{
					"input":9,
					"interpolation":"STEP",
					"output":13
				},
				{
					"input":9,
					"interpolation":"STEP",
					"output":14
				},
				{
					"input":9,
					"interpolation":"STEP",
					"output":15
				},
				{
					"input":9,
					"interpolation":"STEP",
					"output":16
				},
				{
					"input":9,
					"interpolation":"STEP",
					"output":17
				},
				{
					"input":9,
					"interpolation":"STEP",
					"output":18
				},
				{
					"input":9,
					"interpolation":"STEP",
					"output":13
				},
				{
					"input":9,
					"interpolation":"STEP",
					"output":14
				},
				{
					"input":9,
					"interpolation":"STEP",
					"output":19
				},
				{
					"input":9,
					"interpolation":"STEP",
					"output":20
				},
				{
					"input":9,
					"interpolation":"STEP",
					"output":17
				},
				{
					"input":9,
					"interpolation":"STEP",
					"output":21
				},
				{
					"input":9,
					"interpolation":"STEP",
					"output":22
				},
				{
					"input":9,
					"interpolation":"STEP",
					"output":23
				},
				{
					"input":9,
					"interpolation":"STEP",
					"output":24
				},
				{
					"input":9,
					"interpolation":"STEP",
					"output":25
				},
				{
					"input":9,
					"interpolation":"STEP",
					"output":14
				},
				{
					"input":9,
					"interpolation":"STEP",
					"output":26
				},
				{
					"input":9,
					"interpolation":"STEP",
					"output":22
				},
				{
					"input":9,
					"interpolation":"STEP",
					"output":23
				},
				{
					"input":9,
					"interpolation":"STEP",
					"output":27
				},
				{
					"input":9,
					"interpolation":"STEP",
					"output":25
				},
				{
					"input":9,
					"interpolation":"STEP",
					"output":14
				},
				{
					"input":9,
					"interpolation":"STEP",
					"output":28
				},
				{
					"input":7,
					"interpolation":"LINEAR",
					"output":29
				},
				{
					"input":9,
					"interpolation":"STEP",
					"output":30
				},
				{
					"input":9,
					"interpolation":"STEP",
					"output":31
				},
				{
					"input":7,
					"interpolation":"LINEAR",
					"output":32
				},
				{
					"input":9,
					"interpolation":"STEP",
					"output":33
				},
				{
					"input":9,
					"interpolation":"STEP",
					"output":34
				},
				{
					"input":7,
					"interpolation":"LINEAR",
					"output":35
				},
				{
					"input":9,
					"interpolation":"STEP",
					"output":36
				},
				{
					"input":9,
					"interpolation":"STEP",
					"output":37
				},
				{
					"input":7,
					"interpolation":"LINEAR",
					"output":38
				},
				{
					"input":9,
					"interpolation":"STEP",
					"output":39
				}
			]
		},
		{
			"channels":[
				{
					"sampler":0,
					"target":{
						"node":12,
						"path":"translation"
					}
				},
				{
					"sampler":1,
					"target":{
						"node":12,
						"path":"rotation"
					}
				},
				{
					"sampler":2,
					"target":{
						"node":12,
						"path":"scale"
					}
				},
				{
					"sampler":3,
					"target":{
						"node":1,
						"path":"translation"
					}
				},
				{
					"sampler":4,
					"target":{
						"node":1,
						"path":"rotation"
					}
				},
				{
					"sampler":5,
					"target":{
						"node":1,
						"path":"scale"
					}
				},
				{
					"sampler":6,
					"target":{
						"node":0,
						"path":"translation"
					}
				},
				{
					"sampler":7,
					"target":{
						"node":0,
						"path":"rotation"
					}
				},
				{
					"sampler":8,
					"target":{
						"node":0,
						"path":"scale"
					}
				},
				{
					"sampler":9,
					"target":{
						"node":3,
						"path":"translation"
					}
				},
				{
					"sampler":10,
					"target":{
						"node":3,
						"path":"rotation"
					}
				},
				{
					"sampler":11,
					"target":{
						"node":3,
						"path":"scale"
					}
				},
				{
					"sampler":12,
					"target":{
						"node":2,
						"path":"translation"
					}
				},
				{
					"sampler":13,
					"target":{
						"node":2,
						"path":"rotation"
					}
				},
				{
					"sampler":14,
					"target":{
						"node":2,
						"path":"scale"
					}
				},
				{
					"sampler":15,
					"target":{
						"node":5,
						"path":"translation"
					}
				},
				{
					"sampler":16,
					"target":{
						"node":5,
						"path":"rotation"
					}
				},
				{
					"sampler":17,
					"target":{
						"node":5,
						"path":"scale"
					}
				},
				{
					"sampler":18,
					"target":{
						"node":4,
						"path":"translation"
					}
				},
				{
					"sampler":19,
					"target":{
						"node":4,
						"path":"rotation"
					}
				},
				{
					"sampler":20,
					"target":{
						"node":4,
						"path":"scale"
					}
				},
				{
					"sampler":21,
					"target":{
						"node":7,
						"path":"translation"
					}
				},
				{
					"sampler":22,
					"target":{
						"node":7,
						"path":"rotation"
					}
				},
				{
					"sampler":23,
					"target":{
						"node":7,
						"path":"scale"
					}
				},
				{
					"sampler":24,
					"target":{
						"node":6,
						"path":"translation"
					}
				},
				{
					"sampler":25,
					"target":{
						"node":6,
						"path":"rotation"
					}
				},
				{
					"sampler":26,
					"target":{
						"node":6,
						"path":"scale"
					}
				},
				{
					"sampler":27,
					"target":{
						"node":9,
						"path":"translation"
					}
				},
				{
					"sampler":28,
					"target":{
						"node":9,
						"path":"rotation"
					}
				},
				{
					"sampler":29,
					"target":{
						"node":9,
						"path":"scale"
					}
				},
				{
					"sampler":30,
					"target":{
						"node":8,
						"path":"translation"
					}
				},
				{
					"sampler":31,
					"target":{
						"node":8,
						"path":"rotation"
					}
				},
				{
					"sampler":32,
					"target":{
						"node":8,
						"path":"scale"
					}
				},
				{
					"sampler":33,
					"target":{
						"node":11,
						"path":"translation"
					}
				},
				{
					"sampler":34,
					"target":{
						"node":11,
						"path":"rotation"
					}
				},
				{
					"sampler":35,
					"target":{
						"node":11,
						"path":"scale"
					}
				},
				{
					"sampler":36,
					"target":{
						"node":10,
						"path":"translation"
					}
				},
				{
					"sampler":37,
					"target":{
						"node":10,
						"path":"rotation"
					}
				},
				{
					"sampler":38,
					"target":{
						"node":10,
						"path":"scale"
					}
				}
			],
			"name":"Laufen",
			"samplers":[
				{
					"input":40,
					"interpolation":"LINEAR",
					"output":41
				},
				{
					"input":42,
					"interpolation":"STEP",
					"output":10
				},
				{
					"input":42,
					"interpolation":"STEP",
					"output":11
				},
				{
					"input":42,
					"interpolation":"STEP",
					"output":12
				},
				{
					"input":40,
					"interpolation":"LINEAR",
					"output":43
				},
				{
					"input":42,
					"interpolation":"STEP",
					"output":14
				},
				{
					"input":42,
					"interpolation":"STEP",
					"output":44
				},
				{
					"input":40,
					"interpolation":"LINEAR",
					"output":45
				},
				{
					"input":42,
					"interpolation":"STEP",
					"output":17
				},
				{
					"input":42,
					"interpolation":"STEP",
					"output":18
				},
				{
					"input":40,
					"interpolation":"LINEAR",
					"output":46
				},
				{
					"input":42,
					"interpolation":"STEP",
					"output":47
				},
				{
					"input":42,
					"interpolation":"STEP",
					"output":48
				},
				{
					"input":40,
					"interpolation":"LINEAR",
					"output":49
				},
				{
					"input":42,
					"interpolation":"STEP",
					"output":50
				},
				{
					"input":42,
					"interpolation":"STEP",
					"output":21
				},
				{
					"input":40,
					"interpolation":"LINEAR",
					"output":51
				},
				{
					"input":42,
					"interpolation":"STEP",
					"output":23
				},
				{
					"input":42,
					"interpolation":"STEP",
					"output":52
				},
				{
					"input":40,
					"interpolation":"LINEAR",
					"output":53
				},
				{
					"input":42,
					"interpolation":"STEP",
					"output":14
				},
				{
					"input":42,
					"interpolation":"STEP",
					"output":26
				},
				{
					"input":40,
					"interpolation":"LINEAR",
					"output":54
				},
				{
					"input":42,
					"interpolation":"STEP",
					"output":23
				},
				{
					"input":42,
					"interpolation":"STEP",
					"output":55
				},
				{
					"input":40,
					"interpolation":"LINEAR",
					"output":56
				},
				{
					"input":42,
					"interpolation":"STEP",
					"output":14
				},
				{
					"input":42,
					"interpolation":"STEP",
					"output":28
				},
				{
					"input":42,
					"interpolation":"STEP",
					"output":57
				},
				{
					"input":42,
					"interpolation":"STEP",
					"output":39
				},
				{
					"input":42,
					"interpolation":"STEP",
					"output":58
				},
				{
					"input":40,
					"interpolation":"LINEAR",
					"output":59
				},
				{
					"input":42,
					"interpolation":"STEP",
					"output":33
				},
				{
					"input":42,
					"interpolation":"STEP",
					"output":34
				},
				{
					"input":40,
					"interpolation":"LINEAR",
					"output":60
				},
				{
					"input":42,
					"interpolation":"STEP",
					"output":36
				},
				{
					"input":42,
					"interpolation":"STEP",
					"output":37
				},
				{
					"input":40,
					"interpolation":"LINEAR",
					"output":61
				},
				{
					"input":42,
					"interpolation":"STEP",
					"output":39
				}
			]
		},
		{
			"channels":[
				{
					"sampler":0,
					"target":{
						"node":12,
						"path":"translation"
					}
				},
				{
					"sampler":1,
					"target":{
						"node":12,
						"path":"rotation"
					}
				},
				{
					"sampler":2,
					"target":{
						"node":12,
						"path":"scale"
					}
				},
				{
					"sampler":3,
					"target":{
						"node":1,
						"path":"translation"
					}
				},
				{
					"sampler":4,
					"target":{
						"node":1,
						"path":"rotation"
					}
				},
				{
					"sampler":5,
					"target":{
						"node":1,
						"path":"scale"
					}
				},
				{
					"sampler":6,
					"target":{
						"node":0,
						"path":"translation"
					}
				},
				{
					"sampler":7,
					"target":{
						"node":0,
						"path":"rotation"
					}
				},
				{
					"sampler":8,
					"target":{
						"node":0,
						"path":"scale"
					}
				},
				{
					"sampler":9,
					"target":{
						"node":3,
						"path":"translation"
					}
				},
				{
					"sampler":10,
					"target":{
						"node":3,
						"path":"rotation"
					}
				},
				{
					"sampler":11,
					"target":{
						"node":3,
						"path":"scale"
					}
				},
				{
					"sampler":12,
					"target":{
						"node":2,
						"path":"translation"
					}
				},
				{
					"sampler":13,
					"target":{
						"node":2,
						"path":"rotation"
					}
				},
				{
					"sampler":14,
					"target":{
						"node":2,
						"path":"scale"
					}
				},
				{
					"sampler":15,
					"target":{
						"node":5,
						"path":"translation"
					}
				},
				{
					"sampler":16,
					"target":{
						"node":5,
						"path":"rotation"
					}
				},
				{
					"sampler":17,
					"target":{
						"node":5,
						"path":"scale"
					}
				},
				{
					"sampler":18,
					"target":{
						"node":4,
						"path":"translation"
					}
				},
				{
					"sampler":19,
					"target":{
						"node":4,
						"path":"rotation"
					}
				},
				{
					"sampler":20,
					"target":{
						"node":4,
						"path":"scale"
					}
				},
				{
					"sampler":21,
					"target":{
						"node":7,
						"path":"translation"
					}
				},
				{
					"sampler":22,
					"target":{
						"node":7,
						"path":"rotation"
					}
				},
				{
					"sampler":23,
					"target":{
						"node":7,
						"path":"scale"
					}
				},
				{
					"sampler":24,
					"target":{
						"node":6,
						"path":"translation"
					}
				},
				{
					"sampler":25,
					"target":{
						"node":6,
						"path":"rotation"
					}
				},
				{
					"sampler":26,
					"target":{
						"node":6,
						"path":"scale"
					}
				},
				{
					"sampler":27,
					"target":{
						"node":9,
						"path":"translation"
					}
				},
				{
					"sampler":28,
					"target":{
						"node":9,
						"path":"rotation"
					}
				},
				{
					"sampler":29,
					"target":{
						"node":9,
						"path":"scale"
					}
				},
				{
					"sampler":30,
					"target":{
						"node":8,
						"path":"translation"
					}
				},
				{
					"sampler":31,
					"target":{
						"node":8,
						"path":"rotation"
					}
				},
				{
					"sampler":32,
					"target":{
						"node":8,
						"path":"scale"
					}
				},
				{
					"sampler":33,
					"target":{
						"node":11,
						"path":"translation"
					}
				},
				{
					"sampler":34,
					"target":{
						"node":11,
						"path":"rotation"
					}
				},
				{
					"sampler":35,
					"target":{
						"node":11,
						"path":"scale"
					}
				},
				{
					"sampler":36,
					"target":{
						"node":10,
						"path":"translation"
					}
				},
				{
					"sampler":37,
					"target":{
						"node":10,
						"path":"rotation"
					}
				},
				{
					"sampler":38,
					"target":{
						"node":10,
						"path":"scale"
					}
				}
			],
			"name":"Rennen",
			"samplers":[
				{
					"input":62,
					"interpolation":"LINEAR",
					"output":63
				},
				{
					"input":62,
					"interpolation":"LINEAR",
					"output":64
				},
				{
					"input":65,
					"interpolation":"STEP",
					"output":66
				},
				{
					"input":65,
					"interpolation":"STEP",
					"output":67
				},
				{
					"input":62,
					"interpolation":"LINEAR",
					"output":68
				},
				{
					"input":65,
					"interpolation":"STEP",
					"output":14
				},
				{
					"input":65,
					"interpolation":"STEP",
					"output":69
				},
				{
					"input":62,
					"interpolation":"LINEAR",
					"output":70
				},
				{
					"input":65,
					"interpolation":"STEP",
					"output":71
				},
				{
					"input":65,
					"interpolation":"STEP",
					"output":72
				},
				{
					"input":62,
					"interpolation":"LINEAR",
					"output":73
				},
				{
					"input":65,
					"interpolation":"STEP",
					"output":14
				},
				{
					"input":65,
					"interpolation":"STEP",
					"output":74
				},
				{
					"input":62,
					"interpolation":"LINEAR",
					"output":75
				},
				{
					"input":65,
					"interpolation":"STEP",
					"output":76
				},
				{
					"input":65,
					"interpolation":"STEP",
					"output":77
				},
				{
					"input":62,
					"interpolation":"LINEAR",
					"output":78
				},
				{
					"input":65,
					"interpolation":"STEP",
					"output":79
				},
				{
					"input":65,
					"interpolation":"STEP",
					"output":80
				},
				{
					"input":62,
					"interpolation":"LINEAR",
					"output":81
				},
				{
					"input":65,
					"interpolation":"STEP",
					"output":14
				},
				{
					"input":65,
					"interpolation":"STEP",
					"output":82
				},
				{
					"input":62,
					"interpolation":"LINEAR",
					"output":83
				},
				{
					"input":65,
					"interpolation":"STEP",
					"output":79
				},
				{
					"input":65,
					"interpolation":"STEP",
					"output":84
				},
				{
					"input":62,
					"interpolation":"LINEAR",
					"output":85
				},
				{
					"input":65,
					"interpolation":"STEP",
					"output":86
				},
				{
					"input":65,
					"interpolation":"STEP",
					"output":87
				},
				{
					"input":65,
					"interpolation":"STEP",
					"output":88
				},
				{
					"input":65,
					"interpolation":"STEP",
					"output":89
				},
				{
					"input":65,
					"interpolation":"STEP",
					"output":90
				},
				{
					"input":62,
					"interpolation":"LINEAR",
					"output":91
				},
				{
					"input":65,
					"interpolation":"STEP",
					"output":14
				},
				{
					"input":65,
					"interpolation":"STEP",
					"output":92
				},
				{
					"input":62,
					"interpolation":"LINEAR",
					"output":93
				},
				{
					"input":65,
					"interpolation":"STEP",
					"output":94
				},
				{
					"input":65,
					"interpolation":"STEP",
					"output":95
				},
				{
					"input":62,
					"interpolation":"LINEAR",
					"output":96
				},
				{
					"input":65,
					"interpolation":"STEP",
					"output":33
				}
			]
		}
	],
	"materials":[
		{
			"doubleSided":true,
			"name":"Fuchs",
			"pbrMetallicRoughness":{
				"metallicFactor":0,
				"roughnessFactor":0.8999999761581421
			}
		}
	],
	"meshes":[
		{
			"name":"Mesh",
			"primitives":[
				{
					"attributes":{
						"POSITION":0,
						"NORMAL":1,
						"COLOR_0":2,
						"JOINTS_0":3,
						"WEIGHTS_0":4
					},
					"indices":5,
					"material":0
				}
			]
		}
	],
	"skins":[
		{
			"inverseBindMatrices":6,
			"joints":[
				12,
				1,
				0,
				3,
				2,
				5,
				4,
				7,
				6,
				9,
				8,
				11,
				10
			],
			"name":"FuchsSkelett"
		}
	],
	"accessors":[
		{
			"bufferView":0,
			"componentType":5126,
			"count":6284,
			"max":[
				0.11212864518165588,
				0.5631599426269531,
				0.5851039886474609
			],
			"min":[
				-0.11174184083938599,
				0,
				-0.509743869304657
			],
			"type":"VEC3"
		},
		{
			"bufferView":1,
			"componentType":5126,
			"count":6284,
			"type":"VEC3"
		},
		{
			"bufferView":2,
			"componentType":5126,
			"count":6284,
			"type":"VEC3"
		},
		{
			"bufferView":3,
			"componentType":5121,
			"count":6284,
			"type":"VEC4"
		},
		{
			"bufferView":4,
			"componentType":5126,
			"count":6284,
			"type":"VEC4"
		},
		{
			"bufferView":5,
			"componentType":5123,
			"count":7068,
			"type":"SCALAR"
		},
		{
			"bufferView":6,
			"componentType":5126,
			"count":13,
			"type":"MAT4"
		},
		{
			"bufferView":7,
			"componentType":5126,
			"count":181,
			"max":[
				6
			],
			"min":[
				0
			],
			"type":"SCALAR"
		},
		{
			"bufferView":8,
			"componentType":5126,
			"count":181,
			"type":"VEC3"
		},
		{
			"bufferView":9,
			"componentType":5126,
			"count":2,
			"max":[
				6
			],
			"min":[
				0
			],
			"type":"SCALAR"
		},
		{
			"bufferView":10,
			"componentType":5126,
			"count":2,
			"type":"VEC4"
		},
		{
			"bufferView":11,
			"componentType":5126,
			"count":2,
			"type":"VEC3"
		},
		{
			"bufferView":12,
			"componentType":5126,
			"count":2,
			"type":"VEC3"
		},
		{
			"bufferView":13,
			"componentType":5126,
			"count":2,
			"type":"VEC4"
		},
		{
			"bufferView":14,
			"componentType":5126,
			"count":2,
			"type":"VEC3"
		},
		{
			"bufferView":15,
			"componentType":5126,
			"count":2,
			"type":"VEC3"
		},
		{
			"bufferView":16,
			"componentType":5126,
			"count":2,
			"type":"VEC4"
		},
		{
			"bufferView":17,
			"componentType":5126,
			"count":2,
			"type":"VEC3"
		},
		{
			"bufferView":18,
			"componentType":5126,
			"count":2,
			"type":"VEC3"
		},
		{
			"bufferView":19,
			"componentType":5126,
			"count":2,
			"type":"VEC3"
		},
		{
			"bufferView":20,
			"componentType":5126,
			"count":2,
			"type":"VEC4"
		},
		{
			"bufferView":21,
			"componentType":5126,
			"count":2,
			"type":"VEC3"
		},
		{
			"bufferView":22,
			"componentType":5126,
			"count":2,
			"type":"VEC4"
		},
		{
			"bufferView":23,
			"componentType":5126,
			"count":2,
			"type":"VEC3"
		},
		{
			"bufferView":24,
			"componentType":5126,
			"count":2,
			"type":"VEC3"
		},
		{
			"bufferView":25,
			"componentType":5126,
			"count":2,
			"type":"VEC4"
		},
		{
			"bufferView":26,
			"componentType":5126,
			"count":2,
			"type":"VEC3"
		},
		{
			"bufferView":27,
			"componentType":5126,
			"count":2,
			"type":"VEC3"
		},
		{
			"bufferView":28,
			"componentType":5126,
			"count":2,
			"type":"VEC3"
		},
		{
			"bufferView":29,
			"componentType":5126,
			"count":181,
			"type":"VEC4"
		},
		{
			"bufferView":30,
			"componentType":5126,
			"count":2,
			"type":"VEC3"
		},
		{
			"bufferView":31,
			"componentType":5126,
			"count":2,
			"type":"VEC3"
		},
		{
			"bufferView":32,
			"componentType":5126,
			"count":181,
			"type":"VEC4"
		},
		{
			"bufferView":33,
			"componentType":5126,
			"count":2,
			"type":"VEC3"
		},
		{
			"bufferView":34,
			"componentType":5126,
			"count":2,
			"type":"VEC3"
		},
		{
			"bufferView":35,
			"componentType":5126,
			"count":181,
			"type":"VEC4"
		},
		{
			"bufferView":36,
			"componentType":5126,
			"count":2,
			"type":"VEC3"
		},
		{
			"bufferView":37,
			"componentType":5126,
			"count":2,
			"type":"VEC3"
		},
		{
			"bufferView":38,
			"componentType":5126,
			"count":181,
			"type":"VEC4"
		},
		{
			"bufferView":39,
			"componentType":5126,
			"count":2,
			"type":"VEC3"
		},
		{
			"bufferView":40,
			"componentType":5126,
			"count":19,
			"max":[
				0.6
			],
			"min":[
				0
			],
			"type":"SCALAR"
		},
		{
			"bufferView":41,
			"componentType":5126,
			"count":19,
			"type":"VEC3"
		},
		{
			"bufferView":42,
			"componentType":5126,
			"count":2,
			"max":[
				0.6
			],
			"min":[
				0
			],
			"type":"SCALAR"
		},
		{
			"bufferView":43,
			"componentType":5126,
			"count":19,
			"type":"VEC4"
		},
		{
			"bufferView":44,
			"componentType":5126,
			"count":2,
			"type":"VEC3"
		},
		{
			"bufferView":45,
			"componentType":5126,
			"count":19,
			"type":"VEC4"
		},
		{
			"bufferView":46,
			"componentType":5126,
			"count":19,
			"type":"VEC4"
		},
		{
			"bufferView":47,
			"componentType":5126,
			"count":2,
			"type":"VEC3"
		},
		{
			"bufferView":48,
			"componentType":5126,
			"count":2,
			"type":"VEC3"
		},
		{
			"bufferView":49,
			"componentType":5126,
			"count":19,
			"type":"VEC4"
		},
		{
			"bufferView":50,
			"componentType":5126,
			"count":2,
			"type":"VEC3"
		},
		{
			"bufferView":51,
			"componentType":5126,
			"count":19,
			"type":"VEC4"
		},
		{
			"bufferView":52,
			"componentType":5126,
			"count":2,
			"type":"VEC3"
		},
		{
			"bufferView":53,
			"componentType":5126,
			"count":19,
			"type":"VEC4"
		},
		{
			"bufferView":54,
			"componentType":5126,
			"count":19,
			"type":"VEC4"
		},
		{
			"bufferView":55,
			"componentType":5126,
			"count":2,
			"type":"VEC3"
		},
		{
			"bufferView":56,
			"componentType":5126,
			"count":19,
			"type":"VEC4"
		},
		{
			"bufferView":57,
			"componentType":5126,
			"count":2,
			"type":"VEC4"
		},
		{
			"bufferView":58,
			"componentType":5126,
			"count":2,
			"type":"VEC3"
		},
		{
			"bufferView":59,
			"componentType":5126,
			"count":19,
			"type":"VEC4"
		},
		{
			"bufferView":60,
			"componentType":5126,
			"count":19,
			"type":"VEC4"
		},
		{
			"bufferView":61,
			"componentType":5126,
			"count":19,
			"type":"VEC4"
		},
		{
			"bufferView":62,
			"componentType":5126,
			"count":13,
			"max":[
				0.4
			],
			"min":[
				0
			],
			"type":"SCALAR"
		},
		{
			"bufferView":63,
			"componentType":5126,
			"count":13,
			"type":"VEC3"
		},
		{
			"bufferView":64,
			"componentType":5126,
			"count":13,
			"type":"VEC4"
		},
		{
			"bufferView":65,
			"componentType":5126,
			"count":2,
			"max":[
				0.4
			],
			"min":[
				0
			],
			"type":"SCALAR"
		},
		{
			"bufferView":66,
			"componentType":5126,
			"count":2,
			"type":"VEC3"
		},
		{
			"bufferView":67,
			"componentType":5126,
			"count":2,
			"type":"VEC3"
		},
		{
			"bufferView":68,
			"componentType":5126,
			"count":13,
			"type":"VEC4"
		},
		{
			"bufferView":69,
			"componentType":5126,
			"count":2,
			"type":"VEC3"
		},
		{
			"bufferView":70,
			"componentType":5126,
			"count":13,
			"type":"VEC4"
		},
		{
			"bufferView":71,
			"componentType":5126,
			"count":2,
			"type":"VEC3"
		},
		{
			"bufferView":72,
			"componentType":5126,
			"count":2,
			"type":"VEC3"
		},
		{
			"bufferView":73,
			"componentType":5126,
			"count":13,
			"type":"VEC4"
		},
		{
			"bufferView":74,
			"componentType":5126,
			"count":2,
			"type":"VEC3"
		},
		{
			"bufferView":75,
			"componentType":5126,
			"count":13,
			"type":"VEC4"
		},
		{
			"bufferView":76,
			"componentType":5126,
			"count":2,
			"type":"VEC3"
		},
		{
			"bufferView":77,
			"componentType":5126,
			"count":2,
			"type":"VEC3"
		},
		{
			"bufferView":78,
			"componentType":5126,
			"count":13,
			"type":"VEC4"
		},
		{
			"bufferView":79,
			"componentType":5126,
			"count":2,
			"type":"VEC3"
		},
		{
			"bufferView":80,
			"componentType":5126,
			"count":2,
			"type":"VEC3"
		},
		{
			"bufferView":81,
			"componentType":5126,
			"count":13,
			"type":"VEC4"
		},
		{
			"bufferView":82,
			"componentType":5126,
			"count":2,
			"type":"VEC3"
		},
		{
			"bufferView":83,
			"componentType":5126,
			"count":13,
			"type":"VEC4"
		},
		{
			"bufferView":84,
			"componentType":5126,
			"count":2,
			"type":"VEC3"
		},
		{
			"bufferView":85,
			"componentType":5126,
			"count":13,
			"type":"VEC4"
		},
		{
			"bufferView":86,
			"componentType":5126,
			"count":2,
			"type":"VEC3"
		},
		{
			"bufferView":87,
			"componentType":5126,
			"count":2,
			"type":"VEC3"
		},
		{
			"bufferView":88,
			"componentType":5126,
			"count":2,
			"type":"VEC4"
		},
		{
			"bufferView":89,
			"componentType":5126,
			"count":2,
			"type":"VEC3"
		},
		{
			"bufferView":90,
			"componentType":5126,
			"count":2,
			"type":"VEC3"
		},
		{
			"bufferView":91,
			"componentType":5126,
			"count":13,
			"type":"VEC4"
		},
		{
			"bufferView":92,
			"componentType":5126,
			"count":2,
			"type":"VEC3"
		},
		{
			"bufferView":93,
			"componentType":5126,
			"count":13,
			"type":"VEC4"
		},
		{
			"bufferView":94,
			"componentType":5126,
			"count":2,
			"type":"VEC3"
		},
		{
			"bufferView":95,
			"componentType":5126,
			"count":2,
			"type":"VEC3"
		},
		{
			"bufferView":96,
			"componentType":5126,
			"count":13,
			"type":"VEC4"
		}
	],
	"bufferViews":[
		{
			"buffer":0,
			"byteLength":75408,
			"byteOffset":0,
			"target":34962
		},
		{
			"buffer":0,
			"byteLength":75408,
			"byteOffset":75408,
			"target":34962
		},
		{
			"buffer":0,
			"byteLength":75408,
			"byteOffset":150816,
			"target":34962
		},
		{
			"buffer":0,
			"byteLength":25136,
			"byteOffset":226224,
			"target":34962
		},
		{
			"buffer":0,
			"byteLength":100544,
			"byteOffset":251360,
			"target":34962
		},
		{
			"buffer":0,
			"byteLength":14136,
			"byteOffset":351904,
			"target":34963
		},
		{
			"buffer":0,
			"byteLength":832,
			"byteOffset":366040
		},
		{
			"buffer":0,
			"byteLength":724,
			"byteOffset":366872
		},
		{
			"buffer":0,
			"byteLength":2172,
			"byteOffset":367596
		},
		{
			"buffer":0,
			"byteLength":8,
			"byteOffset":369768
		},
		{
			"buffer":0,
			"byteLength":32,
			"byteOffset":369776
		},
		{
			"buffer":0,
			"byteLength":24,
			"byteOffset":369808
		},
		{
			"buffer":0,
			"byteLength":24,
			"byteOffset":369832
		},
		{
			"buffer":0,
			"byteLength":32,
			"byteOffset":369856
		},
		{
			"buffer":0,
			"byteLength":24,
			"byteOffset":369888
		},
		{
			"buffer":0,
			"byteLength":24,
			"byteOffset":369912
		},
		{
			"buffer":0,
			"byteLength":32,
			"byteOffset":369936
		},
		{
			"buffer":0,
			"byteLength":24,
			"byteOffset":369968
		},
		{
			"buffer":0,
			"byteLength":24,
			"byteOffset":369992
		},
		{
			"buffer":0,
			"byteLength":24,
			"byteOffset":370016
		},
		{
			"buffer":0,
			"byteLength":32,
			"byteOffset":370040
		},
		{
			"buffer":0,
			"byteLength":24,
			"byteOffset":370072
		},
		{
			"buffer":0,
			"byteLength":32,
			"byteOffset":370096
		},
		{
			"buffer":0,
			"byteLength":24,
			"byteOffset":370128
		},
		{
			"buffer":0,
			"byteLength":24,
			"byteOffset":370152
		},
		{
			"buffer":0,
			"byteLength":32,
			"byteOffset":370176
		},
		{
			"buffer":0,
			"byteLength":24,
			"byteOffset":370208
		},
		{
			"buffer":0,
			"byteLength":24,
			"byteOffset":370232
		},
		{
			"buffer":0,
			"byteLength":24,
			"byteOffset":370256
		},
		{
			"buffer":0,
			"byteLength":2896,
			"byteOffset":370280
		},
		{
			"buffer":0,
			"byteLength":24,
			"byteOffset":373176
		},
		{
			"buffer":0,
			"byteLength":24,
			"byteOffset":373200
		},
		{
			"buffer":0,
			"byteLength":2896,
			"byteOffset":373224
		},
		{
			"buffer":0,
			"byteLength":24,
			"byteOffset":376120
		},
		{
			"buffer":0,
			"byteLength":24,
			"byteOffset":376144
		},
		{
			"buffer":0,
			"byteLength":2896,
			"byteOffset":376168
		},
		{
			"buffer":0,
			"byteLength":24,
			"byteOffset":379064
		},
		{
			"buffer":0,
			"byteLength":24,
			"byteOffset":379088
		},
		{
			"buffer":0,
			"byteLength":2896,
			"byteOffset":379112
		},
		{
			"buffer":0,
			"byteLength":24,
			"byteOffset":382008
		},
		{
			"buffer":0,
			"byteLength":76,
			"byteOffset":382032
		},
		{
			"buffer":0,
			"byteLength":228,
			"byteOffset":382108
		},
		{
			"buffer":0,
			"byteLength":8,
			"byteOffset":382336
		},
		{
			"buffer":0,
			"byteLength":304,
			"byteOffset":382344
		},
		{
			"buffer":0,
			"byteLength":24,
			"byteOffset":382648
		},
		{
			"buffer":0,
			"byteLength":304,
			"byteOffset":382672
		},
		{
			"buffer":0,
			"byteLength":304,
			"byteOffset":382976
		},
		{
			"buffer":0,
			"byteLength":24,
			"byteOffset":383280
		},
		{
			"buffer":0,
			"byteLength":24,
			"byteOffset":383304
		},
		{
			"buffer":0,
			"byteLength":304,
			"byteOffset":383328
		},
		{
			"buffer":0,
			"byteLength":24,
			"byteOffset":383632
		},
		{
			"buffer":0,
			"byteLength":304,
			"byteOffset":383656
		},
		{
			"buffer":0,
			"byteLength":24,
			"byteOffset":383960
		},
		{
			"buffer":0,
			"byteLength":304,
			"byteOffset":383984
		},
		{
			"buffer":0,
			"byteLength":304,
			"byteOffset":384288
		},
		{
			"buffer":0,
			"byteLength":24,
			"byteOffset":384592
		},
		{
			"buffer":0,
			"byteLength":304,
			"byteOffset":384616
		},
		{
			"buffer":0,
			"byteLength":32,
			"byteOffset":384920
		},
		{
			"buffer":0,
			"byteLength":24,
			"byteOffset":384952
		},
		{
			"buffer":0,
			"byteLength":304,
			"byteOffset":384976
		},
		{
			"buffer":0,
			"byteLength":304,
			"byteOffset":385280
		},
		{
			"buffer":0,
			"byteLength":304,
			"byteOffset":385584
		},
		{
			"buffer":0,
			"byteLength":52,
			"byteOffset":385888
		},
		{
			"buffer":0,
			"byteLength":156,
			"byteOffset":385940
		},
		{
			"buffer":0,
			"byteLength":208,
			"byteOffset":386096
		},
		{
			"buffer":0,
			"byteLength":8,
			"byteOffset":386304
		},
		{
			"buffer":0,
			"byteLength":24,
			"byteOffset":386312
		},
		{
			"buffer":0,
			"byteLength":24,
			"byteOffset":386336
		},
		{
			"buffer":0,
			"byteLength":208,
			"byteOffset":386360
		},
		{
			"buffer":0,
			"byteLength":24,
			"byteOffset":386568
		},
		{
			"buffer":0,
			"byteLength":208,
			"byteOffset":386592
		},
		{
			"buffer":0,
			"byteLength":24,
			"byteOffset":386800
		},
		{
			"buffer":0,
			"byteLength":24,
			"byteOffset":386824
		},
		{
			"buffer":0,
			"byteLength":208,
			"byteOffset":386848
		},
		{
			"buffer":0,
			"byteLength":24,
			"byteOffset":387056
		},
		{
			"buffer":0,
			"byteLength":208,
			"byteOffset":387080
		},
		{
			"buffer":0,
			"byteLength":24,
			"byteOffset":387288
		},
		{
			"buffer":0,
			"byteLength":24,
			"byteOffset":387312
		},
		{
			"buffer":0,
			"byteLength":208,
			"byteOffset":387336
		},
		{
			"buffer":0,
			"byteLength":24,
			"byteOffset":387544
		},
		{
			"buffer":0,
			"byteLength":24,
			"byteOffset":387568
		},
		{
			"buffer":0,
			"byteLength":208,
			"byteOffset":387592
		},
		{
			"buffer":0,
			"byteLength":24,
			"byteOffset":387800
		},
		{
			"buffer":0,
			"byteLength":208,
			"byteOffset":387824
		},
		{
			"buffer":0,
			"byteLength":24,
			"byteOffset":388032
		},
		{
			"buffer":0,
			"byteLength":208,
			"byteOffset":388056
		},
		{
			"buffer":0,
			"byteLength":24,
			"byteOffset":388264
		},
		{
			"buffer":0,
			"byteLength":24,
			"byteOffset":388288
		},
		{
			"buffer":0,
			"byteLength":32,
			"byteOffset":388312
		},
		{
			"buffer":0,
			"byteLength":24,
			"byteOffset":388344
		},
		{
			"buffer":0,
			"byteLength":24,
			"byteOffset":388368
		},
		{
			"buffer":0,
			"byteLength":208,
			"byteOffset":388392
		},
		{
			"buffer":0,
			"byteLength":24,
			"byteOffset":388600
		},
		{
			"buffer":0,
			"byteLength":208,
			"byteOffset":388624
		},
		{
			"buffer":0,
			"byteLength":24,
			"byteOffset":388832
		},
		{
			"buffer":0,
			"byteLength":24,
			"byteOffset":388856
		},
		{
			"buffer":0,
			"byteLength":208,
			"byteOffset":388880
		}
	],
	"buffers":[
		{
			"byteLength":389088,
			"uri":"fuchs.bin"
		}
	]
}
