{
	"asset":{
		"generator":"Khronos glTF Blender I/O v5.2.40",
		"version":"2.0"
	},
	"scene":0,
	"scenes":[
		{
			"name":"Scene",
			"nodes":[
				13
			]
		}
	],
	"nodes":[
		{
			"name":"Bein.HL.unten",
			"rotation":[
				0.24392426013946533,
				-0.0001762347819749266,
				0.010635042563080788,
				0.9697359204292297
			],
			"scale":[
				1,
				1.0000001192092896,
				1
			],
			"translation":[
				-9.604720574429848e-09,
				0.26925814151763916,
				-1.5514125095705822e-08
			]
		},
		{
			"children":[
				0
			],
			"name":"Bein.HL.oben",
			"rotation":[
				4.136768083640163e-08,
				0.784119188785553,
				-0.6206103563308716,
				5.919935830434042e-08
			],
			"scale":[
				1,
				0.9999998807907104,
				0.9999999403953552
			],
			"translation":[
				-0.08999999612569809,
				0.019365429878234863,
				-0.02061493508517742
			]
		},
		{
			"name":"Bein.HR.unten",
			"rotation":[
				0.24392427504062653,
				0.0001762440224410966,
				-0.01063503697514534,
				0.9697359204292297
			],
			"scale":[
				1,
				1.0000001192092896,
				1
			],
			"translation":[
				5.296440619417808e-09,
				0.26925814151763916,
				-1.428819729198949e-08
			]
		},
		{
			"children":[
				2
			],
			"name":"Bein.HR.oben",
			"rotation":[
				4.136768083640163e-08,
				0.784119188785553,
				-0.6206103563308716,
				5.919935830434042e-08
			],
			"scale":[
				1,
				0.9999998807907104,
				0.9999999403953552
			],
			"translation":[
				0.09000001102685928,
				0.019365429878234863,
				-0.020614907145500183
			]
		},
		{
			"name":"Bein.VL.unten",
			"rotation":[
				-0.04226656258106232,
				-7.873450158513151e-08,
				-8.480498969731798e-09,
				0.9991063475608826
			],
			"scale":[
				1,
				0.9999999403953552,
				0.9999998807907104
			],
			"translation":[
				9.03444608013615e-09,
				0.30016660690307617,
				-1.1359233553775994e-09
			]
		},
		{
			"children":[
				4
			],
			"name":"Bein.VL.oben",
			"rotation":[
				-1.6395972579630325e-07,
				-0.6839166879653931,
				0.729560136795044,
				5.163427729826253e-08
			],
			"scale":[
				1,
				1.000000238418579,
				1.0000001192092896
			],
			"translation":[
				-0.07999998331069946,
				0.6178234219551086,
				-0.07933628559112549
			]
		},
		{
			"name":"Bein.VR.unten",
			"rotation":[
				-0.04226655885577202,
				-7.873447316342208e-08,
				-8.480490087947601e-09,
				0.9991063475608826
			],
			"scale":[
				1,
				0.9999999403953552,
				0.9999998807907104
			],
			"translation":[
				-5.866721330960445e-09,
				0.30016663670539856,
				6.72386057942731e-09
			]
		},
		{
			"children":[
				6
			],
			"name":"Bein.VR.oben",
			"rotation":[
				-1.639596831637391e-07,
				-0.6839166879653931,
				0.729560136795044,
				5.163427374554885e-08
			],
			"scale":[
				1,
				1.000000238418579,
				1.0000001192092896
			],
			"translation":[
				0.08000001311302185,
				0.6178234219551086,
				-0.0793362632393837
			]
		},
		{
			"name":"Kopf",
			"rotation":[
				-0.47354865074157715,
				-3.149907854549383e-07,
				2.4086006078505307e-07,
				0.8807677030563354
			],
			"translation":[
				-3.898257381501104e-15,
				0.42011913657188416,
				4.470348358154297e-08
			]
		},
		{
			"children":[
				8
			],
			"name":"Hals",
			"rotation":[
				0.4224303960800171,
				-1.3686188538031274e-07,
				1.959803508171619e-14,
				0.9063953757286072
			],
			"scale":[
				1,
				0.9999999403953552,
				1
			],
			"translation":[
				-2.8297728604798067e-09,
				0.6809176802635193,
				0.018740782514214516
			]
		},
		{
			"name":"Schwanz1",
			"rotation":[
				7.25913480437157e-08,
				0.2747994661331177,
				-0.9615015387535095,
				2.0746778517377606e-08
			],
			"scale":[
				1,
				1.0000001192092896,
				1.000000238418579
			],
			"translation":[
				-9.432621794758234e-09,
				-0.07808710634708405,
				0.062469445168972015
			]
		},
		{
			"children":[
				1,
				3,
				5,
				7,
				9,
				10
			],
			"name":"Koerper",
			"rotation":[
				5.254472412730138e-08,
				-0.7180650234222412,
				-0.6959760189056396,
				5.421239990255344e-08
			],
			"scale":[
				1,
				0.9999997019767761,
				1.000000238418579
			],
			"translation":[
				0,
				0.7799999713897705,
				-0.3199999928474426
			]
		},
		{
			"mesh":0,
			"name":"Reh",
			"skin":0
		},
		{
			"children":[
				12,
				11
			],
			"name":"RehSkelett"
		}
	],
	"animations":[
		{
			"channels":[
				{
					"sampler":0,
					"target":{
						"node":11,
						"path":"translation"
					}
				},
				{
					"sampler":1,
					"target":{
						"node":11,
						"path":"rotation"
					}
				},
				{
					"sampler":2,
					"target":{
						"node":11,
						"path":"scale"
					}
				},
				{
					"sampler":3,
					"target":{
						"node":1,
						"path":"translation"
					}
				},
				{
					"sampler":4,
					"target":{
						"node":1,
						"path":"rotation"
					}
				},
				{
					"sampler":5,
					"target":{
						"node":1,
						"path":"scale"
					}
				},
				{
					"sampler":6,
					"target":{
						"node":0,
						"path":"translation"
					}
				},
				{
					"sampler":7,
					"target":{
						"node":0,
						"path":"rotation"
					}
				},
				{
					"sampler":8,
					"target":{
						"node":0,
						"path":"scale"
					}
				},
				{
					"sampler":9,
					"target":{
						"node":3,
						"path":"translation"
					}
				},
				{
					"sampler":10,
					"target":{
						"node":3,
						"path":"rotation"
					}
				},
				{
					"sampler":11,
					"target":{
						"node":3,
						"path":"scale"
					}
				},
				{
					"sampler":12,
					"target":{
						"node":2,
						"path":"translation"
					}
				},
				{
					"sampler":13,
					"target":{
						"node":2,
						"path":"rotation"
					}
				},
				{
					"sampler":14,
					"target":{
						"node":2,
						"path":"scale"
					}
				},
				{
					"sampler":15,
					"target":{
						"node":5,
						"path":"translation"
					}
				},
				{
					"sampler":16,
					"target":{
						"node":5,
						"path":"rotation"
					}
				},
				{
					"sampler":17,
					"target":{
						"node":5,
						"path":"scale"
					}
				},
				{
					"sampler":18,
					"target":{
						"node":4,
						"path":"translation"
					}
				},
				{
					"sampler":19,
					"target":{
						"node":4,
						"path":"rotation"
					}
				},
				{
					"sampler":20,
					"target":{
						"node":4,
						"path":"scale"
					}
				},
				{
					"sampler":21,
					"target":{
						"node":7,
						"path":"translation"
					}
				},
				{
					"sampler":22,
					"target":{
						"node":7,
						"path":"rotation"
					}
				},
				{
					"sampler":23,
					"target":{
						"node":7,
						"path":"scale"
					}
				},
				{
					"sampler":24,
					"target":{
						"node":6,
						"path":"translation"
					}
				},
				{
					"sampler":25,
					"target":{
						"node":6,
						"path":"rotation"
					}
				},
				{
					"sampler":26,
					"target":{
						"node":6,
						"path":"scale"
					}
				},
				{
					"sampler":27,
					"target":{
						"node":9,
						"path":"translation"
					}
				},
				{
					"sampler":28,
					"target":{
						"node":9,
						"path":"rotation"
					}
				},
				{
					"sampler":29,
					"target":{
						"node":9,
						"path":"scale"
					}
				},
				{
					"sampler":30,
					"target":{
						"node":8,
						"path":"translation"
					}
				},
				{
					"sampler":31,
					"target":{
						"node":8,
						"path":"rotation"
					}
				},
				{
					"sampler":32,
					"target":{
						"node":8,
						"path":"scale"
					}
				},
				{
					"sampler":33,
					"target":{
						"node":10,
						"path":"translation"
					}
				},
				{
					"sampler":34,
					"target":{
						"node":10,
						"path":"rotation"
					}
				},
				{
					"sampler":35,
					"target":{
						"node":10,
						"path":"scale"
					}
				}
			],
			"name":"Idle",
			"samplers":[
				{
					"input":7,
					"interpolation":"LINEAR",
					"output":8
				},
				{
					"input":9,
					"interpolation":"STEP",
					"output":10
				},
				{
					"input":9,
					"interpolation":"STEP",
					"output":11
				},
				{
					"input":9,
					"interpolation":"STEP",
					"output":12
				},
				{
					"input":9,
					"interpolation":"STEP",
					"output":13
				},
				{
					"input":9,
					"interpolation":"STEP",
					"output":14
				},
				{
					"input":9,
					"interpolation":"STEP",
					"output":15
				},
				{
					"input":9,
					"interpolation":"STEP",
					"output":16
				},
				{
					"input":9,
					"interpolation":"STEP",
					"output":17
				},
				{
					"input":9,
					"interpolation":"STEP",
					"output":18
				},
				{
					"input":9,
					"interpolation":"STEP",
					"output":13
				},
				{
					"input":9,
					"interpolation":"STEP",
					"output":14
				},
				{
					"input":9,
					"interpolation":"STEP",
					"output":19
				},
				{
					"input":9,
					"interpolation":"STEP",
					"output":20
				},
				{
					"input":9,
					"interpolation":"STEP",
					"output":17
				},
				{
					"input":9,
					"interpolation":"STEP",
					"output":21
				},
				{
					"input":9,
					"interpolation":"STEP",
					"output":22
				},
				{
					"input":9,
					"interpolation":"STEP",
					"output":23
				},
				{
					"input":9,
					"interpolation":"STEP",
					"output":24
				},
				{
					"input":9,
					"interpolation":"STEP",
					"output":25
				},
				{
					"input":9,
					"interpolation":"STEP",
					"output":26
				},
				{
					"input":9,
					"interpolation":"STEP",
					"output":27
				},
				{
					"input":9,
					"interpolation":"STEP",
					"output":28
				},
				{
					"input":9,
					"interpolation":"STEP",
					"output":23
				},
				{
					"input":9,
					"interpolation":"STEP",
					"output":29
				},
				{
					"input":9,
					"interpolation":"STEP",
					"output":30
				},
				{
					"input":9,
					"interpolation":"STEP",
					"output":26
				},
				{
					"input":9,
					"interpolation":"STEP",
					"output":31
				},
				{
					"input":7,
					"interpolation":"LINEAR",
					"output":32
				},
				{
					"input":9,
					"interpolation":"STEP",
					"output":26
				},
				{
					"input":9,
					"interpolation":"STEP",
					"output":33
				},
				{
					"input":7,
					"interpolation":"LINEAR",
					"output":34
				},
				{
					"input":9,
					"interpolation":"STEP",
					"output":35
				},
				{
					"input":9,
					"interpolation":"STEP",
					"output":36
				},
				{
					"input":7,
					"interpolation":"LINEAR",
					"output":37
				},
				{
					"input":9,
					"interpolation":"STEP",
					"output":38
				}
			]
		},
		{
			"channels":[
				{
					"sampler":0,
					"target":{
						"node":11,
						"path":"translation"
					}
				},
				{
					"sampler":1,
					"target":{
						"node":11,
						"path":"rotation"
					}
				},
				{
					"sampler":2,
					"target":{
						"node":11,
						"path":"scale"
					}
				},
				{
					"sampler":3,
					"target":{
						"node":1,
						"path":"translation"
					}
				},
				{
					"sampler":4,
					"target":{
						"node":1,
						"path":"rotation"
					}
				},
				{
					"sampler":5,
					"target":{
						"node":1,
						"path":"scale"
					}
				},
				{
					"sampler":6,
					"target":{
						"node":0,
						"path":"translation"
					}
				},
				{
					"sampler":7,
					"target":{
						"node":0,
						"path":"rotation"
					}
				},
				{
					"sampler":8,
					"target":{
						"node":0,
						"path":"scale"
					}
				},
				{
					"sampler":9,
					"target":{
						"node":3,
						"path":"translation"
					}
				},
				{
					"sampler":10,
					"target":{
						"node":3,
						"path":"rotation"
					}
				},
				{
					"sampler":11,
					"target":{
						"node":3,
						"path":"scale"
					}
				},
				{
					"sampler":12,
					"target":{
						"node":2,
						"path":"translation"
					}
				},
				{
					"sampler":13,
					"target":{
						"node":2,
						"path":"rotation"
					}
				},
				{
					"sampler":14,
					"target":{
						"node":2,
						"path":"scale"
					}
				},
				{
					"sampler":15,
					"target":{
						"node":5,
						"path":"translation"
					}
				},
				{
					"sampler":16,
					"target":{
						"node":5,
						"path":"rotation"
					}
				},
				{
					"sampler":17,
					"target":{
						"node":5,
						"path":"scale"
					}
				},
				{
					"sampler":18,
					"target":{
						"node":4,
						"path":"translation"
					}
				},
				{
					"sampler":19,
					"target":{
						"node":4,
						"path":"rotation"
					}
				},
				{
					"sampler":20,
					"target":{
						"node":4,
						"path":"scale"
					}
				},
				{
					"sampler":21,
					"target":{
						"node":7,
						"path":"translation"
					}
				},
				{
					"sampler":22,
					"target":{
						"node":7,
						"path":"rotation"
					}
				},
				{
					"sampler":23,
					"target":{
						"node":7,
						"path":"scale"
					}
				},
				{
					"sampler":24,
					"target":{
						"node":6,
						"path":"translation"
					}
				},
				{
					"sampler":25,
					"target":{
						"node":6,
						"path":"rotation"
					}
				},
				{
					"sampler":26,
					"target":{
						"node":6,
						"path":"scale"
					}
				},
				{
					"sampler":27,
					"target":{
						"node":9,
						"path":"translation"
					}
				},
				{
					"sampler":28,
					"target":{
						"node":9,
						"path":"rotation"
					}
				},
				{
					"sampler":29,
					"target":{
						"node":9,
						"path":"scale"
					}
				},
				{
					"sampler":30,
					"target":{
						"node":8,
						"path":"translation"
					}
				},
				{
					"sampler":31,
					"target":{
						"node":8,
						"path":"rotation"
					}
				},
				{
					"sampler":32,
					"target":{
						"node":8,
						"path":"scale"
					}
				},
				{
					"sampler":33,
					"target":{
						"node":10,
						"path":"translation"
					}
				},
				{
					"sampler":34,
					"target":{
						"node":10,
						"path":"rotation"
					}
				},
				{
					"sampler":35,
					"target":{
						"node":10,
						"path":"scale"
					}
				}
			],
			"name":"Laufen",
			"samplers":[
				{
					"input":39,
					"interpolation":"LINEAR",
					"output":40
				},
				{
					"input":41,
					"interpolation":"STEP",
					"output":10
				},
				{
					"input":41,
					"interpolation":"STEP",
					"output":11
				},
				{
					"input":41,
					"interpolation":"STEP",
					"output":12
				},
				{
					"input":39,
					"interpolation":"LINEAR",
					"output":42
				},
				{
					"input":41,
					"interpolation":"STEP",
					"output":43
				},
				{
					"input":41,
					"interpolation":"STEP",
					"output":44
				},
				{
					"input":39,
					"interpolation":"LINEAR",
					"output":45
				},
				{
					"input":41,
					"interpolation":"STEP",
					"output":26
				},
				{
					"input":41,
					"interpolation":"STEP",
					"output":18
				},
				{
					"input":39,
					"interpolation":"LINEAR",
					"output":46
				},
				{
					"input":41,
					"interpolation":"STEP",
					"output":47
				},
				{
					"input":41,
					"interpolation":"STEP",
					"output":48
				},
				{
					"input":39,
					"interpolation":"LINEAR",
					"output":49
				},
				{
					"input":41,
					"interpolation":"STEP",
					"output":50
				},
				{
					"input":41,
					"interpolation":"STEP",
					"output":21
				},
				{
					"input":39,
					"interpolation":"LINEAR",
					"output":51
				},
				{
					"input":41,
					"interpolation":"STEP",
					"output":23
				},
				{
					"input":41,
					"interpolation":"STEP",
					"output":52
				},
				{
					"input":39,
					"interpolation":"LINEAR",
					"output":53
				},
				{
					"input":41,
					"interpolation":"STEP",
					"output":26
				},
				{
					"input":41,
					"interpolation":"STEP",
					"output":27
				},
				{
					"input":39,
					"interpolation":"LINEAR",
					"output":54
				},
				{
					"input":41,
					"interpolation":"STEP",
					"output":23
				},
				{
					"input":41,
					"interpolation":"STEP",
					"output":55
				},
				{
					"input":39,
					"interpolation":"LINEAR",
					"output":56
				},
				{
					"input":41,
					"interpolation":"STEP",
					"output":57
				},
				{
					"input":41,
					"interpolation":"STEP",
					"output":31
				},
				{
					"input":41,
					"interpolation":"STEP",
					"output":58
				},
				{
					"input":41,
					"interpolation":"STEP",
					"output":26
				},
				{
					"input":41,
					"interpolation":"STEP",
					"output":59
				},
				{
					"input":39,
					"interpolation":"LINEAR",
					"output":60
				},
				{
					"input":41,
					"interpolation":"STEP",
					"output":61
				},
				{
					"input":41,
					"interpolation":"STEP",
					"output":36
				},
				{
					"input":39,
					"interpolation":"LINEAR",
					"output":62
				},
				{
					"input":41,
					"interpolation":"STEP",
					"output":38
				}
			]
		},
		{
			"channels":[
				{
					"sampler":0,
					"target":{
						"node":11,
						"path":"translation"
					}
				},
				{
					"sampler":1,
					"target":{
						"node":11,
						"path":"rotation"
					}
				},
				{
					"sampler":2,
					"target":{
						"node":11,
						"path":"scale"
					}
				},
				{
					"sampler":3,
					"target":{
						"node":1,
						"path":"translation"
					}
				},
				{
					"sampler":4,
					"target":{
						"node":1,
						"path":"rotation"
					}
				},
				{
					"sampler":5,
					"target":{
						"node":1,
						"path":"scale"
					}
				},
				{
					"sampler":6,
					"target":{
						"node":0,
						"path":"translation"
					}
				},
				{
					"sampler":7,
					"target":{
						"node":0,
						"path":"rotation"
					}
				},
				{
					"sampler":8,
					"target":{
						"node":0,
						"path":"scale"
					}
				},
				{
					"sampler":9,
					"target":{
						"node":3,
						"path":"translation"
					}
				},
				{
					"sampler":10,
					"target":{
						"node":3,
						"path":"rotation"
					}
				},
				{
					"sampler":11,
					"target":{
						"node":3,
						"path":"scale"
					}
				},
				{
					"sampler":12,
					"target":{
						"node":2,
						"path":"translation"
					}
				},
				{
					"sampler":13,
					"target":{
						"node":2,
						"path":"rotation"
					}
				},
				{
					"sampler":14,
					"target":{
						"node":2,
						"path":"scale"
					}
				},
				{
					"sampler":15,
					"target":{
						"node":5,
						"path":"translation"
					}
				},
				{
					"sampler":16,
					"target":{
						"node":5,
						"path":"rotation"
					}
				},
				{
					"sampler":17,
					"target":{
						"node":5,
						"path":"scale"
					}
				},
				{
					"sampler":18,
					"target":{
						"node":4,
						"path":"translation"
					}
				},
				{
					"sampler":19,
					"target":{
						"node":4,
						"path":"rotation"
					}
				},
				{
					"sampler":20,
					"target":{
						"node":4,
						"path":"scale"
					}
				},
				{
					"sampler":21,
					"target":{
						"node":7,
						"path":"translation"
					}
				},
				{
					"sampler":22,
					"target":{
						"node":7,
						"path":"rotation"
					}
				},
				{
					"sampler":23,
					"target":{
						"node":7,
						"path":"scale"
					}
				},
				{
					"sampler":24,
					"target":{
						"node":6,
						"path":"translation"
					}
				},
				{
					"sampler":25,
					"target":{
						"node":6,
						"path":"rotation"
					}
				},
				{
					"sampler":26,
					"target":{
						"node":6,
						"path":"scale"
					}
				},
				{
					"sampler":27,
					"target":{
						"node":9,
						"path":"translation"
					}
				},
				{
					"sampler":28,
					"target":{
						"node":9,
						"path":"rotation"
					}
				},
				{
					"sampler":29,
					"target":{
						"node":9,
						"path":"scale"
					}
				},
				{
					"sampler":30,
					"target":{
						"node":8,
						"path":"translation"
					}
				},
				{
					"sampler":31,
					"target":{
						"node":8,
						"path":"rotation"
					}
				},
				{
					"sampler":32,
					"target":{
						"node":8,
						"path":"scale"
					}
				},
				{
					"sampler":33,
					"target":{
						"node":10,
						"path":"translation"
					}
				},
				{
					"sampler":34,
					"target":{
						"node":10,
						"path":"rotation"
					}
				},
				{
					"sampler":35,
					"target":{
						"node":10,
						"path":"scale"
					}
				}
			],
			"name":"Rennen",
			"samplers":[
				{
					"input":63,
					"interpolation":"LINEAR",
					"output":64
				},
				{
					"input":63,
					"interpolation":"LINEAR",
					"output":65
				},
				{
					"input":66,
					"interpolation":"STEP",
					"output":67
				},
				{
					"input":66,
					"interpolation":"STEP",
					"output":68
				},
				{
					"input":63,
					"interpolation":"LINEAR",
					"output":69
				},
				{
					"input":66,
					"interpolation":"STEP",
					"output":47
				},
				{
					"input":66,
					"interpolation":"STEP",
					"output":70
				},
				{
					"input":63,
					"interpolation":"LINEAR",
					"output":71
				},
				{
					"input":66,
					"interpolation":"STEP",
					"output":72
				},
				{
					"input":66,
					"interpolation":"STEP",
					"output":73
				},
				{
					"input":63,
					"interpolation":"LINEAR",
					"output":74
				},
				{
					"input":66,
					"interpolation":"STEP",
					"output":14
				},
				{
					"input":66,
					"interpolation":"STEP",
					"output":75
				},
				{
					"input":63,
					"interpolation":"LINEAR",
					"output":76
				},
				{
					"input":66,
					"interpolation":"STEP",
					"output":38
				},
				{
					"input":66,
					"interpolation":"STEP",
					"output":77
				},
				{
					"input":63,
					"interpolation":"LINEAR",
					"output":78
				},
				{
					"input":66,
					"interpolation":"STEP",
					"output":79
				},
				{
					"input":66,
					"interpolation":"STEP",
					"output":80
				},
				{
					"input":63,
					"interpolation":"LINEAR",
					"output":81
				},
				{
					"input":66,
					"interpolation":"STEP",
					"output":26
				},
				{
					"input":66,
					"interpolation":"STEP",
					"output":82
				},
				{
					"input":63,
					"interpolation":"LINEAR",
					"output":83
				},
				{
					"input":66,
					"interpolation":"STEP",
					"output":84
				},
				{
					"input":66,
					"interpolation":"STEP",
					"output":85
				},
				{
					"input":63,
					"interpolation":"LINEAR",
					"output":86
				},
				{
					"input":66,
					"interpolation":"STEP",
					"output":61
				},
				{
					"input":66,
					"interpolation":"STEP",
					"output":87
				},
				{
					"input":66,
					"interpolation":"STEP",
					"output":88
				},
				{
					"input":66,
					"interpolation":"STEP",
					"output":26
				},
				{
					"input":66,
					"interpolation":"STEP",
					"output":89
				},
				{
					"input":63,
					"interpolation":"LINEAR",
					"output":90
				},
				{
					"input":66,
					"interpolation":"STEP",
					"output":79
				},
				{
					"input":66,
					"interpolation":"STEP",
					"output":91
				},
				{
					"input":63,
					"interpolation":"LINEAR",
					"output":92
				},
				{
					"input":66,
					"interpolation":"STEP",
					"output":38
				}
			]
		}
	],
	"materials":[
		{
			"doubleSided":true,
			"name":"Reh",
			"pbrMetallicRoughness":{
				"metallicFactor":0,
				"roughnessFactor":0.8999999761581421
			}
		}
	],
	"meshes":[
		{
			"name":"Mesh",
			"primitives":[
				{
					"attributes":{
						"POSITION":0,
						"NORMAL":1,
						"COLOR_0":2,
						"JOINTS_0":3,
						"WEIGHTS_0":4
					},
					"indices":5,
					"material":0
				}
			]
		}
	],
	"skins":[
		{
			"inverseBindMatrices":6,
			"joints":[
				11,
				1,
				0,
				3,
				2,
				5,
				4,
				7,
				6,
				9,
				8,
				10
			],
			"name":"RehSkelett"
		}
	],
	"accessors":[
		{
			"bufferView":0,
			"componentType":5126,
			"count":6762,
			"max":[
				0.17680257558822632,
				1.3461506366729736,
				0.8849999904632568
			],
			"min":[
				-0.18139930069446564,
				0,
				-0.48670920729637146
			],
			"type":"VEC3"
		},
		{
			"bufferView":1,
			"componentType":5126,
			"count":6762,
			"type":"VEC3"
		},
		{
			"bufferView":2,
			"componentType":5126,
			"count":6762,
			"type":"VEC3"
		},
		{
			"bufferView":3,
			"componentType":5121,
			"count":6762,
			"type":"VEC4"
		},
		{
			"bufferView":4,
			"componentType":5126,
			"count":6762,
			"type":"VEC4"
		},
		{
			"bufferView":5,
			"componentType":5123,
			"count":7668,
			"type":"SCALAR"
		},
		{
			"bufferView":6,
			"componentType":5126,
			"count":12,
			"type":"MAT4"
		},
		{
			"bufferView":7,
			"componentType":5126,
			"count":181,
			"max":[
				6
			],
			"min":[
				0
			],
			"type":"SCALAR"
		},
		{
			"bufferView":8,
			"componentType":5126,
			"count":181,
			"type":"VEC3"
		},
		{
			"bufferView":9,
			"componentType":5126,
			"count":2,
			"max":[
				6
			],
			"min":[
				0
			],
			"type":"SCALAR"
		},
		{
			"bufferView":10,
			"componentType":5126,
			"count":2,
			"type":"VEC4"
		},
		{
			"bufferView":11,
			"componentType":5126,
			"count":2,
			"type":"VEC3"
		},
		{
			"bufferView":12,
			"componentType":5126,
			"count":2,
			"type":"VEC3"
		},
		{
			"bufferView":13,
			"componentType":5126,
			"count":2,
			"type":"VEC4"
		},
		{
			"bufferView":14,
			"componentType":5126,
			"count":2,
			"type":"VEC3"
		},
		{
			"bufferView":15,
			"componentType":5126,
			"count":2,
			"type":"VEC3"
		},
		{
			"bufferView":16,
			"componentType":5126,
			"count":2,
			"type":"VEC4"
		},
		{
			"bufferView":17,
			"componentType":5126,
			"count":2,
			"type":"VEC3"
		},
		{
			"bufferView":18,
			"componentType":5126,
			"count":2,
			"type":"VEC3"
		},
		{
			"bufferView":19,
			"componentType":5126,
			"count":2,
			"type":"VEC3"
		},
		{
			"bufferView":20,
			"componentType":5126,
			"count":2,
			"type":"VEC4"
		},
		{
			"bufferView":21,
			"componentType":5126,
			"count":2,
			"type":"VEC3"
		},
		{
			"bufferView":22,
			"componentType":5126,
			"count":2,
			"type":"VEC4"
		},
		{
			"bufferView":23,
			"componentType":5126,
			"count":2,
			"type":"VEC3"
		},
		{
			"bufferView":24,
			"componentType":5126,
			"count":2,
			"type":"VEC3"
		},
		{
			"bufferView":25,
			"componentType":5126,
			"count":2,
			"type":"VEC4"
		},
		{
			"bufferView":26,
			"componentType":5126,
			"count":2,
			"type":"VEC3"
		},
		{
			"bufferView":27,
			"componentType":5126,
			"count":2,
			"type":"VEC3"
		},
		{
			"bufferView":28,
			"componentType":5126,
			"count":2,
			"type":"VEC4"
		},
		{
			"bufferView":29,
			"componentType":5126,
			"count":2,
			"type":"VEC3"
		},
		{
			"bufferView":30,
			"componentType":5126,
			"count":2,
			"type":"VEC4"
		},
		{
			"bufferView":31,
			"componentType":5126,
			"count":2,
			"type":"VEC3"
		},
		{
			"bufferView":32,
			"componentType":5126,
			"count":181,
			"type":"VEC4"
		},
		{
			"bufferView":33,
			"componentType":5126,
			"count":2,
			"type":"VEC3"
		},
		{
			"bufferView":34,
			"componentType":5126,
			"count":181,
			"type":"VEC4"
		},
		{
			"bufferView":35,
			"componentType":5126,
			"count":2,
			"type":"VEC3"
		},
		{
			"bufferView":36,
			"componentType":5126,
			"count":2,
			"type":"VEC3"
		},
		{
			"bufferView":37,
			"componentType":5126,
			"count":181,
			"type":"VEC4"
		},
		{
			"bufferView":38,
			"componentType":5126,
			"count":2,
			"type":"VEC3"
		},
		{
			"bufferView":39,
			"componentType":5126,
			"count":27,
			"max":[
				0.8666666666666667
			],
			"min":[
				0
			],
			"type":"SCALAR"
		},
		{
			"bufferView":40,
			"componentType":5126,
			"count":27,
			"type":"VEC3"
		},
		{
			"bufferView":41,
			"componentType":5126,
			"count":2,
			"max":[
				0.8666666666666667
			],
			"min":[
				0
			],
			"type":"SCALAR"
		},
		{
			"bufferView":42,
			"componentType":5126,
			"count":27,
			"type":"VEC4"
		},
		{
			"bufferView":43,
			"componentType":5126,
			"count":2,
			"type":"VEC3"
		},
		{
			"bufferView":44,
			"componentType":5126,
			"count":2,
			"type":"VEC3"
		},
		{
			"bufferView":45,
			"componentType":5126,
			"count":27,
			"type":"VEC4"
		},
		{
			"bufferView":46,
			"componentType":5126,
			"count":27,
			"type":"VEC4"
		},
		{
			"bufferView":47,
			"componentType":5126,
			"count":2,
			"type":"VEC3"
		},
		{
			"bufferView":48,
			"componentType":5126,
			"count":2,
			"type":"VEC3"
		},
		{
			"bufferView":49,
			"componentType":5126,
			"count":27,
			"type":"VEC4"
		},
		{
			"bufferView":50,
			"componentType":5126,
			"count":2,
			"type":"VEC3"
		},
		{
			"bufferView":51,
			"componentType":5126,
			"count":27,
			"type":"VEC4"
		},
		{
			"bufferView":52,
			"componentType":5126,
			"count":2,
			"type":"VEC3"
		},
		{
			"bufferView":53,
			"componentType":5126,
			"count":27,
			"type":"VEC4"
		},
		{
			"bufferView":54,
			"componentType":5126,
			"count":27,
			"type":"VEC4"
		},
		{
			"bufferView":55,
			"componentType":5126,
			"count":2,
			"type":"VEC3"
		},
		{
			"bufferView":56,
			"componentType":5126,
			"count":27,
			"type":"VEC4"
		},
		{
			"bufferView":57,
			"componentType":5126,
			"count":2,
			"type":"VEC3"
		},
		{
			"bufferView":58,
			"componentType":5126,
			"count":2,
			"type":"VEC4"
		},
		{
			"bufferView":59,
			"componentType":5126,
			"count":2,
			"type":"VEC3"
		},
		{
			"bufferView":60,
			"componentType":5126,
			"count":27,
			"type":"VEC4"
		},
		{
			"bufferView":61,
			"componentType":5126,
			"count":2,
			"type":"VEC3"
		},
		{
			"bufferView":62,
			"componentType":5126,
			"count":27,
			"type":"VEC4"
		},
		{
			"bufferView":63,
			"componentType":5126,
			"count":17,
			"max":[
				0.5333333333333333
			],
			"min":[
				0
			],
			"type":"SCALAR"
		},
		{
			"bufferView":64,
			"componentType":5126,
			"count":17,
			"type":"VEC3"
		},
		{
			"bufferView":65,
			"componentType":5126,
			"count":17,
			"type":"VEC4"
		},
		{
			"bufferView":66,
			"componentType":5126,
			"count":2,
			"max":[
				0.5333333333333333
			],
			"min":[
				0
			],
			"type":"SCALAR"
		},
		{
			"bufferView":67,
			"componentType":5126,
			"count":2,
			"type":"VEC3"
		},
		{
			"bufferView":68,
			"componentType":5126,
			"count":2,
			"type":"VEC3"
		},
		{
			"bufferView":69,
			"componentType":5126,
			"count":17,
			"type":"VEC4"
		},
		{
			"bufferView":70,
			"componentType":5126,
			"count":2,
			"type":"VEC3"
		},
		{
			"bufferView":71,
			"componentType":5126,
			"count":17,
			"type":"VEC4"
		},
		{
			"bufferView":72,
			"componentType":5126,
			"count":2,
			"type":"VEC3"
		},
		{
			"bufferView":73,
			"componentType":5126,
			"count":2,
			"type":"VEC3"
		},
		{
			"bufferView":74,
			"componentType":5126,
			"count":17,
			"type":"VEC4"
		},
		{
			"bufferView":75,
			"componentType":5126,
			"count":2,
			"type":"VEC3"
		},
		{
			"bufferView":76,
			"componentType":5126,
			"count":17,
			"type":"VEC4"
		},
		{
			"bufferView":77,
			"componentType":5126,
			"count":2,
			"type":"VEC3"
		},
		{
			"bufferView":78,
			"componentType":5126,
			"count":17,
			"type":"VEC4"
		},
		{
			"bufferView":79,
			"componentType":5126,
			"count":2,
			"type":"VEC3"
		},
		{
			"bufferView":80,
			"componentType":5126,
			"count":2,
			"type":"VEC3"
		},
		{
			"bufferView":81,
			"componentType":5126,
			"count":17,
			"type":"VEC4"
		},
		{
			"bufferView":82,
			"componentType":5126,
			"count":2,
			"type":"VEC3"
		},
		{
			"bufferView":83,
			"componentType":5126,
			"count":17,
			"type":"VEC4"
		},
		{
			"bufferView":84,
			"componentType":5126,
			"count":2,
			"type":"VEC3"
		},
		{
			"bufferView":85,
			"componentType":5126,
			"count":2,
			"type":"VEC3"
		},
		{
			"bufferView":86,
			"componentType":5126,
			"count":17,
			"type":"VEC4"
		},
		{
			"bufferView":87,
			"componentType":5126,
			"count":2,
			"type":"VEC3"
		},
		{
			"bufferView":88,
			"componentType":5126,
			"count":2,
			"type":"VEC4"
		},
		{
			"bufferView":89,
			"componentType":5126,
			"count":2,
			"type":"VEC3"
		},
		{
			"bufferView":90,
			"componentType":5126,
			"count":17,
			"type":"VEC4"
		},
		{
			"bufferView":91,
			"componentType":5126,
			"count":2,
			"type":"VEC3"
		},
		{
			"bufferView":92,
			"componentType":5126,
			"count":17,
			"type":"VEC4"
		}
	],
	"bufferViews":[
		{
			"buffer":0,
			"byteLength":81144,
			"byteOffset":0,
			"target":34962
		},
		{
			"buffer":0,
			"byteLength":81144,
			"byteOffset":81144,
			"target":34962
		},
		{
			"buffer":0,
			"byteLength":81144,
			"byteOffset":162288,
			"target":34962
		},
		{
			"buffer":0,
			"byteLength":27048,
			"byteOffset":243432,
			"target":34962
		},
		{
			"buffer":0,
			"byteLength":108192,
			"byteOffset":270480,
			"target":34962
		},
		{
			"buffer":0,
			"byteLength":15336,
			"byteOffset":378672,
			"target":34963
		},
		{
			"buffer":0,
			"byteLength":768,
			"byteOffset":394008
		},
		{
			"buffer":0,
			"byteLength":724,
			"byteOffset":394776
		},
		{
			"buffer":0,
			"byteLength":2172,
			"byteOffset":395500
		},
		{
			"buffer":0,
			"byteLength":8,
			"byteOffset":397672
		},
		{
			"buffer":0,
			"byteLength":32,
			"byteOffset":397680
		},
		{
			"buffer":0,
			"byteLength":24,
			"byteOffset":397712
		},
		{
			"buffer":0,
			"byteLength":24,
			"byteOffset":397736
		},
		{
			"buffer":0,
			"byteLength":32,
			"byteOffset":397760
		},
		{
			"buffer":0,
			"byteLength":24,
			"byteOffset":397792
		},
		{
			"buffer":0,
			"byteLength":24,
			"byteOffset":397816
		},
		{
			"buffer":0,
			"byteLength":32,
			"byteOffset":397840
		},
		{
			"buffer":0,
			"byteLength":24,
			"byteOffset":397872
		},
		{
			"buffer":0,
			"byteLength":24,
			"byteOffset":397896
		},
		{
			"buffer":0,
			"byteLength":24,
			"byteOffset":397920
		},
		{
			"buffer":0,
			"byteLength":32,
			"byteOffset":397944
		},
		{
			"buffer":0,
			"byteLength":24,
			"byteOffset":397976
		},
		{
			"buffer":0,
			"byteLength":32,
			"byteOffset":398000
		},
		{
			"buffer":0,
			"byteLength":24,
			"byteOffset":398032
		},
		{
			"buffer":0,
			"byteLength":24,
			"byteOffset":398056
		},
		{
			"buffer":0,
			"byteLength":32,
			"byteOffset":398080
		},
		{
			"buffer":0,
			"byteLength":24,
			"byteOffset":398112
		},
		{
			"buffer":0,
			"byteLength":24,
			"byteOffset":398136
		},
		{
			"buffer":0,
			"byteLength":32,
			"byteOffset":398160
		},
		{
			"buffer":0,
			"byteLength":24,
			"byteOffset":398192
		},
		{
			"buffer":0,
			"byteLength":32,
			"byteOffset":398216
		},
		{
			"buffer":0,
			"byteLength":24,
			"byteOffset":398248
		},
		{
			"buffer":0,
			"byteLength":2896,
			"byteOffset":398272
		},
		{
			"buffer":0,
			"byteLength":24,
			"byteOffset":401168
		},
		{
			"buffer":0,
			"byteLength":2896,
			"byteOffset":401192
		},
		{
			"buffer":0,
			"byteLength":24,
			"byteOffset":404088
		},
		{
			"buffer":0,
			"byteLength":24,
			"byteOffset":404112
		},
		{
			"buffer":0,
			"byteLength":2896,
			"byteOffset":404136
		},
		{
			"buffer":0,
			"byteLength":24,
			"byteOffset":407032
		},
		{
			"buffer":0,
			"byteLength":108,
			"byteOffset":407056
		},
		{
			"buffer":0,
			"byteLength":324,
			"byteOffset":407164
		},
		{
			"buffer":0,
			"byteLength":8,
			"byteOffset":407488
		},
		{
			"buffer":0,
			"byteLength":432,
			"byteOffset":407496
		},
		{
			"buffer":0,
			"byteLength":24,
			"byteOffset":407928
		},
		{
			"buffer":0,
			"byteLength":24,
			"byteOffset":407952
		},
		{
			"buffer":0,
			"byteLength":432,
			"byteOffset":407976
		},
		{
			"buffer":0,
			"byteLength":432,
			"byteOffset":408408
		},
		{
			"buffer":0,
			"byteLength":24,
			"byteOffset":408840
		},
		{
			"buffer":0,
			"byteLength":24,
			"byteOffset":408864
		},
		{
			"buffer":0,
			"byteLength":432,
			"byteOffset":408888
		},
		{
			"buffer":0,
			"byteLength":24,
			"byteOffset":409320
		},
		{
			"buffer":0,
			"byteLength":432,
			"byteOffset":409344
		},
		{
			"buffer":0,
			"byteLength":24,
			"byteOffset":409776
		},
		{
			"buffer":0,
			"byteLength":432,
			"byteOffset":409800
		},
		{
			"buffer":0,
			"byteLength":432,
			"byteOffset":410232
		},
		{
			"buffer":0,
			"byteLength":24,
			"byteOffset":410664
		},
		{
			"buffer":0,
			"byteLength":432,
			"byteOffset":410688
		},
		{
			"buffer":0,
			"byteLength":24,
			"byteOffset":411120
		},
		{
			"buffer":0,
			"byteLength":32,
			"byteOffset":411144
		},
		{
			"buffer":0,
			"byteLength":24,
			"byteOffset":411176
		},
		{
			"buffer":0,
			"byteLength":432,
			"byteOffset":411200
		},
		{
			"buffer":0,
			"byteLength":24,
			"byteOffset":411632
		},
		{
			"buffer":0,
			"byteLength":432,
			"byteOffset":411656
		},
		{
			"buffer":0,
			"byteLength":68,
			"byteOffset":412088
		},
		{
			"buffer":0,
			"byteLength":204,
			"byteOffset":412156
		},
		{
			"buffer":0,
			"byteLength":272,
			"byteOffset":412360
		},
		{
			"buffer":0,
			"byteLength":8,
			"byteOffset":412632
		},
		{
			"buffer":0,
			"byteLength":24,
			"byteOffset":412640
		},
		{
			"buffer":0,
			"byteLength":24,
			"byteOffset":412664
		},
		{
			"buffer":0,
			"byteLength":272,
			"byteOffset":412688
		},
		{
			"buffer":0,
			"byteLength":24,
			"byteOffset":412960
		},
		{
			"buffer":0,
			"byteLength":272,
			"byteOffset":412984
		},
		{
			"buffer":0,
			"byteLength":24,
			"byteOffset":413256
		},
		{
			"buffer":0,
			"byteLength":24,
			"byteOffset":413280
		},
		{
			"buffer":0,
			"byteLength":272,
			"byteOffset":413304
		},
		{
			"buffer":0,
			"byteLength":24,
			"byteOffset":413576
		},
		{
			"buffer":0,
			"byteLength":272,
			"byteOffset":413600
		},
		{
			"buffer":0,
			"byteLength":24,
			"byteOffset":413872
		},
		{
			"buffer":0,
			"byteLength":272,
			"byteOffset":413896
		},
		{
			"buffer":0,
			"byteLength":24,
			"byteOffset":414168
		},
		{
			"buffer":0,
			"byteLength":24,
			"byteOffset":414192
		},
		{
			"buffer":0,
			"byteLength":272,
			"byteOffset":414216
		},
		{
			"buffer":0,
			"byteLength":24,
			"byteOffset":414488
		},
		{
			"buffer":0,
			"byteLength":272,
			"byteOffset":414512
		},
		{
			"buffer":0,
			"byteLength":24,
			"byteOffset":414784
		},
		{
			"buffer":0,
			"byteLength":24,
			"byteOffset":414808
		},
		{
			"buffer":0,
			"byteLength":272,
			"byteOffset":414832
		},
		{
			"buffer":0,
			"byteLength":24,
			"byteOffset":415104
		},
		{
			"buffer":0,
			"byteLength":32,
			"byteOffset":415128
		},
		{
			"buffer":0,
			"byteLength":24,
			"byteOffset":415160
		},
		{
			"buffer":0,
			"byteLength":272,
			"byteOffset":415184
		},
		{
			"buffer":0,
			"byteLength":24,
			"byteOffset":415456
		},
		{
			"buffer":0,
			"byteLength":272,
			"byteOffset":415480
		}
	],
	"buffers":[
		{
			"byteLength":415752,
			"uri":"reh.bin"
		}
	]
}
