{
	"asset":{
		"generator":"Khronos glTF Blender I/O v5.2.40",
		"version":"2.0"
	},
	"scene":0,
	"scenes":[
		{
			"name":"Scene",
			"nodes":[
				13
			]
		}
	],
	"nodes":[
		{
			"name":"Bein.HL.unten",
			"rotation":[
				0.1706145703792572,
				-7.493257925261787e-08,
				2.6824491072829915e-08,
				0.9853378534317017
			],
			"scale":[
				1,
				0.9999998807907104,
				1
			],
			"translation":[
				-1.2627840995094175e-09,
				0.2517928183078766,
				2.8457201040055224e-09
			]
		},
		{
			"children":[
				0
			],
			"name":"Bein.HL.oben",
			"rotation":[
				-3.185692065699186e-08,
				-0.7282293438911438,
				0.6853335499763489,
				1.4179150298332388e-07
			],
			"scale":[
				1,
				1.000000238418579,
				1
			],
			"translation":[
				-0.12000001966953278,
				0.05167519673705101,
				-0.14328131079673767
			]
		},
		{
			"name":"Bein.HR.unten",
			"rotation":[
				0.1706145703792572,
				-7.493258635804523e-08,
				2.68244768619752e-08,
				0.9853378534317017
			],
			"scale":[
				1,
				0.9999998807907104,
				1
			],
			"translation":[
				-1.262791649025985e-09,
				0.25179287791252136,
				6.467505642149263e-09
			]
		},
		{
			"children":[
				2
			],
			"name":"Bein.HR.oben",
			"rotation":[
				-3.18569313151329e-08,
				-0.7282293438911438,
				0.6853335499763489,
				1.4179148877246917e-07
			],
			"scale":[
				1,
				1.000000238418579,
				1
			],
			"translation":[
				0.1199999749660492,
				0.05167519673705101,
				-0.14328131079673767
			]
		},
		{
			"name":"Bein.VL.unten",
			"rotation":[
				-0.004570205230265856,
				-4.146385634840044e-08,
				-4.831391731130452e-09,
				0.9999895691871643
			],
			"scale":[
				1,
				1.0000001192092896,
				1
			],
			"translation":[
				-9.990927529734961e-11,
				0.2601914703845978,
				5.349784615304998e-09
			]
		},
		{
			"children":[
				4
			],
			"name":"Bein.VL.oben",
			"rotation":[
				-3.6785898771540815e-08,
				-0.6998885869979858,
				0.7142520546913147,
				1.3627335704313737e-07
			],
			"scale":[
				1,
				1.0000001192092896,
				1
			],
			"translation":[
				-0.12000002712011337,
				0.5907434821128845,
				-0.17499111592769623
			]
		},
		{
			"name":"Bein.VR.unten",
			"rotation":[
				-0.00457020802423358,
				-4.146385634840044e-08,
				-4.831384181613885e-09,
				0.9999895691871643
			],
			"scale":[
				1,
				1.0000001192092896,
				1
			],
			"translation":[
				1.4801255332486107e-08,
				0.2601914405822754,
				3.963444683563466e-09
			]
		},
		{
			"children":[
				6
			],
			"name":"Bein.VR.oben",
			"rotation":[
				-3.6785898771540815e-08,
				-0.6998885869979858,
				0.7142520546913147,
				1.3627334283228265e-07
			],
			"scale":[
				1,
				1.0000001192092896,
				1
			],
			"translation":[
				0.1199999675154686,
				0.5907434821128845,
				-0.17499113082885742
			]
		},
		{
			"name":"Kopf",
			"rotation":[
				-0.41234511137008667,
				1.08602655757295e-07,
				1.1141791844693216e-07,
				0.911027729511261
			],
			"scale":[
				1,
				1,
				0.9999998807907104
			],
			"translation":[
				5.764778760554206e-15,
				0.18867948651313782,
				0
			]
		},
		{
			"children":[
				8
			],
			"name":"Hals",
			"rotation":[
				0.24732740223407745,
				-1.1550554290806758e-07,
				-6.682918751721445e-08,
				0.9689319729804993
			],
			"translation":[
				-4.440892098500626e-16,
				0.6811755299568176,
				-2.0489096641540527e-08
			]
		},
		{
			"name":"Schwanz1",
			"rotation":[
				7.057000317445272e-08,
				-0.3553793132305145,
				0.9347221851348877,
				2.683040278839144e-08
			],
			"scale":[
				1,
				0.9999998807907104,
				0.9999997019767761
			],
			"translation":[
				7.09331204884478e-10,
				-0.07986213266849518,
				0.004697667434811592
			]
		},
		{
			"children":[
				1,
				3,
				5,
				7,
				9,
				10
			],
			"name":"Koerper",
			"rotation":[
				5.179392204013311e-08,
				0.7275720238685608,
				0.6860312819480896,
				5.493015464708151e-08
			],
			"scale":[
				1,
				0.9999997615814209,
				1.0000029802322388
			],
			"translation":[
				0,
				0.6399999856948853,
				-0.3400000035762787
			]
		},
		{
			"mesh":0,
			"name":"Schaf",
			"skin":0
		},
		{
			"children":[
				12,
				11
			],
			"name":"SchafSkelett"
		}
	],
	"animations":[
		{
			"channels":[
				{
					"sampler":0,
					"target":{
						"node":11,
						"path":"translation"
					}
				},
				{
					"sampler":1,
					"target":{
						"node":11,
						"path":"rotation"
					}
				},
				{
					"sampler":2,
					"target":{
						"node":11,
						"path":"scale"
					}
				},
				{
					"sampler":3,
					"target":{
						"node":1,
						"path":"translation"
					}
				},
				{
					"sampler":4,
					"target":{
						"node":1,
						"path":"rotation"
					}
				},
				{
					"sampler":5,
					"target":{
						"node":1,
						"path":"scale"
					}
				},
				{
					"sampler":6,
					"target":{
						"node":0,
						"path":"translation"
					}
				},
				{
					"sampler":7,
					"target":{
						"node":0,
						"path":"rotation"
					}
				},
				{
					"sampler":8,
					"target":{
						"node":0,
						"path":"scale"
					}
				},
				{
					"sampler":9,
					"target":{
						"node":3,
						"path":"translation"
					}
				},
				{
					"sampler":10,
					"target":{
						"node":3,
						"path":"rotation"
					}
				},
				{
					"sampler":11,
					"target":{
						"node":3,
						"path":"scale"
					}
				},
				{
					"sampler":12,
					"target":{
						"node":2,
						"path":"translation"
					}
				},
				{
					"sampler":13,
					"target":{
						"node":2,
						"path":"rotation"
					}
				},
				{
					"sampler":14,
					"target":{
						"node":2,
						"path":"scale"
					}
				},
				{
					"sampler":15,
					"target":{
						"node":5,
						"path":"translation"
					}
				},
				{
					"sampler":16,
					"target":{
						"node":5,
						"path":"rotation"
					}
				},
				{
					"sampler":17,
					"target":{
						"node":5,
						"path":"scale"
					}
				},
				{
					"sampler":18,
					"target":{
						"node":4,
						"path":"translation"
					}
				},
				{
					"sampler":19,
					"target":{
						"node":4,
						"path":"rotation"
					}
				},
				{
					"sampler":20,
					"target":{
						"node":4,
						"path":"scale"
					}
				},
				{
					"sampler":21,
					"target":{
						"node":7,
						"path":"translation"
					}
				},
				{
					"sampler":22,
					"target":{
						"node":7,
						"path":"rotation"
					}
				},
				{
					"sampler":23,
					"target":{
						"node":7,
						"path":"scale"
					}
				},
				{
					"sampler":24,
					"target":{
						"node":6,
						"path":"translation"
					}
				},
				{
					"sampler":25,
					"target":{
						"node":6,
						"path":"rotation"
					}
				},
				{
					"sampler":26,
					"target":{
						"node":6,
						"path":"scale"
					}
				},
				{
					"sampler":27,
					"target":{
						"node":9,
						"path":"translation"
					}
				},
				{
					"sampler":28,
					"target":{
						"node":9,
						"path":"rotation"
					}
				},
				{
					"sampler":29,
					"target":{
						"node":9,
						"path":"scale"
					}
				},
				{
					"sampler":30,
					"target":{
						"node":8,
						"path":"translation"
					}
				},
				{
					"sampler":31,
					"target":{
						"node":8,
						"path":"rotation"
					}
				},
				{
					"sampler":32,
					"target":{
						"node":8,
						"path":"scale"
					}
				},
				{
					"sampler":33,
					"target":{
						"node":10,
						"path":"translation"
					}
				},
				{
					"sampler":34,
					"target":{
						"node":10,
						"path":"rotation"
					}
				},
				{
					"sampler":35,
					"target":{
						"node":10,
						"path":"scale"
					}
				}
			],
			"name":"Idle",
			"samplers":[
				{
					"input":7,
					"interpolation":"LINEAR",
					"output":8
				},
				{
					"input":9,
					"interpolation":"STEP",
					"output":10
				},
				{
					"input":9,
					"interpolation":"STEP",
					"output":11
				},
				{
					"input":9,
					"interpolation":"STEP",
					"output":12
				},
				{
					"input":9,
					"interpolation":"STEP",
					"output":13
				},
				{
					"input":9,
					"interpolation":"STEP",
					"output":14
				},
				{
					"input":9,
					"interpolation":"STEP",
					"output":15
				},
				{
					"input":9,
					"interpolation":"STEP",
					"output":16
				},
				{
					"input":9,
					"interpolation":"STEP",
					"output":17
				},
				{
					"input":9,
					"interpolation":"STEP",
					"output":18
				},
				{
					"input":9,
					"interpolation":"STEP",
					"output":19
				},
				{
					"input":9,
					"interpolation":"STEP",
					"output":14
				},
				{
					"input":9,
					"interpolation":"STEP",
					"output":20
				},
				{
					"input":9,
					"interpolation":"STEP",
					"output":21
				},
				{
					"input":9,
					"interpolation":"STEP",
					"output":17
				},
				{
					"input":9,
					"interpolation":"STEP",
					"output":22
				},
				{
					"input":9,
					"interpolation":"STEP",
					"output":23
				},
				{
					"input":9,
					"interpolation":"STEP",
					"output":24
				},
				{
					"input":9,
					"interpolation":"STEP",
					"output":25
				},
				{
					"input":9,
					"interpolation":"STEP",
					"output":26
				},
				{
					"input":9,
					"interpolation":"STEP",
					"output":24
				},
				{
					"input":9,
					"interpolation":"STEP",
					"output":27
				},
				{
					"input":9,
					"interpolation":"STEP",
					"output":28
				},
				{
					"input":9,
					"interpolation":"STEP",
					"output":24
				},
				{
					"input":9,
					"interpolation":"STEP",
					"output":29
				},
				{
					"input":9,
					"interpolation":"STEP",
					"output":30
				},
				{
					"input":9,
					"interpolation":"STEP",
					"output":24
				},
				{
					"input":9,
					"interpolation":"STEP",
					"output":31
				},
				{
					"input":7,
					"interpolation":"LINEAR",
					"output":32
				},
				{
					"input":9,
					"interpolation":"STEP",
					"output":33
				},
				{
					"input":9,
					"interpolation":"STEP",
					"output":34
				},
				{
					"input":7,
					"interpolation":"LINEAR",
					"output":35
				},
				{
					"input":9,
					"interpolation":"STEP",
					"output":36
				},
				{
					"input":9,
					"interpolation":"STEP",
					"output":37
				},
				{
					"input":7,
					"interpolation":"LINEAR",
					"output":38
				},
				{
					"input":9,
					"interpolation":"STEP",
					"output":39
				}
			]
		},
		{
			"channels":[
				{
					"sampler":0,
					"target":{
						"node":11,
						"path":"translation"
					}
				},
				{
					"sampler":1,
					"target":{
						"node":11,
						"path":"rotation"
					}
				},
				{
					"sampler":2,
					"target":{
						"node":11,
						"path":"scale"
					}
				},
				{
					"sampler":3,
					"target":{
						"node":1,
						"path":"translation"
					}
				},
				{
					"sampler":4,
					"target":{
						"node":1,
						"path":"rotation"
					}
				},
				{
					"sampler":5,
					"target":{
						"node":1,
						"path":"scale"
					}
				},
				{
					"sampler":6,
					"target":{
						"node":0,
						"path":"translation"
					}
				},
				{
					"sampler":7,
					"target":{
						"node":0,
						"path":"rotation"
					}
				},
				{
					"sampler":8,
					"target":{
						"node":0,
						"path":"scale"
					}
				},
				{
					"sampler":9,
					"target":{
						"node":3,
						"path":"translation"
					}
				},
				{
					"sampler":10,
					"target":{
						"node":3,
						"path":"rotation"
					}
				},
				{
					"sampler":11,
					"target":{
						"node":3,
						"path":"scale"
					}
				},
				{
					"sampler":12,
					"target":{
						"node":2,
						"path":"translation"
					}
				},
				{
					"sampler":13,
					"target":{
						"node":2,
						"path":"rotation"
					}
				},
				{
					"sampler":14,
					"target":{
						"node":2,
						"path":"scale"
					}
				},
				{
					"sampler":15,
					"target":{
						"node":5,
						"path":"translation"
					}
				},
				{
					"sampler":16,
					"target":{
						"node":5,
						"path":"rotation"
					}
				},
				{
					"sampler":17,
					"target":{
						"node":5,
						"path":"scale"
					}
				},
				{
					"sampler":18,
					"target":{
						"node":4,
						"path":"translation"
					}
				},
				{
					"sampler":19,
					"target":{
						"node":4,
						"path":"rotation"
					}
				},
				{
					"sampler":20,
					"target":{
						"node":4,
						"path":"scale"
					}
				},
				{
					"sampler":21,
					"target":{
						"node":7,
						"path":"translation"
					}
				},
				{
					"sampler":22,
					"target":{
						"node":7,
						"path":"rotation"
					}
				},
				{
					"sampler":23,
					"target":{
						"node":7,
						"path":"scale"
					}
				},
				{
					"sampler":24,
					"target":{
						"node":6,
						"path":"translation"
					}
				},
				{
					"sampler":25,
					"target":{
						"node":6,
						"path":"rotation"
					}
				},
				{
					"sampler":26,
					"target":{
						"node":6,
						"path":"scale"
					}
				},
				{
					"sampler":27,
					"target":{
						"node":9,
						"path":"translation"
					}
				},
				{
					"sampler":28,
					"target":{
						"node":9,
						"path":"rotation"
					}
				},
				{
					"sampler":29,
					"target":{
						"node":9,
						"path":"scale"
					}
				},
				{
					"sampler":30,
					"target":{
						"node":8,
						"path":"translation"
					}
				},
				{
					"sampler":31,
					"target":{
						"node":8,
						"path":"rotation"
					}
				},
				{
					"sampler":32,
					"target":{
						"node":8,
						"path":"scale"
					}
				},
				{
					"sampler":33,
					"target":{
						"node":10,
						"path":"translation"
					}
				},
				{
					"sampler":34,
					"target":{
						"node":10,
						"path":"rotation"
					}
				},
				{
					"sampler":35,
					"target":{
						"node":10,
						"path":"scale"
					}
				}
			],
			"name":"Laufen",
			"samplers":[
				{
					"input":40,
					"interpolation":"LINEAR",
					"output":41
				},
				{
					"input":42,
					"interpolation":"STEP",
					"output":10
				},
				{
					"input":42,
					"interpolation":"STEP",
					"output":11
				},
				{
					"input":42,
					"interpolation":"STEP",
					"output":12
				},
				{
					"input":40,
					"interpolation":"LINEAR",
					"output":43
				},
				{
					"input":42,
					"interpolation":"STEP",
					"output":44
				},
				{
					"input":42,
					"interpolation":"STEP",
					"output":45
				},
				{
					"input":40,
					"interpolation":"LINEAR",
					"output":46
				},
				{
					"input":42,
					"interpolation":"STEP",
					"output":33
				},
				{
					"input":42,
					"interpolation":"STEP",
					"output":18
				},
				{
					"input":40,
					"interpolation":"LINEAR",
					"output":47
				},
				{
					"input":42,
					"interpolation":"STEP",
					"output":48
				},
				{
					"input":42,
					"interpolation":"STEP",
					"output":49
				},
				{
					"input":40,
					"interpolation":"LINEAR",
					"output":50
				},
				{
					"input":42,
					"interpolation":"STEP",
					"output":51
				},
				{
					"input":42,
					"interpolation":"STEP",
					"output":22
				},
				{
					"input":40,
					"interpolation":"LINEAR",
					"output":52
				},
				{
					"input":42,
					"interpolation":"STEP",
					"output":24
				},
				{
					"input":42,
					"interpolation":"STEP",
					"output":53
				},
				{
					"input":40,
					"interpolation":"LINEAR",
					"output":54
				},
				{
					"input":42,
					"interpolation":"STEP",
					"output":33
				},
				{
					"input":42,
					"interpolation":"STEP",
					"output":27
				},
				{
					"input":40,
					"interpolation":"LINEAR",
					"output":55
				},
				{
					"input":42,
					"interpolation":"STEP",
					"output":24
				},
				{
					"input":42,
					"interpolation":"STEP",
					"output":56
				},
				{
					"input":40,
					"interpolation":"LINEAR",
					"output":57
				},
				{
					"input":42,
					"interpolation":"STEP",
					"output":24
				},
				{
					"input":42,
					"interpolation":"STEP",
					"output":31
				},
				{
					"input":42,
					"interpolation":"STEP",
					"output":58
				},
				{
					"input":42,
					"interpolation":"STEP",
					"output":33
				},
				{
					"input":42,
					"interpolation":"STEP",
					"output":59
				},
				{
					"input":40,
					"interpolation":"LINEAR",
					"output":60
				},
				{
					"input":42,
					"interpolation":"STEP",
					"output":61
				},
				{
					"input":42,
					"interpolation":"STEP",
					"output":37
				},
				{
					"input":40,
					"interpolation":"LINEAR",
					"output":62
				},
				{
					"input":42,
					"interpolation":"STEP",
					"output":39
				}
			]
		},
		{
			"channels":[
				{
					"sampler":0,
					"target":{
						"node":11,
						"path":"translation"
					}
				},
				{
					"sampler":1,
					"target":{
						"node":11,
						"path":"rotation"
					}
				},
				{
					"sampler":2,
					"target":{
						"node":11,
						"path":"scale"
					}
				},
				{
					"sampler":3,
					"target":{
						"node":1,
						"path":"translation"
					}
				},
				{
					"sampler":4,
					"target":{
						"node":1,
						"path":"rotation"
					}
				},
				{
					"sampler":5,
					"target":{
						"node":1,
						"path":"scale"
					}
				},
				{
					"sampler":6,
					"target":{
						"node":0,
						"path":"translation"
					}
				},
				{
					"sampler":7,
					"target":{
						"node":0,
						"path":"rotation"
					}
				},
				{
					"sampler":8,
					"target":{
						"node":0,
						"path":"scale"
					}
				},
				{
					"sampler":9,
					"target":{
						"node":3,
						"path":"translation"
					}
				},
				{
					"sampler":10,
					"target":{
						"node":3,
						"path":"rotation"
					}
				},
				{
					"sampler":11,
					"target":{
						"node":3,
						"path":"scale"
					}
				},
				{
					"sampler":12,
					"target":{
						"node":2,
						"path":"translation"
					}
				},
				{
					"sampler":13,
					"target":{
						"node":2,
						"path":"rotation"
					}
				},
				{
					"sampler":14,
					"target":{
						"node":2,
						"path":"scale"
					}
				},
				{
					"sampler":15,
					"target":{
						"node":5,
						"path":"translation"
					}
				},
				{
					"sampler":16,
					"target":{
						"node":5,
						"path":"rotation"
					}
				},
				{
					"sampler":17,
					"target":{
						"node":5,
						"path":"scale"
					}
				},
				{
					"sampler":18,
					"target":{
						"node":4,
						"path":"translation"
					}
				},
				{
					"sampler":19,
					"target":{
						"node":4,
						"path":"rotation"
					}
				},
				{
					"sampler":20,
					"target":{
						"node":4,
						"path":"scale"
					}
				},
				{
					"sampler":21,
					"target":{
						"node":7,
						"path":"translation"
					}
				},
				{
					"sampler":22,
					"target":{
						"node":7,
						"path":"rotation"
					}
				},
				{
					"sampler":23,
					"target":{
						"node":7,
						"path":"scale"
					}
				},
				{
					"sampler":24,
					"target":{
						"node":6,
						"path":"translation"
					}
				},
				{
					"sampler":25,
					"target":{
						"node":6,
						"path":"rotation"
					}
				},
				{
					"sampler":26,
					"target":{
						"node":6,
						"path":"scale"
					}
				},
				{
					"sampler":27,
					"target":{
						"node":9,
						"path":"translation"
					}
				},
				{
					"sampler":28,
					"target":{
						"node":9,
						"path":"rotation"
					}
				},
				{
					"sampler":29,
					"target":{
						"node":9,
						"path":"scale"
					}
				},
				{
					"sampler":30,
					"target":{
						"node":8,
						"path":"translation"
					}
				},
				{
					"sampler":31,
					"target":{
						"node":8,
						"path":"rotation"
					}
				},
				{
					"sampler":32,
					"target":{
						"node":8,
						"path":"scale"
					}
				},
				{
					"sampler":33,
					"target":{
						"node":10,
						"path":"translation"
					}
				},
				{
					"sampler":34,
					"target":{
						"node":10,
						"path":"rotation"
					}
				},
				{
					"sampler":35,
					"target":{
						"node":10,
						"path":"scale"
					}
				}
			],
			"name":"Rennen",
			"samplers":[
				{
					"input":63,
					"interpolation":"LINEAR",
					"output":64
				},
				{
					"input":63,
					"interpolation":"LINEAR",
					"output":65
				},
				{
					"input":66,
					"interpolation":"STEP",
					"output":11
				},
				{
					"input":66,
					"interpolation":"STEP",
					"output":67
				},
				{
					"input":63,
					"interpolation":"LINEAR",
					"output":68
				},
				{
					"input":66,
					"interpolation":"STEP",
					"output":36
				},
				{
					"input":66,
					"interpolation":"STEP",
					"output":69
				},
				{
					"input":63,
					"interpolation":"LINEAR",
					"output":70
				},
				{
					"input":66,
					"interpolation":"STEP",
					"output":71
				},
				{
					"input":66,
					"interpolation":"STEP",
					"output":72
				},
				{
					"input":63,
					"interpolation":"LINEAR",
					"output":73
				},
				{
					"input":66,
					"interpolation":"STEP",
					"output":48
				},
				{
					"input":66,
					"interpolation":"STEP",
					"output":74
				},
				{
					"input":63,
					"interpolation":"LINEAR",
					"output":75
				},
				{
					"input":66,
					"interpolation":"STEP",
					"output":33
				},
				{
					"input":66,
					"interpolation":"STEP",
					"output":76
				},
				{
					"input":63,
					"interpolation":"LINEAR",
					"output":77
				},
				{
					"input":66,
					"interpolation":"STEP",
					"output":24
				},
				{
					"input":66,
					"interpolation":"STEP",
					"output":78
				},
				{
					"input":63,
					"interpolation":"LINEAR",
					"output":79
				},
				{
					"input":66,
					"interpolation":"STEP",
					"output":33
				},
				{
					"input":66,
					"interpolation":"STEP",
					"output":80
				},
				{
					"input":63,
					"interpolation":"LINEAR",
					"output":81
				},
				{
					"input":66,
					"interpolation":"STEP",
					"output":24
				},
				{
					"input":66,
					"interpolation":"STEP",
					"output":82
				},
				{
					"input":63,
					"interpolation":"LINEAR",
					"output":83
				},
				{
					"input":66,
					"interpolation":"STEP",
					"output":33
				},
				{
					"input":66,
					"interpolation":"STEP",
					"output":84
				},
				{
					"input":66,
					"interpolation":"STEP",
					"output":85
				},
				{
					"input":66,
					"interpolation":"STEP",
					"output":86
				},
				{
					"input":66,
					"interpolation":"STEP",
					"output":87
				},
				{
					"input":63,
					"interpolation":"LINEAR",
					"output":88
				},
				{
					"input":66,
					"interpolation":"STEP",
					"output":89
				},
				{
					"input":66,
					"interpolation":"STEP",
					"output":90
				},
				{
					"input":63,
					"interpolation":"LINEAR",
					"output":91
				},
				{
					"input":66,
					"interpolation":"STEP",
					"output":92
				}
			]
		}
	],
	"materials":[
		{
			"doubleSided":true,
			"name":"Schaf",
			"pbrMetallicRoughness":{
				"metallicFactor":0,
				"roughnessFactor":0.8999999761581421
			}
		}
	],
	"meshes":[
		{
			"name":"Mesh",
			"primitives":[
				{
					"attributes":{
						"POSITION":0,
						"NORMAL":1,
						"COLOR_0":2,
						"JOINTS_0":3,
						"WEIGHTS_0":4
					},
					"indices":5,
					"material":0
				}
			]
		}
	],
	"skins":[
		{
			"inverseBindMatrices":6,
			"joints":[
				11,
				1,
				0,
				3,
				2,
				5,
				4,
				7,
				6,
				9,
				8,
				10
			],
			"name":"SchafSkelett"
		}
	],
	"accessors":[
		{
			"bufferView":0,
			"componentType":5126,
			"count":7574,
			"max":[
				0.3818475902080536,
				0.9649027585983276,
				0.7314853072166443
			],
			"min":[
				-0.3816543519496918,
				0,
				-0.5330054759979248
			],
			"type":"VEC3"
		},
		{
			"bufferView":1,
			"componentType":5126,
			"count":7574,
			"type":"VEC3"
		},
		{
			"bufferView":2,
			"componentType":5126,
			"count":7574,
			"type":"VEC3"
		},
		{
			"bufferView":3,
			"componentType":5121,
			"count":7574,
			"type":"VEC4"
		},
		{
			"bufferView":4,
			"componentType":5126,
			"count":7574,
			"type":"VEC4"
		},
		{
			"bufferView":5,
			"componentType":5123,
			"count":8268,
			"type":"SCALAR"
		},
		{
			"bufferView":6,
			"componentType":5126,
			"count":12,
			"type":"MAT4"
		},
		{
			"bufferView":7,
			"componentType":5126,
			"count":181,
			"max":[
				6
			],
			"min":[
				0
			],
			"type":"SCALAR"
		},
		{
			"bufferView":8,
			"componentType":5126,
			"count":181,
			"type":"VEC3"
		},
		{
			"bufferView":9,
			"componentType":5126,
			"count":2,
			"max":[
				6
			],
			"min":[
				0
			],
			"type":"SCALAR"
		},
		{
			"bufferView":10,
			"componentType":5126,
			"count":2,
			"type":"VEC4"
		},
		{
			"bufferView":11,
			"componentType":5126,
			"count":2,
			"type":"VEC3"
		},
		{
			"bufferView":12,
			"componentType":5126,
			"count":2,
			"type":"VEC3"
		},
		{
			"bufferView":13,
			"componentType":5126,
			"count":2,
			"type":"VEC4"
		},
		{
			"bufferView":14,
			"componentType":5126,
			"count":2,
			"type":"VEC3"
		},
		{
			"bufferView":15,
			"componentType":5126,
			"count":2,
			"type":"VEC3"
		},
		{
			"bufferView":16,
			"componentType":5126,
			"count":2,
			"type":"VEC4"
		},
		{
			"bufferView":17,
			"componentType":5126,
			"count":2,
			"type":"VEC3"
		},
		{
			"bufferView":18,
			"componentType":5126,
			"count":2,
			"type":"VEC3"
		},
		{
			"bufferView":19,
			"componentType":5126,
			"count":2,
			"type":"VEC4"
		},
		{
			"bufferView":20,
			"componentType":5126,
			"count":2,
			"type":"VEC3"
		},
		{
			"bufferView":21,
			"componentType":5126,
			"count":2,
			"type":"VEC4"
		},
		{
			"bufferView":22,
			"componentType":5126,
			"count":2,
			"type":"VEC3"
		},
		{
			"bufferView":23,
			"componentType":5126,
			"count":2,
			"type":"VEC4"
		},
		{
			"bufferView":24,
			"componentType":5126,
			"count":2,
			"type":"VEC3"
		},
		{
			"bufferView":25,
			"componentType":5126,
			"count":2,
			"type":"VEC3"
		},
		{
			"bufferView":26,
			"componentType":5126,
			"count":2,
			"type":"VEC4"
		},
		{
			"bufferView":27,
			"componentType":5126,
			"count":2,
			"type":"VEC3"
		},
		{
			"bufferView":28,
			"componentType":5126,
			"count":2,
			"type":"VEC4"
		},
		{
			"bufferView":29,
			"componentType":5126,
			"count":2,
			"type":"VEC3"
		},
		{
			"bufferView":30,
			"componentType":5126,
			"count":2,
			"type":"VEC4"
		},
		{
			"bufferView":31,
			"componentType":5126,
			"count":2,
			"type":"VEC3"
		},
		{
			"bufferView":32,
			"componentType":5126,
			"count":181,
			"type":"VEC4"
		},
		{
			"bufferView":33,
			"componentType":5126,
			"count":2,
			"type":"VEC3"
		},
		{
			"bufferView":34,
			"componentType":5126,
			"count":2,
			"type":"VEC3"
		},
		{
			"bufferView":35,
			"componentType":5126,
			"count":181,
			"type":"VEC4"
		},
		{
			"bufferView":36,
			"componentType":5126,
			"count":2,
			"type":"VEC3"
		},
		{
			"bufferView":37,
			"componentType":5126,
			"count":2,
			"type":"VEC3"
		},
		{
			"bufferView":38,
			"componentType":5126,
			"count":181,
			"type":"VEC4"
		},
		{
			"bufferView":39,
			"componentType":5126,
			"count":2,
			"type":"VEC3"
		},
		{
			"bufferView":40,
			"componentType":5126,
			"count":23,
			"max":[
				0.7333333333333333
			],
			"min":[
				0
			],
			"type":"SCALAR"
		},
		{
			"bufferView":41,
			"componentType":5126,
			"count":23,
			"type":"VEC3"
		},
		{
			"bufferView":42,
			"componentType":5126,
			"count":2,
			"max":[
				0.7333333333333333
			],
			"min":[
				0
			],
			"type":"SCALAR"
		},
		{
			"bufferView":43,
			"componentType":5126,
			"count":23,
			"type":"VEC4"
		},
		{
			"bufferView":44,
			"componentType":5126,
			"count":2,
			"type":"VEC3"
		},
		{
			"bufferView":45,
			"componentType":5126,
			"count":2,
			"type":"VEC3"
		},
		{
			"bufferView":46,
			"componentType":5126,
			"count":23,
			"type":"VEC4"
		},
		{
			"bufferView":47,
			"componentType":5126,
			"count":23,
			"type":"VEC4"
		},
		{
			"bufferView":48,
			"componentType":5126,
			"count":2,
			"type":"VEC3"
		},
		{
			"bufferView":49,
			"componentType":5126,
			"count":2,
			"type":"VEC3"
		},
		{
			"bufferView":50,
			"componentType":5126,
			"count":23,
			"type":"VEC4"
		},
		{
			"bufferView":51,
			"componentType":5126,
			"count":2,
			"type":"VEC3"
		},
		{
			"bufferView":52,
			"componentType":5126,
			"count":23,
			"type":"VEC4"
		},
		{
			"bufferView":53,
			"componentType":5126,
			"count":2,
			"type":"VEC3"
		},
		{
			"bufferView":54,
			"componentType":5126,
			"count":23,
			"type":"VEC4"
		},
		{
			"bufferView":55,
			"componentType":5126,
			"count":23,
			"type":"VEC4"
		},
		{
			"bufferView":56,
			"componentType":5126,
			"count":2,
			"type":"VEC3"
		},
		{
			"bufferView":57,
			"componentType":5126,
			"count":23,
			"type":"VEC4"
		},
		{
			"bufferView":58,
			"componentType":5126,
			"count":2,
			"type":"VEC4"
		},
		{
			"bufferView":59,
			"componentType":5126,
			"count":2,
			"type":"VEC3"
		},
		{
			"bufferView":60,
			"componentType":5126,
			"count":23,
			"type":"VEC4"
		},
		{
			"bufferView":61,
			"componentType":5126,
			"count":2,
			"type":"VEC3"
		},
		{
			"bufferView":62,
			"componentType":5126,
			"count":23,
			"type":"VEC4"
		},
		{
			"bufferView":63,
			"componentType":5126,
			"count":15,
			"max":[
				0.4666666666666667
			],
			"min":[
				0
			],
			"type":"SCALAR"
		},
		{
			"bufferView":64,
			"componentType":5126,
			"count":15,
			"type":"VEC3"
		},
		{
			"bufferView":65,
			"componentType":5126,
			"count":15,
			"type":"VEC4"
		},
		{
			"bufferView":66,
			"componentType":5126,
			"count":2,
			"max":[
				0.4666666666666667
			],
			"min":[
				0
			],
			"type":"SCALAR"
		},
		{
			"bufferView":67,
			"componentType":5126,
			"count":2,
			"type":"VEC3"
		},
		{
			"bufferView":68,
			"componentType":5126,
			"count":15,
			"type":"VEC4"
		},
		{
			"bufferView":69,
			"componentType":5126,
			"count":2,
			"type":"VEC3"
		},
		{
			"bufferView":70,
			"componentType":5126,
			"count":15,
			"type":"VEC4"
		},
		{
			"bufferView":71,
			"componentType":5126,
			"count":2,
			"type":"VEC3"
		},
		{
			"bufferView":72,
			"componentType":5126,
			"count":2,
			"type":"VEC3"
		},
		{
			"bufferView":73,
			"componentType":5126,
			"count":15,
			"type":"VEC4"
		},
		{
			"bufferView":74,
			"componentType":5126,
			"count":2,
			"type":"VEC3"
		},
		{
			"bufferView":75,
			"componentType":5126,
			"count":15,
			"type":"VEC4"
		},
		{
			"bufferView":76,
			"componentType":5126,
			"count":2,
			"type":"VEC3"
		},
		{
			"bufferView":77,
			"componentType":5126,
			"count":15,
			"type":"VEC4"
		},
		{
			"bufferView":78,
			"componentType":5126,
			"count":2,
			"type":"VEC3"
		},
		{
			"bufferView":79,
			"componentType":5126,
			"count":15,
			"type":"VEC4"
		},
		{
			"bufferView":80,
			"componentType":5126,
			"count":2,
			"type":"VEC3"
		},
		{
			"bufferView":81,
			"componentType":5126,
			"count":15,
			"type":"VEC4"
		},
		{
			"bufferView":82,
			"componentType":5126,
			"count":2,
			"type":"VEC3"
		},
		{
			"bufferView":83,
			"componentType":5126,
			"count":15,
			"type":"VEC4"
		},
		{
			"bufferView":84,
			"componentType":5126,
			"count":2,
			"type":"VEC3"
		},
		{
			"bufferView":85,
			"componentType":5126,
			"count":2,
			"type":"VEC4"
		},
		{
			"bufferView":86,
			"componentType":5126,
			"count":2,
			"type":"VEC3"
		},
		{
			"bufferView":87,
			"componentType":5126,
			"count":2,
			"type":"VEC3"
		},
		{
			"bufferView":88,
			"componentType":5126,
			"count":15,
			"type":"VEC4"
		},
		{
			"bufferView":89,
			"componentType":5126,
			"count":2,
			"type":"VEC3"
		},
		{
			"bufferView":90,
			"componentType":5126,
			"count":2,
			"type":"VEC3"
		},
		{
			"bufferView":91,
			"componentType":5126,
			"count":15,
			"type":"VEC4"
		},
		{
			"bufferView":92,
			"componentType":5126,
			"count":2,
			"type":"VEC3"
		}
	],
	"bufferViews":[
		{
			"buffer":0,
			"byteLength":90888,
			"byteOffset":0,
			"target":34962
		},
		{
			"buffer":0,
			"byteLength":90888,
			"byteOffset":90888,
			"target":34962
		},
		{
			"buffer":0,
			"byteLength":90888,
			"byteOffset":181776,
			"target":34962
		},
		{
			"buffer":0,
			"byteLength":30296,
			"byteOffset":272664,
			"target":34962
		},
		{
			"buffer":0,
			"byteLength":121184,
			"byteOffset":302960,
			"target":34962
		},
		{
			"buffer":0,
			"byteLength":16536,
			"byteOffset":424144,
			"target":34963
		},
		{
			"buffer":0,
			"byteLength":768,
			"byteOffset":440680
		},
		{
			"buffer":0,
			"byteLength":724,
			"byteOffset":441448
		},
		{
			"buffer":0,
			"byteLength":2172,
			"byteOffset":442172
		},
		{
			"buffer":0,
			"byteLength":8,
			"byteOffset":444344
		},
		{
			"buffer":0,
			"byteLength":32,
			"byteOffset":444352
		},
		{
			"buffer":0,
			"byteLength":24,
			"byteOffset":444384
		},
		{
			"buffer":0,
			"byteLength":24,
			"byteOffset":444408
		},
		{
			"buffer":0,
			"byteLength":32,
			"byteOffset":444432
		},
		{
			"buffer":0,
			"byteLength":24,
			"byteOffset":444464
		},
		{
			"buffer":0,
			"byteLength":24,
			"byteOffset":444488
		},
		{
			"buffer":0,
			"byteLength":32,
			"byteOffset":444512
		},
		{
			"buffer":0,
			"byteLength":24,
			"byteOffset":444544
		},
		{
			"buffer":0,
			"byteLength":24,
			"byteOffset":444568
		},
		{
			"buffer":0,
			"byteLength":32,
			"byteOffset":444592
		},
		{
			"buffer":0,
			"byteLength":24,
			"byteOffset":444624
		},
		{
			"buffer":0,
			"byteLength":32,
			"byteOffset":444648
		},
		{
			"buffer":0,
			"byteLength":24,
			"byteOffset":444680
		},
		{
			"buffer":0,
			"byteLength":32,
			"byteOffset":444704
		},
		{
			"buffer":0,
			"byteLength":24,
			"byteOffset":444736
		},
		{
			"buffer":0,
			"byteLength":24,
			"byteOffset":444760
		},
		{
			"buffer":0,
			"byteLength":32,
			"byteOffset":444784
		},
		{
			"buffer":0,
			"byteLength":24,
			"byteOffset":444816
		},
		{
			"buffer":0,
			"byteLength":32,
			"byteOffset":444840
		},
		{
			"buffer":0,
			"byteLength":24,
			"byteOffset":444872
		},
		{
			"buffer":0,
			"byteLength":32,
			"byteOffset":444896
		},
		{
			"buffer":0,
			"byteLength":24,
			"byteOffset":444928
		},
		{
			"buffer":0,
			"byteLength":2896,
			"byteOffset":444952
		},
		{
			"buffer":0,
			"byteLength":24,
			"byteOffset":447848
		},
		{
			"buffer":0,
			"byteLength":24,
			"byteOffset":447872
		},
		{
			"buffer":0,
			"byteLength":2896,
			"byteOffset":447896
		},
		{
			"buffer":0,
			"byteLength":24,
			"byteOffset":450792
		},
		{
			"buffer":0,
			"byteLength":24,
			"byteOffset":450816
		},
		{
			"buffer":0,
			"byteLength":2896,
			"byteOffset":450840
		},
		{
			"buffer":0,
			"byteLength":24,
			"byteOffset":453736
		},
		{
			"buffer":0,
			"byteLength":92,
			"byteOffset":453760
		},
		{
			"buffer":0,
			"byteLength":276,
			"byteOffset":453852
		},
		{
			"buffer":0,
			"byteLength":8,
			"byteOffset":454128
		},
		{
			"buffer":0,
			"byteLength":368,
			"byteOffset":454136
		},
		{
			"buffer":0,
			"byteLength":24,
			"byteOffset":454504
		},
		{
			"buffer":0,
			"byteLength":24,
			"byteOffset":454528
		},
		{
			"buffer":0,
			"byteLength":368,
			"byteOffset":454552
		},
		{
			"buffer":0,
			"byteLength":368,
			"byteOffset":454920
		},
		{
			"buffer":0,
			"byteLength":24,
			"byteOffset":455288
		},
		{
			"buffer":0,
			"byteLength":24,
			"byteOffset":455312
		},
		{
			"buffer":0,
			"byteLength":368,
			"byteOffset":455336
		},
		{
			"buffer":0,
			"byteLength":24,
			"byteOffset":455704
		},
		{
			"buffer":0,
			"byteLength":368,
			"byteOffset":455728
		},
		{
			"buffer":0,
			"byteLength":24,
			"byteOffset":456096
		},
		{
			"buffer":0,
			"byteLength":368,
			"byteOffset":456120
		},
		{
			"buffer":0,
			"byteLength":368,
			"byteOffset":456488
		},
		{
			"buffer":0,
			"byteLength":24,
			"byteOffset":456856
		},
		{
			"buffer":0,
			"byteLength":368,
			"byteOffset":456880
		},
		{
			"buffer":0,
			"byteLength":32,
			"byteOffset":457248
		},
		{
			"buffer":0,
			"byteLength":24,
			"byteOffset":457280
		},
		{
			"buffer":0,
			"byteLength":368,
			"byteOffset":457304
		},
		{
			"buffer":0,
			"byteLength":24,
			"byteOffset":457672
		},
		{
			"buffer":0,
			"byteLength":368,
			"byteOffset":457696
		},
		{
			"buffer":0,
			"byteLength":60,
			"byteOffset":458064
		},
		{
			"buffer":0,
			"byteLength":180,
			"byteOffset":458124
		},
		{
			"buffer":0,
			"byteLength":240,
			"byteOffset":458304
		},
		{
			"buffer":0,
			"byteLength":8,
			"byteOffset":458544
		},
		{
			"buffer":0,
			"byteLength":24,
			"byteOffset":458552
		},
		{
			"buffer":0,
			"byteLength":240,
			"byteOffset":458576
		},
		{
			"buffer":0,
			"byteLength":24,
			"byteOffset":458816
		},
		{
			"buffer":0,
			"byteLength":240,
			"byteOffset":458840
		},
		{
			"buffer":0,
			"byteLength":24,
			"byteOffset":459080
		},
		{
			"buffer":0,
			"byteLength":24,
			"byteOffset":459104
		},
		{
			"buffer":0,
			"byteLength":240,
			"byteOffset":459128
		},
		{
			"buffer":0,
			"byteLength":24,
			"byteOffset":459368
		},
		{
			"buffer":0,
			"byteLength":240,
			"byteOffset":459392
		},
		{
			"buffer":0,
			"byteLength":24,
			"byteOffset":459632
		},
		{
			"buffer":0,
			"byteLength":240,
			"byteOffset":459656
		},
		{
			"buffer":0,
			"byteLength":24,
			"byteOffset":459896
		},
		{
			"buffer":0,
			"byteLength":240,
			"byteOffset":459920
		},
		{
			"buffer":0,
			"byteLength":24,
			"byteOffset":460160
		},
		{
			"buffer":0,
			"byteLength":240,
			"byteOffset":460184
		},
		{
			"buffer":0,
			"byteLength":24,
			"byteOffset":460424
		},
		{
			"buffer":0,
			"byteLength":240,
			"byteOffset":460448
		},
		{
			"buffer":0,
			"byteLength":24,
			"byteOffset":460688
		},
		{
			"buffer":0,
			"byteLength":32,
			"byteOffset":460712
		},
		{
			"buffer":0,
			"byteLength":24,
			"byteOffset":460744
		},
		{
			"buffer":0,
			"byteLength":24,
			"byteOffset":460768
		},
		{
			"buffer":0,
			"byteLength":240,
			"byteOffset":460792
		},
		{
			"buffer":0,
			"byteLength":24,
			"byteOffset":461032
		},
		{
			"buffer":0,
			"byteLength":24,
			"byteOffset":461056
		},
		{
			"buffer":0,
			"byteLength":240,
			"byteOffset":461080
		},
		{
			"buffer":0,
			"byteLength":24,
			"byteOffset":461320
		}
	],
	"buffers":[
		{
			"byteLength":461344,
			"uri":"schaf.bin"
		}
	]
}
