{
	"asset":{
		"generator":"Khronos glTF Blender I/O v5.2.40",
		"version":"2.0"
	},
	"scene":0,
	"scenes":[
		{
			"name":"Scene",
			"nodes":[
				14
			]
		}
	],
	"nodes":[
		{
			"name":"Bein.HL.unten",
			"rotation":[
				0.2872413396835327,
				0.0006265384145081043,
				0.013495347462594509,
				0.9577630162239075
			],
			"scale":[
				1,
				0.9999998211860657,
				0.9999999403953552
			],
			"translation":[
				9.32328170222263e-09,
				0.24738489091396332,
				-5.420895288210659e-09
			]
		},
		{
			"children":[
				0
			],
			"name":"Bein.HL.oben",
			"rotation":[
				1.107101184061321e-07,
				-0.7664021849632263,
				0.642361044883728,
				1.4922405000561412e-07
			],
			"scale":[
				1,
				1.000000238418579,
				1
			],
			"translation":[
				-0.11000002920627594,
				0.02577142044901848,
				-0.061933789402246475
			]
		},
		{
			"name":"Bein.HR.unten",
			"rotation":[
				0.28724125027656555,
				-0.0006265614065341651,
				-0.013495359569787979,
				0.9577630162239075
			],
			"scale":[
				1,
				0.9999998211860657,
				1
			],
			"translation":[
				-1.3028497392042482e-08,
				0.2473849505186081,
				-1.6930846058471616e-08
			]
		},
		{
			"children":[
				2
			],
			"name":"Bein.HR.oben",
			"rotation":[
				1.1071009708985002e-07,
				-0.7664021849632263,
				0.6423611044883728,
				1.492240215839047e-07
			],
			"scale":[
				1,
				0.9999998807907104,
				1
			],
			"translation":[
				0.10999996960163116,
				0.02577139064669609,
				-0.06193387135863304
			]
		},
		{
			"name":"Bein.VL.unten",
			"rotation":[
				-0.08073455095291138,
				7.631842890987173e-08,
				-1.4974821382907066e-08,
				0.996735692024231
			],
			"scale":[
				1,
				0.9999999403953552,
				1
			],
			"translation":[
				-7.418523129132382e-09,
				0.3001648783683777,
				8.186101574381155e-09
			]
		},
		{
			"children":[
				4
			],
			"name":"Bein.VL.oben",
			"rotation":[
				1.3333563231299195e-07,
				-0.6698973774909973,
				0.7424536943435669,
				1.3043384683442127e-07
			],
			"scale":[
				1,
				0.9999997019767761,
				0.9999998807907104
			],
			"translation":[
				-0.1000000461935997,
				0.6941615343093872,
				-0.1083495169878006
			]
		},
		{
			"name":"Bein.VR.unten",
			"rotation":[
				-0.08073455095291138,
				7.631842890987173e-08,
				-1.4974821382907066e-08,
				0.996735692024231
			],
			"scale":[
				1,
				0.9999999403953552,
				1
			],
			"translation":[
				-7.418523129132382e-09,
				0.3001648783683777,
				4.852414470235544e-09
			]
		},
		{
			"children":[
				6
			],
			"name":"Bein.VR.oben",
			"rotation":[
				1.3333563231299195e-07,
				-0.6698973774909973,
				0.7424536943435669,
				1.3043384683442127e-07
			],
			"scale":[
				1,
				0.9999997019767761,
				0.9999998807907104
			],
			"translation":[
				0.09999995678663254,
				0.6941615343093872,
				-0.10834959149360657
			]
		},
		{
			"name":"Kopf",
			"rotation":[
				-0.25469186902046204,
				2.305559689830261e-07,
				3.8457940831904125e-08,
				0.9670222401618958
			],
			"scale":[
				1,
				0.9999998807907104,
				1
			],
			"translation":[
				-5.467019151023534e-15,
				0.3847073018550873,
				0
			]
		},
		{
			"children":[
				8
			],
			"name":"Hals",
			"rotation":[
				0.20726849138736725,
				1.4889464986476975e-13,
				-8.071376811358277e-08,
				0.9782841205596924
			],
			"translation":[
				-4.973799150320701e-14,
				0.7217341065406799,
				-2.60770320892334e-08
			]
		},
		{
			"name":"Schwanz2",
			"rotation":[
				0.08746873587369919,
				2.96892128659465e-08,
				2.6066584446482466e-09,
				0.9961673021316528
			],
			"scale":[
				1,
				0.9999998807907104,
				0.9999999403953552
			],
			"translation":[
				1.1265538198482195e-19,
				0.27586159110069275,
				0
			]
		},
		{
			"children":[
				10
			],
			"name":"Schwanz1",
			"rotation":[
				1.8322224093481054e-07,
				-0.3383975327014923,
				0.9410032033920288,
				6.588844314592279e-08
			],
			"scale":[
				1,
				0.9999999403953552,
				0.9999998807907104
			],
			"translation":[
				6.5825203066083304e-09,
				-0.09906675666570663,
				0.016903571784496307
			]
		},
		{
			"children":[
				1,
				3,
				5,
				7,
				9,
				11
			],
			"name":"Koerper",
			"rotation":[
				1.328241552300824e-07,
				0.731190025806427,
				0.6821738481521606,
				1.4236795209399133e-07
			],
			"scale":[
				1,
				1.000000238418579,
				1.000005841255188
			],
			"translation":[
				0,
				0.699999988079071,
				-0.36000001430511475
			]
		},
		{
			"mesh":0,
			"name":"Wolf",
			"skin":0
		},
		{
			"children":[
				13,
				12
			],
			"name":"WolfSkelett"
		}
	],
	"animations":[
		{
			"channels":[
				{
					"sampler":0,
					"target":{
						"node":12,
						"path":"translation"
					}
				},
				{
					"sampler":1,
					"target":{
						"node":12,
						"path":"rotation"
					}
				},
				{
					"sampler":2,
					"target":{
						"node":12,
						"path":"scale"
					}
				},
				{
					"sampler":3,
					"target":{
						"node":1,
						"path":"translation"
					}
				},
				{
					"sampler":4,
					"target":{
						"node":1,
						"path":"rotation"
					}
				},
				{
					"sampler":5,
					"target":{
						"node":1,
						"path":"scale"
					}
				},
				{
					"sampler":6,
					"target":{
						"node":0,
						"path":"translation"
					}
				},
				{
					"sampler":7,
					"target":{
						"node":0,
						"path":"rotation"
					}
				},
				{
					"sampler":8,
					"target":{
						"node":0,
						"path":"scale"
					}
				},
				{
					"sampler":9,
					"target":{
						"node":3,
						"path":"translation"
					}
				},
				{
					"sampler":10,
					"target":{
						"node":3,
						"path":"rotation"
					}
				},
				{
					"sampler":11,
					"target":{
						"node":3,
						"path":"scale"
					}
				},
				{
					"sampler":12,
					"target":{
						"node":2,
						"path":"translation"
					}
				},
				{
					"sampler":13,
					"target":{
						"node":2,
						"path":"rotation"
					}
				},
				{
					"sampler":14,
					"target":{
						"node":2,
						"path":"scale"
					}
				},
				{
					"sampler":15,
					"target":{
						"node":5,
						"path":"translation"
					}
				},
				{
					"sampler":16,
					"target":{
						"node":5,
						"path":"rotation"
					}
				},
				{
					"sampler":17,
					"target":{
						"node":5,
						"path":"scale"
					}
				},
				{
					"sampler":18,
					"target":{
						"node":4,
						"path":"translation"
					}
				},
				{
					"sampler":19,
					"target":{
						"node":4,
						"path":"rotation"
					}
				},
				{
					"sampler":20,
					"target":{
						"node":4,
						"path":"scale"
					}
				},
				{
					"sampler":21,
					"target":{
						"node":7,
						"path":"translation"
					}
				},
				{
					"sampler":22,
					"target":{
						"node":7,
						"path":"rotation"
					}
				},
				{
					"sampler":23,
					"target":{
						"node":7,
						"path":"scale"
					}
				},
				{
					"sampler":24,
					"target":{
						"node":6,
						"path":"translation"
					}
				},
				{
					"sampler":25,
					"target":{
						"node":6,
						"path":"rotation"
					}
				},
				{
					"sampler":26,
					"target":{
						"node":6,
						"path":"scale"
					}
				},
				{
					"sampler":27,
					"target":{
						"node":9,
						"path":"translation"
					}
				},
				{
					"sampler":28,
					"target":{
						"node":9,
						"path":"rotation"
					}
				},
				{
					"sampler":29,
					"target":{
						"node":9,
						"path":"scale"
					}
				},
				{
					"sampler":30,
					"target":{
						"node":8,
						"path":"translation"
					}
				},
				{
					"sampler":31,
					"target":{
						"node":8,
						"path":"rotation"
					}
				},
				{
					"sampler":32,
					"target":{
						"node":8,
						"path":"scale"
					}
				},
				{
					"sampler":33,
					"target":{
						"node":11,
						"path":"translation"
					}
				},
				{
					"sampler":34,
					"target":{
						"node":11,
						"path":"rotation"
					}
				},
				{
					"sampler":35,
					"target":{
						"node":11,
						"path":"scale"
					}
				},
				{
					"sampler":36,
					"target":{
						"node":10,
						"path":"translation"
					}
				},
				{
					"sampler":37,
					"target":{
						"node":10,
						"path":"rotation"
					}
				},
				{
					"sampler":38,
					"target":{
						"node":10,
						"path":"scale"
					}
				}
			],
			"name":"Idle",
			"samplers":[
				{
					"input":7,
					"interpolation":"LINEAR",
					"output":8
				},
				{
					"input":9,
					"interpolation":"STEP",
					"output":10
				},
				{
					"input":9,
					"interpolation":"STEP",
					"output":11
				},
				{
					"input":9,
					"interpolation":"STEP",
					"output":12
				},
				{
					"input":9,
					"interpolation":"STEP",
					"output":13
				},
				{
					"input":9,
					"interpolation":"STEP",
					"output":14
				},
				{
					"input":9,
					"interpolation":"STEP",
					"output":15
				},
				{
					"input":9,
					"interpolation":"STEP",
					"output":16
				},
				{
					"input":9,
					"interpolation":"STEP",
					"output":17
				},
				{
					"input":9,
					"interpolation":"STEP",
					"output":18
				},
				{
					"input":9,
					"interpolation":"STEP",
					"output":19
				},
				{
					"input":9,
					"interpolation":"STEP",
					"output":20
				},
				{
					"input":9,
					"interpolation":"STEP",
					"output":21
				},
				{
					"input":9,
					"interpolation":"STEP",
					"output":22
				},
				{
					"input":9,
					"interpolation":"STEP",
					"output":23
				},
				{
					"input":9,
					"interpolation":"STEP",
					"output":24
				},
				{
					"input":9,
					"interpolation":"STEP",
					"output":25
				},
				{
					"input":9,
					"interpolation":"STEP",
					"output":26
				},
				{
					"input":9,
					"interpolation":"STEP",
					"output":27
				},
				{
					"input":9,
					"interpolation":"STEP",
					"output":28
				},
				{
					"input":9,
					"interpolation":"STEP",
					"output":23
				},
				{
					"input":9,
					"interpolation":"STEP",
					"output":29
				},
				{
					"input":9,
					"interpolation":"STEP",
					"output":25
				},
				{
					"input":9,
					"interpolation":"STEP",
					"output":26
				},
				{
					"input":9,
					"interpolation":"STEP",
					"output":30
				},
				{
					"input":9,
					"interpolation":"STEP",
					"output":28
				},
				{
					"input":9,
					"interpolation":"STEP",
					"output":23
				},
				{
					"input":9,
					"interpolation":"STEP",
					"output":31
				},
				{
					"input":7,
					"interpolation":"LINEAR",
					"output":32
				},
				{
					"input":9,
					"interpolation":"STEP",
					"output":33
				},
				{
					"input":9,
					"interpolation":"STEP",
					"output":34
				},
				{
					"input":7,
					"interpolation":"LINEAR",
					"output":35
				},
				{
					"input":9,
					"interpolation":"STEP",
					"output":36
				},
				{
					"input":9,
					"interpolation":"STEP",
					"output":37
				},
				{
					"input":7,
					"interpolation":"LINEAR",
					"output":38
				},
				{
					"input":9,
					"interpolation":"STEP",
					"output":39
				},
				{
					"input":9,
					"interpolation":"STEP",
					"output":40
				},
				{
					"input":7,
					"interpolation":"LINEAR",
					"output":41
				},
				{
					"input":9,
					"interpolation":"STEP",
					"output":17
				}
			]
		},
		{
			"channels":[
				{
					"sampler":0,
					"target":{
						"node":12,
						"path":"translation"
					}
				},
				{
					"sampler":1,
					"target":{
						"node":12,
						"path":"rotation"
					}
				},
				{
					"sampler":2,
					"target":{
						"node":12,
						"path":"scale"
					}
				},
				{
					"sampler":3,
					"target":{
						"node":1,
						"path":"translation"
					}
				},
				{
					"sampler":4,
					"target":{
						"node":1,
						"path":"rotation"
					}
				},
				{
					"sampler":5,
					"target":{
						"node":1,
						"path":"scale"
					}
				},
				{
					"sampler":6,
					"target":{
						"node":0,
						"path":"translation"
					}
				},
				{
					"sampler":7,
					"target":{
						"node":0,
						"path":"rotation"
					}
				},
				{
					"sampler":8,
					"target":{
						"node":0,
						"path":"scale"
					}
				},
				{
					"sampler":9,
					"target":{
						"node":3,
						"path":"translation"
					}
				},
				{
					"sampler":10,
					"target":{
						"node":3,
						"path":"rotation"
					}
				},
				{
					"sampler":11,
					"target":{
						"node":3,
						"path":"scale"
					}
				},
				{
					"sampler":12,
					"target":{
						"node":2,
						"path":"translation"
					}
				},
				{
					"sampler":13,
					"target":{
						"node":2,
						"path":"rotation"
					}
				},
				{
					"sampler":14,
					"target":{
						"node":2,
						"path":"scale"
					}
				},
				{
					"sampler":15,
					"target":{
						"node":5,
						"path":"translation"
					}
				},
				{
					"sampler":16,
					"target":{
						"node":5,
						"path":"rotation"
					}
				},
				{
					"sampler":17,
					"target":{
						"node":5,
						"path":"scale"
					}
				},
				{
					"sampler":18,
					"target":{
						"node":4,
						"path":"translation"
					}
				},
				{
					"sampler":19,
					"target":{
						"node":4,
						"path":"rotation"
					}
				},
				{
					"sampler":20,
					"target":{
						"node":4,
						"path":"scale"
					}
				},
				{
					"sampler":21,
					"target":{
						"node":7,
						"path":"translation"
					}
				},
				{
					"sampler":22,
					"target":{
						"node":7,
						"path":"rotation"
					}
				},
				{
					"sampler":23,
					"target":{
						"node":7,
						"path":"scale"
					}
				},
				{
					"sampler":24,
					"target":{
						"node":6,
						"path":"translation"
					}
				},
				{
					"sampler":25,
					"target":{
						"node":6,
						"path":"rotation"
					}
				},
				{
					"sampler":26,
					"target":{
						"node":6,
						"path":"scale"
					}
				},
				{
					"sampler":27,
					"target":{
						"node":9,
						"path":"translation"
					}
				},
				{
					"sampler":28,
					"target":{
						"node":9,
						"path":"rotation"
					}
				},
				{
					"sampler":29,
					"target":{
						"node":9,
						"path":"scale"
					}
				},
				{
					"sampler":30,
					"target":{
						"node":8,
						"path":"translation"
					}
				},
				{
					"sampler":31,
					"target":{
						"node":8,
						"path":"rotation"
					}
				},
				{
					"sampler":32,
					"target":{
						"node":8,
						"path":"scale"
					}
				},
				{
					"sampler":33,
					"target":{
						"node":11,
						"path":"translation"
					}
				},
				{
					"sampler":34,
					"target":{
						"node":11,
						"path":"rotation"
					}
				},
				{
					"sampler":35,
					"target":{
						"node":11,
						"path":"scale"
					}
				},
				{
					"sampler":36,
					"target":{
						"node":10,
						"path":"translation"
					}
				},
				{
					"sampler":37,
					"target":{
						"node":10,
						"path":"rotation"
					}
				},
				{
					"sampler":38,
					"target":{
						"node":10,
						"path":"scale"
					}
				}
			],
			"name":"Laufen",
			"samplers":[
				{
					"input":42,
					"interpolation":"LINEAR",
					"output":43
				},
				{
					"input":44,
					"interpolation":"STEP",
					"output":10
				},
				{
					"input":44,
					"interpolation":"STEP",
					"output":11
				},
				{
					"input":44,
					"interpolation":"STEP",
					"output":12
				},
				{
					"input":42,
					"interpolation":"LINEAR",
					"output":45
				},
				{
					"input":44,
					"interpolation":"STEP",
					"output":14
				},
				{
					"input":44,
					"interpolation":"STEP",
					"output":46
				},
				{
					"input":42,
					"interpolation":"LINEAR",
					"output":47
				},
				{
					"input":44,
					"interpolation":"STEP",
					"output":48
				},
				{
					"input":44,
					"interpolation":"STEP",
					"output":18
				},
				{
					"input":42,
					"interpolation":"LINEAR",
					"output":49
				},
				{
					"input":44,
					"interpolation":"STEP",
					"output":20
				},
				{
					"input":44,
					"interpolation":"STEP",
					"output":50
				},
				{
					"input":42,
					"interpolation":"LINEAR",
					"output":51
				},
				{
					"input":44,
					"interpolation":"STEP",
					"output":52
				},
				{
					"input":44,
					"interpolation":"STEP",
					"output":24
				},
				{
					"input":42,
					"interpolation":"LINEAR",
					"output":53
				},
				{
					"input":44,
					"interpolation":"STEP",
					"output":54
				},
				{
					"input":44,
					"interpolation":"STEP",
					"output":55
				},
				{
					"input":42,
					"interpolation":"LINEAR",
					"output":56
				},
				{
					"input":44,
					"interpolation":"STEP",
					"output":57
				},
				{
					"input":44,
					"interpolation":"STEP",
					"output":29
				},
				{
					"input":42,
					"interpolation":"LINEAR",
					"output":58
				},
				{
					"input":44,
					"interpolation":"STEP",
					"output":26
				},
				{
					"input":44,
					"interpolation":"STEP",
					"output":59
				},
				{
					"input":42,
					"interpolation":"LINEAR",
					"output":60
				},
				{
					"input":44,
					"interpolation":"STEP",
					"output":23
				},
				{
					"input":44,
					"interpolation":"STEP",
					"output":31
				},
				{
					"input":44,
					"interpolation":"STEP",
					"output":61
				},
				{
					"input":44,
					"interpolation":"STEP",
					"output":33
				},
				{
					"input":44,
					"interpolation":"STEP",
					"output":62
				},
				{
					"input":42,
					"interpolation":"LINEAR",
					"output":63
				},
				{
					"input":44,
					"interpolation":"STEP",
					"output":36
				},
				{
					"input":44,
					"interpolation":"STEP",
					"output":37
				},
				{
					"input":42,
					"interpolation":"LINEAR",
					"output":64
				},
				{
					"input":44,
					"interpolation":"STEP",
					"output":39
				},
				{
					"input":44,
					"interpolation":"STEP",
					"output":40
				},
				{
					"input":42,
					"interpolation":"LINEAR",
					"output":65
				},
				{
					"input":44,
					"interpolation":"STEP",
					"output":17
				}
			]
		},
		{
			"channels":[
				{
					"sampler":0,
					"target":{
						"node":12,
						"path":"translation"
					}
				},
				{
					"sampler":1,
					"target":{
						"node":12,
						"path":"rotation"
					}
				},
				{
					"sampler":2,
					"target":{
						"node":12,
						"path":"scale"
					}
				},
				{
					"sampler":3,
					"target":{
						"node":1,
						"path":"translation"
					}
				},
				{
					"sampler":4,
					"target":{
						"node":1,
						"path":"rotation"
					}
				},
				{
					"sampler":5,
					"target":{
						"node":1,
						"path":"scale"
					}
				},
				{
					"sampler":6,
					"target":{
						"node":0,
						"path":"translation"
					}
				},
				{
					"sampler":7,
					"target":{
						"node":0,
						"path":"rotation"
					}
				},
				{
					"sampler":8,
					"target":{
						"node":0,
						"path":"scale"
					}
				},
				{
					"sampler":9,
					"target":{
						"node":3,
						"path":"translation"
					}
				},
				{
					"sampler":10,
					"target":{
						"node":3,
						"path":"rotation"
					}
				},
				{
					"sampler":11,
					"target":{
						"node":3,
						"path":"scale"
					}
				},
				{
					"sampler":12,
					"target":{
						"node":2,
						"path":"translation"
					}
				},
				{
					"sampler":13,
					"target":{
						"node":2,
						"path":"rotation"
					}
				},
				{
					"sampler":14,
					"target":{
						"node":2,
						"path":"scale"
					}
				},
				{
					"sampler":15,
					"target":{
						"node":5,
						"path":"translation"
					}
				},
				{
					"sampler":16,
					"target":{
						"node":5,
						"path":"rotation"
					}
				},
				{
					"sampler":17,
					"target":{
						"node":5,
						"path":"scale"
					}
				},
				{
					"sampler":18,
					"target":{
						"node":4,
						"path":"translation"
					}
				},
				{
					"sampler":19,
					"target":{
						"node":4,
						"path":"rotation"
					}
				},
				{
					"sampler":20,
					"target":{
						"node":4,
						"path":"scale"
					}
				},
				{
					"sampler":21,
					"target":{
						"node":7,
						"path":"translation"
					}
				},
				{
					"sampler":22,
					"target":{
						"node":7,
						"path":"rotation"
					}
				},
				{
					"sampler":23,
					"target":{
						"node":7,
						"path":"scale"
					}
				},
				{
					"sampler":24,
					"target":{
						"node":6,
						"path":"translation"
					}
				},
				{
					"sampler":25,
					"target":{
						"node":6,
						"path":"rotation"
					}
				},
				{
					"sampler":26,
					"target":{
						"node":6,
						"path":"scale"
					}
				},
				{
					"sampler":27,
					"target":{
						"node":9,
						"path":"translation"
					}
				},
				{
					"sampler":28,
					"target":{
						"node":9,
						"path":"rotation"
					}
				},
				{
					"sampler":29,
					"target":{
						"node":9,
						"path":"scale"
					}
				},
				{
					"sampler":30,
					"target":{
						"node":8,
						"path":"translation"
					}
				},
				{
					"sampler":31,
					"target":{
						"node":8,
						"path":"rotation"
					}
				},
				{
					"sampler":32,
					"target":{
						"node":8,
						"path":"scale"
					}
				},
				{
					"sampler":33,
					"target":{
						"node":11,
						"path":"translation"
					}
				},
				{
					"sampler":34,
					"target":{
						"node":11,
						"path":"rotation"
					}
				},
				{
					"sampler":35,
					"target":{
						"node":11,
						"path":"scale"
					}
				},
				{
					"sampler":36,
					"target":{
						"node":10,
						"path":"translation"
					}
				},
				{
					"sampler":37,
					"target":{
						"node":10,
						"path":"rotation"
					}
				},
				{
					"sampler":38,
					"target":{
						"node":10,
						"path":"scale"
					}
				}
			],
			"name":"Rennen",
			"samplers":[
				{
					"input":66,
					"interpolation":"LINEAR",
					"output":67
				},
				{
					"input":66,
					"interpolation":"LINEAR",
					"output":68
				},
				{
					"input":69,
					"interpolation":"STEP",
					"output":70
				},
				{
					"input":69,
					"interpolation":"STEP",
					"output":71
				},
				{
					"input":66,
					"interpolation":"LINEAR",
					"output":72
				},
				{
					"input":69,
					"interpolation":"STEP",
					"output":73
				},
				{
					"input":69,
					"interpolation":"STEP",
					"output":74
				},
				{
					"input":66,
					"interpolation":"LINEAR",
					"output":75
				},
				{
					"input":69,
					"interpolation":"STEP",
					"output":76
				},
				{
					"input":69,
					"interpolation":"STEP",
					"output":77
				},
				{
					"input":66,
					"interpolation":"LINEAR",
					"output":78
				},
				{
					"input":69,
					"interpolation":"STEP",
					"output":20
				},
				{
					"input":69,
					"interpolation":"STEP",
					"output":79
				},
				{
					"input":66,
					"interpolation":"LINEAR",
					"output":80
				},
				{
					"input":69,
					"interpolation":"STEP",
					"output":52
				},
				{
					"input":69,
					"interpolation":"STEP",
					"output":81
				},
				{
					"input":66,
					"interpolation":"LINEAR",
					"output":82
				},
				{
					"input":69,
					"interpolation":"STEP",
					"output":54
				},
				{
					"input":69,
					"interpolation":"STEP",
					"output":83
				},
				{
					"input":66,
					"interpolation":"LINEAR",
					"output":84
				},
				{
					"input":69,
					"interpolation":"STEP",
					"output":57
				},
				{
					"input":69,
					"interpolation":"STEP",
					"output":85
				},
				{
					"input":66,
					"interpolation":"LINEAR",
					"output":86
				},
				{
					"input":69,
					"interpolation":"STEP",
					"output":76
				},
				{
					"input":69,
					"interpolation":"STEP",
					"output":87
				},
				{
					"input":66,
					"interpolation":"LINEAR",
					"output":88
				},
				{
					"input":69,
					"interpolation":"STEP",
					"output":89
				},
				{
					"input":69,
					"interpolation":"STEP",
					"output":90
				},
				{
					"input":69,
					"interpolation":"STEP",
					"output":91
				},
				{
					"input":69,
					"interpolation":"STEP",
					"output":92
				},
				{
					"input":69,
					"interpolation":"STEP",
					"output":93
				},
				{
					"input":66,
					"interpolation":"LINEAR",
					"output":94
				},
				{
					"input":69,
					"interpolation":"STEP",
					"output":52
				},
				{
					"input":69,
					"interpolation":"STEP",
					"output":95
				},
				{
					"input":66,
					"interpolation":"LINEAR",
					"output":96
				},
				{
					"input":69,
					"interpolation":"STEP",
					"output":97
				},
				{
					"input":69,
					"interpolation":"STEP",
					"output":98
				},
				{
					"input":66,
					"interpolation":"LINEAR",
					"output":99
				},
				{
					"input":69,
					"interpolation":"STEP",
					"output":48
				}
			]
		}
	],
	"materials":[
		{
			"doubleSided":true,
			"name":"Wolf",
			"pbrMetallicRoughness":{
				"metallicFactor":0,
				"roughnessFactor":0.8999999761581421
			}
		}
	],
	"meshes":[
		{
			"name":"Mesh",
			"primitives":[
				{
					"attributes":{
						"POSITION":0,
						"NORMAL":1,
						"COLOR_0":2,
						"JOINTS_0":3,
						"WEIGHTS_0":4
					},
					"indices":5,
					"material":0
				}
			]
		}
	],
	"skins":[
		{
			"inverseBindMatrices":6,
			"joints":[
				12,
				1,
				0,
				3,
				2,
				5,
				4,
				7,
				6,
				9,
				8,
				11,
				10
			],
			"name":"WolfSkelett"
		}
	],
	"accessors":[
		{
			"bufferView":0,
			"componentType":5126,
			"count":6812,
			"max":[
				0.21418917179107666,
				1.1699999570846558,
				1.0833998918533325
			],
			"min":[
				-0.21406206488609314,
				0,
				-0.9404854774475098
			],
			"type":"VEC3"
		},
		{
			"bufferView":1,
			"componentType":5126,
			"count":6812,
			"type":"VEC3"
		},
		{
			"bufferView":2,
			"componentType":5126,
			"count":6812,
			"type":"VEC3"
		},
		{
			"bufferView":3,
			"componentType":5121,
			"count":6812,
			"type":"VEC4"
		},
		{
			"bufferView":4,
			"componentType":5126,
			"count":6812,
			"type":"VEC4"
		},
		{
			"bufferView":5,
			"componentType":5123,
			"count":7668,
			"type":"SCALAR"
		},
		{
			"bufferView":6,
			"componentType":5126,
			"count":13,
			"type":"MAT4"
		},
		{
			"bufferView":7,
			"componentType":5126,
			"count":181,
			"max":[
				6
			],
			"min":[
				0
			],
			"type":"SCALAR"
		},
		{
			"bufferView":8,
			"componentType":5126,
			"count":181,
			"type":"VEC3"
		},
		{
			"bufferView":9,
			"componentType":5126,
			"count":2,
			"max":[
				6
			],
			"min":[
				0
			],
			"type":"SCALAR"
		},
		{
			"bufferView":10,
			"componentType":5126,
			"count":2,
			"type":"VEC4"
		},
		{
			"bufferView":11,
			"componentType":5126,
			"count":2,
			"type":"VEC3"
		},
		{
			"bufferView":12,
			"componentType":5126,
			"count":2,
			"type":"VEC3"
		},
		{
			"bufferView":13,
			"componentType":5126,
			"count":2,
			"type":"VEC4"
		},
		{
			"bufferView":14,
			"componentType":5126,
			"count":2,
			"type":"VEC3"
		},
		{
			"bufferView":15,
			"componentType":5126,
			"count":2,
			"type":"VEC3"
		},
		{
			"bufferView":16,
			"componentType":5126,
			"count":2,
			"type":"VEC4"
		},
		{
			"bufferView":17,
			"componentType":5126,
			"count":2,
			"type":"VEC3"
		},
		{
			"bufferView":18,
			"componentType":5126,
			"count":2,
			"type":"VEC3"
		},
		{
			"bufferView":19,
			"componentType":5126,
			"count":2,
			"type":"VEC4"
		},
		{
			"bufferView":20,
			"componentType":5126,
			"count":2,
			"type":"VEC3"
		},
		{
			"bufferView":21,
			"componentType":5126,
			"count":2,
			"type":"VEC3"
		},
		{
			"bufferView":22,
			"componentType":5126,
			"count":2,
			"type":"VEC4"
		},
		{
			"bufferView":23,
			"componentType":5126,
			"count":2,
			"type":"VEC3"
		},
		{
			"bufferView":24,
			"componentType":5126,
			"count":2,
			"type":"VEC3"
		},
		{
			"bufferView":25,
			"componentType":5126,
			"count":2,
			"type":"VEC4"
		},
		{
			"bufferView":26,
			"componentType":5126,
			"count":2,
			"type":"VEC3"
		},
		{
			"bufferView":27,
			"componentType":5126,
			"count":2,
			"type":"VEC3"
		},
		{
			"bufferView":28,
			"componentType":5126,
			"count":2,
			"type":"VEC4"
		},
		{
			"bufferView":29,
			"componentType":5126,
			"count":2,
			"type":"VEC3"
		},
		{
			"bufferView":30,
			"componentType":5126,
			"count":2,
			"type":"VEC3"
		},
		{
			"bufferView":31,
			"componentType":5126,
			"count":2,
			"type":"VEC3"
		},
		{
			"bufferView":32,
			"componentType":5126,
			"count":181,
			"type":"VEC4"
		},
		{
			"bufferView":33,
			"componentType":5126,
			"count":2,
			"type":"VEC3"
		},
		{
			"bufferView":34,
			"componentType":5126,
			"count":2,
			"type":"VEC3"
		},
		{
			"bufferView":35,
			"componentType":5126,
			"count":181,
			"type":"VEC4"
		},
		{
			"bufferView":36,
			"componentType":5126,
			"count":2,
			"type":"VEC3"
		},
		{
			"bufferView":37,
			"componentType":5126,
			"count":2,
			"type":"VEC3"
		},
		{
			"bufferView":38,
			"componentType":5126,
			"count":181,
			"type":"VEC4"
		},
		{
			"bufferView":39,
			"componentType":5126,
			"count":2,
			"type":"VEC3"
		},
		{
			"bufferView":40,
			"componentType":5126,
			"count":2,
			"type":"VEC3"
		},
		{
			"bufferView":41,
			"componentType":5126,
			"count":181,
			"type":"VEC4"
		},
		{
			"bufferView":42,
			"componentType":5126,
			"count":25,
			"max":[
				0.8
			],
			"min":[
				0
			],
			"type":"SCALAR"
		},
		{
			"bufferView":43,
			"componentType":5126,
			"count":25,
			"type":"VEC3"
		},
		{
			"bufferView":44,
			"componentType":5126,
			"count":2,
			"max":[
				0.8
			],
			"min":[
				0
			],
			"type":"SCALAR"
		},
		{
			"bufferView":45,
			"componentType":5126,
			"count":25,
			"type":"VEC4"
		},
		{
			"bufferView":46,
			"componentType":5126,
			"count":2,
			"type":"VEC3"
		},
		{
			"bufferView":47,
			"componentType":5126,
			"count":25,
			"type":"VEC4"
		},
		{
			"bufferView":48,
			"componentType":5126,
			"count":2,
			"type":"VEC3"
		},
		{
			"bufferView":49,
			"componentType":5126,
			"count":25,
			"type":"VEC4"
		},
		{
			"bufferView":50,
			"componentType":5126,
			"count":2,
			"type":"VEC3"
		},
		{
			"bufferView":51,
			"componentType":5126,
			"count":25,
			"type":"VEC4"
		},
		{
			"bufferView":52,
			"componentType":5126,
			"count":2,
			"type":"VEC3"
		},
		{
			"bufferView":53,
			"componentType":5126,
			"count":25,
			"type":"VEC4"
		},
		{
			"bufferView":54,
			"componentType":5126,
			"count":2,
			"type":"VEC3"
		},
		{
			"bufferView":55,
			"componentType":5126,
			"count":2,
			"type":"VEC3"
		},
		{
			"bufferView":56,
			"componentType":5126,
			"count":25,
			"type":"VEC4"
		},
		{
			"bufferView":57,
			"componentType":5126,
			"count":2,
			"type":"VEC3"
		},
		{
			"bufferView":58,
			"componentType":5126,
			"count":25,
			"type":"VEC4"
		},
		{
			"bufferView":59,
			"componentType":5126,
			"count":2,
			"type":"VEC3"
		},
		{
			"bufferView":60,
			"componentType":5126,
			"count":25,
			"type":"VEC4"
		},
		{
			"bufferView":61,
			"componentType":5126,
			"count":2,
			"type":"VEC4"
		},
		{
			"bufferView":62,
			"componentType":5126,
			"count":2,
			"type":"VEC3"
		},
		{
			"bufferView":63,
			"componentType":5126,
			"count":25,
			"type":"VEC4"
		},
		{
			"bufferView":64,
			"componentType":5126,
			"count":25,
			"type":"VEC4"
		},
		{
			"bufferView":65,
			"componentType":5126,
			"count":25,
			"type":"VEC4"
		},
		{
			"bufferView":66,
			"componentType":5126,
			"count":16,
			"max":[
				0.5
			],
			"min":[
				0
			],
			"type":"SCALAR"
		},
		{
			"bufferView":67,
			"componentType":5126,
			"count":16,
			"type":"VEC3"
		},
		{
			"bufferView":68,
			"componentType":5126,
			"count":16,
			"type":"VEC4"
		},
		{
			"bufferView":69,
			"componentType":5126,
			"count":2,
			"max":[
				0.5
			],
			"min":[
				0
			],
			"type":"SCALAR"
		},
		{
			"bufferView":70,
			"componentType":5126,
			"count":2,
			"type":"VEC3"
		},
		{
			"bufferView":71,
			"componentType":5126,
			"count":2,
			"type":"VEC3"
		},
		{
			"bufferView":72,
			"componentType":5126,
			"count":16,
			"type":"VEC4"
		},
		{
			"bufferView":73,
			"componentType":5126,
			"count":2,
			"type":"VEC3"
		},
		{
			"bufferView":74,
			"componentType":5126,
			"count":2,
			"type":"VEC3"
		},
		{
			"bufferView":75,
			"componentType":5126,
			"count":16,
			"type":"VEC4"
		},
		{
			"bufferView":76,
			"componentType":5126,
			"count":2,
			"type":"VEC3"
		},
		{
			"bufferView":77,
			"componentType":5126,
			"count":2,
			"type":"VEC3"
		},
		{
			"bufferView":78,
			"componentType":5126,
			"count":16,
			"type":"VEC4"
		},
		{
			"bufferView":79,
			"componentType":5126,
			"count":2,
			"type":"VEC3"
		},
		{
			"bufferView":80,
			"componentType":5126,
			"count":16,
			"type":"VEC4"
		},
		{
			"bufferView":81,
			"componentType":5126,
			"count":2,
			"type":"VEC3"
		},
		{
			"bufferView":82,
			"componentType":5126,
			"count":16,
			"type":"VEC4"
		},
		{
			"bufferView":83,
			"componentType":5126,
			"count":2,
			"type":"VEC3"
		},
		{
			"bufferView":84,
			"componentType":5126,
			"count":16,
			"type":"VEC4"
		},
		{
			"bufferView":85,
			"componentType":5126,
			"count":2,
			"type":"VEC3"
		},
		{
			"bufferView":86,
			"componentType":5126,
			"count":16,
			"type":"VEC4"
		},
		{
			"bufferView":87,
			"componentType":5126,
			"count":2,
			"type":"VEC3"
		},
		{
			"bufferView":88,
			"componentType":5126,
			"count":16,
			"type":"VEC4"
		},
		{
			"bufferView":89,
			"componentType":5126,
			"count":2,
			"type":"VEC3"
		},
		{
			"bufferView":90,
			"componentType":5126,
			"count":2,
			"type":"VEC3"
		},
		{
			"bufferView":91,
			"componentType":5126,
			"count":2,
			"type":"VEC4"
		},
		{
			"bufferView":92,
			"componentType":5126,
			"count":2,
			"type":"VEC3"
		},
		{
			"bufferView":93,
			"componentType":5126,
			"count":2,
			"type":"VEC3"
		},
		{
			"bufferView":94,
			"componentType":5126,
			"count":16,
			"type":"VEC4"
		},
		{
			"bufferView":95,
			"componentType":5126,
			"count":2,
			"type":"VEC3"
		},
		{
			"bufferView":96,
			"componentType":5126,
			"count":16,
			"type":"VEC4"
		},
		{
			"bufferView":97,
			"componentType":5126,
			"count":2,
			"type":"VEC3"
		},
		{
			"bufferView":98,
			"componentType":5126,
			"count":2,
			"type":"VEC3"
		},
		{
			"bufferView":99,
			"componentType":5126,
			"count":16,
			"type":"VEC4"
		}
	],
	"bufferViews":[
		{
			"buffer":0,
			"byteLength":81744,
			"byteOffset":0,
			"target":34962
		},
		{
			"buffer":0,
			"byteLength":81744,
			"byteOffset":81744,
			"target":34962
		},
		{
			"buffer":0,
			"byteLength":81744,
			"byteOffset":163488,
			"target":34962
		},
		{
			"buffer":0,
			"byteLength":27248,
			"byteOffset":245232,
			"target":34962
		},
		{
			"buffer":0,
			"byteLength":108992,
			"byteOffset":272480,
			"target":34962
		},
		{
			"buffer":0,
			"byteLength":15336,
			"byteOffset":381472,
			"target":34963
		},
		{
			"buffer":0,
			"byteLength":832,
			"byteOffset":396808
		},
		{
			"buffer":0,
			"byteLength":724,
			"byteOffset":397640
		},
		{
			"buffer":0,
			"byteLength":2172,
			"byteOffset":398364
		},
		{
			"buffer":0,
			"byteLength":8,
			"byteOffset":400536
		},
		{
			"buffer":0,
			"byteLength":32,
			"byteOffset":400544
		},
		{
			"buffer":0,
			"byteLength":24,
			"byteOffset":400576
		},
		{
			"buffer":0,
			"byteLength":24,
			"byteOffset":400600
		},
		{
			"buffer":0,
			"byteLength":32,
			"byteOffset":400624
		},
		{
			"buffer":0,
			"byteLength":24,
			"byteOffset":400656
		},
		{
			"buffer":0,
			"byteLength":24,
			"byteOffset":400680
		},
		{
			"buffer":0,
			"byteLength":32,
			"byteOffset":400704
		},
		{
			"buffer":0,
			"byteLength":24,
			"byteOffset":400736
		},
		{
			"buffer":0,
			"byteLength":24,
			"byteOffset":400760
		},
		{
			"buffer":0,
			"byteLength":32,
			"byteOffset":400784
		},
		{
			"buffer":0,
			"byteLength":24,
			"byteOffset":400816
		},
		{
			"buffer":0,
			"byteLength":24,
			"byteOffset":400840
		},
		{
			"buffer":0,
			"byteLength":32,
			"byteOffset":400864
		},
		{
			"buffer":0,
			"byteLength":24,
			"byteOffset":400896
		},
		{
			"buffer":0,
			"byteLength":24,
			"byteOffset":400920
		},
		{
			"buffer":0,
			"byteLength":32,
			"byteOffset":400944
		},
		{
			"buffer":0,
			"byteLength":24,
			"byteOffset":400976
		},
		{
			"buffer":0,
			"byteLength":24,
			"byteOffset":401000
		},
		{
			"buffer":0,
			"byteLength":32,
			"byteOffset":401024
		},
		{
			"buffer":0,
			"byteLength":24,
			"byteOffset":401056
		},
		{
			"buffer":0,
			"byteLength":24,
			"byteOffset":401080
		},
		{
			"buffer":0,
			"byteLength":24,
			"byteOffset":401104
		},
		{
			"buffer":0,
			"byteLength":2896,
			"byteOffset":401128
		},
		{
			"buffer":0,
			"byteLength":24,
			"byteOffset":404024
		},
		{
			"buffer":0,
			"byteLength":24,
			"byteOffset":404048
		},
		{
			"buffer":0,
			"byteLength":2896,
			"byteOffset":404072
		},
		{
			"buffer":0,
			"byteLength":24,
			"byteOffset":406968
		},
		{
			"buffer":0,
			"byteLength":24,
			"byteOffset":406992
		},
		{
			"buffer":0,
			"byteLength":2896,
			"byteOffset":407016
		},
		{
			"buffer":0,
			"byteLength":24,
			"byteOffset":409912
		},
		{
			"buffer":0,
			"byteLength":24,
			"byteOffset":409936
		},
		{
			"buffer":0,
			"byteLength":2896,
			"byteOffset":409960
		},
		{
			"buffer":0,
			"byteLength":100,
			"byteOffset":412856
		},
		{
			"buffer":0,
			"byteLength":300,
			"byteOffset":412956
		},
		{
			"buffer":0,
			"byteLength":8,
			"byteOffset":413256
		},
		{
			"buffer":0,
			"byteLength":400,
			"byteOffset":413264
		},
		{
			"buffer":0,
			"byteLength":24,
			"byteOffset":413664
		},
		{
			"buffer":0,
			"byteLength":400,
			"byteOffset":413688
		},
		{
			"buffer":0,
			"byteLength":24,
			"byteOffset":414088
		},
		{
			"buffer":0,
			"byteLength":400,
			"byteOffset":414112
		},
		{
			"buffer":0,
			"byteLength":24,
			"byteOffset":414512
		},
		{
			"buffer":0,
			"byteLength":400,
			"byteOffset":414536
		},
		{
			"buffer":0,
			"byteLength":24,
			"byteOffset":414936
		},
		{
			"buffer":0,
			"byteLength":400,
			"byteOffset":414960
		},
		{
			"buffer":0,
			"byteLength":24,
			"byteOffset":415360
		},
		{
			"buffer":0,
			"byteLength":24,
			"byteOffset":415384
		},
		{
			"buffer":0,
			"byteLength":400,
			"byteOffset":415408
		},
		{
			"buffer":0,
			"byteLength":24,
			"byteOffset":415808
		},
		{
			"buffer":0,
			"byteLength":400,
			"byteOffset":415832
		},
		{
			"buffer":0,
			"byteLength":24,
			"byteOffset":416232
		},
		{
			"buffer":0,
			"byteLength":400,
			"byteOffset":416256
		},
		{
			"buffer":0,
			"byteLength":32,
			"byteOffset":416656
		},
		{
			"buffer":0,
			"byteLength":24,
			"byteOffset":416688
		},
		{
			"buffer":0,
			"byteLength":400,
			"byteOffset":416712
		},
		{
			"buffer":0,
			"byteLength":400,
			"byteOffset":417112
		},
		{
			"buffer":0,
			"byteLength":400,
			"byteOffset":417512
		},
		{
			"buffer":0,
			"byteLength":64,
			"byteOffset":417912
		},
		{
			"buffer":0,
			"byteLength":192,
			"byteOffset":417976
		},
		{
			"buffer":0,
			"byteLength":256,
			"byteOffset":418168
		},
		{
			"buffer":0,
			"byteLength":8,
			"byteOffset":418424
		},
		{
			"buffer":0,
			"byteLength":24,
			"byteOffset":418432
		},
		{
			"buffer":0,
			"byteLength":24,
			"byteOffset":418456
		},
		{
			"buffer":0,
			"byteLength":256,
			"byteOffset":418480
		},
		{
			"buffer":0,
			"byteLength":24,
			"byteOffset":418736
		},
		{
			"buffer":0,
			"byteLength":24,
			"byteOffset":418760
		},
		{
			"buffer":0,
			"byteLength":256,
			"byteOffset":418784
		},
		{
			"buffer":0,
			"byteLength":24,
			"byteOffset":419040
		},
		{
			"buffer":0,
			"byteLength":24,
			"byteOffset":419064
		},
		{
			"buffer":0,
			"byteLength":256,
			"byteOffset":419088
		},
		{
			"buffer":0,
			"byteLength":24,
			"byteOffset":419344
		},
		{
			"buffer":0,
			"byteLength":256,
			"byteOffset":419368
		},
		{
			"buffer":0,
			"byteLength":24,
			"byteOffset":419624
		},
		{
			"buffer":0,
			"byteLength":256,
			"byteOffset":419648
		},
		{
			"buffer":0,
			"byteLength":24,
			"byteOffset":419904
		},
		{
			"buffer":0,
			"byteLength":256,
			"byteOffset":419928
		},
		{
			"buffer":0,
			"byteLength":24,
			"byteOffset":420184
		},
		{
			"buffer":0,
			"byteLength":256,
			"byteOffset":420208
		},
		{
			"buffer":0,
			"byteLength":24,
			"byteOffset":420464
		},
		{
			"buffer":0,
			"byteLength":256,
			"byteOffset":420488
		},
		{
			"buffer":0,
			"byteLength":24,
			"byteOffset":420744
		},
		{
			"buffer":0,
			"byteLength":24,
			"byteOffset":420768
		},
		{
			"buffer":0,
			"byteLength":32,
			"byteOffset":420792
		},
		{
			"buffer":0,
			"byteLength":24,
			"byteOffset":420824
		},
		{
			"buffer":0,
			"byteLength":24,
			"byteOffset":420848
		},
		{
			"buffer":0,
			"byteLength":256,
			"byteOffset":420872
		},
		{
			"buffer":0,
			"byteLength":24,
			"byteOffset":421128
		},
		{
			"buffer":0,
			"byteLength":256,
			"byteOffset":421152
		},
		{
			"buffer":0,
			"byteLength":24,
			"byteOffset":421408
		},
		{
			"buffer":0,
			"byteLength":24,
			"byteOffset":421432
		},
		{
			"buffer":0,
			"byteLength":256,
			"byteOffset":421456
		}
	],
	"buffers":[
		{
			"byteLength":421712,
			"uri":"wolf.bin"
		}
	]
}
