{
	"asset":{
		"generator":"Khronos glTF Blender I/O v5.2.40",
		"version":"2.0"
	},
	"scene":0,
	"scenes":[
		{
			"name":"Scene",
			"nodes":[
				22
			]
		}
	],
	"nodes":[
		{
			"name":"Hut",
			"rotation":[
				-0.49269899725914,
				1.4670467862742953e-07,
				-8.306281529257831e-08,
				0.8701997995376587
			],
			"scale":[
				1,
				0.9999999403953552,
				1
			],
			"translation":[
				0,
				0.2600001096725464,
				-0.019999999552965164
			]
		},
		{
			"children":[
				0
			],
			"name":"Kopf",
			"rotation":[
				0,
				-5.9604641222676946e-08,
				0,
				1
			],
			"translation":[
				0,
				0.06000018119812012,
				0
			]
		},
		{
			"children":[
				1
			],
			"name":"Hals",
			"rotation":[
				0,
				5.9604641222676946e-08,
				0,
				1
			],
			"scale":[
				1,
				0.9999999403953552,
				1
			],
			"translation":[
				0,
				0.25,
				0
			]
		},
		{
			"name":"Hand.L",
			"rotation":[
				-0.045664913952350616,
				0.0027846242301166058,
				-0.01642555743455887,
				0.9988178610801697
			],
			"scale":[
				1,
				0.9999999403953552,
				1
			],
			"translation":[
				1.5012920684398523e-08,
				0.24601835012435913,
				5.587935447692871e-09
			]
		},
		{
			"children":[
				3
			],
			"name":"Unterarm.L",
			"rotation":[
				-0.096297487616539,
				-0.0013175290077924728,
				0.05131449177861214,
				0.9940280914306641
			],
			"scale":[
				0.9999999403953552,
				1,
				1
			],
			"translation":[
				-2.6896589844227492e-08,
				0.2823118567466736,
				1.5832483768463135e-08
			]
		},
		{
			"children":[
				4
			],
			"name":"Oberarm.L",
			"rotation":[
				-0.9890241026878357,
				-0.14344002306461334,
				0.005087628494948149,
				0.03507712483406067
			],
			"scale":[
				0.9999980330467224,
				0.9999997615814209,
				0.9999998807907104
			],
			"translation":[
				0.1899999976158142,
				0.20000004768371582,
				0
			]
		},
		{
			"mesh":1,
			"name":"Werkzeug",
			"rotation":[
				-0.9883642196655273,
				0.10849487781524658,
				0.01163237914443016,
				0.10597076267004013
			],
			"scale":[
				1.0000014305114746,
				1.000000238418579,
				0.9999999403953552
			],
			"translation":[
				0.5157531499862671,
				0.84693843126297,
				0.19395993649959564
			]
		},
		{
			"children":[
				6
			],
			"name":"Hand.R",
			"rotation":[
				-0.045664913952350616,
				-0.0027846242301166058,
				0.01642555743455887,
				0.9988178610801697
			],
			"scale":[
				1,
				0.9999999403953552,
				1
			],
			"translation":[
				-1.5012920684398523e-08,
				0.24601835012435913,
				5.587935447692871e-09
			]
		},
		{
			"children":[
				7
			],
			"name":"Unterarm.R",
			"rotation":[
				-0.096297487616539,
				0.0013175290077924728,
				-0.05131449177861214,
				0.9940280914306641
			],
			"scale":[
				0.9999999403953552,
				1,
				1
			],
			"translation":[
				2.6896589844227492e-08,
				0.2823118567466736,
				1.5832483768463135e-08
			]
		},
		{
			"children":[
				8
			],
			"name":"Oberarm.R",
			"rotation":[
				-0.9890241026878357,
				0.14344002306461334,
				-0.005087628494948149,
				0.03507712483406067
			],
			"scale":[
				0.9999980330467224,
				0.9999997615814209,
				0.9999998807907104
			],
			"translation":[
				-0.1899999976158142,
				0.20000004768371582,
				0
			]
		},
		{
			"mesh":2,
			"name":"Last",
			"translation":[
				0,
				-1.2699999809265137,
				0
			]
		},
		{
			"mesh":3,
			"name":"Werkzeug_Ruecken",
			"translation":[
				0,
				-1.2699999809265137,
				0
			]
		},
		{
			"children":[
				2,
				5,
				9,
				10,
				11
			],
			"name":"Brust",
			"translation":[
				0,
				0.19999992847442627,
				0
			]
		},
		{
			"children":[
				12
			],
			"name":"Bauch",
			"translation":[
				0,
				0.14000004529953003,
				0
			]
		},
		{
			"name":"Fuss.L",
			"rotation":[
				5.941208414128596e-09,
				0.812186062335968,
				-0.5833984613418579,
				6.131833174549683e-08
			],
			"scale":[
				1,
				0.9999996423721313,
				0.9999998807907104
			],
			"translation":[
				5.270791358924498e-09,
				0.41076144576072693,
				-1.210719524635806e-09
			]
		},
		{
			"children":[
				14
			],
			"name":"Unterschenkel.L",
			"rotation":[
				0.0362558513879776,
				4.653537999388391e-09,
				2.93763280367898e-09,
				0.9993425011634827
			],
			"translation":[
				8.257892702978609e-10,
				0.4300290644168854,
				1.8626700182267086e-10
			]
		},
		{
			"children":[
				15
			],
			"name":"Oberschenkel.L",
			"rotation":[
				0.9999830722808838,
				2.2199010685231002e-10,
				3.818359317619979e-08,
				0.005813658703118563
			],
			"translation":[
				0.10000000149011612,
				0,
				0
			]
		},
		{
			"name":"Fuss.R",
			"rotation":[
				5.941208414128596e-09,
				0.812186062335968,
				-0.5833984613418579,
				6.131833174549683e-08
			],
			"scale":[
				1,
				0.9999996423721313,
				0.9999998807907104
			],
			"translation":[
				-9.630369390833948e-09,
				0.41076144576072693,
				2.793969500203275e-10
			]
		},
		{
			"children":[
				17
			],
			"name":"Unterschenkel.R",
			"rotation":[
				0.0362558513879776,
				4.653537999388391e-09,
				2.93763280367898e-09,
				0.9993425011634827
			],
			"translation":[
				8.257892702978609e-10,
				0.4300290644168854,
				-1.8626700182267086e-10
			]
		},
		{
			"children":[
				18
			],
			"name":"Oberschenkel.R",
			"rotation":[
				0.9999830722808838,
				2.2199010685231002e-10,
				3.818359317619979e-08,
				0.005813658703118563
			],
			"translation":[
				-0.10000000149011612,
				0,
				0
			]
		},
		{
			"children":[
				13,
				16,
				19
			],
			"name":"Becken",
			"translation":[
				0,
				0.9300000071525574,
				0
			]
		},
		{
			"mesh":0,
			"name":"Erzarbeiter",
			"skin":0
		},
		{
			"children":[
				21,
				20
			],
			"name":"ErzarbeiterSkelett"
		}
	],
	"animations":[
		{
			"channels":[
				{
					"sampler":0,
					"target":{
						"node":20,
						"path":"translation"
					}
				},
				{
					"sampler":1,
					"target":{
						"node":20,
						"path":"rotation"
					}
				},
				{
					"sampler":2,
					"target":{
						"node":20,
						"path":"scale"
					}
				},
				{
					"sampler":3,
					"target":{
						"node":13,
						"path":"translation"
					}
				},
				{
					"sampler":4,
					"target":{
						"node":13,
						"path":"rotation"
					}
				},
				{
					"sampler":5,
					"target":{
						"node":13,
						"path":"scale"
					}
				},
				{
					"sampler":6,
					"target":{
						"node":12,
						"path":"translation"
					}
				},
				{
					"sampler":7,
					"target":{
						"node":12,
						"path":"rotation"
					}
				},
				{
					"sampler":8,
					"target":{
						"node":12,
						"path":"scale"
					}
				},
				{
					"sampler":9,
					"target":{
						"node":2,
						"path":"translation"
					}
				},
				{
					"sampler":10,
					"target":{
						"node":2,
						"path":"rotation"
					}
				},
				{
					"sampler":11,
					"target":{
						"node":2,
						"path":"scale"
					}
				},
				{
					"sampler":12,
					"target":{
						"node":1,
						"path":"translation"
					}
				},
				{
					"sampler":13,
					"target":{
						"node":1,
						"path":"rotation"
					}
				},
				{
					"sampler":14,
					"target":{
						"node":1,
						"path":"scale"
					}
				},
				{
					"sampler":15,
					"target":{
						"node":0,
						"path":"translation"
					}
				},
				{
					"sampler":16,
					"target":{
						"node":0,
						"path":"rotation"
					}
				},
				{
					"sampler":17,
					"target":{
						"node":0,
						"path":"scale"
					}
				},
				{
					"sampler":18,
					"target":{
						"node":5,
						"path":"translation"
					}
				},
				{
					"sampler":19,
					"target":{
						"node":5,
						"path":"rotation"
					}
				},
				{
					"sampler":20,
					"target":{
						"node":5,
						"path":"scale"
					}
				},
				{
					"sampler":21,
					"target":{
						"node":4,
						"path":"translation"
					}
				},
				{
					"sampler":22,
					"target":{
						"node":4,
						"path":"rotation"
					}
				},
				{
					"sampler":23,
					"target":{
						"node":4,
						"path":"scale"
					}
				},
				{
					"sampler":24,
					"target":{
						"node":3,
						"path":"translation"
					}
				},
				{
					"sampler":25,
					"target":{
						"node":3,
						"path":"rotation"
					}
				},
				{
					"sampler":26,
					"target":{
						"node":3,
						"path":"scale"
					}
				},
				{
					"sampler":27,
					"target":{
						"node":9,
						"path":"translation"
					}
				},
				{
					"sampler":28,
					"target":{
						"node":9,
						"path":"rotation"
					}
				},
				{
					"sampler":29,
					"target":{
						"node":9,
						"path":"scale"
					}
				},
				{
					"sampler":30,
					"target":{
						"node":8,
						"path":"translation"
					}
				},
				{
					"sampler":31,
					"target":{
						"node":8,
						"path":"rotation"
					}
				},
				{
					"sampler":32,
					"target":{
						"node":8,
						"path":"scale"
					}
				},
				{
					"sampler":33,
					"target":{
						"node":7,
						"path":"translation"
					}
				},
				{
					"sampler":34,
					"target":{
						"node":7,
						"path":"rotation"
					}
				},
				{
					"sampler":35,
					"target":{
						"node":7,
						"path":"scale"
					}
				},
				{
					"sampler":36,
					"target":{
						"node":16,
						"path":"translation"
					}
				},
				{
					"sampler":37,
					"target":{
						"node":16,
						"path":"rotation"
					}
				},
				{
					"sampler":38,
					"target":{
						"node":16,
						"path":"scale"
					}
				},
				{
					"sampler":39,
					"target":{
						"node":15,
						"path":"translation"
					}
				},
				{
					"sampler":40,
					"target":{
						"node":15,
						"path":"rotation"
					}
				},
				{
					"sampler":41,
					"target":{
						"node":15,
						"path":"scale"
					}
				},
				{
					"sampler":42,
					"target":{
						"node":14,
						"path":"translation"
					}
				},
				{
					"sampler":43,
					"target":{
						"node":14,
						"path":"rotation"
					}
				},
				{
					"sampler":44,
					"target":{
						"node":14,
						"path":"scale"
					}
				},
				{
					"sampler":45,
					"target":{
						"node":19,
						"path":"translation"
					}
				},
				{
					"sampler":46,
					"target":{
						"node":19,
						"path":"rotation"
					}
				},
				{
					"sampler":47,
					"target":{
						"node":19,
						"path":"scale"
					}
				},
				{
					"sampler":48,
					"target":{
						"node":18,
						"path":"translation"
					}
				},
				{
					"sampler":49,
					"target":{
						"node":18,
						"path":"rotation"
					}
				},
				{
					"sampler":50,
					"target":{
						"node":18,
						"path":"scale"
					}
				},
				{
					"sampler":51,
					"target":{
						"node":17,
						"path":"translation"
					}
				},
				{
					"sampler":52,
					"target":{
						"node":17,
						"path":"rotation"
					}
				},
				{
					"sampler":53,
					"target":{
						"node":17,
						"path":"scale"
					}
				}
			],
			"name":"Arbeiten",
			"samplers":[
				{
					"input":19,
					"interpolation":"LINEAR",
					"output":20
				},
				{
					"input":21,
					"interpolation":"STEP",
					"output":22
				},
				{
					"input":21,
					"interpolation":"STEP",
					"output":23
				},
				{
					"input":21,
					"interpolation":"STEP",
					"output":24
				},
				{
					"input":19,
					"interpolation":"LINEAR",
					"output":25
				},
				{
					"input":21,
					"interpolation":"STEP",
					"output":23
				},
				{
					"input":21,
					"interpolation":"STEP",
					"output":26
				},
				{
					"input":19,
					"interpolation":"LINEAR",
					"output":27
				},
				{
					"input":21,
					"interpolation":"STEP",
					"output":28
				},
				{
					"input":21,
					"interpolation":"STEP",
					"output":29
				},
				{
					"input":21,
					"interpolation":"STEP",
					"output":30
				},
				{
					"input":21,
					"interpolation":"STEP",
					"output":23
				},
				{
					"input":21,
					"interpolation":"STEP",
					"output":31
				},
				{
					"input":19,
					"interpolation":"LINEAR",
					"output":32
				},
				{
					"input":21,
					"interpolation":"STEP",
					"output":23
				},
				{
					"input":21,
					"interpolation":"STEP",
					"output":33
				},
				{
					"input":21,
					"interpolation":"STEP",
					"output":34
				},
				{
					"input":21,
					"interpolation":"STEP",
					"output":23
				},
				{
					"input":21,
					"interpolation":"STEP",
					"output":35
				},
				{
					"input":19,
					"interpolation":"LINEAR",
					"output":36
				},
				{
					"input":21,
					"interpolation":"STEP",
					"output":37
				},
				{
					"input":21,
					"interpolation":"STEP",
					"output":38
				},
				{
					"input":21,
					"interpolation":"STEP",
					"output":39
				},
				{
					"input":21,
					"interpolation":"STEP",
					"output":40
				},
				{
					"input":21,
					"interpolation":"STEP",
					"output":41
				},
				{
					"input":21,
					"interpolation":"STEP",
					"output":42
				},
				{
					"input":21,
					"interpolation":"STEP",
					"output":43
				},
				{
					"input":21,
					"interpolation":"STEP",
					"output":44
				},
				{
					"input":19,
					"interpolation":"LINEAR",
					"output":45
				},
				{
					"input":21,
					"interpolation":"STEP",
					"output":46
				},
				{
					"input":21,
					"interpolation":"STEP",
					"output":47
				},
				{
					"input":19,
					"interpolation":"LINEAR",
					"output":48
				},
				{
					"input":21,
					"interpolation":"STEP",
					"output":49
				},
				{
					"input":21,
					"interpolation":"STEP",
					"output":50
				},
				{
					"input":21,
					"interpolation":"STEP",
					"output":51
				},
				{
					"input":21,
					"interpolation":"STEP",
					"output":52
				},
				{
					"input":21,
					"interpolation":"STEP",
					"output":53
				},
				{
					"input":19,
					"interpolation":"LINEAR",
					"output":54
				},
				{
					"input":21,
					"interpolation":"STEP",
					"output":23
				},
				{
					"input":21,
					"interpolation":"STEP",
					"output":55
				},
				{
					"input":19,
					"interpolation":"LINEAR",
					"output":56
				},
				{
					"input":21,
					"interpolation":"STEP",
					"output":23
				},
				{
					"input":21,
					"interpolation":"STEP",
					"output":57
				},
				{
					"input":19,
					"interpolation":"LINEAR",
					"output":58
				},
				{
					"input":21,
					"interpolation":"STEP",
					"output":59
				},
				{
					"input":21,
					"interpolation":"STEP",
					"output":60
				},
				{
					"input":19,
					"interpolation":"LINEAR",
					"output":61
				},
				{
					"input":21,
					"interpolation":"STEP",
					"output":23
				},
				{
					"input":21,
					"interpolation":"STEP",
					"output":62
				},
				{
					"input":19,
					"interpolation":"LINEAR",
					"output":63
				},
				{
					"input":21,
					"interpolation":"STEP",
					"output":28
				},
				{
					"input":21,
					"interpolation":"STEP",
					"output":64
				},
				{
					"input":19,
					"interpolation":"LINEAR",
					"output":65
				},
				{
					"input":21,
					"interpolation":"STEP",
					"output":66
				}
			]
		},
		{
			"channels":[
				{
					"sampler":0,
					"target":{
						"node":20,
						"path":"translation"
					}
				},
				{
					"sampler":1,
					"target":{
						"node":20,
						"path":"rotation"
					}
				},
				{
					"sampler":2,
					"target":{
						"node":20,
						"path":"scale"
					}
				},
				{
					"sampler":3,
					"target":{
						"node":13,
						"path":"translation"
					}
				},
				{
					"sampler":4,
					"target":{
						"node":13,
						"path":"rotation"
					}
				},
				{
					"sampler":5,
					"target":{
						"node":13,
						"path":"scale"
					}
				},
				{
					"sampler":6,
					"target":{
						"node":12,
						"path":"translation"
					}
				},
				{
					"sampler":7,
					"target":{
						"node":12,
						"path":"rotation"
					}
				},
				{
					"sampler":8,
					"target":{
						"node":12,
						"path":"scale"
					}
				},
				{
					"sampler":9,
					"target":{
						"node":2,
						"path":"translation"
					}
				},
				{
					"sampler":10,
					"target":{
						"node":2,
						"path":"rotation"
					}
				},
				{
					"sampler":11,
					"target":{
						"node":2,
						"path":"scale"
					}
				},
				{
					"sampler":12,
					"target":{
						"node":1,
						"path":"translation"
					}
				},
				{
					"sampler":13,
					"target":{
						"node":1,
						"path":"rotation"
					}
				},
				{
					"sampler":14,
					"target":{
						"node":1,
						"path":"scale"
					}
				},
				{
					"sampler":15,
					"target":{
						"node":0,
						"path":"translation"
					}
				},
				{
					"sampler":16,
					"target":{
						"node":0,
						"path":"rotation"
					}
				},
				{
					"sampler":17,
					"target":{
						"node":0,
						"path":"scale"
					}
				},
				{
					"sampler":18,
					"target":{
						"node":5,
						"path":"translation"
					}
				},
				{
					"sampler":19,
					"target":{
						"node":5,
						"path":"rotation"
					}
				},
				{
					"sampler":20,
					"target":{
						"node":5,
						"path":"scale"
					}
				},
				{
					"sampler":21,
					"target":{
						"node":4,
						"path":"translation"
					}
				},
				{
					"sampler":22,
					"target":{
						"node":4,
						"path":"rotation"
					}
				},
				{
					"sampler":23,
					"target":{
						"node":4,
						"path":"scale"
					}
				},
				{
					"sampler":24,
					"target":{
						"node":3,
						"path":"translation"
					}
				},
				{
					"sampler":25,
					"target":{
						"node":3,
						"path":"rotation"
					}
				},
				{
					"sampler":26,
					"target":{
						"node":3,
						"path":"scale"
					}
				},
				{
					"sampler":27,
					"target":{
						"node":9,
						"path":"translation"
					}
				},
				{
					"sampler":28,
					"target":{
						"node":9,
						"path":"rotation"
					}
				},
				{
					"sampler":29,
					"target":{
						"node":9,
						"path":"scale"
					}
				},
				{
					"sampler":30,
					"target":{
						"node":8,
						"path":"translation"
					}
				},
				{
					"sampler":31,
					"target":{
						"node":8,
						"path":"rotation"
					}
				},
				{
					"sampler":32,
					"target":{
						"node":8,
						"path":"scale"
					}
				},
				{
					"sampler":33,
					"target":{
						"node":7,
						"path":"translation"
					}
				},
				{
					"sampler":34,
					"target":{
						"node":7,
						"path":"rotation"
					}
				},
				{
					"sampler":35,
					"target":{
						"node":7,
						"path":"scale"
					}
				},
				{
					"sampler":36,
					"target":{
						"node":16,
						"path":"translation"
					}
				},
				{
					"sampler":37,
					"target":{
						"node":16,
						"path":"rotation"
					}
				},
				{
					"sampler":38,
					"target":{
						"node":16,
						"path":"scale"
					}
				},
				{
					"sampler":39,
					"target":{
						"node":15,
						"path":"translation"
					}
				},
				{
					"sampler":40,
					"target":{
						"node":15,
						"path":"rotation"
					}
				},
				{
					"sampler":41,
					"target":{
						"node":15,
						"path":"scale"
					}
				},
				{
					"sampler":42,
					"target":{
						"node":14,
						"path":"translation"
					}
				},
				{
					"sampler":43,
					"target":{
						"node":14,
						"path":"rotation"
					}
				},
				{
					"sampler":44,
					"target":{
						"node":14,
						"path":"scale"
					}
				},
				{
					"sampler":45,
					"target":{
						"node":19,
						"path":"translation"
					}
				},
				{
					"sampler":46,
					"target":{
						"node":19,
						"path":"rotation"
					}
				},
				{
					"sampler":47,
					"target":{
						"node":19,
						"path":"scale"
					}
				},
				{
					"sampler":48,
					"target":{
						"node":18,
						"path":"translation"
					}
				},
				{
					"sampler":49,
					"target":{
						"node":18,
						"path":"rotation"
					}
				},
				{
					"sampler":50,
					"target":{
						"node":18,
						"path":"scale"
					}
				},
				{
					"sampler":51,
					"target":{
						"node":17,
						"path":"translation"
					}
				},
				{
					"sampler":52,
					"target":{
						"node":17,
						"path":"rotation"
					}
				},
				{
					"sampler":53,
					"target":{
						"node":17,
						"path":"scale"
					}
				}
			],
			"name":"Buecken",
			"samplers":[
				{
					"input":67,
					"interpolation":"LINEAR",
					"output":68
				},
				{
					"input":69,
					"interpolation":"STEP",
					"output":22
				},
				{
					"input":69,
					"interpolation":"STEP",
					"output":23
				},
				{
					"input":69,
					"interpolation":"STEP",
					"output":24
				},
				{
					"input":67,
					"interpolation":"LINEAR",
					"output":70
				},
				{
					"input":69,
					"interpolation":"STEP",
					"output":23
				},
				{
					"input":69,
					"interpolation":"STEP",
					"output":71
				},
				{
					"input":67,
					"interpolation":"LINEAR",
					"output":72
				},
				{
					"input":69,
					"interpolation":"STEP",
					"output":23
				},
				{
					"input":69,
					"interpolation":"STEP",
					"output":73
				},
				{
					"input":69,
					"interpolation":"STEP",
					"output":30
				},
				{
					"input":69,
					"interpolation":"STEP",
					"output":74
				},
				{
					"input":69,
					"interpolation":"STEP",
					"output":75
				},
				{
					"input":67,
					"interpolation":"LINEAR",
					"output":76
				},
				{
					"input":69,
					"interpolation":"STEP",
					"output":23
				},
				{
					"input":69,
					"interpolation":"STEP",
					"output":77
				},
				{
					"input":69,
					"interpolation":"STEP",
					"output":34
				},
				{
					"input":69,
					"interpolation":"STEP",
					"output":78
				},
				{
					"input":69,
					"interpolation":"STEP",
					"output":79
				},
				{
					"input":67,
					"interpolation":"LINEAR",
					"output":80
				},
				{
					"input":69,
					"interpolation":"STEP",
					"output":46
				},
				{
					"input":69,
					"interpolation":"STEP",
					"output":81
				},
				{
					"input":67,
					"interpolation":"LINEAR",
					"output":82
				},
				{
					"input":69,
					"interpolation":"STEP",
					"output":83
				},
				{
					"input":69,
					"interpolation":"STEP",
					"output":84
				},
				{
					"input":69,
					"interpolation":"STEP",
					"output":85
				},
				{
					"input":69,
					"interpolation":"STEP",
					"output":86
				},
				{
					"input":69,
					"interpolation":"STEP",
					"output":87
				},
				{
					"input":67,
					"interpolation":"LINEAR",
					"output":88
				},
				{
					"input":69,
					"interpolation":"STEP",
					"output":89
				},
				{
					"input":69,
					"interpolation":"STEP",
					"output":90
				},
				{
					"input":67,
					"interpolation":"LINEAR",
					"output":91
				},
				{
					"input":69,
					"interpolation":"STEP",
					"output":83
				},
				{
					"input":69,
					"interpolation":"STEP",
					"output":92
				},
				{
					"input":69,
					"interpolation":"STEP",
					"output":93
				},
				{
					"input":69,
					"interpolation":"STEP",
					"output":94
				},
				{
					"input":69,
					"interpolation":"STEP",
					"output":53
				},
				{
					"input":67,
					"interpolation":"LINEAR",
					"output":95
				},
				{
					"input":69,
					"interpolation":"STEP",
					"output":23
				},
				{
					"input":69,
					"interpolation":"STEP",
					"output":96
				},
				{
					"input":67,
					"interpolation":"LINEAR",
					"output":97
				},
				{
					"input":69,
					"interpolation":"STEP",
					"output":28
				},
				{
					"input":69,
					"interpolation":"STEP",
					"output":98
				},
				{
					"input":67,
					"interpolation":"LINEAR",
					"output":99
				},
				{
					"input":69,
					"interpolation":"STEP",
					"output":100
				},
				{
					"input":69,
					"interpolation":"STEP",
					"output":60
				},
				{
					"input":67,
					"interpolation":"LINEAR",
					"output":101
				},
				{
					"input":69,
					"interpolation":"STEP",
					"output":23
				},
				{
					"input":69,
					"interpolation":"STEP",
					"output":102
				},
				{
					"input":67,
					"interpolation":"LINEAR",
					"output":103
				},
				{
					"input":69,
					"interpolation":"STEP",
					"output":28
				},
				{
					"input":69,
					"interpolation":"STEP",
					"output":104
				},
				{
					"input":67,
					"interpolation":"LINEAR",
					"output":105
				},
				{
					"input":69,
					"interpolation":"STEP",
					"output":100
				}
			]
		},
		{
			"channels":[
				{
					"sampler":0,
					"target":{
						"node":20,
						"path":"translation"
					}
				},
				{
					"sampler":1,
					"target":{
						"node":20,
						"path":"rotation"
					}
				},
				{
					"sampler":2,
					"target":{
						"node":20,
						"path":"scale"
					}
				},
				{
					"sampler":3,
					"target":{
						"node":13,
						"path":"translation"
					}
				},
				{
					"sampler":4,
					"target":{
						"node":13,
						"path":"rotation"
					}
				},
				{
					"sampler":5,
					"target":{
						"node":13,
						"path":"scale"
					}
				},
				{
					"sampler":6,
					"target":{
						"node":12,
						"path":"translation"
					}
				},
				{
					"sampler":7,
					"target":{
						"node":12,
						"path":"rotation"
					}
				},
				{
					"sampler":8,
					"target":{
						"node":12,
						"path":"scale"
					}
				},
				{
					"sampler":9,
					"target":{
						"node":2,
						"path":"translation"
					}
				},
				{
					"sampler":10,
					"target":{
						"node":2,
						"path":"rotation"
					}
				},
				{
					"sampler":11,
					"target":{
						"node":2,
						"path":"scale"
					}
				},
				{
					"sampler":12,
					"target":{
						"node":1,
						"path":"translation"
					}
				},
				{
					"sampler":13,
					"target":{
						"node":1,
						"path":"rotation"
					}
				},
				{
					"sampler":14,
					"target":{
						"node":1,
						"path":"scale"
					}
				},
				{
					"sampler":15,
					"target":{
						"node":0,
						"path":"translation"
					}
				},
				{
					"sampler":16,
					"target":{
						"node":0,
						"path":"rotation"
					}
				},
				{
					"sampler":17,
					"target":{
						"node":0,
						"path":"scale"
					}
				},
				{
					"sampler":18,
					"target":{
						"node":5,
						"path":"translation"
					}
				},
				{
					"sampler":19,
					"target":{
						"node":5,
						"path":"rotation"
					}
				},
				{
					"sampler":20,
					"target":{
						"node":5,
						"path":"scale"
					}
				},
				{
					"sampler":21,
					"target":{
						"node":4,
						"path":"translation"
					}
				},
				{
					"sampler":22,
					"target":{
						"node":4,
						"path":"rotation"
					}
				},
				{
					"sampler":23,
					"target":{
						"node":4,
						"path":"scale"
					}
				},
				{
					"sampler":24,
					"target":{
						"node":3,
						"path":"translation"
					}
				},
				{
					"sampler":25,
					"target":{
						"node":3,
						"path":"rotation"
					}
				},
				{
					"sampler":26,
					"target":{
						"node":3,
						"path":"scale"
					}
				},
				{
					"sampler":27,
					"target":{
						"node":9,
						"path":"translation"
					}
				},
				{
					"sampler":28,
					"target":{
						"node":9,
						"path":"rotation"
					}
				},
				{
					"sampler":29,
					"target":{
						"node":9,
						"path":"scale"
					}
				},
				{
					"sampler":30,
					"target":{
						"node":8,
						"path":"translation"
					}
				},
				{
					"sampler":31,
					"target":{
						"node":8,
						"path":"rotation"
					}
				},
				{
					"sampler":32,
					"target":{
						"node":8,
						"path":"scale"
					}
				},
				{
					"sampler":33,
					"target":{
						"node":7,
						"path":"translation"
					}
				},
				{
					"sampler":34,
					"target":{
						"node":7,
						"path":"rotation"
					}
				},
				{
					"sampler":35,
					"target":{
						"node":7,
						"path":"scale"
					}
				},
				{
					"sampler":36,
					"target":{
						"node":16,
						"path":"translation"
					}
				},
				{
					"sampler":37,
					"target":{
						"node":16,
						"path":"rotation"
					}
				},
				{
					"sampler":38,
					"target":{
						"node":16,
						"path":"scale"
					}
				},
				{
					"sampler":39,
					"target":{
						"node":15,
						"path":"translation"
					}
				},
				{
					"sampler":40,
					"target":{
						"node":15,
						"path":"rotation"
					}
				},
				{
					"sampler":41,
					"target":{
						"node":15,
						"path":"scale"
					}
				},
				{
					"sampler":42,
					"target":{
						"node":14,
						"path":"translation"
					}
				},
				{
					"sampler":43,
					"target":{
						"node":14,
						"path":"rotation"
					}
				},
				{
					"sampler":44,
					"target":{
						"node":14,
						"path":"scale"
					}
				},
				{
					"sampler":45,
					"target":{
						"node":19,
						"path":"translation"
					}
				},
				{
					"sampler":46,
					"target":{
						"node":19,
						"path":"rotation"
					}
				},
				{
					"sampler":47,
					"target":{
						"node":19,
						"path":"scale"
					}
				},
				{
					"sampler":48,
					"target":{
						"node":18,
						"path":"translation"
					}
				},
				{
					"sampler":49,
					"target":{
						"node":18,
						"path":"rotation"
					}
				},
				{
					"sampler":50,
					"target":{
						"node":18,
						"path":"scale"
					}
				},
				{
					"sampler":51,
					"target":{
						"node":17,
						"path":"translation"
					}
				},
				{
					"sampler":52,
					"target":{
						"node":17,
						"path":"rotation"
					}
				},
				{
					"sampler":53,
					"target":{
						"node":17,
						"path":"scale"
					}
				}
			],
			"name":"Idle",
			"samplers":[
				{
					"input":106,
					"interpolation":"LINEAR",
					"output":107
				},
				{
					"input":108,
					"interpolation":"STEP",
					"output":22
				},
				{
					"input":108,
					"interpolation":"STEP",
					"output":23
				},
				{
					"input":108,
					"interpolation":"STEP",
					"output":24
				},
				{
					"input":106,
					"interpolation":"LINEAR",
					"output":109
				},
				{
					"input":108,
					"interpolation":"STEP",
					"output":23
				},
				{
					"input":108,
					"interpolation":"STEP",
					"output":71
				},
				{
					"input":106,
					"interpolation":"LINEAR",
					"output":110
				},
				{
					"input":108,
					"interpolation":"STEP",
					"output":23
				},
				{
					"input":108,
					"interpolation":"STEP",
					"output":73
				},
				{
					"input":108,
					"interpolation":"STEP",
					"output":30
				},
				{
					"input":108,
					"interpolation":"STEP",
					"output":74
				},
				{
					"input":108,
					"interpolation":"STEP",
					"output":75
				},
				{
					"input":106,
					"interpolation":"LINEAR",
					"output":111
				},
				{
					"input":108,
					"interpolation":"STEP",
					"output":23
				},
				{
					"input":108,
					"interpolation":"STEP",
					"output":112
				},
				{
					"input":108,
					"interpolation":"STEP",
					"output":34
				},
				{
					"input":108,
					"interpolation":"STEP",
					"output":78
				},
				{
					"input":108,
					"interpolation":"STEP",
					"output":79
				},
				{
					"input":108,
					"interpolation":"STEP",
					"output":113
				},
				{
					"input":108,
					"interpolation":"STEP",
					"output":114
				},
				{
					"input":108,
					"interpolation":"STEP",
					"output":115
				},
				{
					"input":106,
					"interpolation":"LINEAR",
					"output":116
				},
				{
					"input":108,
					"interpolation":"STEP",
					"output":117
				},
				{
					"input":108,
					"interpolation":"STEP",
					"output":118
				},
				{
					"input":108,
					"interpolation":"STEP",
					"output":119
				},
				{
					"input":108,
					"interpolation":"STEP",
					"output":120
				},
				{
					"input":108,
					"interpolation":"STEP",
					"output":87
				},
				{
					"input":108,
					"interpolation":"STEP",
					"output":121
				},
				{
					"input":108,
					"interpolation":"STEP",
					"output":122
				},
				{
					"input":108,
					"interpolation":"STEP",
					"output":123
				},
				{
					"input":108,
					"interpolation":"STEP",
					"output":124
				},
				{
					"input":108,
					"interpolation":"STEP",
					"output":125
				},
				{
					"input":108,
					"interpolation":"STEP",
					"output":126
				},
				{
					"input":108,
					"interpolation":"STEP",
					"output":127
				},
				{
					"input":108,
					"interpolation":"STEP",
					"output":128
				},
				{
					"input":108,
					"interpolation":"STEP",
					"output":53
				},
				{
					"input":108,
					"interpolation":"STEP",
					"output":129
				},
				{
					"input":108,
					"interpolation":"STEP",
					"output":23
				},
				{
					"input":108,
					"interpolation":"STEP",
					"output":130
				},
				{
					"input":108,
					"interpolation":"STEP",
					"output":131
				},
				{
					"input":108,
					"interpolation":"STEP",
					"output":23
				},
				{
					"input":108,
					"interpolation":"STEP",
					"output":132
				},
				{
					"input":108,
					"interpolation":"STEP",
					"output":133
				},
				{
					"input":108,
					"interpolation":"STEP",
					"output":59
				},
				{
					"input":108,
					"interpolation":"STEP",
					"output":60
				},
				{
					"input":108,
					"interpolation":"STEP",
					"output":134
				},
				{
					"input":108,
					"interpolation":"STEP",
					"output":23
				},
				{
					"input":108,
					"interpolation":"STEP",
					"output":135
				},
				{
					"input":108,
					"interpolation":"STEP",
					"output":136
				},
				{
					"input":108,
					"interpolation":"STEP",
					"output":23
				},
				{
					"input":108,
					"interpolation":"STEP",
					"output":137
				},
				{
					"input":108,
					"interpolation":"STEP",
					"output":138
				},
				{
					"input":108,
					"interpolation":"STEP",
					"output":139
				}
			]
		},
		{
			"channels":[
				{
					"sampler":0,
					"target":{
						"node":20,
						"path":"translation"
					}
				},
				{
					"sampler":1,
					"target":{
						"node":20,
						"path":"rotation"
					}
				},
				{
					"sampler":2,
					"target":{
						"node":20,
						"path":"scale"
					}
				},
				{
					"sampler":3,
					"target":{
						"node":13,
						"path":"translation"
					}
				},
				{
					"sampler":4,
					"target":{
						"node":13,
						"path":"rotation"
					}
				},
				{
					"sampler":5,
					"target":{
						"node":13,
						"path":"scale"
					}
				},
				{
					"sampler":6,
					"target":{
						"node":12,
						"path":"translation"
					}
				},
				{
					"sampler":7,
					"target":{
						"node":12,
						"path":"rotation"
					}
				},
				{
					"sampler":8,
					"target":{
						"node":12,
						"path":"scale"
					}
				},
				{
					"sampler":9,
					"target":{
						"node":2,
						"path":"translation"
					}
				},
				{
					"sampler":10,
					"target":{
						"node":2,
						"path":"rotation"
					}
				},
				{
					"sampler":11,
					"target":{
						"node":2,
						"path":"scale"
					}
				},
				{
					"sampler":12,
					"target":{
						"node":1,
						"path":"translation"
					}
				},
				{
					"sampler":13,
					"target":{
						"node":1,
						"path":"rotation"
					}
				},
				{
					"sampler":14,
					"target":{
						"node":1,
						"path":"scale"
					}
				},
				{
					"sampler":15,
					"target":{
						"node":0,
						"path":"translation"
					}
				},
				{
					"sampler":16,
					"target":{
						"node":0,
						"path":"rotation"
					}
				},
				{
					"sampler":17,
					"target":{
						"node":0,
						"path":"scale"
					}
				},
				{
					"sampler":18,
					"target":{
						"node":5,
						"path":"translation"
					}
				},
				{
					"sampler":19,
					"target":{
						"node":5,
						"path":"rotation"
					}
				},
				{
					"sampler":20,
					"target":{
						"node":5,
						"path":"scale"
					}
				},
				{
					"sampler":21,
					"target":{
						"node":4,
						"path":"translation"
					}
				},
				{
					"sampler":22,
					"target":{
						"node":4,
						"path":"rotation"
					}
				},
				{
					"sampler":23,
					"target":{
						"node":4,
						"path":"scale"
					}
				},
				{
					"sampler":24,
					"target":{
						"node":3,
						"path":"translation"
					}
				},
				{
					"sampler":25,
					"target":{
						"node":3,
						"path":"rotation"
					}
				},
				{
					"sampler":26,
					"target":{
						"node":3,
						"path":"scale"
					}
				},
				{
					"sampler":27,
					"target":{
						"node":9,
						"path":"translation"
					}
				},
				{
					"sampler":28,
					"target":{
						"node":9,
						"path":"rotation"
					}
				},
				{
					"sampler":29,
					"target":{
						"node":9,
						"path":"scale"
					}
				},
				{
					"sampler":30,
					"target":{
						"node":8,
						"path":"translation"
					}
				},
				{
					"sampler":31,
					"target":{
						"node":8,
						"path":"rotation"
					}
				},
				{
					"sampler":32,
					"target":{
						"node":8,
						"path":"scale"
					}
				},
				{
					"sampler":33,
					"target":{
						"node":7,
						"path":"translation"
					}
				},
				{
					"sampler":34,
					"target":{
						"node":7,
						"path":"rotation"
					}
				},
				{
					"sampler":35,
					"target":{
						"node":7,
						"path":"scale"
					}
				},
				{
					"sampler":36,
					"target":{
						"node":16,
						"path":"translation"
					}
				},
				{
					"sampler":37,
					"target":{
						"node":16,
						"path":"rotation"
					}
				},
				{
					"sampler":38,
					"target":{
						"node":16,
						"path":"scale"
					}
				},
				{
					"sampler":39,
					"target":{
						"node":15,
						"path":"translation"
					}
				},
				{
					"sampler":40,
					"target":{
						"node":15,
						"path":"rotation"
					}
				},
				{
					"sampler":41,
					"target":{
						"node":15,
						"path":"scale"
					}
				},
				{
					"sampler":42,
					"target":{
						"node":14,
						"path":"translation"
					}
				},
				{
					"sampler":43,
					"target":{
						"node":14,
						"path":"rotation"
					}
				},
				{
					"sampler":44,
					"target":{
						"node":14,
						"path":"scale"
					}
				},
				{
					"sampler":45,
					"target":{
						"node":19,
						"path":"translation"
					}
				},
				{
					"sampler":46,
					"target":{
						"node":19,
						"path":"rotation"
					}
				},
				{
					"sampler":47,
					"target":{
						"node":19,
						"path":"scale"
					}
				},
				{
					"sampler":48,
					"target":{
						"node":18,
						"path":"translation"
					}
				},
				{
					"sampler":49,
					"target":{
						"node":18,
						"path":"rotation"
					}
				},
				{
					"sampler":50,
					"target":{
						"node":18,
						"path":"scale"
					}
				},
				{
					"sampler":51,
					"target":{
						"node":17,
						"path":"translation"
					}
				},
				{
					"sampler":52,
					"target":{
						"node":17,
						"path":"rotation"
					}
				},
				{
					"sampler":53,
					"target":{
						"node":17,
						"path":"scale"
					}
				}
			],
			"name":"Laufen",
			"samplers":[
				{
					"input":140,
					"interpolation":"LINEAR",
					"output":141
				},
				{
					"input":140,
					"interpolation":"LINEAR",
					"output":142
				},
				{
					"input":143,
					"interpolation":"STEP",
					"output":23
				},
				{
					"input":143,
					"interpolation":"STEP",
					"output":24
				},
				{
					"input":143,
					"interpolation":"STEP",
					"output":144
				},
				{
					"input":143,
					"interpolation":"STEP",
					"output":23
				},
				{
					"input":143,
					"interpolation":"STEP",
					"output":145
				},
				{
					"input":140,
					"interpolation":"LINEAR",
					"output":146
				},
				{
					"input":143,
					"interpolation":"STEP",
					"output":23
				},
				{
					"input":143,
					"interpolation":"STEP",
					"output":147
				},
				{
					"input":143,
					"interpolation":"STEP",
					"output":148
				},
				{
					"input":143,
					"interpolation":"STEP",
					"output":149
				},
				{
					"input":143,
					"interpolation":"STEP",
					"output":150
				},
				{
					"input":140,
					"interpolation":"LINEAR",
					"output":151
				},
				{
					"input":143,
					"interpolation":"STEP",
					"output":23
				},
				{
					"input":143,
					"interpolation":"STEP",
					"output":152
				},
				{
					"input":140,
					"interpolation":"LINEAR",
					"output":153
				},
				{
					"input":143,
					"interpolation":"STEP",
					"output":149
				},
				{
					"input":143,
					"interpolation":"STEP",
					"output":154
				},
				{
					"input":140,
					"interpolation":"LINEAR",
					"output":155
				},
				{
					"input":143,
					"interpolation":"STEP",
					"output":156
				},
				{
					"input":143,
					"interpolation":"STEP",
					"output":157
				},
				{
					"input":140,
					"interpolation":"LINEAR",
					"output":158
				},
				{
					"input":143,
					"interpolation":"STEP",
					"output":159
				},
				{
					"input":143,
					"interpolation":"STEP",
					"output":160
				},
				{
					"input":143,
					"interpolation":"STEP",
					"output":161
				},
				{
					"input":143,
					"interpolation":"STEP",
					"output":149
				},
				{
					"input":143,
					"interpolation":"STEP",
					"output":162
				},
				{
					"input":140,
					"interpolation":"LINEAR",
					"output":163
				},
				{
					"input":143,
					"interpolation":"STEP",
					"output":156
				},
				{
					"input":143,
					"interpolation":"STEP",
					"output":164
				},
				{
					"input":143,
					"interpolation":"STEP",
					"output":165
				},
				{
					"input":143,
					"interpolation":"STEP",
					"output":49
				},
				{
					"input":143,
					"interpolation":"STEP",
					"output":166
				},
				{
					"input":143,
					"interpolation":"STEP",
					"output":167
				},
				{
					"input":143,
					"interpolation":"STEP",
					"output":168
				},
				{
					"input":143,
					"interpolation":"STEP",
					"output":169
				},
				{
					"input":140,
					"interpolation":"LINEAR",
					"output":170
				},
				{
					"input":143,
					"interpolation":"STEP",
					"output":23
				},
				{
					"input":143,
					"interpolation":"STEP",
					"output":171
				},
				{
					"input":140,
					"interpolation":"LINEAR",
					"output":172
				},
				{
					"input":143,
					"interpolation":"STEP",
					"output":23
				},
				{
					"input":143,
					"interpolation":"STEP",
					"output":173
				},
				{
					"input":140,
					"interpolation":"LINEAR",
					"output":174
				},
				{
					"input":143,
					"interpolation":"STEP",
					"output":59
				},
				{
					"input":143,
					"interpolation":"STEP",
					"output":175
				},
				{
					"input":140,
					"interpolation":"LINEAR",
					"output":176
				},
				{
					"input":143,
					"interpolation":"STEP",
					"output":23
				},
				{
					"input":143,
					"interpolation":"STEP",
					"output":177
				},
				{
					"input":140,
					"interpolation":"LINEAR",
					"output":178
				},
				{
					"input":143,
					"interpolation":"STEP",
					"output":23
				},
				{
					"input":143,
					"interpolation":"STEP",
					"output":179
				},
				{
					"input":140,
					"interpolation":"LINEAR",
					"output":180
				},
				{
					"input":143,
					"interpolation":"STEP",
					"output":139
				}
			]
		},
		{
			"channels":[
				{
					"sampler":0,
					"target":{
						"node":20,
						"path":"translation"
					}
				},
				{
					"sampler":1,
					"target":{
						"node":20,
						"path":"rotation"
					}
				},
				{
					"sampler":2,
					"target":{
						"node":20,
						"path":"scale"
					}
				},
				{
					"sampler":3,
					"target":{
						"node":13,
						"path":"translation"
					}
				},
				{
					"sampler":4,
					"target":{
						"node":13,
						"path":"rotation"
					}
				},
				{
					"sampler":5,
					"target":{
						"node":13,
						"path":"scale"
					}
				},
				{
					"sampler":6,
					"target":{
						"node":12,
						"path":"translation"
					}
				},
				{
					"sampler":7,
					"target":{
						"node":12,
						"path":"rotation"
					}
				},
				{
					"sampler":8,
					"target":{
						"node":12,
						"path":"scale"
					}
				},
				{
					"sampler":9,
					"target":{
						"node":2,
						"path":"translation"
					}
				},
				{
					"sampler":10,
					"target":{
						"node":2,
						"path":"rotation"
					}
				},
				{
					"sampler":11,
					"target":{
						"node":2,
						"path":"scale"
					}
				},
				{
					"sampler":12,
					"target":{
						"node":1,
						"path":"translation"
					}
				},
				{
					"sampler":13,
					"target":{
						"node":1,
						"path":"rotation"
					}
				},
				{
					"sampler":14,
					"target":{
						"node":1,
						"path":"scale"
					}
				},
				{
					"sampler":15,
					"target":{
						"node":0,
						"path":"translation"
					}
				},
				{
					"sampler":16,
					"target":{
						"node":0,
						"path":"rotation"
					}
				},
				{
					"sampler":17,
					"target":{
						"node":0,
						"path":"scale"
					}
				},
				{
					"sampler":18,
					"target":{
						"node":5,
						"path":"translation"
					}
				},
				{
					"sampler":19,
					"target":{
						"node":5,
						"path":"rotation"
					}
				},
				{
					"sampler":20,
					"target":{
						"node":5,
						"path":"scale"
					}
				},
				{
					"sampler":21,
					"target":{
						"node":4,
						"path":"translation"
					}
				},
				{
					"sampler":22,
					"target":{
						"node":4,
						"path":"rotation"
					}
				},
				{
					"sampler":23,
					"target":{
						"node":4,
						"path":"scale"
					}
				},
				{
					"sampler":24,
					"target":{
						"node":3,
						"path":"translation"
					}
				},
				{
					"sampler":25,
					"target":{
						"node":3,
						"path":"rotation"
					}
				},
				{
					"sampler":26,
					"target":{
						"node":3,
						"path":"scale"
					}
				},
				{
					"sampler":27,
					"target":{
						"node":9,
						"path":"translation"
					}
				},
				{
					"sampler":28,
					"target":{
						"node":9,
						"path":"rotation"
					}
				},
				{
					"sampler":29,
					"target":{
						"node":9,
						"path":"scale"
					}
				},
				{
					"sampler":30,
					"target":{
						"node":8,
						"path":"translation"
					}
				},
				{
					"sampler":31,
					"target":{
						"node":8,
						"path":"rotation"
					}
				},
				{
					"sampler":32,
					"target":{
						"node":8,
						"path":"scale"
					}
				},
				{
					"sampler":33,
					"target":{
						"node":7,
						"path":"translation"
					}
				},
				{
					"sampler":34,
					"target":{
						"node":7,
						"path":"rotation"
					}
				},
				{
					"sampler":35,
					"target":{
						"node":7,
						"path":"scale"
					}
				},
				{
					"sampler":36,
					"target":{
						"node":16,
						"path":"translation"
					}
				},
				{
					"sampler":37,
					"target":{
						"node":16,
						"path":"rotation"
					}
				},
				{
					"sampler":38,
					"target":{
						"node":16,
						"path":"scale"
					}
				},
				{
					"sampler":39,
					"target":{
						"node":15,
						"path":"translation"
					}
				},
				{
					"sampler":40,
					"target":{
						"node":15,
						"path":"rotation"
					}
				},
				{
					"sampler":41,
					"target":{
						"node":15,
						"path":"scale"
					}
				},
				{
					"sampler":42,
					"target":{
						"node":14,
						"path":"translation"
					}
				},
				{
					"sampler":43,
					"target":{
						"node":14,
						"path":"rotation"
					}
				},
				{
					"sampler":44,
					"target":{
						"node":14,
						"path":"scale"
					}
				},
				{
					"sampler":45,
					"target":{
						"node":19,
						"path":"translation"
					}
				},
				{
					"sampler":46,
					"target":{
						"node":19,
						"path":"rotation"
					}
				},
				{
					"sampler":47,
					"target":{
						"node":19,
						"path":"scale"
					}
				},
				{
					"sampler":48,
					"target":{
						"node":18,
						"path":"translation"
					}
				},
				{
					"sampler":49,
					"target":{
						"node":18,
						"path":"rotation"
					}
				},
				{
					"sampler":50,
					"target":{
						"node":18,
						"path":"scale"
					}
				},
				{
					"sampler":51,
					"target":{
						"node":17,
						"path":"translation"
					}
				},
				{
					"sampler":52,
					"target":{
						"node":17,
						"path":"rotation"
					}
				},
				{
					"sampler":53,
					"target":{
						"node":17,
						"path":"scale"
					}
				}
			],
			"name":"Tragen",
			"samplers":[
				{
					"input":181,
					"interpolation":"LINEAR",
					"output":182
				},
				{
					"input":181,
					"interpolation":"LINEAR",
					"output":183
				},
				{
					"input":184,
					"interpolation":"STEP",
					"output":23
				},
				{
					"input":184,
					"interpolation":"STEP",
					"output":24
				},
				{
					"input":184,
					"interpolation":"STEP",
					"output":185
				},
				{
					"input":184,
					"interpolation":"STEP",
					"output":23
				},
				{
					"input":184,
					"interpolation":"STEP",
					"output":186
				},
				{
					"input":181,
					"interpolation":"LINEAR",
					"output":187
				},
				{
					"input":184,
					"interpolation":"STEP",
					"output":23
				},
				{
					"input":184,
					"interpolation":"STEP",
					"output":188
				},
				{
					"input":184,
					"interpolation":"STEP",
					"output":189
				},
				{
					"input":184,
					"interpolation":"STEP",
					"output":23
				},
				{
					"input":184,
					"interpolation":"STEP",
					"output":190
				},
				{
					"input":181,
					"interpolation":"LINEAR",
					"output":191
				},
				{
					"input":184,
					"interpolation":"STEP",
					"output":149
				},
				{
					"input":184,
					"interpolation":"STEP",
					"output":192
				},
				{
					"input":181,
					"interpolation":"LINEAR",
					"output":193
				},
				{
					"input":184,
					"interpolation":"STEP",
					"output":74
				},
				{
					"input":184,
					"interpolation":"STEP",
					"output":194
				},
				{
					"input":184,
					"interpolation":"STEP",
					"output":195
				},
				{
					"input":184,
					"interpolation":"STEP",
					"output":46
				},
				{
					"input":184,
					"interpolation":"STEP",
					"output":196
				},
				{
					"input":184,
					"interpolation":"STEP",
					"output":197
				},
				{
					"input":184,
					"interpolation":"STEP",
					"output":40
				},
				{
					"input":184,
					"interpolation":"STEP",
					"output":198
				},
				{
					"input":184,
					"interpolation":"STEP",
					"output":199
				},
				{
					"input":184,
					"interpolation":"STEP",
					"output":120
				},
				{
					"input":184,
					"interpolation":"STEP",
					"output":200
				},
				{
					"input":184,
					"interpolation":"STEP",
					"output":201
				},
				{
					"input":184,
					"interpolation":"STEP",
					"output":202
				},
				{
					"input":184,
					"interpolation":"STEP",
					"output":203
				},
				{
					"input":184,
					"interpolation":"STEP",
					"output":204
				},
				{
					"input":184,
					"interpolation":"STEP",
					"output":205
				},
				{
					"input":184,
					"interpolation":"STEP",
					"output":206
				},
				{
					"input":184,
					"interpolation":"STEP",
					"output":207
				},
				{
					"input":184,
					"interpolation":"STEP",
					"output":149
				},
				{
					"input":184,
					"interpolation":"STEP",
					"output":169
				},
				{
					"input":181,
					"interpolation":"LINEAR",
					"output":208
				},
				{
					"input":184,
					"interpolation":"STEP",
					"output":23
				},
				{
					"input":184,
					"interpolation":"STEP",
					"output":209
				},
				{
					"input":181,
					"interpolation":"LINEAR",
					"output":210
				},
				{
					"input":184,
					"interpolation":"STEP",
					"output":23
				},
				{
					"input":184,
					"interpolation":"STEP",
					"output":211
				},
				{
					"input":181,
					"interpolation":"LINEAR",
					"output":212
				},
				{
					"input":184,
					"interpolation":"STEP",
					"output":59
				},
				{
					"input":184,
					"interpolation":"STEP",
					"output":175
				},
				{
					"input":181,
					"interpolation":"LINEAR",
					"output":213
				},
				{
					"input":184,
					"interpolation":"STEP",
					"output":23
				},
				{
					"input":184,
					"interpolation":"STEP",
					"output":214
				},
				{
					"input":181,
					"interpolation":"LINEAR",
					"output":215
				},
				{
					"input":184,
					"interpolation":"STEP",
					"output":149
				},
				{
					"input":184,
					"interpolation":"STEP",
					"output":216
				},
				{
					"input":181,
					"interpolation":"LINEAR",
					"output":217
				},
				{
					"input":184,
					"interpolation":"STEP",
					"output":59
				}
			]
		}
	],
	"materials":[
		{
			"doubleSided":true,
			"name":"Erzarbeiter",
			"pbrMetallicRoughness":{
				"metallicFactor":0,
				"roughnessFactor":0.8500000238418579
			}
		}
	],
	"meshes":[
		{
			"name":"Hose",
			"primitives":[
				{
					"attributes":{
						"POSITION":0,
						"NORMAL":1,
						"COLOR_0":2,
						"JOINTS_0":3,
						"WEIGHTS_0":4
					},
					"indices":5,
					"material":0
				}
			]
		},
		{
			"name":"Werkzeug",
			"primitives":[
				{
					"attributes":{
						"POSITION":7,
						"NORMAL":8,
						"COLOR_0":9
					},
					"indices":10,
					"material":0
				}
			]
		},
		{
			"name":"Last",
			"primitives":[
				{
					"attributes":{
						"POSITION":11,
						"NORMAL":12,
						"COLOR_0":13
					},
					"indices":14,
					"material":0
				}
			]
		},
		{
			"name":"Werkzeug_Ruecken",
			"primitives":[
				{
					"attributes":{
						"POSITION":15,
						"NORMAL":16,
						"COLOR_0":17
					},
					"indices":18,
					"material":0
				}
			]
		}
	],
	"skins":[
		{
			"inverseBindMatrices":6,
			"joints":[
				20,
				13,
				12,
				2,
				1,
				0,
				5,
				4,
				3,
				9,
				8,
				7,
				16,
				15,
				14,
				19,
				18,
				17
			],
			"name":"ErzarbeiterSkelett"
		}
	],
	"accessors":[
		{
			"bufferView":0,
			"componentType":5126,
			"count":52376,
			"max":[
				0.3878943920135498,
				1.8730002641677856,
				0.17499999701976776
			],
			"min":[
				-0.36835935711860657,
				-0.009999999776482582,
				-0.4150000214576721
			],
			"type":"VEC3"
		},
		{
			"bufferView":1,
			"componentType":5126,
			"count":52376,
			"type":"VEC3"
		},
		{
			"bufferView":2,
			"componentType":5126,
			"count":52376,
			"type":"VEC3"
		},
		{
			"bufferView":3,
			"componentType":5121,
			"count":52376,
			"type":"VEC4"
		},
		{
			"bufferView":4,
			"componentType":5126,
			"count":52376,
			"type":"VEC4"
		},
		{
			"bufferView":5,
			"componentType":5123,
			"count":68808,
			"type":"SCALAR"
		},
		{
			"bufferView":6,
			"componentType":5126,
			"count":18,
			"type":"MAT4"
		},
		{
			"bufferView":7,
			"componentType":5126,
			"count":1488,
			"max":[
				-0.29099997878074646,
				0.9750000238418579,
				0.39000004529953003
			],
			"min":[
				-0.35899999737739563,
				0.08999999612569809,
				-0.12999999523162842
			],
			"type":"VEC3"
		},
		{
			"bufferView":8,
			"componentType":5126,
			"count":1488,
			"type":"VEC3"
		},
		{
			"bufferView":9,
			"componentType":5126,
			"count":1488,
			"type":"VEC3"
		},
		{
			"bufferView":10,
			"componentType":5123,
			"count":2214,
			"type":"SCALAR"
		},
		{
			"bufferView":11,
			"componentType":5126,
			"count":1386,
			"max":[
				0.0806654691696167,
				1.6345365047454834,
				-0.145718514919281
			],
			"min":[
				-0.13221850991249084,
				1.4625400304794312,
				-0.3559887111186981
			],
			"type":"VEC3"
		},
		{
			"bufferView":12,
			"componentType":5126,
			"count":1386,
			"type":"VEC3"
		},
		{
			"bufferView":13,
			"componentType":5126,
			"count":1386,
			"type":"VEC3"
		},
		{
			"bufferView":14,
			"componentType":5123,
			"count":1848,
			"type":"SCALAR"
		},
		{
			"bufferView":15,
			"componentType":5126,
			"count":1488,
			"max":[
				-0.036153800785541534,
				1.8228511810302734,
				-0.13503046333789825
			],
			"min":[
				-0.4522510766983032,
				0.93770432472229,
				-0.45245710015296936
			],
			"type":"VEC3"
		},
		{
			"bufferView":16,
			"componentType":5126,
			"count":1488,
			"type":"VEC3"
		},
		{
			"bufferView":17,
			"componentType":5126,
			"count":1488,
			"type":"VEC3"
		},
		{
			"bufferView":18,
			"componentType":5123,
			"count":2214,
			"type":"SCALAR"
		},
		{
			"bufferView":19,
			"componentType":5126,
			"count":43,
			"max":[
				1.4
			],
			"min":[
				0
			],
			"type":"SCALAR"
		},
		{
			"bufferView":20,
			"componentType":5126,
			"count":43,
			"type":"VEC3"
		},
		{
			"bufferView":21,
			"componentType":5126,
			"count":2,
			"max":[
				1.4
			],
			"min":[
				0
			],
			"type":"SCALAR"
		},
		{
			"bufferView":22,
			"componentType":5126,
			"count":2,
			"type":"VEC4"
		},
		{
			"bufferView":23,
			"componentType":5126,
			"count":2,
			"type":"VEC3"
		},
		{
			"bufferView":24,
			"componentType":5126,
			"count":2,
			"type":"VEC3"
		},
		{
			"bufferView":25,
			"componentType":5126,
			"count":43,
			"type":"VEC4"
		},
		{
			"bufferView":26,
			"componentType":5126,
			"count":2,
			"type":"VEC3"
		},
		{
			"bufferView":27,
			"componentType":5126,
			"count":43,
			"type":"VEC4"
		},
		{
			"bufferView":28,
			"componentType":5126,
			"count":2,
			"type":"VEC3"
		},
		{
			"bufferView":29,
			"componentType":5126,
			"count":2,
			"type":"VEC3"
		},
		{
			"bufferView":30,
			"componentType":5126,
			"count":2,
			"type":"VEC4"
		},
		{
			"bufferView":31,
			"componentType":5126,
			"count":2,
			"type":"VEC3"
		},
		{
			"bufferView":32,
			"componentType":5126,
			"count":43,
			"type":"VEC4"
		},
		{
			"bufferView":33,
			"componentType":5126,
			"count":2,
			"type":"VEC3"
		},
		{
			"bufferView":34,
			"componentType":5126,
			"count":2,
			"type":"VEC4"
		},
		{
			"bufferView":35,
			"componentType":5126,
			"count":2,
			"type":"VEC3"
		},
		{
			"bufferView":36,
			"componentType":5126,
			"count":43,
			"type":"VEC4"
		},
		{
			"bufferView":37,
			"componentType":5126,
			"count":2,
			"type":"VEC3"
		},
		{
			"bufferView":38,
			"componentType":5126,
			"count":2,
			"type":"VEC3"
		},
		{
			"bufferView":39,
			"componentType":5126,
			"count":2,
			"type":"VEC4"
		},
		{
			"bufferView":40,
			"componentType":5126,
			"count":2,
			"type":"VEC3"
		},
		{
			"bufferView":41,
			"componentType":5126,
			"count":2,
			"type":"VEC3"
		},
		{
			"bufferView":42,
			"componentType":5126,
			"count":2,
			"type":"VEC4"
		},
		{
			"bufferView":43,
			"componentType":5126,
			"count":2,
			"type":"VEC3"
		},
		{
			"bufferView":44,
			"componentType":5126,
			"count":2,
			"type":"VEC3"
		},
		{
			"bufferView":45,
			"componentType":5126,
			"count":43,
			"type":"VEC4"
		},
		{
			"bufferView":46,
			"componentType":5126,
			"count":2,
			"type":"VEC3"
		},
		{
			"bufferView":47,
			"componentType":5126,
			"count":2,
			"type":"VEC3"
		},
		{
			"bufferView":48,
			"componentType":5126,
			"count":43,
			"type":"VEC4"
		},
		{
			"bufferView":49,
			"componentType":5126,
			"count":2,
			"type":"VEC3"
		},
		{
			"bufferView":50,
			"componentType":5126,
			"count":2,
			"type":"VEC3"
		},
		{
			"bufferView":51,
			"componentType":5126,
			"count":2,
			"type":"VEC4"
		},
		{
			"bufferView":52,
			"componentType":5126,
			"count":2,
			"type":"VEC3"
		},
		{
			"bufferView":53,
			"componentType":5126,
			"count":2,
			"type":"VEC3"
		},
		{
			"bufferView":54,
			"componentType":5126,
			"count":43,
			"type":"VEC4"
		},
		{
			"bufferView":55,
			"componentType":5126,
			"count":2,
			"type":"VEC3"
		},
		{
			"bufferView":56,
			"componentType":5126,
			"count":43,
			"type":"VEC4"
		},
		{
			"bufferView":57,
			"componentType":5126,
			"count":2,
			"type":"VEC3"
		},
		{
			"bufferView":58,
			"componentType":5126,
			"count":43,
			"type":"VEC4"
		},
		{
			"bufferView":59,
			"componentType":5126,
			"count":2,
			"type":"VEC3"
		},
		{
			"bufferView":60,
			"componentType":5126,
			"count":2,
			"type":"VEC3"
		},
		{
			"bufferView":61,
			"componentType":5126,
			"count":43,
			"type":"VEC4"
		},
		{
			"bufferView":62,
			"componentType":5126,
			"count":2,
			"type":"VEC3"
		},
		{
			"bufferView":63,
			"componentType":5126,
			"count":43,
			"type":"VEC4"
		},
		{
			"bufferView":64,
			"componentType":5126,
			"count":2,
			"type":"VEC3"
		},
		{
			"bufferView":65,
			"componentType":5126,
			"count":43,
			"type":"VEC4"
		},
		{
			"bufferView":66,
			"componentType":5126,
			"count":2,
			"type":"VEC3"
		},
		{
			"bufferView":67,
			"componentType":5126,
			"count":41,
			"max":[
				1.3333333333333333
			],
			"min":[
				0
			],
			"type":"SCALAR"
		},
		{
			"bufferView":68,
			"componentType":5126,
			"count":41,
			"type":"VEC3"
		},
		{
			"bufferView":69,
			"componentType":5126,
			"count":2,
			"max":[
				1.3333333333333333
			],
			"min":[
				0
			],
			"type":"SCALAR"
		},
		{
			"bufferView":70,
			"componentType":5126,
			"count":41,
			"type":"VEC4"
		},
		{
			"bufferView":71,
			"componentType":5126,
			"count":2,
			"type":"VEC3"
		},
		{
			"bufferView":72,
			"componentType":5126,
			"count":41,
			"type":"VEC4"
		},
		{
			"bufferView":73,
			"componentType":5126,
			"count":2,
			"type":"VEC3"
		},
		{
			"bufferView":74,
			"componentType":5126,
			"count":2,
			"type":"VEC3"
		},
		{
			"bufferView":75,
			"componentType":5126,
			"count":2,
			"type":"VEC3"
		},
		{
			"bufferView":76,
			"componentType":5126,
			"count":41,
			"type":"VEC4"
		},
		{
			"bufferView":77,
			"componentType":5126,
			"count":2,
			"type":"VEC3"
		},
		{
			"bufferView":78,
			"componentType":5126,
			"count":2,
			"type":"VEC3"
		},
		{
			"bufferView":79,
			"componentType":5126,
			"count":2,
			"type":"VEC3"
		},
		{
			"bufferView":80,
			"componentType":5126,
			"count":41,
			"type":"VEC4"
		},
		{
			"bufferView":81,
			"componentType":5126,
			"count":2,
			"type":"VEC3"
		},
		{
			"bufferView":82,
			"componentType":5126,
			"count":41,
			"type":"VEC4"
		},
		{
			"bufferView":83,
			"componentType":5126,
			"count":2,
			"type":"VEC3"
		},
		{
			"bufferView":84,
			"componentType":5126,
			"count":2,
			"type":"VEC3"
		},
		{
			"bufferView":85,
			"componentType":5126,
			"count":2,
			"type":"VEC4"
		},
		{
			"bufferView":86,
			"componentType":5126,
			"count":2,
			"type":"VEC3"
		},
		{
			"bufferView":87,
			"componentType":5126,
			"count":2,
			"type":"VEC3"
		},
		{
			"bufferView":88,
			"componentType":5126,
			"count":41,
			"type":"VEC4"
		},
		{
			"bufferView":89,
			"componentType":5126,
			"count":2,
			"type":"VEC3"
		},
		{
			"bufferView":90,
			"componentType":5126,
			"count":2,
			"type":"VEC3"
		},
		{
			"bufferView":91,
			"componentType":5126,
			"count":41,
			"type":"VEC4"
		},
		{
			"bufferView":92,
			"componentType":5126,
			"count":2,
			"type":"VEC3"
		},
		{
			"bufferView":93,
			"componentType":5126,
			"count":2,
			"type":"VEC4"
		},
		{
			"bufferView":94,
			"componentType":5126,
			"count":2,
			"type":"VEC3"
		},
		{
			"bufferView":95,
			"componentType":5126,
			"count":41,
			"type":"VEC4"
		},
		{
			"bufferView":96,
			"componentType":5126,
			"count":2,
			"type":"VEC3"
		},
		{
			"bufferView":97,
			"componentType":5126,
			"count":41,
			"type":"VEC4"
		},
		{
			"bufferView":98,
			"componentType":5126,
			"count":2,
			"type":"VEC3"
		},
		{
			"bufferView":99,
			"componentType":5126,
			"count":41,
			"type":"VEC4"
		},
		{
			"bufferView":100,
			"componentType":5126,
			"count":2,
			"type":"VEC3"
		},
		{
			"bufferView":101,
			"componentType":5126,
			"count":41,
			"type":"VEC4"
		},
		{
			"bufferView":102,
			"componentType":5126,
			"count":2,
			"type":"VEC3"
		},
		{
			"bufferView":103,
			"componentType":5126,
			"count":41,
			"type":"VEC4"
		},
		{
			"bufferView":104,
			"componentType":5126,
			"count":2,
			"type":"VEC3"
		},
		{
			"bufferView":105,
			"componentType":5126,
			"count":41,
			"type":"VEC4"
		},
		{
			"bufferView":106,
			"componentType":5126,
			"count":181,
			"max":[
				6
			],
			"min":[
				0
			],
			"type":"SCALAR"
		},
		{
			"bufferView":107,
			"componentType":5126,
			"count":181,
			"type":"VEC3"
		},
		{
			"bufferView":108,
			"componentType":5126,
			"count":2,
			"max":[
				6
			],
			"min":[
				0
			],
			"type":"SCALAR"
		},
		{
			"bufferView":109,
			"componentType":5126,
			"count":181,
			"type":"VEC4"
		},
		{
			"bufferView":110,
			"componentType":5126,
			"count":181,
			"type":"VEC4"
		},
		{
			"bufferView":111,
			"componentType":5126,
			"count":181,
			"type":"VEC4"
		},
		{
			"bufferView":112,
			"componentType":5126,
			"count":2,
			"type":"VEC3"
		},
		{
			"bufferView":113,
			"componentType":5126,
			"count":2,
			"type":"VEC4"
		},
		{
			"bufferView":114,
			"componentType":5126,
			"count":2,
			"type":"VEC3"
		},
		{
			"bufferView":115,
			"componentType":5126,
			"count":2,
			"type":"VEC3"
		},
		{
			"bufferView":116,
			"componentType":5126,
			"count":181,
			"type":"VEC4"
		},
		{
			"bufferView":117,
			"componentType":5126,
			"count":2,
			"type":"VEC3"
		},
		{
			"bufferView":118,
			"componentType":5126,
			"count":2,
			"type":"VEC3"
		},
		{
			"bufferView":119,
			"componentType":5126,
			"count":2,
			"type":"VEC4"
		},
		{
			"bufferView":120,
			"componentType":5126,
			"count":2,
			"type":"VEC3"
		},
		{
			"bufferView":121,
			"componentType":5126,
			"count":2,
			"type":"VEC4"
		},
		{
			"bufferView":122,
			"componentType":5126,
			"count":2,
			"type":"VEC3"
		},
		{
			"bufferView":123,
			"componentType":5126,
			"count":2,
			"type":"VEC3"
		},
		{
			"bufferView":124,
			"componentType":5126,
			"count":2,
			"type":"VEC4"
		},
		{
			"bufferView":125,
			"componentType":5126,
			"count":2,
			"type":"VEC3"
		},
		{
			"bufferView":126,
			"componentType":5126,
			"count":2,
			"type":"VEC3"
		},
		{
			"bufferView":127,
			"componentType":5126,
			"count":2,
			"type":"VEC4"
		},
		{
			"bufferView":128,
			"componentType":5126,
			"count":2,
			"type":"VEC3"
		},
		{
			"bufferView":129,
			"componentType":5126,
			"count":2,
			"type":"VEC4"
		},
		{
			"bufferView":130,
			"componentType":5126,
			"count":2,
			"type":"VEC3"
		},
		{
			"bufferView":131,
			"componentType":5126,
			"count":2,
			"type":"VEC4"
		},
		{
			"bufferView":132,
			"componentType":5126,
			"count":2,
			"type":"VEC3"
		},
		{
			"bufferView":133,
			"componentType":5126,
			"count":2,
			"type":"VEC4"
		},
		{
			"bufferView":134,
			"componentType":5126,
			"count":2,
			"type":"VEC4"
		},
		{
			"bufferView":135,
			"componentType":5126,
			"count":2,
			"type":"VEC3"
		},
		{
			"bufferView":136,
			"componentType":5126,
			"count":2,
			"type":"VEC4"
		},
		{
			"bufferView":137,
			"componentType":5126,
			"count":2,
			"type":"VEC3"
		},
		{
			"bufferView":138,
			"componentType":5126,
			"count":2,
			"type":"VEC4"
		},
		{
			"bufferView":139,
			"componentType":5126,
			"count":2,
			"type":"VEC3"
		},
		{
			"bufferView":140,
			"componentType":5126,
			"count":31,
			"max":[
				1
			],
			"min":[
				0
			],
			"type":"SCALAR"
		},
		{
			"bufferView":141,
			"componentType":5126,
			"count":31,
			"type":"VEC3"
		},
		{
			"bufferView":142,
			"componentType":5126,
			"count":31,
			"type":"VEC4"
		},
		{
			"bufferView":143,
			"componentType":5126,
			"count":2,
			"max":[
				1
			],
			"min":[
				0
			],
			"type":"SCALAR"
		},
		{
			"bufferView":144,
			"componentType":5126,
			"count":2,
			"type":"VEC4"
		},
		{
			"bufferView":145,
			"componentType":5126,
			"count":2,
			"type":"VEC3"
		},
		{
			"bufferView":146,
			"componentType":5126,
			"count":31,
			"type":"VEC4"
		},
		{
			"bufferView":147,
			"componentType":5126,
			"count":2,
			"type":"VEC3"
		},
		{
			"bufferView":148,
			"componentType":5126,
			"count":2,
			"type":"VEC4"
		},
		{
			"bufferView":149,
			"componentType":5126,
			"count":2,
			"type":"VEC3"
		},
		{
			"bufferView":150,
			"componentType":5126,
			"count":2,
			"type":"VEC3"
		},
		{
			"bufferView":151,
			"componentType":5126,
			"count":31,
			"type":"VEC4"
		},
		{
			"bufferView":152,
			"componentType":5126,
			"count":2,
			"type":"VEC3"
		},
		{
			"bufferView":153,
			"componentType":5126,
			"count":31,
			"type":"VEC4"
		},
		{
			"bufferView":154,
			"componentType":5126,
			"count":2,
			"type":"VEC3"
		},
		{
			"bufferView":155,
			"componentType":5126,
			"count":31,
			"type":"VEC4"
		},
		{
			"bufferView":156,
			"componentType":5126,
			"count":2,
			"type":"VEC3"
		},
		{
			"bufferView":157,
			"componentType":5126,
			"count":2,
			"type":"VEC3"
		},
		{
			"bufferView":158,
			"componentType":5126,
			"count":31,
			"type":"VEC4"
		},
		{
			"bufferView":159,
			"componentType":5126,
			"count":2,
			"type":"VEC3"
		},
		{
			"bufferView":160,
			"componentType":5126,
			"count":2,
			"type":"VEC3"
		},
		{
			"bufferView":161,
			"componentType":5126,
			"count":2,
			"type":"VEC4"
		},
		{
			"bufferView":162,
			"componentType":5126,
			"count":2,
			"type":"VEC3"
		},
		{
			"bufferView":163,
			"componentType":5126,
			"count":31,
			"type":"VEC4"
		},
		{
			"bufferView":164,
			"componentType":5126,
			"count":2,
			"type":"VEC3"
		},
		{
			"bufferView":165,
			"componentType":5126,
			"count":2,
			"type":"VEC4"
		},
		{
			"bufferView":166,
			"componentType":5126,
			"count":2,
			"type":"VEC3"
		},
		{
			"bufferView":167,
			"componentType":5126,
			"count":2,
			"type":"VEC4"
		},
		{
			"bufferView":168,
			"componentType":5126,
			"count":2,
			"type":"VEC3"
		},
		{
			"bufferView":169,
			"componentType":5126,
			"count":2,
			"type":"VEC3"
		},
		{
			"bufferView":170,
			"componentType":5126,
			"count":31,
			"type":"VEC4"
		},
		{
			"bufferView":171,
			"componentType":5126,
			"count":2,
			"type":"VEC3"
		},
		{
			"bufferView":172,
			"componentType":5126,
			"count":31,
			"type":"VEC4"
		},
		{
			"bufferView":173,
			"componentType":5126,
			"count":2,
			"type":"VEC3"
		},
		{
			"bufferView":174,
			"componentType":5126,
			"count":31,
			"type":"VEC4"
		},
		{
			"bufferView":175,
			"componentType":5126,
			"count":2,
			"type":"VEC3"
		},
		{
			"bufferView":176,
			"componentType":5126,
			"count":31,
			"type":"VEC4"
		},
		{
			"bufferView":177,
			"componentType":5126,
			"count":2,
			"type":"VEC3"
		},
		{
			"bufferView":178,
			"componentType":5126,
			"count":31,
			"type":"VEC4"
		},
		{
			"bufferView":179,
			"componentType":5126,
			"count":2,
			"type":"VEC3"
		},
		{
			"bufferView":180,
			"componentType":5126,
			"count":31,
			"type":"VEC4"
		},
		{
			"bufferView":181,
			"componentType":5126,
			"count":37,
			"max":[
				1.2
			],
			"min":[
				0
			],
			"type":"SCALAR"
		},
		{
			"bufferView":182,
			"componentType":5126,
			"count":37,
			"type":"VEC3"
		},
		{
			"bufferView":183,
			"componentType":5126,
			"count":37,
			"type":"VEC4"
		},
		{
			"bufferView":184,
			"componentType":5126,
			"count":2,
			"max":[
				1.2
			],
			"min":[
				0
			],
			"type":"SCALAR"
		},
		{
			"bufferView":185,
			"componentType":5126,
			"count":2,
			"type":"VEC4"
		},
		{
			"bufferView":186,
			"componentType":5126,
			"count":2,
			"type":"VEC3"
		},
		{
			"bufferView":187,
			"componentType":5126,
			"count":37,
			"type":"VEC4"
		},
		{
			"bufferView":188,
			"componentType":5126,
			"count":2,
			"type":"VEC3"
		},
		{
			"bufferView":189,
			"componentType":5126,
			"count":2,
			"type":"VEC4"
		},
		{
			"bufferView":190,
			"componentType":5126,
			"count":2,
			"type":"VEC3"
		},
		{
			"bufferView":191,
			"componentType":5126,
			"count":37,
			"type":"VEC4"
		},
		{
			"bufferView":192,
			"componentType":5126,
			"count":2,
			"type":"VEC3"
		},
		{
			"bufferView":193,
			"componentType":5126,
			"count":37,
			"type":"VEC4"
		},
		{
			"bufferView":194,
			"componentType":5126,
			"count":2,
			"type":"VEC3"
		},
		{
			"bufferView":195,
			"componentType":5126,
			"count":2,
			"type":"VEC4"
		},
		{
			"bufferView":196,
			"componentType":5126,
			"count":2,
			"type":"VEC3"
		},
		{
			"bufferView":197,
			"componentType":5126,
			"count":2,
			"type":"VEC4"
		},
		{
			"bufferView":198,
			"componentType":5126,
			"count":2,
			"type":"VEC3"
		},
		{
			"bufferView":199,
			"componentType":5126,
			"count":2,
			"type":"VEC4"
		},
		{
			"bufferView":200,
			"componentType":5126,
			"count":2,
			"type":"VEC3"
		},
		{
			"bufferView":201,
			"componentType":5126,
			"count":2,
			"type":"VEC4"
		},
		{
			"bufferView":202,
			"componentType":5126,
			"count":2,
			"type":"VEC3"
		},
		{
			"bufferView":203,
			"componentType":5126,
			"count":2,
			"type":"VEC3"
		},
		{
			"bufferView":204,
			"componentType":5126,
			"count":2,
			"type":"VEC4"
		},
		{
			"bufferView":205,
			"componentType":5126,
			"count":2,
			"type":"VEC3"
		},
		{
			"bufferView":206,
			"componentType":5126,
			"count":2,
			"type":"VEC3"
		},
		{
			"bufferView":207,
			"componentType":5126,
			"count":2,
			"type":"VEC4"
		},
		{
			"bufferView":208,
			"componentType":5126,
			"count":37,
			"type":"VEC4"
		},
		{
			"bufferView":209,
			"componentType":5126,
			"count":2,
			"type":"VEC3"
		},
		{
			"bufferView":210,
			"componentType":5126,
			"count":37,
			"type":"VEC4"
		},
		{
			"bufferView":211,
			"componentType":5126,
			"count":2,
			"type":"VEC3"
		},
		{
			"bufferView":212,
			"componentType":5126,
			"count":37,
			"type":"VEC4"
		},
		{
			"bufferView":213,
			"componentType":5126,
			"count":37,
			"type":"VEC4"
		},
		{
			"bufferView":214,
			"componentType":5126,
			"count":2,
			"type":"VEC3"
		},
		{
			"bufferView":215,
			"componentType":5126,
			"count":37,
			"type":"VEC4"
		},
		{
			"bufferView":216,
			"componentType":5126,
			"count":2,
			"type":"VEC3"
		},
		{
			"bufferView":217,
			"componentType":5126,
			"count":37,
			"type":"VEC4"
		}
	],
	"bufferViews":[
		{
			"buffer":0,
			"byteLength":628512,
			"byteOffset":0,
			"target":34962
		},
		{
			"buffer":0,
			"byteLength":628512,
			"byteOffset":628512,
			"target":34962
		},
		{
			"buffer":0,
			"byteLength":628512,
			"byteOffset":1257024,
			"target":34962
		},
		{
			"buffer":0,
			"byteLength":209504,
			"byteOffset":1885536,
			"target":34962
		},
		{
			"buffer":0,
			"byteLength":838016,
			"byteOffset":2095040,
			"target":34962
		},
		{
			"buffer":0,
			"byteLength":137616,
			"byteOffset":2933056,
			"target":34963
		},
		{
			"buffer":0,
			"byteLength":1152,
			"byteOffset":3070672
		},
		{
			"buffer":0,
			"byteLength":17856,
			"byteOffset":3071824,
			"target":34962
		},
		{
			"buffer":0,
			"byteLength":17856,
			"byteOffset":3089680,
			"target":34962
		},
		{
			"buffer":0,
			"byteLength":17856,
			"byteOffset":3107536,
			"target":34962
		},
		{
			"buffer":0,
			"byteLength":4428,
			"byteOffset":3125392,
			"target":34963
		},
		{
			"buffer":0,
			"byteLength":16632,
			"byteOffset":3129820,
			"target":34962
		},
		{
			"buffer":0,
			"byteLength":16632,
			"byteOffset":3146452,
			"target":34962
		},
		{
			"buffer":0,
			"byteLength":16632,
			"byteOffset":3163084,
			"target":34962
		},
		{
			"buffer":0,
			"byteLength":3696,
			"byteOffset":3179716,
			"target":34963
		},
		{
			"buffer":0,
			"byteLength":17856,
			"byteOffset":3183412,
			"target":34962
		},
		{
			"buffer":0,
			"byteLength":17856,
			"byteOffset":3201268,
			"target":34962
		},
		{
			"buffer":0,
			"byteLength":17856,
			"byteOffset":3219124,
			"target":34962
		},
		{
			"buffer":0,
			"byteLength":4428,
			"byteOffset":3236980,
			"target":34963
		},
		{
			"buffer":0,
			"byteLength":172,
			"byteOffset":3241408
		},
		{
			"buffer":0,
			"byteLength":516,
			"byteOffset":3241580
		},
		{
			"buffer":0,
			"byteLength":8,
			"byteOffset":3242096
		},
		{
			"buffer":0,
			"byteLength":32,
			"byteOffset":3242104
		},
		{
			"buffer":0,
			"byteLength":24,
			"byteOffset":3242136
		},
		{
			"buffer":0,
			"byteLength":24,
			"byteOffset":3242160
		},
		{
			"buffer":0,
			"byteLength":688,
			"byteOffset":3242184
		},
		{
			"buffer":0,
			"byteLength":24,
			"byteOffset":3242872
		},
		{
			"buffer":0,
			"byteLength":688,
			"byteOffset":3242896
		},
		{
			"buffer":0,
			"byteLength":24,
			"byteOffset":3243584
		},
		{
			"buffer":0,
			"byteLength":24,
			"byteOffset":3243608
		},
		{
			"buffer":0,
			"byteLength":32,
			"byteOffset":3243632
		},
		{
			"buffer":0,
			"byteLength":24,
			"byteOffset":3243664
		},
		{
			"buffer":0,
			"byteLength":688,
			"byteOffset":3243688
		},
		{
			"buffer":0,
			"byteLength":24,
			"byteOffset":3244376
		},
		{
			"buffer":0,
			"byteLength":32,
			"byteOffset":3244400
		},
		{
			"buffer":0,
			"byteLength":24,
			"byteOffset":3244432
		},
		{
			"buffer":0,
			"byteLength":688,
			"byteOffset":3244456
		},
		{
			"buffer":0,
			"byteLength":24,
			"byteOffset":3245144
		},
		{
			"buffer":0,
			"byteLength":24,
			"byteOffset":3245168
		},
		{
			"buffer":0,
			"byteLength":32,
			"byteOffset":3245192
		},
		{
			"buffer":0,
			"byteLength":24,
			"byteOffset":3245224
		},
		{
			"buffer":0,
			"byteLength":24,
			"byteOffset":3245248
		},
		{
			"buffer":0,
			"byteLength":32,
			"byteOffset":3245272
		},
		{
			"buffer":0,
			"byteLength":24,
			"byteOffset":3245304
		},
		{
			"buffer":0,
			"byteLength":24,
			"byteOffset":3245328
		},
		{
			"buffer":0,
			"byteLength":688,
			"byteOffset":3245352
		},
		{
			"buffer":0,
			"byteLength":24,
			"byteOffset":3246040
		},
		{
			"buffer":0,
			"byteLength":24,
			"byteOffset":3246064
		},
		{
			"buffer":0,
			"byteLength":688,
			"byteOffset":3246088
		},
		{
			"buffer":0,
			"byteLength":24,
			"byteOffset":3246776
		},
		{
			"buffer":0,
			"byteLength":24,
			"byteOffset":3246800
		},
		{
			"buffer":0,
			"byteLength":32,
			"byteOffset":3246824
		},
		{
			"buffer":0,
			"byteLength":24,
			"byteOffset":3246856
		},
		{
			"buffer":0,
			"byteLength":24,
			"byteOffset":3246880
		},
		{
			"buffer":0,
			"byteLength":688,
			"byteOffset":3246904
		},
		{
			"buffer":0,
			"byteLength":24,
			"byteOffset":3247592
		},
		{
			"buffer":0,
			"byteLength":688,
			"byteOffset":3247616
		},
		{
			"buffer":0,
			"byteLength":24,
			"byteOffset":3248304
		},
		{
			"buffer":0,
			"byteLength":688,
			"byteOffset":3248328
		},
		{
			"buffer":0,
			"byteLength":24,
			"byteOffset":3249016
		},
		{
			"buffer":0,
			"byteLength":24,
			"byteOffset":3249040
		},
		{
			"buffer":0,
			"byteLength":688,
			"byteOffset":3249064
		},
		{
			"buffer":0,
			"byteLength":24,
			"byteOffset":3249752
		},
		{
			"buffer":0,
			"byteLength":688,
			"byteOffset":3249776
		},
		{
			"buffer":0,
			"byteLength":24,
			"byteOffset":3250464
		},
		{
			"buffer":0,
			"byteLength":688,
			"byteOffset":3250488
		},
		{
			"buffer":0,
			"byteLength":24,
			"byteOffset":3251176
		},
		{
			"buffer":0,
			"byteLength":164,
			"byteOffset":3251200
		},
		{
			"buffer":0,
			"byteLength":492,
			"byteOffset":3251364
		},
		{
			"buffer":0,
			"byteLength":8,
			"byteOffset":3251856
		},
		{
			"buffer":0,
			"byteLength":656,
			"byteOffset":3251864
		},
		{
			"buffer":0,
			"byteLength":24,
			"byteOffset":3252520
		},
		{
			"buffer":0,
			"byteLength":656,
			"byteOffset":3252544
		},
		{
			"buffer":0,
			"byteLength":24,
			"byteOffset":3253200
		},
		{
			"buffer":0,
			"byteLength":24,
			"byteOffset":3253224
		},
		{
			"buffer":0,
			"byteLength":24,
			"byteOffset":3253248
		},
		{
			"buffer":0,
			"byteLength":656,
			"byteOffset":3253272
		},
		{
			"buffer":0,
			"byteLength":24,
			"byteOffset":3253928
		},
		{
			"buffer":0,
			"byteLength":24,
			"byteOffset":3253952
		},
		{
			"buffer":0,
			"byteLength":24,
			"byteOffset":3253976
		},
		{
			"buffer":0,
			"byteLength":656,
			"byteOffset":3254000
		},
		{
			"buffer":0,
			"byteLength":24,
			"byteOffset":3254656
		},
		{
			"buffer":0,
			"byteLength":656,
			"byteOffset":3254680
		},
		{
			"buffer":0,
			"byteLength":24,
			"byteOffset":3255336
		},
		{
			"buffer":0,
			"byteLength":24,
			"byteOffset":3255360
		},
		{
			"buffer":0,
			"byteLength":32,
			"byteOffset":3255384
		},
		{
			"buffer":0,
			"byteLength":24,
			"byteOffset":3255416
		},
		{
			"buffer":0,
			"byteLength":24,
			"byteOffset":3255440
		},
		{
			"buffer":0,
			"byteLength":656,
			"byteOffset":3255464
		},
		{
			"buffer":0,
			"byteLength":24,
			"byteOffset":3256120
		},
		{
			"buffer":0,
			"byteLength":24,
			"byteOffset":3256144
		},
		{
			"buffer":0,
			"byteLength":656,
			"byteOffset":3256168
		},
		{
			"buffer":0,
			"byteLength":24,
			"byteOffset":3256824
		},
		{
			"buffer":0,
			"byteLength":32,
			"byteOffset":3256848
		},
		{
			"buffer":0,
			"byteLength":24,
			"byteOffset":3256880
		},
		{
			"buffer":0,
			"byteLength":656,
			"byteOffset":3256904
		},
		{
			"buffer":0,
			"byteLength":24,
			"byteOffset":3257560
		},
		{
			"buffer":0,
			"byteLength":656,
			"byteOffset":3257584
		},
		{
			"buffer":0,
			"byteLength":24,
			"byteOffset":3258240
		},
		{
			"buffer":0,
			"byteLength":656,
			"byteOffset":3258264
		},
		{
			"buffer":0,
			"byteLength":24,
			"byteOffset":3258920
		},
		{
			"buffer":0,
			"byteLength":656,
			"byteOffset":3258944
		},
		{
			"buffer":0,
			"byteLength":24,
			"byteOffset":3259600
		},
		{
			"buffer":0,
			"byteLength":656,
			"byteOffset":3259624
		},
		{
			"buffer":0,
			"byteLength":24,
			"byteOffset":3260280
		},
		{
			"buffer":0,
			"byteLength":656,
			"byteOffset":3260304
		},
		{
			"buffer":0,
			"byteLength":724,
			"byteOffset":3260960
		},
		{
			"buffer":0,
			"byteLength":2172,
			"byteOffset":3261684
		},
		{
			"buffer":0,
			"byteLength":8,
			"byteOffset":3263856
		},
		{
			"buffer":0,
			"byteLength":2896,
			"byteOffset":3263864
		},
		{
			"buffer":0,
			"byteLength":2896,
			"byteOffset":3266760
		},
		{
			"buffer":0,
			"byteLength":2896,
			"byteOffset":3269656
		},
		{
			"buffer":0,
			"byteLength":24,
			"byteOffset":3272552
		},
		{
			"buffer":0,
			"byteLength":32,
			"byteOffset":3272576
		},
		{
			"buffer":0,
			"byteLength":24,
			"byteOffset":3272608
		},
		{
			"buffer":0,
			"byteLength":24,
			"byteOffset":3272632
		},
		{
			"buffer":0,
			"byteLength":2896,
			"byteOffset":3272656
		},
		{
			"buffer":0,
			"byteLength":24,
			"byteOffset":3275552
		},
		{
			"buffer":0,
			"byteLength":24,
			"byteOffset":3275576
		},
		{
			"buffer":0,
			"byteLength":32,
			"byteOffset":3275600
		},
		{
			"buffer":0,
			"byteLength":24,
			"byteOffset":3275632
		},
		{
			"buffer":0,
			"byteLength":32,
			"byteOffset":3275656
		},
		{
			"buffer":0,
			"byteLength":24,
			"byteOffset":3275688
		},
		{
			"buffer":0,
			"byteLength":24,
			"byteOffset":3275712
		},
		{
			"buffer":0,
			"byteLength":32,
			"byteOffset":3275736
		},
		{
			"buffer":0,
			"byteLength":24,
			"byteOffset":3275768
		},
		{
			"buffer":0,
			"byteLength":24,
			"byteOffset":3275792
		},
		{
			"buffer":0,
			"byteLength":32,
			"byteOffset":3275816
		},
		{
			"buffer":0,
			"byteLength":24,
			"byteOffset":3275848
		},
		{
			"buffer":0,
			"byteLength":32,
			"byteOffset":3275872
		},
		{
			"buffer":0,
			"byteLength":24,
			"byteOffset":3275904
		},
		{
			"buffer":0,
			"byteLength":32,
			"byteOffset":3275928
		},
		{
			"buffer":0,
			"byteLength":24,
			"byteOffset":3275960
		},
		{
			"buffer":0,
			"byteLength":32,
			"byteOffset":3275984
		},
		{
			"buffer":0,
			"byteLength":32,
			"byteOffset":3276016
		},
		{
			"buffer":0,
			"byteLength":24,
			"byteOffset":3276048
		},
		{
			"buffer":0,
			"byteLength":32,
			"byteOffset":3276072
		},
		{
			"buffer":0,
			"byteLength":24,
			"byteOffset":3276104
		},
		{
			"buffer":0,
			"byteLength":32,
			"byteOffset":3276128
		},
		{
			"buffer":0,
			"byteLength":24,
			"byteOffset":3276160
		},
		{
			"buffer":0,
			"byteLength":124,
			"byteOffset":3276184
		},
		{
			"buffer":0,
			"byteLength":372,
			"byteOffset":3276308
		},
		{
			"buffer":0,
			"byteLength":496,
			"byteOffset":3276680
		},
		{
			"buffer":0,
			"byteLength":8,
			"byteOffset":3277176
		},
		{
			"buffer":0,
			"byteLength":32,
			"byteOffset":3277184
		},
		{
			"buffer":0,
			"byteLength":24,
			"byteOffset":3277216
		},
		{
			"buffer":0,
			"byteLength":496,
			"byteOffset":3277240
		},
		{
			"buffer":0,
			"byteLength":24,
			"byteOffset":3277736
		},
		{
			"buffer":0,
			"byteLength":32,
			"byteOffset":3277760
		},
		{
			"buffer":0,
			"byteLength":24,
			"byteOffset":3277792
		},
		{
			"buffer":0,
			"byteLength":24,
			"byteOffset":3277816
		},
		{
			"buffer":0,
			"byteLength":496,
			"byteOffset":3277840
		},
		{
			"buffer":0,
			"byteLength":24,
			"byteOffset":3278336
		},
		{
			"buffer":0,
			"byteLength":496,
			"byteOffset":3278360
		},
		{
			"buffer":0,
			"byteLength":24,
			"byteOffset":3278856
		},
		{
			"buffer":0,
			"byteLength":496,
			"byteOffset":3278880
		},
		{
			"buffer":0,
			"byteLength":24,
			"byteOffset":3279376
		},
		{
			"buffer":0,
			"byteLength":24,
			"byteOffset":3279400
		},
		{
			"buffer":0,
			"byteLength":496,
			"byteOffset":3279424
		},
		{
			"buffer":0,
			"byteLength":24,
			"byteOffset":3279920
		},
		{
			"buffer":0,
			"byteLength":24,
			"byteOffset":3279944
		},
		{
			"buffer":0,
			"byteLength":32,
			"byteOffset":3279968
		},
		{
			"buffer":0,
			"byteLength":24,
			"byteOffset":3280000
		},
		{
			"buffer":0,
			"byteLength":496,
			"byteOffset":3280024
		},
		{
			"buffer":0,
			"byteLength":24,
			"byteOffset":3280520
		},
		{
			"buffer":0,
			"byteLength":32,
			"byteOffset":3280544
		},
		{
			"buffer":0,
			"byteLength":24,
			"byteOffset":3280576
		},
		{
			"buffer":0,
			"byteLength":32,
			"byteOffset":3280600
		},
		{
			"buffer":0,
			"byteLength":24,
			"byteOffset":3280632
		},
		{
			"buffer":0,
			"byteLength":24,
			"byteOffset":3280656
		},
		{
			"buffer":0,
			"byteLength":496,
			"byteOffset":3280680
		},
		{
			"buffer":0,
			"byteLength":24,
			"byteOffset":3281176
		},
		{
			"buffer":0,
			"byteLength":496,
			"byteOffset":3281200
		},
		{
			"buffer":0,
			"byteLength":24,
			"byteOffset":3281696
		},
		{
			"buffer":0,
			"byteLength":496,
			"byteOffset":3281720
		},
		{
			"buffer":0,
			"byteLength":24,
			"byteOffset":3282216
		},
		{
			"buffer":0,
			"byteLength":496,
			"byteOffset":3282240
		},
		{
			"buffer":0,
			"byteLength":24,
			"byteOffset":3282736
		},
		{
			"buffer":0,
			"byteLength":496,
			"byteOffset":3282760
		},
		{
			"buffer":0,
			"byteLength":24,
			"byteOffset":3283256
		},
		{
			"buffer":0,
			"byteLength":496,
			"byteOffset":3283280
		},
		{
			"buffer":0,
			"byteLength":148,
			"byteOffset":3283776
		},
		{
			"buffer":0,
			"byteLength":444,
			"byteOffset":3283924
		},
		{
			"buffer":0,
			"byteLength":592,
			"byteOffset":3284368
		},
		{
			"buffer":0,
			"byteLength":8,
			"byteOffset":3284960
		},
		{
			"buffer":0,
			"byteLength":32,
			"byteOffset":3284968
		},
		{
			"buffer":0,
			"byteLength":24,
			"byteOffset":3285000
		},
		{
			"buffer":0,
			"byteLength":592,
			"byteOffset":3285024
		},
		{
			"buffer":0,
			"byteLength":24,
			"byteOffset":3285616
		},
		{
			"buffer":0,
			"byteLength":32,
			"byteOffset":3285640
		},
		{
			"buffer":0,
			"byteLength":24,
			"byteOffset":3285672
		},
		{
			"buffer":0,
			"byteLength":592,
			"byteOffset":3285696
		},
		{
			"buffer":0,
			"byteLength":24,
			"byteOffset":3286288
		},
		{
			"buffer":0,
			"byteLength":592,
			"byteOffset":3286312
		},
		{
			"buffer":0,
			"byteLength":24,
			"byteOffset":3286904
		},
		{
			"buffer":0,
			"byteLength":32,
			"byteOffset":3286928
		},
		{
			"buffer":0,
			"byteLength":24,
			"byteOffset":3286960
		},
		{
			"buffer":0,
			"byteLength":32,
			"byteOffset":3286984
		},
		{
			"buffer":0,
			"byteLength":24,
			"byteOffset":3287016
		},
		{
			"buffer":0,
			"byteLength":32,
			"byteOffset":3287040
		},
		{
			"buffer":0,
			"byteLength":24,
			"byteOffset":3287072
		},
		{
			"buffer":0,
			"byteLength":32,
			"byteOffset":3287096
		},
		{
			"buffer":0,
			"byteLength":24,
			"byteOffset":3287128
		},
		{
			"buffer":0,
			"byteLength":24,
			"byteOffset":3287152
		},
		{
			"buffer":0,
			"byteLength":32,
			"byteOffset":3287176
		},
		{
			"buffer":0,
			"byteLength":24,
			"byteOffset":3287208
		},
		{
			"buffer":0,
			"byteLength":24,
			"byteOffset":3287232
		},
		{
			"buffer":0,
			"byteLength":32,
			"byteOffset":3287256
		},
		{
			"buffer":0,
			"byteLength":592,
			"byteOffset":3287288
		},
		{
			"buffer":0,
			"byteLength":24,
			"byteOffset":3287880
		},
		{
			"buffer":0,
			"byteLength":592,
			"byteOffset":3287904
		},
		{
			"buffer":0,
			"byteLength":24,
			"byteOffset":3288496
		},
		{
			"buffer":0,
			"byteLength":592,
			"byteOffset":3288520
		},
		{
			"buffer":0,
			"byteLength":592,
			"byteOffset":3289112
		},
		{
			"buffer":0,
			"byteLength":24,
			"byteOffset":3289704
		},
		{
			"buffer":0,
			"byteLength":592,
			"byteOffset":3289728
		},
		{
			"buffer":0,
			"byteLength":24,
			"byteOffset":3290320
		},
		{
			"buffer":0,
			"byteLength":592,
			"byteOffset":3290344
		}
	],
	"buffers":[
		{
			"byteLength":3290936,
			"uri":"erzarbeiter.bin"
		}
	]
}
