{
	"asset":{
		"generator":"Khronos glTF Blender I/O v5.2.40",
		"version":"2.0"
	},
	"scene":0,
	"scenes":[
		{
			"name":"Scene",
			"nodes":[
				20
			]
		}
	],
	"nodes":[
		{
			"name":"Hut",
			"rotation":[
				-0.49269899725914,
				1.4670467862742953e-07,
				-8.306281529257831e-08,
				0.8701997995376587
			],
			"scale":[
				1,
				0.9999999403953552,
				1
			],
			"translation":[
				0,
				0.2600001096725464,
				-0.019999999552965164
			]
		},
		{
			"children":[
				0
			],
			"name":"Kopf",
			"rotation":[
				0,
				-5.9604641222676946e-08,
				0,
				1
			],
			"translation":[
				0,
				0.06000018119812012,
				0
			]
		},
		{
			"children":[
				1
			],
			"name":"Hals",
			"rotation":[
				0,
				5.9604641222676946e-08,
				0,
				1
			],
			"scale":[
				1,
				0.9999999403953552,
				1
			],
			"translation":[
				0,
				0.25,
				0
			]
		},
		{
			"mesh":1,
			"name":"Rolle",
			"rotation":[
				-0.9883642196655273,
				-0.10849487781524658,
				-0.01163237914443016,
				0.10597076267004013
			],
			"scale":[
				1.0000014305114746,
				1.000000238418579,
				0.9999999403953552
			],
			"translation":[
				-0.5157531499862671,
				0.84693843126297,
				0.19395993649959564
			]
		},
		{
			"children":[
				3
			],
			"name":"Hand.L",
			"rotation":[
				-0.045664913952350616,
				0.0027846242301166058,
				-0.01642555743455887,
				0.9988178610801697
			],
			"scale":[
				1,
				0.9999999403953552,
				1
			],
			"translation":[
				1.5012920684398523e-08,
				0.24601835012435913,
				5.587935447692871e-09
			]
		},
		{
			"children":[
				4
			],
			"name":"Unterarm.L",
			"rotation":[
				-0.096297487616539,
				-0.0013175290077924728,
				0.05131449177861214,
				0.9940280914306641
			],
			"scale":[
				0.9999999403953552,
				1,
				1
			],
			"translation":[
				-2.6896589844227492e-08,
				0.2823118567466736,
				1.5832483768463135e-08
			]
		},
		{
			"children":[
				5
			],
			"name":"Oberarm.L",
			"rotation":[
				-0.9890241026878357,
				-0.14344002306461334,
				0.005087628494948149,
				0.03507712483406067
			],
			"scale":[
				0.9999980330467224,
				0.9999997615814209,
				0.9999998807907104
			],
			"translation":[
				0.1899999976158142,
				0.20000004768371582,
				0
			]
		},
		{
			"name":"Hand.R",
			"rotation":[
				-0.045664913952350616,
				-0.0027846242301166058,
				0.01642555743455887,
				0.9988178610801697
			],
			"scale":[
				1,
				0.9999999403953552,
				1
			],
			"translation":[
				-1.5012920684398523e-08,
				0.24601835012435913,
				5.587935447692871e-09
			]
		},
		{
			"children":[
				7
			],
			"name":"Unterarm.R",
			"rotation":[
				-0.096297487616539,
				0.0013175290077924728,
				-0.05131449177861214,
				0.9940280914306641
			],
			"scale":[
				0.9999999403953552,
				1,
				1
			],
			"translation":[
				2.6896589844227492e-08,
				0.2823118567466736,
				1.5832483768463135e-08
			]
		},
		{
			"children":[
				8
			],
			"name":"Oberarm.R",
			"rotation":[
				-0.9890241026878357,
				0.14344002306461334,
				-0.005087628494948149,
				0.03507712483406067
			],
			"scale":[
				0.9999980330467224,
				0.9999997615814209,
				0.9999998807907104
			],
			"translation":[
				-0.1899999976158142,
				0.20000004768371582,
				0
			]
		},
		{
			"children":[
				2,
				6,
				9
			],
			"name":"Brust",
			"translation":[
				0,
				0.19999992847442627,
				0
			]
		},
		{
			"children":[
				10
			],
			"name":"Bauch",
			"translation":[
				0,
				0.14000004529953003,
				0
			]
		},
		{
			"name":"Fuss.L",
			"rotation":[
				5.941208414128596e-09,
				0.812186062335968,
				-0.5833984613418579,
				6.131833174549683e-08
			],
			"scale":[
				1,
				0.9999996423721313,
				0.9999998807907104
			],
			"translation":[
				5.270791358924498e-09,
				0.41076144576072693,
				-1.210719524635806e-09
			]
		},
		{
			"children":[
				12
			],
			"name":"Unterschenkel.L",
			"rotation":[
				0.0362558513879776,
				4.653537999388391e-09,
				2.93763280367898e-09,
				0.9993425011634827
			],
			"translation":[
				8.257892702978609e-10,
				0.4300290644168854,
				1.8626700182267086e-10
			]
		},
		{
			"children":[
				13
			],
			"name":"Oberschenkel.L",
			"rotation":[
				0.9999830722808838,
				2.2199010685231002e-10,
				3.818359317619979e-08,
				0.005813658703118563
			],
			"translation":[
				0.10000000149011612,
				0,
				0
			]
		},
		{
			"name":"Fuss.R",
			"rotation":[
				5.941208414128596e-09,
				0.812186062335968,
				-0.5833984613418579,
				6.131833174549683e-08
			],
			"scale":[
				1,
				0.9999996423721313,
				0.9999998807907104
			],
			"translation":[
				-9.630369390833948e-09,
				0.41076144576072693,
				2.793969500203275e-10
			]
		},
		{
			"children":[
				15
			],
			"name":"Unterschenkel.R",
			"rotation":[
				0.0362558513879776,
				4.653537999388391e-09,
				2.93763280367898e-09,
				0.9993425011634827
			],
			"translation":[
				8.257892702978609e-10,
				0.4300290644168854,
				-1.8626700182267086e-10
			]
		},
		{
			"children":[
				16
			],
			"name":"Oberschenkel.R",
			"rotation":[
				0.9999830722808838,
				2.2199010685231002e-10,
				3.818359317619979e-08,
				0.005813658703118563
			],
			"translation":[
				-0.10000000149011612,
				0,
				0
			]
		},
		{
			"children":[
				11,
				14,
				17
			],
			"name":"Becken",
			"translation":[
				0,
				0.9300000071525574,
				0
			]
		},
		{
			"mesh":0,
			"name":"Haendler",
			"skin":0
		},
		{
			"children":[
				19,
				18
			],
			"name":"HaendlerSkelett"
		}
	],
	"animations":[
		{
			"channels":[
				{
					"sampler":0,
					"target":{
						"node":18,
						"path":"translation"
					}
				},
				{
					"sampler":1,
					"target":{
						"node":18,
						"path":"rotation"
					}
				},
				{
					"sampler":2,
					"target":{
						"node":18,
						"path":"scale"
					}
				},
				{
					"sampler":3,
					"target":{
						"node":11,
						"path":"translation"
					}
				},
				{
					"sampler":4,
					"target":{
						"node":11,
						"path":"rotation"
					}
				},
				{
					"sampler":5,
					"target":{
						"node":11,
						"path":"scale"
					}
				},
				{
					"sampler":6,
					"target":{
						"node":10,
						"path":"translation"
					}
				},
				{
					"sampler":7,
					"target":{
						"node":10,
						"path":"rotation"
					}
				},
				{
					"sampler":8,
					"target":{
						"node":10,
						"path":"scale"
					}
				},
				{
					"sampler":9,
					"target":{
						"node":2,
						"path":"translation"
					}
				},
				{
					"sampler":10,
					"target":{
						"node":2,
						"path":"rotation"
					}
				},
				{
					"sampler":11,
					"target":{
						"node":2,
						"path":"scale"
					}
				},
				{
					"sampler":12,
					"target":{
						"node":1,
						"path":"translation"
					}
				},
				{
					"sampler":13,
					"target":{
						"node":1,
						"path":"rotation"
					}
				},
				{
					"sampler":14,
					"target":{
						"node":1,
						"path":"scale"
					}
				},
				{
					"sampler":15,
					"target":{
						"node":0,
						"path":"translation"
					}
				},
				{
					"sampler":16,
					"target":{
						"node":0,
						"path":"rotation"
					}
				},
				{
					"sampler":17,
					"target":{
						"node":0,
						"path":"scale"
					}
				},
				{
					"sampler":18,
					"target":{
						"node":6,
						"path":"translation"
					}
				},
				{
					"sampler":19,
					"target":{
						"node":6,
						"path":"rotation"
					}
				},
				{
					"sampler":20,
					"target":{
						"node":6,
						"path":"scale"
					}
				},
				{
					"sampler":21,
					"target":{
						"node":5,
						"path":"translation"
					}
				},
				{
					"sampler":22,
					"target":{
						"node":5,
						"path":"rotation"
					}
				},
				{
					"sampler":23,
					"target":{
						"node":5,
						"path":"scale"
					}
				},
				{
					"sampler":24,
					"target":{
						"node":4,
						"path":"translation"
					}
				},
				{
					"sampler":25,
					"target":{
						"node":4,
						"path":"rotation"
					}
				},
				{
					"sampler":26,
					"target":{
						"node":4,
						"path":"scale"
					}
				},
				{
					"sampler":27,
					"target":{
						"node":9,
						"path":"translation"
					}
				},
				{
					"sampler":28,
					"target":{
						"node":9,
						"path":"rotation"
					}
				},
				{
					"sampler":29,
					"target":{
						"node":9,
						"path":"scale"
					}
				},
				{
					"sampler":30,
					"target":{
						"node":8,
						"path":"translation"
					}
				},
				{
					"sampler":31,
					"target":{
						"node":8,
						"path":"rotation"
					}
				},
				{
					"sampler":32,
					"target":{
						"node":8,
						"path":"scale"
					}
				},
				{
					"sampler":33,
					"target":{
						"node":7,
						"path":"translation"
					}
				},
				{
					"sampler":34,
					"target":{
						"node":7,
						"path":"rotation"
					}
				},
				{
					"sampler":35,
					"target":{
						"node":7,
						"path":"scale"
					}
				},
				{
					"sampler":36,
					"target":{
						"node":14,
						"path":"translation"
					}
				},
				{
					"sampler":37,
					"target":{
						"node":14,
						"path":"rotation"
					}
				},
				{
					"sampler":38,
					"target":{
						"node":14,
						"path":"scale"
					}
				},
				{
					"sampler":39,
					"target":{
						"node":13,
						"path":"translation"
					}
				},
				{
					"sampler":40,
					"target":{
						"node":13,
						"path":"rotation"
					}
				},
				{
					"sampler":41,
					"target":{
						"node":13,
						"path":"scale"
					}
				},
				{
					"sampler":42,
					"target":{
						"node":12,
						"path":"translation"
					}
				},
				{
					"sampler":43,
					"target":{
						"node":12,
						"path":"rotation"
					}
				},
				{
					"sampler":44,
					"target":{
						"node":12,
						"path":"scale"
					}
				},
				{
					"sampler":45,
					"target":{
						"node":17,
						"path":"translation"
					}
				},
				{
					"sampler":46,
					"target":{
						"node":17,
						"path":"rotation"
					}
				},
				{
					"sampler":47,
					"target":{
						"node":17,
						"path":"scale"
					}
				},
				{
					"sampler":48,
					"target":{
						"node":16,
						"path":"translation"
					}
				},
				{
					"sampler":49,
					"target":{
						"node":16,
						"path":"rotation"
					}
				},
				{
					"sampler":50,
					"target":{
						"node":16,
						"path":"scale"
					}
				},
				{
					"sampler":51,
					"target":{
						"node":15,
						"path":"translation"
					}
				},
				{
					"sampler":52,
					"target":{
						"node":15,
						"path":"rotation"
					}
				},
				{
					"sampler":53,
					"target":{
						"node":15,
						"path":"scale"
					}
				}
			],
			"name":"Gruessen",
			"samplers":[
				{
					"input":11,
					"interpolation":"STEP",
					"output":12
				},
				{
					"input":11,
					"interpolation":"STEP",
					"output":13
				},
				{
					"input":11,
					"interpolation":"STEP",
					"output":14
				},
				{
					"input":11,
					"interpolation":"STEP",
					"output":15
				},
				{
					"input":16,
					"interpolation":"LINEAR",
					"output":17
				},
				{
					"input":11,
					"interpolation":"STEP",
					"output":14
				},
				{
					"input":11,
					"interpolation":"STEP",
					"output":18
				},
				{
					"input":16,
					"interpolation":"LINEAR",
					"output":19
				},
				{
					"input":11,
					"interpolation":"STEP",
					"output":14
				},
				{
					"input":11,
					"interpolation":"STEP",
					"output":20
				},
				{
					"input":11,
					"interpolation":"STEP",
					"output":21
				},
				{
					"input":11,
					"interpolation":"STEP",
					"output":14
				},
				{
					"input":11,
					"interpolation":"STEP",
					"output":22
				},
				{
					"input":16,
					"interpolation":"LINEAR",
					"output":23
				},
				{
					"input":11,
					"interpolation":"STEP",
					"output":14
				},
				{
					"input":11,
					"interpolation":"STEP",
					"output":24
				},
				{
					"input":11,
					"interpolation":"STEP",
					"output":25
				},
				{
					"input":11,
					"interpolation":"STEP",
					"output":26
				},
				{
					"input":11,
					"interpolation":"STEP",
					"output":27
				},
				{
					"input":11,
					"interpolation":"STEP",
					"output":28
				},
				{
					"input":11,
					"interpolation":"STEP",
					"output":29
				},
				{
					"input":11,
					"interpolation":"STEP",
					"output":30
				},
				{
					"input":11,
					"interpolation":"STEP",
					"output":31
				},
				{
					"input":11,
					"interpolation":"STEP",
					"output":32
				},
				{
					"input":11,
					"interpolation":"STEP",
					"output":33
				},
				{
					"input":11,
					"interpolation":"STEP",
					"output":34
				},
				{
					"input":11,
					"interpolation":"STEP",
					"output":35
				},
				{
					"input":11,
					"interpolation":"STEP",
					"output":36
				},
				{
					"input":16,
					"interpolation":"LINEAR",
					"output":37
				},
				{
					"input":11,
					"interpolation":"STEP",
					"output":38
				},
				{
					"input":11,
					"interpolation":"STEP",
					"output":39
				},
				{
					"input":16,
					"interpolation":"LINEAR",
					"output":40
				},
				{
					"input":11,
					"interpolation":"STEP",
					"output":14
				},
				{
					"input":11,
					"interpolation":"STEP",
					"output":41
				},
				{
					"input":16,
					"interpolation":"LINEAR",
					"output":42
				},
				{
					"input":11,
					"interpolation":"STEP",
					"output":26
				},
				{
					"input":11,
					"interpolation":"STEP",
					"output":43
				},
				{
					"input":11,
					"interpolation":"STEP",
					"output":44
				},
				{
					"input":11,
					"interpolation":"STEP",
					"output":14
				},
				{
					"input":11,
					"interpolation":"STEP",
					"output":45
				},
				{
					"input":11,
					"interpolation":"STEP",
					"output":46
				},
				{
					"input":11,
					"interpolation":"STEP",
					"output":47
				},
				{
					"input":11,
					"interpolation":"STEP",
					"output":48
				},
				{
					"input":11,
					"interpolation":"STEP",
					"output":49
				},
				{
					"input":11,
					"interpolation":"STEP",
					"output":50
				},
				{
					"input":11,
					"interpolation":"STEP",
					"output":51
				},
				{
					"input":11,
					"interpolation":"STEP",
					"output":44
				},
				{
					"input":11,
					"interpolation":"STEP",
					"output":14
				},
				{
					"input":11,
					"interpolation":"STEP",
					"output":52
				},
				{
					"input":11,
					"interpolation":"STEP",
					"output":46
				},
				{
					"input":11,
					"interpolation":"STEP",
					"output":47
				},
				{
					"input":11,
					"interpolation":"STEP",
					"output":53
				},
				{
					"input":11,
					"interpolation":"STEP",
					"output":49
				},
				{
					"input":11,
					"interpolation":"STEP",
					"output":50
				}
			]
		},
		{
			"channels":[
				{
					"sampler":0,
					"target":{
						"node":18,
						"path":"translation"
					}
				},
				{
					"sampler":1,
					"target":{
						"node":18,
						"path":"rotation"
					}
				},
				{
					"sampler":2,
					"target":{
						"node":18,
						"path":"scale"
					}
				},
				{
					"sampler":3,
					"target":{
						"node":11,
						"path":"translation"
					}
				},
				{
					"sampler":4,
					"target":{
						"node":11,
						"path":"rotation"
					}
				},
				{
					"sampler":5,
					"target":{
						"node":11,
						"path":"scale"
					}
				},
				{
					"sampler":6,
					"target":{
						"node":10,
						"path":"translation"
					}
				},
				{
					"sampler":7,
					"target":{
						"node":10,
						"path":"rotation"
					}
				},
				{
					"sampler":8,
					"target":{
						"node":10,
						"path":"scale"
					}
				},
				{
					"sampler":9,
					"target":{
						"node":2,
						"path":"translation"
					}
				},
				{
					"sampler":10,
					"target":{
						"node":2,
						"path":"rotation"
					}
				},
				{
					"sampler":11,
					"target":{
						"node":2,
						"path":"scale"
					}
				},
				{
					"sampler":12,
					"target":{
						"node":1,
						"path":"translation"
					}
				},
				{
					"sampler":13,
					"target":{
						"node":1,
						"path":"rotation"
					}
				},
				{
					"sampler":14,
					"target":{
						"node":1,
						"path":"scale"
					}
				},
				{
					"sampler":15,
					"target":{
						"node":0,
						"path":"translation"
					}
				},
				{
					"sampler":16,
					"target":{
						"node":0,
						"path":"rotation"
					}
				},
				{
					"sampler":17,
					"target":{
						"node":0,
						"path":"scale"
					}
				},
				{
					"sampler":18,
					"target":{
						"node":6,
						"path":"translation"
					}
				},
				{
					"sampler":19,
					"target":{
						"node":6,
						"path":"rotation"
					}
				},
				{
					"sampler":20,
					"target":{
						"node":6,
						"path":"scale"
					}
				},
				{
					"sampler":21,
					"target":{
						"node":5,
						"path":"translation"
					}
				},
				{
					"sampler":22,
					"target":{
						"node":5,
						"path":"rotation"
					}
				},
				{
					"sampler":23,
					"target":{
						"node":5,
						"path":"scale"
					}
				},
				{
					"sampler":24,
					"target":{
						"node":4,
						"path":"translation"
					}
				},
				{
					"sampler":25,
					"target":{
						"node":4,
						"path":"rotation"
					}
				},
				{
					"sampler":26,
					"target":{
						"node":4,
						"path":"scale"
					}
				},
				{
					"sampler":27,
					"target":{
						"node":9,
						"path":"translation"
					}
				},
				{
					"sampler":28,
					"target":{
						"node":9,
						"path":"rotation"
					}
				},
				{
					"sampler":29,
					"target":{
						"node":9,
						"path":"scale"
					}
				},
				{
					"sampler":30,
					"target":{
						"node":8,
						"path":"translation"
					}
				},
				{
					"sampler":31,
					"target":{
						"node":8,
						"path":"rotation"
					}
				},
				{
					"sampler":32,
					"target":{
						"node":8,
						"path":"scale"
					}
				},
				{
					"sampler":33,
					"target":{
						"node":7,
						"path":"translation"
					}
				},
				{
					"sampler":34,
					"target":{
						"node":7,
						"path":"rotation"
					}
				},
				{
					"sampler":35,
					"target":{
						"node":7,
						"path":"scale"
					}
				},
				{
					"sampler":36,
					"target":{
						"node":14,
						"path":"translation"
					}
				},
				{
					"sampler":37,
					"target":{
						"node":14,
						"path":"rotation"
					}
				},
				{
					"sampler":38,
					"target":{
						"node":14,
						"path":"scale"
					}
				},
				{
					"sampler":39,
					"target":{
						"node":13,
						"path":"translation"
					}
				},
				{
					"sampler":40,
					"target":{
						"node":13,
						"path":"rotation"
					}
				},
				{
					"sampler":41,
					"target":{
						"node":13,
						"path":"scale"
					}
				},
				{
					"sampler":42,
					"target":{
						"node":12,
						"path":"translation"
					}
				},
				{
					"sampler":43,
					"target":{
						"node":12,
						"path":"rotation"
					}
				},
				{
					"sampler":44,
					"target":{
						"node":12,
						"path":"scale"
					}
				},
				{
					"sampler":45,
					"target":{
						"node":17,
						"path":"translation"
					}
				},
				{
					"sampler":46,
					"target":{
						"node":17,
						"path":"rotation"
					}
				},
				{
					"sampler":47,
					"target":{
						"node":17,
						"path":"scale"
					}
				},
				{
					"sampler":48,
					"target":{
						"node":16,
						"path":"translation"
					}
				},
				{
					"sampler":49,
					"target":{
						"node":16,
						"path":"rotation"
					}
				},
				{
					"sampler":50,
					"target":{
						"node":16,
						"path":"scale"
					}
				},
				{
					"sampler":51,
					"target":{
						"node":15,
						"path":"translation"
					}
				},
				{
					"sampler":52,
					"target":{
						"node":15,
						"path":"rotation"
					}
				},
				{
					"sampler":53,
					"target":{
						"node":15,
						"path":"scale"
					}
				}
			],
			"name":"Idle",
			"samplers":[
				{
					"input":54,
					"interpolation":"LINEAR",
					"output":55
				},
				{
					"input":54,
					"interpolation":"LINEAR",
					"output":56
				},
				{
					"input":57,
					"interpolation":"STEP",
					"output":14
				},
				{
					"input":57,
					"interpolation":"STEP",
					"output":15
				},
				{
					"input":54,
					"interpolation":"LINEAR",
					"output":58
				},
				{
					"input":57,
					"interpolation":"STEP",
					"output":14
				},
				{
					"input":57,
					"interpolation":"STEP",
					"output":59
				},
				{
					"input":54,
					"interpolation":"LINEAR",
					"output":60
				},
				{
					"input":57,
					"interpolation":"STEP",
					"output":61
				},
				{
					"input":57,
					"interpolation":"STEP",
					"output":62
				},
				{
					"input":57,
					"interpolation":"STEP",
					"output":63
				},
				{
					"input":57,
					"interpolation":"STEP",
					"output":64
				},
				{
					"input":57,
					"interpolation":"STEP",
					"output":65
				},
				{
					"input":54,
					"interpolation":"LINEAR",
					"output":66
				},
				{
					"input":57,
					"interpolation":"STEP",
					"output":14
				},
				{
					"input":57,
					"interpolation":"STEP",
					"output":67
				},
				{
					"input":54,
					"interpolation":"LINEAR",
					"output":68
				},
				{
					"input":57,
					"interpolation":"STEP",
					"output":14
				},
				{
					"input":57,
					"interpolation":"STEP",
					"output":69
				},
				{
					"input":57,
					"interpolation":"STEP",
					"output":70
				},
				{
					"input":57,
					"interpolation":"STEP",
					"output":71
				},
				{
					"input":57,
					"interpolation":"STEP",
					"output":72
				},
				{
					"input":54,
					"interpolation":"LINEAR",
					"output":73
				},
				{
					"input":57,
					"interpolation":"STEP",
					"output":74
				},
				{
					"input":57,
					"interpolation":"STEP",
					"output":75
				},
				{
					"input":57,
					"interpolation":"STEP",
					"output":76
				},
				{
					"input":57,
					"interpolation":"STEP",
					"output":77
				},
				{
					"input":57,
					"interpolation":"STEP",
					"output":78
				},
				{
					"input":57,
					"interpolation":"STEP",
					"output":79
				},
				{
					"input":57,
					"interpolation":"STEP",
					"output":80
				},
				{
					"input":57,
					"interpolation":"STEP",
					"output":81
				},
				{
					"input":54,
					"interpolation":"LINEAR",
					"output":82
				},
				{
					"input":57,
					"interpolation":"STEP",
					"output":83
				},
				{
					"input":57,
					"interpolation":"STEP",
					"output":84
				},
				{
					"input":57,
					"interpolation":"STEP",
					"output":85
				},
				{
					"input":57,
					"interpolation":"STEP",
					"output":86
				},
				{
					"input":57,
					"interpolation":"STEP",
					"output":43
				},
				{
					"input":57,
					"interpolation":"STEP",
					"output":87
				},
				{
					"input":57,
					"interpolation":"STEP",
					"output":14
				},
				{
					"input":57,
					"interpolation":"STEP",
					"output":88
				},
				{
					"input":57,
					"interpolation":"STEP",
					"output":89
				},
				{
					"input":57,
					"interpolation":"STEP",
					"output":86
				},
				{
					"input":57,
					"interpolation":"STEP",
					"output":90
				},
				{
					"input":57,
					"interpolation":"STEP",
					"output":91
				},
				{
					"input":57,
					"interpolation":"STEP",
					"output":92
				},
				{
					"input":57,
					"interpolation":"STEP",
					"output":51
				},
				{
					"input":57,
					"interpolation":"STEP",
					"output":93
				},
				{
					"input":57,
					"interpolation":"STEP",
					"output":14
				},
				{
					"input":57,
					"interpolation":"STEP",
					"output":94
				},
				{
					"input":57,
					"interpolation":"STEP",
					"output":95
				},
				{
					"input":57,
					"interpolation":"STEP",
					"output":86
				},
				{
					"input":57,
					"interpolation":"STEP",
					"output":96
				},
				{
					"input":57,
					"interpolation":"STEP",
					"output":97
				},
				{
					"input":57,
					"interpolation":"STEP",
					"output":92
				}
			]
		},
		{
			"channels":[
				{
					"sampler":0,
					"target":{
						"node":18,
						"path":"translation"
					}
				},
				{
					"sampler":1,
					"target":{
						"node":18,
						"path":"rotation"
					}
				},
				{
					"sampler":2,
					"target":{
						"node":18,
						"path":"scale"
					}
				},
				{
					"sampler":3,
					"target":{
						"node":11,
						"path":"translation"
					}
				},
				{
					"sampler":4,
					"target":{
						"node":11,
						"path":"rotation"
					}
				},
				{
					"sampler":5,
					"target":{
						"node":11,
						"path":"scale"
					}
				},
				{
					"sampler":6,
					"target":{
						"node":10,
						"path":"translation"
					}
				},
				{
					"sampler":7,
					"target":{
						"node":10,
						"path":"rotation"
					}
				},
				{
					"sampler":8,
					"target":{
						"node":10,
						"path":"scale"
					}
				},
				{
					"sampler":9,
					"target":{
						"node":2,
						"path":"translation"
					}
				},
				{
					"sampler":10,
					"target":{
						"node":2,
						"path":"rotation"
					}
				},
				{
					"sampler":11,
					"target":{
						"node":2,
						"path":"scale"
					}
				},
				{
					"sampler":12,
					"target":{
						"node":1,
						"path":"translation"
					}
				},
				{
					"sampler":13,
					"target":{
						"node":1,
						"path":"rotation"
					}
				},
				{
					"sampler":14,
					"target":{
						"node":1,
						"path":"scale"
					}
				},
				{
					"sampler":15,
					"target":{
						"node":0,
						"path":"translation"
					}
				},
				{
					"sampler":16,
					"target":{
						"node":0,
						"path":"rotation"
					}
				},
				{
					"sampler":17,
					"target":{
						"node":0,
						"path":"scale"
					}
				},
				{
					"sampler":18,
					"target":{
						"node":6,
						"path":"translation"
					}
				},
				{
					"sampler":19,
					"target":{
						"node":6,
						"path":"rotation"
					}
				},
				{
					"sampler":20,
					"target":{
						"node":6,
						"path":"scale"
					}
				},
				{
					"sampler":21,
					"target":{
						"node":5,
						"path":"translation"
					}
				},
				{
					"sampler":22,
					"target":{
						"node":5,
						"path":"rotation"
					}
				},
				{
					"sampler":23,
					"target":{
						"node":5,
						"path":"scale"
					}
				},
				{
					"sampler":24,
					"target":{
						"node":4,
						"path":"translation"
					}
				},
				{
					"sampler":25,
					"target":{
						"node":4,
						"path":"rotation"
					}
				},
				{
					"sampler":26,
					"target":{
						"node":4,
						"path":"scale"
					}
				},
				{
					"sampler":27,
					"target":{
						"node":9,
						"path":"translation"
					}
				},
				{
					"sampler":28,
					"target":{
						"node":9,
						"path":"rotation"
					}
				},
				{
					"sampler":29,
					"target":{
						"node":9,
						"path":"scale"
					}
				},
				{
					"sampler":30,
					"target":{
						"node":8,
						"path":"translation"
					}
				},
				{
					"sampler":31,
					"target":{
						"node":8,
						"path":"rotation"
					}
				},
				{
					"sampler":32,
					"target":{
						"node":8,
						"path":"scale"
					}
				},
				{
					"sampler":33,
					"target":{
						"node":7,
						"path":"translation"
					}
				},
				{
					"sampler":34,
					"target":{
						"node":7,
						"path":"rotation"
					}
				},
				{
					"sampler":35,
					"target":{
						"node":7,
						"path":"scale"
					}
				},
				{
					"sampler":36,
					"target":{
						"node":14,
						"path":"translation"
					}
				},
				{
					"sampler":37,
					"target":{
						"node":14,
						"path":"rotation"
					}
				},
				{
					"sampler":38,
					"target":{
						"node":14,
						"path":"scale"
					}
				},
				{
					"sampler":39,
					"target":{
						"node":13,
						"path":"translation"
					}
				},
				{
					"sampler":40,
					"target":{
						"node":13,
						"path":"rotation"
					}
				},
				{
					"sampler":41,
					"target":{
						"node":13,
						"path":"scale"
					}
				},
				{
					"sampler":42,
					"target":{
						"node":12,
						"path":"translation"
					}
				},
				{
					"sampler":43,
					"target":{
						"node":12,
						"path":"rotation"
					}
				},
				{
					"sampler":44,
					"target":{
						"node":12,
						"path":"scale"
					}
				},
				{
					"sampler":45,
					"target":{
						"node":17,
						"path":"translation"
					}
				},
				{
					"sampler":46,
					"target":{
						"node":17,
						"path":"rotation"
					}
				},
				{
					"sampler":47,
					"target":{
						"node":17,
						"path":"scale"
					}
				},
				{
					"sampler":48,
					"target":{
						"node":16,
						"path":"translation"
					}
				},
				{
					"sampler":49,
					"target":{
						"node":16,
						"path":"rotation"
					}
				},
				{
					"sampler":50,
					"target":{
						"node":16,
						"path":"scale"
					}
				},
				{
					"sampler":51,
					"target":{
						"node":15,
						"path":"translation"
					}
				},
				{
					"sampler":52,
					"target":{
						"node":15,
						"path":"rotation"
					}
				},
				{
					"sampler":53,
					"target":{
						"node":15,
						"path":"scale"
					}
				}
			],
			"name":"Laufen",
			"samplers":[
				{
					"input":98,
					"interpolation":"LINEAR",
					"output":99
				},
				{
					"input":98,
					"interpolation":"LINEAR",
					"output":100
				},
				{
					"input":101,
					"interpolation":"STEP",
					"output":14
				},
				{
					"input":101,
					"interpolation":"STEP",
					"output":15
				},
				{
					"input":101,
					"interpolation":"STEP",
					"output":102
				},
				{
					"input":101,
					"interpolation":"STEP",
					"output":14
				},
				{
					"input":101,
					"interpolation":"STEP",
					"output":103
				},
				{
					"input":98,
					"interpolation":"LINEAR",
					"output":104
				},
				{
					"input":101,
					"interpolation":"STEP",
					"output":14
				},
				{
					"input":101,
					"interpolation":"STEP",
					"output":105
				},
				{
					"input":101,
					"interpolation":"STEP",
					"output":21
				},
				{
					"input":101,
					"interpolation":"STEP",
					"output":14
				},
				{
					"input":101,
					"interpolation":"STEP",
					"output":106
				},
				{
					"input":98,
					"interpolation":"LINEAR",
					"output":107
				},
				{
					"input":101,
					"interpolation":"STEP",
					"output":86
				},
				{
					"input":101,
					"interpolation":"STEP",
					"output":108
				},
				{
					"input":98,
					"interpolation":"LINEAR",
					"output":109
				},
				{
					"input":101,
					"interpolation":"STEP",
					"output":64
				},
				{
					"input":101,
					"interpolation":"STEP",
					"output":110
				},
				{
					"input":98,
					"interpolation":"LINEAR",
					"output":111
				},
				{
					"input":101,
					"interpolation":"STEP",
					"output":29
				},
				{
					"input":101,
					"interpolation":"STEP",
					"output":112
				},
				{
					"input":101,
					"interpolation":"STEP",
					"output":113
				},
				{
					"input":101,
					"interpolation":"STEP",
					"output":32
				},
				{
					"input":101,
					"interpolation":"STEP",
					"output":114
				},
				{
					"input":101,
					"interpolation":"STEP",
					"output":115
				},
				{
					"input":101,
					"interpolation":"STEP",
					"output":116
				},
				{
					"input":101,
					"interpolation":"STEP",
					"output":117
				},
				{
					"input":98,
					"interpolation":"LINEAR",
					"output":118
				},
				{
					"input":101,
					"interpolation":"STEP",
					"output":119
				},
				{
					"input":101,
					"interpolation":"STEP",
					"output":120
				},
				{
					"input":101,
					"interpolation":"STEP",
					"output":121
				},
				{
					"input":101,
					"interpolation":"STEP",
					"output":64
				},
				{
					"input":101,
					"interpolation":"STEP",
					"output":122
				},
				{
					"input":101,
					"interpolation":"STEP",
					"output":123
				},
				{
					"input":101,
					"interpolation":"STEP",
					"output":86
				},
				{
					"input":101,
					"interpolation":"STEP",
					"output":124
				},
				{
					"input":98,
					"interpolation":"LINEAR",
					"output":125
				},
				{
					"input":101,
					"interpolation":"STEP",
					"output":14
				},
				{
					"input":101,
					"interpolation":"STEP",
					"output":126
				},
				{
					"input":98,
					"interpolation":"LINEAR",
					"output":127
				},
				{
					"input":101,
					"interpolation":"STEP",
					"output":14
				},
				{
					"input":101,
					"interpolation":"STEP",
					"output":128
				},
				{
					"input":98,
					"interpolation":"LINEAR",
					"output":129
				},
				{
					"input":101,
					"interpolation":"STEP",
					"output":92
				},
				{
					"input":101,
					"interpolation":"STEP",
					"output":130
				},
				{
					"input":98,
					"interpolation":"LINEAR",
					"output":131
				},
				{
					"input":101,
					"interpolation":"STEP",
					"output":14
				},
				{
					"input":101,
					"interpolation":"STEP",
					"output":132
				},
				{
					"input":98,
					"interpolation":"LINEAR",
					"output":133
				},
				{
					"input":101,
					"interpolation":"STEP",
					"output":14
				},
				{
					"input":101,
					"interpolation":"STEP",
					"output":134
				},
				{
					"input":98,
					"interpolation":"LINEAR",
					"output":135
				},
				{
					"input":101,
					"interpolation":"STEP",
					"output":136
				}
			]
		}
	],
	"materials":[
		{
			"doubleSided":true,
			"name":"Haendler",
			"pbrMetallicRoughness":{
				"metallicFactor":0,
				"roughnessFactor":0.8500000238418579
			}
		}
	],
	"meshes":[
		{
			"name":"Hose",
			"primitives":[
				{
					"attributes":{
						"POSITION":0,
						"NORMAL":1,
						"COLOR_0":2,
						"JOINTS_0":3,
						"WEIGHTS_0":4
					},
					"indices":5,
					"material":0
				}
			]
		},
		{
			"name":"Rolle",
			"primitives":[
				{
					"attributes":{
						"POSITION":7,
						"NORMAL":8,
						"COLOR_0":9
					},
					"indices":10,
					"material":0
				}
			]
		}
	],
	"skins":[
		{
			"inverseBindMatrices":6,
			"joints":[
				18,
				11,
				10,
				2,
				1,
				0,
				6,
				5,
				4,
				9,
				8,
				7,
				14,
				13,
				12,
				17,
				16,
				15
			],
			"name":"HaendlerSkelett"
		}
	],
	"accessors":[
		{
			"bufferView":0,
			"componentType":5126,
			"count":66008,
			"max":[
				0.3878943920135498,
				1.9417896270751953,
				0.23530147969722748
			],
			"min":[
				-0.36835935711860657,
				-0.009999999776482582,
				-0.1967456191778183
			],
			"type":"VEC3"
		},
		{
			"bufferView":1,
			"componentType":5126,
			"count":66008,
			"type":"VEC3"
		},
		{
			"bufferView":2,
			"componentType":5126,
			"count":66008,
			"type":"VEC3"
		},
		{
			"bufferView":3,
			"componentType":5121,
			"count":66008,
			"type":"VEC4"
		},
		{
			"bufferView":4,
			"componentType":5126,
			"count":66008,
			"type":"VEC4"
		},
		{
			"bufferView":5,
			"componentType":5125,
			"count":87522,
			"type":"SCALAR"
		},
		{
			"bufferView":6,
			"componentType":5126,
			"count":18,
			"type":"MAT4"
		},
		{
			"bufferView":7,
			"componentType":5126,
			"count":500,
			"max":[
				0.3636084496974945,
				0.9303480982780457,
				0.1850000023841858
			],
			"min":[
				0.30400002002716064,
				0.8796518445014954,
				-0.0950000137090683
			],
			"type":"VEC3"
		},
		{
			"bufferView":8,
			"componentType":5126,
			"count":500,
			"type":"VEC3"
		},
		{
			"bufferView":9,
			"componentType":5126,
			"count":500,
			"type":"VEC3"
		},
		{
			"bufferView":10,
			"componentType":5123,
			"count":714,
			"type":"SCALAR"
		},
		{
			"bufferView":11,
			"componentType":5126,
			"count":2,
			"max":[
				2.4
			],
			"min":[
				0
			],
			"type":"SCALAR"
		},
		{
			"bufferView":12,
			"componentType":5126,
			"count":2,
			"type":"VEC3"
		},
		{
			"bufferView":13,
			"componentType":5126,
			"count":2,
			"type":"VEC4"
		},
		{
			"bufferView":14,
			"componentType":5126,
			"count":2,
			"type":"VEC3"
		},
		{
			"bufferView":15,
			"componentType":5126,
			"count":2,
			"type":"VEC3"
		},
		{
			"bufferView":16,
			"componentType":5126,
			"count":73,
			"max":[
				2.4
			],
			"min":[
				0
			],
			"type":"SCALAR"
		},
		{
			"bufferView":17,
			"componentType":5126,
			"count":73,
			"type":"VEC4"
		},
		{
			"bufferView":18,
			"componentType":5126,
			"count":2,
			"type":"VEC3"
		},
		{
			"bufferView":19,
			"componentType":5126,
			"count":73,
			"type":"VEC4"
		},
		{
			"bufferView":20,
			"componentType":5126,
			"count":2,
			"type":"VEC3"
		},
		{
			"bufferView":21,
			"componentType":5126,
			"count":2,
			"type":"VEC4"
		},
		{
			"bufferView":22,
			"componentType":5126,
			"count":2,
			"type":"VEC3"
		},
		{
			"bufferView":23,
			"componentType":5126,
			"count":73,
			"type":"VEC4"
		},
		{
			"bufferView":24,
			"componentType":5126,
			"count":2,
			"type":"VEC3"
		},
		{
			"bufferView":25,
			"componentType":5126,
			"count":2,
			"type":"VEC4"
		},
		{
			"bufferView":26,
			"componentType":5126,
			"count":2,
			"type":"VEC3"
		},
		{
			"bufferView":27,
			"componentType":5126,
			"count":2,
			"type":"VEC3"
		},
		{
			"bufferView":28,
			"componentType":5126,
			"count":2,
			"type":"VEC4"
		},
		{
			"bufferView":29,
			"componentType":5126,
			"count":2,
			"type":"VEC3"
		},
		{
			"bufferView":30,
			"componentType":5126,
			"count":2,
			"type":"VEC3"
		},
		{
			"bufferView":31,
			"componentType":5126,
			"count":2,
			"type":"VEC4"
		},
		{
			"bufferView":32,
			"componentType":5126,
			"count":2,
			"type":"VEC3"
		},
		{
			"bufferView":33,
			"componentType":5126,
			"count":2,
			"type":"VEC3"
		},
		{
			"bufferView":34,
			"componentType":5126,
			"count":2,
			"type":"VEC4"
		},
		{
			"bufferView":35,
			"componentType":5126,
			"count":2,
			"type":"VEC3"
		},
		{
			"bufferView":36,
			"componentType":5126,
			"count":2,
			"type":"VEC3"
		},
		{
			"bufferView":37,
			"componentType":5126,
			"count":73,
			"type":"VEC4"
		},
		{
			"bufferView":38,
			"componentType":5126,
			"count":2,
			"type":"VEC3"
		},
		{
			"bufferView":39,
			"componentType":5126,
			"count":2,
			"type":"VEC3"
		},
		{
			"bufferView":40,
			"componentType":5126,
			"count":73,
			"type":"VEC4"
		},
		{
			"bufferView":41,
			"componentType":5126,
			"count":2,
			"type":"VEC3"
		},
		{
			"bufferView":42,
			"componentType":5126,
			"count":73,
			"type":"VEC4"
		},
		{
			"bufferView":43,
			"componentType":5126,
			"count":2,
			"type":"VEC3"
		},
		{
			"bufferView":44,
			"componentType":5126,
			"count":2,
			"type":"VEC4"
		},
		{
			"bufferView":45,
			"componentType":5126,
			"count":2,
			"type":"VEC3"
		},
		{
			"bufferView":46,
			"componentType":5126,
			"count":2,
			"type":"VEC4"
		},
		{
			"bufferView":47,
			"componentType":5126,
			"count":2,
			"type":"VEC3"
		},
		{
			"bufferView":48,
			"componentType":5126,
			"count":2,
			"type":"VEC3"
		},
		{
			"bufferView":49,
			"componentType":5126,
			"count":2,
			"type":"VEC4"
		},
		{
			"bufferView":50,
			"componentType":5126,
			"count":2,
			"type":"VEC3"
		},
		{
			"bufferView":51,
			"componentType":5126,
			"count":2,
			"type":"VEC3"
		},
		{
			"bufferView":52,
			"componentType":5126,
			"count":2,
			"type":"VEC3"
		},
		{
			"bufferView":53,
			"componentType":5126,
			"count":2,
			"type":"VEC3"
		},
		{
			"bufferView":54,
			"componentType":5126,
			"count":181,
			"max":[
				6
			],
			"min":[
				0
			],
			"type":"SCALAR"
		},
		{
			"bufferView":55,
			"componentType":5126,
			"count":181,
			"type":"VEC3"
		},
		{
			"bufferView":56,
			"componentType":5126,
			"count":181,
			"type":"VEC4"
		},
		{
			"bufferView":57,
			"componentType":5126,
			"count":2,
			"max":[
				6
			],
			"min":[
				0
			],
			"type":"SCALAR"
		},
		{
			"bufferView":58,
			"componentType":5126,
			"count":181,
			"type":"VEC4"
		},
		{
			"bufferView":59,
			"componentType":5126,
			"count":2,
			"type":"VEC3"
		},
		{
			"bufferView":60,
			"componentType":5126,
			"count":181,
			"type":"VEC4"
		},
		{
			"bufferView":61,
			"componentType":5126,
			"count":2,
			"type":"VEC3"
		},
		{
			"bufferView":62,
			"componentType":5126,
			"count":2,
			"type":"VEC3"
		},
		{
			"bufferView":63,
			"componentType":5126,
			"count":2,
			"type":"VEC4"
		},
		{
			"bufferView":64,
			"componentType":5126,
			"count":2,
			"type":"VEC3"
		},
		{
			"bufferView":65,
			"componentType":5126,
			"count":2,
			"type":"VEC3"
		},
		{
			"bufferView":66,
			"componentType":5126,
			"count":181,
			"type":"VEC4"
		},
		{
			"bufferView":67,
			"componentType":5126,
			"count":2,
			"type":"VEC3"
		},
		{
			"bufferView":68,
			"componentType":5126,
			"count":181,
			"type":"VEC4"
		},
		{
			"bufferView":69,
			"componentType":5126,
			"count":2,
			"type":"VEC3"
		},
		{
			"bufferView":70,
			"componentType":5126,
			"count":2,
			"type":"VEC4"
		},
		{
			"bufferView":71,
			"componentType":5126,
			"count":2,
			"type":"VEC3"
		},
		{
			"bufferView":72,
			"componentType":5126,
			"count":2,
			"type":"VEC3"
		},
		{
			"bufferView":73,
			"componentType":5126,
			"count":181,
			"type":"VEC4"
		},
		{
			"bufferView":74,
			"componentType":5126,
			"count":2,
			"type":"VEC3"
		},
		{
			"bufferView":75,
			"componentType":5126,
			"count":2,
			"type":"VEC3"
		},
		{
			"bufferView":76,
			"componentType":5126,
			"count":2,
			"type":"VEC4"
		},
		{
			"bufferView":77,
			"componentType":5126,
			"count":2,
			"type":"VEC3"
		},
		{
			"bufferView":78,
			"componentType":5126,
			"count":2,
			"type":"VEC3"
		},
		{
			"bufferView":79,
			"componentType":5126,
			"count":2,
			"type":"VEC4"
		},
		{
			"bufferView":80,
			"componentType":5126,
			"count":2,
			"type":"VEC3"
		},
		{
			"bufferView":81,
			"componentType":5126,
			"count":2,
			"type":"VEC3"
		},
		{
			"bufferView":82,
			"componentType":5126,
			"count":181,
			"type":"VEC4"
		},
		{
			"bufferView":83,
			"componentType":5126,
			"count":2,
			"type":"VEC3"
		},
		{
			"bufferView":84,
			"componentType":5126,
			"count":2,
			"type":"VEC3"
		},
		{
			"bufferView":85,
			"componentType":5126,
			"count":2,
			"type":"VEC4"
		},
		{
			"bufferView":86,
			"componentType":5126,
			"count":2,
			"type":"VEC3"
		},
		{
			"bufferView":87,
			"componentType":5126,
			"count":2,
			"type":"VEC4"
		},
		{
			"bufferView":88,
			"componentType":5126,
			"count":2,
			"type":"VEC3"
		},
		{
			"bufferView":89,
			"componentType":5126,
			"count":2,
			"type":"VEC4"
		},
		{
			"bufferView":90,
			"componentType":5126,
			"count":2,
			"type":"VEC3"
		},
		{
			"bufferView":91,
			"componentType":5126,
			"count":2,
			"type":"VEC4"
		},
		{
			"bufferView":92,
			"componentType":5126,
			"count":2,
			"type":"VEC3"
		},
		{
			"bufferView":93,
			"componentType":5126,
			"count":2,
			"type":"VEC4"
		},
		{
			"bufferView":94,
			"componentType":5126,
			"count":2,
			"type":"VEC3"
		},
		{
			"bufferView":95,
			"componentType":5126,
			"count":2,
			"type":"VEC4"
		},
		{
			"bufferView":96,
			"componentType":5126,
			"count":2,
			"type":"VEC3"
		},
		{
			"bufferView":97,
			"componentType":5126,
			"count":2,
			"type":"VEC4"
		},
		{
			"bufferView":98,
			"componentType":5126,
			"count":33,
			"max":[
				1.0666666666666667
			],
			"min":[
				0
			],
			"type":"SCALAR"
		},
		{
			"bufferView":99,
			"componentType":5126,
			"count":33,
			"type":"VEC3"
		},
		{
			"bufferView":100,
			"componentType":5126,
			"count":33,
			"type":"VEC4"
		},
		{
			"bufferView":101,
			"componentType":5126,
			"count":2,
			"max":[
				1.0666666666666667
			],
			"min":[
				0
			],
			"type":"SCALAR"
		},
		{
			"bufferView":102,
			"componentType":5126,
			"count":2,
			"type":"VEC4"
		},
		{
			"bufferView":103,
			"componentType":5126,
			"count":2,
			"type":"VEC3"
		},
		{
			"bufferView":104,
			"componentType":5126,
			"count":33,
			"type":"VEC4"
		},
		{
			"bufferView":105,
			"componentType":5126,
			"count":2,
			"type":"VEC3"
		},
		{
			"bufferView":106,
			"componentType":5126,
			"count":2,
			"type":"VEC3"
		},
		{
			"bufferView":107,
			"componentType":5126,
			"count":33,
			"type":"VEC4"
		},
		{
			"bufferView":108,
			"componentType":5126,
			"count":2,
			"type":"VEC3"
		},
		{
			"bufferView":109,
			"componentType":5126,
			"count":33,
			"type":"VEC4"
		},
		{
			"bufferView":110,
			"componentType":5126,
			"count":2,
			"type":"VEC3"
		},
		{
			"bufferView":111,
			"componentType":5126,
			"count":33,
			"type":"VEC4"
		},
		{
			"bufferView":112,
			"componentType":5126,
			"count":2,
			"type":"VEC3"
		},
		{
			"bufferView":113,
			"componentType":5126,
			"count":2,
			"type":"VEC4"
		},
		{
			"bufferView":114,
			"componentType":5126,
			"count":2,
			"type":"VEC3"
		},
		{
			"bufferView":115,
			"componentType":5126,
			"count":2,
			"type":"VEC4"
		},
		{
			"bufferView":116,
			"componentType":5126,
			"count":2,
			"type":"VEC3"
		},
		{
			"bufferView":117,
			"componentType":5126,
			"count":2,
			"type":"VEC3"
		},
		{
			"bufferView":118,
			"componentType":5126,
			"count":33,
			"type":"VEC4"
		},
		{
			"bufferView":119,
			"componentType":5126,
			"count":2,
			"type":"VEC3"
		},
		{
			"bufferView":120,
			"componentType":5126,
			"count":2,
			"type":"VEC3"
		},
		{
			"bufferView":121,
			"componentType":5126,
			"count":2,
			"type":"VEC4"
		},
		{
			"bufferView":122,
			"componentType":5126,
			"count":2,
			"type":"VEC3"
		},
		{
			"bufferView":123,
			"componentType":5126,
			"count":2,
			"type":"VEC4"
		},
		{
			"bufferView":124,
			"componentType":5126,
			"count":2,
			"type":"VEC3"
		},
		{
			"bufferView":125,
			"componentType":5126,
			"count":33,
			"type":"VEC4"
		},
		{
			"bufferView":126,
			"componentType":5126,
			"count":2,
			"type":"VEC3"
		},
		{
			"bufferView":127,
			"componentType":5126,
			"count":33,
			"type":"VEC4"
		},
		{
			"bufferView":128,
			"componentType":5126,
			"count":2,
			"type":"VEC3"
		},
		{
			"bufferView":129,
			"componentType":5126,
			"count":33,
			"type":"VEC4"
		},
		{
			"bufferView":130,
			"componentType":5126,
			"count":2,
			"type":"VEC3"
		},
		{
			"bufferView":131,
			"componentType":5126,
			"count":33,
			"type":"VEC4"
		},
		{
			"bufferView":132,
			"componentType":5126,
			"count":2,
			"type":"VEC3"
		},
		{
			"bufferView":133,
			"componentType":5126,
			"count":33,
			"type":"VEC4"
		},
		{
			"bufferView":134,
			"componentType":5126,
			"count":2,
			"type":"VEC3"
		},
		{
			"bufferView":135,
			"componentType":5126,
			"count":33,
			"type":"VEC4"
		},
		{
			"bufferView":136,
			"componentType":5126,
			"count":2,
			"type":"VEC3"
		}
	],
	"bufferViews":[
		{
			"buffer":0,
			"byteLength":792096,
			"byteOffset":0,
			"target":34962
		},
		{
			"buffer":0,
			"byteLength":792096,
			"byteOffset":792096,
			"target":34962
		},
		{
			"buffer":0,
			"byteLength":792096,
			"byteOffset":1584192,
			"target":34962
		},
		{
			"buffer":0,
			"byteLength":264032,
			"byteOffset":2376288,
			"target":34962
		},
		{
			"buffer":0,
			"byteLength":1056128,
			"byteOffset":2640320,
			"target":34962
		},
		{
			"buffer":0,
			"byteLength":350088,
			"byteOffset":3696448,
			"target":34963
		},
		{
			"buffer":0,
			"byteLength":1152,
			"byteOffset":4046536
		},
		{
			"buffer":0,
			"byteLength":6000,
			"byteOffset":4047688,
			"target":34962
		},
		{
			"buffer":0,
			"byteLength":6000,
			"byteOffset":4053688,
			"target":34962
		},
		{
			"buffer":0,
			"byteLength":6000,
			"byteOffset":4059688,
			"target":34962
		},
		{
			"buffer":0,
			"byteLength":1428,
			"byteOffset":4065688,
			"target":34963
		},
		{
			"buffer":0,
			"byteLength":8,
			"byteOffset":4067116
		},
		{
			"buffer":0,
			"byteLength":24,
			"byteOffset":4067124
		},
		{
			"buffer":0,
			"byteLength":32,
			"byteOffset":4067148
		},
		{
			"buffer":0,
			"byteLength":24,
			"byteOffset":4067180
		},
		{
			"buffer":0,
			"byteLength":24,
			"byteOffset":4067204
		},
		{
			"buffer":0,
			"byteLength":292,
			"byteOffset":4067228
		},
		{
			"buffer":0,
			"byteLength":1168,
			"byteOffset":4067520
		},
		{
			"buffer":0,
			"byteLength":24,
			"byteOffset":4068688
		},
		{
			"buffer":0,
			"byteLength":1168,
			"byteOffset":4068712
		},
		{
			"buffer":0,
			"byteLength":24,
			"byteOffset":4069880
		},
		{
			"buffer":0,
			"byteLength":32,
			"byteOffset":4069904
		},
		{
			"buffer":0,
			"byteLength":24,
			"byteOffset":4069936
		},
		{
			"buffer":0,
			"byteLength":1168,
			"byteOffset":4069960
		},
		{
			"buffer":0,
			"byteLength":24,
			"byteOffset":4071128
		},
		{
			"buffer":0,
			"byteLength":32,
			"byteOffset":4071152
		},
		{
			"buffer":0,
			"byteLength":24,
			"byteOffset":4071184
		},
		{
			"buffer":0,
			"byteLength":24,
			"byteOffset":4071208
		},
		{
			"buffer":0,
			"byteLength":32,
			"byteOffset":4071232
		},
		{
			"buffer":0,
			"byteLength":24,
			"byteOffset":4071264
		},
		{
			"buffer":0,
			"byteLength":24,
			"byteOffset":4071288
		},
		{
			"buffer":0,
			"byteLength":32,
			"byteOffset":4071312
		},
		{
			"buffer":0,
			"byteLength":24,
			"byteOffset":4071344
		},
		{
			"buffer":0,
			"byteLength":24,
			"byteOffset":4071368
		},
		{
			"buffer":0,
			"byteLength":32,
			"byteOffset":4071392
		},
		{
			"buffer":0,
			"byteLength":24,
			"byteOffset":4071424
		},
		{
			"buffer":0,
			"byteLength":24,
			"byteOffset":4071448
		},
		{
			"buffer":0,
			"byteLength":1168,
			"byteOffset":4071472
		},
		{
			"buffer":0,
			"byteLength":24,
			"byteOffset":4072640
		},
		{
			"buffer":0,
			"byteLength":24,
			"byteOffset":4072664
		},
		{
			"buffer":0,
			"byteLength":1168,
			"byteOffset":4072688
		},
		{
			"buffer":0,
			"byteLength":24,
			"byteOffset":4073856
		},
		{
			"buffer":0,
			"byteLength":1168,
			"byteOffset":4073880
		},
		{
			"buffer":0,
			"byteLength":24,
			"byteOffset":4075048
		},
		{
			"buffer":0,
			"byteLength":32,
			"byteOffset":4075072
		},
		{
			"buffer":0,
			"byteLength":24,
			"byteOffset":4075104
		},
		{
			"buffer":0,
			"byteLength":32,
			"byteOffset":4075128
		},
		{
			"buffer":0,
			"byteLength":24,
			"byteOffset":4075160
		},
		{
			"buffer":0,
			"byteLength":24,
			"byteOffset":4075184
		},
		{
			"buffer":0,
			"byteLength":32,
			"byteOffset":4075208
		},
		{
			"buffer":0,
			"byteLength":24,
			"byteOffset":4075240
		},
		{
			"buffer":0,
			"byteLength":24,
			"byteOffset":4075264
		},
		{
			"buffer":0,
			"byteLength":24,
			"byteOffset":4075288
		},
		{
			"buffer":0,
			"byteLength":24,
			"byteOffset":4075312
		},
		{
			"buffer":0,
			"byteLength":724,
			"byteOffset":4075336
		},
		{
			"buffer":0,
			"byteLength":2172,
			"byteOffset":4076060
		},
		{
			"buffer":0,
			"byteLength":2896,
			"byteOffset":4078232
		},
		{
			"buffer":0,
			"byteLength":8,
			"byteOffset":4081128
		},
		{
			"buffer":0,
			"byteLength":2896,
			"byteOffset":4081136
		},
		{
			"buffer":0,
			"byteLength":24,
			"byteOffset":4084032
		},
		{
			"buffer":0,
			"byteLength":2896,
			"byteOffset":4084056
		},
		{
			"buffer":0,
			"byteLength":24,
			"byteOffset":4086952
		},
		{
			"buffer":0,
			"byteLength":24,
			"byteOffset":4086976
		},
		{
			"buffer":0,
			"byteLength":32,
			"byteOffset":4087000
		},
		{
			"buffer":0,
			"byteLength":24,
			"byteOffset":4087032
		},
		{
			"buffer":0,
			"byteLength":24,
			"byteOffset":4087056
		},
		{
			"buffer":0,
			"byteLength":2896,
			"byteOffset":4087080
		},
		{
			"buffer":0,
			"byteLength":24,
			"byteOffset":4089976
		},
		{
			"buffer":0,
			"byteLength":2896,
			"byteOffset":4090000
		},
		{
			"buffer":0,
			"byteLength":24,
			"byteOffset":4092896
		},
		{
			"buffer":0,
			"byteLength":32,
			"byteOffset":4092920
		},
		{
			"buffer":0,
			"byteLength":24,
			"byteOffset":4092952
		},
		{
			"buffer":0,
			"byteLength":24,
			"byteOffset":4092976
		},
		{
			"buffer":0,
			"byteLength":2896,
			"byteOffset":4093000
		},
		{
			"buffer":0,
			"byteLength":24,
			"byteOffset":4095896
		},
		{
			"buffer":0,
			"byteLength":24,
			"byteOffset":4095920
		},
		{
			"buffer":0,
			"byteLength":32,
			"byteOffset":4095944
		},
		{
			"buffer":0,
			"byteLength":24,
			"byteOffset":4095976
		},
		{
			"buffer":0,
			"byteLength":24,
			"byteOffset":4096000
		},
		{
			"buffer":0,
			"byteLength":32,
			"byteOffset":4096024
		},
		{
			"buffer":0,
			"byteLength":24,
			"byteOffset":4096056
		},
		{
			"buffer":0,
			"byteLength":24,
			"byteOffset":4096080
		},
		{
			"buffer":0,
			"byteLength":2896,
			"byteOffset":4096104
		},
		{
			"buffer":0,
			"byteLength":24,
			"byteOffset":4099000
		},
		{
			"buffer":0,
			"byteLength":24,
			"byteOffset":4099024
		},
		{
			"buffer":0,
			"byteLength":32,
			"byteOffset":4099048
		},
		{
			"buffer":0,
			"byteLength":24,
			"byteOffset":4099080
		},
		{
			"buffer":0,
			"byteLength":32,
			"byteOffset":4099104
		},
		{
			"buffer":0,
			"byteLength":24,
			"byteOffset":4099136
		},
		{
			"buffer":0,
			"byteLength":32,
			"byteOffset":4099160
		},
		{
			"buffer":0,
			"byteLength":24,
			"byteOffset":4099192
		},
		{
			"buffer":0,
			"byteLength":32,
			"byteOffset":4099216
		},
		{
			"buffer":0,
			"byteLength":24,
			"byteOffset":4099248
		},
		{
			"buffer":0,
			"byteLength":32,
			"byteOffset":4099272
		},
		{
			"buffer":0,
			"byteLength":24,
			"byteOffset":4099304
		},
		{
			"buffer":0,
			"byteLength":32,
			"byteOffset":4099328
		},
		{
			"buffer":0,
			"byteLength":24,
			"byteOffset":4099360
		},
		{
			"buffer":0,
			"byteLength":32,
			"byteOffset":4099384
		},
		{
			"buffer":0,
			"byteLength":132,
			"byteOffset":4099416
		},
		{
			"buffer":0,
			"byteLength":396,
			"byteOffset":4099548
		},
		{
			"buffer":0,
			"byteLength":528,
			"byteOffset":4099944
		},
		{
			"buffer":0,
			"byteLength":8,
			"byteOffset":4100472
		},
		{
			"buffer":0,
			"byteLength":32,
			"byteOffset":4100480
		},
		{
			"buffer":0,
			"byteLength":24,
			"byteOffset":4100512
		},
		{
			"buffer":0,
			"byteLength":528,
			"byteOffset":4100536
		},
		{
			"buffer":0,
			"byteLength":24,
			"byteOffset":4101064
		},
		{
			"buffer":0,
			"byteLength":24,
			"byteOffset":4101088
		},
		{
			"buffer":0,
			"byteLength":528,
			"byteOffset":4101112
		},
		{
			"buffer":0,
			"byteLength":24,
			"byteOffset":4101640
		},
		{
			"buffer":0,
			"byteLength":528,
			"byteOffset":4101664
		},
		{
			"buffer":0,
			"byteLength":24,
			"byteOffset":4102192
		},
		{
			"buffer":0,
			"byteLength":528,
			"byteOffset":4102216
		},
		{
			"buffer":0,
			"byteLength":24,
			"byteOffset":4102744
		},
		{
			"buffer":0,
			"byteLength":32,
			"byteOffset":4102768
		},
		{
			"buffer":0,
			"byteLength":24,
			"byteOffset":4102800
		},
		{
			"buffer":0,
			"byteLength":32,
			"byteOffset":4102824
		},
		{
			"buffer":0,
			"byteLength":24,
			"byteOffset":4102856
		},
		{
			"buffer":0,
			"byteLength":24,
			"byteOffset":4102880
		},
		{
			"buffer":0,
			"byteLength":528,
			"byteOffset":4102904
		},
		{
			"buffer":0,
			"byteLength":24,
			"byteOffset":4103432
		},
		{
			"buffer":0,
			"byteLength":24,
			"byteOffset":4103456
		},
		{
			"buffer":0,
			"byteLength":32,
			"byteOffset":4103480
		},
		{
			"buffer":0,
			"byteLength":24,
			"byteOffset":4103512
		},
		{
			"buffer":0,
			"byteLength":32,
			"byteOffset":4103536
		},
		{
			"buffer":0,
			"byteLength":24,
			"byteOffset":4103568
		},
		{
			"buffer":0,
			"byteLength":528,
			"byteOffset":4103592
		},
		{
			"buffer":0,
			"byteLength":24,
			"byteOffset":4104120
		},
		{
			"buffer":0,
			"byteLength":528,
			"byteOffset":4104144
		},
		{
			"buffer":0,
			"byteLength":24,
			"byteOffset":4104672
		},
		{
			"buffer":0,
			"byteLength":528,
			"byteOffset":4104696
		},
		{
			"buffer":0,
			"byteLength":24,
			"byteOffset":4105224
		},
		{
			"buffer":0,
			"byteLength":528,
			"byteOffset":4105248
		},
		{
			"buffer":0,
			"byteLength":24,
			"byteOffset":4105776
		},
		{
			"buffer":0,
			"byteLength":528,
			"byteOffset":4105800
		},
		{
			"buffer":0,
			"byteLength":24,
			"byteOffset":4106328
		},
		{
			"buffer":0,
			"byteLength":528,
			"byteOffset":4106352
		},
		{
			"buffer":0,
			"byteLength":24,
			"byteOffset":4106880
		}
	],
	"buffers":[
		{
			"byteLength":4106904,
			"uri":"haendler.bin"
		}
	]
}
