{
	"asset":{
		"generator":"Khronos glTF Blender I/O v5.2.40",
		"version":"2.0"
	},
	"scene":0,
	"scenes":[
		{
			"name":"Scene",
			"nodes":[
				22
			]
		}
	],
	"nodes":[
		{
			"name":"Hut",
			"rotation":[
				-0.49269899725914,
				1.4670467862742953e-07,
				-8.306281529257831e-08,
				0.8701997995376587
			],
			"scale":[
				1,
				0.9999999403953552,
				1
			],
			"translation":[
				0,
				0.2600001096725464,
				-0.019999999552965164
			]
		},
		{
			"children":[
				0
			],
			"name":"Kopf",
			"rotation":[
				0,
				-5.9604641222676946e-08,
				0,
				1
			],
			"translation":[
				0,
				0.06000018119812012,
				0
			]
		},
		{
			"children":[
				1
			],
			"name":"Hals",
			"rotation":[
				0,
				5.9604641222676946e-08,
				0,
				1
			],
			"scale":[
				1,
				0.9999999403953552,
				1
			],
			"translation":[
				0,
				0.25,
				0
			]
		},
		{
			"name":"Hand.L",
			"rotation":[
				-0.045664913952350616,
				0.0027846242301166058,
				-0.01642555743455887,
				0.9988178610801697
			],
			"scale":[
				1,
				0.9999999403953552,
				1
			],
			"translation":[
				1.5012920684398523e-08,
				0.24601835012435913,
				5.587935447692871e-09
			]
		},
		{
			"children":[
				3
			],
			"name":"Unterarm.L",
			"rotation":[
				-0.096297487616539,
				-0.0013175290077924728,
				0.05131449177861214,
				0.9940280914306641
			],
			"scale":[
				0.9999999403953552,
				1,
				1
			],
			"translation":[
				-2.6896589844227492e-08,
				0.2823118567466736,
				1.5832483768463135e-08
			]
		},
		{
			"children":[
				4
			],
			"name":"Oberarm.L",
			"rotation":[
				-0.9890241026878357,
				-0.14344002306461334,
				0.005087628494948149,
				0.03507712483406067
			],
			"scale":[
				0.9999980330467224,
				0.9999997615814209,
				0.9999998807907104
			],
			"translation":[
				0.1899999976158142,
				0.20000004768371582,
				0
			]
		},
		{
			"mesh":1,
			"name":"Werkzeug",
			"rotation":[
				-0.9883642196655273,
				0.10849487781524658,
				0.01163237914443016,
				0.10597076267004013
			],
			"scale":[
				1.0000014305114746,
				1.000000238418579,
				0.9999999403953552
			],
			"translation":[
				0.5157531499862671,
				0.84693843126297,
				0.19395993649959564
			]
		},
		{
			"children":[
				6
			],
			"name":"Hand.R",
			"rotation":[
				-0.045664913952350616,
				-0.0027846242301166058,
				0.01642555743455887,
				0.9988178610801697
			],
			"scale":[
				1,
				0.9999999403953552,
				1
			],
			"translation":[
				-1.5012920684398523e-08,
				0.24601835012435913,
				5.587935447692871e-09
			]
		},
		{
			"children":[
				7
			],
			"name":"Unterarm.R",
			"rotation":[
				-0.096297487616539,
				0.0013175290077924728,
				-0.05131449177861214,
				0.9940280914306641
			],
			"scale":[
				0.9999999403953552,
				1,
				1
			],
			"translation":[
				2.6896589844227492e-08,
				0.2823118567466736,
				1.5832483768463135e-08
			]
		},
		{
			"children":[
				8
			],
			"name":"Oberarm.R",
			"rotation":[
				-0.9890241026878357,
				0.14344002306461334,
				-0.005087628494948149,
				0.03507712483406067
			],
			"scale":[
				0.9999980330467224,
				0.9999997615814209,
				0.9999998807907104
			],
			"translation":[
				-0.1899999976158142,
				0.20000004768371582,
				0
			]
		},
		{
			"mesh":2,
			"name":"Last",
			"translation":[
				0,
				-1.2699999809265137,
				0
			]
		},
		{
			"mesh":3,
			"name":"Werkzeug_Ruecken",
			"translation":[
				0,
				-1.2699999809265137,
				0
			]
		},
		{
			"children":[
				2,
				5,
				9,
				10,
				11
			],
			"name":"Brust",
			"translation":[
				0,
				0.19999992847442627,
				0
			]
		},
		{
			"children":[
				12
			],
			"name":"Bauch",
			"translation":[
				0,
				0.14000004529953003,
				0
			]
		},
		{
			"name":"Fuss.L",
			"rotation":[
				5.941208414128596e-09,
				0.812186062335968,
				-0.5833984613418579,
				6.131833174549683e-08
			],
			"scale":[
				1,
				0.9999996423721313,
				0.9999998807907104
			],
			"translation":[
				5.270791358924498e-09,
				0.41076144576072693,
				-1.210719524635806e-09
			]
		},
		{
			"children":[
				14
			],
			"name":"Unterschenkel.L",
			"rotation":[
				0.0362558513879776,
				4.653537999388391e-09,
				2.93763280367898e-09,
				0.9993425011634827
			],
			"translation":[
				8.257892702978609e-10,
				0.4300290644168854,
				1.8626700182267086e-10
			]
		},
		{
			"children":[
				15
			],
			"name":"Oberschenkel.L",
			"rotation":[
				0.9999830722808838,
				2.2199010685231002e-10,
				3.818359317619979e-08,
				0.005813658703118563
			],
			"translation":[
				0.10000000149011612,
				0,
				0
			]
		},
		{
			"name":"Fuss.R",
			"rotation":[
				5.941208414128596e-09,
				0.812186062335968,
				-0.5833984613418579,
				6.131833174549683e-08
			],
			"scale":[
				1,
				0.9999996423721313,
				0.9999998807907104
			],
			"translation":[
				-9.630369390833948e-09,
				0.41076144576072693,
				2.793969500203275e-10
			]
		},
		{
			"children":[
				17
			],
			"name":"Unterschenkel.R",
			"rotation":[
				0.0362558513879776,
				4.653537999388391e-09,
				2.93763280367898e-09,
				0.9993425011634827
			],
			"translation":[
				8.257892702978609e-10,
				0.4300290644168854,
				-1.8626700182267086e-10
			]
		},
		{
			"children":[
				18
			],
			"name":"Oberschenkel.R",
			"rotation":[
				0.9999830722808838,
				2.2199010685231002e-10,
				3.818359317619979e-08,
				0.005813658703118563
			],
			"translation":[
				-0.10000000149011612,
				0,
				0
			]
		},
		{
			"children":[
				13,
				16,
				19
			],
			"name":"Becken",
			"translation":[
				0,
				0.9300000071525574,
				0
			]
		},
		{
			"mesh":0,
			"name":"Holzarbeiter",
			"skin":0
		},
		{
			"children":[
				21,
				20
			],
			"name":"HolzarbeiterSkelett"
		}
	],
	"animations":[
		{
			"channels":[
				{
					"sampler":0,
					"target":{
						"node":20,
						"path":"translation"
					}
				},
				{
					"sampler":1,
					"target":{
						"node":20,
						"path":"rotation"
					}
				},
				{
					"sampler":2,
					"target":{
						"node":20,
						"path":"scale"
					}
				},
				{
					"sampler":3,
					"target":{
						"node":13,
						"path":"translation"
					}
				},
				{
					"sampler":4,
					"target":{
						"node":13,
						"path":"rotation"
					}
				},
				{
					"sampler":5,
					"target":{
						"node":13,
						"path":"scale"
					}
				},
				{
					"sampler":6,
					"target":{
						"node":12,
						"path":"translation"
					}
				},
				{
					"sampler":7,
					"target":{
						"node":12,
						"path":"rotation"
					}
				},
				{
					"sampler":8,
					"target":{
						"node":12,
						"path":"scale"
					}
				},
				{
					"sampler":9,
					"target":{
						"node":2,
						"path":"translation"
					}
				},
				{
					"sampler":10,
					"target":{
						"node":2,
						"path":"rotation"
					}
				},
				{
					"sampler":11,
					"target":{
						"node":2,
						"path":"scale"
					}
				},
				{
					"sampler":12,
					"target":{
						"node":1,
						"path":"translation"
					}
				},
				{
					"sampler":13,
					"target":{
						"node":1,
						"path":"rotation"
					}
				},
				{
					"sampler":14,
					"target":{
						"node":1,
						"path":"scale"
					}
				},
				{
					"sampler":15,
					"target":{
						"node":0,
						"path":"translation"
					}
				},
				{
					"sampler":16,
					"target":{
						"node":0,
						"path":"rotation"
					}
				},
				{
					"sampler":17,
					"target":{
						"node":0,
						"path":"scale"
					}
				},
				{
					"sampler":18,
					"target":{
						"node":5,
						"path":"translation"
					}
				},
				{
					"sampler":19,
					"target":{
						"node":5,
						"path":"rotation"
					}
				},
				{
					"sampler":20,
					"target":{
						"node":5,
						"path":"scale"
					}
				},
				{
					"sampler":21,
					"target":{
						"node":4,
						"path":"translation"
					}
				},
				{
					"sampler":22,
					"target":{
						"node":4,
						"path":"rotation"
					}
				},
				{
					"sampler":23,
					"target":{
						"node":4,
						"path":"scale"
					}
				},
				{
					"sampler":24,
					"target":{
						"node":3,
						"path":"translation"
					}
				},
				{
					"sampler":25,
					"target":{
						"node":3,
						"path":"rotation"
					}
				},
				{
					"sampler":26,
					"target":{
						"node":3,
						"path":"scale"
					}
				},
				{
					"sampler":27,
					"target":{
						"node":9,
						"path":"translation"
					}
				},
				{
					"sampler":28,
					"target":{
						"node":9,
						"path":"rotation"
					}
				},
				{
					"sampler":29,
					"target":{
						"node":9,
						"path":"scale"
					}
				},
				{
					"sampler":30,
					"target":{
						"node":8,
						"path":"translation"
					}
				},
				{
					"sampler":31,
					"target":{
						"node":8,
						"path":"rotation"
					}
				},
				{
					"sampler":32,
					"target":{
						"node":8,
						"path":"scale"
					}
				},
				{
					"sampler":33,
					"target":{
						"node":7,
						"path":"translation"
					}
				},
				{
					"sampler":34,
					"target":{
						"node":7,
						"path":"rotation"
					}
				},
				{
					"sampler":35,
					"target":{
						"node":7,
						"path":"scale"
					}
				},
				{
					"sampler":36,
					"target":{
						"node":16,
						"path":"translation"
					}
				},
				{
					"sampler":37,
					"target":{
						"node":16,
						"path":"rotation"
					}
				},
				{
					"sampler":38,
					"target":{
						"node":16,
						"path":"scale"
					}
				},
				{
					"sampler":39,
					"target":{
						"node":15,
						"path":"translation"
					}
				},
				{
					"sampler":40,
					"target":{
						"node":15,
						"path":"rotation"
					}
				},
				{
					"sampler":41,
					"target":{
						"node":15,
						"path":"scale"
					}
				},
				{
					"sampler":42,
					"target":{
						"node":14,
						"path":"translation"
					}
				},
				{
					"sampler":43,
					"target":{
						"node":14,
						"path":"rotation"
					}
				},
				{
					"sampler":44,
					"target":{
						"node":14,
						"path":"scale"
					}
				},
				{
					"sampler":45,
					"target":{
						"node":19,
						"path":"translation"
					}
				},
				{
					"sampler":46,
					"target":{
						"node":19,
						"path":"rotation"
					}
				},
				{
					"sampler":47,
					"target":{
						"node":19,
						"path":"scale"
					}
				},
				{
					"sampler":48,
					"target":{
						"node":18,
						"path":"translation"
					}
				},
				{
					"sampler":49,
					"target":{
						"node":18,
						"path":"rotation"
					}
				},
				{
					"sampler":50,
					"target":{
						"node":18,
						"path":"scale"
					}
				},
				{
					"sampler":51,
					"target":{
						"node":17,
						"path":"translation"
					}
				},
				{
					"sampler":52,
					"target":{
						"node":17,
						"path":"rotation"
					}
				},
				{
					"sampler":53,
					"target":{
						"node":17,
						"path":"scale"
					}
				}
			],
			"name":"Arbeiten",
			"samplers":[
				{
					"input":19,
					"interpolation":"LINEAR",
					"output":20
				},
				{
					"input":19,
					"interpolation":"LINEAR",
					"output":21
				},
				{
					"input":22,
					"interpolation":"STEP",
					"output":23
				},
				{
					"input":22,
					"interpolation":"STEP",
					"output":24
				},
				{
					"input":19,
					"interpolation":"LINEAR",
					"output":25
				},
				{
					"input":22,
					"interpolation":"STEP",
					"output":26
				},
				{
					"input":22,
					"interpolation":"STEP",
					"output":27
				},
				{
					"input":19,
					"interpolation":"LINEAR",
					"output":28
				},
				{
					"input":22,
					"interpolation":"STEP",
					"output":29
				},
				{
					"input":22,
					"interpolation":"STEP",
					"output":30
				},
				{
					"input":22,
					"interpolation":"STEP",
					"output":31
				},
				{
					"input":22,
					"interpolation":"STEP",
					"output":32
				},
				{
					"input":22,
					"interpolation":"STEP",
					"output":33
				},
				{
					"input":19,
					"interpolation":"LINEAR",
					"output":34
				},
				{
					"input":22,
					"interpolation":"STEP",
					"output":26
				},
				{
					"input":22,
					"interpolation":"STEP",
					"output":35
				},
				{
					"input":22,
					"interpolation":"STEP",
					"output":36
				},
				{
					"input":22,
					"interpolation":"STEP",
					"output":32
				},
				{
					"input":22,
					"interpolation":"STEP",
					"output":37
				},
				{
					"input":19,
					"interpolation":"LINEAR",
					"output":38
				},
				{
					"input":22,
					"interpolation":"STEP",
					"output":39
				},
				{
					"input":22,
					"interpolation":"STEP",
					"output":40
				},
				{
					"input":22,
					"interpolation":"STEP",
					"output":41
				},
				{
					"input":22,
					"interpolation":"STEP",
					"output":42
				},
				{
					"input":22,
					"interpolation":"STEP",
					"output":43
				},
				{
					"input":22,
					"interpolation":"STEP",
					"output":44
				},
				{
					"input":22,
					"interpolation":"STEP",
					"output":45
				},
				{
					"input":22,
					"interpolation":"STEP",
					"output":46
				},
				{
					"input":19,
					"interpolation":"LINEAR",
					"output":47
				},
				{
					"input":22,
					"interpolation":"STEP",
					"output":48
				},
				{
					"input":22,
					"interpolation":"STEP",
					"output":49
				},
				{
					"input":19,
					"interpolation":"LINEAR",
					"output":50
				},
				{
					"input":22,
					"interpolation":"STEP",
					"output":51
				},
				{
					"input":22,
					"interpolation":"STEP",
					"output":52
				},
				{
					"input":19,
					"interpolation":"LINEAR",
					"output":53
				},
				{
					"input":22,
					"interpolation":"STEP",
					"output":54
				},
				{
					"input":22,
					"interpolation":"STEP",
					"output":55
				},
				{
					"input":22,
					"interpolation":"STEP",
					"output":56
				},
				{
					"input":22,
					"interpolation":"STEP",
					"output":26
				},
				{
					"input":22,
					"interpolation":"STEP",
					"output":57
				},
				{
					"input":22,
					"interpolation":"STEP",
					"output":58
				},
				{
					"input":22,
					"interpolation":"STEP",
					"output":26
				},
				{
					"input":22,
					"interpolation":"STEP",
					"output":59
				},
				{
					"input":22,
					"interpolation":"STEP",
					"output":60
				},
				{
					"input":22,
					"interpolation":"STEP",
					"output":61
				},
				{
					"input":22,
					"interpolation":"STEP",
					"output":62
				},
				{
					"input":22,
					"interpolation":"STEP",
					"output":63
				},
				{
					"input":22,
					"interpolation":"STEP",
					"output":64
				},
				{
					"input":22,
					"interpolation":"STEP",
					"output":65
				},
				{
					"input":22,
					"interpolation":"STEP",
					"output":66
				},
				{
					"input":22,
					"interpolation":"STEP",
					"output":67
				},
				{
					"input":22,
					"interpolation":"STEP",
					"output":68
				},
				{
					"input":22,
					"interpolation":"STEP",
					"output":69
				},
				{
					"input":22,
					"interpolation":"STEP",
					"output":61
				}
			]
		},
		{
			"channels":[
				{
					"sampler":0,
					"target":{
						"node":20,
						"path":"translation"
					}
				},
				{
					"sampler":1,
					"target":{
						"node":20,
						"path":"rotation"
					}
				},
				{
					"sampler":2,
					"target":{
						"node":20,
						"path":"scale"
					}
				},
				{
					"sampler":3,
					"target":{
						"node":13,
						"path":"translation"
					}
				},
				{
					"sampler":4,
					"target":{
						"node":13,
						"path":"rotation"
					}
				},
				{
					"sampler":5,
					"target":{
						"node":13,
						"path":"scale"
					}
				},
				{
					"sampler":6,
					"target":{
						"node":12,
						"path":"translation"
					}
				},
				{
					"sampler":7,
					"target":{
						"node":12,
						"path":"rotation"
					}
				},
				{
					"sampler":8,
					"target":{
						"node":12,
						"path":"scale"
					}
				},
				{
					"sampler":9,
					"target":{
						"node":2,
						"path":"translation"
					}
				},
				{
					"sampler":10,
					"target":{
						"node":2,
						"path":"rotation"
					}
				},
				{
					"sampler":11,
					"target":{
						"node":2,
						"path":"scale"
					}
				},
				{
					"sampler":12,
					"target":{
						"node":1,
						"path":"translation"
					}
				},
				{
					"sampler":13,
					"target":{
						"node":1,
						"path":"rotation"
					}
				},
				{
					"sampler":14,
					"target":{
						"node":1,
						"path":"scale"
					}
				},
				{
					"sampler":15,
					"target":{
						"node":0,
						"path":"translation"
					}
				},
				{
					"sampler":16,
					"target":{
						"node":0,
						"path":"rotation"
					}
				},
				{
					"sampler":17,
					"target":{
						"node":0,
						"path":"scale"
					}
				},
				{
					"sampler":18,
					"target":{
						"node":5,
						"path":"translation"
					}
				},
				{
					"sampler":19,
					"target":{
						"node":5,
						"path":"rotation"
					}
				},
				{
					"sampler":20,
					"target":{
						"node":5,
						"path":"scale"
					}
				},
				{
					"sampler":21,
					"target":{
						"node":4,
						"path":"translation"
					}
				},
				{
					"sampler":22,
					"target":{
						"node":4,
						"path":"rotation"
					}
				},
				{
					"sampler":23,
					"target":{
						"node":4,
						"path":"scale"
					}
				},
				{
					"sampler":24,
					"target":{
						"node":3,
						"path":"translation"
					}
				},
				{
					"sampler":25,
					"target":{
						"node":3,
						"path":"rotation"
					}
				},
				{
					"sampler":26,
					"target":{
						"node":3,
						"path":"scale"
					}
				},
				{
					"sampler":27,
					"target":{
						"node":9,
						"path":"translation"
					}
				},
				{
					"sampler":28,
					"target":{
						"node":9,
						"path":"rotation"
					}
				},
				{
					"sampler":29,
					"target":{
						"node":9,
						"path":"scale"
					}
				},
				{
					"sampler":30,
					"target":{
						"node":8,
						"path":"translation"
					}
				},
				{
					"sampler":31,
					"target":{
						"node":8,
						"path":"rotation"
					}
				},
				{
					"sampler":32,
					"target":{
						"node":8,
						"path":"scale"
					}
				},
				{
					"sampler":33,
					"target":{
						"node":7,
						"path":"translation"
					}
				},
				{
					"sampler":34,
					"target":{
						"node":7,
						"path":"rotation"
					}
				},
				{
					"sampler":35,
					"target":{
						"node":7,
						"path":"scale"
					}
				},
				{
					"sampler":36,
					"target":{
						"node":16,
						"path":"translation"
					}
				},
				{
					"sampler":37,
					"target":{
						"node":16,
						"path":"rotation"
					}
				},
				{
					"sampler":38,
					"target":{
						"node":16,
						"path":"scale"
					}
				},
				{
					"sampler":39,
					"target":{
						"node":15,
						"path":"translation"
					}
				},
				{
					"sampler":40,
					"target":{
						"node":15,
						"path":"rotation"
					}
				},
				{
					"sampler":41,
					"target":{
						"node":15,
						"path":"scale"
					}
				},
				{
					"sampler":42,
					"target":{
						"node":14,
						"path":"translation"
					}
				},
				{
					"sampler":43,
					"target":{
						"node":14,
						"path":"rotation"
					}
				},
				{
					"sampler":44,
					"target":{
						"node":14,
						"path":"scale"
					}
				},
				{
					"sampler":45,
					"target":{
						"node":19,
						"path":"translation"
					}
				},
				{
					"sampler":46,
					"target":{
						"node":19,
						"path":"rotation"
					}
				},
				{
					"sampler":47,
					"target":{
						"node":19,
						"path":"scale"
					}
				},
				{
					"sampler":48,
					"target":{
						"node":18,
						"path":"translation"
					}
				},
				{
					"sampler":49,
					"target":{
						"node":18,
						"path":"rotation"
					}
				},
				{
					"sampler":50,
					"target":{
						"node":18,
						"path":"scale"
					}
				},
				{
					"sampler":51,
					"target":{
						"node":17,
						"path":"translation"
					}
				},
				{
					"sampler":52,
					"target":{
						"node":17,
						"path":"rotation"
					}
				},
				{
					"sampler":53,
					"target":{
						"node":17,
						"path":"scale"
					}
				}
			],
			"name":"Buecken",
			"samplers":[
				{
					"input":70,
					"interpolation":"LINEAR",
					"output":71
				},
				{
					"input":72,
					"interpolation":"STEP",
					"output":73
				},
				{
					"input":72,
					"interpolation":"STEP",
					"output":26
				},
				{
					"input":72,
					"interpolation":"STEP",
					"output":24
				},
				{
					"input":70,
					"interpolation":"LINEAR",
					"output":74
				},
				{
					"input":72,
					"interpolation":"STEP",
					"output":26
				},
				{
					"input":72,
					"interpolation":"STEP",
					"output":75
				},
				{
					"input":70,
					"interpolation":"LINEAR",
					"output":76
				},
				{
					"input":72,
					"interpolation":"STEP",
					"output":26
				},
				{
					"input":72,
					"interpolation":"STEP",
					"output":77
				},
				{
					"input":72,
					"interpolation":"STEP",
					"output":78
				},
				{
					"input":72,
					"interpolation":"STEP",
					"output":64
				},
				{
					"input":72,
					"interpolation":"STEP",
					"output":79
				},
				{
					"input":70,
					"interpolation":"LINEAR",
					"output":80
				},
				{
					"input":72,
					"interpolation":"STEP",
					"output":26
				},
				{
					"input":72,
					"interpolation":"STEP",
					"output":81
				},
				{
					"input":72,
					"interpolation":"STEP",
					"output":82
				},
				{
					"input":72,
					"interpolation":"STEP",
					"output":45
				},
				{
					"input":72,
					"interpolation":"STEP",
					"output":83
				},
				{
					"input":70,
					"interpolation":"LINEAR",
					"output":84
				},
				{
					"input":72,
					"interpolation":"STEP",
					"output":85
				},
				{
					"input":72,
					"interpolation":"STEP",
					"output":86
				},
				{
					"input":70,
					"interpolation":"LINEAR",
					"output":87
				},
				{
					"input":72,
					"interpolation":"STEP",
					"output":88
				},
				{
					"input":72,
					"interpolation":"STEP",
					"output":89
				},
				{
					"input":72,
					"interpolation":"STEP",
					"output":90
				},
				{
					"input":72,
					"interpolation":"STEP",
					"output":91
				},
				{
					"input":72,
					"interpolation":"STEP",
					"output":92
				},
				{
					"input":70,
					"interpolation":"LINEAR",
					"output":93
				},
				{
					"input":72,
					"interpolation":"STEP",
					"output":94
				},
				{
					"input":72,
					"interpolation":"STEP",
					"output":95
				},
				{
					"input":70,
					"interpolation":"LINEAR",
					"output":96
				},
				{
					"input":72,
					"interpolation":"STEP",
					"output":88
				},
				{
					"input":72,
					"interpolation":"STEP",
					"output":97
				},
				{
					"input":72,
					"interpolation":"STEP",
					"output":98
				},
				{
					"input":72,
					"interpolation":"STEP",
					"output":61
				},
				{
					"input":72,
					"interpolation":"STEP",
					"output":99
				},
				{
					"input":70,
					"interpolation":"LINEAR",
					"output":100
				},
				{
					"input":72,
					"interpolation":"STEP",
					"output":26
				},
				{
					"input":72,
					"interpolation":"STEP",
					"output":101
				},
				{
					"input":70,
					"interpolation":"LINEAR",
					"output":102
				},
				{
					"input":72,
					"interpolation":"STEP",
					"output":103
				},
				{
					"input":72,
					"interpolation":"STEP",
					"output":104
				},
				{
					"input":70,
					"interpolation":"LINEAR",
					"output":105
				},
				{
					"input":72,
					"interpolation":"STEP",
					"output":106
				},
				{
					"input":72,
					"interpolation":"STEP",
					"output":107
				},
				{
					"input":70,
					"interpolation":"LINEAR",
					"output":108
				},
				{
					"input":72,
					"interpolation":"STEP",
					"output":26
				},
				{
					"input":72,
					"interpolation":"STEP",
					"output":109
				},
				{
					"input":70,
					"interpolation":"LINEAR",
					"output":110
				},
				{
					"input":72,
					"interpolation":"STEP",
					"output":103
				},
				{
					"input":72,
					"interpolation":"STEP",
					"output":111
				},
				{
					"input":70,
					"interpolation":"LINEAR",
					"output":112
				},
				{
					"input":72,
					"interpolation":"STEP",
					"output":106
				}
			]
		},
		{
			"channels":[
				{
					"sampler":0,
					"target":{
						"node":20,
						"path":"translation"
					}
				},
				{
					"sampler":1,
					"target":{
						"node":20,
						"path":"rotation"
					}
				},
				{
					"sampler":2,
					"target":{
						"node":20,
						"path":"scale"
					}
				},
				{
					"sampler":3,
					"target":{
						"node":13,
						"path":"translation"
					}
				},
				{
					"sampler":4,
					"target":{
						"node":13,
						"path":"rotation"
					}
				},
				{
					"sampler":5,
					"target":{
						"node":13,
						"path":"scale"
					}
				},
				{
					"sampler":6,
					"target":{
						"node":12,
						"path":"translation"
					}
				},
				{
					"sampler":7,
					"target":{
						"node":12,
						"path":"rotation"
					}
				},
				{
					"sampler":8,
					"target":{
						"node":12,
						"path":"scale"
					}
				},
				{
					"sampler":9,
					"target":{
						"node":2,
						"path":"translation"
					}
				},
				{
					"sampler":10,
					"target":{
						"node":2,
						"path":"rotation"
					}
				},
				{
					"sampler":11,
					"target":{
						"node":2,
						"path":"scale"
					}
				},
				{
					"sampler":12,
					"target":{
						"node":1,
						"path":"translation"
					}
				},
				{
					"sampler":13,
					"target":{
						"node":1,
						"path":"rotation"
					}
				},
				{
					"sampler":14,
					"target":{
						"node":1,
						"path":"scale"
					}
				},
				{
					"sampler":15,
					"target":{
						"node":0,
						"path":"translation"
					}
				},
				{
					"sampler":16,
					"target":{
						"node":0,
						"path":"rotation"
					}
				},
				{
					"sampler":17,
					"target":{
						"node":0,
						"path":"scale"
					}
				},
				{
					"sampler":18,
					"target":{
						"node":5,
						"path":"translation"
					}
				},
				{
					"sampler":19,
					"target":{
						"node":5,
						"path":"rotation"
					}
				},
				{
					"sampler":20,
					"target":{
						"node":5,
						"path":"scale"
					}
				},
				{
					"sampler":21,
					"target":{
						"node":4,
						"path":"translation"
					}
				},
				{
					"sampler":22,
					"target":{
						"node":4,
						"path":"rotation"
					}
				},
				{
					"sampler":23,
					"target":{
						"node":4,
						"path":"scale"
					}
				},
				{
					"sampler":24,
					"target":{
						"node":3,
						"path":"translation"
					}
				},
				{
					"sampler":25,
					"target":{
						"node":3,
						"path":"rotation"
					}
				},
				{
					"sampler":26,
					"target":{
						"node":3,
						"path":"scale"
					}
				},
				{
					"sampler":27,
					"target":{
						"node":9,
						"path":"translation"
					}
				},
				{
					"sampler":28,
					"target":{
						"node":9,
						"path":"rotation"
					}
				},
				{
					"sampler":29,
					"target":{
						"node":9,
						"path":"scale"
					}
				},
				{
					"sampler":30,
					"target":{
						"node":8,
						"path":"translation"
					}
				},
				{
					"sampler":31,
					"target":{
						"node":8,
						"path":"rotation"
					}
				},
				{
					"sampler":32,
					"target":{
						"node":8,
						"path":"scale"
					}
				},
				{
					"sampler":33,
					"target":{
						"node":7,
						"path":"translation"
					}
				},
				{
					"sampler":34,
					"target":{
						"node":7,
						"path":"rotation"
					}
				},
				{
					"sampler":35,
					"target":{
						"node":7,
						"path":"scale"
					}
				},
				{
					"sampler":36,
					"target":{
						"node":16,
						"path":"translation"
					}
				},
				{
					"sampler":37,
					"target":{
						"node":16,
						"path":"rotation"
					}
				},
				{
					"sampler":38,
					"target":{
						"node":16,
						"path":"scale"
					}
				},
				{
					"sampler":39,
					"target":{
						"node":15,
						"path":"translation"
					}
				},
				{
					"sampler":40,
					"target":{
						"node":15,
						"path":"rotation"
					}
				},
				{
					"sampler":41,
					"target":{
						"node":15,
						"path":"scale"
					}
				},
				{
					"sampler":42,
					"target":{
						"node":14,
						"path":"translation"
					}
				},
				{
					"sampler":43,
					"target":{
						"node":14,
						"path":"rotation"
					}
				},
				{
					"sampler":44,
					"target":{
						"node":14,
						"path":"scale"
					}
				},
				{
					"sampler":45,
					"target":{
						"node":19,
						"path":"translation"
					}
				},
				{
					"sampler":46,
					"target":{
						"node":19,
						"path":"rotation"
					}
				},
				{
					"sampler":47,
					"target":{
						"node":19,
						"path":"scale"
					}
				},
				{
					"sampler":48,
					"target":{
						"node":18,
						"path":"translation"
					}
				},
				{
					"sampler":49,
					"target":{
						"node":18,
						"path":"rotation"
					}
				},
				{
					"sampler":50,
					"target":{
						"node":18,
						"path":"scale"
					}
				},
				{
					"sampler":51,
					"target":{
						"node":17,
						"path":"translation"
					}
				},
				{
					"sampler":52,
					"target":{
						"node":17,
						"path":"rotation"
					}
				},
				{
					"sampler":53,
					"target":{
						"node":17,
						"path":"scale"
					}
				}
			],
			"name":"Idle",
			"samplers":[
				{
					"input":113,
					"interpolation":"LINEAR",
					"output":114
				},
				{
					"input":115,
					"interpolation":"STEP",
					"output":73
				},
				{
					"input":115,
					"interpolation":"STEP",
					"output":26
				},
				{
					"input":115,
					"interpolation":"STEP",
					"output":24
				},
				{
					"input":113,
					"interpolation":"LINEAR",
					"output":116
				},
				{
					"input":115,
					"interpolation":"STEP",
					"output":26
				},
				{
					"input":115,
					"interpolation":"STEP",
					"output":75
				},
				{
					"input":113,
					"interpolation":"LINEAR",
					"output":117
				},
				{
					"input":115,
					"interpolation":"STEP",
					"output":26
				},
				{
					"input":115,
					"interpolation":"STEP",
					"output":77
				},
				{
					"input":115,
					"interpolation":"STEP",
					"output":78
				},
				{
					"input":115,
					"interpolation":"STEP",
					"output":64
				},
				{
					"input":115,
					"interpolation":"STEP",
					"output":79
				},
				{
					"input":113,
					"interpolation":"LINEAR",
					"output":118
				},
				{
					"input":115,
					"interpolation":"STEP",
					"output":26
				},
				{
					"input":115,
					"interpolation":"STEP",
					"output":119
				},
				{
					"input":115,
					"interpolation":"STEP",
					"output":82
				},
				{
					"input":115,
					"interpolation":"STEP",
					"output":45
				},
				{
					"input":115,
					"interpolation":"STEP",
					"output":83
				},
				{
					"input":115,
					"interpolation":"STEP",
					"output":120
				},
				{
					"input":115,
					"interpolation":"STEP",
					"output":121
				},
				{
					"input":115,
					"interpolation":"STEP",
					"output":122
				},
				{
					"input":113,
					"interpolation":"LINEAR",
					"output":123
				},
				{
					"input":115,
					"interpolation":"STEP",
					"output":124
				},
				{
					"input":115,
					"interpolation":"STEP",
					"output":125
				},
				{
					"input":115,
					"interpolation":"STEP",
					"output":126
				},
				{
					"input":115,
					"interpolation":"STEP",
					"output":127
				},
				{
					"input":115,
					"interpolation":"STEP",
					"output":92
				},
				{
					"input":115,
					"interpolation":"STEP",
					"output":128
				},
				{
					"input":115,
					"interpolation":"STEP",
					"output":129
				},
				{
					"input":115,
					"interpolation":"STEP",
					"output":130
				},
				{
					"input":115,
					"interpolation":"STEP",
					"output":131
				},
				{
					"input":115,
					"interpolation":"STEP",
					"output":132
				},
				{
					"input":115,
					"interpolation":"STEP",
					"output":133
				},
				{
					"input":115,
					"interpolation":"STEP",
					"output":134
				},
				{
					"input":115,
					"interpolation":"STEP",
					"output":135
				},
				{
					"input":115,
					"interpolation":"STEP",
					"output":99
				},
				{
					"input":115,
					"interpolation":"STEP",
					"output":136
				},
				{
					"input":115,
					"interpolation":"STEP",
					"output":26
				},
				{
					"input":115,
					"interpolation":"STEP",
					"output":137
				},
				{
					"input":115,
					"interpolation":"STEP",
					"output":138
				},
				{
					"input":115,
					"interpolation":"STEP",
					"output":26
				},
				{
					"input":115,
					"interpolation":"STEP",
					"output":139
				},
				{
					"input":115,
					"interpolation":"STEP",
					"output":140
				},
				{
					"input":115,
					"interpolation":"STEP",
					"output":141
				},
				{
					"input":115,
					"interpolation":"STEP",
					"output":107
				},
				{
					"input":115,
					"interpolation":"STEP",
					"output":142
				},
				{
					"input":115,
					"interpolation":"STEP",
					"output":26
				},
				{
					"input":115,
					"interpolation":"STEP",
					"output":143
				},
				{
					"input":115,
					"interpolation":"STEP",
					"output":144
				},
				{
					"input":115,
					"interpolation":"STEP",
					"output":26
				},
				{
					"input":115,
					"interpolation":"STEP",
					"output":145
				},
				{
					"input":115,
					"interpolation":"STEP",
					"output":146
				},
				{
					"input":115,
					"interpolation":"STEP",
					"output":147
				}
			]
		},
		{
			"channels":[
				{
					"sampler":0,
					"target":{
						"node":20,
						"path":"translation"
					}
				},
				{
					"sampler":1,
					"target":{
						"node":20,
						"path":"rotation"
					}
				},
				{
					"sampler":2,
					"target":{
						"node":20,
						"path":"scale"
					}
				},
				{
					"sampler":3,
					"target":{
						"node":13,
						"path":"translation"
					}
				},
				{
					"sampler":4,
					"target":{
						"node":13,
						"path":"rotation"
					}
				},
				{
					"sampler":5,
					"target":{
						"node":13,
						"path":"scale"
					}
				},
				{
					"sampler":6,
					"target":{
						"node":12,
						"path":"translation"
					}
				},
				{
					"sampler":7,
					"target":{
						"node":12,
						"path":"rotation"
					}
				},
				{
					"sampler":8,
					"target":{
						"node":12,
						"path":"scale"
					}
				},
				{
					"sampler":9,
					"target":{
						"node":2,
						"path":"translation"
					}
				},
				{
					"sampler":10,
					"target":{
						"node":2,
						"path":"rotation"
					}
				},
				{
					"sampler":11,
					"target":{
						"node":2,
						"path":"scale"
					}
				},
				{
					"sampler":12,
					"target":{
						"node":1,
						"path":"translation"
					}
				},
				{
					"sampler":13,
					"target":{
						"node":1,
						"path":"rotation"
					}
				},
				{
					"sampler":14,
					"target":{
						"node":1,
						"path":"scale"
					}
				},
				{
					"sampler":15,
					"target":{
						"node":0,
						"path":"translation"
					}
				},
				{
					"sampler":16,
					"target":{
						"node":0,
						"path":"rotation"
					}
				},
				{
					"sampler":17,
					"target":{
						"node":0,
						"path":"scale"
					}
				},
				{
					"sampler":18,
					"target":{
						"node":5,
						"path":"translation"
					}
				},
				{
					"sampler":19,
					"target":{
						"node":5,
						"path":"rotation"
					}
				},
				{
					"sampler":20,
					"target":{
						"node":5,
						"path":"scale"
					}
				},
				{
					"sampler":21,
					"target":{
						"node":4,
						"path":"translation"
					}
				},
				{
					"sampler":22,
					"target":{
						"node":4,
						"path":"rotation"
					}
				},
				{
					"sampler":23,
					"target":{
						"node":4,
						"path":"scale"
					}
				},
				{
					"sampler":24,
					"target":{
						"node":3,
						"path":"translation"
					}
				},
				{
					"sampler":25,
					"target":{
						"node":3,
						"path":"rotation"
					}
				},
				{
					"sampler":26,
					"target":{
						"node":3,
						"path":"scale"
					}
				},
				{
					"sampler":27,
					"target":{
						"node":9,
						"path":"translation"
					}
				},
				{
					"sampler":28,
					"target":{
						"node":9,
						"path":"rotation"
					}
				},
				{
					"sampler":29,
					"target":{
						"node":9,
						"path":"scale"
					}
				},
				{
					"sampler":30,
					"target":{
						"node":8,
						"path":"translation"
					}
				},
				{
					"sampler":31,
					"target":{
						"node":8,
						"path":"rotation"
					}
				},
				{
					"sampler":32,
					"target":{
						"node":8,
						"path":"scale"
					}
				},
				{
					"sampler":33,
					"target":{
						"node":7,
						"path":"translation"
					}
				},
				{
					"sampler":34,
					"target":{
						"node":7,
						"path":"rotation"
					}
				},
				{
					"sampler":35,
					"target":{
						"node":7,
						"path":"scale"
					}
				},
				{
					"sampler":36,
					"target":{
						"node":16,
						"path":"translation"
					}
				},
				{
					"sampler":37,
					"target":{
						"node":16,
						"path":"rotation"
					}
				},
				{
					"sampler":38,
					"target":{
						"node":16,
						"path":"scale"
					}
				},
				{
					"sampler":39,
					"target":{
						"node":15,
						"path":"translation"
					}
				},
				{
					"sampler":40,
					"target":{
						"node":15,
						"path":"rotation"
					}
				},
				{
					"sampler":41,
					"target":{
						"node":15,
						"path":"scale"
					}
				},
				{
					"sampler":42,
					"target":{
						"node":14,
						"path":"translation"
					}
				},
				{
					"sampler":43,
					"target":{
						"node":14,
						"path":"rotation"
					}
				},
				{
					"sampler":44,
					"target":{
						"node":14,
						"path":"scale"
					}
				},
				{
					"sampler":45,
					"target":{
						"node":19,
						"path":"translation"
					}
				},
				{
					"sampler":46,
					"target":{
						"node":19,
						"path":"rotation"
					}
				},
				{
					"sampler":47,
					"target":{
						"node":19,
						"path":"scale"
					}
				},
				{
					"sampler":48,
					"target":{
						"node":18,
						"path":"translation"
					}
				},
				{
					"sampler":49,
					"target":{
						"node":18,
						"path":"rotation"
					}
				},
				{
					"sampler":50,
					"target":{
						"node":18,
						"path":"scale"
					}
				},
				{
					"sampler":51,
					"target":{
						"node":17,
						"path":"translation"
					}
				},
				{
					"sampler":52,
					"target":{
						"node":17,
						"path":"rotation"
					}
				},
				{
					"sampler":53,
					"target":{
						"node":17,
						"path":"scale"
					}
				}
			],
			"name":"Laufen",
			"samplers":[
				{
					"input":148,
					"interpolation":"LINEAR",
					"output":149
				},
				{
					"input":148,
					"interpolation":"LINEAR",
					"output":150
				},
				{
					"input":151,
					"interpolation":"STEP",
					"output":26
				},
				{
					"input":151,
					"interpolation":"STEP",
					"output":24
				},
				{
					"input":151,
					"interpolation":"STEP",
					"output":152
				},
				{
					"input":151,
					"interpolation":"STEP",
					"output":26
				},
				{
					"input":151,
					"interpolation":"STEP",
					"output":153
				},
				{
					"input":148,
					"interpolation":"LINEAR",
					"output":154
				},
				{
					"input":151,
					"interpolation":"STEP",
					"output":26
				},
				{
					"input":151,
					"interpolation":"STEP",
					"output":155
				},
				{
					"input":151,
					"interpolation":"STEP",
					"output":156
				},
				{
					"input":151,
					"interpolation":"STEP",
					"output":157
				},
				{
					"input":151,
					"interpolation":"STEP",
					"output":158
				},
				{
					"input":148,
					"interpolation":"LINEAR",
					"output":159
				},
				{
					"input":151,
					"interpolation":"STEP",
					"output":26
				},
				{
					"input":151,
					"interpolation":"STEP",
					"output":160
				},
				{
					"input":148,
					"interpolation":"LINEAR",
					"output":161
				},
				{
					"input":151,
					"interpolation":"STEP",
					"output":157
				},
				{
					"input":151,
					"interpolation":"STEP",
					"output":162
				},
				{
					"input":148,
					"interpolation":"LINEAR",
					"output":163
				},
				{
					"input":151,
					"interpolation":"STEP",
					"output":164
				},
				{
					"input":151,
					"interpolation":"STEP",
					"output":165
				},
				{
					"input":148,
					"interpolation":"LINEAR",
					"output":166
				},
				{
					"input":151,
					"interpolation":"STEP",
					"output":167
				},
				{
					"input":151,
					"interpolation":"STEP",
					"output":168
				},
				{
					"input":151,
					"interpolation":"STEP",
					"output":169
				},
				{
					"input":151,
					"interpolation":"STEP",
					"output":157
				},
				{
					"input":151,
					"interpolation":"STEP",
					"output":170
				},
				{
					"input":148,
					"interpolation":"LINEAR",
					"output":171
				},
				{
					"input":151,
					"interpolation":"STEP",
					"output":164
				},
				{
					"input":151,
					"interpolation":"STEP",
					"output":172
				},
				{
					"input":151,
					"interpolation":"STEP",
					"output":173
				},
				{
					"input":151,
					"interpolation":"STEP",
					"output":174
				},
				{
					"input":151,
					"interpolation":"STEP",
					"output":175
				},
				{
					"input":151,
					"interpolation":"STEP",
					"output":176
				},
				{
					"input":151,
					"interpolation":"STEP",
					"output":177
				},
				{
					"input":151,
					"interpolation":"STEP",
					"output":178
				},
				{
					"input":148,
					"interpolation":"LINEAR",
					"output":179
				},
				{
					"input":151,
					"interpolation":"STEP",
					"output":26
				},
				{
					"input":151,
					"interpolation":"STEP",
					"output":180
				},
				{
					"input":148,
					"interpolation":"LINEAR",
					"output":181
				},
				{
					"input":151,
					"interpolation":"STEP",
					"output":26
				},
				{
					"input":151,
					"interpolation":"STEP",
					"output":182
				},
				{
					"input":148,
					"interpolation":"LINEAR",
					"output":183
				},
				{
					"input":151,
					"interpolation":"STEP",
					"output":141
				},
				{
					"input":151,
					"interpolation":"STEP",
					"output":184
				},
				{
					"input":148,
					"interpolation":"LINEAR",
					"output":185
				},
				{
					"input":151,
					"interpolation":"STEP",
					"output":26
				},
				{
					"input":151,
					"interpolation":"STEP",
					"output":186
				},
				{
					"input":148,
					"interpolation":"LINEAR",
					"output":187
				},
				{
					"input":151,
					"interpolation":"STEP",
					"output":26
				},
				{
					"input":151,
					"interpolation":"STEP",
					"output":188
				},
				{
					"input":148,
					"interpolation":"LINEAR",
					"output":189
				},
				{
					"input":151,
					"interpolation":"STEP",
					"output":147
				}
			]
		},
		{
			"channels":[
				{
					"sampler":0,
					"target":{
						"node":20,
						"path":"translation"
					}
				},
				{
					"sampler":1,
					"target":{
						"node":20,
						"path":"rotation"
					}
				},
				{
					"sampler":2,
					"target":{
						"node":20,
						"path":"scale"
					}
				},
				{
					"sampler":3,
					"target":{
						"node":13,
						"path":"translation"
					}
				},
				{
					"sampler":4,
					"target":{
						"node":13,
						"path":"rotation"
					}
				},
				{
					"sampler":5,
					"target":{
						"node":13,
						"path":"scale"
					}
				},
				{
					"sampler":6,
					"target":{
						"node":12,
						"path":"translation"
					}
				},
				{
					"sampler":7,
					"target":{
						"node":12,
						"path":"rotation"
					}
				},
				{
					"sampler":8,
					"target":{
						"node":12,
						"path":"scale"
					}
				},
				{
					"sampler":9,
					"target":{
						"node":2,
						"path":"translation"
					}
				},
				{
					"sampler":10,
					"target":{
						"node":2,
						"path":"rotation"
					}
				},
				{
					"sampler":11,
					"target":{
						"node":2,
						"path":"scale"
					}
				},
				{
					"sampler":12,
					"target":{
						"node":1,
						"path":"translation"
					}
				},
				{
					"sampler":13,
					"target":{
						"node":1,
						"path":"rotation"
					}
				},
				{
					"sampler":14,
					"target":{
						"node":1,
						"path":"scale"
					}
				},
				{
					"sampler":15,
					"target":{
						"node":0,
						"path":"translation"
					}
				},
				{
					"sampler":16,
					"target":{
						"node":0,
						"path":"rotation"
					}
				},
				{
					"sampler":17,
					"target":{
						"node":0,
						"path":"scale"
					}
				},
				{
					"sampler":18,
					"target":{
						"node":5,
						"path":"translation"
					}
				},
				{
					"sampler":19,
					"target":{
						"node":5,
						"path":"rotation"
					}
				},
				{
					"sampler":20,
					"target":{
						"node":5,
						"path":"scale"
					}
				},
				{
					"sampler":21,
					"target":{
						"node":4,
						"path":"translation"
					}
				},
				{
					"sampler":22,
					"target":{
						"node":4,
						"path":"rotation"
					}
				},
				{
					"sampler":23,
					"target":{
						"node":4,
						"path":"scale"
					}
				},
				{
					"sampler":24,
					"target":{
						"node":3,
						"path":"translation"
					}
				},
				{
					"sampler":25,
					"target":{
						"node":3,
						"path":"rotation"
					}
				},
				{
					"sampler":26,
					"target":{
						"node":3,
						"path":"scale"
					}
				},
				{
					"sampler":27,
					"target":{
						"node":9,
						"path":"translation"
					}
				},
				{
					"sampler":28,
					"target":{
						"node":9,
						"path":"rotation"
					}
				},
				{
					"sampler":29,
					"target":{
						"node":9,
						"path":"scale"
					}
				},
				{
					"sampler":30,
					"target":{
						"node":8,
						"path":"translation"
					}
				},
				{
					"sampler":31,
					"target":{
						"node":8,
						"path":"rotation"
					}
				},
				{
					"sampler":32,
					"target":{
						"node":8,
						"path":"scale"
					}
				},
				{
					"sampler":33,
					"target":{
						"node":7,
						"path":"translation"
					}
				},
				{
					"sampler":34,
					"target":{
						"node":7,
						"path":"rotation"
					}
				},
				{
					"sampler":35,
					"target":{
						"node":7,
						"path":"scale"
					}
				},
				{
					"sampler":36,
					"target":{
						"node":16,
						"path":"translation"
					}
				},
				{
					"sampler":37,
					"target":{
						"node":16,
						"path":"rotation"
					}
				},
				{
					"sampler":38,
					"target":{
						"node":16,
						"path":"scale"
					}
				},
				{
					"sampler":39,
					"target":{
						"node":15,
						"path":"translation"
					}
				},
				{
					"sampler":40,
					"target":{
						"node":15,
						"path":"rotation"
					}
				},
				{
					"sampler":41,
					"target":{
						"node":15,
						"path":"scale"
					}
				},
				{
					"sampler":42,
					"target":{
						"node":14,
						"path":"translation"
					}
				},
				{
					"sampler":43,
					"target":{
						"node":14,
						"path":"rotation"
					}
				},
				{
					"sampler":44,
					"target":{
						"node":14,
						"path":"scale"
					}
				},
				{
					"sampler":45,
					"target":{
						"node":19,
						"path":"translation"
					}
				},
				{
					"sampler":46,
					"target":{
						"node":19,
						"path":"rotation"
					}
				},
				{
					"sampler":47,
					"target":{
						"node":19,
						"path":"scale"
					}
				},
				{
					"sampler":48,
					"target":{
						"node":18,
						"path":"translation"
					}
				},
				{
					"sampler":49,
					"target":{
						"node":18,
						"path":"rotation"
					}
				},
				{
					"sampler":50,
					"target":{
						"node":18,
						"path":"scale"
					}
				},
				{
					"sampler":51,
					"target":{
						"node":17,
						"path":"translation"
					}
				},
				{
					"sampler":52,
					"target":{
						"node":17,
						"path":"rotation"
					}
				},
				{
					"sampler":53,
					"target":{
						"node":17,
						"path":"scale"
					}
				}
			],
			"name":"Tragen",
			"samplers":[
				{
					"input":19,
					"interpolation":"LINEAR",
					"output":190
				},
				{
					"input":19,
					"interpolation":"LINEAR",
					"output":191
				},
				{
					"input":22,
					"interpolation":"STEP",
					"output":26
				},
				{
					"input":22,
					"interpolation":"STEP",
					"output":24
				},
				{
					"input":22,
					"interpolation":"STEP",
					"output":192
				},
				{
					"input":22,
					"interpolation":"STEP",
					"output":26
				},
				{
					"input":22,
					"interpolation":"STEP",
					"output":193
				},
				{
					"input":19,
					"interpolation":"LINEAR",
					"output":194
				},
				{
					"input":22,
					"interpolation":"STEP",
					"output":26
				},
				{
					"input":22,
					"interpolation":"STEP",
					"output":195
				},
				{
					"input":22,
					"interpolation":"STEP",
					"output":196
				},
				{
					"input":22,
					"interpolation":"STEP",
					"output":26
				},
				{
					"input":22,
					"interpolation":"STEP",
					"output":197
				},
				{
					"input":19,
					"interpolation":"LINEAR",
					"output":198
				},
				{
					"input":22,
					"interpolation":"STEP",
					"output":157
				},
				{
					"input":22,
					"interpolation":"STEP",
					"output":199
				},
				{
					"input":19,
					"interpolation":"LINEAR",
					"output":200
				},
				{
					"input":22,
					"interpolation":"STEP",
					"output":64
				},
				{
					"input":22,
					"interpolation":"STEP",
					"output":201
				},
				{
					"input":22,
					"interpolation":"STEP",
					"output":202
				},
				{
					"input":22,
					"interpolation":"STEP",
					"output":203
				},
				{
					"input":22,
					"interpolation":"STEP",
					"output":204
				},
				{
					"input":22,
					"interpolation":"STEP",
					"output":205
				},
				{
					"input":22,
					"interpolation":"STEP",
					"output":174
				},
				{
					"input":22,
					"interpolation":"STEP",
					"output":206
				},
				{
					"input":22,
					"interpolation":"STEP",
					"output":207
				},
				{
					"input":22,
					"interpolation":"STEP",
					"output":127
				},
				{
					"input":22,
					"interpolation":"STEP",
					"output":208
				},
				{
					"input":19,
					"interpolation":"LINEAR",
					"output":209
				},
				{
					"input":22,
					"interpolation":"STEP",
					"output":48
				},
				{
					"input":22,
					"interpolation":"STEP",
					"output":210
				},
				{
					"input":22,
					"interpolation":"STEP",
					"output":211
				},
				{
					"input":22,
					"interpolation":"STEP",
					"output":26
				},
				{
					"input":22,
					"interpolation":"STEP",
					"output":212
				},
				{
					"input":22,
					"interpolation":"STEP",
					"output":213
				},
				{
					"input":22,
					"interpolation":"STEP",
					"output":157
				},
				{
					"input":22,
					"interpolation":"STEP",
					"output":178
				},
				{
					"input":19,
					"interpolation":"LINEAR",
					"output":214
				},
				{
					"input":22,
					"interpolation":"STEP",
					"output":26
				},
				{
					"input":22,
					"interpolation":"STEP",
					"output":215
				},
				{
					"input":19,
					"interpolation":"LINEAR",
					"output":216
				},
				{
					"input":22,
					"interpolation":"STEP",
					"output":26
				},
				{
					"input":22,
					"interpolation":"STEP",
					"output":217
				},
				{
					"input":19,
					"interpolation":"LINEAR",
					"output":218
				},
				{
					"input":22,
					"interpolation":"STEP",
					"output":141
				},
				{
					"input":22,
					"interpolation":"STEP",
					"output":184
				},
				{
					"input":19,
					"interpolation":"LINEAR",
					"output":219
				},
				{
					"input":22,
					"interpolation":"STEP",
					"output":26
				},
				{
					"input":22,
					"interpolation":"STEP",
					"output":220
				},
				{
					"input":19,
					"interpolation":"LINEAR",
					"output":221
				},
				{
					"input":22,
					"interpolation":"STEP",
					"output":157
				},
				{
					"input":22,
					"interpolation":"STEP",
					"output":222
				},
				{
					"input":19,
					"interpolation":"LINEAR",
					"output":223
				},
				{
					"input":22,
					"interpolation":"STEP",
					"output":141
				}
			]
		}
	],
	"materials":[
		{
			"doubleSided":true,
			"name":"Holzarbeiter",
			"pbrMetallicRoughness":{
				"metallicFactor":0,
				"roughnessFactor":0.8500000238418579
			}
		}
	],
	"meshes":[
		{
			"name":"Hose",
			"primitives":[
				{
					"attributes":{
						"POSITION":0,
						"NORMAL":1,
						"COLOR_0":2,
						"JOINTS_0":3,
						"WEIGHTS_0":4
					},
					"indices":5,
					"material":0
				}
			]
		},
		{
			"name":"Werkzeug",
			"primitives":[
				{
					"attributes":{
						"POSITION":7,
						"NORMAL":8,
						"COLOR_0":9
					},
					"indices":10,
					"material":0
				}
			]
		},
		{
			"name":"Last",
			"primitives":[
				{
					"attributes":{
						"POSITION":11,
						"NORMAL":12,
						"COLOR_0":13
					},
					"indices":14,
					"material":0
				}
			]
		},
		{
			"name":"Werkzeug_Ruecken",
			"primitives":[
				{
					"attributes":{
						"POSITION":15,
						"NORMAL":16,
						"COLOR_0":17
					},
					"indices":18,
					"material":0
				}
			]
		}
	],
	"skins":[
		{
			"inverseBindMatrices":6,
			"joints":[
				20,
				13,
				12,
				2,
				1,
				0,
				5,
				4,
				3,
				9,
				8,
				7,
				16,
				15,
				14,
				19,
				18,
				17
			],
			"name":"HolzarbeiterSkelett"
		}
	],
	"accessors":[
		{
			"bufferView":0,
			"componentType":5126,
			"count":54904,
			"max":[
				0.3878943920135498,
				1.9169999361038208,
				0.17499999701976776
			],
			"min":[
				-0.36835935711860657,
				-0.009999999776482582,
				-0.14519615471363068
			],
			"type":"VEC3"
		},
		{
			"bufferView":1,
			"componentType":5126,
			"count":54904,
			"type":"VEC3"
		},
		{
			"bufferView":2,
			"componentType":5126,
			"count":54904,
			"type":"VEC3"
		},
		{
			"bufferView":3,
			"componentType":5121,
			"count":54904,
			"type":"VEC4"
		},
		{
			"bufferView":4,
			"componentType":5126,
			"count":54904,
			"type":"VEC4"
		},
		{
			"bufferView":5,
			"componentType":5123,
			"count":72486,
			"type":"SCALAR"
		},
		{
			"bufferView":6,
			"componentType":5126,
			"count":18,
			"type":"MAT4"
		},
		{
			"bufferView":7,
			"componentType":5126,
			"count":1344,
			"max":[
				-0.217692568898201,
				0.9750000238418579,
				0.2208782583475113
			],
			"min":[
				-0.3764818608760834,
				0.05000000447034836,
				-0.002167893573641777
			],
			"type":"VEC3"
		},
		{
			"bufferView":8,
			"componentType":5126,
			"count":1344,
			"type":"VEC3"
		},
		{
			"bufferView":9,
			"componentType":5126,
			"count":1344,
			"type":"VEC3"
		},
		{
			"bufferView":10,
			"componentType":5123,
			"count":1998,
			"type":"SCALAR"
		},
		{
			"bufferView":11,
			"componentType":5126,
			"count":2152,
			"max":[
				0.4044022858142853,
				1.750799536705017,
				0.5830000638961792
			],
			"min":[
				0.1263745129108429,
				1.492337703704834,
				-0.8730000853538513
			],
			"type":"VEC3"
		},
		{
			"bufferView":12,
			"componentType":5126,
			"count":2152,
			"type":"VEC3"
		},
		{
			"bufferView":13,
			"componentType":5126,
			"count":2152,
			"type":"VEC3"
		},
		{
			"bufferView":14,
			"componentType":5123,
			"count":3174,
			"type":"SCALAR"
		},
		{
			"bufferView":15,
			"componentType":5126,
			"count":1344,
			"max":[
				0.22496189177036285,
				1.632277488708496,
				-0.10385257005691528
			],
			"min":[
				-0.2812000513076782,
				0.8150818943977356,
				-0.2929818034172058
			],
			"type":"VEC3"
		},
		{
			"bufferView":16,
			"componentType":5126,
			"count":1344,
			"type":"VEC3"
		},
		{
			"bufferView":17,
			"componentType":5126,
			"count":1344,
			"type":"VEC3"
		},
		{
			"bufferView":18,
			"componentType":5123,
			"count":1998,
			"type":"SCALAR"
		},
		{
			"bufferView":19,
			"componentType":5126,
			"count":37,
			"max":[
				1.2
			],
			"min":[
				0
			],
			"type":"SCALAR"
		},
		{
			"bufferView":20,
			"componentType":5126,
			"count":37,
			"type":"VEC3"
		},
		{
			"bufferView":21,
			"componentType":5126,
			"count":37,
			"type":"VEC4"
		},
		{
			"bufferView":22,
			"componentType":5126,
			"count":2,
			"max":[
				1.2
			],
			"min":[
				0
			],
			"type":"SCALAR"
		},
		{
			"bufferView":23,
			"componentType":5126,
			"count":2,
			"type":"VEC3"
		},
		{
			"bufferView":24,
			"componentType":5126,
			"count":2,
			"type":"VEC3"
		},
		{
			"bufferView":25,
			"componentType":5126,
			"count":37,
			"type":"VEC4"
		},
		{
			"bufferView":26,
			"componentType":5126,
			"count":2,
			"type":"VEC3"
		},
		{
			"bufferView":27,
			"componentType":5126,
			"count":2,
			"type":"VEC3"
		},
		{
			"bufferView":28,
			"componentType":5126,
			"count":37,
			"type":"VEC4"
		},
		{
			"bufferView":29,
			"componentType":5126,
			"count":2,
			"type":"VEC3"
		},
		{
			"bufferView":30,
			"componentType":5126,
			"count":2,
			"type":"VEC3"
		},
		{
			"bufferView":31,
			"componentType":5126,
			"count":2,
			"type":"VEC4"
		},
		{
			"bufferView":32,
			"componentType":5126,
			"count":2,
			"type":"VEC3"
		},
		{
			"bufferView":33,
			"componentType":5126,
			"count":2,
			"type":"VEC3"
		},
		{
			"bufferView":34,
			"componentType":5126,
			"count":37,
			"type":"VEC4"
		},
		{
			"bufferView":35,
			"componentType":5126,
			"count":2,
			"type":"VEC3"
		},
		{
			"bufferView":36,
			"componentType":5126,
			"count":2,
			"type":"VEC4"
		},
		{
			"bufferView":37,
			"componentType":5126,
			"count":2,
			"type":"VEC3"
		},
		{
			"bufferView":38,
			"componentType":5126,
			"count":37,
			"type":"VEC4"
		},
		{
			"bufferView":39,
			"componentType":5126,
			"count":2,
			"type":"VEC3"
		},
		{
			"bufferView":40,
			"componentType":5126,
			"count":2,
			"type":"VEC3"
		},
		{
			"bufferView":41,
			"componentType":5126,
			"count":2,
			"type":"VEC4"
		},
		{
			"bufferView":42,
			"componentType":5126,
			"count":2,
			"type":"VEC3"
		},
		{
			"bufferView":43,
			"componentType":5126,
			"count":2,
			"type":"VEC3"
		},
		{
			"bufferView":44,
			"componentType":5126,
			"count":2,
			"type":"VEC4"
		},
		{
			"bufferView":45,
			"componentType":5126,
			"count":2,
			"type":"VEC3"
		},
		{
			"bufferView":46,
			"componentType":5126,
			"count":2,
			"type":"VEC3"
		},
		{
			"bufferView":47,
			"componentType":5126,
			"count":37,
			"type":"VEC4"
		},
		{
			"bufferView":48,
			"componentType":5126,
			"count":2,
			"type":"VEC3"
		},
		{
			"bufferView":49,
			"componentType":5126,
			"count":2,
			"type":"VEC3"
		},
		{
			"bufferView":50,
			"componentType":5126,
			"count":37,
			"type":"VEC4"
		},
		{
			"bufferView":51,
			"componentType":5126,
			"count":2,
			"type":"VEC3"
		},
		{
			"bufferView":52,
			"componentType":5126,
			"count":2,
			"type":"VEC3"
		},
		{
			"bufferView":53,
			"componentType":5126,
			"count":37,
			"type":"VEC4"
		},
		{
			"bufferView":54,
			"componentType":5126,
			"count":2,
			"type":"VEC3"
		},
		{
			"bufferView":55,
			"componentType":5126,
			"count":2,
			"type":"VEC3"
		},
		{
			"bufferView":56,
			"componentType":5126,
			"count":2,
			"type":"VEC4"
		},
		{
			"bufferView":57,
			"componentType":5126,
			"count":2,
			"type":"VEC3"
		},
		{
			"bufferView":58,
			"componentType":5126,
			"count":2,
			"type":"VEC4"
		},
		{
			"bufferView":59,
			"componentType":5126,
			"count":2,
			"type":"VEC3"
		},
		{
			"bufferView":60,
			"componentType":5126,
			"count":2,
			"type":"VEC4"
		},
		{
			"bufferView":61,
			"componentType":5126,
			"count":2,
			"type":"VEC3"
		},
		{
			"bufferView":62,
			"componentType":5126,
			"count":2,
			"type":"VEC3"
		},
		{
			"bufferView":63,
			"componentType":5126,
			"count":2,
			"type":"VEC4"
		},
		{
			"bufferView":64,
			"componentType":5126,
			"count":2,
			"type":"VEC3"
		},
		{
			"bufferView":65,
			"componentType":5126,
			"count":2,
			"type":"VEC3"
		},
		{
			"bufferView":66,
			"componentType":5126,
			"count":2,
			"type":"VEC4"
		},
		{
			"bufferView":67,
			"componentType":5126,
			"count":2,
			"type":"VEC3"
		},
		{
			"bufferView":68,
			"componentType":5126,
			"count":2,
			"type":"VEC3"
		},
		{
			"bufferView":69,
			"componentType":5126,
			"count":2,
			"type":"VEC4"
		},
		{
			"bufferView":70,
			"componentType":5126,
			"count":41,
			"max":[
				1.3333333333333333
			],
			"min":[
				0
			],
			"type":"SCALAR"
		},
		{
			"bufferView":71,
			"componentType":5126,
			"count":41,
			"type":"VEC3"
		},
		{
			"bufferView":72,
			"componentType":5126,
			"count":2,
			"max":[
				1.3333333333333333
			],
			"min":[
				0
			],
			"type":"SCALAR"
		},
		{
			"bufferView":73,
			"componentType":5126,
			"count":2,
			"type":"VEC4"
		},
		{
			"bufferView":74,
			"componentType":5126,
			"count":41,
			"type":"VEC4"
		},
		{
			"bufferView":75,
			"componentType":5126,
			"count":2,
			"type":"VEC3"
		},
		{
			"bufferView":76,
			"componentType":5126,
			"count":41,
			"type":"VEC4"
		},
		{
			"bufferView":77,
			"componentType":5126,
			"count":2,
			"type":"VEC3"
		},
		{
			"bufferView":78,
			"componentType":5126,
			"count":2,
			"type":"VEC4"
		},
		{
			"bufferView":79,
			"componentType":5126,
			"count":2,
			"type":"VEC3"
		},
		{
			"bufferView":80,
			"componentType":5126,
			"count":41,
			"type":"VEC4"
		},
		{
			"bufferView":81,
			"componentType":5126,
			"count":2,
			"type":"VEC3"
		},
		{
			"bufferView":82,
			"componentType":5126,
			"count":2,
			"type":"VEC4"
		},
		{
			"bufferView":83,
			"componentType":5126,
			"count":2,
			"type":"VEC3"
		},
		{
			"bufferView":84,
			"componentType":5126,
			"count":41,
			"type":"VEC4"
		},
		{
			"bufferView":85,
			"componentType":5126,
			"count":2,
			"type":"VEC3"
		},
		{
			"bufferView":86,
			"componentType":5126,
			"count":2,
			"type":"VEC3"
		},
		{
			"bufferView":87,
			"componentType":5126,
			"count":41,
			"type":"VEC4"
		},
		{
			"bufferView":88,
			"componentType":5126,
			"count":2,
			"type":"VEC3"
		},
		{
			"bufferView":89,
			"componentType":5126,
			"count":2,
			"type":"VEC3"
		},
		{
			"bufferView":90,
			"componentType":5126,
			"count":2,
			"type":"VEC4"
		},
		{
			"bufferView":91,
			"componentType":5126,
			"count":2,
			"type":"VEC3"
		},
		{
			"bufferView":92,
			"componentType":5126,
			"count":2,
			"type":"VEC3"
		},
		{
			"bufferView":93,
			"componentType":5126,
			"count":41,
			"type":"VEC4"
		},
		{
			"bufferView":94,
			"componentType":5126,
			"count":2,
			"type":"VEC3"
		},
		{
			"bufferView":95,
			"componentType":5126,
			"count":2,
			"type":"VEC3"
		},
		{
			"bufferView":96,
			"componentType":5126,
			"count":41,
			"type":"VEC4"
		},
		{
			"bufferView":97,
			"componentType":5126,
			"count":2,
			"type":"VEC3"
		},
		{
			"bufferView":98,
			"componentType":5126,
			"count":2,
			"type":"VEC4"
		},
		{
			"bufferView":99,
			"componentType":5126,
			"count":2,
			"type":"VEC3"
		},
		{
			"bufferView":100,
			"componentType":5126,
			"count":41,
			"type":"VEC4"
		},
		{
			"bufferView":101,
			"componentType":5126,
			"count":2,
			"type":"VEC3"
		},
		{
			"bufferView":102,
			"componentType":5126,
			"count":41,
			"type":"VEC4"
		},
		{
			"bufferView":103,
			"componentType":5126,
			"count":2,
			"type":"VEC3"
		},
		{
			"bufferView":104,
			"componentType":5126,
			"count":2,
			"type":"VEC3"
		},
		{
			"bufferView":105,
			"componentType":5126,
			"count":41,
			"type":"VEC4"
		},
		{
			"bufferView":106,
			"componentType":5126,
			"count":2,
			"type":"VEC3"
		},
		{
			"bufferView":107,
			"componentType":5126,
			"count":2,
			"type":"VEC3"
		},
		{
			"bufferView":108,
			"componentType":5126,
			"count":41,
			"type":"VEC4"
		},
		{
			"bufferView":109,
			"componentType":5126,
			"count":2,
			"type":"VEC3"
		},
		{
			"bufferView":110,
			"componentType":5126,
			"count":41,
			"type":"VEC4"
		},
		{
			"bufferView":111,
			"componentType":5126,
			"count":2,
			"type":"VEC3"
		},
		{
			"bufferView":112,
			"componentType":5126,
			"count":41,
			"type":"VEC4"
		},
		{
			"bufferView":113,
			"componentType":5126,
			"count":181,
			"max":[
				6
			],
			"min":[
				0
			],
			"type":"SCALAR"
		},
		{
			"bufferView":114,
			"componentType":5126,
			"count":181,
			"type":"VEC3"
		},
		{
			"bufferView":115,
			"componentType":5126,
			"count":2,
			"max":[
				6
			],
			"min":[
				0
			],
			"type":"SCALAR"
		},
		{
			"bufferView":116,
			"componentType":5126,
			"count":181,
			"type":"VEC4"
		},
		{
			"bufferView":117,
			"componentType":5126,
			"count":181,
			"type":"VEC4"
		},
		{
			"bufferView":118,
			"componentType":5126,
			"count":181,
			"type":"VEC4"
		},
		{
			"bufferView":119,
			"componentType":5126,
			"count":2,
			"type":"VEC3"
		},
		{
			"bufferView":120,
			"componentType":5126,
			"count":2,
			"type":"VEC4"
		},
		{
			"bufferView":121,
			"componentType":5126,
			"count":2,
			"type":"VEC3"
		},
		{
			"bufferView":122,
			"componentType":5126,
			"count":2,
			"type":"VEC3"
		},
		{
			"bufferView":123,
			"componentType":5126,
			"count":181,
			"type":"VEC4"
		},
		{
			"bufferView":124,
			"componentType":5126,
			"count":2,
			"type":"VEC3"
		},
		{
			"bufferView":125,
			"componentType":5126,
			"count":2,
			"type":"VEC3"
		},
		{
			"bufferView":126,
			"componentType":5126,
			"count":2,
			"type":"VEC4"
		},
		{
			"bufferView":127,
			"componentType":5126,
			"count":2,
			"type":"VEC3"
		},
		{
			"bufferView":128,
			"componentType":5126,
			"count":2,
			"type":"VEC4"
		},
		{
			"bufferView":129,
			"componentType":5126,
			"count":2,
			"type":"VEC3"
		},
		{
			"bufferView":130,
			"componentType":5126,
			"count":2,
			"type":"VEC3"
		},
		{
			"bufferView":131,
			"componentType":5126,
			"count":2,
			"type":"VEC4"
		},
		{
			"bufferView":132,
			"componentType":5126,
			"count":2,
			"type":"VEC3"
		},
		{
			"bufferView":133,
			"componentType":5126,
			"count":2,
			"type":"VEC3"
		},
		{
			"bufferView":134,
			"componentType":5126,
			"count":2,
			"type":"VEC4"
		},
		{
			"bufferView":135,
			"componentType":5126,
			"count":2,
			"type":"VEC3"
		},
		{
			"bufferView":136,
			"componentType":5126,
			"count":2,
			"type":"VEC4"
		},
		{
			"bufferView":137,
			"componentType":5126,
			"count":2,
			"type":"VEC3"
		},
		{
			"bufferView":138,
			"componentType":5126,
			"count":2,
			"type":"VEC4"
		},
		{
			"bufferView":139,
			"componentType":5126,
			"count":2,
			"type":"VEC3"
		},
		{
			"bufferView":140,
			"componentType":5126,
			"count":2,
			"type":"VEC4"
		},
		{
			"bufferView":141,
			"componentType":5126,
			"count":2,
			"type":"VEC3"
		},
		{
			"bufferView":142,
			"componentType":5126,
			"count":2,
			"type":"VEC4"
		},
		{
			"bufferView":143,
			"componentType":5126,
			"count":2,
			"type":"VEC3"
		},
		{
			"bufferView":144,
			"componentType":5126,
			"count":2,
			"type":"VEC4"
		},
		{
			"bufferView":145,
			"componentType":5126,
			"count":2,
			"type":"VEC3"
		},
		{
			"bufferView":146,
			"componentType":5126,
			"count":2,
			"type":"VEC4"
		},
		{
			"bufferView":147,
			"componentType":5126,
			"count":2,
			"type":"VEC3"
		},
		{
			"bufferView":148,
			"componentType":5126,
			"count":31,
			"max":[
				1
			],
			"min":[
				0
			],
			"type":"SCALAR"
		},
		{
			"bufferView":149,
			"componentType":5126,
			"count":31,
			"type":"VEC3"
		},
		{
			"bufferView":150,
			"componentType":5126,
			"count":31,
			"type":"VEC4"
		},
		{
			"bufferView":151,
			"componentType":5126,
			"count":2,
			"max":[
				1
			],
			"min":[
				0
			],
			"type":"SCALAR"
		},
		{
			"bufferView":152,
			"componentType":5126,
			"count":2,
			"type":"VEC4"
		},
		{
			"bufferView":153,
			"componentType":5126,
			"count":2,
			"type":"VEC3"
		},
		{
			"bufferView":154,
			"componentType":5126,
			"count":31,
			"type":"VEC4"
		},
		{
			"bufferView":155,
			"componentType":5126,
			"count":2,
			"type":"VEC3"
		},
		{
			"bufferView":156,
			"componentType":5126,
			"count":2,
			"type":"VEC4"
		},
		{
			"bufferView":157,
			"componentType":5126,
			"count":2,
			"type":"VEC3"
		},
		{
			"bufferView":158,
			"componentType":5126,
			"count":2,
			"type":"VEC3"
		},
		{
			"bufferView":159,
			"componentType":5126,
			"count":31,
			"type":"VEC4"
		},
		{
			"bufferView":160,
			"componentType":5126,
			"count":2,
			"type":"VEC3"
		},
		{
			"bufferView":161,
			"componentType":5126,
			"count":31,
			"type":"VEC4"
		},
		{
			"bufferView":162,
			"componentType":5126,
			"count":2,
			"type":"VEC3"
		},
		{
			"bufferView":163,
			"componentType":5126,
			"count":31,
			"type":"VEC4"
		},
		{
			"bufferView":164,
			"componentType":5126,
			"count":2,
			"type":"VEC3"
		},
		{
			"bufferView":165,
			"componentType":5126,
			"count":2,
			"type":"VEC3"
		},
		{
			"bufferView":166,
			"componentType":5126,
			"count":31,
			"type":"VEC4"
		},
		{
			"bufferView":167,
			"componentType":5126,
			"count":2,
			"type":"VEC3"
		},
		{
			"bufferView":168,
			"componentType":5126,
			"count":2,
			"type":"VEC3"
		},
		{
			"bufferView":169,
			"componentType":5126,
			"count":2,
			"type":"VEC4"
		},
		{
			"bufferView":170,
			"componentType":5126,
			"count":2,
			"type":"VEC3"
		},
		{
			"bufferView":171,
			"componentType":5126,
			"count":31,
			"type":"VEC4"
		},
		{
			"bufferView":172,
			"componentType":5126,
			"count":2,
			"type":"VEC3"
		},
		{
			"bufferView":173,
			"componentType":5126,
			"count":2,
			"type":"VEC4"
		},
		{
			"bufferView":174,
			"componentType":5126,
			"count":2,
			"type":"VEC3"
		},
		{
			"bufferView":175,
			"componentType":5126,
			"count":2,
			"type":"VEC3"
		},
		{
			"bufferView":176,
			"componentType":5126,
			"count":2,
			"type":"VEC4"
		},
		{
			"bufferView":177,
			"componentType":5126,
			"count":2,
			"type":"VEC3"
		},
		{
			"bufferView":178,
			"componentType":5126,
			"count":2,
			"type":"VEC3"
		},
		{
			"bufferView":179,
			"componentType":5126,
			"count":31,
			"type":"VEC4"
		},
		{
			"bufferView":180,
			"componentType":5126,
			"count":2,
			"type":"VEC3"
		},
		{
			"bufferView":181,
			"componentType":5126,
			"count":31,
			"type":"VEC4"
		},
		{
			"bufferView":182,
			"componentType":5126,
			"count":2,
			"type":"VEC3"
		},
		{
			"bufferView":183,
			"componentType":5126,
			"count":31,
			"type":"VEC4"
		},
		{
			"bufferView":184,
			"componentType":5126,
			"count":2,
			"type":"VEC3"
		},
		{
			"bufferView":185,
			"componentType":5126,
			"count":31,
			"type":"VEC4"
		},
		{
			"bufferView":186,
			"componentType":5126,
			"count":2,
			"type":"VEC3"
		},
		{
			"bufferView":187,
			"componentType":5126,
			"count":31,
			"type":"VEC4"
		},
		{
			"bufferView":188,
			"componentType":5126,
			"count":2,
			"type":"VEC3"
		},
		{
			"bufferView":189,
			"componentType":5126,
			"count":31,
			"type":"VEC4"
		},
		{
			"bufferView":190,
			"componentType":5126,
			"count":37,
			"type":"VEC3"
		},
		{
			"bufferView":191,
			"componentType":5126,
			"count":37,
			"type":"VEC4"
		},
		{
			"bufferView":192,
			"componentType":5126,
			"count":2,
			"type":"VEC4"
		},
		{
			"bufferView":193,
			"componentType":5126,
			"count":2,
			"type":"VEC3"
		},
		{
			"bufferView":194,
			"componentType":5126,
			"count":37,
			"type":"VEC4"
		},
		{
			"bufferView":195,
			"componentType":5126,
			"count":2,
			"type":"VEC3"
		},
		{
			"bufferView":196,
			"componentType":5126,
			"count":2,
			"type":"VEC4"
		},
		{
			"bufferView":197,
			"componentType":5126,
			"count":2,
			"type":"VEC3"
		},
		{
			"bufferView":198,
			"componentType":5126,
			"count":37,
			"type":"VEC4"
		},
		{
			"bufferView":199,
			"componentType":5126,
			"count":2,
			"type":"VEC3"
		},
		{
			"bufferView":200,
			"componentType":5126,
			"count":37,
			"type":"VEC4"
		},
		{
			"bufferView":201,
			"componentType":5126,
			"count":2,
			"type":"VEC3"
		},
		{
			"bufferView":202,
			"componentType":5126,
			"count":2,
			"type":"VEC4"
		},
		{
			"bufferView":203,
			"componentType":5126,
			"count":2,
			"type":"VEC3"
		},
		{
			"bufferView":204,
			"componentType":5126,
			"count":2,
			"type":"VEC3"
		},
		{
			"bufferView":205,
			"componentType":5126,
			"count":2,
			"type":"VEC4"
		},
		{
			"bufferView":206,
			"componentType":5126,
			"count":2,
			"type":"VEC3"
		},
		{
			"bufferView":207,
			"componentType":5126,
			"count":2,
			"type":"VEC4"
		},
		{
			"bufferView":208,
			"componentType":5126,
			"count":2,
			"type":"VEC3"
		},
		{
			"bufferView":209,
			"componentType":5126,
			"count":37,
			"type":"VEC4"
		},
		{
			"bufferView":210,
			"componentType":5126,
			"count":2,
			"type":"VEC3"
		},
		{
			"bufferView":211,
			"componentType":5126,
			"count":2,
			"type":"VEC4"
		},
		{
			"bufferView":212,
			"componentType":5126,
			"count":2,
			"type":"VEC3"
		},
		{
			"bufferView":213,
			"componentType":5126,
			"count":2,
			"type":"VEC4"
		},
		{
			"bufferView":214,
			"componentType":5126,
			"count":37,
			"type":"VEC4"
		},
		{
			"bufferView":215,
			"componentType":5126,
			"count":2,
			"type":"VEC3"
		},
		{
			"bufferView":216,
			"componentType":5126,
			"count":37,
			"type":"VEC4"
		},
		{
			"bufferView":217,
			"componentType":5126,
			"count":2,
			"type":"VEC3"
		},
		{
			"bufferView":218,
			"componentType":5126,
			"count":37,
			"type":"VEC4"
		},
		{
			"bufferView":219,
			"componentType":5126,
			"count":37,
			"type":"VEC4"
		},
		{
			"bufferView":220,
			"componentType":5126,
			"count":2,
			"type":"VEC3"
		},
		{
			"bufferView":221,
			"componentType":5126,
			"count":37,
			"type":"VEC4"
		},
		{
			"bufferView":222,
			"componentType":5126,
			"count":2,
			"type":"VEC3"
		},
		{
			"bufferView":223,
			"componentType":5126,
			"count":37,
			"type":"VEC4"
		}
	],
	"bufferViews":[
		{
			"buffer":0,
			"byteLength":658848,
			"byteOffset":0,
			"target":34962
		},
		{
			"buffer":0,
			"byteLength":658848,
			"byteOffset":658848,
			"target":34962
		},
		{
			"buffer":0,
			"byteLength":658848,
			"byteOffset":1317696,
			"target":34962
		},
		{
			"buffer":0,
			"byteLength":219616,
			"byteOffset":1976544,
			"target":34962
		},
		{
			"buffer":0,
			"byteLength":878464,
			"byteOffset":2196160,
			"target":34962
		},
		{
			"buffer":0,
			"byteLength":144972,
			"byteOffset":3074624,
			"target":34963
		},
		{
			"buffer":0,
			"byteLength":1152,
			"byteOffset":3219596
		},
		{
			"buffer":0,
			"byteLength":16128,
			"byteOffset":3220748,
			"target":34962
		},
		{
			"buffer":0,
			"byteLength":16128,
			"byteOffset":3236876,
			"target":34962
		},
		{
			"buffer":0,
			"byteLength":16128,
			"byteOffset":3253004,
			"target":34962
		},
		{
			"buffer":0,
			"byteLength":3996,
			"byteOffset":3269132,
			"target":34963
		},
		{
			"buffer":0,
			"byteLength":25824,
			"byteOffset":3273128,
			"target":34962
		},
		{
			"buffer":0,
			"byteLength":25824,
			"byteOffset":3298952,
			"target":34962
		},
		{
			"buffer":0,
			"byteLength":25824,
			"byteOffset":3324776,
			"target":34962
		},
		{
			"buffer":0,
			"byteLength":6348,
			"byteOffset":3350600,
			"target":34963
		},
		{
			"buffer":0,
			"byteLength":16128,
			"byteOffset":3356948,
			"target":34962
		},
		{
			"buffer":0,
			"byteLength":16128,
			"byteOffset":3373076,
			"target":34962
		},
		{
			"buffer":0,
			"byteLength":16128,
			"byteOffset":3389204,
			"target":34962
		},
		{
			"buffer":0,
			"byteLength":3996,
			"byteOffset":3405332,
			"target":34963
		},
		{
			"buffer":0,
			"byteLength":148,
			"byteOffset":3409328
		},
		{
			"buffer":0,
			"byteLength":444,
			"byteOffset":3409476
		},
		{
			"buffer":0,
			"byteLength":592,
			"byteOffset":3409920
		},
		{
			"buffer":0,
			"byteLength":8,
			"byteOffset":3410512
		},
		{
			"buffer":0,
			"byteLength":24,
			"byteOffset":3410520
		},
		{
			"buffer":0,
			"byteLength":24,
			"byteOffset":3410544
		},
		{
			"buffer":0,
			"byteLength":592,
			"byteOffset":3410568
		},
		{
			"buffer":0,
			"byteLength":24,
			"byteOffset":3411160
		},
		{
			"buffer":0,
			"byteLength":24,
			"byteOffset":3411184
		},
		{
			"buffer":0,
			"byteLength":592,
			"byteOffset":3411208
		},
		{
			"buffer":0,
			"byteLength":24,
			"byteOffset":3411800
		},
		{
			"buffer":0,
			"byteLength":24,
			"byteOffset":3411824
		},
		{
			"buffer":0,
			"byteLength":32,
			"byteOffset":3411848
		},
		{
			"buffer":0,
			"byteLength":24,
			"byteOffset":3411880
		},
		{
			"buffer":0,
			"byteLength":24,
			"byteOffset":3411904
		},
		{
			"buffer":0,
			"byteLength":592,
			"byteOffset":3411928
		},
		{
			"buffer":0,
			"byteLength":24,
			"byteOffset":3412520
		},
		{
			"buffer":0,
			"byteLength":32,
			"byteOffset":3412544
		},
		{
			"buffer":0,
			"byteLength":24,
			"byteOffset":3412576
		},
		{
			"buffer":0,
			"byteLength":592,
			"byteOffset":3412600
		},
		{
			"buffer":0,
			"byteLength":24,
			"byteOffset":3413192
		},
		{
			"buffer":0,
			"byteLength":24,
			"byteOffset":3413216
		},
		{
			"buffer":0,
			"byteLength":32,
			"byteOffset":3413240
		},
		{
			"buffer":0,
			"byteLength":24,
			"byteOffset":3413272
		},
		{
			"buffer":0,
			"byteLength":24,
			"byteOffset":3413296
		},
		{
			"buffer":0,
			"byteLength":32,
			"byteOffset":3413320
		},
		{
			"buffer":0,
			"byteLength":24,
			"byteOffset":3413352
		},
		{
			"buffer":0,
			"byteLength":24,
			"byteOffset":3413376
		},
		{
			"buffer":0,
			"byteLength":592,
			"byteOffset":3413400
		},
		{
			"buffer":0,
			"byteLength":24,
			"byteOffset":3413992
		},
		{
			"buffer":0,
			"byteLength":24,
			"byteOffset":3414016
		},
		{
			"buffer":0,
			"byteLength":592,
			"byteOffset":3414040
		},
		{
			"buffer":0,
			"byteLength":24,
			"byteOffset":3414632
		},
		{
			"buffer":0,
			"byteLength":24,
			"byteOffset":3414656
		},
		{
			"buffer":0,
			"byteLength":592,
			"byteOffset":3414680
		},
		{
			"buffer":0,
			"byteLength":24,
			"byteOffset":3415272
		},
		{
			"buffer":0,
			"byteLength":24,
			"byteOffset":3415296
		},
		{
			"buffer":0,
			"byteLength":32,
			"byteOffset":3415320
		},
		{
			"buffer":0,
			"byteLength":24,
			"byteOffset":3415352
		},
		{
			"buffer":0,
			"byteLength":32,
			"byteOffset":3415376
		},
		{
			"buffer":0,
			"byteLength":24,
			"byteOffset":3415408
		},
		{
			"buffer":0,
			"byteLength":32,
			"byteOffset":3415432
		},
		{
			"buffer":0,
			"byteLength":24,
			"byteOffset":3415464
		},
		{
			"buffer":0,
			"byteLength":24,
			"byteOffset":3415488
		},
		{
			"buffer":0,
			"byteLength":32,
			"byteOffset":3415512
		},
		{
			"buffer":0,
			"byteLength":24,
			"byteOffset":3415544
		},
		{
			"buffer":0,
			"byteLength":24,
			"byteOffset":3415568
		},
		{
			"buffer":0,
			"byteLength":32,
			"byteOffset":3415592
		},
		{
			"buffer":0,
			"byteLength":24,
			"byteOffset":3415624
		},
		{
			"buffer":0,
			"byteLength":24,
			"byteOffset":3415648
		},
		{
			"buffer":0,
			"byteLength":32,
			"byteOffset":3415672
		},
		{
			"buffer":0,
			"byteLength":164,
			"byteOffset":3415704
		},
		{
			"buffer":0,
			"byteLength":492,
			"byteOffset":3415868
		},
		{
			"buffer":0,
			"byteLength":8,
			"byteOffset":3416360
		},
		{
			"buffer":0,
			"byteLength":32,
			"byteOffset":3416368
		},
		{
			"buffer":0,
			"byteLength":656,
			"byteOffset":3416400
		},
		{
			"buffer":0,
			"byteLength":24,
			"byteOffset":3417056
		},
		{
			"buffer":0,
			"byteLength":656,
			"byteOffset":3417080
		},
		{
			"buffer":0,
			"byteLength":24,
			"byteOffset":3417736
		},
		{
			"buffer":0,
			"byteLength":32,
			"byteOffset":3417760
		},
		{
			"buffer":0,
			"byteLength":24,
			"byteOffset":3417792
		},
		{
			"buffer":0,
			"byteLength":656,
			"byteOffset":3417816
		},
		{
			"buffer":0,
			"byteLength":24,
			"byteOffset":3418472
		},
		{
			"buffer":0,
			"byteLength":32,
			"byteOffset":3418496
		},
		{
			"buffer":0,
			"byteLength":24,
			"byteOffset":3418528
		},
		{
			"buffer":0,
			"byteLength":656,
			"byteOffset":3418552
		},
		{
			"buffer":0,
			"byteLength":24,
			"byteOffset":3419208
		},
		{
			"buffer":0,
			"byteLength":24,
			"byteOffset":3419232
		},
		{
			"buffer":0,
			"byteLength":656,
			"byteOffset":3419256
		},
		{
			"buffer":0,
			"byteLength":24,
			"byteOffset":3419912
		},
		{
			"buffer":0,
			"byteLength":24,
			"byteOffset":3419936
		},
		{
			"buffer":0,
			"byteLength":32,
			"byteOffset":3419960
		},
		{
			"buffer":0,
			"byteLength":24,
			"byteOffset":3419992
		},
		{
			"buffer":0,
			"byteLength":24,
			"byteOffset":3420016
		},
		{
			"buffer":0,
			"byteLength":656,
			"byteOffset":3420040
		},
		{
			"buffer":0,
			"byteLength":24,
			"byteOffset":3420696
		},
		{
			"buffer":0,
			"byteLength":24,
			"byteOffset":3420720
		},
		{
			"buffer":0,
			"byteLength":656,
			"byteOffset":3420744
		},
		{
			"buffer":0,
			"byteLength":24,
			"byteOffset":3421400
		},
		{
			"buffer":0,
			"byteLength":32,
			"byteOffset":3421424
		},
		{
			"buffer":0,
			"byteLength":24,
			"byteOffset":3421456
		},
		{
			"buffer":0,
			"byteLength":656,
			"byteOffset":3421480
		},
		{
			"buffer":0,
			"byteLength":24,
			"byteOffset":3422136
		},
		{
			"buffer":0,
			"byteLength":656,
			"byteOffset":3422160
		},
		{
			"buffer":0,
			"byteLength":24,
			"byteOffset":3422816
		},
		{
			"buffer":0,
			"byteLength":24,
			"byteOffset":3422840
		},
		{
			"buffer":0,
			"byteLength":656,
			"byteOffset":3422864
		},
		{
			"buffer":0,
			"byteLength":24,
			"byteOffset":3423520
		},
		{
			"buffer":0,
			"byteLength":24,
			"byteOffset":3423544
		},
		{
			"buffer":0,
			"byteLength":656,
			"byteOffset":3423568
		},
		{
			"buffer":0,
			"byteLength":24,
			"byteOffset":3424224
		},
		{
			"buffer":0,
			"byteLength":656,
			"byteOffset":3424248
		},
		{
			"buffer":0,
			"byteLength":24,
			"byteOffset":3424904
		},
		{
			"buffer":0,
			"byteLength":656,
			"byteOffset":3424928
		},
		{
			"buffer":0,
			"byteLength":724,
			"byteOffset":3425584
		},
		{
			"buffer":0,
			"byteLength":2172,
			"byteOffset":3426308
		},
		{
			"buffer":0,
			"byteLength":8,
			"byteOffset":3428480
		},
		{
			"buffer":0,
			"byteLength":2896,
			"byteOffset":3428488
		},
		{
			"buffer":0,
			"byteLength":2896,
			"byteOffset":3431384
		},
		{
			"buffer":0,
			"byteLength":2896,
			"byteOffset":3434280
		},
		{
			"buffer":0,
			"byteLength":24,
			"byteOffset":3437176
		},
		{
			"buffer":0,
			"byteLength":32,
			"byteOffset":3437200
		},
		{
			"buffer":0,
			"byteLength":24,
			"byteOffset":3437232
		},
		{
			"buffer":0,
			"byteLength":24,
			"byteOffset":3437256
		},
		{
			"buffer":0,
			"byteLength":2896,
			"byteOffset":3437280
		},
		{
			"buffer":0,
			"byteLength":24,
			"byteOffset":3440176
		},
		{
			"buffer":0,
			"byteLength":24,
			"byteOffset":3440200
		},
		{
			"buffer":0,
			"byteLength":32,
			"byteOffset":3440224
		},
		{
			"buffer":0,
			"byteLength":24,
			"byteOffset":3440256
		},
		{
			"buffer":0,
			"byteLength":32,
			"byteOffset":3440280
		},
		{
			"buffer":0,
			"byteLength":24,
			"byteOffset":3440312
		},
		{
			"buffer":0,
			"byteLength":24,
			"byteOffset":3440336
		},
		{
			"buffer":0,
			"byteLength":32,
			"byteOffset":3440360
		},
		{
			"buffer":0,
			"byteLength":24,
			"byteOffset":3440392
		},
		{
			"buffer":0,
			"byteLength":24,
			"byteOffset":3440416
		},
		{
			"buffer":0,
			"byteLength":32,
			"byteOffset":3440440
		},
		{
			"buffer":0,
			"byteLength":24,
			"byteOffset":3440472
		},
		{
			"buffer":0,
			"byteLength":32,
			"byteOffset":3440496
		},
		{
			"buffer":0,
			"byteLength":24,
			"byteOffset":3440528
		},
		{
			"buffer":0,
			"byteLength":32,
			"byteOffset":3440552
		},
		{
			"buffer":0,
			"byteLength":24,
			"byteOffset":3440584
		},
		{
			"buffer":0,
			"byteLength":32,
			"byteOffset":3440608
		},
		{
			"buffer":0,
			"byteLength":24,
			"byteOffset":3440640
		},
		{
			"buffer":0,
			"byteLength":32,
			"byteOffset":3440664
		},
		{
			"buffer":0,
			"byteLength":24,
			"byteOffset":3440696
		},
		{
			"buffer":0,
			"byteLength":32,
			"byteOffset":3440720
		},
		{
			"buffer":0,
			"byteLength":24,
			"byteOffset":3440752
		},
		{
			"buffer":0,
			"byteLength":32,
			"byteOffset":3440776
		},
		{
			"buffer":0,
			"byteLength":24,
			"byteOffset":3440808
		},
		{
			"buffer":0,
			"byteLength":124,
			"byteOffset":3440832
		},
		{
			"buffer":0,
			"byteLength":372,
			"byteOffset":3440956
		},
		{
			"buffer":0,
			"byteLength":496,
			"byteOffset":3441328
		},
		{
			"buffer":0,
			"byteLength":8,
			"byteOffset":3441824
		},
		{
			"buffer":0,
			"byteLength":32,
			"byteOffset":3441832
		},
		{
			"buffer":0,
			"byteLength":24,
			"byteOffset":3441864
		},
		{
			"buffer":0,
			"byteLength":496,
			"byteOffset":3441888
		},
		{
			"buffer":0,
			"byteLength":24,
			"byteOffset":3442384
		},
		{
			"buffer":0,
			"byteLength":32,
			"byteOffset":3442408
		},
		{
			"buffer":0,
			"byteLength":24,
			"byteOffset":3442440
		},
		{
			"buffer":0,
			"byteLength":24,
			"byteOffset":3442464
		},
		{
			"buffer":0,
			"byteLength":496,
			"byteOffset":3442488
		},
		{
			"buffer":0,
			"byteLength":24,
			"byteOffset":3442984
		},
		{
			"buffer":0,
			"byteLength":496,
			"byteOffset":3443008
		},
		{
			"buffer":0,
			"byteLength":24,
			"byteOffset":3443504
		},
		{
			"buffer":0,
			"byteLength":496,
			"byteOffset":3443528
		},
		{
			"buffer":0,
			"byteLength":24,
			"byteOffset":3444024
		},
		{
			"buffer":0,
			"byteLength":24,
			"byteOffset":3444048
		},
		{
			"buffer":0,
			"byteLength":496,
			"byteOffset":3444072
		},
		{
			"buffer":0,
			"byteLength":24,
			"byteOffset":3444568
		},
		{
			"buffer":0,
			"byteLength":24,
			"byteOffset":3444592
		},
		{
			"buffer":0,
			"byteLength":32,
			"byteOffset":3444616
		},
		{
			"buffer":0,
			"byteLength":24,
			"byteOffset":3444648
		},
		{
			"buffer":0,
			"byteLength":496,
			"byteOffset":3444672
		},
		{
			"buffer":0,
			"byteLength":24,
			"byteOffset":3445168
		},
		{
			"buffer":0,
			"byteLength":32,
			"byteOffset":3445192
		},
		{
			"buffer":0,
			"byteLength":24,
			"byteOffset":3445224
		},
		{
			"buffer":0,
			"byteLength":24,
			"byteOffset":3445248
		},
		{
			"buffer":0,
			"byteLength":32,
			"byteOffset":3445272
		},
		{
			"buffer":0,
			"byteLength":24,
			"byteOffset":3445304
		},
		{
			"buffer":0,
			"byteLength":24,
			"byteOffset":3445328
		},
		{
			"buffer":0,
			"byteLength":496,
			"byteOffset":3445352
		},
		{
			"buffer":0,
			"byteLength":24,
			"byteOffset":3445848
		},
		{
			"buffer":0,
			"byteLength":496,
			"byteOffset":3445872
		},
		{
			"buffer":0,
			"byteLength":24,
			"byteOffset":3446368
		},
		{
			"buffer":0,
			"byteLength":496,
			"byteOffset":3446392
		},
		{
			"buffer":0,
			"byteLength":24,
			"byteOffset":3446888
		},
		{
			"buffer":0,
			"byteLength":496,
			"byteOffset":3446912
		},
		{
			"buffer":0,
			"byteLength":24,
			"byteOffset":3447408
		},
		{
			"buffer":0,
			"byteLength":496,
			"byteOffset":3447432
		},
		{
			"buffer":0,
			"byteLength":24,
			"byteOffset":3447928
		},
		{
			"buffer":0,
			"byteLength":496,
			"byteOffset":3447952
		},
		{
			"buffer":0,
			"byteLength":444,
			"byteOffset":3448448
		},
		{
			"buffer":0,
			"byteLength":592,
			"byteOffset":3448892
		},
		{
			"buffer":0,
			"byteLength":32,
			"byteOffset":3449484
		},
		{
			"buffer":0,
			"byteLength":24,
			"byteOffset":3449516
		},
		{
			"buffer":0,
			"byteLength":592,
			"byteOffset":3449540
		},
		{
			"buffer":0,
			"byteLength":24,
			"byteOffset":3450132
		},
		{
			"buffer":0,
			"byteLength":32,
			"byteOffset":3450156
		},
		{
			"buffer":0,
			"byteLength":24,
			"byteOffset":3450188
		},
		{
			"buffer":0,
			"byteLength":592,
			"byteOffset":3450212
		},
		{
			"buffer":0,
			"byteLength":24,
			"byteOffset":3450804
		},
		{
			"buffer":0,
			"byteLength":592,
			"byteOffset":3450828
		},
		{
			"buffer":0,
			"byteLength":24,
			"byteOffset":3451420
		},
		{
			"buffer":0,
			"byteLength":32,
			"byteOffset":3451444
		},
		{
			"buffer":0,
			"byteLength":24,
			"byteOffset":3451476
		},
		{
			"buffer":0,
			"byteLength":24,
			"byteOffset":3451500
		},
		{
			"buffer":0,
			"byteLength":32,
			"byteOffset":3451524
		},
		{
			"buffer":0,
			"byteLength":24,
			"byteOffset":3451556
		},
		{
			"buffer":0,
			"byteLength":32,
			"byteOffset":3451580
		},
		{
			"buffer":0,
			"byteLength":24,
			"byteOffset":3451612
		},
		{
			"buffer":0,
			"byteLength":592,
			"byteOffset":3451636
		},
		{
			"buffer":0,
			"byteLength":24,
			"byteOffset":3452228
		},
		{
			"buffer":0,
			"byteLength":32,
			"byteOffset":3452252
		},
		{
			"buffer":0,
			"byteLength":24,
			"byteOffset":3452284
		},
		{
			"buffer":0,
			"byteLength":32,
			"byteOffset":3452308
		},
		{
			"buffer":0,
			"byteLength":592,
			"byteOffset":3452340
		},
		{
			"buffer":0,
			"byteLength":24,
			"byteOffset":3452932
		},
		{
			"buffer":0,
			"byteLength":592,
			"byteOffset":3452956
		},
		{
			"buffer":0,
			"byteLength":24,
			"byteOffset":3453548
		},
		{
			"buffer":0,
			"byteLength":592,
			"byteOffset":3453572
		},
		{
			"buffer":0,
			"byteLength":592,
			"byteOffset":3454164
		},
		{
			"buffer":0,
			"byteLength":24,
			"byteOffset":3454756
		},
		{
			"buffer":0,
			"byteLength":592,
			"byteOffset":3454780
		},
		{
			"buffer":0,
			"byteLength":24,
			"byteOffset":3455372
		},
		{
			"buffer":0,
			"byteLength":592,
			"byteOffset":3455396
		}
	],
	"buffers":[
		{
			"byteLength":3455988,
			"uri":"holzarbeiter.bin"
		}
	]
}
