{
	"asset":{
		"generator":"Khronos glTF Blender I/O v5.2.40",
		"version":"2.0"
	},
	"scene":0,
	"scenes":[
		{
			"name":"Scene",
			"nodes":[
				22
			]
		}
	],
	"nodes":[
		{
			"name":"Hut",
			"rotation":[
				-0.49269899725914,
				1.4670467862742953e-07,
				-8.306281529257831e-08,
				0.8701997995376587
			],
			"scale":[
				1,
				0.9999999403953552,
				1
			],
			"translation":[
				0,
				0.2600001096725464,
				-0.019999999552965164
			]
		},
		{
			"children":[
				0
			],
			"name":"Kopf",
			"rotation":[
				0,
				-5.9604641222676946e-08,
				0,
				1
			],
			"translation":[
				0,
				0.06000018119812012,
				0
			]
		},
		{
			"children":[
				1
			],
			"name":"Hals",
			"rotation":[
				0,
				5.9604641222676946e-08,
				0,
				1
			],
			"scale":[
				1,
				0.9999999403953552,
				1
			],
			"translation":[
				0,
				0.25,
				0
			]
		},
		{
			"name":"Hand.L",
			"rotation":[
				-0.045664913952350616,
				0.0027846242301166058,
				-0.01642555743455887,
				0.9988178610801697
			],
			"scale":[
				1,
				0.9999999403953552,
				1
			],
			"translation":[
				1.5012920684398523e-08,
				0.24601835012435913,
				5.587935447692871e-09
			]
		},
		{
			"children":[
				3
			],
			"name":"Unterarm.L",
			"rotation":[
				-0.096297487616539,
				-0.0013175290077924728,
				0.05131449177861214,
				0.9940280914306641
			],
			"scale":[
				0.9999999403953552,
				1,
				1
			],
			"translation":[
				-2.6896589844227492e-08,
				0.2823118567466736,
				1.5832483768463135e-08
			]
		},
		{
			"children":[
				4
			],
			"name":"Oberarm.L",
			"rotation":[
				-0.9890241026878357,
				-0.14344002306461334,
				0.005087628494948149,
				0.03507712483406067
			],
			"scale":[
				0.9999980330467224,
				0.9999997615814209,
				0.9999998807907104
			],
			"translation":[
				0.1899999976158142,
				0.20000004768371582,
				0
			]
		},
		{
			"mesh":1,
			"name":"Werkzeug",
			"rotation":[
				-0.9883642196655273,
				0.10849487781524658,
				0.01163237914443016,
				0.10597076267004013
			],
			"scale":[
				1.0000014305114746,
				1.000000238418579,
				0.9999999403953552
			],
			"translation":[
				0.5157531499862671,
				0.84693843126297,
				0.19395993649959564
			]
		},
		{
			"children":[
				6
			],
			"name":"Hand.R",
			"rotation":[
				-0.045664913952350616,
				-0.0027846242301166058,
				0.01642555743455887,
				0.9988178610801697
			],
			"scale":[
				1,
				0.9999999403953552,
				1
			],
			"translation":[
				-1.5012920684398523e-08,
				0.24601835012435913,
				5.587935447692871e-09
			]
		},
		{
			"children":[
				7
			],
			"name":"Unterarm.R",
			"rotation":[
				-0.096297487616539,
				0.0013175290077924728,
				-0.05131449177861214,
				0.9940280914306641
			],
			"scale":[
				0.9999999403953552,
				1,
				1
			],
			"translation":[
				2.6896589844227492e-08,
				0.2823118567466736,
				1.5832483768463135e-08
			]
		},
		{
			"children":[
				8
			],
			"name":"Oberarm.R",
			"rotation":[
				-0.9890241026878357,
				0.14344002306461334,
				-0.005087628494948149,
				0.03507712483406067
			],
			"scale":[
				0.9999980330467224,
				0.9999997615814209,
				0.9999998807907104
			],
			"translation":[
				-0.1899999976158142,
				0.20000004768371582,
				0
			]
		},
		{
			"mesh":2,
			"name":"Last",
			"translation":[
				0,
				-1.2699999809265137,
				0
			]
		},
		{
			"mesh":3,
			"name":"Werkzeug_Ruecken",
			"translation":[
				0,
				-1.2699999809265137,
				0
			]
		},
		{
			"children":[
				2,
				5,
				9,
				10,
				11
			],
			"name":"Brust",
			"translation":[
				0,
				0.19999992847442627,
				0
			]
		},
		{
			"children":[
				12
			],
			"name":"Bauch",
			"translation":[
				0,
				0.14000004529953003,
				0
			]
		},
		{
			"name":"Fuss.L",
			"rotation":[
				5.941208414128596e-09,
				0.812186062335968,
				-0.5833984613418579,
				6.131833174549683e-08
			],
			"scale":[
				1,
				0.9999996423721313,
				0.9999998807907104
			],
			"translation":[
				5.270791358924498e-09,
				0.41076144576072693,
				-1.210719524635806e-09
			]
		},
		{
			"children":[
				14
			],
			"name":"Unterschenkel.L",
			"rotation":[
				0.0362558513879776,
				4.653537999388391e-09,
				2.93763280367898e-09,
				0.9993425011634827
			],
			"translation":[
				8.257892702978609e-10,
				0.4300290644168854,
				1.8626700182267086e-10
			]
		},
		{
			"children":[
				15
			],
			"name":"Oberschenkel.L",
			"rotation":[
				0.9999830722808838,
				2.2199010685231002e-10,
				3.818359317619979e-08,
				0.005813658703118563
			],
			"translation":[
				0.10000000149011612,
				0,
				0
			]
		},
		{
			"name":"Fuss.R",
			"rotation":[
				5.941208414128596e-09,
				0.812186062335968,
				-0.5833984613418579,
				6.131833174549683e-08
			],
			"scale":[
				1,
				0.9999996423721313,
				0.9999998807907104
			],
			"translation":[
				-9.630369390833948e-09,
				0.41076144576072693,
				2.793969500203275e-10
			]
		},
		{
			"children":[
				17
			],
			"name":"Unterschenkel.R",
			"rotation":[
				0.0362558513879776,
				4.653537999388391e-09,
				2.93763280367898e-09,
				0.9993425011634827
			],
			"translation":[
				8.257892702978609e-10,
				0.4300290644168854,
				-1.8626700182267086e-10
			]
		},
		{
			"children":[
				18
			],
			"name":"Oberschenkel.R",
			"rotation":[
				0.9999830722808838,
				2.2199010685231002e-10,
				3.818359317619979e-08,
				0.005813658703118563
			],
			"translation":[
				-0.10000000149011612,
				0,
				0
			]
		},
		{
			"children":[
				13,
				16,
				19
			],
			"name":"Becken",
			"translation":[
				0,
				0.9300000071525574,
				0
			]
		},
		{
			"mesh":0,
			"name":"Kristallmagier",
			"skin":0
		},
		{
			"children":[
				21,
				20
			],
			"name":"KristallmagierSkelett"
		}
	],
	"animations":[
		{
			"channels":[
				{
					"sampler":0,
					"target":{
						"node":20,
						"path":"translation"
					}
				},
				{
					"sampler":1,
					"target":{
						"node":20,
						"path":"rotation"
					}
				},
				{
					"sampler":2,
					"target":{
						"node":20,
						"path":"scale"
					}
				},
				{
					"sampler":3,
					"target":{
						"node":13,
						"path":"translation"
					}
				},
				{
					"sampler":4,
					"target":{
						"node":13,
						"path":"rotation"
					}
				},
				{
					"sampler":5,
					"target":{
						"node":13,
						"path":"scale"
					}
				},
				{
					"sampler":6,
					"target":{
						"node":12,
						"path":"translation"
					}
				},
				{
					"sampler":7,
					"target":{
						"node":12,
						"path":"rotation"
					}
				},
				{
					"sampler":8,
					"target":{
						"node":12,
						"path":"scale"
					}
				},
				{
					"sampler":9,
					"target":{
						"node":2,
						"path":"translation"
					}
				},
				{
					"sampler":10,
					"target":{
						"node":2,
						"path":"rotation"
					}
				},
				{
					"sampler":11,
					"target":{
						"node":2,
						"path":"scale"
					}
				},
				{
					"sampler":12,
					"target":{
						"node":1,
						"path":"translation"
					}
				},
				{
					"sampler":13,
					"target":{
						"node":1,
						"path":"rotation"
					}
				},
				{
					"sampler":14,
					"target":{
						"node":1,
						"path":"scale"
					}
				},
				{
					"sampler":15,
					"target":{
						"node":0,
						"path":"translation"
					}
				},
				{
					"sampler":16,
					"target":{
						"node":0,
						"path":"rotation"
					}
				},
				{
					"sampler":17,
					"target":{
						"node":0,
						"path":"scale"
					}
				},
				{
					"sampler":18,
					"target":{
						"node":5,
						"path":"translation"
					}
				},
				{
					"sampler":19,
					"target":{
						"node":5,
						"path":"rotation"
					}
				},
				{
					"sampler":20,
					"target":{
						"node":5,
						"path":"scale"
					}
				},
				{
					"sampler":21,
					"target":{
						"node":4,
						"path":"translation"
					}
				},
				{
					"sampler":22,
					"target":{
						"node":4,
						"path":"rotation"
					}
				},
				{
					"sampler":23,
					"target":{
						"node":4,
						"path":"scale"
					}
				},
				{
					"sampler":24,
					"target":{
						"node":3,
						"path":"translation"
					}
				},
				{
					"sampler":25,
					"target":{
						"node":3,
						"path":"rotation"
					}
				},
				{
					"sampler":26,
					"target":{
						"node":3,
						"path":"scale"
					}
				},
				{
					"sampler":27,
					"target":{
						"node":9,
						"path":"translation"
					}
				},
				{
					"sampler":28,
					"target":{
						"node":9,
						"path":"rotation"
					}
				},
				{
					"sampler":29,
					"target":{
						"node":9,
						"path":"scale"
					}
				},
				{
					"sampler":30,
					"target":{
						"node":8,
						"path":"translation"
					}
				},
				{
					"sampler":31,
					"target":{
						"node":8,
						"path":"rotation"
					}
				},
				{
					"sampler":32,
					"target":{
						"node":8,
						"path":"scale"
					}
				},
				{
					"sampler":33,
					"target":{
						"node":7,
						"path":"translation"
					}
				},
				{
					"sampler":34,
					"target":{
						"node":7,
						"path":"rotation"
					}
				},
				{
					"sampler":35,
					"target":{
						"node":7,
						"path":"scale"
					}
				},
				{
					"sampler":36,
					"target":{
						"node":16,
						"path":"translation"
					}
				},
				{
					"sampler":37,
					"target":{
						"node":16,
						"path":"rotation"
					}
				},
				{
					"sampler":38,
					"target":{
						"node":16,
						"path":"scale"
					}
				},
				{
					"sampler":39,
					"target":{
						"node":15,
						"path":"translation"
					}
				},
				{
					"sampler":40,
					"target":{
						"node":15,
						"path":"rotation"
					}
				},
				{
					"sampler":41,
					"target":{
						"node":15,
						"path":"scale"
					}
				},
				{
					"sampler":42,
					"target":{
						"node":14,
						"path":"translation"
					}
				},
				{
					"sampler":43,
					"target":{
						"node":14,
						"path":"rotation"
					}
				},
				{
					"sampler":44,
					"target":{
						"node":14,
						"path":"scale"
					}
				},
				{
					"sampler":45,
					"target":{
						"node":19,
						"path":"translation"
					}
				},
				{
					"sampler":46,
					"target":{
						"node":19,
						"path":"rotation"
					}
				},
				{
					"sampler":47,
					"target":{
						"node":19,
						"path":"scale"
					}
				},
				{
					"sampler":48,
					"target":{
						"node":18,
						"path":"translation"
					}
				},
				{
					"sampler":49,
					"target":{
						"node":18,
						"path":"rotation"
					}
				},
				{
					"sampler":50,
					"target":{
						"node":18,
						"path":"scale"
					}
				},
				{
					"sampler":51,
					"target":{
						"node":17,
						"path":"translation"
					}
				},
				{
					"sampler":52,
					"target":{
						"node":17,
						"path":"rotation"
					}
				},
				{
					"sampler":53,
					"target":{
						"node":17,
						"path":"scale"
					}
				}
			],
			"name":"Arbeiten",
			"samplers":[
				{
					"input":19,
					"interpolation":"LINEAR",
					"output":20
				},
				{
					"input":21,
					"interpolation":"STEP",
					"output":22
				},
				{
					"input":21,
					"interpolation":"STEP",
					"output":23
				},
				{
					"input":21,
					"interpolation":"STEP",
					"output":24
				},
				{
					"input":21,
					"interpolation":"STEP",
					"output":22
				},
				{
					"input":21,
					"interpolation":"STEP",
					"output":23
				},
				{
					"input":21,
					"interpolation":"STEP",
					"output":25
				},
				{
					"input":19,
					"interpolation":"LINEAR",
					"output":26
				},
				{
					"input":21,
					"interpolation":"STEP",
					"output":23
				},
				{
					"input":21,
					"interpolation":"STEP",
					"output":27
				},
				{
					"input":21,
					"interpolation":"STEP",
					"output":28
				},
				{
					"input":21,
					"interpolation":"STEP",
					"output":29
				},
				{
					"input":21,
					"interpolation":"STEP",
					"output":30
				},
				{
					"input":19,
					"interpolation":"LINEAR",
					"output":31
				},
				{
					"input":21,
					"interpolation":"STEP",
					"output":23
				},
				{
					"input":21,
					"interpolation":"STEP",
					"output":32
				},
				{
					"input":21,
					"interpolation":"STEP",
					"output":33
				},
				{
					"input":21,
					"interpolation":"STEP",
					"output":34
				},
				{
					"input":21,
					"interpolation":"STEP",
					"output":35
				},
				{
					"input":19,
					"interpolation":"LINEAR",
					"output":36
				},
				{
					"input":21,
					"interpolation":"STEP",
					"output":37
				},
				{
					"input":21,
					"interpolation":"STEP",
					"output":38
				},
				{
					"input":19,
					"interpolation":"LINEAR",
					"output":39
				},
				{
					"input":21,
					"interpolation":"STEP",
					"output":40
				},
				{
					"input":21,
					"interpolation":"STEP",
					"output":41
				},
				{
					"input":21,
					"interpolation":"STEP",
					"output":42
				},
				{
					"input":21,
					"interpolation":"STEP",
					"output":43
				},
				{
					"input":21,
					"interpolation":"STEP",
					"output":44
				},
				{
					"input":19,
					"interpolation":"LINEAR",
					"output":45
				},
				{
					"input":21,
					"interpolation":"STEP",
					"output":46
				},
				{
					"input":21,
					"interpolation":"STEP",
					"output":47
				},
				{
					"input":19,
					"interpolation":"LINEAR",
					"output":48
				},
				{
					"input":21,
					"interpolation":"STEP",
					"output":23
				},
				{
					"input":21,
					"interpolation":"STEP",
					"output":49
				},
				{
					"input":21,
					"interpolation":"STEP",
					"output":50
				},
				{
					"input":21,
					"interpolation":"STEP",
					"output":51
				},
				{
					"input":21,
					"interpolation":"STEP",
					"output":52
				},
				{
					"input":21,
					"interpolation":"STEP",
					"output":53
				},
				{
					"input":21,
					"interpolation":"STEP",
					"output":23
				},
				{
					"input":21,
					"interpolation":"STEP",
					"output":54
				},
				{
					"input":21,
					"interpolation":"STEP",
					"output":55
				},
				{
					"input":21,
					"interpolation":"STEP",
					"output":29
				},
				{
					"input":21,
					"interpolation":"STEP",
					"output":56
				},
				{
					"input":21,
					"interpolation":"STEP",
					"output":57
				},
				{
					"input":21,
					"interpolation":"STEP",
					"output":58
				},
				{
					"input":21,
					"interpolation":"STEP",
					"output":59
				},
				{
					"input":21,
					"interpolation":"STEP",
					"output":60
				},
				{
					"input":21,
					"interpolation":"STEP",
					"output":23
				},
				{
					"input":21,
					"interpolation":"STEP",
					"output":61
				},
				{
					"input":21,
					"interpolation":"STEP",
					"output":62
				},
				{
					"input":21,
					"interpolation":"STEP",
					"output":23
				},
				{
					"input":21,
					"interpolation":"STEP",
					"output":63
				},
				{
					"input":21,
					"interpolation":"STEP",
					"output":64
				},
				{
					"input":21,
					"interpolation":"STEP",
					"output":58
				}
			]
		},
		{
			"channels":[
				{
					"sampler":0,
					"target":{
						"node":20,
						"path":"translation"
					}
				},
				{
					"sampler":1,
					"target":{
						"node":20,
						"path":"rotation"
					}
				},
				{
					"sampler":2,
					"target":{
						"node":20,
						"path":"scale"
					}
				},
				{
					"sampler":3,
					"target":{
						"node":13,
						"path":"translation"
					}
				},
				{
					"sampler":4,
					"target":{
						"node":13,
						"path":"rotation"
					}
				},
				{
					"sampler":5,
					"target":{
						"node":13,
						"path":"scale"
					}
				},
				{
					"sampler":6,
					"target":{
						"node":12,
						"path":"translation"
					}
				},
				{
					"sampler":7,
					"target":{
						"node":12,
						"path":"rotation"
					}
				},
				{
					"sampler":8,
					"target":{
						"node":12,
						"path":"scale"
					}
				},
				{
					"sampler":9,
					"target":{
						"node":2,
						"path":"translation"
					}
				},
				{
					"sampler":10,
					"target":{
						"node":2,
						"path":"rotation"
					}
				},
				{
					"sampler":11,
					"target":{
						"node":2,
						"path":"scale"
					}
				},
				{
					"sampler":12,
					"target":{
						"node":1,
						"path":"translation"
					}
				},
				{
					"sampler":13,
					"target":{
						"node":1,
						"path":"rotation"
					}
				},
				{
					"sampler":14,
					"target":{
						"node":1,
						"path":"scale"
					}
				},
				{
					"sampler":15,
					"target":{
						"node":0,
						"path":"translation"
					}
				},
				{
					"sampler":16,
					"target":{
						"node":0,
						"path":"rotation"
					}
				},
				{
					"sampler":17,
					"target":{
						"node":0,
						"path":"scale"
					}
				},
				{
					"sampler":18,
					"target":{
						"node":5,
						"path":"translation"
					}
				},
				{
					"sampler":19,
					"target":{
						"node":5,
						"path":"rotation"
					}
				},
				{
					"sampler":20,
					"target":{
						"node":5,
						"path":"scale"
					}
				},
				{
					"sampler":21,
					"target":{
						"node":4,
						"path":"translation"
					}
				},
				{
					"sampler":22,
					"target":{
						"node":4,
						"path":"rotation"
					}
				},
				{
					"sampler":23,
					"target":{
						"node":4,
						"path":"scale"
					}
				},
				{
					"sampler":24,
					"target":{
						"node":3,
						"path":"translation"
					}
				},
				{
					"sampler":25,
					"target":{
						"node":3,
						"path":"rotation"
					}
				},
				{
					"sampler":26,
					"target":{
						"node":3,
						"path":"scale"
					}
				},
				{
					"sampler":27,
					"target":{
						"node":9,
						"path":"translation"
					}
				},
				{
					"sampler":28,
					"target":{
						"node":9,
						"path":"rotation"
					}
				},
				{
					"sampler":29,
					"target":{
						"node":9,
						"path":"scale"
					}
				},
				{
					"sampler":30,
					"target":{
						"node":8,
						"path":"translation"
					}
				},
				{
					"sampler":31,
					"target":{
						"node":8,
						"path":"rotation"
					}
				},
				{
					"sampler":32,
					"target":{
						"node":8,
						"path":"scale"
					}
				},
				{
					"sampler":33,
					"target":{
						"node":7,
						"path":"translation"
					}
				},
				{
					"sampler":34,
					"target":{
						"node":7,
						"path":"rotation"
					}
				},
				{
					"sampler":35,
					"target":{
						"node":7,
						"path":"scale"
					}
				},
				{
					"sampler":36,
					"target":{
						"node":16,
						"path":"translation"
					}
				},
				{
					"sampler":37,
					"target":{
						"node":16,
						"path":"rotation"
					}
				},
				{
					"sampler":38,
					"target":{
						"node":16,
						"path":"scale"
					}
				},
				{
					"sampler":39,
					"target":{
						"node":15,
						"path":"translation"
					}
				},
				{
					"sampler":40,
					"target":{
						"node":15,
						"path":"rotation"
					}
				},
				{
					"sampler":41,
					"target":{
						"node":15,
						"path":"scale"
					}
				},
				{
					"sampler":42,
					"target":{
						"node":14,
						"path":"translation"
					}
				},
				{
					"sampler":43,
					"target":{
						"node":14,
						"path":"rotation"
					}
				},
				{
					"sampler":44,
					"target":{
						"node":14,
						"path":"scale"
					}
				},
				{
					"sampler":45,
					"target":{
						"node":19,
						"path":"translation"
					}
				},
				{
					"sampler":46,
					"target":{
						"node":19,
						"path":"rotation"
					}
				},
				{
					"sampler":47,
					"target":{
						"node":19,
						"path":"scale"
					}
				},
				{
					"sampler":48,
					"target":{
						"node":18,
						"path":"translation"
					}
				},
				{
					"sampler":49,
					"target":{
						"node":18,
						"path":"rotation"
					}
				},
				{
					"sampler":50,
					"target":{
						"node":18,
						"path":"scale"
					}
				},
				{
					"sampler":51,
					"target":{
						"node":17,
						"path":"translation"
					}
				},
				{
					"sampler":52,
					"target":{
						"node":17,
						"path":"rotation"
					}
				},
				{
					"sampler":53,
					"target":{
						"node":17,
						"path":"scale"
					}
				}
			],
			"name":"Buecken",
			"samplers":[
				{
					"input":65,
					"interpolation":"LINEAR",
					"output":66
				},
				{
					"input":67,
					"interpolation":"STEP",
					"output":22
				},
				{
					"input":67,
					"interpolation":"STEP",
					"output":23
				},
				{
					"input":67,
					"interpolation":"STEP",
					"output":24
				},
				{
					"input":65,
					"interpolation":"LINEAR",
					"output":68
				},
				{
					"input":67,
					"interpolation":"STEP",
					"output":23
				},
				{
					"input":67,
					"interpolation":"STEP",
					"output":25
				},
				{
					"input":65,
					"interpolation":"LINEAR",
					"output":69
				},
				{
					"input":67,
					"interpolation":"STEP",
					"output":23
				},
				{
					"input":67,
					"interpolation":"STEP",
					"output":70
				},
				{
					"input":67,
					"interpolation":"STEP",
					"output":71
				},
				{
					"input":67,
					"interpolation":"STEP",
					"output":72
				},
				{
					"input":67,
					"interpolation":"STEP",
					"output":73
				},
				{
					"input":65,
					"interpolation":"LINEAR",
					"output":74
				},
				{
					"input":67,
					"interpolation":"STEP",
					"output":23
				},
				{
					"input":67,
					"interpolation":"STEP",
					"output":75
				},
				{
					"input":67,
					"interpolation":"STEP",
					"output":76
				},
				{
					"input":67,
					"interpolation":"STEP",
					"output":34
				},
				{
					"input":67,
					"interpolation":"STEP",
					"output":77
				},
				{
					"input":65,
					"interpolation":"LINEAR",
					"output":78
				},
				{
					"input":67,
					"interpolation":"STEP",
					"output":79
				},
				{
					"input":67,
					"interpolation":"STEP",
					"output":80
				},
				{
					"input":65,
					"interpolation":"LINEAR",
					"output":81
				},
				{
					"input":67,
					"interpolation":"STEP",
					"output":82
				},
				{
					"input":67,
					"interpolation":"STEP",
					"output":83
				},
				{
					"input":67,
					"interpolation":"STEP",
					"output":84
				},
				{
					"input":67,
					"interpolation":"STEP",
					"output":85
				},
				{
					"input":67,
					"interpolation":"STEP",
					"output":86
				},
				{
					"input":65,
					"interpolation":"LINEAR",
					"output":87
				},
				{
					"input":67,
					"interpolation":"STEP",
					"output":88
				},
				{
					"input":67,
					"interpolation":"STEP",
					"output":89
				},
				{
					"input":65,
					"interpolation":"LINEAR",
					"output":90
				},
				{
					"input":67,
					"interpolation":"STEP",
					"output":91
				},
				{
					"input":67,
					"interpolation":"STEP",
					"output":92
				},
				{
					"input":67,
					"interpolation":"STEP",
					"output":93
				},
				{
					"input":67,
					"interpolation":"STEP",
					"output":94
				},
				{
					"input":67,
					"interpolation":"STEP",
					"output":52
				},
				{
					"input":67,
					"interpolation":"STEP",
					"output":53
				},
				{
					"input":67,
					"interpolation":"STEP",
					"output":23
				},
				{
					"input":67,
					"interpolation":"STEP",
					"output":54
				},
				{
					"input":67,
					"interpolation":"STEP",
					"output":55
				},
				{
					"input":67,
					"interpolation":"STEP",
					"output":29
				},
				{
					"input":67,
					"interpolation":"STEP",
					"output":56
				},
				{
					"input":67,
					"interpolation":"STEP",
					"output":57
				},
				{
					"input":67,
					"interpolation":"STEP",
					"output":58
				},
				{
					"input":67,
					"interpolation":"STEP",
					"output":59
				},
				{
					"input":67,
					"interpolation":"STEP",
					"output":60
				},
				{
					"input":67,
					"interpolation":"STEP",
					"output":23
				},
				{
					"input":67,
					"interpolation":"STEP",
					"output":61
				},
				{
					"input":67,
					"interpolation":"STEP",
					"output":62
				},
				{
					"input":67,
					"interpolation":"STEP",
					"output":23
				},
				{
					"input":67,
					"interpolation":"STEP",
					"output":63
				},
				{
					"input":67,
					"interpolation":"STEP",
					"output":64
				},
				{
					"input":67,
					"interpolation":"STEP",
					"output":58
				}
			]
		},
		{
			"channels":[
				{
					"sampler":0,
					"target":{
						"node":20,
						"path":"translation"
					}
				},
				{
					"sampler":1,
					"target":{
						"node":20,
						"path":"rotation"
					}
				},
				{
					"sampler":2,
					"target":{
						"node":20,
						"path":"scale"
					}
				},
				{
					"sampler":3,
					"target":{
						"node":13,
						"path":"translation"
					}
				},
				{
					"sampler":4,
					"target":{
						"node":13,
						"path":"rotation"
					}
				},
				{
					"sampler":5,
					"target":{
						"node":13,
						"path":"scale"
					}
				},
				{
					"sampler":6,
					"target":{
						"node":12,
						"path":"translation"
					}
				},
				{
					"sampler":7,
					"target":{
						"node":12,
						"path":"rotation"
					}
				},
				{
					"sampler":8,
					"target":{
						"node":12,
						"path":"scale"
					}
				},
				{
					"sampler":9,
					"target":{
						"node":2,
						"path":"translation"
					}
				},
				{
					"sampler":10,
					"target":{
						"node":2,
						"path":"rotation"
					}
				},
				{
					"sampler":11,
					"target":{
						"node":2,
						"path":"scale"
					}
				},
				{
					"sampler":12,
					"target":{
						"node":1,
						"path":"translation"
					}
				},
				{
					"sampler":13,
					"target":{
						"node":1,
						"path":"rotation"
					}
				},
				{
					"sampler":14,
					"target":{
						"node":1,
						"path":"scale"
					}
				},
				{
					"sampler":15,
					"target":{
						"node":0,
						"path":"translation"
					}
				},
				{
					"sampler":16,
					"target":{
						"node":0,
						"path":"rotation"
					}
				},
				{
					"sampler":17,
					"target":{
						"node":0,
						"path":"scale"
					}
				},
				{
					"sampler":18,
					"target":{
						"node":5,
						"path":"translation"
					}
				},
				{
					"sampler":19,
					"target":{
						"node":5,
						"path":"rotation"
					}
				},
				{
					"sampler":20,
					"target":{
						"node":5,
						"path":"scale"
					}
				},
				{
					"sampler":21,
					"target":{
						"node":4,
						"path":"translation"
					}
				},
				{
					"sampler":22,
					"target":{
						"node":4,
						"path":"rotation"
					}
				},
				{
					"sampler":23,
					"target":{
						"node":4,
						"path":"scale"
					}
				},
				{
					"sampler":24,
					"target":{
						"node":3,
						"path":"translation"
					}
				},
				{
					"sampler":25,
					"target":{
						"node":3,
						"path":"rotation"
					}
				},
				{
					"sampler":26,
					"target":{
						"node":3,
						"path":"scale"
					}
				},
				{
					"sampler":27,
					"target":{
						"node":9,
						"path":"translation"
					}
				},
				{
					"sampler":28,
					"target":{
						"node":9,
						"path":"rotation"
					}
				},
				{
					"sampler":29,
					"target":{
						"node":9,
						"path":"scale"
					}
				},
				{
					"sampler":30,
					"target":{
						"node":8,
						"path":"translation"
					}
				},
				{
					"sampler":31,
					"target":{
						"node":8,
						"path":"rotation"
					}
				},
				{
					"sampler":32,
					"target":{
						"node":8,
						"path":"scale"
					}
				},
				{
					"sampler":33,
					"target":{
						"node":7,
						"path":"translation"
					}
				},
				{
					"sampler":34,
					"target":{
						"node":7,
						"path":"rotation"
					}
				},
				{
					"sampler":35,
					"target":{
						"node":7,
						"path":"scale"
					}
				},
				{
					"sampler":36,
					"target":{
						"node":16,
						"path":"translation"
					}
				},
				{
					"sampler":37,
					"target":{
						"node":16,
						"path":"rotation"
					}
				},
				{
					"sampler":38,
					"target":{
						"node":16,
						"path":"scale"
					}
				},
				{
					"sampler":39,
					"target":{
						"node":15,
						"path":"translation"
					}
				},
				{
					"sampler":40,
					"target":{
						"node":15,
						"path":"rotation"
					}
				},
				{
					"sampler":41,
					"target":{
						"node":15,
						"path":"scale"
					}
				},
				{
					"sampler":42,
					"target":{
						"node":14,
						"path":"translation"
					}
				},
				{
					"sampler":43,
					"target":{
						"node":14,
						"path":"rotation"
					}
				},
				{
					"sampler":44,
					"target":{
						"node":14,
						"path":"scale"
					}
				},
				{
					"sampler":45,
					"target":{
						"node":19,
						"path":"translation"
					}
				},
				{
					"sampler":46,
					"target":{
						"node":19,
						"path":"rotation"
					}
				},
				{
					"sampler":47,
					"target":{
						"node":19,
						"path":"scale"
					}
				},
				{
					"sampler":48,
					"target":{
						"node":18,
						"path":"translation"
					}
				},
				{
					"sampler":49,
					"target":{
						"node":18,
						"path":"rotation"
					}
				},
				{
					"sampler":50,
					"target":{
						"node":18,
						"path":"scale"
					}
				},
				{
					"sampler":51,
					"target":{
						"node":17,
						"path":"translation"
					}
				},
				{
					"sampler":52,
					"target":{
						"node":17,
						"path":"rotation"
					}
				},
				{
					"sampler":53,
					"target":{
						"node":17,
						"path":"scale"
					}
				}
			],
			"name":"Idle",
			"samplers":[
				{
					"input":95,
					"interpolation":"LINEAR",
					"output":96
				},
				{
					"input":97,
					"interpolation":"STEP",
					"output":22
				},
				{
					"input":97,
					"interpolation":"STEP",
					"output":23
				},
				{
					"input":97,
					"interpolation":"STEP",
					"output":24
				},
				{
					"input":97,
					"interpolation":"STEP",
					"output":22
				},
				{
					"input":97,
					"interpolation":"STEP",
					"output":23
				},
				{
					"input":97,
					"interpolation":"STEP",
					"output":25
				},
				{
					"input":95,
					"interpolation":"LINEAR",
					"output":98
				},
				{
					"input":97,
					"interpolation":"STEP",
					"output":23
				},
				{
					"input":97,
					"interpolation":"STEP",
					"output":70
				},
				{
					"input":97,
					"interpolation":"STEP",
					"output":71
				},
				{
					"input":97,
					"interpolation":"STEP",
					"output":72
				},
				{
					"input":97,
					"interpolation":"STEP",
					"output":73
				},
				{
					"input":95,
					"interpolation":"LINEAR",
					"output":99
				},
				{
					"input":97,
					"interpolation":"STEP",
					"output":100
				},
				{
					"input":97,
					"interpolation":"STEP",
					"output":101
				},
				{
					"input":97,
					"interpolation":"STEP",
					"output":102
				},
				{
					"input":97,
					"interpolation":"STEP",
					"output":72
				},
				{
					"input":97,
					"interpolation":"STEP",
					"output":77
				},
				{
					"input":97,
					"interpolation":"STEP",
					"output":103
				},
				{
					"input":97,
					"interpolation":"STEP",
					"output":104
				},
				{
					"input":97,
					"interpolation":"STEP",
					"output":105
				},
				{
					"input":95,
					"interpolation":"LINEAR",
					"output":106
				},
				{
					"input":97,
					"interpolation":"STEP",
					"output":23
				},
				{
					"input":97,
					"interpolation":"STEP",
					"output":107
				},
				{
					"input":97,
					"interpolation":"STEP",
					"output":108
				},
				{
					"input":97,
					"interpolation":"STEP",
					"output":109
				},
				{
					"input":97,
					"interpolation":"STEP",
					"output":86
				},
				{
					"input":97,
					"interpolation":"STEP",
					"output":110
				},
				{
					"input":97,
					"interpolation":"STEP",
					"output":88
				},
				{
					"input":97,
					"interpolation":"STEP",
					"output":89
				},
				{
					"input":97,
					"interpolation":"STEP",
					"output":111
				},
				{
					"input":97,
					"interpolation":"STEP",
					"output":112
				},
				{
					"input":97,
					"interpolation":"STEP",
					"output":113
				},
				{
					"input":97,
					"interpolation":"STEP",
					"output":114
				},
				{
					"input":97,
					"interpolation":"STEP",
					"output":115
				},
				{
					"input":97,
					"interpolation":"STEP",
					"output":52
				},
				{
					"input":95,
					"interpolation":"LINEAR",
					"output":116
				},
				{
					"input":97,
					"interpolation":"STEP",
					"output":23
				},
				{
					"input":97,
					"interpolation":"STEP",
					"output":54
				},
				{
					"input":97,
					"interpolation":"STEP",
					"output":55
				},
				{
					"input":97,
					"interpolation":"STEP",
					"output":29
				},
				{
					"input":97,
					"interpolation":"STEP",
					"output":56
				},
				{
					"input":97,
					"interpolation":"STEP",
					"output":57
				},
				{
					"input":97,
					"interpolation":"STEP",
					"output":58
				},
				{
					"input":97,
					"interpolation":"STEP",
					"output":59
				},
				{
					"input":95,
					"interpolation":"LINEAR",
					"output":117
				},
				{
					"input":97,
					"interpolation":"STEP",
					"output":23
				},
				{
					"input":97,
					"interpolation":"STEP",
					"output":118
				},
				{
					"input":97,
					"interpolation":"STEP",
					"output":119
				},
				{
					"input":97,
					"interpolation":"STEP",
					"output":29
				},
				{
					"input":97,
					"interpolation":"STEP",
					"output":120
				},
				{
					"input":97,
					"interpolation":"STEP",
					"output":121
				},
				{
					"input":97,
					"interpolation":"STEP",
					"output":43
				}
			]
		},
		{
			"channels":[
				{
					"sampler":0,
					"target":{
						"node":20,
						"path":"translation"
					}
				},
				{
					"sampler":1,
					"target":{
						"node":20,
						"path":"rotation"
					}
				},
				{
					"sampler":2,
					"target":{
						"node":20,
						"path":"scale"
					}
				},
				{
					"sampler":3,
					"target":{
						"node":13,
						"path":"translation"
					}
				},
				{
					"sampler":4,
					"target":{
						"node":13,
						"path":"rotation"
					}
				},
				{
					"sampler":5,
					"target":{
						"node":13,
						"path":"scale"
					}
				},
				{
					"sampler":6,
					"target":{
						"node":12,
						"path":"translation"
					}
				},
				{
					"sampler":7,
					"target":{
						"node":12,
						"path":"rotation"
					}
				},
				{
					"sampler":8,
					"target":{
						"node":12,
						"path":"scale"
					}
				},
				{
					"sampler":9,
					"target":{
						"node":2,
						"path":"translation"
					}
				},
				{
					"sampler":10,
					"target":{
						"node":2,
						"path":"rotation"
					}
				},
				{
					"sampler":11,
					"target":{
						"node":2,
						"path":"scale"
					}
				},
				{
					"sampler":12,
					"target":{
						"node":1,
						"path":"translation"
					}
				},
				{
					"sampler":13,
					"target":{
						"node":1,
						"path":"rotation"
					}
				},
				{
					"sampler":14,
					"target":{
						"node":1,
						"path":"scale"
					}
				},
				{
					"sampler":15,
					"target":{
						"node":0,
						"path":"translation"
					}
				},
				{
					"sampler":16,
					"target":{
						"node":0,
						"path":"rotation"
					}
				},
				{
					"sampler":17,
					"target":{
						"node":0,
						"path":"scale"
					}
				},
				{
					"sampler":18,
					"target":{
						"node":5,
						"path":"translation"
					}
				},
				{
					"sampler":19,
					"target":{
						"node":5,
						"path":"rotation"
					}
				},
				{
					"sampler":20,
					"target":{
						"node":5,
						"path":"scale"
					}
				},
				{
					"sampler":21,
					"target":{
						"node":4,
						"path":"translation"
					}
				},
				{
					"sampler":22,
					"target":{
						"node":4,
						"path":"rotation"
					}
				},
				{
					"sampler":23,
					"target":{
						"node":4,
						"path":"scale"
					}
				},
				{
					"sampler":24,
					"target":{
						"node":3,
						"path":"translation"
					}
				},
				{
					"sampler":25,
					"target":{
						"node":3,
						"path":"rotation"
					}
				},
				{
					"sampler":26,
					"target":{
						"node":3,
						"path":"scale"
					}
				},
				{
					"sampler":27,
					"target":{
						"node":9,
						"path":"translation"
					}
				},
				{
					"sampler":28,
					"target":{
						"node":9,
						"path":"rotation"
					}
				},
				{
					"sampler":29,
					"target":{
						"node":9,
						"path":"scale"
					}
				},
				{
					"sampler":30,
					"target":{
						"node":8,
						"path":"translation"
					}
				},
				{
					"sampler":31,
					"target":{
						"node":8,
						"path":"rotation"
					}
				},
				{
					"sampler":32,
					"target":{
						"node":8,
						"path":"scale"
					}
				},
				{
					"sampler":33,
					"target":{
						"node":7,
						"path":"translation"
					}
				},
				{
					"sampler":34,
					"target":{
						"node":7,
						"path":"rotation"
					}
				},
				{
					"sampler":35,
					"target":{
						"node":7,
						"path":"scale"
					}
				},
				{
					"sampler":36,
					"target":{
						"node":16,
						"path":"translation"
					}
				},
				{
					"sampler":37,
					"target":{
						"node":16,
						"path":"rotation"
					}
				},
				{
					"sampler":38,
					"target":{
						"node":16,
						"path":"scale"
					}
				},
				{
					"sampler":39,
					"target":{
						"node":15,
						"path":"translation"
					}
				},
				{
					"sampler":40,
					"target":{
						"node":15,
						"path":"rotation"
					}
				},
				{
					"sampler":41,
					"target":{
						"node":15,
						"path":"scale"
					}
				},
				{
					"sampler":42,
					"target":{
						"node":14,
						"path":"translation"
					}
				},
				{
					"sampler":43,
					"target":{
						"node":14,
						"path":"rotation"
					}
				},
				{
					"sampler":44,
					"target":{
						"node":14,
						"path":"scale"
					}
				},
				{
					"sampler":45,
					"target":{
						"node":19,
						"path":"translation"
					}
				},
				{
					"sampler":46,
					"target":{
						"node":19,
						"path":"rotation"
					}
				},
				{
					"sampler":47,
					"target":{
						"node":19,
						"path":"scale"
					}
				},
				{
					"sampler":48,
					"target":{
						"node":18,
						"path":"translation"
					}
				},
				{
					"sampler":49,
					"target":{
						"node":18,
						"path":"rotation"
					}
				},
				{
					"sampler":50,
					"target":{
						"node":18,
						"path":"scale"
					}
				},
				{
					"sampler":51,
					"target":{
						"node":17,
						"path":"translation"
					}
				},
				{
					"sampler":52,
					"target":{
						"node":17,
						"path":"rotation"
					}
				},
				{
					"sampler":53,
					"target":{
						"node":17,
						"path":"scale"
					}
				}
			],
			"name":"Laufen",
			"samplers":[
				{
					"input":65,
					"interpolation":"LINEAR",
					"output":122
				},
				{
					"input":67,
					"interpolation":"STEP",
					"output":123
				},
				{
					"input":67,
					"interpolation":"STEP",
					"output":23
				},
				{
					"input":67,
					"interpolation":"STEP",
					"output":124
				},
				{
					"input":67,
					"interpolation":"STEP",
					"output":22
				},
				{
					"input":67,
					"interpolation":"STEP",
					"output":23
				},
				{
					"input":67,
					"interpolation":"STEP",
					"output":125
				},
				{
					"input":65,
					"interpolation":"LINEAR",
					"output":126
				},
				{
					"input":67,
					"interpolation":"STEP",
					"output":23
				},
				{
					"input":67,
					"interpolation":"STEP",
					"output":127
				},
				{
					"input":67,
					"interpolation":"STEP",
					"output":71
				},
				{
					"input":67,
					"interpolation":"STEP",
					"output":72
				},
				{
					"input":67,
					"interpolation":"STEP",
					"output":128
				},
				{
					"input":67,
					"interpolation":"STEP",
					"output":129
				},
				{
					"input":67,
					"interpolation":"STEP",
					"output":29
				},
				{
					"input":67,
					"interpolation":"STEP",
					"output":130
				},
				{
					"input":67,
					"interpolation":"STEP",
					"output":131
				},
				{
					"input":67,
					"interpolation":"STEP",
					"output":34
				},
				{
					"input":67,
					"interpolation":"STEP",
					"output":132
				},
				{
					"input":65,
					"interpolation":"LINEAR",
					"output":133
				},
				{
					"input":67,
					"interpolation":"STEP",
					"output":134
				},
				{
					"input":67,
					"interpolation":"STEP",
					"output":135
				},
				{
					"input":67,
					"interpolation":"STEP",
					"output":136
				},
				{
					"input":67,
					"interpolation":"STEP",
					"output":137
				},
				{
					"input":67,
					"interpolation":"STEP",
					"output":138
				},
				{
					"input":67,
					"interpolation":"STEP",
					"output":139
				},
				{
					"input":67,
					"interpolation":"STEP",
					"output":29
				},
				{
					"input":67,
					"interpolation":"STEP",
					"output":140
				},
				{
					"input":67,
					"interpolation":"STEP",
					"output":141
				},
				{
					"input":67,
					"interpolation":"STEP",
					"output":142
				},
				{
					"input":67,
					"interpolation":"STEP",
					"output":143
				},
				{
					"input":67,
					"interpolation":"STEP",
					"output":144
				},
				{
					"input":67,
					"interpolation":"STEP",
					"output":145
				},
				{
					"input":67,
					"interpolation":"STEP",
					"output":146
				},
				{
					"input":67,
					"interpolation":"STEP",
					"output":147
				},
				{
					"input":67,
					"interpolation":"STEP",
					"output":148
				},
				{
					"input":67,
					"interpolation":"STEP",
					"output":149
				},
				{
					"input":65,
					"interpolation":"LINEAR",
					"output":150
				},
				{
					"input":67,
					"interpolation":"STEP",
					"output":29
				},
				{
					"input":67,
					"interpolation":"STEP",
					"output":151
				},
				{
					"input":67,
					"interpolation":"STEP",
					"output":152
				},
				{
					"input":67,
					"interpolation":"STEP",
					"output":51
				},
				{
					"input":67,
					"interpolation":"STEP",
					"output":153
				},
				{
					"input":67,
					"interpolation":"STEP",
					"output":154
				},
				{
					"input":67,
					"interpolation":"STEP",
					"output":43
				},
				{
					"input":67,
					"interpolation":"STEP",
					"output":155
				},
				{
					"input":65,
					"interpolation":"LINEAR",
					"output":156
				},
				{
					"input":67,
					"interpolation":"STEP",
					"output":23
				},
				{
					"input":67,
					"interpolation":"STEP",
					"output":157
				},
				{
					"input":67,
					"interpolation":"STEP",
					"output":158
				},
				{
					"input":67,
					"interpolation":"STEP",
					"output":51
				},
				{
					"input":67,
					"interpolation":"STEP",
					"output":159
				},
				{
					"input":67,
					"interpolation":"STEP",
					"output":160
				},
				{
					"input":67,
					"interpolation":"STEP",
					"output":43
				}
			]
		},
		{
			"channels":[
				{
					"sampler":0,
					"target":{
						"node":20,
						"path":"translation"
					}
				},
				{
					"sampler":1,
					"target":{
						"node":20,
						"path":"rotation"
					}
				},
				{
					"sampler":2,
					"target":{
						"node":20,
						"path":"scale"
					}
				},
				{
					"sampler":3,
					"target":{
						"node":13,
						"path":"translation"
					}
				},
				{
					"sampler":4,
					"target":{
						"node":13,
						"path":"rotation"
					}
				},
				{
					"sampler":5,
					"target":{
						"node":13,
						"path":"scale"
					}
				},
				{
					"sampler":6,
					"target":{
						"node":12,
						"path":"translation"
					}
				},
				{
					"sampler":7,
					"target":{
						"node":12,
						"path":"rotation"
					}
				},
				{
					"sampler":8,
					"target":{
						"node":12,
						"path":"scale"
					}
				},
				{
					"sampler":9,
					"target":{
						"node":2,
						"path":"translation"
					}
				},
				{
					"sampler":10,
					"target":{
						"node":2,
						"path":"rotation"
					}
				},
				{
					"sampler":11,
					"target":{
						"node":2,
						"path":"scale"
					}
				},
				{
					"sampler":12,
					"target":{
						"node":1,
						"path":"translation"
					}
				},
				{
					"sampler":13,
					"target":{
						"node":1,
						"path":"rotation"
					}
				},
				{
					"sampler":14,
					"target":{
						"node":1,
						"path":"scale"
					}
				},
				{
					"sampler":15,
					"target":{
						"node":0,
						"path":"translation"
					}
				},
				{
					"sampler":16,
					"target":{
						"node":0,
						"path":"rotation"
					}
				},
				{
					"sampler":17,
					"target":{
						"node":0,
						"path":"scale"
					}
				},
				{
					"sampler":18,
					"target":{
						"node":5,
						"path":"translation"
					}
				},
				{
					"sampler":19,
					"target":{
						"node":5,
						"path":"rotation"
					}
				},
				{
					"sampler":20,
					"target":{
						"node":5,
						"path":"scale"
					}
				},
				{
					"sampler":21,
					"target":{
						"node":4,
						"path":"translation"
					}
				},
				{
					"sampler":22,
					"target":{
						"node":4,
						"path":"rotation"
					}
				},
				{
					"sampler":23,
					"target":{
						"node":4,
						"path":"scale"
					}
				},
				{
					"sampler":24,
					"target":{
						"node":3,
						"path":"translation"
					}
				},
				{
					"sampler":25,
					"target":{
						"node":3,
						"path":"rotation"
					}
				},
				{
					"sampler":26,
					"target":{
						"node":3,
						"path":"scale"
					}
				},
				{
					"sampler":27,
					"target":{
						"node":9,
						"path":"translation"
					}
				},
				{
					"sampler":28,
					"target":{
						"node":9,
						"path":"rotation"
					}
				},
				{
					"sampler":29,
					"target":{
						"node":9,
						"path":"scale"
					}
				},
				{
					"sampler":30,
					"target":{
						"node":8,
						"path":"translation"
					}
				},
				{
					"sampler":31,
					"target":{
						"node":8,
						"path":"rotation"
					}
				},
				{
					"sampler":32,
					"target":{
						"node":8,
						"path":"scale"
					}
				},
				{
					"sampler":33,
					"target":{
						"node":7,
						"path":"translation"
					}
				},
				{
					"sampler":34,
					"target":{
						"node":7,
						"path":"rotation"
					}
				},
				{
					"sampler":35,
					"target":{
						"node":7,
						"path":"scale"
					}
				},
				{
					"sampler":36,
					"target":{
						"node":16,
						"path":"translation"
					}
				},
				{
					"sampler":37,
					"target":{
						"node":16,
						"path":"rotation"
					}
				},
				{
					"sampler":38,
					"target":{
						"node":16,
						"path":"scale"
					}
				},
				{
					"sampler":39,
					"target":{
						"node":15,
						"path":"translation"
					}
				},
				{
					"sampler":40,
					"target":{
						"node":15,
						"path":"rotation"
					}
				},
				{
					"sampler":41,
					"target":{
						"node":15,
						"path":"scale"
					}
				},
				{
					"sampler":42,
					"target":{
						"node":14,
						"path":"translation"
					}
				},
				{
					"sampler":43,
					"target":{
						"node":14,
						"path":"rotation"
					}
				},
				{
					"sampler":44,
					"target":{
						"node":14,
						"path":"scale"
					}
				},
				{
					"sampler":45,
					"target":{
						"node":19,
						"path":"translation"
					}
				},
				{
					"sampler":46,
					"target":{
						"node":19,
						"path":"rotation"
					}
				},
				{
					"sampler":47,
					"target":{
						"node":19,
						"path":"scale"
					}
				},
				{
					"sampler":48,
					"target":{
						"node":18,
						"path":"translation"
					}
				},
				{
					"sampler":49,
					"target":{
						"node":18,
						"path":"rotation"
					}
				},
				{
					"sampler":50,
					"target":{
						"node":18,
						"path":"scale"
					}
				},
				{
					"sampler":51,
					"target":{
						"node":17,
						"path":"translation"
					}
				},
				{
					"sampler":52,
					"target":{
						"node":17,
						"path":"rotation"
					}
				},
				{
					"sampler":53,
					"target":{
						"node":17,
						"path":"scale"
					}
				}
			],
			"name":"Tragen",
			"samplers":[
				{
					"input":161,
					"interpolation":"LINEAR",
					"output":162
				},
				{
					"input":163,
					"interpolation":"STEP",
					"output":123
				},
				{
					"input":163,
					"interpolation":"STEP",
					"output":23
				},
				{
					"input":163,
					"interpolation":"STEP",
					"output":124
				},
				{
					"input":163,
					"interpolation":"STEP",
					"output":22
				},
				{
					"input":163,
					"interpolation":"STEP",
					"output":23
				},
				{
					"input":163,
					"interpolation":"STEP",
					"output":125
				},
				{
					"input":161,
					"interpolation":"LINEAR",
					"output":164
				},
				{
					"input":163,
					"interpolation":"STEP",
					"output":23
				},
				{
					"input":163,
					"interpolation":"STEP",
					"output":127
				},
				{
					"input":163,
					"interpolation":"STEP",
					"output":71
				},
				{
					"input":163,
					"interpolation":"STEP",
					"output":72
				},
				{
					"input":163,
					"interpolation":"STEP",
					"output":128
				},
				{
					"input":163,
					"interpolation":"STEP",
					"output":129
				},
				{
					"input":163,
					"interpolation":"STEP",
					"output":29
				},
				{
					"input":163,
					"interpolation":"STEP",
					"output":130
				},
				{
					"input":163,
					"interpolation":"STEP",
					"output":131
				},
				{
					"input":163,
					"interpolation":"STEP",
					"output":34
				},
				{
					"input":163,
					"interpolation":"STEP",
					"output":132
				},
				{
					"input":163,
					"interpolation":"STEP",
					"output":165
				},
				{
					"input":163,
					"interpolation":"STEP",
					"output":104
				},
				{
					"input":163,
					"interpolation":"STEP",
					"output":166
				},
				{
					"input":163,
					"interpolation":"STEP",
					"output":167
				},
				{
					"input":163,
					"interpolation":"STEP",
					"output":168
				},
				{
					"input":163,
					"interpolation":"STEP",
					"output":169
				},
				{
					"input":163,
					"interpolation":"STEP",
					"output":170
				},
				{
					"input":163,
					"interpolation":"STEP",
					"output":171
				},
				{
					"input":163,
					"interpolation":"STEP",
					"output":140
				},
				{
					"input":163,
					"interpolation":"STEP",
					"output":172
				},
				{
					"input":163,
					"interpolation":"STEP",
					"output":173
				},
				{
					"input":163,
					"interpolation":"STEP",
					"output":174
				},
				{
					"input":163,
					"interpolation":"STEP",
					"output":175
				},
				{
					"input":163,
					"interpolation":"STEP",
					"output":176
				},
				{
					"input":163,
					"interpolation":"STEP",
					"output":177
				},
				{
					"input":163,
					"interpolation":"STEP",
					"output":178
				},
				{
					"input":163,
					"interpolation":"STEP",
					"output":179
				},
				{
					"input":163,
					"interpolation":"STEP",
					"output":149
				},
				{
					"input":161,
					"interpolation":"LINEAR",
					"output":180
				},
				{
					"input":163,
					"interpolation":"STEP",
					"output":29
				},
				{
					"input":163,
					"interpolation":"STEP",
					"output":151
				},
				{
					"input":163,
					"interpolation":"STEP",
					"output":152
				},
				{
					"input":163,
					"interpolation":"STEP",
					"output":51
				},
				{
					"input":163,
					"interpolation":"STEP",
					"output":153
				},
				{
					"input":163,
					"interpolation":"STEP",
					"output":154
				},
				{
					"input":163,
					"interpolation":"STEP",
					"output":43
				},
				{
					"input":163,
					"interpolation":"STEP",
					"output":155
				},
				{
					"input":161,
					"interpolation":"LINEAR",
					"output":181
				},
				{
					"input":163,
					"interpolation":"STEP",
					"output":23
				},
				{
					"input":163,
					"interpolation":"STEP",
					"output":157
				},
				{
					"input":163,
					"interpolation":"STEP",
					"output":158
				},
				{
					"input":163,
					"interpolation":"STEP",
					"output":51
				},
				{
					"input":163,
					"interpolation":"STEP",
					"output":159
				},
				{
					"input":163,
					"interpolation":"STEP",
					"output":160
				},
				{
					"input":163,
					"interpolation":"STEP",
					"output":43
				}
			]
		}
	],
	"materials":[
		{
			"doubleSided":true,
			"name":"Kristallmagier",
			"pbrMetallicRoughness":{
				"metallicFactor":0,
				"roughnessFactor":0.8500000238418579
			}
		}
	],
	"meshes":[
		{
			"name":"Hose",
			"primitives":[
				{
					"attributes":{
						"POSITION":0,
						"NORMAL":1,
						"COLOR_0":2,
						"JOINTS_0":3,
						"WEIGHTS_0":4
					},
					"indices":5,
					"material":0
				}
			]
		},
		{
			"name":"Werkzeug",
			"primitives":[
				{
					"attributes":{
						"POSITION":7,
						"NORMAL":8,
						"COLOR_0":9
					},
					"indices":10,
					"material":0
				}
			]
		},
		{
			"name":"Last",
			"primitives":[
				{
					"attributes":{
						"POSITION":11,
						"NORMAL":12,
						"COLOR_0":13
					},
					"indices":14,
					"material":0
				}
			]
		},
		{
			"name":"Werkzeug_Ruecken",
			"primitives":[
				{
					"attributes":{
						"POSITION":15,
						"NORMAL":16,
						"COLOR_0":17
					},
					"indices":18,
					"material":0
				}
			]
		}
	],
	"skins":[
		{
			"inverseBindMatrices":6,
			"joints":[
				20,
				13,
				12,
				2,
				1,
				0,
				5,
				4,
				3,
				9,
				8,
				7,
				16,
				15,
				14,
				19,
				18,
				17
			],
			"name":"KristallmagierSkelett"
		}
	],
	"accessors":[
		{
			"bufferView":0,
			"componentType":5126,
			"count":58270,
			"max":[
				0.41595157980918884,
				1.820464015007019,
				0.27588194608688354
			],
			"min":[
				-0.41595157980918884,
				-0.009999999776482582,
				-0.29754310846328735
			],
			"type":"VEC3"
		},
		{
			"bufferView":1,
			"componentType":5126,
			"count":58270,
			"type":"VEC3"
		},
		{
			"bufferView":2,
			"componentType":5126,
			"count":58270,
			"type":"VEC3"
		},
		{
			"bufferView":3,
			"componentType":5121,
			"count":58270,
			"type":"VEC4"
		},
		{
			"bufferView":4,
			"componentType":5126,
			"count":58270,
			"type":"VEC4"
		},
		{
			"bufferView":5,
			"componentType":5123,
			"count":75816,
			"type":"SCALAR"
		},
		{
			"bufferView":6,
			"componentType":5126,
			"count":18,
			"type":"MAT4"
		},
		{
			"bufferView":7,
			"componentType":5126,
			"count":1048,
			"max":[
				-0.24089740216732025,
				1.9399999380111694,
				0.13633498549461365
			],
			"min":[
				-0.373124361038208,
				0.05999999865889549,
				-0.016334984451532364
			],
			"type":"VEC3"
		},
		{
			"bufferView":8,
			"componentType":5126,
			"count":1048,
			"type":"VEC3"
		},
		{
			"bufferView":9,
			"componentType":5126,
			"count":1048,
			"type":"VEC3"
		},
		{
			"bufferView":10,
			"componentType":5123,
			"count":1542,
			"type":"SCALAR"
		},
		{
			"bufferView":11,
			"componentType":5126,
			"count":288,
			"max":[
				0.11869385093450546,
				1.25,
				0.38031089305877686
			],
			"min":[
				-0.1172376275062561,
				1.0299999713897705,
				0.2896890938282013
			],
			"type":"VEC3"
		},
		{
			"bufferView":12,
			"componentType":5126,
			"count":288,
			"type":"VEC3"
		},
		{
			"bufferView":13,
			"componentType":5126,
			"count":288,
			"type":"VEC3"
		},
		{
			"bufferView":14,
			"componentType":5123,
			"count":414,
			"type":"SCALAR"
		},
		{
			"bufferView":15,
			"componentType":5126,
			"count":1048,
			"max":[
				0.420530766248703,
				2.0273964405059814,
				-0.10194144397974014
			],
			"min":[
				-0.1962171047925949,
				0.22969657182693481,
				-0.2812335789203644
			],
			"type":"VEC3"
		},
		{
			"bufferView":16,
			"componentType":5126,
			"count":1048,
			"type":"VEC3"
		},
		{
			"bufferView":17,
			"componentType":5126,
			"count":1048,
			"type":"VEC3"
		},
		{
			"bufferView":18,
			"componentType":5123,
			"count":1542,
			"type":"SCALAR"
		},
		{
			"bufferView":19,
			"componentType":5126,
			"count":49,
			"max":[
				1.6
			],
			"min":[
				0
			],
			"type":"SCALAR"
		},
		{
			"bufferView":20,
			"componentType":5126,
			"count":49,
			"type":"VEC3"
		},
		{
			"bufferView":21,
			"componentType":5126,
			"count":2,
			"max":[
				1.6
			],
			"min":[
				0
			],
			"type":"SCALAR"
		},
		{
			"bufferView":22,
			"componentType":5126,
			"count":2,
			"type":"VEC4"
		},
		{
			"bufferView":23,
			"componentType":5126,
			"count":2,
			"type":"VEC3"
		},
		{
			"bufferView":24,
			"componentType":5126,
			"count":2,
			"type":"VEC3"
		},
		{
			"bufferView":25,
			"componentType":5126,
			"count":2,
			"type":"VEC3"
		},
		{
			"bufferView":26,
			"componentType":5126,
			"count":49,
			"type":"VEC4"
		},
		{
			"bufferView":27,
			"componentType":5126,
			"count":2,
			"type":"VEC3"
		},
		{
			"bufferView":28,
			"componentType":5126,
			"count":2,
			"type":"VEC4"
		},
		{
			"bufferView":29,
			"componentType":5126,
			"count":2,
			"type":"VEC3"
		},
		{
			"bufferView":30,
			"componentType":5126,
			"count":2,
			"type":"VEC3"
		},
		{
			"bufferView":31,
			"componentType":5126,
			"count":49,
			"type":"VEC4"
		},
		{
			"bufferView":32,
			"componentType":5126,
			"count":2,
			"type":"VEC3"
		},
		{
			"bufferView":33,
			"componentType":5126,
			"count":2,
			"type":"VEC4"
		},
		{
			"bufferView":34,
			"componentType":5126,
			"count":2,
			"type":"VEC3"
		},
		{
			"bufferView":35,
			"componentType":5126,
			"count":2,
			"type":"VEC3"
		},
		{
			"bufferView":36,
			"componentType":5126,
			"count":49,
			"type":"VEC4"
		},
		{
			"bufferView":37,
			"componentType":5126,
			"count":2,
			"type":"VEC3"
		},
		{
			"bufferView":38,
			"componentType":5126,
			"count":2,
			"type":"VEC3"
		},
		{
			"bufferView":39,
			"componentType":5126,
			"count":49,
			"type":"VEC4"
		},
		{
			"bufferView":40,
			"componentType":5126,
			"count":2,
			"type":"VEC3"
		},
		{
			"bufferView":41,
			"componentType":5126,
			"count":2,
			"type":"VEC3"
		},
		{
			"bufferView":42,
			"componentType":5126,
			"count":2,
			"type":"VEC4"
		},
		{
			"bufferView":43,
			"componentType":5126,
			"count":2,
			"type":"VEC3"
		},
		{
			"bufferView":44,
			"componentType":5126,
			"count":2,
			"type":"VEC3"
		},
		{
			"bufferView":45,
			"componentType":5126,
			"count":49,
			"type":"VEC4"
		},
		{
			"bufferView":46,
			"componentType":5126,
			"count":2,
			"type":"VEC3"
		},
		{
			"bufferView":47,
			"componentType":5126,
			"count":2,
			"type":"VEC3"
		},
		{
			"bufferView":48,
			"componentType":5126,
			"count":49,
			"type":"VEC4"
		},
		{
			"bufferView":49,
			"componentType":5126,
			"count":2,
			"type":"VEC3"
		},
		{
			"bufferView":50,
			"componentType":5126,
			"count":2,
			"type":"VEC4"
		},
		{
			"bufferView":51,
			"componentType":5126,
			"count":2,
			"type":"VEC3"
		},
		{
			"bufferView":52,
			"componentType":5126,
			"count":2,
			"type":"VEC3"
		},
		{
			"bufferView":53,
			"componentType":5126,
			"count":2,
			"type":"VEC4"
		},
		{
			"bufferView":54,
			"componentType":5126,
			"count":2,
			"type":"VEC3"
		},
		{
			"bufferView":55,
			"componentType":5126,
			"count":2,
			"type":"VEC4"
		},
		{
			"bufferView":56,
			"componentType":5126,
			"count":2,
			"type":"VEC3"
		},
		{
			"bufferView":57,
			"componentType":5126,
			"count":2,
			"type":"VEC4"
		},
		{
			"bufferView":58,
			"componentType":5126,
			"count":2,
			"type":"VEC3"
		},
		{
			"bufferView":59,
			"componentType":5126,
			"count":2,
			"type":"VEC3"
		},
		{
			"bufferView":60,
			"componentType":5126,
			"count":2,
			"type":"VEC4"
		},
		{
			"bufferView":61,
			"componentType":5126,
			"count":2,
			"type":"VEC3"
		},
		{
			"bufferView":62,
			"componentType":5126,
			"count":2,
			"type":"VEC4"
		},
		{
			"bufferView":63,
			"componentType":5126,
			"count":2,
			"type":"VEC3"
		},
		{
			"bufferView":64,
			"componentType":5126,
			"count":2,
			"type":"VEC4"
		},
		{
			"bufferView":65,
			"componentType":5126,
			"count":41,
			"max":[
				1.3333333333333333
			],
			"min":[
				0
			],
			"type":"SCALAR"
		},
		{
			"bufferView":66,
			"componentType":5126,
			"count":41,
			"type":"VEC3"
		},
		{
			"bufferView":67,
			"componentType":5126,
			"count":2,
			"max":[
				1.3333333333333333
			],
			"min":[
				0
			],
			"type":"SCALAR"
		},
		{
			"bufferView":68,
			"componentType":5126,
			"count":41,
			"type":"VEC4"
		},
		{
			"bufferView":69,
			"componentType":5126,
			"count":41,
			"type":"VEC4"
		},
		{
			"bufferView":70,
			"componentType":5126,
			"count":2,
			"type":"VEC3"
		},
		{
			"bufferView":71,
			"componentType":5126,
			"count":2,
			"type":"VEC4"
		},
		{
			"bufferView":72,
			"componentType":5126,
			"count":2,
			"type":"VEC3"
		},
		{
			"bufferView":73,
			"componentType":5126,
			"count":2,
			"type":"VEC3"
		},
		{
			"bufferView":74,
			"componentType":5126,
			"count":41,
			"type":"VEC4"
		},
		{
			"bufferView":75,
			"componentType":5126,
			"count":2,
			"type":"VEC3"
		},
		{
			"bufferView":76,
			"componentType":5126,
			"count":2,
			"type":"VEC4"
		},
		{
			"bufferView":77,
			"componentType":5126,
			"count":2,
			"type":"VEC3"
		},
		{
			"bufferView":78,
			"componentType":5126,
			"count":41,
			"type":"VEC4"
		},
		{
			"bufferView":79,
			"componentType":5126,
			"count":2,
			"type":"VEC3"
		},
		{
			"bufferView":80,
			"componentType":5126,
			"count":2,
			"type":"VEC3"
		},
		{
			"bufferView":81,
			"componentType":5126,
			"count":41,
			"type":"VEC4"
		},
		{
			"bufferView":82,
			"componentType":5126,
			"count":2,
			"type":"VEC3"
		},
		{
			"bufferView":83,
			"componentType":5126,
			"count":2,
			"type":"VEC3"
		},
		{
			"bufferView":84,
			"componentType":5126,
			"count":2,
			"type":"VEC4"
		},
		{
			"bufferView":85,
			"componentType":5126,
			"count":2,
			"type":"VEC3"
		},
		{
			"bufferView":86,
			"componentType":5126,
			"count":2,
			"type":"VEC3"
		},
		{
			"bufferView":87,
			"componentType":5126,
			"count":41,
			"type":"VEC4"
		},
		{
			"bufferView":88,
			"componentType":5126,
			"count":2,
			"type":"VEC3"
		},
		{
			"bufferView":89,
			"componentType":5126,
			"count":2,
			"type":"VEC3"
		},
		{
			"bufferView":90,
			"componentType":5126,
			"count":41,
			"type":"VEC4"
		},
		{
			"bufferView":91,
			"componentType":5126,
			"count":2,
			"type":"VEC3"
		},
		{
			"bufferView":92,
			"componentType":5126,
			"count":2,
			"type":"VEC3"
		},
		{
			"bufferView":93,
			"componentType":5126,
			"count":2,
			"type":"VEC4"
		},
		{
			"bufferView":94,
			"componentType":5126,
			"count":2,
			"type":"VEC3"
		},
		{
			"bufferView":95,
			"componentType":5126,
			"count":121,
			"max":[
				4
			],
			"min":[
				0
			],
			"type":"SCALAR"
		},
		{
			"bufferView":96,
			"componentType":5126,
			"count":121,
			"type":"VEC3"
		},
		{
			"bufferView":97,
			"componentType":5126,
			"count":2,
			"max":[
				4
			],
			"min":[
				0
			],
			"type":"SCALAR"
		},
		{
			"bufferView":98,
			"componentType":5126,
			"count":121,
			"type":"VEC4"
		},
		{
			"bufferView":99,
			"componentType":5126,
			"count":121,
			"type":"VEC4"
		},
		{
			"bufferView":100,
			"componentType":5126,
			"count":2,
			"type":"VEC3"
		},
		{
			"bufferView":101,
			"componentType":5126,
			"count":2,
			"type":"VEC3"
		},
		{
			"bufferView":102,
			"componentType":5126,
			"count":2,
			"type":"VEC4"
		},
		{
			"bufferView":103,
			"componentType":5126,
			"count":2,
			"type":"VEC4"
		},
		{
			"bufferView":104,
			"componentType":5126,
			"count":2,
			"type":"VEC3"
		},
		{
			"bufferView":105,
			"componentType":5126,
			"count":2,
			"type":"VEC3"
		},
		{
			"bufferView":106,
			"componentType":5126,
			"count":121,
			"type":"VEC4"
		},
		{
			"bufferView":107,
			"componentType":5126,
			"count":2,
			"type":"VEC3"
		},
		{
			"bufferView":108,
			"componentType":5126,
			"count":2,
			"type":"VEC4"
		},
		{
			"bufferView":109,
			"componentType":5126,
			"count":2,
			"type":"VEC3"
		},
		{
			"bufferView":110,
			"componentType":5126,
			"count":2,
			"type":"VEC4"
		},
		{
			"bufferView":111,
			"componentType":5126,
			"count":2,
			"type":"VEC4"
		},
		{
			"bufferView":112,
			"componentType":5126,
			"count":2,
			"type":"VEC3"
		},
		{
			"bufferView":113,
			"componentType":5126,
			"count":2,
			"type":"VEC3"
		},
		{
			"bufferView":114,
			"componentType":5126,
			"count":2,
			"type":"VEC4"
		},
		{
			"bufferView":115,
			"componentType":5126,
			"count":2,
			"type":"VEC3"
		},
		{
			"bufferView":116,
			"componentType":5126,
			"count":121,
			"type":"VEC4"
		},
		{
			"bufferView":117,
			"componentType":5126,
			"count":121,
			"type":"VEC4"
		},
		{
			"bufferView":118,
			"componentType":5126,
			"count":2,
			"type":"VEC3"
		},
		{
			"bufferView":119,
			"componentType":5126,
			"count":2,
			"type":"VEC4"
		},
		{
			"bufferView":120,
			"componentType":5126,
			"count":2,
			"type":"VEC3"
		},
		{
			"bufferView":121,
			"componentType":5126,
			"count":2,
			"type":"VEC4"
		},
		{
			"bufferView":122,
			"componentType":5126,
			"count":41,
			"type":"VEC3"
		},
		{
			"bufferView":123,
			"componentType":5126,
			"count":2,
			"type":"VEC4"
		},
		{
			"bufferView":124,
			"componentType":5126,
			"count":2,
			"type":"VEC3"
		},
		{
			"bufferView":125,
			"componentType":5126,
			"count":2,
			"type":"VEC3"
		},
		{
			"bufferView":126,
			"componentType":5126,
			"count":41,
			"type":"VEC4"
		},
		{
			"bufferView":127,
			"componentType":5126,
			"count":2,
			"type":"VEC3"
		},
		{
			"bufferView":128,
			"componentType":5126,
			"count":2,
			"type":"VEC3"
		},
		{
			"bufferView":129,
			"componentType":5126,
			"count":2,
			"type":"VEC4"
		},
		{
			"bufferView":130,
			"componentType":5126,
			"count":2,
			"type":"VEC3"
		},
		{
			"bufferView":131,
			"componentType":5126,
			"count":2,
			"type":"VEC4"
		},
		{
			"bufferView":132,
			"componentType":5126,
			"count":2,
			"type":"VEC3"
		},
		{
			"bufferView":133,
			"componentType":5126,
			"count":41,
			"type":"VEC4"
		},
		{
			"bufferView":134,
			"componentType":5126,
			"count":2,
			"type":"VEC3"
		},
		{
			"bufferView":135,
			"componentType":5126,
			"count":2,
			"type":"VEC3"
		},
		{
			"bufferView":136,
			"componentType":5126,
			"count":2,
			"type":"VEC4"
		},
		{
			"bufferView":137,
			"componentType":5126,
			"count":2,
			"type":"VEC3"
		},
		{
			"bufferView":138,
			"componentType":5126,
			"count":2,
			"type":"VEC3"
		},
		{
			"bufferView":139,
			"componentType":5126,
			"count":2,
			"type":"VEC4"
		},
		{
			"bufferView":140,
			"componentType":5126,
			"count":2,
			"type":"VEC3"
		},
		{
			"bufferView":141,
			"componentType":5126,
			"count":2,
			"type":"VEC4"
		},
		{
			"bufferView":142,
			"componentType":5126,
			"count":2,
			"type":"VEC3"
		},
		{
			"bufferView":143,
			"componentType":5126,
			"count":2,
			"type":"VEC3"
		},
		{
			"bufferView":144,
			"componentType":5126,
			"count":2,
			"type":"VEC4"
		},
		{
			"bufferView":145,
			"componentType":5126,
			"count":2,
			"type":"VEC3"
		},
		{
			"bufferView":146,
			"componentType":5126,
			"count":2,
			"type":"VEC3"
		},
		{
			"bufferView":147,
			"componentType":5126,
			"count":2,
			"type":"VEC4"
		},
		{
			"bufferView":148,
			"componentType":5126,
			"count":2,
			"type":"VEC3"
		},
		{
			"bufferView":149,
			"componentType":5126,
			"count":2,
			"type":"VEC3"
		},
		{
			"bufferView":150,
			"componentType":5126,
			"count":41,
			"type":"VEC4"
		},
		{
			"bufferView":151,
			"componentType":5126,
			"count":2,
			"type":"VEC3"
		},
		{
			"bufferView":152,
			"componentType":5126,
			"count":2,
			"type":"VEC4"
		},
		{
			"bufferView":153,
			"componentType":5126,
			"count":2,
			"type":"VEC3"
		},
		{
			"bufferView":154,
			"componentType":5126,
			"count":2,
			"type":"VEC4"
		},
		{
			"bufferView":155,
			"componentType":5126,
			"count":2,
			"type":"VEC3"
		},
		{
			"bufferView":156,
			"componentType":5126,
			"count":41,
			"type":"VEC4"
		},
		{
			"bufferView":157,
			"componentType":5126,
			"count":2,
			"type":"VEC3"
		},
		{
			"bufferView":158,
			"componentType":5126,
			"count":2,
			"type":"VEC4"
		},
		{
			"bufferView":159,
			"componentType":5126,
			"count":2,
			"type":"VEC3"
		},
		{
			"bufferView":160,
			"componentType":5126,
			"count":2,
			"type":"VEC4"
		},
		{
			"bufferView":161,
			"componentType":5126,
			"count":37,
			"max":[
				1.2
			],
			"min":[
				0
			],
			"type":"SCALAR"
		},
		{
			"bufferView":162,
			"componentType":5126,
			"count":37,
			"type":"VEC3"
		},
		{
			"bufferView":163,
			"componentType":5126,
			"count":2,
			"max":[
				1.2
			],
			"min":[
				0
			],
			"type":"SCALAR"
		},
		{
			"bufferView":164,
			"componentType":5126,
			"count":37,
			"type":"VEC4"
		},
		{
			"bufferView":165,
			"componentType":5126,
			"count":2,
			"type":"VEC4"
		},
		{
			"bufferView":166,
			"componentType":5126,
			"count":2,
			"type":"VEC3"
		},
		{
			"bufferView":167,
			"componentType":5126,
			"count":2,
			"type":"VEC4"
		},
		{
			"bufferView":168,
			"componentType":5126,
			"count":2,
			"type":"VEC3"
		},
		{
			"bufferView":169,
			"componentType":5126,
			"count":2,
			"type":"VEC3"
		},
		{
			"bufferView":170,
			"componentType":5126,
			"count":2,
			"type":"VEC4"
		},
		{
			"bufferView":171,
			"componentType":5126,
			"count":2,
			"type":"VEC3"
		},
		{
			"bufferView":172,
			"componentType":5126,
			"count":2,
			"type":"VEC4"
		},
		{
			"bufferView":173,
			"componentType":5126,
			"count":2,
			"type":"VEC3"
		},
		{
			"bufferView":174,
			"componentType":5126,
			"count":2,
			"type":"VEC3"
		},
		{
			"bufferView":175,
			"componentType":5126,
			"count":2,
			"type":"VEC4"
		},
		{
			"bufferView":176,
			"componentType":5126,
			"count":2,
			"type":"VEC3"
		},
		{
			"bufferView":177,
			"componentType":5126,
			"count":2,
			"type":"VEC3"
		},
		{
			"bufferView":178,
			"componentType":5126,
			"count":2,
			"type":"VEC4"
		},
		{
			"bufferView":179,
			"componentType":5126,
			"count":2,
			"type":"VEC3"
		},
		{
			"bufferView":180,
			"componentType":5126,
			"count":37,
			"type":"VEC4"
		},
		{
			"bufferView":181,
			"componentType":5126,
			"count":37,
			"type":"VEC4"
		}
	],
	"bufferViews":[
		{
			"buffer":0,
			"byteLength":699240,
			"byteOffset":0,
			"target":34962
		},
		{
			"buffer":0,
			"byteLength":699240,
			"byteOffset":699240,
			"target":34962
		},
		{
			"buffer":0,
			"byteLength":699240,
			"byteOffset":1398480,
			"target":34962
		},
		{
			"buffer":0,
			"byteLength":233080,
			"byteOffset":2097720,
			"target":34962
		},
		{
			"buffer":0,
			"byteLength":932320,
			"byteOffset":2330800,
			"target":34962
		},
		{
			"buffer":0,
			"byteLength":151632,
			"byteOffset":3263120,
			"target":34963
		},
		{
			"buffer":0,
			"byteLength":1152,
			"byteOffset":3414752
		},
		{
			"buffer":0,
			"byteLength":12576,
			"byteOffset":3415904,
			"target":34962
		},
		{
			"buffer":0,
			"byteLength":12576,
			"byteOffset":3428480,
			"target":34962
		},
		{
			"buffer":0,
			"byteLength":12576,
			"byteOffset":3441056,
			"target":34962
		},
		{
			"buffer":0,
			"byteLength":3084,
			"byteOffset":3453632,
			"target":34963
		},
		{
			"buffer":0,
			"byteLength":3456,
			"byteOffset":3456716,
			"target":34962
		},
		{
			"buffer":0,
			"byteLength":3456,
			"byteOffset":3460172,
			"target":34962
		},
		{
			"buffer":0,
			"byteLength":3456,
			"byteOffset":3463628,
			"target":34962
		},
		{
			"buffer":0,
			"byteLength":828,
			"byteOffset":3467084,
			"target":34963
		},
		{
			"buffer":0,
			"byteLength":12576,
			"byteOffset":3467912,
			"target":34962
		},
		{
			"buffer":0,
			"byteLength":12576,
			"byteOffset":3480488,
			"target":34962
		},
		{
			"buffer":0,
			"byteLength":12576,
			"byteOffset":3493064,
			"target":34962
		},
		{
			"buffer":0,
			"byteLength":3084,
			"byteOffset":3505640,
			"target":34963
		},
		{
			"buffer":0,
			"byteLength":196,
			"byteOffset":3508724
		},
		{
			"buffer":0,
			"byteLength":588,
			"byteOffset":3508920
		},
		{
			"buffer":0,
			"byteLength":8,
			"byteOffset":3509508
		},
		{
			"buffer":0,
			"byteLength":32,
			"byteOffset":3509516
		},
		{
			"buffer":0,
			"byteLength":24,
			"byteOffset":3509548
		},
		{
			"buffer":0,
			"byteLength":24,
			"byteOffset":3509572
		},
		{
			"buffer":0,
			"byteLength":24,
			"byteOffset":3509596
		},
		{
			"buffer":0,
			"byteLength":784,
			"byteOffset":3509620
		},
		{
			"buffer":0,
			"byteLength":24,
			"byteOffset":3510404
		},
		{
			"buffer":0,
			"byteLength":32,
			"byteOffset":3510428
		},
		{
			"buffer":0,
			"byteLength":24,
			"byteOffset":3510460
		},
		{
			"buffer":0,
			"byteLength":24,
			"byteOffset":3510484
		},
		{
			"buffer":0,
			"byteLength":784,
			"byteOffset":3510508
		},
		{
			"buffer":0,
			"byteLength":24,
			"byteOffset":3511292
		},
		{
			"buffer":0,
			"byteLength":32,
			"byteOffset":3511316
		},
		{
			"buffer":0,
			"byteLength":24,
			"byteOffset":3511348
		},
		{
			"buffer":0,
			"byteLength":24,
			"byteOffset":3511372
		},
		{
			"buffer":0,
			"byteLength":784,
			"byteOffset":3511396
		},
		{
			"buffer":0,
			"byteLength":24,
			"byteOffset":3512180
		},
		{
			"buffer":0,
			"byteLength":24,
			"byteOffset":3512204
		},
		{
			"buffer":0,
			"byteLength":784,
			"byteOffset":3512228
		},
		{
			"buffer":0,
			"byteLength":24,
			"byteOffset":3513012
		},
		{
			"buffer":0,
			"byteLength":24,
			"byteOffset":3513036
		},
		{
			"buffer":0,
			"byteLength":32,
			"byteOffset":3513060
		},
		{
			"buffer":0,
			"byteLength":24,
			"byteOffset":3513092
		},
		{
			"buffer":0,
			"byteLength":24,
			"byteOffset":3513116
		},
		{
			"buffer":0,
			"byteLength":784,
			"byteOffset":3513140
		},
		{
			"buffer":0,
			"byteLength":24,
			"byteOffset":3513924
		},
		{
			"buffer":0,
			"byteLength":24,
			"byteOffset":3513948
		},
		{
			"buffer":0,
			"byteLength":784,
			"byteOffset":3513972
		},
		{
			"buffer":0,
			"byteLength":24,
			"byteOffset":3514756
		},
		{
			"buffer":0,
			"byteLength":32,
			"byteOffset":3514780
		},
		{
			"buffer":0,
			"byteLength":24,
			"byteOffset":3514812
		},
		{
			"buffer":0,
			"byteLength":24,
			"byteOffset":3514836
		},
		{
			"buffer":0,
			"byteLength":32,
			"byteOffset":3514860
		},
		{
			"buffer":0,
			"byteLength":24,
			"byteOffset":3514892
		},
		{
			"buffer":0,
			"byteLength":32,
			"byteOffset":3514916
		},
		{
			"buffer":0,
			"byteLength":24,
			"byteOffset":3514948
		},
		{
			"buffer":0,
			"byteLength":32,
			"byteOffset":3514972
		},
		{
			"buffer":0,
			"byteLength":24,
			"byteOffset":3515004
		},
		{
			"buffer":0,
			"byteLength":24,
			"byteOffset":3515028
		},
		{
			"buffer":0,
			"byteLength":32,
			"byteOffset":3515052
		},
		{
			"buffer":0,
			"byteLength":24,
			"byteOffset":3515084
		},
		{
			"buffer":0,
			"byteLength":32,
			"byteOffset":3515108
		},
		{
			"buffer":0,
			"byteLength":24,
			"byteOffset":3515140
		},
		{
			"buffer":0,
			"byteLength":32,
			"byteOffset":3515164
		},
		{
			"buffer":0,
			"byteLength":164,
			"byteOffset":3515196
		},
		{
			"buffer":0,
			"byteLength":492,
			"byteOffset":3515360
		},
		{
			"buffer":0,
			"byteLength":8,
			"byteOffset":3515852
		},
		{
			"buffer":0,
			"byteLength":656,
			"byteOffset":3515860
		},
		{
			"buffer":0,
			"byteLength":656,
			"byteOffset":3516516
		},
		{
			"buffer":0,
			"byteLength":24,
			"byteOffset":3517172
		},
		{
			"buffer":0,
			"byteLength":32,
			"byteOffset":3517196
		},
		{
			"buffer":0,
			"byteLength":24,
			"byteOffset":3517228
		},
		{
			"buffer":0,
			"byteLength":24,
			"byteOffset":3517252
		},
		{
			"buffer":0,
			"byteLength":656,
			"byteOffset":3517276
		},
		{
			"buffer":0,
			"byteLength":24,
			"byteOffset":3517932
		},
		{
			"buffer":0,
			"byteLength":32,
			"byteOffset":3517956
		},
		{
			"buffer":0,
			"byteLength":24,
			"byteOffset":3517988
		},
		{
			"buffer":0,
			"byteLength":656,
			"byteOffset":3518012
		},
		{
			"buffer":0,
			"byteLength":24,
			"byteOffset":3518668
		},
		{
			"buffer":0,
			"byteLength":24,
			"byteOffset":3518692
		},
		{
			"buffer":0,
			"byteLength":656,
			"byteOffset":3518716
		},
		{
			"buffer":0,
			"byteLength":24,
			"byteOffset":3519372
		},
		{
			"buffer":0,
			"byteLength":24,
			"byteOffset":3519396
		},
		{
			"buffer":0,
			"byteLength":32,
			"byteOffset":3519420
		},
		{
			"buffer":0,
			"byteLength":24,
			"byteOffset":3519452
		},
		{
			"buffer":0,
			"byteLength":24,
			"byteOffset":3519476
		},
		{
			"buffer":0,
			"byteLength":656,
			"byteOffset":3519500
		},
		{
			"buffer":0,
			"byteLength":24,
			"byteOffset":3520156
		},
		{
			"buffer":0,
			"byteLength":24,
			"byteOffset":3520180
		},
		{
			"buffer":0,
			"byteLength":656,
			"byteOffset":3520204
		},
		{
			"buffer":0,
			"byteLength":24,
			"byteOffset":3520860
		},
		{
			"buffer":0,
			"byteLength":24,
			"byteOffset":3520884
		},
		{
			"buffer":0,
			"byteLength":32,
			"byteOffset":3520908
		},
		{
			"buffer":0,
			"byteLength":24,
			"byteOffset":3520940
		},
		{
			"buffer":0,
			"byteLength":484,
			"byteOffset":3520964
		},
		{
			"buffer":0,
			"byteLength":1452,
			"byteOffset":3521448
		},
		{
			"buffer":0,
			"byteLength":8,
			"byteOffset":3522900
		},
		{
			"buffer":0,
			"byteLength":1936,
			"byteOffset":3522908
		},
		{
			"buffer":0,
			"byteLength":1936,
			"byteOffset":3524844
		},
		{
			"buffer":0,
			"byteLength":24,
			"byteOffset":3526780
		},
		{
			"buffer":0,
			"byteLength":24,
			"byteOffset":3526804
		},
		{
			"buffer":0,
			"byteLength":32,
			"byteOffset":3526828
		},
		{
			"buffer":0,
			"byteLength":32,
			"byteOffset":3526860
		},
		{
			"buffer":0,
			"byteLength":24,
			"byteOffset":3526892
		},
		{
			"buffer":0,
			"byteLength":24,
			"byteOffset":3526916
		},
		{
			"buffer":0,
			"byteLength":1936,
			"byteOffset":3526940
		},
		{
			"buffer":0,
			"byteLength":24,
			"byteOffset":3528876
		},
		{
			"buffer":0,
			"byteLength":32,
			"byteOffset":3528900
		},
		{
			"buffer":0,
			"byteLength":24,
			"byteOffset":3528932
		},
		{
			"buffer":0,
			"byteLength":32,
			"byteOffset":3528956
		},
		{
			"buffer":0,
			"byteLength":32,
			"byteOffset":3528988
		},
		{
			"buffer":0,
			"byteLength":24,
			"byteOffset":3529020
		},
		{
			"buffer":0,
			"byteLength":24,
			"byteOffset":3529044
		},
		{
			"buffer":0,
			"byteLength":32,
			"byteOffset":3529068
		},
		{
			"buffer":0,
			"byteLength":24,
			"byteOffset":3529100
		},
		{
			"buffer":0,
			"byteLength":1936,
			"byteOffset":3529124
		},
		{
			"buffer":0,
			"byteLength":1936,
			"byteOffset":3531060
		},
		{
			"buffer":0,
			"byteLength":24,
			"byteOffset":3532996
		},
		{
			"buffer":0,
			"byteLength":32,
			"byteOffset":3533020
		},
		{
			"buffer":0,
			"byteLength":24,
			"byteOffset":3533052
		},
		{
			"buffer":0,
			"byteLength":32,
			"byteOffset":3533076
		},
		{
			"buffer":0,
			"byteLength":492,
			"byteOffset":3533108
		},
		{
			"buffer":0,
			"byteLength":32,
			"byteOffset":3533600
		},
		{
			"buffer":0,
			"byteLength":24,
			"byteOffset":3533632
		},
		{
			"buffer":0,
			"byteLength":24,
			"byteOffset":3533656
		},
		{
			"buffer":0,
			"byteLength":656,
			"byteOffset":3533680
		},
		{
			"buffer":0,
			"byteLength":24,
			"byteOffset":3534336
		},
		{
			"buffer":0,
			"byteLength":24,
			"byteOffset":3534360
		},
		{
			"buffer":0,
			"byteLength":32,
			"byteOffset":3534384
		},
		{
			"buffer":0,
			"byteLength":24,
			"byteOffset":3534416
		},
		{
			"buffer":0,
			"byteLength":32,
			"byteOffset":3534440
		},
		{
			"buffer":0,
			"byteLength":24,
			"byteOffset":3534472
		},
		{
			"buffer":0,
			"byteLength":656,
			"byteOffset":3534496
		},
		{
			"buffer":0,
			"byteLength":24,
			"byteOffset":3535152
		},
		{
			"buffer":0,
			"byteLength":24,
			"byteOffset":3535176
		},
		{
			"buffer":0,
			"byteLength":32,
			"byteOffset":3535200
		},
		{
			"buffer":0,
			"byteLength":24,
			"byteOffset":3535232
		},
		{
			"buffer":0,
			"byteLength":24,
			"byteOffset":3535256
		},
		{
			"buffer":0,
			"byteLength":32,
			"byteOffset":3535280
		},
		{
			"buffer":0,
			"byteLength":24,
			"byteOffset":3535312
		},
		{
			"buffer":0,
			"byteLength":32,
			"byteOffset":3535336
		},
		{
			"buffer":0,
			"byteLength":24,
			"byteOffset":3535368
		},
		{
			"buffer":0,
			"byteLength":24,
			"byteOffset":3535392
		},
		{
			"buffer":0,
			"byteLength":32,
			"byteOffset":3535416
		},
		{
			"buffer":0,
			"byteLength":24,
			"byteOffset":3535448
		},
		{
			"buffer":0,
			"byteLength":24,
			"byteOffset":3535472
		},
		{
			"buffer":0,
			"byteLength":32,
			"byteOffset":3535496
		},
		{
			"buffer":0,
			"byteLength":24,
			"byteOffset":3535528
		},
		{
			"buffer":0,
			"byteLength":24,
			"byteOffset":3535552
		},
		{
			"buffer":0,
			"byteLength":656,
			"byteOffset":3535576
		},
		{
			"buffer":0,
			"byteLength":24,
			"byteOffset":3536232
		},
		{
			"buffer":0,
			"byteLength":32,
			"byteOffset":3536256
		},
		{
			"buffer":0,
			"byteLength":24,
			"byteOffset":3536288
		},
		{
			"buffer":0,
			"byteLength":32,
			"byteOffset":3536312
		},
		{
			"buffer":0,
			"byteLength":24,
			"byteOffset":3536344
		},
		{
			"buffer":0,
			"byteLength":656,
			"byteOffset":3536368
		},
		{
			"buffer":0,
			"byteLength":24,
			"byteOffset":3537024
		},
		{
			"buffer":0,
			"byteLength":32,
			"byteOffset":3537048
		},
		{
			"buffer":0,
			"byteLength":24,
			"byteOffset":3537080
		},
		{
			"buffer":0,
			"byteLength":32,
			"byteOffset":3537104
		},
		{
			"buffer":0,
			"byteLength":148,
			"byteOffset":3537136
		},
		{
			"buffer":0,
			"byteLength":444,
			"byteOffset":3537284
		},
		{
			"buffer":0,
			"byteLength":8,
			"byteOffset":3537728
		},
		{
			"buffer":0,
			"byteLength":592,
			"byteOffset":3537736
		},
		{
			"buffer":0,
			"byteLength":32,
			"byteOffset":3538328
		},
		{
			"buffer":0,
			"byteLength":24,
			"byteOffset":3538360
		},
		{
			"buffer":0,
			"byteLength":32,
			"byteOffset":3538384
		},
		{
			"buffer":0,
			"byteLength":24,
			"byteOffset":3538416
		},
		{
			"buffer":0,
			"byteLength":24,
			"byteOffset":3538440
		},
		{
			"buffer":0,
			"byteLength":32,
			"byteOffset":3538464
		},
		{
			"buffer":0,
			"byteLength":24,
			"byteOffset":3538496
		},
		{
			"buffer":0,
			"byteLength":32,
			"byteOffset":3538520
		},
		{
			"buffer":0,
			"byteLength":24,
			"byteOffset":3538552
		},
		{
			"buffer":0,
			"byteLength":24,
			"byteOffset":3538576
		},
		{
			"buffer":0,
			"byteLength":32,
			"byteOffset":3538600
		},
		{
			"buffer":0,
			"byteLength":24,
			"byteOffset":3538632
		},
		{
			"buffer":0,
			"byteLength":24,
			"byteOffset":3538656
		},
		{
			"buffer":0,
			"byteLength":32,
			"byteOffset":3538680
		},
		{
			"buffer":0,
			"byteLength":24,
			"byteOffset":3538712
		},
		{
			"buffer":0,
			"byteLength":592,
			"byteOffset":3538736
		},
		{
			"buffer":0,
			"byteLength":592,
			"byteOffset":3539328
		}
	],
	"buffers":[
		{
			"byteLength":3539920,
			"uri":"kristallmagier.bin"
		}
	]
}
