{
	"asset":{
		"generator":"Khronos glTF Blender I/O v5.2.40",
		"version":"2.0"
	},
	"scene":0,
	"scenes":[
		{
			"name":"Scene",
			"nodes":[
				22
			]
		}
	],
	"nodes":[
		{
			"name":"Hut",
			"rotation":[
				-0.49269899725914,
				1.4670467862742953e-07,
				-8.306281529257831e-08,
				0.8701997995376587
			],
			"scale":[
				1,
				0.9999999403953552,
				1
			],
			"translation":[
				0,
				0.2600001096725464,
				-0.019999999552965164
			]
		},
		{
			"children":[
				0
			],
			"name":"Kopf",
			"rotation":[
				0,
				-5.9604641222676946e-08,
				0,
				1
			],
			"translation":[
				0,
				0.06000018119812012,
				0
			]
		},
		{
			"children":[
				1
			],
			"name":"Hals",
			"rotation":[
				0,
				5.9604641222676946e-08,
				0,
				1
			],
			"scale":[
				1,
				0.9999999403953552,
				1
			],
			"translation":[
				0,
				0.25,
				0
			]
		},
		{
			"name":"Hand.L",
			"rotation":[
				-0.045664913952350616,
				0.0027846242301166058,
				-0.01642555743455887,
				0.9988178610801697
			],
			"scale":[
				1,
				0.9999999403953552,
				1
			],
			"translation":[
				1.5012920684398523e-08,
				0.24601835012435913,
				5.587935447692871e-09
			]
		},
		{
			"children":[
				3
			],
			"name":"Unterarm.L",
			"rotation":[
				-0.096297487616539,
				-0.0013175290077924728,
				0.05131449177861214,
				0.9940280914306641
			],
			"scale":[
				0.9999999403953552,
				1,
				1
			],
			"translation":[
				-2.6896589844227492e-08,
				0.2823118567466736,
				1.5832483768463135e-08
			]
		},
		{
			"children":[
				4
			],
			"name":"Oberarm.L",
			"rotation":[
				-0.9890241026878357,
				-0.14344002306461334,
				0.005087628494948149,
				0.03507712483406067
			],
			"scale":[
				0.9999980330467224,
				0.9999997615814209,
				0.9999998807907104
			],
			"translation":[
				0.1899999976158142,
				0.20000004768371582,
				0
			]
		},
		{
			"mesh":1,
			"name":"Werkzeug",
			"rotation":[
				-0.9883642196655273,
				0.10849487781524658,
				0.01163237914443016,
				0.10597076267004013
			],
			"scale":[
				1.0000014305114746,
				1.000000238418579,
				0.9999999403953552
			],
			"translation":[
				0.5157531499862671,
				0.84693843126297,
				0.19395993649959564
			]
		},
		{
			"children":[
				6
			],
			"name":"Hand.R",
			"rotation":[
				-0.045664913952350616,
				-0.0027846242301166058,
				0.01642555743455887,
				0.9988178610801697
			],
			"scale":[
				1,
				0.9999999403953552,
				1
			],
			"translation":[
				-1.5012920684398523e-08,
				0.24601835012435913,
				5.587935447692871e-09
			]
		},
		{
			"children":[
				7
			],
			"name":"Unterarm.R",
			"rotation":[
				-0.096297487616539,
				0.0013175290077924728,
				-0.05131449177861214,
				0.9940280914306641
			],
			"scale":[
				0.9999999403953552,
				1,
				1
			],
			"translation":[
				2.6896589844227492e-08,
				0.2823118567466736,
				1.5832483768463135e-08
			]
		},
		{
			"children":[
				8
			],
			"name":"Oberarm.R",
			"rotation":[
				-0.9890241026878357,
				0.14344002306461334,
				-0.005087628494948149,
				0.03507712483406067
			],
			"scale":[
				0.9999980330467224,
				0.9999997615814209,
				0.9999998807907104
			],
			"translation":[
				-0.1899999976158142,
				0.20000004768371582,
				0
			]
		},
		{
			"mesh":2,
			"name":"Last",
			"translation":[
				0,
				-1.2699999809265137,
				0
			]
		},
		{
			"mesh":3,
			"name":"Werkzeug_Ruecken",
			"translation":[
				0,
				-1.2699999809265137,
				0
			]
		},
		{
			"children":[
				2,
				5,
				9,
				10,
				11
			],
			"name":"Brust",
			"translation":[
				0,
				0.19999992847442627,
				0
			]
		},
		{
			"children":[
				12
			],
			"name":"Bauch",
			"translation":[
				0,
				0.14000004529953003,
				0
			]
		},
		{
			"name":"Fuss.L",
			"rotation":[
				5.941208414128596e-09,
				0.812186062335968,
				-0.5833984613418579,
				6.131833174549683e-08
			],
			"scale":[
				1,
				0.9999996423721313,
				0.9999998807907104
			],
			"translation":[
				5.270791358924498e-09,
				0.41076144576072693,
				-1.210719524635806e-09
			]
		},
		{
			"children":[
				14
			],
			"name":"Unterschenkel.L",
			"rotation":[
				0.0362558513879776,
				4.653537999388391e-09,
				2.93763280367898e-09,
				0.9993425011634827
			],
			"translation":[
				8.257892702978609e-10,
				0.4300290644168854,
				1.8626700182267086e-10
			]
		},
		{
			"children":[
				15
			],
			"name":"Oberschenkel.L",
			"rotation":[
				0.9999830722808838,
				2.2199010685231002e-10,
				3.818359317619979e-08,
				0.005813658703118563
			],
			"translation":[
				0.10000000149011612,
				0,
				0
			]
		},
		{
			"name":"Fuss.R",
			"rotation":[
				5.941208414128596e-09,
				0.812186062335968,
				-0.5833984613418579,
				6.131833174549683e-08
			],
			"scale":[
				1,
				0.9999996423721313,
				0.9999998807907104
			],
			"translation":[
				-9.630369390833948e-09,
				0.41076144576072693,
				2.793969500203275e-10
			]
		},
		{
			"children":[
				17
			],
			"name":"Unterschenkel.R",
			"rotation":[
				0.0362558513879776,
				4.653537999388391e-09,
				2.93763280367898e-09,
				0.9993425011634827
			],
			"translation":[
				8.257892702978609e-10,
				0.4300290644168854,
				-1.8626700182267086e-10
			]
		},
		{
			"children":[
				18
			],
			"name":"Oberschenkel.R",
			"rotation":[
				0.9999830722808838,
				2.2199010685231002e-10,
				3.818359317619979e-08,
				0.005813658703118563
			],
			"translation":[
				-0.10000000149011612,
				0,
				0
			]
		},
		{
			"children":[
				13,
				16,
				19
			],
			"name":"Becken",
			"translation":[
				0,
				0.9300000071525574,
				0
			]
		},
		{
			"mesh":0,
			"name":"Lehmarbeiter",
			"skin":0
		},
		{
			"children":[
				21,
				20
			],
			"name":"LehmarbeiterSkelett"
		}
	],
	"animations":[
		{
			"channels":[
				{
					"sampler":0,
					"target":{
						"node":20,
						"path":"translation"
					}
				},
				{
					"sampler":1,
					"target":{
						"node":20,
						"path":"rotation"
					}
				},
				{
					"sampler":2,
					"target":{
						"node":20,
						"path":"scale"
					}
				},
				{
					"sampler":3,
					"target":{
						"node":13,
						"path":"translation"
					}
				},
				{
					"sampler":4,
					"target":{
						"node":13,
						"path":"rotation"
					}
				},
				{
					"sampler":5,
					"target":{
						"node":13,
						"path":"scale"
					}
				},
				{
					"sampler":6,
					"target":{
						"node":12,
						"path":"translation"
					}
				},
				{
					"sampler":7,
					"target":{
						"node":12,
						"path":"rotation"
					}
				},
				{
					"sampler":8,
					"target":{
						"node":12,
						"path":"scale"
					}
				},
				{
					"sampler":9,
					"target":{
						"node":2,
						"path":"translation"
					}
				},
				{
					"sampler":10,
					"target":{
						"node":2,
						"path":"rotation"
					}
				},
				{
					"sampler":11,
					"target":{
						"node":2,
						"path":"scale"
					}
				},
				{
					"sampler":12,
					"target":{
						"node":1,
						"path":"translation"
					}
				},
				{
					"sampler":13,
					"target":{
						"node":1,
						"path":"rotation"
					}
				},
				{
					"sampler":14,
					"target":{
						"node":1,
						"path":"scale"
					}
				},
				{
					"sampler":15,
					"target":{
						"node":0,
						"path":"translation"
					}
				},
				{
					"sampler":16,
					"target":{
						"node":0,
						"path":"rotation"
					}
				},
				{
					"sampler":17,
					"target":{
						"node":0,
						"path":"scale"
					}
				},
				{
					"sampler":18,
					"target":{
						"node":5,
						"path":"translation"
					}
				},
				{
					"sampler":19,
					"target":{
						"node":5,
						"path":"rotation"
					}
				},
				{
					"sampler":20,
					"target":{
						"node":5,
						"path":"scale"
					}
				},
				{
					"sampler":21,
					"target":{
						"node":4,
						"path":"translation"
					}
				},
				{
					"sampler":22,
					"target":{
						"node":4,
						"path":"rotation"
					}
				},
				{
					"sampler":23,
					"target":{
						"node":4,
						"path":"scale"
					}
				},
				{
					"sampler":24,
					"target":{
						"node":3,
						"path":"translation"
					}
				},
				{
					"sampler":25,
					"target":{
						"node":3,
						"path":"rotation"
					}
				},
				{
					"sampler":26,
					"target":{
						"node":3,
						"path":"scale"
					}
				},
				{
					"sampler":27,
					"target":{
						"node":9,
						"path":"translation"
					}
				},
				{
					"sampler":28,
					"target":{
						"node":9,
						"path":"rotation"
					}
				},
				{
					"sampler":29,
					"target":{
						"node":9,
						"path":"scale"
					}
				},
				{
					"sampler":30,
					"target":{
						"node":8,
						"path":"translation"
					}
				},
				{
					"sampler":31,
					"target":{
						"node":8,
						"path":"rotation"
					}
				},
				{
					"sampler":32,
					"target":{
						"node":8,
						"path":"scale"
					}
				},
				{
					"sampler":33,
					"target":{
						"node":7,
						"path":"translation"
					}
				},
				{
					"sampler":34,
					"target":{
						"node":7,
						"path":"rotation"
					}
				},
				{
					"sampler":35,
					"target":{
						"node":7,
						"path":"scale"
					}
				},
				{
					"sampler":36,
					"target":{
						"node":16,
						"path":"translation"
					}
				},
				{
					"sampler":37,
					"target":{
						"node":16,
						"path":"rotation"
					}
				},
				{
					"sampler":38,
					"target":{
						"node":16,
						"path":"scale"
					}
				},
				{
					"sampler":39,
					"target":{
						"node":15,
						"path":"translation"
					}
				},
				{
					"sampler":40,
					"target":{
						"node":15,
						"path":"rotation"
					}
				},
				{
					"sampler":41,
					"target":{
						"node":15,
						"path":"scale"
					}
				},
				{
					"sampler":42,
					"target":{
						"node":14,
						"path":"translation"
					}
				},
				{
					"sampler":43,
					"target":{
						"node":14,
						"path":"rotation"
					}
				},
				{
					"sampler":44,
					"target":{
						"node":14,
						"path":"scale"
					}
				},
				{
					"sampler":45,
					"target":{
						"node":19,
						"path":"translation"
					}
				},
				{
					"sampler":46,
					"target":{
						"node":19,
						"path":"rotation"
					}
				},
				{
					"sampler":47,
					"target":{
						"node":19,
						"path":"scale"
					}
				},
				{
					"sampler":48,
					"target":{
						"node":18,
						"path":"translation"
					}
				},
				{
					"sampler":49,
					"target":{
						"node":18,
						"path":"rotation"
					}
				},
				{
					"sampler":50,
					"target":{
						"node":18,
						"path":"scale"
					}
				},
				{
					"sampler":51,
					"target":{
						"node":17,
						"path":"translation"
					}
				},
				{
					"sampler":52,
					"target":{
						"node":17,
						"path":"rotation"
					}
				},
				{
					"sampler":53,
					"target":{
						"node":17,
						"path":"scale"
					}
				}
			],
			"name":"Arbeiten",
			"samplers":[
				{
					"input":19,
					"interpolation":"LINEAR",
					"output":20
				},
				{
					"input":21,
					"interpolation":"STEP",
					"output":22
				},
				{
					"input":21,
					"interpolation":"STEP",
					"output":23
				},
				{
					"input":21,
					"interpolation":"STEP",
					"output":24
				},
				{
					"input":19,
					"interpolation":"LINEAR",
					"output":25
				},
				{
					"input":21,
					"interpolation":"STEP",
					"output":23
				},
				{
					"input":21,
					"interpolation":"STEP",
					"output":26
				},
				{
					"input":19,
					"interpolation":"LINEAR",
					"output":27
				},
				{
					"input":21,
					"interpolation":"STEP",
					"output":23
				},
				{
					"input":21,
					"interpolation":"STEP",
					"output":28
				},
				{
					"input":21,
					"interpolation":"STEP",
					"output":29
				},
				{
					"input":21,
					"interpolation":"STEP",
					"output":23
				},
				{
					"input":21,
					"interpolation":"STEP",
					"output":30
				},
				{
					"input":19,
					"interpolation":"LINEAR",
					"output":31
				},
				{
					"input":21,
					"interpolation":"STEP",
					"output":23
				},
				{
					"input":21,
					"interpolation":"STEP",
					"output":32
				},
				{
					"input":21,
					"interpolation":"STEP",
					"output":33
				},
				{
					"input":21,
					"interpolation":"STEP",
					"output":34
				},
				{
					"input":21,
					"interpolation":"STEP",
					"output":35
				},
				{
					"input":19,
					"interpolation":"LINEAR",
					"output":36
				},
				{
					"input":21,
					"interpolation":"STEP",
					"output":37
				},
				{
					"input":21,
					"interpolation":"STEP",
					"output":38
				},
				{
					"input":21,
					"interpolation":"STEP",
					"output":39
				},
				{
					"input":21,
					"interpolation":"STEP",
					"output":40
				},
				{
					"input":21,
					"interpolation":"STEP",
					"output":41
				},
				{
					"input":21,
					"interpolation":"STEP",
					"output":42
				},
				{
					"input":21,
					"interpolation":"STEP",
					"output":43
				},
				{
					"input":21,
					"interpolation":"STEP",
					"output":44
				},
				{
					"input":19,
					"interpolation":"LINEAR",
					"output":45
				},
				{
					"input":21,
					"interpolation":"STEP",
					"output":37
				},
				{
					"input":21,
					"interpolation":"STEP",
					"output":46
				},
				{
					"input":19,
					"interpolation":"LINEAR",
					"output":47
				},
				{
					"input":21,
					"interpolation":"STEP",
					"output":48
				},
				{
					"input":21,
					"interpolation":"STEP",
					"output":49
				},
				{
					"input":19,
					"interpolation":"LINEAR",
					"output":50
				},
				{
					"input":21,
					"interpolation":"STEP",
					"output":51
				},
				{
					"input":21,
					"interpolation":"STEP",
					"output":52
				},
				{
					"input":19,
					"interpolation":"LINEAR",
					"output":53
				},
				{
					"input":21,
					"interpolation":"STEP",
					"output":23
				},
				{
					"input":21,
					"interpolation":"STEP",
					"output":54
				},
				{
					"input":19,
					"interpolation":"LINEAR",
					"output":55
				},
				{
					"input":21,
					"interpolation":"STEP",
					"output":23
				},
				{
					"input":21,
					"interpolation":"STEP",
					"output":56
				},
				{
					"input":19,
					"interpolation":"LINEAR",
					"output":57
				},
				{
					"input":21,
					"interpolation":"STEP",
					"output":58
				},
				{
					"input":21,
					"interpolation":"STEP",
					"output":59
				},
				{
					"input":19,
					"interpolation":"LINEAR",
					"output":60
				},
				{
					"input":21,
					"interpolation":"STEP",
					"output":23
				},
				{
					"input":21,
					"interpolation":"STEP",
					"output":61
				},
				{
					"input":19,
					"interpolation":"LINEAR",
					"output":62
				},
				{
					"input":21,
					"interpolation":"STEP",
					"output":63
				},
				{
					"input":21,
					"interpolation":"STEP",
					"output":64
				},
				{
					"input":19,
					"interpolation":"LINEAR",
					"output":65
				},
				{
					"input":21,
					"interpolation":"STEP",
					"output":66
				}
			]
		},
		{
			"channels":[
				{
					"sampler":0,
					"target":{
						"node":20,
						"path":"translation"
					}
				},
				{
					"sampler":1,
					"target":{
						"node":20,
						"path":"rotation"
					}
				},
				{
					"sampler":2,
					"target":{
						"node":20,
						"path":"scale"
					}
				},
				{
					"sampler":3,
					"target":{
						"node":13,
						"path":"translation"
					}
				},
				{
					"sampler":4,
					"target":{
						"node":13,
						"path":"rotation"
					}
				},
				{
					"sampler":5,
					"target":{
						"node":13,
						"path":"scale"
					}
				},
				{
					"sampler":6,
					"target":{
						"node":12,
						"path":"translation"
					}
				},
				{
					"sampler":7,
					"target":{
						"node":12,
						"path":"rotation"
					}
				},
				{
					"sampler":8,
					"target":{
						"node":12,
						"path":"scale"
					}
				},
				{
					"sampler":9,
					"target":{
						"node":2,
						"path":"translation"
					}
				},
				{
					"sampler":10,
					"target":{
						"node":2,
						"path":"rotation"
					}
				},
				{
					"sampler":11,
					"target":{
						"node":2,
						"path":"scale"
					}
				},
				{
					"sampler":12,
					"target":{
						"node":1,
						"path":"translation"
					}
				},
				{
					"sampler":13,
					"target":{
						"node":1,
						"path":"rotation"
					}
				},
				{
					"sampler":14,
					"target":{
						"node":1,
						"path":"scale"
					}
				},
				{
					"sampler":15,
					"target":{
						"node":0,
						"path":"translation"
					}
				},
				{
					"sampler":16,
					"target":{
						"node":0,
						"path":"rotation"
					}
				},
				{
					"sampler":17,
					"target":{
						"node":0,
						"path":"scale"
					}
				},
				{
					"sampler":18,
					"target":{
						"node":5,
						"path":"translation"
					}
				},
				{
					"sampler":19,
					"target":{
						"node":5,
						"path":"rotation"
					}
				},
				{
					"sampler":20,
					"target":{
						"node":5,
						"path":"scale"
					}
				},
				{
					"sampler":21,
					"target":{
						"node":4,
						"path":"translation"
					}
				},
				{
					"sampler":22,
					"target":{
						"node":4,
						"path":"rotation"
					}
				},
				{
					"sampler":23,
					"target":{
						"node":4,
						"path":"scale"
					}
				},
				{
					"sampler":24,
					"target":{
						"node":3,
						"path":"translation"
					}
				},
				{
					"sampler":25,
					"target":{
						"node":3,
						"path":"rotation"
					}
				},
				{
					"sampler":26,
					"target":{
						"node":3,
						"path":"scale"
					}
				},
				{
					"sampler":27,
					"target":{
						"node":9,
						"path":"translation"
					}
				},
				{
					"sampler":28,
					"target":{
						"node":9,
						"path":"rotation"
					}
				},
				{
					"sampler":29,
					"target":{
						"node":9,
						"path":"scale"
					}
				},
				{
					"sampler":30,
					"target":{
						"node":8,
						"path":"translation"
					}
				},
				{
					"sampler":31,
					"target":{
						"node":8,
						"path":"rotation"
					}
				},
				{
					"sampler":32,
					"target":{
						"node":8,
						"path":"scale"
					}
				},
				{
					"sampler":33,
					"target":{
						"node":7,
						"path":"translation"
					}
				},
				{
					"sampler":34,
					"target":{
						"node":7,
						"path":"rotation"
					}
				},
				{
					"sampler":35,
					"target":{
						"node":7,
						"path":"scale"
					}
				},
				{
					"sampler":36,
					"target":{
						"node":16,
						"path":"translation"
					}
				},
				{
					"sampler":37,
					"target":{
						"node":16,
						"path":"rotation"
					}
				},
				{
					"sampler":38,
					"target":{
						"node":16,
						"path":"scale"
					}
				},
				{
					"sampler":39,
					"target":{
						"node":15,
						"path":"translation"
					}
				},
				{
					"sampler":40,
					"target":{
						"node":15,
						"path":"rotation"
					}
				},
				{
					"sampler":41,
					"target":{
						"node":15,
						"path":"scale"
					}
				},
				{
					"sampler":42,
					"target":{
						"node":14,
						"path":"translation"
					}
				},
				{
					"sampler":43,
					"target":{
						"node":14,
						"path":"rotation"
					}
				},
				{
					"sampler":44,
					"target":{
						"node":14,
						"path":"scale"
					}
				},
				{
					"sampler":45,
					"target":{
						"node":19,
						"path":"translation"
					}
				},
				{
					"sampler":46,
					"target":{
						"node":19,
						"path":"rotation"
					}
				},
				{
					"sampler":47,
					"target":{
						"node":19,
						"path":"scale"
					}
				},
				{
					"sampler":48,
					"target":{
						"node":18,
						"path":"translation"
					}
				},
				{
					"sampler":49,
					"target":{
						"node":18,
						"path":"rotation"
					}
				},
				{
					"sampler":50,
					"target":{
						"node":18,
						"path":"scale"
					}
				},
				{
					"sampler":51,
					"target":{
						"node":17,
						"path":"translation"
					}
				},
				{
					"sampler":52,
					"target":{
						"node":17,
						"path":"rotation"
					}
				},
				{
					"sampler":53,
					"target":{
						"node":17,
						"path":"scale"
					}
				}
			],
			"name":"Buecken",
			"samplers":[
				{
					"input":67,
					"interpolation":"LINEAR",
					"output":68
				},
				{
					"input":69,
					"interpolation":"STEP",
					"output":22
				},
				{
					"input":69,
					"interpolation":"STEP",
					"output":23
				},
				{
					"input":69,
					"interpolation":"STEP",
					"output":24
				},
				{
					"input":67,
					"interpolation":"LINEAR",
					"output":70
				},
				{
					"input":69,
					"interpolation":"STEP",
					"output":23
				},
				{
					"input":69,
					"interpolation":"STEP",
					"output":71
				},
				{
					"input":67,
					"interpolation":"LINEAR",
					"output":72
				},
				{
					"input":69,
					"interpolation":"STEP",
					"output":23
				},
				{
					"input":69,
					"interpolation":"STEP",
					"output":73
				},
				{
					"input":69,
					"interpolation":"STEP",
					"output":74
				},
				{
					"input":69,
					"interpolation":"STEP",
					"output":75
				},
				{
					"input":69,
					"interpolation":"STEP",
					"output":76
				},
				{
					"input":67,
					"interpolation":"LINEAR",
					"output":77
				},
				{
					"input":69,
					"interpolation":"STEP",
					"output":23
				},
				{
					"input":69,
					"interpolation":"STEP",
					"output":78
				},
				{
					"input":69,
					"interpolation":"STEP",
					"output":79
				},
				{
					"input":69,
					"interpolation":"STEP",
					"output":80
				},
				{
					"input":69,
					"interpolation":"STEP",
					"output":81
				},
				{
					"input":67,
					"interpolation":"LINEAR",
					"output":82
				},
				{
					"input":69,
					"interpolation":"STEP",
					"output":37
				},
				{
					"input":69,
					"interpolation":"STEP",
					"output":83
				},
				{
					"input":67,
					"interpolation":"LINEAR",
					"output":84
				},
				{
					"input":69,
					"interpolation":"STEP",
					"output":85
				},
				{
					"input":69,
					"interpolation":"STEP",
					"output":86
				},
				{
					"input":69,
					"interpolation":"STEP",
					"output":87
				},
				{
					"input":69,
					"interpolation":"STEP",
					"output":88
				},
				{
					"input":69,
					"interpolation":"STEP",
					"output":89
				},
				{
					"input":67,
					"interpolation":"LINEAR",
					"output":90
				},
				{
					"input":69,
					"interpolation":"STEP",
					"output":91
				},
				{
					"input":69,
					"interpolation":"STEP",
					"output":92
				},
				{
					"input":67,
					"interpolation":"LINEAR",
					"output":93
				},
				{
					"input":69,
					"interpolation":"STEP",
					"output":85
				},
				{
					"input":69,
					"interpolation":"STEP",
					"output":94
				},
				{
					"input":69,
					"interpolation":"STEP",
					"output":95
				},
				{
					"input":69,
					"interpolation":"STEP",
					"output":96
				},
				{
					"input":69,
					"interpolation":"STEP",
					"output":52
				},
				{
					"input":67,
					"interpolation":"LINEAR",
					"output":97
				},
				{
					"input":69,
					"interpolation":"STEP",
					"output":23
				},
				{
					"input":69,
					"interpolation":"STEP",
					"output":98
				},
				{
					"input":67,
					"interpolation":"LINEAR",
					"output":99
				},
				{
					"input":69,
					"interpolation":"STEP",
					"output":63
				},
				{
					"input":69,
					"interpolation":"STEP",
					"output":100
				},
				{
					"input":67,
					"interpolation":"LINEAR",
					"output":101
				},
				{
					"input":69,
					"interpolation":"STEP",
					"output":102
				},
				{
					"input":69,
					"interpolation":"STEP",
					"output":59
				},
				{
					"input":67,
					"interpolation":"LINEAR",
					"output":103
				},
				{
					"input":69,
					"interpolation":"STEP",
					"output":23
				},
				{
					"input":69,
					"interpolation":"STEP",
					"output":104
				},
				{
					"input":67,
					"interpolation":"LINEAR",
					"output":105
				},
				{
					"input":69,
					"interpolation":"STEP",
					"output":63
				},
				{
					"input":69,
					"interpolation":"STEP",
					"output":106
				},
				{
					"input":67,
					"interpolation":"LINEAR",
					"output":107
				},
				{
					"input":69,
					"interpolation":"STEP",
					"output":102
				}
			]
		},
		{
			"channels":[
				{
					"sampler":0,
					"target":{
						"node":20,
						"path":"translation"
					}
				},
				{
					"sampler":1,
					"target":{
						"node":20,
						"path":"rotation"
					}
				},
				{
					"sampler":2,
					"target":{
						"node":20,
						"path":"scale"
					}
				},
				{
					"sampler":3,
					"target":{
						"node":13,
						"path":"translation"
					}
				},
				{
					"sampler":4,
					"target":{
						"node":13,
						"path":"rotation"
					}
				},
				{
					"sampler":5,
					"target":{
						"node":13,
						"path":"scale"
					}
				},
				{
					"sampler":6,
					"target":{
						"node":12,
						"path":"translation"
					}
				},
				{
					"sampler":7,
					"target":{
						"node":12,
						"path":"rotation"
					}
				},
				{
					"sampler":8,
					"target":{
						"node":12,
						"path":"scale"
					}
				},
				{
					"sampler":9,
					"target":{
						"node":2,
						"path":"translation"
					}
				},
				{
					"sampler":10,
					"target":{
						"node":2,
						"path":"rotation"
					}
				},
				{
					"sampler":11,
					"target":{
						"node":2,
						"path":"scale"
					}
				},
				{
					"sampler":12,
					"target":{
						"node":1,
						"path":"translation"
					}
				},
				{
					"sampler":13,
					"target":{
						"node":1,
						"path":"rotation"
					}
				},
				{
					"sampler":14,
					"target":{
						"node":1,
						"path":"scale"
					}
				},
				{
					"sampler":15,
					"target":{
						"node":0,
						"path":"translation"
					}
				},
				{
					"sampler":16,
					"target":{
						"node":0,
						"path":"rotation"
					}
				},
				{
					"sampler":17,
					"target":{
						"node":0,
						"path":"scale"
					}
				},
				{
					"sampler":18,
					"target":{
						"node":5,
						"path":"translation"
					}
				},
				{
					"sampler":19,
					"target":{
						"node":5,
						"path":"rotation"
					}
				},
				{
					"sampler":20,
					"target":{
						"node":5,
						"path":"scale"
					}
				},
				{
					"sampler":21,
					"target":{
						"node":4,
						"path":"translation"
					}
				},
				{
					"sampler":22,
					"target":{
						"node":4,
						"path":"rotation"
					}
				},
				{
					"sampler":23,
					"target":{
						"node":4,
						"path":"scale"
					}
				},
				{
					"sampler":24,
					"target":{
						"node":3,
						"path":"translation"
					}
				},
				{
					"sampler":25,
					"target":{
						"node":3,
						"path":"rotation"
					}
				},
				{
					"sampler":26,
					"target":{
						"node":3,
						"path":"scale"
					}
				},
				{
					"sampler":27,
					"target":{
						"node":9,
						"path":"translation"
					}
				},
				{
					"sampler":28,
					"target":{
						"node":9,
						"path":"rotation"
					}
				},
				{
					"sampler":29,
					"target":{
						"node":9,
						"path":"scale"
					}
				},
				{
					"sampler":30,
					"target":{
						"node":8,
						"path":"translation"
					}
				},
				{
					"sampler":31,
					"target":{
						"node":8,
						"path":"rotation"
					}
				},
				{
					"sampler":32,
					"target":{
						"node":8,
						"path":"scale"
					}
				},
				{
					"sampler":33,
					"target":{
						"node":7,
						"path":"translation"
					}
				},
				{
					"sampler":34,
					"target":{
						"node":7,
						"path":"rotation"
					}
				},
				{
					"sampler":35,
					"target":{
						"node":7,
						"path":"scale"
					}
				},
				{
					"sampler":36,
					"target":{
						"node":16,
						"path":"translation"
					}
				},
				{
					"sampler":37,
					"target":{
						"node":16,
						"path":"rotation"
					}
				},
				{
					"sampler":38,
					"target":{
						"node":16,
						"path":"scale"
					}
				},
				{
					"sampler":39,
					"target":{
						"node":15,
						"path":"translation"
					}
				},
				{
					"sampler":40,
					"target":{
						"node":15,
						"path":"rotation"
					}
				},
				{
					"sampler":41,
					"target":{
						"node":15,
						"path":"scale"
					}
				},
				{
					"sampler":42,
					"target":{
						"node":14,
						"path":"translation"
					}
				},
				{
					"sampler":43,
					"target":{
						"node":14,
						"path":"rotation"
					}
				},
				{
					"sampler":44,
					"target":{
						"node":14,
						"path":"scale"
					}
				},
				{
					"sampler":45,
					"target":{
						"node":19,
						"path":"translation"
					}
				},
				{
					"sampler":46,
					"target":{
						"node":19,
						"path":"rotation"
					}
				},
				{
					"sampler":47,
					"target":{
						"node":19,
						"path":"scale"
					}
				},
				{
					"sampler":48,
					"target":{
						"node":18,
						"path":"translation"
					}
				},
				{
					"sampler":49,
					"target":{
						"node":18,
						"path":"rotation"
					}
				},
				{
					"sampler":50,
					"target":{
						"node":18,
						"path":"scale"
					}
				},
				{
					"sampler":51,
					"target":{
						"node":17,
						"path":"translation"
					}
				},
				{
					"sampler":52,
					"target":{
						"node":17,
						"path":"rotation"
					}
				},
				{
					"sampler":53,
					"target":{
						"node":17,
						"path":"scale"
					}
				}
			],
			"name":"Idle",
			"samplers":[
				{
					"input":108,
					"interpolation":"LINEAR",
					"output":109
				},
				{
					"input":110,
					"interpolation":"STEP",
					"output":22
				},
				{
					"input":110,
					"interpolation":"STEP",
					"output":23
				},
				{
					"input":110,
					"interpolation":"STEP",
					"output":24
				},
				{
					"input":108,
					"interpolation":"LINEAR",
					"output":111
				},
				{
					"input":110,
					"interpolation":"STEP",
					"output":23
				},
				{
					"input":110,
					"interpolation":"STEP",
					"output":71
				},
				{
					"input":108,
					"interpolation":"LINEAR",
					"output":112
				},
				{
					"input":110,
					"interpolation":"STEP",
					"output":23
				},
				{
					"input":110,
					"interpolation":"STEP",
					"output":73
				},
				{
					"input":110,
					"interpolation":"STEP",
					"output":74
				},
				{
					"input":110,
					"interpolation":"STEP",
					"output":75
				},
				{
					"input":110,
					"interpolation":"STEP",
					"output":76
				},
				{
					"input":108,
					"interpolation":"LINEAR",
					"output":113
				},
				{
					"input":110,
					"interpolation":"STEP",
					"output":23
				},
				{
					"input":110,
					"interpolation":"STEP",
					"output":114
				},
				{
					"input":110,
					"interpolation":"STEP",
					"output":79
				},
				{
					"input":110,
					"interpolation":"STEP",
					"output":80
				},
				{
					"input":110,
					"interpolation":"STEP",
					"output":81
				},
				{
					"input":110,
					"interpolation":"STEP",
					"output":115
				},
				{
					"input":110,
					"interpolation":"STEP",
					"output":116
				},
				{
					"input":110,
					"interpolation":"STEP",
					"output":117
				},
				{
					"input":108,
					"interpolation":"LINEAR",
					"output":118
				},
				{
					"input":110,
					"interpolation":"STEP",
					"output":119
				},
				{
					"input":110,
					"interpolation":"STEP",
					"output":120
				},
				{
					"input":110,
					"interpolation":"STEP",
					"output":121
				},
				{
					"input":110,
					"interpolation":"STEP",
					"output":122
				},
				{
					"input":110,
					"interpolation":"STEP",
					"output":89
				},
				{
					"input":110,
					"interpolation":"STEP",
					"output":123
				},
				{
					"input":110,
					"interpolation":"STEP",
					"output":124
				},
				{
					"input":110,
					"interpolation":"STEP",
					"output":125
				},
				{
					"input":110,
					"interpolation":"STEP",
					"output":126
				},
				{
					"input":110,
					"interpolation":"STEP",
					"output":127
				},
				{
					"input":110,
					"interpolation":"STEP",
					"output":128
				},
				{
					"input":110,
					"interpolation":"STEP",
					"output":129
				},
				{
					"input":110,
					"interpolation":"STEP",
					"output":130
				},
				{
					"input":110,
					"interpolation":"STEP",
					"output":52
				},
				{
					"input":110,
					"interpolation":"STEP",
					"output":131
				},
				{
					"input":110,
					"interpolation":"STEP",
					"output":23
				},
				{
					"input":110,
					"interpolation":"STEP",
					"output":132
				},
				{
					"input":110,
					"interpolation":"STEP",
					"output":133
				},
				{
					"input":110,
					"interpolation":"STEP",
					"output":23
				},
				{
					"input":110,
					"interpolation":"STEP",
					"output":134
				},
				{
					"input":110,
					"interpolation":"STEP",
					"output":135
				},
				{
					"input":110,
					"interpolation":"STEP",
					"output":58
				},
				{
					"input":110,
					"interpolation":"STEP",
					"output":59
				},
				{
					"input":110,
					"interpolation":"STEP",
					"output":136
				},
				{
					"input":110,
					"interpolation":"STEP",
					"output":23
				},
				{
					"input":110,
					"interpolation":"STEP",
					"output":137
				},
				{
					"input":110,
					"interpolation":"STEP",
					"output":138
				},
				{
					"input":110,
					"interpolation":"STEP",
					"output":23
				},
				{
					"input":110,
					"interpolation":"STEP",
					"output":139
				},
				{
					"input":110,
					"interpolation":"STEP",
					"output":140
				},
				{
					"input":110,
					"interpolation":"STEP",
					"output":43
				}
			]
		},
		{
			"channels":[
				{
					"sampler":0,
					"target":{
						"node":20,
						"path":"translation"
					}
				},
				{
					"sampler":1,
					"target":{
						"node":20,
						"path":"rotation"
					}
				},
				{
					"sampler":2,
					"target":{
						"node":20,
						"path":"scale"
					}
				},
				{
					"sampler":3,
					"target":{
						"node":13,
						"path":"translation"
					}
				},
				{
					"sampler":4,
					"target":{
						"node":13,
						"path":"rotation"
					}
				},
				{
					"sampler":5,
					"target":{
						"node":13,
						"path":"scale"
					}
				},
				{
					"sampler":6,
					"target":{
						"node":12,
						"path":"translation"
					}
				},
				{
					"sampler":7,
					"target":{
						"node":12,
						"path":"rotation"
					}
				},
				{
					"sampler":8,
					"target":{
						"node":12,
						"path":"scale"
					}
				},
				{
					"sampler":9,
					"target":{
						"node":2,
						"path":"translation"
					}
				},
				{
					"sampler":10,
					"target":{
						"node":2,
						"path":"rotation"
					}
				},
				{
					"sampler":11,
					"target":{
						"node":2,
						"path":"scale"
					}
				},
				{
					"sampler":12,
					"target":{
						"node":1,
						"path":"translation"
					}
				},
				{
					"sampler":13,
					"target":{
						"node":1,
						"path":"rotation"
					}
				},
				{
					"sampler":14,
					"target":{
						"node":1,
						"path":"scale"
					}
				},
				{
					"sampler":15,
					"target":{
						"node":0,
						"path":"translation"
					}
				},
				{
					"sampler":16,
					"target":{
						"node":0,
						"path":"rotation"
					}
				},
				{
					"sampler":17,
					"target":{
						"node":0,
						"path":"scale"
					}
				},
				{
					"sampler":18,
					"target":{
						"node":5,
						"path":"translation"
					}
				},
				{
					"sampler":19,
					"target":{
						"node":5,
						"path":"rotation"
					}
				},
				{
					"sampler":20,
					"target":{
						"node":5,
						"path":"scale"
					}
				},
				{
					"sampler":21,
					"target":{
						"node":4,
						"path":"translation"
					}
				},
				{
					"sampler":22,
					"target":{
						"node":4,
						"path":"rotation"
					}
				},
				{
					"sampler":23,
					"target":{
						"node":4,
						"path":"scale"
					}
				},
				{
					"sampler":24,
					"target":{
						"node":3,
						"path":"translation"
					}
				},
				{
					"sampler":25,
					"target":{
						"node":3,
						"path":"rotation"
					}
				},
				{
					"sampler":26,
					"target":{
						"node":3,
						"path":"scale"
					}
				},
				{
					"sampler":27,
					"target":{
						"node":9,
						"path":"translation"
					}
				},
				{
					"sampler":28,
					"target":{
						"node":9,
						"path":"rotation"
					}
				},
				{
					"sampler":29,
					"target":{
						"node":9,
						"path":"scale"
					}
				},
				{
					"sampler":30,
					"target":{
						"node":8,
						"path":"translation"
					}
				},
				{
					"sampler":31,
					"target":{
						"node":8,
						"path":"rotation"
					}
				},
				{
					"sampler":32,
					"target":{
						"node":8,
						"path":"scale"
					}
				},
				{
					"sampler":33,
					"target":{
						"node":7,
						"path":"translation"
					}
				},
				{
					"sampler":34,
					"target":{
						"node":7,
						"path":"rotation"
					}
				},
				{
					"sampler":35,
					"target":{
						"node":7,
						"path":"scale"
					}
				},
				{
					"sampler":36,
					"target":{
						"node":16,
						"path":"translation"
					}
				},
				{
					"sampler":37,
					"target":{
						"node":16,
						"path":"rotation"
					}
				},
				{
					"sampler":38,
					"target":{
						"node":16,
						"path":"scale"
					}
				},
				{
					"sampler":39,
					"target":{
						"node":15,
						"path":"translation"
					}
				},
				{
					"sampler":40,
					"target":{
						"node":15,
						"path":"rotation"
					}
				},
				{
					"sampler":41,
					"target":{
						"node":15,
						"path":"scale"
					}
				},
				{
					"sampler":42,
					"target":{
						"node":14,
						"path":"translation"
					}
				},
				{
					"sampler":43,
					"target":{
						"node":14,
						"path":"rotation"
					}
				},
				{
					"sampler":44,
					"target":{
						"node":14,
						"path":"scale"
					}
				},
				{
					"sampler":45,
					"target":{
						"node":19,
						"path":"translation"
					}
				},
				{
					"sampler":46,
					"target":{
						"node":19,
						"path":"rotation"
					}
				},
				{
					"sampler":47,
					"target":{
						"node":19,
						"path":"scale"
					}
				},
				{
					"sampler":48,
					"target":{
						"node":18,
						"path":"translation"
					}
				},
				{
					"sampler":49,
					"target":{
						"node":18,
						"path":"rotation"
					}
				},
				{
					"sampler":50,
					"target":{
						"node":18,
						"path":"scale"
					}
				},
				{
					"sampler":51,
					"target":{
						"node":17,
						"path":"translation"
					}
				},
				{
					"sampler":52,
					"target":{
						"node":17,
						"path":"rotation"
					}
				},
				{
					"sampler":53,
					"target":{
						"node":17,
						"path":"scale"
					}
				}
			],
			"name":"Laufen",
			"samplers":[
				{
					"input":141,
					"interpolation":"LINEAR",
					"output":142
				},
				{
					"input":141,
					"interpolation":"LINEAR",
					"output":143
				},
				{
					"input":144,
					"interpolation":"STEP",
					"output":23
				},
				{
					"input":144,
					"interpolation":"STEP",
					"output":24
				},
				{
					"input":144,
					"interpolation":"STEP",
					"output":145
				},
				{
					"input":144,
					"interpolation":"STEP",
					"output":23
				},
				{
					"input":144,
					"interpolation":"STEP",
					"output":146
				},
				{
					"input":141,
					"interpolation":"LINEAR",
					"output":147
				},
				{
					"input":144,
					"interpolation":"STEP",
					"output":23
				},
				{
					"input":144,
					"interpolation":"STEP",
					"output":148
				},
				{
					"input":144,
					"interpolation":"STEP",
					"output":149
				},
				{
					"input":144,
					"interpolation":"STEP",
					"output":150
				},
				{
					"input":144,
					"interpolation":"STEP",
					"output":151
				},
				{
					"input":141,
					"interpolation":"LINEAR",
					"output":152
				},
				{
					"input":144,
					"interpolation":"STEP",
					"output":23
				},
				{
					"input":144,
					"interpolation":"STEP",
					"output":153
				},
				{
					"input":141,
					"interpolation":"LINEAR",
					"output":154
				},
				{
					"input":144,
					"interpolation":"STEP",
					"output":150
				},
				{
					"input":144,
					"interpolation":"STEP",
					"output":155
				},
				{
					"input":141,
					"interpolation":"LINEAR",
					"output":156
				},
				{
					"input":144,
					"interpolation":"STEP",
					"output":157
				},
				{
					"input":144,
					"interpolation":"STEP",
					"output":158
				},
				{
					"input":141,
					"interpolation":"LINEAR",
					"output":159
				},
				{
					"input":144,
					"interpolation":"STEP",
					"output":34
				},
				{
					"input":144,
					"interpolation":"STEP",
					"output":160
				},
				{
					"input":144,
					"interpolation":"STEP",
					"output":161
				},
				{
					"input":144,
					"interpolation":"STEP",
					"output":150
				},
				{
					"input":144,
					"interpolation":"STEP",
					"output":162
				},
				{
					"input":141,
					"interpolation":"LINEAR",
					"output":163
				},
				{
					"input":144,
					"interpolation":"STEP",
					"output":157
				},
				{
					"input":144,
					"interpolation":"STEP",
					"output":164
				},
				{
					"input":144,
					"interpolation":"STEP",
					"output":165
				},
				{
					"input":144,
					"interpolation":"STEP",
					"output":166
				},
				{
					"input":144,
					"interpolation":"STEP",
					"output":167
				},
				{
					"input":144,
					"interpolation":"STEP",
					"output":168
				},
				{
					"input":144,
					"interpolation":"STEP",
					"output":169
				},
				{
					"input":144,
					"interpolation":"STEP",
					"output":170
				},
				{
					"input":141,
					"interpolation":"LINEAR",
					"output":171
				},
				{
					"input":144,
					"interpolation":"STEP",
					"output":23
				},
				{
					"input":144,
					"interpolation":"STEP",
					"output":172
				},
				{
					"input":141,
					"interpolation":"LINEAR",
					"output":173
				},
				{
					"input":144,
					"interpolation":"STEP",
					"output":23
				},
				{
					"input":144,
					"interpolation":"STEP",
					"output":174
				},
				{
					"input":141,
					"interpolation":"LINEAR",
					"output":175
				},
				{
					"input":144,
					"interpolation":"STEP",
					"output":58
				},
				{
					"input":144,
					"interpolation":"STEP",
					"output":176
				},
				{
					"input":141,
					"interpolation":"LINEAR",
					"output":177
				},
				{
					"input":144,
					"interpolation":"STEP",
					"output":23
				},
				{
					"input":144,
					"interpolation":"STEP",
					"output":178
				},
				{
					"input":141,
					"interpolation":"LINEAR",
					"output":179
				},
				{
					"input":144,
					"interpolation":"STEP",
					"output":23
				},
				{
					"input":144,
					"interpolation":"STEP",
					"output":180
				},
				{
					"input":141,
					"interpolation":"LINEAR",
					"output":181
				},
				{
					"input":144,
					"interpolation":"STEP",
					"output":43
				}
			]
		},
		{
			"channels":[
				{
					"sampler":0,
					"target":{
						"node":20,
						"path":"translation"
					}
				},
				{
					"sampler":1,
					"target":{
						"node":20,
						"path":"rotation"
					}
				},
				{
					"sampler":2,
					"target":{
						"node":20,
						"path":"scale"
					}
				},
				{
					"sampler":3,
					"target":{
						"node":13,
						"path":"translation"
					}
				},
				{
					"sampler":4,
					"target":{
						"node":13,
						"path":"rotation"
					}
				},
				{
					"sampler":5,
					"target":{
						"node":13,
						"path":"scale"
					}
				},
				{
					"sampler":6,
					"target":{
						"node":12,
						"path":"translation"
					}
				},
				{
					"sampler":7,
					"target":{
						"node":12,
						"path":"rotation"
					}
				},
				{
					"sampler":8,
					"target":{
						"node":12,
						"path":"scale"
					}
				},
				{
					"sampler":9,
					"target":{
						"node":2,
						"path":"translation"
					}
				},
				{
					"sampler":10,
					"target":{
						"node":2,
						"path":"rotation"
					}
				},
				{
					"sampler":11,
					"target":{
						"node":2,
						"path":"scale"
					}
				},
				{
					"sampler":12,
					"target":{
						"node":1,
						"path":"translation"
					}
				},
				{
					"sampler":13,
					"target":{
						"node":1,
						"path":"rotation"
					}
				},
				{
					"sampler":14,
					"target":{
						"node":1,
						"path":"scale"
					}
				},
				{
					"sampler":15,
					"target":{
						"node":0,
						"path":"translation"
					}
				},
				{
					"sampler":16,
					"target":{
						"node":0,
						"path":"rotation"
					}
				},
				{
					"sampler":17,
					"target":{
						"node":0,
						"path":"scale"
					}
				},
				{
					"sampler":18,
					"target":{
						"node":5,
						"path":"translation"
					}
				},
				{
					"sampler":19,
					"target":{
						"node":5,
						"path":"rotation"
					}
				},
				{
					"sampler":20,
					"target":{
						"node":5,
						"path":"scale"
					}
				},
				{
					"sampler":21,
					"target":{
						"node":4,
						"path":"translation"
					}
				},
				{
					"sampler":22,
					"target":{
						"node":4,
						"path":"rotation"
					}
				},
				{
					"sampler":23,
					"target":{
						"node":4,
						"path":"scale"
					}
				},
				{
					"sampler":24,
					"target":{
						"node":3,
						"path":"translation"
					}
				},
				{
					"sampler":25,
					"target":{
						"node":3,
						"path":"rotation"
					}
				},
				{
					"sampler":26,
					"target":{
						"node":3,
						"path":"scale"
					}
				},
				{
					"sampler":27,
					"target":{
						"node":9,
						"path":"translation"
					}
				},
				{
					"sampler":28,
					"target":{
						"node":9,
						"path":"rotation"
					}
				},
				{
					"sampler":29,
					"target":{
						"node":9,
						"path":"scale"
					}
				},
				{
					"sampler":30,
					"target":{
						"node":8,
						"path":"translation"
					}
				},
				{
					"sampler":31,
					"target":{
						"node":8,
						"path":"rotation"
					}
				},
				{
					"sampler":32,
					"target":{
						"node":8,
						"path":"scale"
					}
				},
				{
					"sampler":33,
					"target":{
						"node":7,
						"path":"translation"
					}
				},
				{
					"sampler":34,
					"target":{
						"node":7,
						"path":"rotation"
					}
				},
				{
					"sampler":35,
					"target":{
						"node":7,
						"path":"scale"
					}
				},
				{
					"sampler":36,
					"target":{
						"node":16,
						"path":"translation"
					}
				},
				{
					"sampler":37,
					"target":{
						"node":16,
						"path":"rotation"
					}
				},
				{
					"sampler":38,
					"target":{
						"node":16,
						"path":"scale"
					}
				},
				{
					"sampler":39,
					"target":{
						"node":15,
						"path":"translation"
					}
				},
				{
					"sampler":40,
					"target":{
						"node":15,
						"path":"rotation"
					}
				},
				{
					"sampler":41,
					"target":{
						"node":15,
						"path":"scale"
					}
				},
				{
					"sampler":42,
					"target":{
						"node":14,
						"path":"translation"
					}
				},
				{
					"sampler":43,
					"target":{
						"node":14,
						"path":"rotation"
					}
				},
				{
					"sampler":44,
					"target":{
						"node":14,
						"path":"scale"
					}
				},
				{
					"sampler":45,
					"target":{
						"node":19,
						"path":"translation"
					}
				},
				{
					"sampler":46,
					"target":{
						"node":19,
						"path":"rotation"
					}
				},
				{
					"sampler":47,
					"target":{
						"node":19,
						"path":"scale"
					}
				},
				{
					"sampler":48,
					"target":{
						"node":18,
						"path":"translation"
					}
				},
				{
					"sampler":49,
					"target":{
						"node":18,
						"path":"rotation"
					}
				},
				{
					"sampler":50,
					"target":{
						"node":18,
						"path":"scale"
					}
				},
				{
					"sampler":51,
					"target":{
						"node":17,
						"path":"translation"
					}
				},
				{
					"sampler":52,
					"target":{
						"node":17,
						"path":"rotation"
					}
				},
				{
					"sampler":53,
					"target":{
						"node":17,
						"path":"scale"
					}
				}
			],
			"name":"Tragen",
			"samplers":[
				{
					"input":182,
					"interpolation":"LINEAR",
					"output":183
				},
				{
					"input":182,
					"interpolation":"LINEAR",
					"output":184
				},
				{
					"input":185,
					"interpolation":"STEP",
					"output":23
				},
				{
					"input":185,
					"interpolation":"STEP",
					"output":24
				},
				{
					"input":185,
					"interpolation":"STEP",
					"output":186
				},
				{
					"input":185,
					"interpolation":"STEP",
					"output":23
				},
				{
					"input":185,
					"interpolation":"STEP",
					"output":187
				},
				{
					"input":182,
					"interpolation":"LINEAR",
					"output":188
				},
				{
					"input":185,
					"interpolation":"STEP",
					"output":23
				},
				{
					"input":185,
					"interpolation":"STEP",
					"output":189
				},
				{
					"input":185,
					"interpolation":"STEP",
					"output":190
				},
				{
					"input":185,
					"interpolation":"STEP",
					"output":150
				},
				{
					"input":185,
					"interpolation":"STEP",
					"output":191
				},
				{
					"input":182,
					"interpolation":"LINEAR",
					"output":192
				},
				{
					"input":185,
					"interpolation":"STEP",
					"output":23
				},
				{
					"input":185,
					"interpolation":"STEP",
					"output":193
				},
				{
					"input":182,
					"interpolation":"LINEAR",
					"output":194
				},
				{
					"input":185,
					"interpolation":"STEP",
					"output":75
				},
				{
					"input":185,
					"interpolation":"STEP",
					"output":195
				},
				{
					"input":185,
					"interpolation":"STEP",
					"output":196
				},
				{
					"input":185,
					"interpolation":"STEP",
					"output":197
				},
				{
					"input":185,
					"interpolation":"STEP",
					"output":198
				},
				{
					"input":185,
					"interpolation":"STEP",
					"output":199
				},
				{
					"input":185,
					"interpolation":"STEP",
					"output":200
				},
				{
					"input":185,
					"interpolation":"STEP",
					"output":201
				},
				{
					"input":185,
					"interpolation":"STEP",
					"output":202
				},
				{
					"input":185,
					"interpolation":"STEP",
					"output":150
				},
				{
					"input":185,
					"interpolation":"STEP",
					"output":203
				},
				{
					"input":185,
					"interpolation":"STEP",
					"output":204
				},
				{
					"input":185,
					"interpolation":"STEP",
					"output":205
				},
				{
					"input":185,
					"interpolation":"STEP",
					"output":206
				},
				{
					"input":185,
					"interpolation":"STEP",
					"output":207
				},
				{
					"input":185,
					"interpolation":"STEP",
					"output":208
				},
				{
					"input":185,
					"interpolation":"STEP",
					"output":209
				},
				{
					"input":185,
					"interpolation":"STEP",
					"output":210
				},
				{
					"input":185,
					"interpolation":"STEP",
					"output":211
				},
				{
					"input":185,
					"interpolation":"STEP",
					"output":170
				},
				{
					"input":182,
					"interpolation":"LINEAR",
					"output":212
				},
				{
					"input":185,
					"interpolation":"STEP",
					"output":23
				},
				{
					"input":185,
					"interpolation":"STEP",
					"output":213
				},
				{
					"input":182,
					"interpolation":"LINEAR",
					"output":214
				},
				{
					"input":185,
					"interpolation":"STEP",
					"output":23
				},
				{
					"input":185,
					"interpolation":"STEP",
					"output":215
				},
				{
					"input":182,
					"interpolation":"LINEAR",
					"output":216
				},
				{
					"input":185,
					"interpolation":"STEP",
					"output":58
				},
				{
					"input":185,
					"interpolation":"STEP",
					"output":176
				},
				{
					"input":182,
					"interpolation":"LINEAR",
					"output":217
				},
				{
					"input":185,
					"interpolation":"STEP",
					"output":23
				},
				{
					"input":185,
					"interpolation":"STEP",
					"output":218
				},
				{
					"input":182,
					"interpolation":"LINEAR",
					"output":219
				},
				{
					"input":185,
					"interpolation":"STEP",
					"output":150
				},
				{
					"input":185,
					"interpolation":"STEP",
					"output":220
				},
				{
					"input":182,
					"interpolation":"LINEAR",
					"output":221
				},
				{
					"input":185,
					"interpolation":"STEP",
					"output":58
				}
			]
		}
	],
	"materials":[
		{
			"doubleSided":true,
			"name":"Lehmarbeiter",
			"pbrMetallicRoughness":{
				"metallicFactor":0,
				"roughnessFactor":0.8500000238418579
			}
		}
	],
	"meshes":[
		{
			"name":"Hose",
			"primitives":[
				{
					"attributes":{
						"POSITION":0,
						"NORMAL":1,
						"COLOR_0":2,
						"JOINTS_0":3,
						"WEIGHTS_0":4
					},
					"indices":5,
					"material":0
				}
			]
		},
		{
			"name":"Werkzeug",
			"primitives":[
				{
					"attributes":{
						"POSITION":7,
						"NORMAL":8,
						"COLOR_0":9
					},
					"indices":10,
					"material":0
				}
			]
		},
		{
			"name":"Last",
			"primitives":[
				{
					"attributes":{
						"POSITION":11,
						"NORMAL":12,
						"COLOR_0":13
					},
					"indices":14,
					"material":0
				}
			]
		},
		{
			"name":"Werkzeug_Ruecken",
			"primitives":[
				{
					"attributes":{
						"POSITION":15,
						"NORMAL":16,
						"COLOR_0":17
					},
					"indices":18,
					"material":0
				}
			]
		}
	],
	"skins":[
		{
			"inverseBindMatrices":6,
			"joints":[
				20,
				13,
				12,
				2,
				1,
				0,
				5,
				4,
				3,
				9,
				8,
				7,
				16,
				15,
				14,
				19,
				18,
				17
			],
			"name":"LehmarbeiterSkelett"
		}
	],
	"accessors":[
		{
			"bufferView":0,
			"componentType":5126,
			"count":48072,
			"max":[
				0.3878943920135498,
				1.85200035572052,
				0.24500000476837158
			],
			"min":[
				-0.36835935711860657,
				-0.009999999776482582,
				-0.24500000476837158
			],
			"type":"VEC3"
		},
		{
			"bufferView":1,
			"componentType":5126,
			"count":48072,
			"type":"VEC3"
		},
		{
			"bufferView":2,
			"componentType":5126,
			"count":48072,
			"type":"VEC3"
		},
		{
			"bufferView":3,
			"componentType":5121,
			"count":48072,
			"type":"VEC4"
		},
		{
			"bufferView":4,
			"componentType":5126,
			"count":48072,
			"type":"VEC4"
		},
		{
			"bufferView":5,
			"componentType":5123,
			"count":62442,
			"type":"SCALAR"
		},
		{
			"bufferView":6,
			"componentType":5126,
			"count":18,
			"type":"MAT4"
		},
		{
			"bufferView":7,
			"componentType":5126,
			"count":1088,
			"max":[
				-0.22999998927116394,
				1.0830000638961792,
				0.08282535523176193
			],
			"min":[
				-0.41999998688697815,
				-0.02500000223517418,
				0.03717464208602905
			],
			"type":"VEC3"
		},
		{
			"bufferView":8,
			"componentType":5126,
			"count":1088,
			"type":"VEC3"
		},
		{
			"bufferView":9,
			"componentType":5126,
			"count":1088,
			"type":"VEC3"
		},
		{
			"bufferView":10,
			"componentType":5123,
			"count":1608,
			"type":"SCALAR"
		},
		{
			"bufferView":11,
			"componentType":5126,
			"count":120,
			"max":[
				0.18426688015460968,
				1.1346256732940674,
				0.4237515330314636
			],
			"min":[
				-0.1858181208372116,
				0.9051775932312012,
				0.17544078826904297
			],
			"type":"VEC3"
		},
		{
			"bufferView":12,
			"componentType":5126,
			"count":120,
			"type":"VEC3"
		},
		{
			"bufferView":13,
			"componentType":5126,
			"count":120,
			"type":"VEC3"
		},
		{
			"bufferView":14,
			"componentType":5123,
			"count":180,
			"type":"SCALAR"
		},
		{
			"bufferView":15,
			"componentType":5126,
			"count":1088,
			"max":[
				0.3070698082447052,
				1.7955321073532104,
				-0.15770886838436127
			],
			"min":[
				-0.24524793028831482,
				0.7182291746139526,
				-0.26714175939559937
			],
			"type":"VEC3"
		},
		{
			"bufferView":16,
			"componentType":5126,
			"count":1088,
			"type":"VEC3"
		},
		{
			"bufferView":17,
			"componentType":5126,
			"count":1088,
			"type":"VEC3"
		},
		{
			"bufferView":18,
			"componentType":5123,
			"count":1608,
			"type":"SCALAR"
		},
		{
			"bufferView":19,
			"componentType":5126,
			"count":43,
			"max":[
				1.4
			],
			"min":[
				0
			],
			"type":"SCALAR"
		},
		{
			"bufferView":20,
			"componentType":5126,
			"count":43,
			"type":"VEC3"
		},
		{
			"bufferView":21,
			"componentType":5126,
			"count":2,
			"max":[
				1.4
			],
			"min":[
				0
			],
			"type":"SCALAR"
		},
		{
			"bufferView":22,
			"componentType":5126,
			"count":2,
			"type":"VEC4"
		},
		{
			"bufferView":23,
			"componentType":5126,
			"count":2,
			"type":"VEC3"
		},
		{
			"bufferView":24,
			"componentType":5126,
			"count":2,
			"type":"VEC3"
		},
		{
			"bufferView":25,
			"componentType":5126,
			"count":43,
			"type":"VEC4"
		},
		{
			"bufferView":26,
			"componentType":5126,
			"count":2,
			"type":"VEC3"
		},
		{
			"bufferView":27,
			"componentType":5126,
			"count":43,
			"type":"VEC4"
		},
		{
			"bufferView":28,
			"componentType":5126,
			"count":2,
			"type":"VEC3"
		},
		{
			"bufferView":29,
			"componentType":5126,
			"count":2,
			"type":"VEC4"
		},
		{
			"bufferView":30,
			"componentType":5126,
			"count":2,
			"type":"VEC3"
		},
		{
			"bufferView":31,
			"componentType":5126,
			"count":43,
			"type":"VEC4"
		},
		{
			"bufferView":32,
			"componentType":5126,
			"count":2,
			"type":"VEC3"
		},
		{
			"bufferView":33,
			"componentType":5126,
			"count":2,
			"type":"VEC4"
		},
		{
			"bufferView":34,
			"componentType":5126,
			"count":2,
			"type":"VEC3"
		},
		{
			"bufferView":35,
			"componentType":5126,
			"count":2,
			"type":"VEC3"
		},
		{
			"bufferView":36,
			"componentType":5126,
			"count":43,
			"type":"VEC4"
		},
		{
			"bufferView":37,
			"componentType":5126,
			"count":2,
			"type":"VEC3"
		},
		{
			"bufferView":38,
			"componentType":5126,
			"count":2,
			"type":"VEC3"
		},
		{
			"bufferView":39,
			"componentType":5126,
			"count":2,
			"type":"VEC4"
		},
		{
			"bufferView":40,
			"componentType":5126,
			"count":2,
			"type":"VEC3"
		},
		{
			"bufferView":41,
			"componentType":5126,
			"count":2,
			"type":"VEC3"
		},
		{
			"bufferView":42,
			"componentType":5126,
			"count":2,
			"type":"VEC4"
		},
		{
			"bufferView":43,
			"componentType":5126,
			"count":2,
			"type":"VEC3"
		},
		{
			"bufferView":44,
			"componentType":5126,
			"count":2,
			"type":"VEC3"
		},
		{
			"bufferView":45,
			"componentType":5126,
			"count":43,
			"type":"VEC4"
		},
		{
			"bufferView":46,
			"componentType":5126,
			"count":2,
			"type":"VEC3"
		},
		{
			"bufferView":47,
			"componentType":5126,
			"count":43,
			"type":"VEC4"
		},
		{
			"bufferView":48,
			"componentType":5126,
			"count":2,
			"type":"VEC3"
		},
		{
			"bufferView":49,
			"componentType":5126,
			"count":2,
			"type":"VEC3"
		},
		{
			"bufferView":50,
			"componentType":5126,
			"count":43,
			"type":"VEC4"
		},
		{
			"bufferView":51,
			"componentType":5126,
			"count":2,
			"type":"VEC3"
		},
		{
			"bufferView":52,
			"componentType":5126,
			"count":2,
			"type":"VEC3"
		},
		{
			"bufferView":53,
			"componentType":5126,
			"count":43,
			"type":"VEC4"
		},
		{
			"bufferView":54,
			"componentType":5126,
			"count":2,
			"type":"VEC3"
		},
		{
			"bufferView":55,
			"componentType":5126,
			"count":43,
			"type":"VEC4"
		},
		{
			"bufferView":56,
			"componentType":5126,
			"count":2,
			"type":"VEC3"
		},
		{
			"bufferView":57,
			"componentType":5126,
			"count":43,
			"type":"VEC4"
		},
		{
			"bufferView":58,
			"componentType":5126,
			"count":2,
			"type":"VEC3"
		},
		{
			"bufferView":59,
			"componentType":5126,
			"count":2,
			"type":"VEC3"
		},
		{
			"bufferView":60,
			"componentType":5126,
			"count":43,
			"type":"VEC4"
		},
		{
			"bufferView":61,
			"componentType":5126,
			"count":2,
			"type":"VEC3"
		},
		{
			"bufferView":62,
			"componentType":5126,
			"count":43,
			"type":"VEC4"
		},
		{
			"bufferView":63,
			"componentType":5126,
			"count":2,
			"type":"VEC3"
		},
		{
			"bufferView":64,
			"componentType":5126,
			"count":2,
			"type":"VEC3"
		},
		{
			"bufferView":65,
			"componentType":5126,
			"count":43,
			"type":"VEC4"
		},
		{
			"bufferView":66,
			"componentType":5126,
			"count":2,
			"type":"VEC3"
		},
		{
			"bufferView":67,
			"componentType":5126,
			"count":41,
			"max":[
				1.3333333333333333
			],
			"min":[
				0
			],
			"type":"SCALAR"
		},
		{
			"bufferView":68,
			"componentType":5126,
			"count":41,
			"type":"VEC3"
		},
		{
			"bufferView":69,
			"componentType":5126,
			"count":2,
			"max":[
				1.3333333333333333
			],
			"min":[
				0
			],
			"type":"SCALAR"
		},
		{
			"bufferView":70,
			"componentType":5126,
			"count":41,
			"type":"VEC4"
		},
		{
			"bufferView":71,
			"componentType":5126,
			"count":2,
			"type":"VEC3"
		},
		{
			"bufferView":72,
			"componentType":5126,
			"count":41,
			"type":"VEC4"
		},
		{
			"bufferView":73,
			"componentType":5126,
			"count":2,
			"type":"VEC3"
		},
		{
			"bufferView":74,
			"componentType":5126,
			"count":2,
			"type":"VEC4"
		},
		{
			"bufferView":75,
			"componentType":5126,
			"count":2,
			"type":"VEC3"
		},
		{
			"bufferView":76,
			"componentType":5126,
			"count":2,
			"type":"VEC3"
		},
		{
			"bufferView":77,
			"componentType":5126,
			"count":41,
			"type":"VEC4"
		},
		{
			"bufferView":78,
			"componentType":5126,
			"count":2,
			"type":"VEC3"
		},
		{
			"bufferView":79,
			"componentType":5126,
			"count":2,
			"type":"VEC4"
		},
		{
			"bufferView":80,
			"componentType":5126,
			"count":2,
			"type":"VEC3"
		},
		{
			"bufferView":81,
			"componentType":5126,
			"count":2,
			"type":"VEC3"
		},
		{
			"bufferView":82,
			"componentType":5126,
			"count":41,
			"type":"VEC4"
		},
		{
			"bufferView":83,
			"componentType":5126,
			"count":2,
			"type":"VEC3"
		},
		{
			"bufferView":84,
			"componentType":5126,
			"count":41,
			"type":"VEC4"
		},
		{
			"bufferView":85,
			"componentType":5126,
			"count":2,
			"type":"VEC3"
		},
		{
			"bufferView":86,
			"componentType":5126,
			"count":2,
			"type":"VEC3"
		},
		{
			"bufferView":87,
			"componentType":5126,
			"count":2,
			"type":"VEC4"
		},
		{
			"bufferView":88,
			"componentType":5126,
			"count":2,
			"type":"VEC3"
		},
		{
			"bufferView":89,
			"componentType":5126,
			"count":2,
			"type":"VEC3"
		},
		{
			"bufferView":90,
			"componentType":5126,
			"count":41,
			"type":"VEC4"
		},
		{
			"bufferView":91,
			"componentType":5126,
			"count":2,
			"type":"VEC3"
		},
		{
			"bufferView":92,
			"componentType":5126,
			"count":2,
			"type":"VEC3"
		},
		{
			"bufferView":93,
			"componentType":5126,
			"count":41,
			"type":"VEC4"
		},
		{
			"bufferView":94,
			"componentType":5126,
			"count":2,
			"type":"VEC3"
		},
		{
			"bufferView":95,
			"componentType":5126,
			"count":2,
			"type":"VEC4"
		},
		{
			"bufferView":96,
			"componentType":5126,
			"count":2,
			"type":"VEC3"
		},
		{
			"bufferView":97,
			"componentType":5126,
			"count":41,
			"type":"VEC4"
		},
		{
			"bufferView":98,
			"componentType":5126,
			"count":2,
			"type":"VEC3"
		},
		{
			"bufferView":99,
			"componentType":5126,
			"count":41,
			"type":"VEC4"
		},
		{
			"bufferView":100,
			"componentType":5126,
			"count":2,
			"type":"VEC3"
		},
		{
			"bufferView":101,
			"componentType":5126,
			"count":41,
			"type":"VEC4"
		},
		{
			"bufferView":102,
			"componentType":5126,
			"count":2,
			"type":"VEC3"
		},
		{
			"bufferView":103,
			"componentType":5126,
			"count":41,
			"type":"VEC4"
		},
		{
			"bufferView":104,
			"componentType":5126,
			"count":2,
			"type":"VEC3"
		},
		{
			"bufferView":105,
			"componentType":5126,
			"count":41,
			"type":"VEC4"
		},
		{
			"bufferView":106,
			"componentType":5126,
			"count":2,
			"type":"VEC3"
		},
		{
			"bufferView":107,
			"componentType":5126,
			"count":41,
			"type":"VEC4"
		},
		{
			"bufferView":108,
			"componentType":5126,
			"count":181,
			"max":[
				6
			],
			"min":[
				0
			],
			"type":"SCALAR"
		},
		{
			"bufferView":109,
			"componentType":5126,
			"count":181,
			"type":"VEC3"
		},
		{
			"bufferView":110,
			"componentType":5126,
			"count":2,
			"max":[
				6
			],
			"min":[
				0
			],
			"type":"SCALAR"
		},
		{
			"bufferView":111,
			"componentType":5126,
			"count":181,
			"type":"VEC4"
		},
		{
			"bufferView":112,
			"componentType":5126,
			"count":181,
			"type":"VEC4"
		},
		{
			"bufferView":113,
			"componentType":5126,
			"count":181,
			"type":"VEC4"
		},
		{
			"bufferView":114,
			"componentType":5126,
			"count":2,
			"type":"VEC3"
		},
		{
			"bufferView":115,
			"componentType":5126,
			"count":2,
			"type":"VEC4"
		},
		{
			"bufferView":116,
			"componentType":5126,
			"count":2,
			"type":"VEC3"
		},
		{
			"bufferView":117,
			"componentType":5126,
			"count":2,
			"type":"VEC3"
		},
		{
			"bufferView":118,
			"componentType":5126,
			"count":181,
			"type":"VEC4"
		},
		{
			"bufferView":119,
			"componentType":5126,
			"count":2,
			"type":"VEC3"
		},
		{
			"bufferView":120,
			"componentType":5126,
			"count":2,
			"type":"VEC3"
		},
		{
			"bufferView":121,
			"componentType":5126,
			"count":2,
			"type":"VEC4"
		},
		{
			"bufferView":122,
			"componentType":5126,
			"count":2,
			"type":"VEC3"
		},
		{
			"bufferView":123,
			"componentType":5126,
			"count":2,
			"type":"VEC4"
		},
		{
			"bufferView":124,
			"componentType":5126,
			"count":2,
			"type":"VEC3"
		},
		{
			"bufferView":125,
			"componentType":5126,
			"count":2,
			"type":"VEC3"
		},
		{
			"bufferView":126,
			"componentType":5126,
			"count":2,
			"type":"VEC4"
		},
		{
			"bufferView":127,
			"componentType":5126,
			"count":2,
			"type":"VEC3"
		},
		{
			"bufferView":128,
			"componentType":5126,
			"count":2,
			"type":"VEC3"
		},
		{
			"bufferView":129,
			"componentType":5126,
			"count":2,
			"type":"VEC4"
		},
		{
			"bufferView":130,
			"componentType":5126,
			"count":2,
			"type":"VEC3"
		},
		{
			"bufferView":131,
			"componentType":5126,
			"count":2,
			"type":"VEC4"
		},
		{
			"bufferView":132,
			"componentType":5126,
			"count":2,
			"type":"VEC3"
		},
		{
			"bufferView":133,
			"componentType":5126,
			"count":2,
			"type":"VEC4"
		},
		{
			"bufferView":134,
			"componentType":5126,
			"count":2,
			"type":"VEC3"
		},
		{
			"bufferView":135,
			"componentType":5126,
			"count":2,
			"type":"VEC4"
		},
		{
			"bufferView":136,
			"componentType":5126,
			"count":2,
			"type":"VEC4"
		},
		{
			"bufferView":137,
			"componentType":5126,
			"count":2,
			"type":"VEC3"
		},
		{
			"bufferView":138,
			"componentType":5126,
			"count":2,
			"type":"VEC4"
		},
		{
			"bufferView":139,
			"componentType":5126,
			"count":2,
			"type":"VEC3"
		},
		{
			"bufferView":140,
			"componentType":5126,
			"count":2,
			"type":"VEC4"
		},
		{
			"bufferView":141,
			"componentType":5126,
			"count":31,
			"max":[
				1
			],
			"min":[
				0
			],
			"type":"SCALAR"
		},
		{
			"bufferView":142,
			"componentType":5126,
			"count":31,
			"type":"VEC3"
		},
		{
			"bufferView":143,
			"componentType":5126,
			"count":31,
			"type":"VEC4"
		},
		{
			"bufferView":144,
			"componentType":5126,
			"count":2,
			"max":[
				1
			],
			"min":[
				0
			],
			"type":"SCALAR"
		},
		{
			"bufferView":145,
			"componentType":5126,
			"count":2,
			"type":"VEC4"
		},
		{
			"bufferView":146,
			"componentType":5126,
			"count":2,
			"type":"VEC3"
		},
		{
			"bufferView":147,
			"componentType":5126,
			"count":31,
			"type":"VEC4"
		},
		{
			"bufferView":148,
			"componentType":5126,
			"count":2,
			"type":"VEC3"
		},
		{
			"bufferView":149,
			"componentType":5126,
			"count":2,
			"type":"VEC4"
		},
		{
			"bufferView":150,
			"componentType":5126,
			"count":2,
			"type":"VEC3"
		},
		{
			"bufferView":151,
			"componentType":5126,
			"count":2,
			"type":"VEC3"
		},
		{
			"bufferView":152,
			"componentType":5126,
			"count":31,
			"type":"VEC4"
		},
		{
			"bufferView":153,
			"componentType":5126,
			"count":2,
			"type":"VEC3"
		},
		{
			"bufferView":154,
			"componentType":5126,
			"count":31,
			"type":"VEC4"
		},
		{
			"bufferView":155,
			"componentType":5126,
			"count":2,
			"type":"VEC3"
		},
		{
			"bufferView":156,
			"componentType":5126,
			"count":31,
			"type":"VEC4"
		},
		{
			"bufferView":157,
			"componentType":5126,
			"count":2,
			"type":"VEC3"
		},
		{
			"bufferView":158,
			"componentType":5126,
			"count":2,
			"type":"VEC3"
		},
		{
			"bufferView":159,
			"componentType":5126,
			"count":31,
			"type":"VEC4"
		},
		{
			"bufferView":160,
			"componentType":5126,
			"count":2,
			"type":"VEC3"
		},
		{
			"bufferView":161,
			"componentType":5126,
			"count":2,
			"type":"VEC4"
		},
		{
			"bufferView":162,
			"componentType":5126,
			"count":2,
			"type":"VEC3"
		},
		{
			"bufferView":163,
			"componentType":5126,
			"count":31,
			"type":"VEC4"
		},
		{
			"bufferView":164,
			"componentType":5126,
			"count":2,
			"type":"VEC3"
		},
		{
			"bufferView":165,
			"componentType":5126,
			"count":2,
			"type":"VEC4"
		},
		{
			"bufferView":166,
			"componentType":5126,
			"count":2,
			"type":"VEC3"
		},
		{
			"bufferView":167,
			"componentType":5126,
			"count":2,
			"type":"VEC3"
		},
		{
			"bufferView":168,
			"componentType":5126,
			"count":2,
			"type":"VEC4"
		},
		{
			"bufferView":169,
			"componentType":5126,
			"count":2,
			"type":"VEC3"
		},
		{
			"bufferView":170,
			"componentType":5126,
			"count":2,
			"type":"VEC3"
		},
		{
			"bufferView":171,
			"componentType":5126,
			"count":31,
			"type":"VEC4"
		},
		{
			"bufferView":172,
			"componentType":5126,
			"count":2,
			"type":"VEC3"
		},
		{
			"bufferView":173,
			"componentType":5126,
			"count":31,
			"type":"VEC4"
		},
		{
			"bufferView":174,
			"componentType":5126,
			"count":2,
			"type":"VEC3"
		},
		{
			"bufferView":175,
			"componentType":5126,
			"count":31,
			"type":"VEC4"
		},
		{
			"bufferView":176,
			"componentType":5126,
			"count":2,
			"type":"VEC3"
		},
		{
			"bufferView":177,
			"componentType":5126,
			"count":31,
			"type":"VEC4"
		},
		{
			"bufferView":178,
			"componentType":5126,
			"count":2,
			"type":"VEC3"
		},
		{
			"bufferView":179,
			"componentType":5126,
			"count":31,
			"type":"VEC4"
		},
		{
			"bufferView":180,
			"componentType":5126,
			"count":2,
			"type":"VEC3"
		},
		{
			"bufferView":181,
			"componentType":5126,
			"count":31,
			"type":"VEC4"
		},
		{
			"bufferView":182,
			"componentType":5126,
			"count":37,
			"max":[
				1.2
			],
			"min":[
				0
			],
			"type":"SCALAR"
		},
		{
			"bufferView":183,
			"componentType":5126,
			"count":37,
			"type":"VEC3"
		},
		{
			"bufferView":184,
			"componentType":5126,
			"count":37,
			"type":"VEC4"
		},
		{
			"bufferView":185,
			"componentType":5126,
			"count":2,
			"max":[
				1.2
			],
			"min":[
				0
			],
			"type":"SCALAR"
		},
		{
			"bufferView":186,
			"componentType":5126,
			"count":2,
			"type":"VEC4"
		},
		{
			"bufferView":187,
			"componentType":5126,
			"count":2,
			"type":"VEC3"
		},
		{
			"bufferView":188,
			"componentType":5126,
			"count":37,
			"type":"VEC4"
		},
		{
			"bufferView":189,
			"componentType":5126,
			"count":2,
			"type":"VEC3"
		},
		{
			"bufferView":190,
			"componentType":5126,
			"count":2,
			"type":"VEC4"
		},
		{
			"bufferView":191,
			"componentType":5126,
			"count":2,
			"type":"VEC3"
		},
		{
			"bufferView":192,
			"componentType":5126,
			"count":37,
			"type":"VEC4"
		},
		{
			"bufferView":193,
			"componentType":5126,
			"count":2,
			"type":"VEC3"
		},
		{
			"bufferView":194,
			"componentType":5126,
			"count":37,
			"type":"VEC4"
		},
		{
			"bufferView":195,
			"componentType":5126,
			"count":2,
			"type":"VEC3"
		},
		{
			"bufferView":196,
			"componentType":5126,
			"count":2,
			"type":"VEC4"
		},
		{
			"bufferView":197,
			"componentType":5126,
			"count":2,
			"type":"VEC3"
		},
		{
			"bufferView":198,
			"componentType":5126,
			"count":2,
			"type":"VEC3"
		},
		{
			"bufferView":199,
			"componentType":5126,
			"count":2,
			"type":"VEC4"
		},
		{
			"bufferView":200,
			"componentType":5126,
			"count":2,
			"type":"VEC3"
		},
		{
			"bufferView":201,
			"componentType":5126,
			"count":2,
			"type":"VEC3"
		},
		{
			"bufferView":202,
			"componentType":5126,
			"count":2,
			"type":"VEC4"
		},
		{
			"bufferView":203,
			"componentType":5126,
			"count":2,
			"type":"VEC3"
		},
		{
			"bufferView":204,
			"componentType":5126,
			"count":2,
			"type":"VEC4"
		},
		{
			"bufferView":205,
			"componentType":5126,
			"count":2,
			"type":"VEC3"
		},
		{
			"bufferView":206,
			"componentType":5126,
			"count":2,
			"type":"VEC3"
		},
		{
			"bufferView":207,
			"componentType":5126,
			"count":2,
			"type":"VEC4"
		},
		{
			"bufferView":208,
			"componentType":5126,
			"count":2,
			"type":"VEC3"
		},
		{
			"bufferView":209,
			"componentType":5126,
			"count":2,
			"type":"VEC3"
		},
		{
			"bufferView":210,
			"componentType":5126,
			"count":2,
			"type":"VEC4"
		},
		{
			"bufferView":211,
			"componentType":5126,
			"count":2,
			"type":"VEC3"
		},
		{
			"bufferView":212,
			"componentType":5126,
			"count":37,
			"type":"VEC4"
		},
		{
			"bufferView":213,
			"componentType":5126,
			"count":2,
			"type":"VEC3"
		},
		{
			"bufferView":214,
			"componentType":5126,
			"count":37,
			"type":"VEC4"
		},
		{
			"bufferView":215,
			"componentType":5126,
			"count":2,
			"type":"VEC3"
		},
		{
			"bufferView":216,
			"componentType":5126,
			"count":37,
			"type":"VEC4"
		},
		{
			"bufferView":217,
			"componentType":5126,
			"count":37,
			"type":"VEC4"
		},
		{
			"bufferView":218,
			"componentType":5126,
			"count":2,
			"type":"VEC3"
		},
		{
			"bufferView":219,
			"componentType":5126,
			"count":37,
			"type":"VEC4"
		},
		{
			"bufferView":220,
			"componentType":5126,
			"count":2,
			"type":"VEC3"
		},
		{
			"bufferView":221,
			"componentType":5126,
			"count":37,
			"type":"VEC4"
		}
	],
	"bufferViews":[
		{
			"buffer":0,
			"byteLength":576864,
			"byteOffset":0,
			"target":34962
		},
		{
			"buffer":0,
			"byteLength":576864,
			"byteOffset":576864,
			"target":34962
		},
		{
			"buffer":0,
			"byteLength":576864,
			"byteOffset":1153728,
			"target":34962
		},
		{
			"buffer":0,
			"byteLength":192288,
			"byteOffset":1730592,
			"target":34962
		},
		{
			"buffer":0,
			"byteLength":769152,
			"byteOffset":1922880,
			"target":34962
		},
		{
			"buffer":0,
			"byteLength":124884,
			"byteOffset":2692032,
			"target":34963
		},
		{
			"buffer":0,
			"byteLength":1152,
			"byteOffset":2816916
		},
		{
			"buffer":0,
			"byteLength":13056,
			"byteOffset":2818068,
			"target":34962
		},
		{
			"buffer":0,
			"byteLength":13056,
			"byteOffset":2831124,
			"target":34962
		},
		{
			"buffer":0,
			"byteLength":13056,
			"byteOffset":2844180,
			"target":34962
		},
		{
			"buffer":0,
			"byteLength":3216,
			"byteOffset":2857236,
			"target":34963
		},
		{
			"buffer":0,
			"byteLength":1440,
			"byteOffset":2860452,
			"target":34962
		},
		{
			"buffer":0,
			"byteLength":1440,
			"byteOffset":2861892,
			"target":34962
		},
		{
			"buffer":0,
			"byteLength":1440,
			"byteOffset":2863332,
			"target":34962
		},
		{
			"buffer":0,
			"byteLength":360,
			"byteOffset":2864772,
			"target":34963
		},
		{
			"buffer":0,
			"byteLength":13056,
			"byteOffset":2865132,
			"target":34962
		},
		{
			"buffer":0,
			"byteLength":13056,
			"byteOffset":2878188,
			"target":34962
		},
		{
			"buffer":0,
			"byteLength":13056,
			"byteOffset":2891244,
			"target":34962
		},
		{
			"buffer":0,
			"byteLength":3216,
			"byteOffset":2904300,
			"target":34963
		},
		{
			"buffer":0,
			"byteLength":172,
			"byteOffset":2907516
		},
		{
			"buffer":0,
			"byteLength":516,
			"byteOffset":2907688
		},
		{
			"buffer":0,
			"byteLength":8,
			"byteOffset":2908204
		},
		{
			"buffer":0,
			"byteLength":32,
			"byteOffset":2908212
		},
		{
			"buffer":0,
			"byteLength":24,
			"byteOffset":2908244
		},
		{
			"buffer":0,
			"byteLength":24,
			"byteOffset":2908268
		},
		{
			"buffer":0,
			"byteLength":688,
			"byteOffset":2908292
		},
		{
			"buffer":0,
			"byteLength":24,
			"byteOffset":2908980
		},
		{
			"buffer":0,
			"byteLength":688,
			"byteOffset":2909004
		},
		{
			"buffer":0,
			"byteLength":24,
			"byteOffset":2909692
		},
		{
			"buffer":0,
			"byteLength":32,
			"byteOffset":2909716
		},
		{
			"buffer":0,
			"byteLength":24,
			"byteOffset":2909748
		},
		{
			"buffer":0,
			"byteLength":688,
			"byteOffset":2909772
		},
		{
			"buffer":0,
			"byteLength":24,
			"byteOffset":2910460
		},
		{
			"buffer":0,
			"byteLength":32,
			"byteOffset":2910484
		},
		{
			"buffer":0,
			"byteLength":24,
			"byteOffset":2910516
		},
		{
			"buffer":0,
			"byteLength":24,
			"byteOffset":2910540
		},
		{
			"buffer":0,
			"byteLength":688,
			"byteOffset":2910564
		},
		{
			"buffer":0,
			"byteLength":24,
			"byteOffset":2911252
		},
		{
			"buffer":0,
			"byteLength":24,
			"byteOffset":2911276
		},
		{
			"buffer":0,
			"byteLength":32,
			"byteOffset":2911300
		},
		{
			"buffer":0,
			"byteLength":24,
			"byteOffset":2911332
		},
		{
			"buffer":0,
			"byteLength":24,
			"byteOffset":2911356
		},
		{
			"buffer":0,
			"byteLength":32,
			"byteOffset":2911380
		},
		{
			"buffer":0,
			"byteLength":24,
			"byteOffset":2911412
		},
		{
			"buffer":0,
			"byteLength":24,
			"byteOffset":2911436
		},
		{
			"buffer":0,
			"byteLength":688,
			"byteOffset":2911460
		},
		{
			"buffer":0,
			"byteLength":24,
			"byteOffset":2912148
		},
		{
			"buffer":0,
			"byteLength":688,
			"byteOffset":2912172
		},
		{
			"buffer":0,
			"byteLength":24,
			"byteOffset":2912860
		},
		{
			"buffer":0,
			"byteLength":24,
			"byteOffset":2912884
		},
		{
			"buffer":0,
			"byteLength":688,
			"byteOffset":2912908
		},
		{
			"buffer":0,
			"byteLength":24,
			"byteOffset":2913596
		},
		{
			"buffer":0,
			"byteLength":24,
			"byteOffset":2913620
		},
		{
			"buffer":0,
			"byteLength":688,
			"byteOffset":2913644
		},
		{
			"buffer":0,
			"byteLength":24,
			"byteOffset":2914332
		},
		{
			"buffer":0,
			"byteLength":688,
			"byteOffset":2914356
		},
		{
			"buffer":0,
			"byteLength":24,
			"byteOffset":2915044
		},
		{
			"buffer":0,
			"byteLength":688,
			"byteOffset":2915068
		},
		{
			"buffer":0,
			"byteLength":24,
			"byteOffset":2915756
		},
		{
			"buffer":0,
			"byteLength":24,
			"byteOffset":2915780
		},
		{
			"buffer":0,
			"byteLength":688,
			"byteOffset":2915804
		},
		{
			"buffer":0,
			"byteLength":24,
			"byteOffset":2916492
		},
		{
			"buffer":0,
			"byteLength":688,
			"byteOffset":2916516
		},
		{
			"buffer":0,
			"byteLength":24,
			"byteOffset":2917204
		},
		{
			"buffer":0,
			"byteLength":24,
			"byteOffset":2917228
		},
		{
			"buffer":0,
			"byteLength":688,
			"byteOffset":2917252
		},
		{
			"buffer":0,
			"byteLength":24,
			"byteOffset":2917940
		},
		{
			"buffer":0,
			"byteLength":164,
			"byteOffset":2917964
		},
		{
			"buffer":0,
			"byteLength":492,
			"byteOffset":2918128
		},
		{
			"buffer":0,
			"byteLength":8,
			"byteOffset":2918620
		},
		{
			"buffer":0,
			"byteLength":656,
			"byteOffset":2918628
		},
		{
			"buffer":0,
			"byteLength":24,
			"byteOffset":2919284
		},
		{
			"buffer":0,
			"byteLength":656,
			"byteOffset":2919308
		},
		{
			"buffer":0,
			"byteLength":24,
			"byteOffset":2919964
		},
		{
			"buffer":0,
			"byteLength":32,
			"byteOffset":2919988
		},
		{
			"buffer":0,
			"byteLength":24,
			"byteOffset":2920020
		},
		{
			"buffer":0,
			"byteLength":24,
			"byteOffset":2920044
		},
		{
			"buffer":0,
			"byteLength":656,
			"byteOffset":2920068
		},
		{
			"buffer":0,
			"byteLength":24,
			"byteOffset":2920724
		},
		{
			"buffer":0,
			"byteLength":32,
			"byteOffset":2920748
		},
		{
			"buffer":0,
			"byteLength":24,
			"byteOffset":2920780
		},
		{
			"buffer":0,
			"byteLength":24,
			"byteOffset":2920804
		},
		{
			"buffer":0,
			"byteLength":656,
			"byteOffset":2920828
		},
		{
			"buffer":0,
			"byteLength":24,
			"byteOffset":2921484
		},
		{
			"buffer":0,
			"byteLength":656,
			"byteOffset":2921508
		},
		{
			"buffer":0,
			"byteLength":24,
			"byteOffset":2922164
		},
		{
			"buffer":0,
			"byteLength":24,
			"byteOffset":2922188
		},
		{
			"buffer":0,
			"byteLength":32,
			"byteOffset":2922212
		},
		{
			"buffer":0,
			"byteLength":24,
			"byteOffset":2922244
		},
		{
			"buffer":0,
			"byteLength":24,
			"byteOffset":2922268
		},
		{
			"buffer":0,
			"byteLength":656,
			"byteOffset":2922292
		},
		{
			"buffer":0,
			"byteLength":24,
			"byteOffset":2922948
		},
		{
			"buffer":0,
			"byteLength":24,
			"byteOffset":2922972
		},
		{
			"buffer":0,
			"byteLength":656,
			"byteOffset":2922996
		},
		{
			"buffer":0,
			"byteLength":24,
			"byteOffset":2923652
		},
		{
			"buffer":0,
			"byteLength":32,
			"byteOffset":2923676
		},
		{
			"buffer":0,
			"byteLength":24,
			"byteOffset":2923708
		},
		{
			"buffer":0,
			"byteLength":656,
			"byteOffset":2923732
		},
		{
			"buffer":0,
			"byteLength":24,
			"byteOffset":2924388
		},
		{
			"buffer":0,
			"byteLength":656,
			"byteOffset":2924412
		},
		{
			"buffer":0,
			"byteLength":24,
			"byteOffset":2925068
		},
		{
			"buffer":0,
			"byteLength":656,
			"byteOffset":2925092
		},
		{
			"buffer":0,
			"byteLength":24,
			"byteOffset":2925748
		},
		{
			"buffer":0,
			"byteLength":656,
			"byteOffset":2925772
		},
		{
			"buffer":0,
			"byteLength":24,
			"byteOffset":2926428
		},
		{
			"buffer":0,
			"byteLength":656,
			"byteOffset":2926452
		},
		{
			"buffer":0,
			"byteLength":24,
			"byteOffset":2927108
		},
		{
			"buffer":0,
			"byteLength":656,
			"byteOffset":2927132
		},
		{
			"buffer":0,
			"byteLength":724,
			"byteOffset":2927788
		},
		{
			"buffer":0,
			"byteLength":2172,
			"byteOffset":2928512
		},
		{
			"buffer":0,
			"byteLength":8,
			"byteOffset":2930684
		},
		{
			"buffer":0,
			"byteLength":2896,
			"byteOffset":2930692
		},
		{
			"buffer":0,
			"byteLength":2896,
			"byteOffset":2933588
		},
		{
			"buffer":0,
			"byteLength":2896,
			"byteOffset":2936484
		},
		{
			"buffer":0,
			"byteLength":24,
			"byteOffset":2939380
		},
		{
			"buffer":0,
			"byteLength":32,
			"byteOffset":2939404
		},
		{
			"buffer":0,
			"byteLength":24,
			"byteOffset":2939436
		},
		{
			"buffer":0,
			"byteLength":24,
			"byteOffset":2939460
		},
		{
			"buffer":0,
			"byteLength":2896,
			"byteOffset":2939484
		},
		{
			"buffer":0,
			"byteLength":24,
			"byteOffset":2942380
		},
		{
			"buffer":0,
			"byteLength":24,
			"byteOffset":2942404
		},
		{
			"buffer":0,
			"byteLength":32,
			"byteOffset":2942428
		},
		{
			"buffer":0,
			"byteLength":24,
			"byteOffset":2942460
		},
		{
			"buffer":0,
			"byteLength":32,
			"byteOffset":2942484
		},
		{
			"buffer":0,
			"byteLength":24,
			"byteOffset":2942516
		},
		{
			"buffer":0,
			"byteLength":24,
			"byteOffset":2942540
		},
		{
			"buffer":0,
			"byteLength":32,
			"byteOffset":2942564
		},
		{
			"buffer":0,
			"byteLength":24,
			"byteOffset":2942596
		},
		{
			"buffer":0,
			"byteLength":24,
			"byteOffset":2942620
		},
		{
			"buffer":0,
			"byteLength":32,
			"byteOffset":2942644
		},
		{
			"buffer":0,
			"byteLength":24,
			"byteOffset":2942676
		},
		{
			"buffer":0,
			"byteLength":32,
			"byteOffset":2942700
		},
		{
			"buffer":0,
			"byteLength":24,
			"byteOffset":2942732
		},
		{
			"buffer":0,
			"byteLength":32,
			"byteOffset":2942756
		},
		{
			"buffer":0,
			"byteLength":24,
			"byteOffset":2942788
		},
		{
			"buffer":0,
			"byteLength":32,
			"byteOffset":2942812
		},
		{
			"buffer":0,
			"byteLength":32,
			"byteOffset":2942844
		},
		{
			"buffer":0,
			"byteLength":24,
			"byteOffset":2942876
		},
		{
			"buffer":0,
			"byteLength":32,
			"byteOffset":2942900
		},
		{
			"buffer":0,
			"byteLength":24,
			"byteOffset":2942932
		},
		{
			"buffer":0,
			"byteLength":32,
			"byteOffset":2942956
		},
		{
			"buffer":0,
			"byteLength":124,
			"byteOffset":2942988
		},
		{
			"buffer":0,
			"byteLength":372,
			"byteOffset":2943112
		},
		{
			"buffer":0,
			"byteLength":496,
			"byteOffset":2943484
		},
		{
			"buffer":0,
			"byteLength":8,
			"byteOffset":2943980
		},
		{
			"buffer":0,
			"byteLength":32,
			"byteOffset":2943988
		},
		{
			"buffer":0,
			"byteLength":24,
			"byteOffset":2944020
		},
		{
			"buffer":0,
			"byteLength":496,
			"byteOffset":2944044
		},
		{
			"buffer":0,
			"byteLength":24,
			"byteOffset":2944540
		},
		{
			"buffer":0,
			"byteLength":32,
			"byteOffset":2944564
		},
		{
			"buffer":0,
			"byteLength":24,
			"byteOffset":2944596
		},
		{
			"buffer":0,
			"byteLength":24,
			"byteOffset":2944620
		},
		{
			"buffer":0,
			"byteLength":496,
			"byteOffset":2944644
		},
		{
			"buffer":0,
			"byteLength":24,
			"byteOffset":2945140
		},
		{
			"buffer":0,
			"byteLength":496,
			"byteOffset":2945164
		},
		{
			"buffer":0,
			"byteLength":24,
			"byteOffset":2945660
		},
		{
			"buffer":0,
			"byteLength":496,
			"byteOffset":2945684
		},
		{
			"buffer":0,
			"byteLength":24,
			"byteOffset":2946180
		},
		{
			"buffer":0,
			"byteLength":24,
			"byteOffset":2946204
		},
		{
			"buffer":0,
			"byteLength":496,
			"byteOffset":2946228
		},
		{
			"buffer":0,
			"byteLength":24,
			"byteOffset":2946724
		},
		{
			"buffer":0,
			"byteLength":32,
			"byteOffset":2946748
		},
		{
			"buffer":0,
			"byteLength":24,
			"byteOffset":2946780
		},
		{
			"buffer":0,
			"byteLength":496,
			"byteOffset":2946804
		},
		{
			"buffer":0,
			"byteLength":24,
			"byteOffset":2947300
		},
		{
			"buffer":0,
			"byteLength":32,
			"byteOffset":2947324
		},
		{
			"buffer":0,
			"byteLength":24,
			"byteOffset":2947356
		},
		{
			"buffer":0,
			"byteLength":24,
			"byteOffset":2947380
		},
		{
			"buffer":0,
			"byteLength":32,
			"byteOffset":2947404
		},
		{
			"buffer":0,
			"byteLength":24,
			"byteOffset":2947436
		},
		{
			"buffer":0,
			"byteLength":24,
			"byteOffset":2947460
		},
		{
			"buffer":0,
			"byteLength":496,
			"byteOffset":2947484
		},
		{
			"buffer":0,
			"byteLength":24,
			"byteOffset":2947980
		},
		{
			"buffer":0,
			"byteLength":496,
			"byteOffset":2948004
		},
		{
			"buffer":0,
			"byteLength":24,
			"byteOffset":2948500
		},
		{
			"buffer":0,
			"byteLength":496,
			"byteOffset":2948524
		},
		{
			"buffer":0,
			"byteLength":24,
			"byteOffset":2949020
		},
		{
			"buffer":0,
			"byteLength":496,
			"byteOffset":2949044
		},
		{
			"buffer":0,
			"byteLength":24,
			"byteOffset":2949540
		},
		{
			"buffer":0,
			"byteLength":496,
			"byteOffset":2949564
		},
		{
			"buffer":0,
			"byteLength":24,
			"byteOffset":2950060
		},
		{
			"buffer":0,
			"byteLength":496,
			"byteOffset":2950084
		},
		{
			"buffer":0,
			"byteLength":148,
			"byteOffset":2950580
		},
		{
			"buffer":0,
			"byteLength":444,
			"byteOffset":2950728
		},
		{
			"buffer":0,
			"byteLength":592,
			"byteOffset":2951172
		},
		{
			"buffer":0,
			"byteLength":8,
			"byteOffset":2951764
		},
		{
			"buffer":0,
			"byteLength":32,
			"byteOffset":2951772
		},
		{
			"buffer":0,
			"byteLength":24,
			"byteOffset":2951804
		},
		{
			"buffer":0,
			"byteLength":592,
			"byteOffset":2951828
		},
		{
			"buffer":0,
			"byteLength":24,
			"byteOffset":2952420
		},
		{
			"buffer":0,
			"byteLength":32,
			"byteOffset":2952444
		},
		{
			"buffer":0,
			"byteLength":24,
			"byteOffset":2952476
		},
		{
			"buffer":0,
			"byteLength":592,
			"byteOffset":2952500
		},
		{
			"buffer":0,
			"byteLength":24,
			"byteOffset":2953092
		},
		{
			"buffer":0,
			"byteLength":592,
			"byteOffset":2953116
		},
		{
			"buffer":0,
			"byteLength":24,
			"byteOffset":2953708
		},
		{
			"buffer":0,
			"byteLength":32,
			"byteOffset":2953732
		},
		{
			"buffer":0,
			"byteLength":24,
			"byteOffset":2953764
		},
		{
			"buffer":0,
			"byteLength":24,
			"byteOffset":2953788
		},
		{
			"buffer":0,
			"byteLength":32,
			"byteOffset":2953812
		},
		{
			"buffer":0,
			"byteLength":24,
			"byteOffset":2953844
		},
		{
			"buffer":0,
			"byteLength":24,
			"byteOffset":2953868
		},
		{
			"buffer":0,
			"byteLength":32,
			"byteOffset":2953892
		},
		{
			"buffer":0,
			"byteLength":24,
			"byteOffset":2953924
		},
		{
			"buffer":0,
			"byteLength":32,
			"byteOffset":2953948
		},
		{
			"buffer":0,
			"byteLength":24,
			"byteOffset":2953980
		},
		{
			"buffer":0,
			"byteLength":24,
			"byteOffset":2954004
		},
		{
			"buffer":0,
			"byteLength":32,
			"byteOffset":2954028
		},
		{
			"buffer":0,
			"byteLength":24,
			"byteOffset":2954060
		},
		{
			"buffer":0,
			"byteLength":24,
			"byteOffset":2954084
		},
		{
			"buffer":0,
			"byteLength":32,
			"byteOffset":2954108
		},
		{
			"buffer":0,
			"byteLength":24,
			"byteOffset":2954140
		},
		{
			"buffer":0,
			"byteLength":592,
			"byteOffset":2954164
		},
		{
			"buffer":0,
			"byteLength":24,
			"byteOffset":2954756
		},
		{
			"buffer":0,
			"byteLength":592,
			"byteOffset":2954780
		},
		{
			"buffer":0,
			"byteLength":24,
			"byteOffset":2955372
		},
		{
			"buffer":0,
			"byteLength":592,
			"byteOffset":2955396
		},
		{
			"buffer":0,
			"byteLength":592,
			"byteOffset":2955988
		},
		{
			"buffer":0,
			"byteLength":24,
			"byteOffset":2956580
		},
		{
			"buffer":0,
			"byteLength":592,
			"byteOffset":2956604
		},
		{
			"buffer":0,
			"byteLength":24,
			"byteOffset":2957196
		},
		{
			"buffer":0,
			"byteLength":592,
			"byteOffset":2957220
		}
	],
	"buffers":[
		{
			"byteLength":2957812,
			"uri":"lehmarbeiter.bin"
		}
	]
}
