{
	"asset":{
		"generator":"Khronos glTF Blender I/O v5.2.40",
		"version":"2.0"
	},
	"scene":0,
	"scenes":[
		{
			"name":"Scene",
			"nodes":[
				0
			]
		}
	],
	"nodes":[
		{
			"mesh":0,
			"name":"Burganlage"
		}
	],
	"materials":[
		{
			"doubleSided":true,
			"name":"Burg",
			"pbrMetallicRoughness":{
				"metallicFactor":0,
				"roughnessFactor":0.8999999761581421
			}
		},
		{
			"doubleSided":true,
			"emissiveFactor":[
				0.30000001192092896,
				0.22815736246734275,
				0.11747174729791254
			],
			"name":"BurganlageGlas",
			"pbrMetallicRoughness":{
				"metallicFactor":0,
				"roughnessFactor":0.5
			}
		}
	],
	"meshes":[
		{
			"name":"Burganlage",
			"primitives":[
				{
					"attributes":{
						"POSITION":0,
						"NORMAL":1,
						"TEXCOORD_0":2,
						"COLOR_0":3
					},
					"indices":4,
					"material":0
				},
				{
					"attributes":{
						"POSITION":5,
						"NORMAL":6,
						"TEXCOORD_0":7,
						"COLOR_0":8
					},
					"indices":9,
					"material":1
				}
			]
		}
	],
	"accessors":[
		{
			"bufferView":0,
			"componentType":5126,
			"count":454508,
			"max":[
				65.98873901367188,
				58.83000183105469,
				89
			],
			"min":[
				-65.98873901367188,
				-0.017101002857089043,
				-37.988739013671875
			],
			"type":"VEC3"
		},
		{
			"bufferView":1,
			"componentType":5126,
			"count":454508,
			"type":"VEC3"
		},
		{
			"bufferView":2,
			"componentType":5126,
			"count":454508,
			"type":"VEC2"
		},
		{
			"bufferView":3,
			"componentType":5126,
			"count":454508,
			"type":"VEC3"
		},
		{
			"bufferView":4,
			"componentType":5125,
			"count":632772,
			"type":"SCALAR"
		},
		{
			"bufferView":5,
			"componentType":5126,
			"count":10722,
			"max":[
				32.97939682006836,
				39.459659576416016,
				87.1500015258789
			],
			"min":[
				-32.060001373291016,
				3.259999990463257,
				-15.062087059020996
			],
			"type":"VEC3"
		},
		{
			"bufferView":6,
			"componentType":5126,
			"count":10722,
			"type":"VEC3"
		},
		{
			"bufferView":7,
			"componentType":5126,
			"count":10722,
			"type":"VEC2"
		},
		{
			"bufferView":8,
			"componentType":5126,
			"count":10722,
			"type":"VEC3"
		},
		{
			"bufferView":9,
			"componentType":5123,
			"count":19788,
			"type":"SCALAR"
		}
	],
	"bufferViews":[
		{
			"buffer":0,
			"byteLength":5454096,
			"byteOffset":0,
			"target":34962
		},
		{
			"buffer":0,
			"byteLength":5454096,
			"byteOffset":5454096,
			"target":34962
		},
		{
			"buffer":0,
			"byteLength":3636064,
			"byteOffset":10908192,
			"target":34962
		},
		{
			"buffer":0,
			"byteLength":5454096,
			"byteOffset":14544256,
			"target":34962
		},
		{
			"buffer":0,
			"byteLength":2531088,
			"byteOffset":19998352,
			"target":34963
		},
		{
			"buffer":0,
			"byteLength":128664,
			"byteOffset":22529440,
			"target":34962
		},
		{
			"buffer":0,
			"byteLength":128664,
			"byteOffset":22658104,
			"target":34962
		},
		{
			"buffer":0,
			"byteLength":85776,
			"byteOffset":22786768,
			"target":34962
		},
		{
			"buffer":0,
			"byteLength":128664,
			"byteOffset":22872544,
			"target":34962
		},
		{
			"buffer":0,
			"byteLength":39576,
			"byteOffset":23001208,
			"target":34963
		}
	],
	"buffers":[
		{
			"byteLength":23040784,
			"uri":"burganlage.bin"
		}
	]
}
