{
	"asset":{
		"generator":"Khronos glTF Blender I/O v5.2.40",
		"version":"2.0"
	},
	"scene":0,
	"scenes":[
		{
			"name":"Scene",
			"nodes":[
				0
			]
		}
	],
	"nodes":[
		{
			"mesh":0,
			"name":"Burg"
		}
	],
	"materials":[
		{
			"doubleSided":true,
			"name":"Burg",
			"pbrMetallicRoughness":{
				"metallicFactor":0,
				"roughnessFactor":0.8999999761581421
			}
		},
		{
			"doubleSided":true,
			"emissiveFactor":[
				0.30000001192092896,
				0.22815736246734275,
				0.11747174729791254
			],
			"name":"BurgGlas",
			"pbrMetallicRoughness":{
				"metallicFactor":0,
				"roughnessFactor":0.5
			}
		}
	],
	"meshes":[
		{
			"name":"Burg",
			"primitives":[
				{
					"attributes":{
						"POSITION":0,
						"NORMAL":1,
						"TEXCOORD_0":2,
						"COLOR_0":3
					},
					"indices":4,
					"material":0
				},
				{
					"attributes":{
						"POSITION":5,
						"NORMAL":6,
						"TEXCOORD_0":7,
						"COLOR_0":8
					},
					"indices":9,
					"material":1
				}
			]
		}
	],
	"accessors":[
		{
			"bufferView":0,
			"componentType":5126,
			"count":264730,
			"max":[
				37.5,
				58.83000183105469,
				20.25
			],
			"min":[
				-37.5,
				0,
				-20.25
			],
			"type":"VEC3"
		},
		{
			"bufferView":1,
			"componentType":5126,
			"count":264730,
			"type":"VEC3"
		},
		{
			"bufferView":2,
			"componentType":5126,
			"count":264730,
			"type":"VEC2"
		},
		{
			"bufferView":3,
			"componentType":5126,
			"count":264730,
			"type":"VEC3"
		},
		{
			"bufferView":4,
			"componentType":5125,
			"count":364368,
			"type":"SCALAR"
		},
		{
			"bufferView":5,
			"componentType":5126,
			"count":10290,
			"max":[
				32.97939682006836,
				39.459659576416016,
				15.25
			],
			"min":[
				-32.060001373291016,
				3.700000047683716,
				-16.312088012695312
			],
			"type":"VEC3"
		},
		{
			"bufferView":6,
			"componentType":5126,
			"count":10290,
			"type":"VEC3"
		},
		{
			"bufferView":7,
			"componentType":5126,
			"count":10290,
			"type":"VEC2"
		},
		{
			"bufferView":8,
			"componentType":5126,
			"count":10290,
			"type":"VEC3"
		},
		{
			"bufferView":9,
			"componentType":5123,
			"count":19188,
			"type":"SCALAR"
		}
	],
	"bufferViews":[
		{
			"buffer":0,
			"byteLength":3176760,
			"byteOffset":0,
			"target":34962
		},
		{
			"buffer":0,
			"byteLength":3176760,
			"byteOffset":3176760,
			"target":34962
		},
		{
			"buffer":0,
			"byteLength":2117840,
			"byteOffset":6353520,
			"target":34962
		},
		{
			"buffer":0,
			"byteLength":3176760,
			"byteOffset":8471360,
			"target":34962
		},
		{
			"buffer":0,
			"byteLength":1457472,
			"byteOffset":11648120,
			"target":34963
		},
		{
			"buffer":0,
			"byteLength":123480,
			"byteOffset":13105592,
			"target":34962
		},
		{
			"buffer":0,
			"byteLength":123480,
			"byteOffset":13229072,
			"target":34962
		},
		{
			"buffer":0,
			"byteLength":82320,
			"byteOffset":13352552,
			"target":34962
		},
		{
			"buffer":0,
			"byteLength":123480,
			"byteOffset":13434872,
			"target":34962
		},
		{
			"buffer":0,
			"byteLength":38376,
			"byteOffset":13558352,
			"target":34963
		}
	],
	"buffers":[
		{
			"byteLength":13596728,
			"uri":"burg.bin"
		}
	]
}
