{
	"asset":{
		"generator":"Khronos glTF Blender I/O v5.2.40",
		"version":"2.0"
	},
	"scene":0,
	"scenes":[
		{
			"name":"Scene",
			"nodes":[
				0
			]
		}
	],
	"nodes":[
		{
			"mesh":0,
			"name":"Marktplatz"
		}
	],
	"materials":[
		{
			"doubleSided":true,
			"name":"Burg",
			"pbrMetallicRoughness":{
				"metallicFactor":0,
				"roughnessFactor":0.8999999761581421
			}
		},
		{
			"doubleSided":true,
			"emissiveFactor":[
				0.30000001192092896,
				0.22815736246734275,
				0.11747174729791254
			],
			"name":"MarktplatzGlas",
			"pbrMetallicRoughness":{
				"metallicFactor":0,
				"roughnessFactor":0.5
			}
		}
	],
	"meshes":[
		{
			"name":"Marktplatz",
			"primitives":[
				{
					"attributes":{
						"POSITION":0,
						"NORMAL":1,
						"TEXCOORD_0":2,
						"COLOR_0":3
					},
					"indices":4,
					"material":0
				},
				{
					"attributes":{
						"POSITION":5,
						"NORMAL":6,
						"TEXCOORD_0":7,
						"COLOR_0":8
					},
					"indices":9,
					"material":1
				}
			]
		}
	],
	"accessors":[
		{
			"bufferView":0,
			"componentType":5126,
			"count":119847,
			"max":[
				24.75,
				17.900001525878906,
				24
			],
			"min":[
				-24.75,
				-0.004999999888241291,
				-24
			],
			"type":"VEC3"
		},
		{
			"bufferView":1,
			"componentType":5126,
			"count":119847,
			"type":"VEC3"
		},
		{
			"bufferView":2,
			"componentType":5126,
			"count":119847,
			"type":"VEC2"
		},
		{
			"bufferView":3,
			"componentType":5126,
			"count":119847,
			"type":"VEC3"
		},
		{
			"bufferView":4,
			"componentType":5125,
			"count":173445,
			"type":"SCALAR"
		},
		{
			"bufferView":5,
			"componentType":5126,
			"count":5260,
			"max":[
				22.149999618530273,
				11.892786979675293,
				20.649999618530273
			],
			"min":[
				-19.43000030517578,
				0.6299999356269836,
				-21.649999618530273
			],
			"type":"VEC3"
		},
		{
			"bufferView":6,
			"componentType":5126,
			"count":5260,
			"type":"VEC3"
		},
		{
			"bufferView":7,
			"componentType":5126,
			"count":5260,
			"type":"VEC2"
		},
		{
			"bufferView":8,
			"componentType":5126,
			"count":5260,
			"type":"VEC3"
		},
		{
			"bufferView":9,
			"componentType":5123,
			"count":6960,
			"type":"SCALAR"
		}
	],
	"bufferViews":[
		{
			"buffer":0,
			"byteLength":1438164,
			"byteOffset":0,
			"target":34962
		},
		{
			"buffer":0,
			"byteLength":1438164,
			"byteOffset":1438164,
			"target":34962
		},
		{
			"buffer":0,
			"byteLength":958776,
			"byteOffset":2876328,
			"target":34962
		},
		{
			"buffer":0,
			"byteLength":1438164,
			"byteOffset":3835104,
			"target":34962
		},
		{
			"buffer":0,
			"byteLength":693780,
			"byteOffset":5273268,
			"target":34963
		},
		{
			"buffer":0,
			"byteLength":63120,
			"byteOffset":5967048,
			"target":34962
		},
		{
			"buffer":0,
			"byteLength":63120,
			"byteOffset":6030168,
			"target":34962
		},
		{
			"buffer":0,
			"byteLength":42080,
			"byteOffset":6093288,
			"target":34962
		},
		{
			"buffer":0,
			"byteLength":63120,
			"byteOffset":6135368,
			"target":34962
		},
		{
			"buffer":0,
			"byteLength":13920,
			"byteOffset":6198488,
			"target":34963
		}
	],
	"buffers":[
		{
			"byteLength":6212408,
			"uri":"marktplatz.bin"
		}
	]
}
