{
	"asset":{
		"generator":"Khronos glTF Blender I/O v5.2.40",
		"version":"2.0"
	},
	"extensionsUsed":[
		"KHR_materials_emissive_strength"
	],
	"scene":0,
	"scenes":[
		{
			"name":"Scene",
			"nodes":[
				0
			]
		}
	],
	"nodes":[
		{
			"mesh":0,
			"name":"Runenbrunnen"
		}
	],
	"materials":[
		{
			"doubleSided":true,
			"name":"Burg",
			"pbrMetallicRoughness":{
				"metallicFactor":0,
				"roughnessFactor":0.8999999761581421
			}
		},
		{
			"doubleSided":true,
			"emissiveFactor":[
				1,
				0.7605245113372803,
				0.3915724754333496
			],
			"extensions":{
				"KHR_materials_emissive_strength":{
					"emissiveStrength":2.5999999046325684
				}
			},
			"name":"RunenbrunnenGlas",
			"pbrMetallicRoughness":{
				"metallicFactor":0,
				"roughnessFactor":0.5
			}
		}
	],
	"meshes":[
		{
			"name":"Runenbrunnen",
			"primitives":[
				{
					"attributes":{
						"POSITION":0,
						"NORMAL":1,
						"TEXCOORD_0":2,
						"COLOR_0":3
					},
					"indices":4,
					"material":0
				},
				{
					"attributes":{
						"POSITION":5,
						"NORMAL":6,
						"TEXCOORD_0":7,
						"COLOR_0":8
					},
					"indices":9,
					"material":1
				}
			]
		}
	],
	"accessors":[
		{
			"bufferView":0,
			"componentType":5126,
			"count":3424,
			"max":[
				7.275892734527588,
				3.940000057220459,
				7.275892734527588
			],
			"min":[
				-7.275892734527588,
				0,
				-7.275892734527588
			],
			"type":"VEC3"
		},
		{
			"bufferView":1,
			"componentType":5126,
			"count":3424,
			"type":"VEC3"
		},
		{
			"bufferView":2,
			"componentType":5126,
			"count":3424,
			"type":"VEC2"
		},
		{
			"bufferView":3,
			"componentType":5126,
			"count":3424,
			"type":"VEC3"
		},
		{
			"bufferView":4,
			"componentType":5123,
			"count":4968,
			"type":"SCALAR"
		},
		{
			"bufferView":5,
			"componentType":5126,
			"count":3024,
			"max":[
				6.400000095367432,
				4.849999904632568,
				6.400000095367432
			],
			"min":[
				-6.400000095367432,
				0.09499997645616531,
				-6.400000095367432
			],
			"type":"VEC3"
		},
		{
			"bufferView":6,
			"componentType":5126,
			"count":3024,
			"type":"VEC3"
		},
		{
			"bufferView":7,
			"componentType":5126,
			"count":3024,
			"type":"VEC2"
		},
		{
			"bufferView":8,
			"componentType":5126,
			"count":3024,
			"type":"VEC3"
		},
		{
			"bufferView":9,
			"componentType":5123,
			"count":4368,
			"type":"SCALAR"
		}
	],
	"bufferViews":[
		{
			"buffer":0,
			"byteLength":41088,
			"byteOffset":0,
			"target":34962
		},
		{
			"buffer":0,
			"byteLength":41088,
			"byteOffset":41088,
			"target":34962
		},
		{
			"buffer":0,
			"byteLength":27392,
			"byteOffset":82176,
			"target":34962
		},
		{
			"buffer":0,
			"byteLength":41088,
			"byteOffset":109568,
			"target":34962
		},
		{
			"buffer":0,
			"byteLength":9936,
			"byteOffset":150656,
			"target":34963
		},
		{
			"buffer":0,
			"byteLength":36288,
			"byteOffset":160592,
			"target":34962
		},
		{
			"buffer":0,
			"byteLength":36288,
			"byteOffset":196880,
			"target":34962
		},
		{
			"buffer":0,
			"byteLength":24192,
			"byteOffset":233168,
			"target":34962
		},
		{
			"buffer":0,
			"byteLength":36288,
			"byteOffset":257360,
			"target":34962
		},
		{
			"buffer":0,
			"byteLength":8736,
			"byteOffset":293648,
			"target":34963
		}
	],
	"buffers":[
		{
			"byteLength":302384,
			"uri":"runenbrunnen.bin"
		}
	]
}
