{
	"asset":{
		"generator":"Khronos glTF Blender I/O v5.2.40",
		"version":"2.0"
	},
	"scene":0,
	"scenes":[
		{
			"name":"Scene",
			"nodes":[
				0
			]
		}
	],
	"nodes":[
		{
			"mesh":0,
			"name":"Schattenfestung"
		}
	],
	"materials":[
		{
			"doubleSided":true,
			"name":"Burg",
			"pbrMetallicRoughness":{
				"metallicFactor":0,
				"roughnessFactor":0.8999999761581421
			}
		},
		{
			"doubleSided":true,
			"emissiveFactor":[
				1,
				0.7605245113372803,
				0.3915724754333496
			],
			"name":"SchattenfestungGlas",
			"pbrMetallicRoughness":{
				"metallicFactor":0,
				"roughnessFactor":0.5
			}
		}
	],
	"meshes":[
		{
			"name":"Schattenfestung",
			"primitives":[
				{
					"attributes":{
						"POSITION":0,
						"NORMAL":1,
						"TEXCOORD_0":2,
						"COLOR_0":3
					},
					"indices":4,
					"material":0
				},
				{
					"attributes":{
						"POSITION":5,
						"NORMAL":6,
						"TEXCOORD_0":7,
						"COLOR_0":8
					},
					"indices":9,
					"material":1
				}
			]
		}
	],
	"accessors":[
		{
			"bufferView":0,
			"componentType":5126,
			"count":198502,
			"max":[
				45.57394790649414,
				75.24999237060547,
				68.34770202636719
			],
			"min":[
				-43.55404281616211,
				-0.02641686610877514,
				-57.448795318603516
			],
			"type":"VEC3"
		},
		{
			"bufferView":1,
			"componentType":5126,
			"count":198502,
			"type":"VEC3"
		},
		{
			"bufferView":2,
			"componentType":5126,
			"count":198502,
			"type":"VEC2"
		},
		{
			"bufferView":3,
			"componentType":5126,
			"count":198502,
			"type":"VEC3"
		},
		{
			"bufferView":4,
			"componentType":5125,
			"count":260238,
			"type":"SCALAR"
		},
		{
			"bufferView":5,
			"componentType":5126,
			"count":34208,
			"max":[
				38.30295181274414,
				154.60000610351562,
				57.80863571166992
			],
			"min":[
				-41.9566650390625,
				0.4386138319969177,
				-55.83016586303711
			],
			"type":"VEC3"
		},
		{
			"bufferView":6,
			"componentType":5126,
			"count":34208,
			"type":"VEC3"
		},
		{
			"bufferView":7,
			"componentType":5126,
			"count":34208,
			"type":"VEC2"
		},
		{
			"bufferView":8,
			"componentType":5126,
			"count":34208,
			"type":"VEC3"
		},
		{
			"bufferView":9,
			"componentType":5123,
			"count":53718,
			"type":"SCALAR"
		}
	],
	"bufferViews":[
		{
			"buffer":0,
			"byteLength":2382024,
			"byteOffset":0,
			"target":34962
		},
		{
			"buffer":0,
			"byteLength":2382024,
			"byteOffset":2382024,
			"target":34962
		},
		{
			"buffer":0,
			"byteLength":1588016,
			"byteOffset":4764048,
			"target":34962
		},
		{
			"buffer":0,
			"byteLength":2382024,
			"byteOffset":6352064,
			"target":34962
		},
		{
			"buffer":0,
			"byteLength":1040952,
			"byteOffset":8734088,
			"target":34963
		},
		{
			"buffer":0,
			"byteLength":410496,
			"byteOffset":9775040,
			"target":34962
		},
		{
			"buffer":0,
			"byteLength":410496,
			"byteOffset":10185536,
			"target":34962
		},
		{
			"buffer":0,
			"byteLength":273664,
			"byteOffset":10596032,
			"target":34962
		},
		{
			"buffer":0,
			"byteLength":410496,
			"byteOffset":10869696,
			"target":34962
		},
		{
			"buffer":0,
			"byteLength":107436,
			"byteOffset":11280192,
			"target":34963
		}
	],
	"buffers":[
		{
			"byteLength":11387628,
			"uri":"schattenfestung.bin"
		}
	]
}
