{
	"asset":{
		"generator":"Khronos glTF Blender I/O v5.2.40",
		"version":"2.0"
	},
	"scene":0,
	"scenes":[
		{
			"name":"Scene",
			"nodes":[
				0
			]
		}
	],
	"nodes":[
		{
			"mesh":0,
			"name":"Bank"
		}
	],
	"materials":[
		{
			"doubleSided":true,
			"name":"Vorkommen",
			"pbrMetallicRoughness":{
				"metallicFactor":0,
				"roughnessFactor":0.8500000238418579
			}
		}
	],
	"meshes":[
		{
			"name":"Bank",
			"primitives":[
				{
					"attributes":{
						"POSITION":0,
						"NORMAL":1,
						"COLOR_0":2
					},
					"indices":3,
					"material":0
				}
			]
		}
	],
	"accessors":[
		{
			"bufferView":0,
			"componentType":5126,
			"count":534,
			"max":[
				0.800000011920929,
				0.3400000035762787,
				0.176614910364151
			],
			"min":[
				-0.800000011920929,
				0,
				-0.176614910364151
			],
			"type":"VEC3"
		},
		{
			"bufferView":1,
			"componentType":5126,
			"count":534,
			"type":"VEC3"
		},
		{
			"bufferView":2,
			"componentType":5126,
			"count":534,
			"type":"VEC3"
		},
		{
			"bufferView":3,
			"componentType":5123,
			"count":864,
			"type":"SCALAR"
		}
	],
	"bufferViews":[
		{
			"buffer":0,
			"byteLength":6408,
			"byteOffset":0,
			"target":34962
		},
		{
			"buffer":0,
			"byteLength":6408,
			"byteOffset":6408,
			"target":34962
		},
		{
			"buffer":0,
			"byteLength":6408,
			"byteOffset":12816,
			"target":34962
		},
		{
			"buffer":0,
			"byteLength":1728,
			"byteOffset":19224,
			"target":34963
		}
	],
	"buffers":[
		{
			"byteLength":20952,
			"uri":"bank.bin"
		}
	]
}
