{
	"asset":{
		"generator":"Khronos glTF Blender I/O v5.2.40",
		"version":"2.0"
	},
	"scene":0,
	"scenes":[
		{
			"name":"Scene",
			"nodes":[
				0
			]
		}
	],
	"nodes":[
		{
			"mesh":0,
			"name":"Bienenstoecke"
		}
	],
	"materials":[
		{
			"doubleSided":true,
			"name":"Vorkommen",
			"pbrMetallicRoughness":{
				"metallicFactor":0,
				"roughnessFactor":0.8500000238418579
			}
		}
	],
	"meshes":[
		{
			"name":"Bienenstoecke",
			"primitives":[
				{
					"attributes":{
						"POSITION":0,
						"NORMAL":1,
						"COLOR_0":2
					},
					"indices":3,
					"material":0
				}
			]
		}
	],
	"accessors":[
		{
			"bufferView":0,
			"componentType":5126,
			"count":4368,
			"max":[
				1.4929471015930176,
				1.215000033378601,
				1.5563452243804932
			],
			"min":[
				-1.4929471015930176,
				0,
				-1.5563452243804932
			],
			"type":"VEC3"
		},
		{
			"bufferView":1,
			"componentType":5126,
			"count":4368,
			"type":"VEC3"
		},
		{
			"bufferView":2,
			"componentType":5126,
			"count":4368,
			"type":"VEC3"
		},
		{
			"bufferView":3,
			"componentType":5123,
			"count":5220,
			"type":"SCALAR"
		}
	],
	"bufferViews":[
		{
			"buffer":0,
			"byteLength":52416,
			"byteOffset":0,
			"target":34962
		},
		{
			"buffer":0,
			"byteLength":52416,
			"byteOffset":52416,
			"target":34962
		},
		{
			"buffer":0,
			"byteLength":52416,
			"byteOffset":104832,
			"target":34962
		},
		{
			"buffer":0,
			"byteLength":10440,
			"byteOffset":157248,
			"target":34963
		}
	],
	"buffers":[
		{
			"byteLength":167688,
			"uri":"bienenstoecke.bin"
		}
	]
}
