{
	"asset":{
		"generator":"Khronos glTF Blender I/O v5.2.40",
		"version":"2.0"
	},
	"scene":0,
	"scenes":[
		{
			"name":"Scene",
			"nodes":[
				0
			]
		}
	],
	"nodes":[
		{
			"mesh":0,
			"name":"Bruecke"
		}
	],
	"materials":[
		{
			"doubleSided":true,
			"name":"Vorkommen",
			"pbrMetallicRoughness":{
				"metallicFactor":0,
				"roughnessFactor":0.8500000238418579
			}
		}
	],
	"meshes":[
		{
			"name":"Bruecke",
			"primitives":[
				{
					"attributes":{
						"POSITION":0,
						"NORMAL":1,
						"COLOR_0":2
					},
					"indices":3,
					"material":0
				}
			]
		}
	],
	"accessors":[
		{
			"bufferView":0,
			"componentType":5126,
			"count":6312,
			"max":[
				4.5331196784973145,
				2.04707407951355,
				1.2551488876342773
			],
			"min":[
				-4.5331196784973145,
				0,
				-1.2551488876342773
			],
			"type":"VEC3"
		},
		{
			"bufferView":1,
			"componentType":5126,
			"count":6312,
			"type":"VEC3"
		},
		{
			"bufferView":2,
			"componentType":5126,
			"count":6312,
			"type":"VEC3"
		},
		{
			"bufferView":3,
			"componentType":5123,
			"count":8448,
			"type":"SCALAR"
		}
	],
	"bufferViews":[
		{
			"buffer":0,
			"byteLength":75744,
			"byteOffset":0,
			"target":34962
		},
		{
			"buffer":0,
			"byteLength":75744,
			"byteOffset":75744,
			"target":34962
		},
		{
			"buffer":0,
			"byteLength":75744,
			"byteOffset":151488,
			"target":34962
		},
		{
			"buffer":0,
			"byteLength":16896,
			"byteOffset":227232,
			"target":34963
		}
	],
	"buffers":[
		{
			"byteLength":244128,
			"uri":"bruecke.bin"
		}
	]
}
