{
	"asset":{
		"generator":"Khronos glTF Blender I/O v5.2.40",
		"version":"2.0"
	},
	"scene":0,
	"scenes":[
		{
			"name":"Scene",
			"nodes":[
				0
			]
		}
	],
	"nodes":[
		{
			"mesh":0,
			"name":"Brunnen"
		}
	],
	"materials":[
		{
			"doubleSided":true,
			"name":"Vorkommen",
			"pbrMetallicRoughness":{
				"metallicFactor":0,
				"roughnessFactor":0.8500000238418579
			}
		}
	],
	"meshes":[
		{
			"name":"Brunnen",
			"primitives":[
				{
					"attributes":{
						"POSITION":0,
						"NORMAL":1,
						"COLOR_0":2
					},
					"indices":3,
					"material":0
				}
			]
		}
	],
	"accessors":[
		{
			"bufferView":0,
			"componentType":5126,
			"count":4632,
			"max":[
				1.305773377418518,
				3.118208408355713,
				1.4500000476837158
			],
			"min":[
				-1.305773377418518,
				0,
				-1.4500000476837158
			],
			"type":"VEC3"
		},
		{
			"bufferView":1,
			"componentType":5126,
			"count":4632,
			"type":"VEC3"
		},
		{
			"bufferView":2,
			"componentType":5126,
			"count":4632,
			"type":"VEC3"
		},
		{
			"bufferView":3,
			"componentType":5123,
			"count":6456,
			"type":"SCALAR"
		}
	],
	"bufferViews":[
		{
			"buffer":0,
			"byteLength":55584,
			"byteOffset":0,
			"target":34962
		},
		{
			"buffer":0,
			"byteLength":55584,
			"byteOffset":55584,
			"target":34962
		},
		{
			"buffer":0,
			"byteLength":55584,
			"byteOffset":111168,
			"target":34962
		},
		{
			"buffer":0,
			"byteLength":12912,
			"byteOffset":166752,
			"target":34963
		}
	],
	"buffers":[
		{
			"byteLength":179664,
			"uri":"brunnen.bin"
		}
	]
}
