{
	"asset":{
		"generator":"Khronos glTF Blender I/O v5.2.40",
		"version":"2.0"
	},
	"scene":0,
	"scenes":[
		{
			"name":"Scene",
			"nodes":[
				0
			]
		}
	],
	"nodes":[
		{
			"mesh":0,
			"name":"Hoehle"
		}
	],
	"materials":[
		{
			"doubleSided":true,
			"name":"Vorkommen",
			"pbrMetallicRoughness":{
				"metallicFactor":0,
				"roughnessFactor":0.8500000238418579
			}
		}
	],
	"meshes":[
		{
			"name":"Hoehle",
			"primitives":[
				{
					"attributes":{
						"POSITION":0,
						"NORMAL":1,
						"COLOR_0":2
					},
					"indices":3,
					"material":0
				}
			]
		}
	],
	"accessors":[
		{
			"bufferView":0,
			"componentType":5126,
			"count":4197,
			"max":[
				3.2539443969726562,
				5.096983432769775,
				4.3201069831848145
			],
			"min":[
				-3.2539443969726562,
				0,
				-4.3201069831848145
			],
			"type":"VEC3"
		},
		{
			"bufferView":1,
			"componentType":5126,
			"count":4197,
			"type":"VEC3"
		},
		{
			"bufferView":2,
			"componentType":5126,
			"count":4197,
			"type":"VEC3"
		},
		{
			"bufferView":3,
			"componentType":5123,
			"count":4239,
			"type":"SCALAR"
		}
	],
	"bufferViews":[
		{
			"buffer":0,
			"byteLength":50364,
			"byteOffset":0,
			"target":34962
		},
		{
			"buffer":0,
			"byteLength":50364,
			"byteOffset":50364,
			"target":34962
		},
		{
			"buffer":0,
			"byteLength":50364,
			"byteOffset":100728,
			"target":34962
		},
		{
			"buffer":0,
			"byteLength":8478,
			"byteOffset":151092,
			"target":34963
		}
	],
	"buffers":[
		{
			"byteLength":159572,
			"uri":"hoehle.bin"
		}
	]
}
