{
	"asset":{
		"generator":"Khronos glTF Blender I/O v5.2.40",
		"version":"2.0"
	},
	"scene":0,
	"scenes":[
		{
			"name":"Scene",
			"nodes":[
				0
			]
		}
	],
	"nodes":[
		{
			"mesh":0,
			"name":"Holzstapel"
		}
	],
	"materials":[
		{
			"doubleSided":true,
			"name":"Vorkommen",
			"pbrMetallicRoughness":{
				"metallicFactor":0,
				"roughnessFactor":0.8500000238418579
			}
		}
	],
	"meshes":[
		{
			"name":"Holzstapel",
			"primitives":[
				{
					"attributes":{
						"POSITION":0,
						"NORMAL":1,
						"COLOR_0":2
					},
					"indices":3,
					"material":0
				}
			]
		}
	],
	"accessors":[
		{
			"bufferView":0,
			"componentType":5126,
			"count":3660,
			"max":[
				0.939887285232544,
				0.8128555417060852,
				0.6048930883407593
			],
			"min":[
				-0.939887285232544,
				0,
				-0.6048930883407593
			],
			"type":"VEC3"
		},
		{
			"bufferView":1,
			"componentType":5126,
			"count":3660,
			"type":"VEC3"
		},
		{
			"bufferView":2,
			"componentType":5126,
			"count":3660,
			"type":"VEC3"
		},
		{
			"bufferView":3,
			"componentType":5123,
			"count":5736,
			"type":"SCALAR"
		}
	],
	"bufferViews":[
		{
			"buffer":0,
			"byteLength":43920,
			"byteOffset":0,
			"target":34962
		},
		{
			"buffer":0,
			"byteLength":43920,
			"byteOffset":43920,
			"target":34962
		},
		{
			"buffer":0,
			"byteLength":43920,
			"byteOffset":87840,
			"target":34962
		},
		{
			"buffer":0,
			"byteLength":11472,
			"byteOffset":131760,
			"target":34963
		}
	],
	"buffers":[
		{
			"byteLength":143232,
			"uri":"holzstapel.bin"
		}
	]
}
