{
	"asset":{
		"generator":"Khronos glTF Blender I/O v5.2.40",
		"version":"2.0"
	},
	"scene":0,
	"scenes":[
		{
			"name":"Scene",
			"nodes":[
				0
			]
		}
	],
	"nodes":[
		{
			"mesh":0,
			"name":"Karren"
		}
	],
	"materials":[
		{
			"doubleSided":true,
			"name":"Vorkommen",
			"pbrMetallicRoughness":{
				"metallicFactor":0,
				"roughnessFactor":0.8500000238418579
			}
		}
	],
	"meshes":[
		{
			"name":"Karren",
			"primitives":[
				{
					"attributes":{
						"POSITION":0,
						"NORMAL":1,
						"COLOR_0":2
					},
					"indices":3,
					"material":0
				}
			]
		}
	],
	"accessors":[
		{
			"bufferView":0,
			"componentType":5126,
			"count":6576,
			"max":[
				1.497854471206665,
				1.1399999856948853,
				0.7425000667572021
			],
			"min":[
				-1.497854471206665,
				0,
				-0.7425000667572021
			],
			"type":"VEC3"
		},
		{
			"bufferView":1,
			"componentType":5126,
			"count":6576,
			"type":"VEC3"
		},
		{
			"bufferView":2,
			"componentType":5126,
			"count":6576,
			"type":"VEC3"
		},
		{
			"bufferView":3,
			"componentType":5123,
			"count":9348,
			"type":"SCALAR"
		}
	],
	"bufferViews":[
		{
			"buffer":0,
			"byteLength":78912,
			"byteOffset":0,
			"target":34962
		},
		{
			"buffer":0,
			"byteLength":78912,
			"byteOffset":78912,
			"target":34962
		},
		{
			"buffer":0,
			"byteLength":78912,
			"byteOffset":157824,
			"target":34962
		},
		{
			"buffer":0,
			"byteLength":18696,
			"byteOffset":236736,
			"target":34963
		}
	],
	"buffers":[
		{
			"byteLength":255432,
			"uri":"karren.bin"
		}
	]
}
