{
	"asset":{
		"generator":"Khronos glTF Blender I/O v5.2.40",
		"version":"2.0"
	},
	"extensionsUsed":[
		"KHR_materials_emissive_strength"
	],
	"scene":0,
	"scenes":[
		{
			"name":"Scene",
			"nodes":[
				0
			]
		}
	],
	"nodes":[
		{
			"mesh":0,
			"name":"Lagerfeuer"
		}
	],
	"materials":[
		{
			"doubleSided":true,
			"name":"Vorkommen",
			"pbrMetallicRoughness":{
				"metallicFactor":0,
				"roughnessFactor":0.8500000238418579
			}
		},
		{
			"doubleSided":true,
			"emissiveFactor":[
				1,
				0.2541520893573761,
				0.023153366521000862
			],
			"extensions":{
				"KHR_materials_emissive_strength":{
					"emissiveStrength":2.5
				}
			},
			"name":"LagerfeuerLeuchten",
			"pbrMetallicRoughness":{
				"metallicFactor":0,
				"roughnessFactor":0.5
			}
		}
	],
	"meshes":[
		{
			"name":"Lagerfeuer",
			"primitives":[
				{
					"attributes":{
						"POSITION":0,
						"NORMAL":1,
						"COLOR_0":2
					},
					"indices":3,
					"material":0
				},
				{
					"attributes":{
						"POSITION":4,
						"NORMAL":5,
						"COLOR_0":6
					},
					"indices":7,
					"material":1
				}
			]
		}
	],
	"accessors":[
		{
			"bufferView":0,
			"componentType":5126,
			"count":2260,
			"max":[
				0.7190074920654297,
				0.6858962774276733,
				0.739253044128418
			],
			"min":[
				-0.7190074920654297,
				0,
				-0.739253044128418
			],
			"type":"VEC3"
		},
		{
			"bufferView":1,
			"componentType":5126,
			"count":2260,
			"type":"VEC3"
		},
		{
			"bufferView":2,
			"componentType":5126,
			"count":2260,
			"type":"VEC3"
		},
		{
			"bufferView":3,
			"componentType":5123,
			"count":2706,
			"type":"SCALAR"
		},
		{
			"bufferView":4,
			"componentType":5126,
			"count":840,
			"max":[
				0.3296796977519989,
				0.10650278627872467,
				0.2960108518600464
			],
			"min":[
				-0.1834392249584198,
				0.05062129348516464,
				-0.40281689167022705
			],
			"type":"VEC3"
		},
		{
			"bufferView":5,
			"componentType":5126,
			"count":840,
			"type":"VEC3"
		},
		{
			"bufferView":6,
			"componentType":5126,
			"count":840,
			"type":"VEC3"
		},
		{
			"bufferView":7,
			"componentType":5123,
			"count":840,
			"type":"SCALAR"
		}
	],
	"bufferViews":[
		{
			"buffer":0,
			"byteLength":27120,
			"byteOffset":0,
			"target":34962
		},
		{
			"buffer":0,
			"byteLength":27120,
			"byteOffset":27120,
			"target":34962
		},
		{
			"buffer":0,
			"byteLength":27120,
			"byteOffset":54240,
			"target":34962
		},
		{
			"buffer":0,
			"byteLength":5412,
			"byteOffset":81360,
			"target":34963
		},
		{
			"buffer":0,
			"byteLength":10080,
			"byteOffset":86772,
			"target":34962
		},
		{
			"buffer":0,
			"byteLength":10080,
			"byteOffset":96852,
			"target":34962
		},
		{
			"buffer":0,
			"byteLength":10080,
			"byteOffset":106932,
			"target":34962
		},
		{
			"buffer":0,
			"byteLength":1680,
			"byteOffset":117012,
			"target":34963
		}
	],
	"buffers":[
		{
			"byteLength":118692,
			"uri":"lagerfeuer.bin"
		}
	]
}
