{
	"asset":{
		"generator":"Khronos glTF Blender I/O v5.2.40",
		"version":"2.0"
	},
	"extensionsUsed":[
		"KHR_materials_emissive_strength"
	],
	"scene":0,
	"scenes":[
		{
			"name":"Scene",
			"nodes":[
				0
			]
		}
	],
	"nodes":[
		{
			"mesh":0,
			"name":"Laterne"
		}
	],
	"materials":[
		{
			"doubleSided":true,
			"name":"Vorkommen",
			"pbrMetallicRoughness":{
				"metallicFactor":0,
				"roughnessFactor":0.8500000238418579
			}
		},
		{
			"doubleSided":true,
			"emissiveFactor":[
				1,
				0.5271151065826416,
				0.11697066575288773
			],
			"extensions":{
				"KHR_materials_emissive_strength":{
					"emissiveStrength":2.5
				}
			},
			"name":"LaterneLeuchten",
			"pbrMetallicRoughness":{
				"metallicFactor":0,
				"roughnessFactor":0.5
			}
		}
	],
	"meshes":[
		{
			"name":"Laterne",
			"primitives":[
				{
					"attributes":{
						"POSITION":0,
						"NORMAL":1,
						"COLOR_0":2
					},
					"indices":3,
					"material":0
				},
				{
					"attributes":{
						"POSITION":4,
						"NORMAL":5,
						"COLOR_0":6
					},
					"indices":7,
					"material":1
				}
			]
		}
	],
	"accessors":[
		{
			"bufferView":0,
			"componentType":5126,
			"count":384,
			"max":[
				0.30821067094802856,
				2.0999999046325684,
				0.1414213627576828
			],
			"min":[
				-0.30821067094802856,
				0,
				-0.1414213627576828
			],
			"type":"VEC3"
		},
		{
			"bufferView":1,
			"componentType":5126,
			"count":384,
			"type":"VEC3"
		},
		{
			"bufferView":2,
			"componentType":5126,
			"count":384,
			"type":"VEC3"
		},
		{
			"bufferView":3,
			"componentType":5123,
			"count":552,
			"type":"SCALAR"
		},
		{
			"bufferView":4,
			"componentType":5126,
			"count":24,
			"max":[
				0.2517893314361572,
				1.7699999809265137,
				0.08500000089406967
			],
			"min":[
				0.08178931474685669,
				1.5499999523162842,
				-0.08500000089406967
			],
			"type":"VEC3"
		},
		{
			"bufferView":5,
			"componentType":5126,
			"count":24,
			"type":"VEC3"
		},
		{
			"bufferView":6,
			"componentType":5126,
			"count":24,
			"type":"VEC3"
		},
		{
			"bufferView":7,
			"componentType":5123,
			"count":36,
			"type":"SCALAR"
		}
	],
	"bufferViews":[
		{
			"buffer":0,
			"byteLength":4608,
			"byteOffset":0,
			"target":34962
		},
		{
			"buffer":0,
			"byteLength":4608,
			"byteOffset":4608,
			"target":34962
		},
		{
			"buffer":0,
			"byteLength":4608,
			"byteOffset":9216,
			"target":34962
		},
		{
			"buffer":0,
			"byteLength":1104,
			"byteOffset":13824,
			"target":34963
		},
		{
			"buffer":0,
			"byteLength":288,
			"byteOffset":14928,
			"target":34962
		},
		{
			"buffer":0,
			"byteLength":288,
			"byteOffset":15216,
			"target":34962
		},
		{
			"buffer":0,
			"byteLength":288,
			"byteOffset":15504,
			"target":34962
		},
		{
			"buffer":0,
			"byteLength":72,
			"byteOffset":15792,
			"target":34963
		}
	],
	"buffers":[
		{
			"byteLength":15864,
			"uri":"laterne.bin"
		}
	]
}
