{
	"asset":{
		"generator":"Khronos glTF Blender I/O v5.2.40",
		"version":"2.0"
	},
	"extensionsUsed":[
		"KHR_materials_emissive_strength"
	],
	"scene":0,
	"scenes":[
		{
			"name":"Scene",
			"nodes":[
				0
			]
		}
	],
	"nodes":[
		{
			"mesh":0,
			"name":"Leuchtturm"
		}
	],
	"materials":[
		{
			"doubleSided":true,
			"name":"Vorkommen",
			"pbrMetallicRoughness":{
				"metallicFactor":0,
				"roughnessFactor":0.8500000238418579
			}
		},
		{
			"doubleSided":true,
			"emissiveFactor":[
				1,
				0.7454041838645935,
				0.2541520893573761
			],
			"extensions":{
				"KHR_materials_emissive_strength":{
					"emissiveStrength":3
				}
			},
			"name":"LeuchtturmLeuchten",
			"pbrMetallicRoughness":{
				"metallicFactor":0,
				"roughnessFactor":0.5
			}
		}
	],
	"meshes":[
		{
			"name":"Leuchtturm",
			"primitives":[
				{
					"attributes":{
						"POSITION":0,
						"NORMAL":1,
						"COLOR_0":2
					},
					"indices":3,
					"material":0
				},
				{
					"attributes":{
						"POSITION":4,
						"NORMAL":5,
						"COLOR_0":6
					},
					"indices":7,
					"material":1
				}
			]
		}
	],
	"accessors":[
		{
			"bufferView":0,
			"componentType":5126,
			"count":2928,
			"max":[
				1.9172461032867432,
				12.425344467163086,
				2.0196785926818848
			],
			"min":[
				-1.9172461032867432,
				0,
				-2.0196785926818848
			],
			"type":"VEC3"
		},
		{
			"bufferView":1,
			"componentType":5126,
			"count":2928,
			"type":"VEC3"
		},
		{
			"bufferView":2,
			"componentType":5126,
			"count":2928,
			"type":"VEC3"
		},
		{
			"bufferView":3,
			"componentType":5123,
			"count":4464,
			"type":"SCALAR"
		},
		{
			"bufferView":4,
			"componentType":5126,
			"count":48,
			"max":[
				0.9447439312934875,
				11.525344848632812,
				0.7974044680595398
			],
			"min":[
				-0.6552560925483704,
				10.425344467163086,
				-0.8025955557823181
			],
			"type":"VEC3"
		},
		{
			"bufferView":5,
			"componentType":5126,
			"count":48,
			"type":"VEC3"
		},
		{
			"bufferView":6,
			"componentType":5126,
			"count":48,
			"type":"VEC3"
		},
		{
			"bufferView":7,
			"componentType":5123,
			"count":84,
			"type":"SCALAR"
		}
	],
	"bufferViews":[
		{
			"buffer":0,
			"byteLength":35136,
			"byteOffset":0,
			"target":34962
		},
		{
			"buffer":0,
			"byteLength":35136,
			"byteOffset":35136,
			"target":34962
		},
		{
			"buffer":0,
			"byteLength":35136,
			"byteOffset":70272,
			"target":34962
		},
		{
			"buffer":0,
			"byteLength":8928,
			"byteOffset":105408,
			"target":34963
		},
		{
			"buffer":0,
			"byteLength":576,
			"byteOffset":114336,
			"target":34962
		},
		{
			"buffer":0,
			"byteLength":576,
			"byteOffset":114912,
			"target":34962
		},
		{
			"buffer":0,
			"byteLength":576,
			"byteOffset":115488,
			"target":34962
		},
		{
			"buffer":0,
			"byteLength":168,
			"byteOffset":116064,
			"target":34963
		}
	],
	"buffers":[
		{
			"byteLength":116232,
			"uri":"leuchtturm.bin"
		}
	]
}
