{
	"asset":{
		"generator":"Khronos glTF Blender I/O v5.2.40",
		"version":"2.0"
	},
	"scene":0,
	"scenes":[
		{
			"name":"Scene",
			"nodes":[
				0
			]
		}
	],
	"nodes":[
		{
			"mesh":0,
			"name":"Ruderboot"
		}
	],
	"materials":[
		{
			"doubleSided":true,
			"name":"Vorkommen",
			"pbrMetallicRoughness":{
				"metallicFactor":0,
				"roughnessFactor":0.8500000238418579
			}
		}
	],
	"meshes":[
		{
			"name":"Ruderboot",
			"primitives":[
				{
					"attributes":{
						"POSITION":0,
						"NORMAL":1,
						"COLOR_0":2
					},
					"indices":3,
					"material":0
				}
			]
		}
	],
	"accessors":[
		{
			"bufferView":0,
			"componentType":5126,
			"count":1240,
			"max":[
				1.5,
				0.5802529454231262,
				0.5630459785461426
			],
			"min":[
				-1.5,
				0,
				-0.5630459785461426
			],
			"type":"VEC3"
		},
		{
			"bufferView":1,
			"componentType":5126,
			"count":1240,
			"type":"VEC3"
		},
		{
			"bufferView":2,
			"componentType":5126,
			"count":1240,
			"type":"VEC3"
		},
		{
			"bufferView":3,
			"componentType":5123,
			"count":1824,
			"type":"SCALAR"
		}
	],
	"bufferViews":[
		{
			"buffer":0,
			"byteLength":14880,
			"byteOffset":0,
			"target":34962
		},
		{
			"buffer":0,
			"byteLength":14880,
			"byteOffset":14880,
			"target":34962
		},
		{
			"buffer":0,
			"byteLength":14880,
			"byteOffset":29760,
			"target":34962
		},
		{
			"buffer":0,
			"byteLength":3648,
			"byteOffset":44640,
			"target":34963
		}
	],
	"buffers":[
		{
			"byteLength":48288,
			"uri":"ruderboot.bin"
		}
	]
}
