{
	"asset":{
		"generator":"Khronos glTF Blender I/O v5.2.40",
		"version":"2.0"
	},
	"extensionsUsed":[
		"KHR_materials_emissive_strength"
	],
	"scene":0,
	"scenes":[
		{
			"name":"Scene",
			"nodes":[
				0
			]
		}
	],
	"nodes":[
		{
			"mesh":0,
			"name":"Runenstein"
		}
	],
	"materials":[
		{
			"doubleSided":true,
			"name":"Burg",
			"pbrMetallicRoughness":{
				"metallicFactor":0,
				"roughnessFactor":0.8999999761581421
			}
		},
		{
			"doubleSided":true,
			"emissiveFactor":[
				1,
				0.7605245113372803,
				0.3915724754333496
			],
			"extensions":{
				"KHR_materials_emissive_strength":{
					"emissiveStrength":3
				}
			},
			"name":"RunensteinGlas",
			"pbrMetallicRoughness":{
				"metallicFactor":0,
				"roughnessFactor":0.5
			}
		}
	],
	"meshes":[
		{
			"name":"Runenstein",
			"primitives":[
				{
					"attributes":{
						"POSITION":0,
						"NORMAL":1,
						"TEXCOORD_0":2,
						"COLOR_0":3
					},
					"indices":4,
					"material":0
				},
				{
					"attributes":{
						"POSITION":5,
						"NORMAL":6,
						"TEXCOORD_0":7,
						"COLOR_0":8
					},
					"indices":9,
					"material":1
				}
			]
		}
	],
	"accessors":[
		{
			"bufferView":0,
			"componentType":5126,
			"count":180,
			"max":[
				0.3400000035762787,
				1.340000033378601,
				0.35499998927116394
			],
			"min":[
				-0.3400000035762787,
				0,
				-0.35499998927116394
			],
			"type":"VEC3"
		},
		{
			"bufferView":1,
			"componentType":5126,
			"count":180,
			"type":"VEC3"
		},
		{
			"bufferView":2,
			"componentType":5126,
			"count":180,
			"type":"VEC2"
		},
		{
			"bufferView":3,
			"componentType":5126,
			"count":180,
			"type":"VEC3"
		},
		{
			"bufferView":4,
			"componentType":5123,
			"count":264,
			"type":"SCALAR"
		},
		{
			"bufferView":5,
			"componentType":5126,
			"count":360,
			"max":[
				0.6098985075950623,
				1.1973962783813477,
				0.6742386817932129
			],
			"min":[
				-0.5352329015731812,
				0.5667144656181335,
				-0.4112885594367981
			],
			"type":"VEC3"
		},
		{
			"bufferView":6,
			"componentType":5126,
			"count":360,
			"type":"VEC3"
		},
		{
			"bufferView":7,
			"componentType":5126,
			"count":360,
			"type":"VEC2"
		},
		{
			"bufferView":8,
			"componentType":5126,
			"count":360,
			"type":"VEC3"
		},
		{
			"bufferView":9,
			"componentType":5123,
			"count":486,
			"type":"SCALAR"
		}
	],
	"bufferViews":[
		{
			"buffer":0,
			"byteLength":2160,
			"byteOffset":0,
			"target":34962
		},
		{
			"buffer":0,
			"byteLength":2160,
			"byteOffset":2160,
			"target":34962
		},
		{
			"buffer":0,
			"byteLength":1440,
			"byteOffset":4320,
			"target":34962
		},
		{
			"buffer":0,
			"byteLength":2160,
			"byteOffset":5760,
			"target":34962
		},
		{
			"buffer":0,
			"byteLength":528,
			"byteOffset":7920,
			"target":34963
		},
		{
			"buffer":0,
			"byteLength":4320,
			"byteOffset":8448,
			"target":34962
		},
		{
			"buffer":0,
			"byteLength":4320,
			"byteOffset":12768,
			"target":34962
		},
		{
			"buffer":0,
			"byteLength":2880,
			"byteOffset":17088,
			"target":34962
		},
		{
			"buffer":0,
			"byteLength":4320,
			"byteOffset":19968,
			"target":34962
		},
		{
			"buffer":0,
			"byteLength":972,
			"byteOffset":24288,
			"target":34963
		}
	],
	"buffers":[
		{
			"byteLength":25260,
			"uri":"runenstein.bin"
		}
	]
}
