{
	"asset":{
		"generator":"Khronos glTF Blender I/O v5.2.40",
		"version":"2.0"
	},
	"scene":0,
	"scenes":[
		{
			"name":"Scene",
			"nodes":[
				0
			]
		}
	],
	"nodes":[
		{
			"mesh":0,
			"name":"Schiffswrack"
		}
	],
	"materials":[
		{
			"doubleSided":true,
			"name":"Vorkommen",
			"pbrMetallicRoughness":{
				"metallicFactor":0,
				"roughnessFactor":0.8500000238418579
			}
		}
	],
	"meshes":[
		{
			"name":"Schiffswrack",
			"primitives":[
				{
					"attributes":{
						"POSITION":0,
						"NORMAL":1,
						"COLOR_0":2
					},
					"indices":3,
					"material":0
				}
			]
		}
	],
	"accessors":[
		{
			"bufferView":0,
			"componentType":5126,
			"count":4252,
			"max":[
				4.516842365264893,
				2.5819289684295654,
				2.7426671981811523
			],
			"min":[
				-4.307830333709717,
				-2.9802322387695312e-08,
				-3.4032270908355713
			],
			"type":"VEC3"
		},
		{
			"bufferView":1,
			"componentType":5126,
			"count":4252,
			"type":"VEC3"
		},
		{
			"bufferView":2,
			"componentType":5126,
			"count":4252,
			"type":"VEC3"
		},
		{
			"bufferView":3,
			"componentType":5123,
			"count":6852,
			"type":"SCALAR"
		}
	],
	"bufferViews":[
		{
			"buffer":0,
			"byteLength":51024,
			"byteOffset":0,
			"target":34962
		},
		{
			"buffer":0,
			"byteLength":51024,
			"byteOffset":51024,
			"target":34962
		},
		{
			"buffer":0,
			"byteLength":51024,
			"byteOffset":102048,
			"target":34962
		},
		{
			"buffer":0,
			"byteLength":13704,
			"byteOffset":153072,
			"target":34963
		}
	],
	"buffers":[
		{
			"byteLength":166776,
			"uri":"schiffswrack.bin"
		}
	]
}
