{
	"asset":{
		"generator":"Khronos glTF Blender I/O v5.2.40",
		"version":"2.0"
	},
	"extensionsUsed":[
		"KHR_materials_emissive_strength"
	],
	"scene":0,
	"scenes":[
		{
			"name":"Scene",
			"nodes":[
				0
			]
		}
	],
	"nodes":[
		{
			"mesh":0,
			"name":"Schrein"
		}
	],
	"materials":[
		{
			"doubleSided":true,
			"name":"Vorkommen",
			"pbrMetallicRoughness":{
				"metallicFactor":0,
				"roughnessFactor":0.8500000238418579
			}
		},
		{
			"doubleSided":true,
			"emissiveFactor":[
				1,
				0.5271151065826416,
				0.11697066575288773
			],
			"extensions":{
				"KHR_materials_emissive_strength":{
					"emissiveStrength":2.5
				}
			},
			"name":"SchreinLeuchten",
			"pbrMetallicRoughness":{
				"metallicFactor":0,
				"roughnessFactor":0.5
			}
		}
	],
	"meshes":[
		{
			"name":"Schrein",
			"primitives":[
				{
					"attributes":{
						"POSITION":0,
						"NORMAL":1,
						"COLOR_0":2
					},
					"indices":3,
					"material":0
				},
				{
					"attributes":{
						"POSITION":4,
						"NORMAL":5,
						"COLOR_0":6
					},
					"indices":7,
					"material":1
				}
			]
		}
	],
	"accessors":[
		{
			"bufferView":0,
			"componentType":5126,
			"count":1800,
			"max":[
				1.600000023841858,
				3.619999885559082,
				1.600000023841858
			],
			"min":[
				-1.600000023841858,
				0,
				-1.600000023841858
			],
			"type":"VEC3"
		},
		{
			"bufferView":1,
			"componentType":5126,
			"count":1800,
			"type":"VEC3"
		},
		{
			"bufferView":2,
			"componentType":5126,
			"count":1800,
			"type":"VEC3"
		},
		{
			"bufferView":3,
			"componentType":5123,
			"count":2664,
			"type":"SCALAR"
		},
		{
			"bufferView":4,
			"componentType":5126,
			"count":96,
			"max":[
				0.14000000059604645,
				1.559999942779541,
				0.14000000059604645
			],
			"min":[
				-0.14000000059604645,
				1.2000000476837158,
				-0.14000000059604645
			],
			"type":"VEC3"
		},
		{
			"bufferView":5,
			"componentType":5126,
			"count":96,
			"type":"VEC3"
		},
		{
			"bufferView":6,
			"componentType":5126,
			"count":96,
			"type":"VEC3"
		},
		{
			"bufferView":7,
			"componentType":5123,
			"count":132,
			"type":"SCALAR"
		}
	],
	"bufferViews":[
		{
			"buffer":0,
			"byteLength":21600,
			"byteOffset":0,
			"target":34962
		},
		{
			"buffer":0,
			"byteLength":21600,
			"byteOffset":21600,
			"target":34962
		},
		{
			"buffer":0,
			"byteLength":21600,
			"byteOffset":43200,
			"target":34962
		},
		{
			"buffer":0,
			"byteLength":5328,
			"byteOffset":64800,
			"target":34963
		},
		{
			"buffer":0,
			"byteLength":1152,
			"byteOffset":70128,
			"target":34962
		},
		{
			"buffer":0,
			"byteLength":1152,
			"byteOffset":71280,
			"target":34962
		},
		{
			"buffer":0,
			"byteLength":1152,
			"byteOffset":72432,
			"target":34962
		},
		{
			"buffer":0,
			"byteLength":264,
			"byteOffset":73584,
			"target":34963
		}
	],
	"buffers":[
		{
			"byteLength":73848,
			"uri":"schrein.bin"
		}
	]
}
