{
	"asset":{
		"generator":"Khronos glTF Blender I/O v5.2.40",
		"version":"2.0"
	},
	"scene":0,
	"scenes":[
		{
			"name":"Scene",
			"nodes":[
				0
			]
		}
	],
	"nodes":[
		{
			"mesh":0,
			"name":"Steg"
		}
	],
	"materials":[
		{
			"doubleSided":true,
			"name":"Vorkommen",
			"pbrMetallicRoughness":{
				"metallicFactor":0,
				"roughnessFactor":0.8500000238418579
			}
		}
	],
	"meshes":[
		{
			"name":"Steg",
			"primitives":[
				{
					"attributes":{
						"POSITION":0,
						"NORMAL":1,
						"COLOR_0":2
					},
					"indices":3,
					"material":0
				}
			]
		}
	],
	"accessors":[
		{
			"bufferView":0,
			"componentType":5126,
			"count":3552,
			"max":[
				3.5039689540863037,
				2.200000047683716,
				0.7058442234992981
			],
			"min":[
				-3.5039687156677246,
				0,
				-0.7058442234992981
			],
			"type":"VEC3"
		},
		{
			"bufferView":1,
			"componentType":5126,
			"count":3552,
			"type":"VEC3"
		},
		{
			"bufferView":2,
			"componentType":5126,
			"count":3552,
			"type":"VEC3"
		},
		{
			"bufferView":3,
			"componentType":5123,
			"count":5064,
			"type":"SCALAR"
		}
	],
	"bufferViews":[
		{
			"buffer":0,
			"byteLength":42624,
			"byteOffset":0,
			"target":34962
		},
		{
			"buffer":0,
			"byteLength":42624,
			"byteOffset":42624,
			"target":34962
		},
		{
			"buffer":0,
			"byteLength":42624,
			"byteOffset":85248,
			"target":34962
		},
		{
			"buffer":0,
			"byteLength":10128,
			"byteOffset":127872,
			"target":34963
		}
	],
	"buffers":[
		{
			"byteLength":138000,
			"uri":"steg.bin"
		}
	]
}
