{
	"asset":{
		"generator":"Khronos glTF Blender I/O v5.2.40",
		"version":"2.0"
	},
	"extensionsUsed":[
		"KHR_materials_emissive_strength"
	],
	"scene":0,
	"scenes":[
		{
			"name":"Scene",
			"nodes":[
				0
			]
		}
	],
	"nodes":[
		{
			"mesh":0,
			"name":"Steinkreis"
		}
	],
	"materials":[
		{
			"doubleSided":true,
			"name":"Vorkommen",
			"pbrMetallicRoughness":{
				"metallicFactor":0,
				"roughnessFactor":0.8500000238418579
			}
		},
		{
			"doubleSided":true,
			"emissiveFactor":[
				0.15896083414554596,
				0.8069522380828857,
				1
			],
			"extensions":{
				"KHR_materials_emissive_strength":{
					"emissiveStrength":3
				}
			},
			"name":"SteinkreisLeuchten",
			"pbrMetallicRoughness":{
				"metallicFactor":0,
				"roughnessFactor":0.5
			}
		}
	],
	"meshes":[
		{
			"name":"Steinkreis",
			"primitives":[
				{
					"attributes":{
						"POSITION":0,
						"NORMAL":1,
						"COLOR_0":2
					},
					"indices":3,
					"material":0
				},
				{
					"attributes":{
						"POSITION":4,
						"NORMAL":5,
						"COLOR_0":6
					},
					"indices":7,
					"material":1
				}
			]
		}
	],
	"accessors":[
		{
			"bufferView":0,
			"componentType":5126,
			"count":1212,
			"max":[
				5.288920879364014,
				3.4555130004882812,
				5.303546905517578
			],
			"min":[
				-5.288920879364014,
				0,
				-5.303546905517578
			],
			"type":"VEC3"
		},
		{
			"bufferView":1,
			"componentType":5126,
			"count":1212,
			"type":"VEC3"
		},
		{
			"bufferView":2,
			"componentType":5126,
			"count":1212,
			"type":"VEC3"
		},
		{
			"bufferView":3,
			"componentType":5123,
			"count":1608,
			"type":"SCALAR"
		},
		{
			"bufferView":4,
			"componentType":5126,
			"count":168,
			"max":[
				0.27264249324798584,
				0.9833647012710571,
				0.4041026830673218
			],
			"min":[
				-0.487357497215271,
				0.9633647203445435,
				-0.35589730739593506
			],
			"type":"VEC3"
		},
		{
			"bufferView":5,
			"componentType":5126,
			"count":168,
			"type":"VEC3"
		},
		{
			"bufferView":6,
			"componentType":5126,
			"count":168,
			"type":"VEC3"
		},
		{
			"bufferView":7,
			"componentType":5123,
			"count":252,
			"type":"SCALAR"
		}
	],
	"bufferViews":[
		{
			"buffer":0,
			"byteLength":14544,
			"byteOffset":0,
			"target":34962
		},
		{
			"buffer":0,
			"byteLength":14544,
			"byteOffset":14544,
			"target":34962
		},
		{
			"buffer":0,
			"byteLength":14544,
			"byteOffset":29088,
			"target":34962
		},
		{
			"buffer":0,
			"byteLength":3216,
			"byteOffset":43632,
			"target":34963
		},
		{
			"buffer":0,
			"byteLength":2016,
			"byteOffset":46848,
			"target":34962
		},
		{
			"buffer":0,
			"byteLength":2016,
			"byteOffset":48864,
			"target":34962
		},
		{
			"buffer":0,
			"byteLength":2016,
			"byteOffset":50880,
			"target":34962
		},
		{
			"buffer":0,
			"byteLength":504,
			"byteOffset":52896,
			"target":34963
		}
	],
	"buffers":[
		{
			"byteLength":53400,
			"uri":"steinkreis.bin"
		}
	]
}
