{
	"asset":{
		"generator":"Khronos glTF Blender I/O v5.2.40",
		"version":"2.0"
	},
	"extensionsUsed":[
		"KHR_materials_emissive_strength"
	],
	"scene":0,
	"scenes":[
		{
			"name":"Scene",
			"nodes":[
				0
			]
		}
	],
	"nodes":[
		{
			"mesh":0,
			"name":"Tempelruine"
		}
	],
	"materials":[
		{
			"doubleSided":true,
			"name":"Vorkommen",
			"pbrMetallicRoughness":{
				"metallicFactor":0,
				"roughnessFactor":0.8500000238418579
			}
		},
		{
			"doubleSided":true,
			"emissiveFactor":[
				0.21223075687885284,
				0.7379103899002075,
				1
			],
			"extensions":{
				"KHR_materials_emissive_strength":{
					"emissiveStrength":3
				}
			},
			"name":"TempelruineLeuchten",
			"pbrMetallicRoughness":{
				"metallicFactor":0,
				"roughnessFactor":0.5
			}
		}
	],
	"meshes":[
		{
			"name":"Tempelruine",
			"primitives":[
				{
					"attributes":{
						"POSITION":0,
						"NORMAL":1,
						"COLOR_0":2
					},
					"indices":3,
					"material":0
				},
				{
					"attributes":{
						"POSITION":4,
						"NORMAL":5,
						"COLOR_0":6
					},
					"indices":7,
					"material":1
				}
			]
		}
	],
	"accessors":[
		{
			"bufferView":0,
			"componentType":5126,
			"count":6760,
			"max":[
				6.504100799560547,
				6.353630542755127,
				5.1748046875
			],
			"min":[
				-6.504100799560547,
				0,
				-5.1748046875
			],
			"type":"VEC3"
		},
		{
			"bufferView":1,
			"componentType":5126,
			"count":6760,
			"type":"VEC3"
		},
		{
			"bufferView":2,
			"componentType":5126,
			"count":6760,
			"type":"VEC3"
		},
		{
			"bufferView":3,
			"componentType":5123,
			"count":9000,
			"type":"SCALAR"
		},
		{
			"bufferView":4,
			"componentType":5126,
			"count":72,
			"max":[
				0.135991632938385,
				2.7436306476593018,
				0.3486507833003998
			],
			"min":[
				-0.004008382558822632,
				1.863630771636963,
				0.14865079522132874
			],
			"type":"VEC3"
		},
		{
			"bufferView":5,
			"componentType":5126,
			"count":72,
			"type":"VEC3"
		},
		{
			"bufferView":6,
			"componentType":5126,
			"count":72,
			"type":"VEC3"
		},
		{
			"bufferView":7,
			"componentType":5123,
			"count":108,
			"type":"SCALAR"
		}
	],
	"bufferViews":[
		{
			"buffer":0,
			"byteLength":81120,
			"byteOffset":0,
			"target":34962
		},
		{
			"buffer":0,
			"byteLength":81120,
			"byteOffset":81120,
			"target":34962
		},
		{
			"buffer":0,
			"byteLength":81120,
			"byteOffset":162240,
			"target":34962
		},
		{
			"buffer":0,
			"byteLength":18000,
			"byteOffset":243360,
			"target":34963
		},
		{
			"buffer":0,
			"byteLength":864,
			"byteOffset":261360,
			"target":34962
		},
		{
			"buffer":0,
			"byteLength":864,
			"byteOffset":262224,
			"target":34962
		},
		{
			"buffer":0,
			"byteLength":864,
			"byteOffset":263088,
			"target":34962
		},
		{
			"buffer":0,
			"byteLength":216,
			"byteOffset":263952,
			"target":34963
		}
	],
	"buffers":[
		{
			"byteLength":264168,
			"uri":"tempelruine.bin"
		}
	]
}
