{
	"asset":{
		"generator":"Khronos glTF Blender I/O v5.2.40",
		"version":"2.0"
	},
	"scene":0,
	"scenes":[
		{
			"name":"Scene",
			"nodes":[
				0
			]
		}
	],
	"nodes":[
		{
			"mesh":0,
			"name":"Wachturm"
		}
	],
	"materials":[
		{
			"doubleSided":true,
			"name":"Vorkommen",
			"pbrMetallicRoughness":{
				"metallicFactor":0,
				"roughnessFactor":0.8500000238418579
			}
		}
	],
	"meshes":[
		{
			"name":"Wachturm",
			"primitives":[
				{
					"attributes":{
						"POSITION":0,
						"NORMAL":1,
						"COLOR_0":2
					},
					"indices":3,
					"material":0
				}
			]
		}
	],
	"accessors":[
		{
			"bufferView":0,
			"componentType":5126,
			"count":5264,
			"max":[
				4.01157283782959,
				4.776031494140625,
				4.407741546630859
			],
			"min":[
				-4.01157283782959,
				0,
				-4.407741546630859
			],
			"type":"VEC3"
		},
		{
			"bufferView":1,
			"componentType":5126,
			"count":5264,
			"type":"VEC3"
		},
		{
			"bufferView":2,
			"componentType":5126,
			"count":5264,
			"type":"VEC3"
		},
		{
			"bufferView":3,
			"componentType":5123,
			"count":7158,
			"type":"SCALAR"
		}
	],
	"bufferViews":[
		{
			"buffer":0,
			"byteLength":63168,
			"byteOffset":0,
			"target":34962
		},
		{
			"buffer":0,
			"byteLength":63168,
			"byteOffset":63168,
			"target":34962
		},
		{
			"buffer":0,
			"byteLength":63168,
			"byteOffset":126336,
			"target":34962
		},
		{
			"buffer":0,
			"byteLength":14316,
			"byteOffset":189504,
			"target":34963
		}
	],
	"buffers":[
		{
			"byteLength":203820,
			"uri":"wachturm.bin"
		}
	]
}
