{
	"asset":{
		"generator":"Khronos glTF Blender I/O v5.2.40",
		"version":"2.0"
	},
	"scene":0,
	"scenes":[
		{
			"name":"Scene",
			"nodes":[
				0
			]
		}
	],
	"nodes":[
		{
			"mesh":0,
			"name":"Weizenfeld"
		}
	],
	"materials":[
		{
			"doubleSided":true,
			"name":"Vorkommen",
			"pbrMetallicRoughness":{
				"metallicFactor":0,
				"roughnessFactor":0.8500000238418579
			}
		}
	],
	"meshes":[
		{
			"name":"Weizenfeld",
			"primitives":[
				{
					"attributes":{
						"POSITION":0,
						"NORMAL":1,
						"COLOR_0":2
					},
					"indices":3,
					"material":0
				}
			]
		}
	],
	"accessors":[
		{
			"bufferView":0,
			"componentType":5126,
			"count":4560,
			"max":[
				4.800000190734863,
				1.5455838441848755,
				3.299999952316284
			],
			"min":[
				-4.800000190734863,
				0,
				-3.299999952316284
			],
			"type":"VEC3"
		},
		{
			"bufferView":1,
			"componentType":5126,
			"count":4560,
			"type":"VEC3"
		},
		{
			"bufferView":2,
			"componentType":5126,
			"count":4560,
			"type":"VEC3"
		},
		{
			"bufferView":3,
			"componentType":5123,
			"count":4572,
			"type":"SCALAR"
		}
	],
	"bufferViews":[
		{
			"buffer":0,
			"byteLength":54720,
			"byteOffset":0,
			"target":34962
		},
		{
			"buffer":0,
			"byteLength":54720,
			"byteOffset":54720,
			"target":34962
		},
		{
			"buffer":0,
			"byteLength":54720,
			"byteOffset":109440,
			"target":34962
		},
		{
			"buffer":0,
			"byteLength":9144,
			"byteOffset":164160,
			"target":34963
		}
	],
	"buffers":[
		{
			"byteLength":173304,
			"uri":"weizenfeld.bin"
		}
	]
}
