{
	"asset":{
		"generator":"Khronos glTF Blender I/O v5.2.40",
		"version":"2.0"
	},
	"scene":0,
	"scenes":[
		{
			"name":"Scene",
			"nodes":[
				0
			]
		}
	],
	"nodes":[
		{
			"mesh":0,
			"name":"Windmuehle"
		}
	],
	"materials":[
		{
			"doubleSided":true,
			"name":"Vorkommen",
			"pbrMetallicRoughness":{
				"metallicFactor":0,
				"roughnessFactor":0.8500000238418579
			}
		}
	],
	"meshes":[
		{
			"name":"Windmuehle",
			"primitives":[
				{
					"attributes":{
						"POSITION":0,
						"NORMAL":1,
						"COLOR_0":2
					},
					"indices":3,
					"material":0
				}
			]
		}
	],
	"accessors":[
		{
			"bufferView":0,
			"componentType":5126,
			"count":2546,
			"max":[
				3.183966636657715,
				10.050000190734863,
				2.75
			],
			"min":[
				-3.183966636657715,
				0,
				-2.75
			],
			"type":"VEC3"
		},
		{
			"bufferView":1,
			"componentType":5126,
			"count":2546,
			"type":"VEC3"
		},
		{
			"bufferView":2,
			"componentType":5126,
			"count":2546,
			"type":"VEC3"
		},
		{
			"bufferView":3,
			"componentType":5123,
			"count":3774,
			"type":"SCALAR"
		}
	],
	"bufferViews":[
		{
			"buffer":0,
			"byteLength":30552,
			"byteOffset":0,
			"target":34962
		},
		{
			"buffer":0,
			"byteLength":30552,
			"byteOffset":30552,
			"target":34962
		},
		{
			"buffer":0,
			"byteLength":30552,
			"byteOffset":61104,
			"target":34962
		},
		{
			"buffer":0,
			"byteLength":7548,
			"byteOffset":91656,
			"target":34963
		}
	],
	"buffers":[
		{
			"byteLength":99204,
			"uri":"windmuehle.bin"
		}
	]
}
