{
	"asset":{
		"generator":"Khronos glTF Blender I/O v5.2.40",
		"version":"2.0"
	},
	"scene":0,
	"scenes":[
		{
			"name":"Scene",
			"nodes":[
				0
			]
		}
	],
	"nodes":[
		{
			"mesh":0,
			"name":"Zelt"
		}
	],
	"materials":[
		{
			"doubleSided":true,
			"name":"Vorkommen",
			"pbrMetallicRoughness":{
				"metallicFactor":0,
				"roughnessFactor":0.8500000238418579
			}
		}
	],
	"meshes":[
		{
			"name":"Zelt",
			"primitives":[
				{
					"attributes":{
						"POSITION":0,
						"NORMAL":1,
						"COLOR_0":2
					},
					"indices":3,
					"material":0
				}
			]
		}
	],
	"accessors":[
		{
			"bufferView":0,
			"componentType":5126,
			"count":2708,
			"max":[
				1.6377825736999512,
				1.6908155679702759,
				1.5149999856948853
			],
			"min":[
				-1.6377825736999512,
				0,
				-1.5149999856948853
			],
			"type":"VEC3"
		},
		{
			"bufferView":1,
			"componentType":5126,
			"count":2708,
			"type":"VEC3"
		},
		{
			"bufferView":2,
			"componentType":5126,
			"count":2708,
			"type":"VEC3"
		},
		{
			"bufferView":3,
			"componentType":5123,
			"count":4128,
			"type":"SCALAR"
		}
	],
	"bufferViews":[
		{
			"buffer":0,
			"byteLength":32496,
			"byteOffset":0,
			"target":34962
		},
		{
			"buffer":0,
			"byteLength":32496,
			"byteOffset":32496,
			"target":34962
		},
		{
			"buffer":0,
			"byteLength":32496,
			"byteOffset":64992,
			"target":34962
		},
		{
			"buffer":0,
			"byteLength":8256,
			"byteOffset":97488,
			"target":34963
		}
	],
	"buffers":[
		{
			"byteLength":105744,
			"uri":"zelt_1.bin"
		}
	]
}
