{
	"asset":{
		"generator":"Khronos glTF Blender I/O v5.2.40",
		"version":"2.0"
	},
	"scene":0,
	"scenes":[
		{
			"name":"Scene",
			"nodes":[
				20
			]
		}
	],
	"nodes":[
		{
			"name":"Hut",
			"rotation":[
				-0.5646035671234131,
				1.2112967340272007e-07,
				-8.286087194164793e-08,
				0.8253622651100159
			],
			"scale":[
				1,
				0.9999999403953552,
				1
			],
			"translation":[
				0,
				0.7920005321502686,
				-0.04800000041723251
			]
		},
		{
			"children":[
				0
			],
			"name":"Kopf",
			"rotation":[
				0,
				-5.9604641222676946e-08,
				0,
				1
			],
			"translation":[
				0,
				0.21600031852722168,
				0
			]
		},
		{
			"children":[
				1
			],
			"name":"Hals",
			"rotation":[
				0,
				5.9604641222676946e-08,
				0,
				1
			],
			"scale":[
				1,
				0.9999999403953552,
				1
			],
			"translation":[
				0,
				0.623999834060669,
				0
			]
		},
		{
			"name":"Hand.L",
			"rotation":[
				-0.029935449361801147,
				-0.0012853002408519387,
				0.008676166646182537,
				0.9995133876800537
			],
			"scale":[
				1,
				0.9999999403953552,
				0.9999998211860657
			],
			"translation":[
				-5.9202314162121183e-08,
				0.6161038875579834,
				-7.450580596923828e-09
			]
		},
		{
			"children":[
				3
			],
			"name":"Unterarm.L",
			"rotation":[
				-0.09223334491252899,
				-0.0013973903842270374,
				0.05675363540649414,
				0.9941177368164062
			],
			"scale":[
				1,
				0.9999998807907104,
				1
			],
			"translation":[
				-6.273388919453282e-08,
				0.7074912190437317,
				-1.4901161193847656e-08
			]
		},
		{
			"children":[
				4
			],
			"name":"Oberarm.L",
			"rotation":[
				-0.9873651266098022,
				-0.1547839492559433,
				0.005256760865449905,
				0.03353271260857582
			],
			"scale":[
				0.9999995231628418,
				0.9999997615814209,
				1
			],
			"translation":[
				0.48000001907348633,
				0.48000001907348633,
				0
			]
		},
		{
			"mesh":1,
			"name":"Keule",
			"rotation":[
				-0.9920609593391418,
				0.08945409953594208,
				0.007937980815768242,
				0.08803388476371765
			],
			"scale":[
				1.000000238418579,
				1.0000004768371582,
				1.0000001192092896
			],
			"translation":[
				1.2192840576171875,
				2.1067440509796143,
				0.4012470245361328
			]
		},
		{
			"children":[
				6
			],
			"name":"Hand.R",
			"rotation":[
				-0.029935449361801147,
				0.0012853002408519387,
				-0.008676166646182537,
				0.9995133876800537
			],
			"scale":[
				1,
				0.9999999403953552,
				0.9999998211860657
			],
			"translation":[
				5.9202314162121183e-08,
				0.6161038875579834,
				-7.450580596923828e-09
			]
		},
		{
			"children":[
				7
			],
			"name":"Unterarm.R",
			"rotation":[
				-0.09223334491252899,
				0.0013973903842270374,
				-0.05675363540649414,
				0.9941177368164062
			],
			"scale":[
				1,
				0.9999998807907104,
				1
			],
			"translation":[
				6.273388919453282e-08,
				0.7074912190437317,
				-1.4901161193847656e-08
			]
		},
		{
			"children":[
				8
			],
			"name":"Oberarm.R",
			"rotation":[
				-0.9873651266098022,
				0.1547839492559433,
				-0.005256760865449905,
				0.03353271260857582
			],
			"scale":[
				0.9999995231628418,
				0.9999997615814209,
				1
			],
			"translation":[
				-0.48000001907348633,
				0.48000001907348633,
				0
			]
		},
		{
			"children":[
				2,
				5,
				9
			],
			"name":"Brust",
			"translation":[
				0,
				0.48000001907348633,
				0
			]
		},
		{
			"children":[
				10
			],
			"name":"Bauch",
			"translation":[
				0,
				0.3600001335144043,
				0
			]
		},
		{
			"name":"Fuss.L",
			"rotation":[
				-3.4654592528937656e-09,
				0.8304528594017029,
				-0.5570888519287109,
				1.6169514083230752e-07
			],
			"translation":[
				-1.1188808990425514e-08,
				1.0091421604156494,
				4.2585845960729785e-09
			]
		},
		{
			"children":[
				12
			],
			"name":"Unterschenkel.L",
			"rotation":[
				0.023789312690496445,
				1.3791562025744497e-07,
				1.2021182937971275e-09,
				0.9997169971466064
			],
			"scale":[
				1,
				1,
				0.9999999403953552
			],
			"translation":[
				0,
				1.031999945640564,
				0
			]
		},
		{
			"children":[
				13
			],
			"name":"Oberschenkel.L",
			"rotation":[
				1,
				0,
				-4.371138828673793e-08,
				0
			],
			"translation":[
				0.24000000953674316,
				0,
				0
			]
		},
		{
			"name":"Fuss.R",
			"rotation":[
				-3.4654592528937656e-09,
				0.8304528594017029,
				-0.5570888519287109,
				1.6169514083230752e-07
			],
			"translation":[
				1.861351250909138e-08,
				1.0091421604156494,
				3.1919960008508497e-09
			]
		},
		{
			"children":[
				15
			],
			"name":"Unterschenkel.R",
			"rotation":[
				0.023789312690496445,
				1.3791562025744497e-07,
				1.2021182937971275e-09,
				0.9997169971466064
			],
			"scale":[
				1,
				1,
				0.9999999403953552
			],
			"translation":[
				0,
				1.031999945640564,
				0
			]
		},
		{
			"children":[
				16
			],
			"name":"Oberschenkel.R",
			"rotation":[
				1,
				0,
				-4.371138828673793e-08,
				0
			],
			"translation":[
				-0.24000000953674316,
				0,
				0
			]
		},
		{
			"children":[
				11,
				14,
				17
			],
			"name":"Becken",
			"translation":[
				0,
				2.2799999713897705,
				0
			]
		},
		{
			"mesh":0,
			"name":"Bergtroll",
			"skin":0
		},
		{
			"children":[
				19,
				18
			],
			"name":"BergtrollSkelett"
		}
	],
	"animations":[
		{
			"channels":[
				{
					"sampler":0,
					"target":{
						"node":18,
						"path":"translation"
					}
				},
				{
					"sampler":1,
					"target":{
						"node":18,
						"path":"rotation"
					}
				},
				{
					"sampler":2,
					"target":{
						"node":18,
						"path":"scale"
					}
				},
				{
					"sampler":3,
					"target":{
						"node":11,
						"path":"translation"
					}
				},
				{
					"sampler":4,
					"target":{
						"node":11,
						"path":"rotation"
					}
				},
				{
					"sampler":5,
					"target":{
						"node":11,
						"path":"scale"
					}
				},
				{
					"sampler":6,
					"target":{
						"node":10,
						"path":"translation"
					}
				},
				{
					"sampler":7,
					"target":{
						"node":10,
						"path":"rotation"
					}
				},
				{
					"sampler":8,
					"target":{
						"node":10,
						"path":"scale"
					}
				},
				{
					"sampler":9,
					"target":{
						"node":2,
						"path":"translation"
					}
				},
				{
					"sampler":10,
					"target":{
						"node":2,
						"path":"rotation"
					}
				},
				{
					"sampler":11,
					"target":{
						"node":2,
						"path":"scale"
					}
				},
				{
					"sampler":12,
					"target":{
						"node":1,
						"path":"translation"
					}
				},
				{
					"sampler":13,
					"target":{
						"node":1,
						"path":"rotation"
					}
				},
				{
					"sampler":14,
					"target":{
						"node":1,
						"path":"scale"
					}
				},
				{
					"sampler":15,
					"target":{
						"node":0,
						"path":"translation"
					}
				},
				{
					"sampler":16,
					"target":{
						"node":0,
						"path":"rotation"
					}
				},
				{
					"sampler":17,
					"target":{
						"node":0,
						"path":"scale"
					}
				},
				{
					"sampler":18,
					"target":{
						"node":5,
						"path":"translation"
					}
				},
				{
					"sampler":19,
					"target":{
						"node":5,
						"path":"rotation"
					}
				},
				{
					"sampler":20,
					"target":{
						"node":5,
						"path":"scale"
					}
				},
				{
					"sampler":21,
					"target":{
						"node":4,
						"path":"translation"
					}
				},
				{
					"sampler":22,
					"target":{
						"node":4,
						"path":"rotation"
					}
				},
				{
					"sampler":23,
					"target":{
						"node":4,
						"path":"scale"
					}
				},
				{
					"sampler":24,
					"target":{
						"node":3,
						"path":"translation"
					}
				},
				{
					"sampler":25,
					"target":{
						"node":3,
						"path":"rotation"
					}
				},
				{
					"sampler":26,
					"target":{
						"node":3,
						"path":"scale"
					}
				},
				{
					"sampler":27,
					"target":{
						"node":9,
						"path":"translation"
					}
				},
				{
					"sampler":28,
					"target":{
						"node":9,
						"path":"rotation"
					}
				},
				{
					"sampler":29,
					"target":{
						"node":9,
						"path":"scale"
					}
				},
				{
					"sampler":30,
					"target":{
						"node":8,
						"path":"translation"
					}
				},
				{
					"sampler":31,
					"target":{
						"node":8,
						"path":"rotation"
					}
				},
				{
					"sampler":32,
					"target":{
						"node":8,
						"path":"scale"
					}
				},
				{
					"sampler":33,
					"target":{
						"node":7,
						"path":"translation"
					}
				},
				{
					"sampler":34,
					"target":{
						"node":7,
						"path":"rotation"
					}
				},
				{
					"sampler":35,
					"target":{
						"node":7,
						"path":"scale"
					}
				},
				{
					"sampler":36,
					"target":{
						"node":14,
						"path":"translation"
					}
				},
				{
					"sampler":37,
					"target":{
						"node":14,
						"path":"rotation"
					}
				},
				{
					"sampler":38,
					"target":{
						"node":14,
						"path":"scale"
					}
				},
				{
					"sampler":39,
					"target":{
						"node":13,
						"path":"translation"
					}
				},
				{
					"sampler":40,
					"target":{
						"node":13,
						"path":"rotation"
					}
				},
				{
					"sampler":41,
					"target":{
						"node":13,
						"path":"scale"
					}
				},
				{
					"sampler":42,
					"target":{
						"node":12,
						"path":"translation"
					}
				},
				{
					"sampler":43,
					"target":{
						"node":12,
						"path":"rotation"
					}
				},
				{
					"sampler":44,
					"target":{
						"node":12,
						"path":"scale"
					}
				},
				{
					"sampler":45,
					"target":{
						"node":17,
						"path":"translation"
					}
				},
				{
					"sampler":46,
					"target":{
						"node":17,
						"path":"rotation"
					}
				},
				{
					"sampler":47,
					"target":{
						"node":17,
						"path":"scale"
					}
				},
				{
					"sampler":48,
					"target":{
						"node":16,
						"path":"translation"
					}
				},
				{
					"sampler":49,
					"target":{
						"node":16,
						"path":"rotation"
					}
				},
				{
					"sampler":50,
					"target":{
						"node":16,
						"path":"scale"
					}
				},
				{
					"sampler":51,
					"target":{
						"node":15,
						"path":"translation"
					}
				},
				{
					"sampler":52,
					"target":{
						"node":15,
						"path":"rotation"
					}
				},
				{
					"sampler":53,
					"target":{
						"node":15,
						"path":"scale"
					}
				}
			],
			"name":"Angriff",
			"samplers":[
				{
					"input":11,
					"interpolation":"STEP",
					"output":12
				},
				{
					"input":11,
					"interpolation":"STEP",
					"output":13
				},
				{
					"input":11,
					"interpolation":"STEP",
					"output":14
				},
				{
					"input":11,
					"interpolation":"STEP",
					"output":15
				},
				{
					"input":16,
					"interpolation":"LINEAR",
					"output":17
				},
				{
					"input":11,
					"interpolation":"STEP",
					"output":14
				},
				{
					"input":11,
					"interpolation":"STEP",
					"output":18
				},
				{
					"input":16,
					"interpolation":"LINEAR",
					"output":19
				},
				{
					"input":11,
					"interpolation":"STEP",
					"output":14
				},
				{
					"input":11,
					"interpolation":"STEP",
					"output":20
				},
				{
					"input":11,
					"interpolation":"STEP",
					"output":21
				},
				{
					"input":11,
					"interpolation":"STEP",
					"output":22
				},
				{
					"input":11,
					"interpolation":"STEP",
					"output":23
				},
				{
					"input":11,
					"interpolation":"STEP",
					"output":24
				},
				{
					"input":11,
					"interpolation":"STEP",
					"output":14
				},
				{
					"input":11,
					"interpolation":"STEP",
					"output":25
				},
				{
					"input":11,
					"interpolation":"STEP",
					"output":26
				},
				{
					"input":11,
					"interpolation":"STEP",
					"output":22
				},
				{
					"input":11,
					"interpolation":"STEP",
					"output":27
				},
				{
					"input":11,
					"interpolation":"STEP",
					"output":28
				},
				{
					"input":11,
					"interpolation":"STEP",
					"output":29
				},
				{
					"input":11,
					"interpolation":"STEP",
					"output":30
				},
				{
					"input":11,
					"interpolation":"STEP",
					"output":31
				},
				{
					"input":11,
					"interpolation":"STEP",
					"output":32
				},
				{
					"input":11,
					"interpolation":"STEP",
					"output":33
				},
				{
					"input":11,
					"interpolation":"STEP",
					"output":34
				},
				{
					"input":11,
					"interpolation":"STEP",
					"output":35
				},
				{
					"input":11,
					"interpolation":"STEP",
					"output":36
				},
				{
					"input":16,
					"interpolation":"LINEAR",
					"output":37
				},
				{
					"input":11,
					"interpolation":"STEP",
					"output":38
				},
				{
					"input":11,
					"interpolation":"STEP",
					"output":39
				},
				{
					"input":16,
					"interpolation":"LINEAR",
					"output":40
				},
				{
					"input":11,
					"interpolation":"STEP",
					"output":41
				},
				{
					"input":11,
					"interpolation":"STEP",
					"output":42
				},
				{
					"input":11,
					"interpolation":"STEP",
					"output":43
				},
				{
					"input":11,
					"interpolation":"STEP",
					"output":44
				},
				{
					"input":11,
					"interpolation":"STEP",
					"output":45
				},
				{
					"input":16,
					"interpolation":"LINEAR",
					"output":46
				},
				{
					"input":11,
					"interpolation":"STEP",
					"output":14
				},
				{
					"input":11,
					"interpolation":"STEP",
					"output":47
				},
				{
					"input":16,
					"interpolation":"LINEAR",
					"output":48
				},
				{
					"input":11,
					"interpolation":"STEP",
					"output":49
				},
				{
					"input":11,
					"interpolation":"STEP",
					"output":50
				},
				{
					"input":11,
					"interpolation":"STEP",
					"output":51
				},
				{
					"input":11,
					"interpolation":"STEP",
					"output":52
				},
				{
					"input":11,
					"interpolation":"STEP",
					"output":53
				},
				{
					"input":16,
					"interpolation":"LINEAR",
					"output":54
				},
				{
					"input":11,
					"interpolation":"STEP",
					"output":55
				},
				{
					"input":11,
					"interpolation":"STEP",
					"output":56
				},
				{
					"input":16,
					"interpolation":"LINEAR",
					"output":57
				},
				{
					"input":11,
					"interpolation":"STEP",
					"output":58
				},
				{
					"input":11,
					"interpolation":"STEP",
					"output":59
				},
				{
					"input":11,
					"interpolation":"STEP",
					"output":51
				},
				{
					"input":11,
					"interpolation":"STEP",
					"output":49
				}
			]
		},
		{
			"channels":[
				{
					"sampler":0,
					"target":{
						"node":18,
						"path":"translation"
					}
				},
				{
					"sampler":1,
					"target":{
						"node":18,
						"path":"rotation"
					}
				},
				{
					"sampler":2,
					"target":{
						"node":18,
						"path":"scale"
					}
				},
				{
					"sampler":3,
					"target":{
						"node":11,
						"path":"translation"
					}
				},
				{
					"sampler":4,
					"target":{
						"node":11,
						"path":"rotation"
					}
				},
				{
					"sampler":5,
					"target":{
						"node":11,
						"path":"scale"
					}
				},
				{
					"sampler":6,
					"target":{
						"node":10,
						"path":"translation"
					}
				},
				{
					"sampler":7,
					"target":{
						"node":10,
						"path":"rotation"
					}
				},
				{
					"sampler":8,
					"target":{
						"node":10,
						"path":"scale"
					}
				},
				{
					"sampler":9,
					"target":{
						"node":2,
						"path":"translation"
					}
				},
				{
					"sampler":10,
					"target":{
						"node":2,
						"path":"rotation"
					}
				},
				{
					"sampler":11,
					"target":{
						"node":2,
						"path":"scale"
					}
				},
				{
					"sampler":12,
					"target":{
						"node":1,
						"path":"translation"
					}
				},
				{
					"sampler":13,
					"target":{
						"node":1,
						"path":"rotation"
					}
				},
				{
					"sampler":14,
					"target":{
						"node":1,
						"path":"scale"
					}
				},
				{
					"sampler":15,
					"target":{
						"node":0,
						"path":"translation"
					}
				},
				{
					"sampler":16,
					"target":{
						"node":0,
						"path":"rotation"
					}
				},
				{
					"sampler":17,
					"target":{
						"node":0,
						"path":"scale"
					}
				},
				{
					"sampler":18,
					"target":{
						"node":5,
						"path":"translation"
					}
				},
				{
					"sampler":19,
					"target":{
						"node":5,
						"path":"rotation"
					}
				},
				{
					"sampler":20,
					"target":{
						"node":5,
						"path":"scale"
					}
				},
				{
					"sampler":21,
					"target":{
						"node":4,
						"path":"translation"
					}
				},
				{
					"sampler":22,
					"target":{
						"node":4,
						"path":"rotation"
					}
				},
				{
					"sampler":23,
					"target":{
						"node":4,
						"path":"scale"
					}
				},
				{
					"sampler":24,
					"target":{
						"node":3,
						"path":"translation"
					}
				},
				{
					"sampler":25,
					"target":{
						"node":3,
						"path":"rotation"
					}
				},
				{
					"sampler":26,
					"target":{
						"node":3,
						"path":"scale"
					}
				},
				{
					"sampler":27,
					"target":{
						"node":9,
						"path":"translation"
					}
				},
				{
					"sampler":28,
					"target":{
						"node":9,
						"path":"rotation"
					}
				},
				{
					"sampler":29,
					"target":{
						"node":9,
						"path":"scale"
					}
				},
				{
					"sampler":30,
					"target":{
						"node":8,
						"path":"translation"
					}
				},
				{
					"sampler":31,
					"target":{
						"node":8,
						"path":"rotation"
					}
				},
				{
					"sampler":32,
					"target":{
						"node":8,
						"path":"scale"
					}
				},
				{
					"sampler":33,
					"target":{
						"node":7,
						"path":"translation"
					}
				},
				{
					"sampler":34,
					"target":{
						"node":7,
						"path":"rotation"
					}
				},
				{
					"sampler":35,
					"target":{
						"node":7,
						"path":"scale"
					}
				},
				{
					"sampler":36,
					"target":{
						"node":14,
						"path":"translation"
					}
				},
				{
					"sampler":37,
					"target":{
						"node":14,
						"path":"rotation"
					}
				},
				{
					"sampler":38,
					"target":{
						"node":14,
						"path":"scale"
					}
				},
				{
					"sampler":39,
					"target":{
						"node":13,
						"path":"translation"
					}
				},
				{
					"sampler":40,
					"target":{
						"node":13,
						"path":"rotation"
					}
				},
				{
					"sampler":41,
					"target":{
						"node":13,
						"path":"scale"
					}
				},
				{
					"sampler":42,
					"target":{
						"node":12,
						"path":"translation"
					}
				},
				{
					"sampler":43,
					"target":{
						"node":12,
						"path":"rotation"
					}
				},
				{
					"sampler":44,
					"target":{
						"node":12,
						"path":"scale"
					}
				},
				{
					"sampler":45,
					"target":{
						"node":17,
						"path":"translation"
					}
				},
				{
					"sampler":46,
					"target":{
						"node":17,
						"path":"rotation"
					}
				},
				{
					"sampler":47,
					"target":{
						"node":17,
						"path":"scale"
					}
				},
				{
					"sampler":48,
					"target":{
						"node":16,
						"path":"translation"
					}
				},
				{
					"sampler":49,
					"target":{
						"node":16,
						"path":"rotation"
					}
				},
				{
					"sampler":50,
					"target":{
						"node":16,
						"path":"scale"
					}
				},
				{
					"sampler":51,
					"target":{
						"node":15,
						"path":"translation"
					}
				},
				{
					"sampler":52,
					"target":{
						"node":15,
						"path":"rotation"
					}
				},
				{
					"sampler":53,
					"target":{
						"node":15,
						"path":"scale"
					}
				}
			],
			"name":"Idle",
			"samplers":[
				{
					"input":60,
					"interpolation":"LINEAR",
					"output":61
				},
				{
					"input":62,
					"interpolation":"STEP",
					"output":13
				},
				{
					"input":62,
					"interpolation":"STEP",
					"output":14
				},
				{
					"input":62,
					"interpolation":"STEP",
					"output":15
				},
				{
					"input":60,
					"interpolation":"LINEAR",
					"output":63
				},
				{
					"input":62,
					"interpolation":"STEP",
					"output":14
				},
				{
					"input":62,
					"interpolation":"STEP",
					"output":18
				},
				{
					"input":60,
					"interpolation":"LINEAR",
					"output":64
				},
				{
					"input":62,
					"interpolation":"STEP",
					"output":14
				},
				{
					"input":62,
					"interpolation":"STEP",
					"output":20
				},
				{
					"input":62,
					"interpolation":"STEP",
					"output":21
				},
				{
					"input":62,
					"interpolation":"STEP",
					"output":22
				},
				{
					"input":62,
					"interpolation":"STEP",
					"output":23
				},
				{
					"input":60,
					"interpolation":"LINEAR",
					"output":65
				},
				{
					"input":62,
					"interpolation":"STEP",
					"output":14
				},
				{
					"input":62,
					"interpolation":"STEP",
					"output":66
				},
				{
					"input":62,
					"interpolation":"STEP",
					"output":26
				},
				{
					"input":62,
					"interpolation":"STEP",
					"output":67
				},
				{
					"input":62,
					"interpolation":"STEP",
					"output":27
				},
				{
					"input":60,
					"interpolation":"LINEAR",
					"output":68
				},
				{
					"input":62,
					"interpolation":"STEP",
					"output":69
				},
				{
					"input":62,
					"interpolation":"STEP",
					"output":70
				},
				{
					"input":62,
					"interpolation":"STEP",
					"output":71
				},
				{
					"input":62,
					"interpolation":"STEP",
					"output":14
				},
				{
					"input":62,
					"interpolation":"STEP",
					"output":72
				},
				{
					"input":62,
					"interpolation":"STEP",
					"output":73
				},
				{
					"input":62,
					"interpolation":"STEP",
					"output":74
				},
				{
					"input":62,
					"interpolation":"STEP",
					"output":36
				},
				{
					"input":62,
					"interpolation":"STEP",
					"output":75
				},
				{
					"input":62,
					"interpolation":"STEP",
					"output":29
				},
				{
					"input":62,
					"interpolation":"STEP",
					"output":76
				},
				{
					"input":62,
					"interpolation":"STEP",
					"output":77
				},
				{
					"input":62,
					"interpolation":"STEP",
					"output":78
				},
				{
					"input":62,
					"interpolation":"STEP",
					"output":79
				},
				{
					"input":62,
					"interpolation":"STEP",
					"output":80
				},
				{
					"input":62,
					"interpolation":"STEP",
					"output":74
				},
				{
					"input":62,
					"interpolation":"STEP",
					"output":45
				},
				{
					"input":62,
					"interpolation":"STEP",
					"output":81
				},
				{
					"input":62,
					"interpolation":"STEP",
					"output":14
				},
				{
					"input":62,
					"interpolation":"STEP",
					"output":82
				},
				{
					"input":62,
					"interpolation":"STEP",
					"output":83
				},
				{
					"input":62,
					"interpolation":"STEP",
					"output":58
				},
				{
					"input":62,
					"interpolation":"STEP",
					"output":84
				},
				{
					"input":62,
					"interpolation":"STEP",
					"output":85
				},
				{
					"input":62,
					"interpolation":"STEP",
					"output":49
				},
				{
					"input":62,
					"interpolation":"STEP",
					"output":53
				},
				{
					"input":62,
					"interpolation":"STEP",
					"output":81
				},
				{
					"input":62,
					"interpolation":"STEP",
					"output":14
				},
				{
					"input":62,
					"interpolation":"STEP",
					"output":86
				},
				{
					"input":62,
					"interpolation":"STEP",
					"output":83
				},
				{
					"input":62,
					"interpolation":"STEP",
					"output":58
				},
				{
					"input":62,
					"interpolation":"STEP",
					"output":87
				},
				{
					"input":62,
					"interpolation":"STEP",
					"output":85
				},
				{
					"input":62,
					"interpolation":"STEP",
					"output":49
				}
			]
		},
		{
			"channels":[
				{
					"sampler":0,
					"target":{
						"node":18,
						"path":"translation"
					}
				},
				{
					"sampler":1,
					"target":{
						"node":18,
						"path":"rotation"
					}
				},
				{
					"sampler":2,
					"target":{
						"node":18,
						"path":"scale"
					}
				},
				{
					"sampler":3,
					"target":{
						"node":11,
						"path":"translation"
					}
				},
				{
					"sampler":4,
					"target":{
						"node":11,
						"path":"rotation"
					}
				},
				{
					"sampler":5,
					"target":{
						"node":11,
						"path":"scale"
					}
				},
				{
					"sampler":6,
					"target":{
						"node":10,
						"path":"translation"
					}
				},
				{
					"sampler":7,
					"target":{
						"node":10,
						"path":"rotation"
					}
				},
				{
					"sampler":8,
					"target":{
						"node":10,
						"path":"scale"
					}
				},
				{
					"sampler":9,
					"target":{
						"node":2,
						"path":"translation"
					}
				},
				{
					"sampler":10,
					"target":{
						"node":2,
						"path":"rotation"
					}
				},
				{
					"sampler":11,
					"target":{
						"node":2,
						"path":"scale"
					}
				},
				{
					"sampler":12,
					"target":{
						"node":1,
						"path":"translation"
					}
				},
				{
					"sampler":13,
					"target":{
						"node":1,
						"path":"rotation"
					}
				},
				{
					"sampler":14,
					"target":{
						"node":1,
						"path":"scale"
					}
				},
				{
					"sampler":15,
					"target":{
						"node":0,
						"path":"translation"
					}
				},
				{
					"sampler":16,
					"target":{
						"node":0,
						"path":"rotation"
					}
				},
				{
					"sampler":17,
					"target":{
						"node":0,
						"path":"scale"
					}
				},
				{
					"sampler":18,
					"target":{
						"node":5,
						"path":"translation"
					}
				},
				{
					"sampler":19,
					"target":{
						"node":5,
						"path":"rotation"
					}
				},
				{
					"sampler":20,
					"target":{
						"node":5,
						"path":"scale"
					}
				},
				{
					"sampler":21,
					"target":{
						"node":4,
						"path":"translation"
					}
				},
				{
					"sampler":22,
					"target":{
						"node":4,
						"path":"rotation"
					}
				},
				{
					"sampler":23,
					"target":{
						"node":4,
						"path":"scale"
					}
				},
				{
					"sampler":24,
					"target":{
						"node":3,
						"path":"translation"
					}
				},
				{
					"sampler":25,
					"target":{
						"node":3,
						"path":"rotation"
					}
				},
				{
					"sampler":26,
					"target":{
						"node":3,
						"path":"scale"
					}
				},
				{
					"sampler":27,
					"target":{
						"node":9,
						"path":"translation"
					}
				},
				{
					"sampler":28,
					"target":{
						"node":9,
						"path":"rotation"
					}
				},
				{
					"sampler":29,
					"target":{
						"node":9,
						"path":"scale"
					}
				},
				{
					"sampler":30,
					"target":{
						"node":8,
						"path":"translation"
					}
				},
				{
					"sampler":31,
					"target":{
						"node":8,
						"path":"rotation"
					}
				},
				{
					"sampler":32,
					"target":{
						"node":8,
						"path":"scale"
					}
				},
				{
					"sampler":33,
					"target":{
						"node":7,
						"path":"translation"
					}
				},
				{
					"sampler":34,
					"target":{
						"node":7,
						"path":"rotation"
					}
				},
				{
					"sampler":35,
					"target":{
						"node":7,
						"path":"scale"
					}
				},
				{
					"sampler":36,
					"target":{
						"node":14,
						"path":"translation"
					}
				},
				{
					"sampler":37,
					"target":{
						"node":14,
						"path":"rotation"
					}
				},
				{
					"sampler":38,
					"target":{
						"node":14,
						"path":"scale"
					}
				},
				{
					"sampler":39,
					"target":{
						"node":13,
						"path":"translation"
					}
				},
				{
					"sampler":40,
					"target":{
						"node":13,
						"path":"rotation"
					}
				},
				{
					"sampler":41,
					"target":{
						"node":13,
						"path":"scale"
					}
				},
				{
					"sampler":42,
					"target":{
						"node":12,
						"path":"translation"
					}
				},
				{
					"sampler":43,
					"target":{
						"node":12,
						"path":"rotation"
					}
				},
				{
					"sampler":44,
					"target":{
						"node":12,
						"path":"scale"
					}
				},
				{
					"sampler":45,
					"target":{
						"node":17,
						"path":"translation"
					}
				},
				{
					"sampler":46,
					"target":{
						"node":17,
						"path":"rotation"
					}
				},
				{
					"sampler":47,
					"target":{
						"node":17,
						"path":"scale"
					}
				},
				{
					"sampler":48,
					"target":{
						"node":16,
						"path":"translation"
					}
				},
				{
					"sampler":49,
					"target":{
						"node":16,
						"path":"rotation"
					}
				},
				{
					"sampler":50,
					"target":{
						"node":16,
						"path":"scale"
					}
				},
				{
					"sampler":51,
					"target":{
						"node":15,
						"path":"translation"
					}
				},
				{
					"sampler":52,
					"target":{
						"node":15,
						"path":"rotation"
					}
				},
				{
					"sampler":53,
					"target":{
						"node":15,
						"path":"scale"
					}
				}
			],
			"name":"Laufen",
			"samplers":[
				{
					"input":16,
					"interpolation":"LINEAR",
					"output":88
				},
				{
					"input":16,
					"interpolation":"LINEAR",
					"output":89
				},
				{
					"input":11,
					"interpolation":"STEP",
					"output":14
				},
				{
					"input":11,
					"interpolation":"STEP",
					"output":15
				},
				{
					"input":11,
					"interpolation":"STEP",
					"output":90
				},
				{
					"input":11,
					"interpolation":"STEP",
					"output":55
				},
				{
					"input":11,
					"interpolation":"STEP",
					"output":91
				},
				{
					"input":16,
					"interpolation":"LINEAR",
					"output":92
				},
				{
					"input":11,
					"interpolation":"STEP",
					"output":14
				},
				{
					"input":11,
					"interpolation":"STEP",
					"output":93
				},
				{
					"input":11,
					"interpolation":"STEP",
					"output":21
				},
				{
					"input":11,
					"interpolation":"STEP",
					"output":22
				},
				{
					"input":11,
					"interpolation":"STEP",
					"output":94
				},
				{
					"input":16,
					"interpolation":"LINEAR",
					"output":95
				},
				{
					"input":11,
					"interpolation":"STEP",
					"output":96
				},
				{
					"input":11,
					"interpolation":"STEP",
					"output":97
				},
				{
					"input":16,
					"interpolation":"LINEAR",
					"output":98
				},
				{
					"input":11,
					"interpolation":"STEP",
					"output":99
				},
				{
					"input":11,
					"interpolation":"STEP",
					"output":100
				},
				{
					"input":16,
					"interpolation":"LINEAR",
					"output":101
				},
				{
					"input":11,
					"interpolation":"STEP",
					"output":102
				},
				{
					"input":11,
					"interpolation":"STEP",
					"output":103
				},
				{
					"input":11,
					"interpolation":"STEP",
					"output":104
				},
				{
					"input":11,
					"interpolation":"STEP",
					"output":105
				},
				{
					"input":11,
					"interpolation":"STEP",
					"output":106
				},
				{
					"input":11,
					"interpolation":"STEP",
					"output":107
				},
				{
					"input":11,
					"interpolation":"STEP",
					"output":58
				},
				{
					"input":11,
					"interpolation":"STEP",
					"output":108
				},
				{
					"input":16,
					"interpolation":"LINEAR",
					"output":109
				},
				{
					"input":11,
					"interpolation":"STEP",
					"output":38
				},
				{
					"input":11,
					"interpolation":"STEP",
					"output":110
				},
				{
					"input":11,
					"interpolation":"STEP",
					"output":111
				},
				{
					"input":11,
					"interpolation":"STEP",
					"output":112
				},
				{
					"input":11,
					"interpolation":"STEP",
					"output":113
				},
				{
					"input":11,
					"interpolation":"STEP",
					"output":114
				},
				{
					"input":11,
					"interpolation":"STEP",
					"output":35
				},
				{
					"input":11,
					"interpolation":"STEP",
					"output":115
				},
				{
					"input":16,
					"interpolation":"LINEAR",
					"output":116
				},
				{
					"input":11,
					"interpolation":"STEP",
					"output":14
				},
				{
					"input":11,
					"interpolation":"STEP",
					"output":117
				},
				{
					"input":16,
					"interpolation":"LINEAR",
					"output":118
				},
				{
					"input":11,
					"interpolation":"STEP",
					"output":58
				},
				{
					"input":11,
					"interpolation":"STEP",
					"output":119
				},
				{
					"input":16,
					"interpolation":"LINEAR",
					"output":120
				},
				{
					"input":11,
					"interpolation":"STEP",
					"output":14
				},
				{
					"input":11,
					"interpolation":"STEP",
					"output":121
				},
				{
					"input":16,
					"interpolation":"LINEAR",
					"output":122
				},
				{
					"input":11,
					"interpolation":"STEP",
					"output":14
				},
				{
					"input":11,
					"interpolation":"STEP",
					"output":123
				},
				{
					"input":16,
					"interpolation":"LINEAR",
					"output":124
				},
				{
					"input":11,
					"interpolation":"STEP",
					"output":58
				},
				{
					"input":11,
					"interpolation":"STEP",
					"output":125
				},
				{
					"input":16,
					"interpolation":"LINEAR",
					"output":126
				},
				{
					"input":11,
					"interpolation":"STEP",
					"output":127
				}
			]
		}
	],
	"materials":[
		{
			"doubleSided":true,
			"name":"Bergtroll",
			"pbrMetallicRoughness":{
				"metallicFactor":0,
				"roughnessFactor":0.8500000238418579
			}
		}
	],
	"meshes":[
		{
			"name":"Bein",
			"primitives":[
				{
					"attributes":{
						"POSITION":0,
						"NORMAL":1,
						"COLOR_0":2,
						"JOINTS_0":3,
						"WEIGHTS_0":4
					},
					"indices":5,
					"material":0
				}
			]
		},
		{
			"name":"Keule.001",
			"primitives":[
				{
					"attributes":{
						"POSITION":7,
						"NORMAL":8,
						"COLOR_0":9
					},
					"indices":10,
					"material":0
				}
			]
		}
	],
	"skins":[
		{
			"inverseBindMatrices":6,
			"joints":[
				18,
				11,
				10,
				2,
				1,
				0,
				5,
				4,
				3,
				9,
				8,
				7,
				14,
				13,
				12,
				17,
				16,
				15
			],
			"name":"BergtrollSkelett"
		}
	],
	"accessors":[
		{
			"bufferView":0,
			"componentType":5126,
			"count":9452,
			"max":[
				1.0776000022888184,
				4.596055030822754,
				0.6120001077651978
			],
			"min":[
				-1.0776000022888184,
				-0.019999999552965164,
				-0.6840000152587891
			],
			"type":"VEC3"
		},
		{
			"bufferView":1,
			"componentType":5126,
			"count":9452,
			"type":"VEC3"
		},
		{
			"bufferView":2,
			"componentType":5126,
			"count":9452,
			"type":"VEC3"
		},
		{
			"bufferView":3,
			"componentType":5121,
			"count":9452,
			"type":"VEC4"
		},
		{
			"bufferView":4,
			"componentType":5126,
			"count":9452,
			"type":"VEC4"
		},
		{
			"bufferView":5,
			"componentType":5123,
			"count":13494,
			"type":"SCALAR"
		},
		{
			"bufferView":6,
			"componentType":5126,
			"count":18,
			"type":"MAT4"
		},
		{
			"bufferView":7,
			"componentType":5126,
			"count":744,
			"max":[
				-0.40800002217292786,
				2.5266833305358887,
				1.3361566066741943
			],
			"min":[
				-1.1990834474563599,
				-0.019999999552965164,
				-0.02433772198855877
			],
			"type":"VEC3"
		},
		{
			"bufferView":8,
			"componentType":5126,
			"count":744,
			"type":"VEC3"
		},
		{
			"bufferView":9,
			"componentType":5126,
			"count":744,
			"type":"VEC3"
		},
		{
			"bufferView":10,
			"componentType":5123,
			"count":1044,
			"type":"SCALAR"
		},
		{
			"bufferView":11,
			"componentType":5126,
			"count":2,
			"max":[
				1
			],
			"min":[
				0
			],
			"type":"SCALAR"
		},
		{
			"bufferView":12,
			"componentType":5126,
			"count":2,
			"type":"VEC3"
		},
		{
			"bufferView":13,
			"componentType":5126,
			"count":2,
			"type":"VEC4"
		},
		{
			"bufferView":14,
			"componentType":5126,
			"count":2,
			"type":"VEC3"
		},
		{
			"bufferView":15,
			"componentType":5126,
			"count":2,
			"type":"VEC3"
		},
		{
			"bufferView":16,
			"componentType":5126,
			"count":31,
			"max":[
				1
			],
			"min":[
				0
			],
			"type":"SCALAR"
		},
		{
			"bufferView":17,
			"componentType":5126,
			"count":31,
			"type":"VEC4"
		},
		{
			"bufferView":18,
			"componentType":5126,
			"count":2,
			"type":"VEC3"
		},
		{
			"bufferView":19,
			"componentType":5126,
			"count":31,
			"type":"VEC4"
		},
		{
			"bufferView":20,
			"componentType":5126,
			"count":2,
			"type":"VEC3"
		},
		{
			"bufferView":21,
			"componentType":5126,
			"count":2,
			"type":"VEC4"
		},
		{
			"bufferView":22,
			"componentType":5126,
			"count":2,
			"type":"VEC3"
		},
		{
			"bufferView":23,
			"componentType":5126,
			"count":2,
			"type":"VEC3"
		},
		{
			"bufferView":24,
			"componentType":5126,
			"count":2,
			"type":"VEC4"
		},
		{
			"bufferView":25,
			"componentType":5126,
			"count":2,
			"type":"VEC3"
		},
		{
			"bufferView":26,
			"componentType":5126,
			"count":2,
			"type":"VEC4"
		},
		{
			"bufferView":27,
			"componentType":5126,
			"count":2,
			"type":"VEC3"
		},
		{
			"bufferView":28,
			"componentType":5126,
			"count":2,
			"type":"VEC4"
		},
		{
			"bufferView":29,
			"componentType":5126,
			"count":2,
			"type":"VEC3"
		},
		{
			"bufferView":30,
			"componentType":5126,
			"count":2,
			"type":"VEC3"
		},
		{
			"bufferView":31,
			"componentType":5126,
			"count":2,
			"type":"VEC4"
		},
		{
			"bufferView":32,
			"componentType":5126,
			"count":2,
			"type":"VEC3"
		},
		{
			"bufferView":33,
			"componentType":5126,
			"count":2,
			"type":"VEC3"
		},
		{
			"bufferView":34,
			"componentType":5126,
			"count":2,
			"type":"VEC4"
		},
		{
			"bufferView":35,
			"componentType":5126,
			"count":2,
			"type":"VEC3"
		},
		{
			"bufferView":36,
			"componentType":5126,
			"count":2,
			"type":"VEC3"
		},
		{
			"bufferView":37,
			"componentType":5126,
			"count":31,
			"type":"VEC4"
		},
		{
			"bufferView":38,
			"componentType":5126,
			"count":2,
			"type":"VEC3"
		},
		{
			"bufferView":39,
			"componentType":5126,
			"count":2,
			"type":"VEC3"
		},
		{
			"bufferView":40,
			"componentType":5126,
			"count":31,
			"type":"VEC4"
		},
		{
			"bufferView":41,
			"componentType":5126,
			"count":2,
			"type":"VEC3"
		},
		{
			"bufferView":42,
			"componentType":5126,
			"count":2,
			"type":"VEC3"
		},
		{
			"bufferView":43,
			"componentType":5126,
			"count":2,
			"type":"VEC4"
		},
		{
			"bufferView":44,
			"componentType":5126,
			"count":2,
			"type":"VEC3"
		},
		{
			"bufferView":45,
			"componentType":5126,
			"count":2,
			"type":"VEC3"
		},
		{
			"bufferView":46,
			"componentType":5126,
			"count":31,
			"type":"VEC4"
		},
		{
			"bufferView":47,
			"componentType":5126,
			"count":2,
			"type":"VEC3"
		},
		{
			"bufferView":48,
			"componentType":5126,
			"count":31,
			"type":"VEC4"
		},
		{
			"bufferView":49,
			"componentType":5126,
			"count":2,
			"type":"VEC3"
		},
		{
			"bufferView":50,
			"componentType":5126,
			"count":2,
			"type":"VEC3"
		},
		{
			"bufferView":51,
			"componentType":5126,
			"count":2,
			"type":"VEC4"
		},
		{
			"bufferView":52,
			"componentType":5126,
			"count":2,
			"type":"VEC3"
		},
		{
			"bufferView":53,
			"componentType":5126,
			"count":2,
			"type":"VEC3"
		},
		{
			"bufferView":54,
			"componentType":5126,
			"count":31,
			"type":"VEC4"
		},
		{
			"bufferView":55,
			"componentType":5126,
			"count":2,
			"type":"VEC3"
		},
		{
			"bufferView":56,
			"componentType":5126,
			"count":2,
			"type":"VEC3"
		},
		{
			"bufferView":57,
			"componentType":5126,
			"count":31,
			"type":"VEC4"
		},
		{
			"bufferView":58,
			"componentType":5126,
			"count":2,
			"type":"VEC3"
		},
		{
			"bufferView":59,
			"componentType":5126,
			"count":2,
			"type":"VEC3"
		},
		{
			"bufferView":60,
			"componentType":5126,
			"count":181,
			"max":[
				6
			],
			"min":[
				0
			],
			"type":"SCALAR"
		},
		{
			"bufferView":61,
			"componentType":5126,
			"count":181,
			"type":"VEC3"
		},
		{
			"bufferView":62,
			"componentType":5126,
			"count":2,
			"max":[
				6
			],
			"min":[
				0
			],
			"type":"SCALAR"
		},
		{
			"bufferView":63,
			"componentType":5126,
			"count":181,
			"type":"VEC4"
		},
		{
			"bufferView":64,
			"componentType":5126,
			"count":181,
			"type":"VEC4"
		},
		{
			"bufferView":65,
			"componentType":5126,
			"count":181,
			"type":"VEC4"
		},
		{
			"bufferView":66,
			"componentType":5126,
			"count":2,
			"type":"VEC3"
		},
		{
			"bufferView":67,
			"componentType":5126,
			"count":2,
			"type":"VEC3"
		},
		{
			"bufferView":68,
			"componentType":5126,
			"count":181,
			"type":"VEC4"
		},
		{
			"bufferView":69,
			"componentType":5126,
			"count":2,
			"type":"VEC3"
		},
		{
			"bufferView":70,
			"componentType":5126,
			"count":2,
			"type":"VEC3"
		},
		{
			"bufferView":71,
			"componentType":5126,
			"count":2,
			"type":"VEC4"
		},
		{
			"bufferView":72,
			"componentType":5126,
			"count":2,
			"type":"VEC3"
		},
		{
			"bufferView":73,
			"componentType":5126,
			"count":2,
			"type":"VEC4"
		},
		{
			"bufferView":74,
			"componentType":5126,
			"count":2,
			"type":"VEC3"
		},
		{
			"bufferView":75,
			"componentType":5126,
			"count":2,
			"type":"VEC4"
		},
		{
			"bufferView":76,
			"componentType":5126,
			"count":2,
			"type":"VEC3"
		},
		{
			"bufferView":77,
			"componentType":5126,
			"count":2,
			"type":"VEC4"
		},
		{
			"bufferView":78,
			"componentType":5126,
			"count":2,
			"type":"VEC3"
		},
		{
			"bufferView":79,
			"componentType":5126,
			"count":2,
			"type":"VEC3"
		},
		{
			"bufferView":80,
			"componentType":5126,
			"count":2,
			"type":"VEC4"
		},
		{
			"bufferView":81,
			"componentType":5126,
			"count":2,
			"type":"VEC4"
		},
		{
			"bufferView":82,
			"componentType":5126,
			"count":2,
			"type":"VEC3"
		},
		{
			"bufferView":83,
			"componentType":5126,
			"count":2,
			"type":"VEC4"
		},
		{
			"bufferView":84,
			"componentType":5126,
			"count":2,
			"type":"VEC3"
		},
		{
			"bufferView":85,
			"componentType":5126,
			"count":2,
			"type":"VEC4"
		},
		{
			"bufferView":86,
			"componentType":5126,
			"count":2,
			"type":"VEC3"
		},
		{
			"bufferView":87,
			"componentType":5126,
			"count":2,
			"type":"VEC3"
		},
		{
			"bufferView":88,
			"componentType":5126,
			"count":31,
			"type":"VEC3"
		},
		{
			"bufferView":89,
			"componentType":5126,
			"count":31,
			"type":"VEC4"
		},
		{
			"bufferView":90,
			"componentType":5126,
			"count":2,
			"type":"VEC4"
		},
		{
			"bufferView":91,
			"componentType":5126,
			"count":2,
			"type":"VEC3"
		},
		{
			"bufferView":92,
			"componentType":5126,
			"count":31,
			"type":"VEC4"
		},
		{
			"bufferView":93,
			"componentType":5126,
			"count":2,
			"type":"VEC3"
		},
		{
			"bufferView":94,
			"componentType":5126,
			"count":2,
			"type":"VEC3"
		},
		{
			"bufferView":95,
			"componentType":5126,
			"count":31,
			"type":"VEC4"
		},
		{
			"bufferView":96,
			"componentType":5126,
			"count":2,
			"type":"VEC3"
		},
		{
			"bufferView":97,
			"componentType":5126,
			"count":2,
			"type":"VEC3"
		},
		{
			"bufferView":98,
			"componentType":5126,
			"count":31,
			"type":"VEC4"
		},
		{
			"bufferView":99,
			"componentType":5126,
			"count":2,
			"type":"VEC3"
		},
		{
			"bufferView":100,
			"componentType":5126,
			"count":2,
			"type":"VEC3"
		},
		{
			"bufferView":101,
			"componentType":5126,
			"count":31,
			"type":"VEC4"
		},
		{
			"bufferView":102,
			"componentType":5126,
			"count":2,
			"type":"VEC3"
		},
		{
			"bufferView":103,
			"componentType":5126,
			"count":2,
			"type":"VEC3"
		},
		{
			"bufferView":104,
			"componentType":5126,
			"count":2,
			"type":"VEC4"
		},
		{
			"bufferView":105,
			"componentType":5126,
			"count":2,
			"type":"VEC3"
		},
		{
			"bufferView":106,
			"componentType":5126,
			"count":2,
			"type":"VEC3"
		},
		{
			"bufferView":107,
			"componentType":5126,
			"count":2,
			"type":"VEC4"
		},
		{
			"bufferView":108,
			"componentType":5126,
			"count":2,
			"type":"VEC3"
		},
		{
			"bufferView":109,
			"componentType":5126,
			"count":31,
			"type":"VEC4"
		},
		{
			"bufferView":110,
			"componentType":5126,
			"count":2,
			"type":"VEC3"
		},
		{
			"bufferView":111,
			"componentType":5126,
			"count":2,
			"type":"VEC4"
		},
		{
			"bufferView":112,
			"componentType":5126,
			"count":2,
			"type":"VEC3"
		},
		{
			"bufferView":113,
			"componentType":5126,
			"count":2,
			"type":"VEC3"
		},
		{
			"bufferView":114,
			"componentType":5126,
			"count":2,
			"type":"VEC4"
		},
		{
			"bufferView":115,
			"componentType":5126,
			"count":2,
			"type":"VEC3"
		},
		{
			"bufferView":116,
			"componentType":5126,
			"count":31,
			"type":"VEC4"
		},
		{
			"bufferView":117,
			"componentType":5126,
			"count":2,
			"type":"VEC3"
		},
		{
			"bufferView":118,
			"componentType":5126,
			"count":31,
			"type":"VEC4"
		},
		{
			"bufferView":119,
			"componentType":5126,
			"count":2,
			"type":"VEC3"
		},
		{
			"bufferView":120,
			"componentType":5126,
			"count":31,
			"type":"VEC4"
		},
		{
			"bufferView":121,
			"componentType":5126,
			"count":2,
			"type":"VEC3"
		},
		{
			"bufferView":122,
			"componentType":5126,
			"count":31,
			"type":"VEC4"
		},
		{
			"bufferView":123,
			"componentType":5126,
			"count":2,
			"type":"VEC3"
		},
		{
			"bufferView":124,
			"componentType":5126,
			"count":31,
			"type":"VEC4"
		},
		{
			"bufferView":125,
			"componentType":5126,
			"count":2,
			"type":"VEC3"
		},
		{
			"bufferView":126,
			"componentType":5126,
			"count":31,
			"type":"VEC4"
		},
		{
			"bufferView":127,
			"componentType":5126,
			"count":2,
			"type":"VEC3"
		}
	],
	"bufferViews":[
		{
			"buffer":0,
			"byteLength":113424,
			"byteOffset":0,
			"target":34962
		},
		{
			"buffer":0,
			"byteLength":113424,
			"byteOffset":113424,
			"target":34962
		},
		{
			"buffer":0,
			"byteLength":113424,
			"byteOffset":226848,
			"target":34962
		},
		{
			"buffer":0,
			"byteLength":37808,
			"byteOffset":340272,
			"target":34962
		},
		{
			"buffer":0,
			"byteLength":151232,
			"byteOffset":378080,
			"target":34962
		},
		{
			"buffer":0,
			"byteLength":26988,
			"byteOffset":529312,
			"target":34963
		},
		{
			"buffer":0,
			"byteLength":1152,
			"byteOffset":556300
		},
		{
			"buffer":0,
			"byteLength":8928,
			"byteOffset":557452,
			"target":34962
		},
		{
			"buffer":0,
			"byteLength":8928,
			"byteOffset":566380,
			"target":34962
		},
		{
			"buffer":0,
			"byteLength":8928,
			"byteOffset":575308,
			"target":34962
		},
		{
			"buffer":0,
			"byteLength":2088,
			"byteOffset":584236,
			"target":34963
		},
		{
			"buffer":0,
			"byteLength":8,
			"byteOffset":586324
		},
		{
			"buffer":0,
			"byteLength":24,
			"byteOffset":586332
		},
		{
			"buffer":0,
			"byteLength":32,
			"byteOffset":586356
		},
		{
			"buffer":0,
			"byteLength":24,
			"byteOffset":586388
		},
		{
			"buffer":0,
			"byteLength":24,
			"byteOffset":586412
		},
		{
			"buffer":0,
			"byteLength":124,
			"byteOffset":586436
		},
		{
			"buffer":0,
			"byteLength":496,
			"byteOffset":586560
		},
		{
			"buffer":0,
			"byteLength":24,
			"byteOffset":587056
		},
		{
			"buffer":0,
			"byteLength":496,
			"byteOffset":587080
		},
		{
			"buffer":0,
			"byteLength":24,
			"byteOffset":587576
		},
		{
			"buffer":0,
			"byteLength":32,
			"byteOffset":587600
		},
		{
			"buffer":0,
			"byteLength":24,
			"byteOffset":587632
		},
		{
			"buffer":0,
			"byteLength":24,
			"byteOffset":587656
		},
		{
			"buffer":0,
			"byteLength":32,
			"byteOffset":587680
		},
		{
			"buffer":0,
			"byteLength":24,
			"byteOffset":587712
		},
		{
			"buffer":0,
			"byteLength":32,
			"byteOffset":587736
		},
		{
			"buffer":0,
			"byteLength":24,
			"byteOffset":587768
		},
		{
			"buffer":0,
			"byteLength":32,
			"byteOffset":587792
		},
		{
			"buffer":0,
			"byteLength":24,
			"byteOffset":587824
		},
		{
			"buffer":0,
			"byteLength":24,
			"byteOffset":587848
		},
		{
			"buffer":0,
			"byteLength":32,
			"byteOffset":587872
		},
		{
			"buffer":0,
			"byteLength":24,
			"byteOffset":587904
		},
		{
			"buffer":0,
			"byteLength":24,
			"byteOffset":587928
		},
		{
			"buffer":0,
			"byteLength":32,
			"byteOffset":587952
		},
		{
			"buffer":0,
			"byteLength":24,
			"byteOffset":587984
		},
		{
			"buffer":0,
			"byteLength":24,
			"byteOffset":588008
		},
		{
			"buffer":0,
			"byteLength":496,
			"byteOffset":588032
		},
		{
			"buffer":0,
			"byteLength":24,
			"byteOffset":588528
		},
		{
			"buffer":0,
			"byteLength":24,
			"byteOffset":588552
		},
		{
			"buffer":0,
			"byteLength":496,
			"byteOffset":588576
		},
		{
			"buffer":0,
			"byteLength":24,
			"byteOffset":589072
		},
		{
			"buffer":0,
			"byteLength":24,
			"byteOffset":589096
		},
		{
			"buffer":0,
			"byteLength":32,
			"byteOffset":589120
		},
		{
			"buffer":0,
			"byteLength":24,
			"byteOffset":589152
		},
		{
			"buffer":0,
			"byteLength":24,
			"byteOffset":589176
		},
		{
			"buffer":0,
			"byteLength":496,
			"byteOffset":589200
		},
		{
			"buffer":0,
			"byteLength":24,
			"byteOffset":589696
		},
		{
			"buffer":0,
			"byteLength":496,
			"byteOffset":589720
		},
		{
			"buffer":0,
			"byteLength":24,
			"byteOffset":590216
		},
		{
			"buffer":0,
			"byteLength":24,
			"byteOffset":590240
		},
		{
			"buffer":0,
			"byteLength":32,
			"byteOffset":590264
		},
		{
			"buffer":0,
			"byteLength":24,
			"byteOffset":590296
		},
		{
			"buffer":0,
			"byteLength":24,
			"byteOffset":590320
		},
		{
			"buffer":0,
			"byteLength":496,
			"byteOffset":590344
		},
		{
			"buffer":0,
			"byteLength":24,
			"byteOffset":590840
		},
		{
			"buffer":0,
			"byteLength":24,
			"byteOffset":590864
		},
		{
			"buffer":0,
			"byteLength":496,
			"byteOffset":590888
		},
		{
			"buffer":0,
			"byteLength":24,
			"byteOffset":591384
		},
		{
			"buffer":0,
			"byteLength":24,
			"byteOffset":591408
		},
		{
			"buffer":0,
			"byteLength":724,
			"byteOffset":591432
		},
		{
			"buffer":0,
			"byteLength":2172,
			"byteOffset":592156
		},
		{
			"buffer":0,
			"byteLength":8,
			"byteOffset":594328
		},
		{
			"buffer":0,
			"byteLength":2896,
			"byteOffset":594336
		},
		{
			"buffer":0,
			"byteLength":2896,
			"byteOffset":597232
		},
		{
			"buffer":0,
			"byteLength":2896,
			"byteOffset":600128
		},
		{
			"buffer":0,
			"byteLength":24,
			"byteOffset":603024
		},
		{
			"buffer":0,
			"byteLength":24,
			"byteOffset":603048
		},
		{
			"buffer":0,
			"byteLength":2896,
			"byteOffset":603072
		},
		{
			"buffer":0,
			"byteLength":24,
			"byteOffset":605968
		},
		{
			"buffer":0,
			"byteLength":24,
			"byteOffset":605992
		},
		{
			"buffer":0,
			"byteLength":32,
			"byteOffset":606016
		},
		{
			"buffer":0,
			"byteLength":24,
			"byteOffset":606048
		},
		{
			"buffer":0,
			"byteLength":32,
			"byteOffset":606072
		},
		{
			"buffer":0,
			"byteLength":24,
			"byteOffset":606104
		},
		{
			"buffer":0,
			"byteLength":32,
			"byteOffset":606128
		},
		{
			"buffer":0,
			"byteLength":24,
			"byteOffset":606160
		},
		{
			"buffer":0,
			"byteLength":32,
			"byteOffset":606184
		},
		{
			"buffer":0,
			"byteLength":24,
			"byteOffset":606216
		},
		{
			"buffer":0,
			"byteLength":24,
			"byteOffset":606240
		},
		{
			"buffer":0,
			"byteLength":32,
			"byteOffset":606264
		},
		{
			"buffer":0,
			"byteLength":32,
			"byteOffset":606296
		},
		{
			"buffer":0,
			"byteLength":24,
			"byteOffset":606328
		},
		{
			"buffer":0,
			"byteLength":32,
			"byteOffset":606352
		},
		{
			"buffer":0,
			"byteLength":24,
			"byteOffset":606384
		},
		{
			"buffer":0,
			"byteLength":32,
			"byteOffset":606408
		},
		{
			"buffer":0,
			"byteLength":24,
			"byteOffset":606440
		},
		{
			"buffer":0,
			"byteLength":24,
			"byteOffset":606464
		},
		{
			"buffer":0,
			"byteLength":372,
			"byteOffset":606488
		},
		{
			"buffer":0,
			"byteLength":496,
			"byteOffset":606860
		},
		{
			"buffer":0,
			"byteLength":32,
			"byteOffset":607356
		},
		{
			"buffer":0,
			"byteLength":24,
			"byteOffset":607388
		},
		{
			"buffer":0,
			"byteLength":496,
			"byteOffset":607412
		},
		{
			"buffer":0,
			"byteLength":24,
			"byteOffset":607908
		},
		{
			"buffer":0,
			"byteLength":24,
			"byteOffset":607932
		},
		{
			"buffer":0,
			"byteLength":496,
			"byteOffset":607956
		},
		{
			"buffer":0,
			"byteLength":24,
			"byteOffset":608452
		},
		{
			"buffer":0,
			"byteLength":24,
			"byteOffset":608476
		},
		{
			"buffer":0,
			"byteLength":496,
			"byteOffset":608500
		},
		{
			"buffer":0,
			"byteLength":24,
			"byteOffset":608996
		},
		{
			"buffer":0,
			"byteLength":24,
			"byteOffset":609020
		},
		{
			"buffer":0,
			"byteLength":496,
			"byteOffset":609044
		},
		{
			"buffer":0,
			"byteLength":24,
			"byteOffset":609540
		},
		{
			"buffer":0,
			"byteLength":24,
			"byteOffset":609564
		},
		{
			"buffer":0,
			"byteLength":32,
			"byteOffset":609588
		},
		{
			"buffer":0,
			"byteLength":24,
			"byteOffset":609620
		},
		{
			"buffer":0,
			"byteLength":24,
			"byteOffset":609644
		},
		{
			"buffer":0,
			"byteLength":32,
			"byteOffset":609668
		},
		{
			"buffer":0,
			"byteLength":24,
			"byteOffset":609700
		},
		{
			"buffer":0,
			"byteLength":496,
			"byteOffset":609724
		},
		{
			"buffer":0,
			"byteLength":24,
			"byteOffset":610220
		},
		{
			"buffer":0,
			"byteLength":32,
			"byteOffset":610244
		},
		{
			"buffer":0,
			"byteLength":24,
			"byteOffset":610276
		},
		{
			"buffer":0,
			"byteLength":24,
			"byteOffset":610300
		},
		{
			"buffer":0,
			"byteLength":32,
			"byteOffset":610324
		},
		{
			"buffer":0,
			"byteLength":24,
			"byteOffset":610356
		},
		{
			"buffer":0,
			"byteLength":496,
			"byteOffset":610380
		},
		{
			"buffer":0,
			"byteLength":24,
			"byteOffset":610876
		},
		{
			"buffer":0,
			"byteLength":496,
			"byteOffset":610900
		},
		{
			"buffer":0,
			"byteLength":24,
			"byteOffset":611396
		},
		{
			"buffer":0,
			"byteLength":496,
			"byteOffset":611420
		},
		{
			"buffer":0,
			"byteLength":24,
			"byteOffset":611916
		},
		{
			"buffer":0,
			"byteLength":496,
			"byteOffset":611940
		},
		{
			"buffer":0,
			"byteLength":24,
			"byteOffset":612436
		},
		{
			"buffer":0,
			"byteLength":496,
			"byteOffset":612460
		},
		{
			"buffer":0,
			"byteLength":24,
			"byteOffset":612956
		},
		{
			"buffer":0,
			"byteLength":496,
			"byteOffset":612980
		},
		{
			"buffer":0,
			"byteLength":24,
			"byteOffset":613476
		}
	],
	"buffers":[
		{
			"byteLength":613500,
			"uri":"bergtroll.bin"
		}
	]
}
