{
	"asset":{
		"generator":"Khronos glTF Blender I/O v5.2.40",
		"version":"2.0"
	},
	"scene":0,
	"scenes":[
		{
			"name":"Scene",
			"nodes":[
				20
			]
		}
	],
	"nodes":[
		{
			"name":"Hut",
			"rotation":[
				-0.5646035075187683,
				8.609200108367077e-08,
				-5.8892737797577865e-08,
				0.8253622651100159
			],
			"translation":[
				0,
				0.7590000629425049,
				-0.04599999636411667
			]
		},
		{
			"children":[
				0
			],
			"name":"Kopf",
			"translation":[
				0,
				0.2070000171661377,
				0
			]
		},
		{
			"children":[
				1
			],
			"name":"Hals",
			"translation":[
				0,
				0.5980000495910645,
				0
			]
		},
		{
			"name":"Hand.L",
			"rotation":[
				-0.029935458675026894,
				-0.001285320264287293,
				0.008676190860569477,
				0.9995133876800537
			],
			"scale":[
				0.9999999403953552,
				1,
				0.9999998807907104
			],
			"translation":[
				-2.9373913079666636e-08,
				0.5904329419136047,
				2.7939677238464355e-08
			]
		},
		{
			"children":[
				3
			],
			"name":"Unterarm.L",
			"rotation":[
				-0.0922333225607872,
				-0.0013973398599773645,
				0.0567537397146225,
				0.9941177368164062
			],
			"scale":[
				0.9999999403953552,
				0.9999998807907104,
				1.0000001192092896
			],
			"translation":[
				-5.8233734279156124e-08,
				0.6780120730400085,
				7.450580596923828e-09
			]
		},
		{
			"children":[
				4
			],
			"name":"Oberarm.L",
			"rotation":[
				-0.9873651266098022,
				-0.15478388965129852,
				0.005256957840174437,
				0.03353273496031761
			],
			"scale":[
				0.9999983906745911,
				0.9999997615814209,
				0.9999998807907104
			],
			"translation":[
				0.46000000834465027,
				0.46000003814697266,
				0
			]
		},
		{
			"mesh":1,
			"name":"Flammenschwert",
			"rotation":[
				-0.9920609593391418,
				0.08945394307374954,
				0.007937796413898468,
				0.08803389966487885
			],
			"scale":[
				1.000001072883606,
				1.0000004768371582,
				0.9999999403953552
			],
			"translation":[
				1.1684813499450684,
				2.0189638137817383,
				0.3845290541648865
			]
		},
		{
			"children":[
				6
			],
			"name":"Hand.R",
			"rotation":[
				-0.029935458675026894,
				0.001285320264287293,
				-0.008676190860569477,
				0.9995133876800537
			],
			"scale":[
				0.9999999403953552,
				1,
				0.9999998807907104
			],
			"translation":[
				2.9373913079666636e-08,
				0.5904329419136047,
				2.7939677238464355e-08
			]
		},
		{
			"children":[
				7
			],
			"name":"Unterarm.R",
			"rotation":[
				-0.0922333225607872,
				0.0013973398599773645,
				-0.0567537397146225,
				0.9941177368164062
			],
			"scale":[
				0.9999999403953552,
				0.9999998807907104,
				1.0000001192092896
			],
			"translation":[
				5.8233734279156124e-08,
				0.6780120730400085,
				7.450580596923828e-09
			]
		},
		{
			"children":[
				8
			],
			"name":"Oberarm.R",
			"rotation":[
				-0.9873651266098022,
				0.15478388965129852,
				-0.005256957840174437,
				0.03353273496031761
			],
			"scale":[
				0.9999983906745911,
				0.9999997615814209,
				0.9999998807907104
			],
			"translation":[
				-0.46000000834465027,
				0.46000003814697266,
				0
			]
		},
		{
			"children":[
				2,
				5,
				9
			],
			"name":"Brust",
			"translation":[
				0,
				0.45999979972839355,
				0
			]
		},
		{
			"children":[
				10
			],
			"name":"Bauch",
			"translation":[
				0,
				0.3450000286102295,
				0
			]
		},
		{
			"name":"Fuss.L",
			"rotation":[
				-1.499519726166909e-07,
				0.8304529190063477,
				-0.5570888519287109,
				3.596906594793836e-07
			],
			"scale":[
				1,
				0.9999998807907104,
				0.9999999403953552
			],
			"translation":[
				-2.422822653613821e-08,
				0.9670949578285217,
				-4.199844028107691e-09
			]
		},
		{
			"children":[
				12
			],
			"name":"Unterschenkel.L",
			"rotation":[
				0.02378930151462555,
				6.477823166761709e-09,
				3.746230881063184e-09,
				0.9997169971466064
			],
			"scale":[
				1,
				0.9999999403953552,
				1
			],
			"translation":[
				0,
				0.9889999628067017,
				0
			]
		},
		{
			"children":[
				13
			],
			"name":"Oberschenkel.L",
			"rotation":[
				1,
				0,
				7.549789415861596e-08,
				0
			],
			"scale":[
				1,
				0.9999997615814209,
				1
			],
			"translation":[
				0.23000000417232513,
				0,
				0
			]
		},
		{
			"name":"Fuss.R",
			"rotation":[
				-1.499519726166909e-07,
				0.8304529190063477,
				-0.5570888519287109,
				3.596906594793836e-07
			],
			"scale":[
				1,
				0.9999998807907104,
				0.9999999403953552
			],
			"translation":[
				3.537641646289558e-08,
				0.9670949578285217,
				-5.113381718047094e-09
			]
		},
		{
			"children":[
				15
			],
			"name":"Unterschenkel.R",
			"rotation":[
				0.02378930151462555,
				6.477823166761709e-09,
				3.746230881063184e-09,
				0.9997169971466064
			],
			"scale":[
				1,
				0.9999999403953552,
				1
			],
			"translation":[
				0,
				0.9889999628067017,
				0
			]
		},
		{
			"children":[
				16
			],
			"name":"Oberschenkel.R",
			"rotation":[
				1,
				0,
				7.549789415861596e-08,
				0
			],
			"scale":[
				1,
				0.9999997615814209,
				1
			],
			"translation":[
				-0.23000000417232513,
				0,
				0
			]
		},
		{
			"children":[
				11,
				14,
				17
			],
			"name":"Becken",
			"translation":[
				0,
				2.184999942779541,
				0
			]
		},
		{
			"mesh":0,
			"name":"Daemonenfuerst",
			"skin":0
		},
		{
			"children":[
				19,
				18
			],
			"name":"DaemonenfuerstSkelett"
		}
	],
	"animations":[
		{
			"channels":[
				{
					"sampler":0,
					"target":{
						"node":18,
						"path":"translation"
					}
				},
				{
					"sampler":1,
					"target":{
						"node":18,
						"path":"rotation"
					}
				},
				{
					"sampler":2,
					"target":{
						"node":18,
						"path":"scale"
					}
				},
				{
					"sampler":3,
					"target":{
						"node":11,
						"path":"translation"
					}
				},
				{
					"sampler":4,
					"target":{
						"node":11,
						"path":"rotation"
					}
				},
				{
					"sampler":5,
					"target":{
						"node":11,
						"path":"scale"
					}
				},
				{
					"sampler":6,
					"target":{
						"node":10,
						"path":"translation"
					}
				},
				{
					"sampler":7,
					"target":{
						"node":10,
						"path":"rotation"
					}
				},
				{
					"sampler":8,
					"target":{
						"node":10,
						"path":"scale"
					}
				},
				{
					"sampler":9,
					"target":{
						"node":2,
						"path":"translation"
					}
				},
				{
					"sampler":10,
					"target":{
						"node":2,
						"path":"rotation"
					}
				},
				{
					"sampler":11,
					"target":{
						"node":2,
						"path":"scale"
					}
				},
				{
					"sampler":12,
					"target":{
						"node":1,
						"path":"translation"
					}
				},
				{
					"sampler":13,
					"target":{
						"node":1,
						"path":"rotation"
					}
				},
				{
					"sampler":14,
					"target":{
						"node":1,
						"path":"scale"
					}
				},
				{
					"sampler":15,
					"target":{
						"node":0,
						"path":"translation"
					}
				},
				{
					"sampler":16,
					"target":{
						"node":0,
						"path":"rotation"
					}
				},
				{
					"sampler":17,
					"target":{
						"node":0,
						"path":"scale"
					}
				},
				{
					"sampler":18,
					"target":{
						"node":5,
						"path":"translation"
					}
				},
				{
					"sampler":19,
					"target":{
						"node":5,
						"path":"rotation"
					}
				},
				{
					"sampler":20,
					"target":{
						"node":5,
						"path":"scale"
					}
				},
				{
					"sampler":21,
					"target":{
						"node":4,
						"path":"translation"
					}
				},
				{
					"sampler":22,
					"target":{
						"node":4,
						"path":"rotation"
					}
				},
				{
					"sampler":23,
					"target":{
						"node":4,
						"path":"scale"
					}
				},
				{
					"sampler":24,
					"target":{
						"node":3,
						"path":"translation"
					}
				},
				{
					"sampler":25,
					"target":{
						"node":3,
						"path":"rotation"
					}
				},
				{
					"sampler":26,
					"target":{
						"node":3,
						"path":"scale"
					}
				},
				{
					"sampler":27,
					"target":{
						"node":9,
						"path":"translation"
					}
				},
				{
					"sampler":28,
					"target":{
						"node":9,
						"path":"rotation"
					}
				},
				{
					"sampler":29,
					"target":{
						"node":9,
						"path":"scale"
					}
				},
				{
					"sampler":30,
					"target":{
						"node":8,
						"path":"translation"
					}
				},
				{
					"sampler":31,
					"target":{
						"node":8,
						"path":"rotation"
					}
				},
				{
					"sampler":32,
					"target":{
						"node":8,
						"path":"scale"
					}
				},
				{
					"sampler":33,
					"target":{
						"node":7,
						"path":"translation"
					}
				},
				{
					"sampler":34,
					"target":{
						"node":7,
						"path":"rotation"
					}
				},
				{
					"sampler":35,
					"target":{
						"node":7,
						"path":"scale"
					}
				},
				{
					"sampler":36,
					"target":{
						"node":14,
						"path":"translation"
					}
				},
				{
					"sampler":37,
					"target":{
						"node":14,
						"path":"rotation"
					}
				},
				{
					"sampler":38,
					"target":{
						"node":14,
						"path":"scale"
					}
				},
				{
					"sampler":39,
					"target":{
						"node":13,
						"path":"translation"
					}
				},
				{
					"sampler":40,
					"target":{
						"node":13,
						"path":"rotation"
					}
				},
				{
					"sampler":41,
					"target":{
						"node":13,
						"path":"scale"
					}
				},
				{
					"sampler":42,
					"target":{
						"node":12,
						"path":"translation"
					}
				},
				{
					"sampler":43,
					"target":{
						"node":12,
						"path":"rotation"
					}
				},
				{
					"sampler":44,
					"target":{
						"node":12,
						"path":"scale"
					}
				},
				{
					"sampler":45,
					"target":{
						"node":17,
						"path":"translation"
					}
				},
				{
					"sampler":46,
					"target":{
						"node":17,
						"path":"rotation"
					}
				},
				{
					"sampler":47,
					"target":{
						"node":17,
						"path":"scale"
					}
				},
				{
					"sampler":48,
					"target":{
						"node":16,
						"path":"translation"
					}
				},
				{
					"sampler":49,
					"target":{
						"node":16,
						"path":"rotation"
					}
				},
				{
					"sampler":50,
					"target":{
						"node":16,
						"path":"scale"
					}
				},
				{
					"sampler":51,
					"target":{
						"node":15,
						"path":"translation"
					}
				},
				{
					"sampler":52,
					"target":{
						"node":15,
						"path":"rotation"
					}
				},
				{
					"sampler":53,
					"target":{
						"node":15,
						"path":"scale"
					}
				}
			],
			"name":"Angriff",
			"samplers":[
				{
					"input":11,
					"interpolation":"STEP",
					"output":12
				},
				{
					"input":11,
					"interpolation":"STEP",
					"output":13
				},
				{
					"input":11,
					"interpolation":"STEP",
					"output":14
				},
				{
					"input":11,
					"interpolation":"STEP",
					"output":15
				},
				{
					"input":16,
					"interpolation":"LINEAR",
					"output":17
				},
				{
					"input":11,
					"interpolation":"STEP",
					"output":14
				},
				{
					"input":11,
					"interpolation":"STEP",
					"output":18
				},
				{
					"input":16,
					"interpolation":"LINEAR",
					"output":19
				},
				{
					"input":11,
					"interpolation":"STEP",
					"output":14
				},
				{
					"input":11,
					"interpolation":"STEP",
					"output":20
				},
				{
					"input":11,
					"interpolation":"STEP",
					"output":13
				},
				{
					"input":11,
					"interpolation":"STEP",
					"output":14
				},
				{
					"input":11,
					"interpolation":"STEP",
					"output":21
				},
				{
					"input":11,
					"interpolation":"STEP",
					"output":13
				},
				{
					"input":11,
					"interpolation":"STEP",
					"output":14
				},
				{
					"input":11,
					"interpolation":"STEP",
					"output":22
				},
				{
					"input":11,
					"interpolation":"STEP",
					"output":23
				},
				{
					"input":11,
					"interpolation":"STEP",
					"output":14
				},
				{
					"input":11,
					"interpolation":"STEP",
					"output":24
				},
				{
					"input":11,
					"interpolation":"STEP",
					"output":25
				},
				{
					"input":11,
					"interpolation":"STEP",
					"output":26
				},
				{
					"input":11,
					"interpolation":"STEP",
					"output":27
				},
				{
					"input":11,
					"interpolation":"STEP",
					"output":28
				},
				{
					"input":11,
					"interpolation":"STEP",
					"output":29
				},
				{
					"input":11,
					"interpolation":"STEP",
					"output":30
				},
				{
					"input":11,
					"interpolation":"STEP",
					"output":31
				},
				{
					"input":11,
					"interpolation":"STEP",
					"output":32
				},
				{
					"input":11,
					"interpolation":"STEP",
					"output":33
				},
				{
					"input":16,
					"interpolation":"LINEAR",
					"output":34
				},
				{
					"input":11,
					"interpolation":"STEP",
					"output":35
				},
				{
					"input":11,
					"interpolation":"STEP",
					"output":36
				},
				{
					"input":16,
					"interpolation":"LINEAR",
					"output":37
				},
				{
					"input":11,
					"interpolation":"STEP",
					"output":38
				},
				{
					"input":11,
					"interpolation":"STEP",
					"output":39
				},
				{
					"input":11,
					"interpolation":"STEP",
					"output":40
				},
				{
					"input":11,
					"interpolation":"STEP",
					"output":41
				},
				{
					"input":11,
					"interpolation":"STEP",
					"output":42
				},
				{
					"input":16,
					"interpolation":"LINEAR",
					"output":43
				},
				{
					"input":11,
					"interpolation":"STEP",
					"output":44
				},
				{
					"input":11,
					"interpolation":"STEP",
					"output":45
				},
				{
					"input":16,
					"interpolation":"LINEAR",
					"output":46
				},
				{
					"input":11,
					"interpolation":"STEP",
					"output":47
				},
				{
					"input":11,
					"interpolation":"STEP",
					"output":48
				},
				{
					"input":11,
					"interpolation":"STEP",
					"output":49
				},
				{
					"input":11,
					"interpolation":"STEP",
					"output":50
				},
				{
					"input":11,
					"interpolation":"STEP",
					"output":51
				},
				{
					"input":16,
					"interpolation":"LINEAR",
					"output":52
				},
				{
					"input":11,
					"interpolation":"STEP",
					"output":53
				},
				{
					"input":11,
					"interpolation":"STEP",
					"output":54
				},
				{
					"input":16,
					"interpolation":"LINEAR",
					"output":55
				},
				{
					"input":11,
					"interpolation":"STEP",
					"output":47
				},
				{
					"input":11,
					"interpolation":"STEP",
					"output":56
				},
				{
					"input":11,
					"interpolation":"STEP",
					"output":57
				},
				{
					"input":11,
					"interpolation":"STEP",
					"output":50
				}
			]
		},
		{
			"channels":[
				{
					"sampler":0,
					"target":{
						"node":18,
						"path":"translation"
					}
				},
				{
					"sampler":1,
					"target":{
						"node":18,
						"path":"rotation"
					}
				},
				{
					"sampler":2,
					"target":{
						"node":18,
						"path":"scale"
					}
				},
				{
					"sampler":3,
					"target":{
						"node":11,
						"path":"translation"
					}
				},
				{
					"sampler":4,
					"target":{
						"node":11,
						"path":"rotation"
					}
				},
				{
					"sampler":5,
					"target":{
						"node":11,
						"path":"scale"
					}
				},
				{
					"sampler":6,
					"target":{
						"node":10,
						"path":"translation"
					}
				},
				{
					"sampler":7,
					"target":{
						"node":10,
						"path":"rotation"
					}
				},
				{
					"sampler":8,
					"target":{
						"node":10,
						"path":"scale"
					}
				},
				{
					"sampler":9,
					"target":{
						"node":2,
						"path":"translation"
					}
				},
				{
					"sampler":10,
					"target":{
						"node":2,
						"path":"rotation"
					}
				},
				{
					"sampler":11,
					"target":{
						"node":2,
						"path":"scale"
					}
				},
				{
					"sampler":12,
					"target":{
						"node":1,
						"path":"translation"
					}
				},
				{
					"sampler":13,
					"target":{
						"node":1,
						"path":"rotation"
					}
				},
				{
					"sampler":14,
					"target":{
						"node":1,
						"path":"scale"
					}
				},
				{
					"sampler":15,
					"target":{
						"node":0,
						"path":"translation"
					}
				},
				{
					"sampler":16,
					"target":{
						"node":0,
						"path":"rotation"
					}
				},
				{
					"sampler":17,
					"target":{
						"node":0,
						"path":"scale"
					}
				},
				{
					"sampler":18,
					"target":{
						"node":5,
						"path":"translation"
					}
				},
				{
					"sampler":19,
					"target":{
						"node":5,
						"path":"rotation"
					}
				},
				{
					"sampler":20,
					"target":{
						"node":5,
						"path":"scale"
					}
				},
				{
					"sampler":21,
					"target":{
						"node":4,
						"path":"translation"
					}
				},
				{
					"sampler":22,
					"target":{
						"node":4,
						"path":"rotation"
					}
				},
				{
					"sampler":23,
					"target":{
						"node":4,
						"path":"scale"
					}
				},
				{
					"sampler":24,
					"target":{
						"node":3,
						"path":"translation"
					}
				},
				{
					"sampler":25,
					"target":{
						"node":3,
						"path":"rotation"
					}
				},
				{
					"sampler":26,
					"target":{
						"node":3,
						"path":"scale"
					}
				},
				{
					"sampler":27,
					"target":{
						"node":9,
						"path":"translation"
					}
				},
				{
					"sampler":28,
					"target":{
						"node":9,
						"path":"rotation"
					}
				},
				{
					"sampler":29,
					"target":{
						"node":9,
						"path":"scale"
					}
				},
				{
					"sampler":30,
					"target":{
						"node":8,
						"path":"translation"
					}
				},
				{
					"sampler":31,
					"target":{
						"node":8,
						"path":"rotation"
					}
				},
				{
					"sampler":32,
					"target":{
						"node":8,
						"path":"scale"
					}
				},
				{
					"sampler":33,
					"target":{
						"node":7,
						"path":"translation"
					}
				},
				{
					"sampler":34,
					"target":{
						"node":7,
						"path":"rotation"
					}
				},
				{
					"sampler":35,
					"target":{
						"node":7,
						"path":"scale"
					}
				},
				{
					"sampler":36,
					"target":{
						"node":14,
						"path":"translation"
					}
				},
				{
					"sampler":37,
					"target":{
						"node":14,
						"path":"rotation"
					}
				},
				{
					"sampler":38,
					"target":{
						"node":14,
						"path":"scale"
					}
				},
				{
					"sampler":39,
					"target":{
						"node":13,
						"path":"translation"
					}
				},
				{
					"sampler":40,
					"target":{
						"node":13,
						"path":"rotation"
					}
				},
				{
					"sampler":41,
					"target":{
						"node":13,
						"path":"scale"
					}
				},
				{
					"sampler":42,
					"target":{
						"node":12,
						"path":"translation"
					}
				},
				{
					"sampler":43,
					"target":{
						"node":12,
						"path":"rotation"
					}
				},
				{
					"sampler":44,
					"target":{
						"node":12,
						"path":"scale"
					}
				},
				{
					"sampler":45,
					"target":{
						"node":17,
						"path":"translation"
					}
				},
				{
					"sampler":46,
					"target":{
						"node":17,
						"path":"rotation"
					}
				},
				{
					"sampler":47,
					"target":{
						"node":17,
						"path":"scale"
					}
				},
				{
					"sampler":48,
					"target":{
						"node":16,
						"path":"translation"
					}
				},
				{
					"sampler":49,
					"target":{
						"node":16,
						"path":"rotation"
					}
				},
				{
					"sampler":50,
					"target":{
						"node":16,
						"path":"scale"
					}
				},
				{
					"sampler":51,
					"target":{
						"node":15,
						"path":"translation"
					}
				},
				{
					"sampler":52,
					"target":{
						"node":15,
						"path":"rotation"
					}
				},
				{
					"sampler":53,
					"target":{
						"node":15,
						"path":"scale"
					}
				}
			],
			"name":"Idle",
			"samplers":[
				{
					"input":58,
					"interpolation":"LINEAR",
					"output":59
				},
				{
					"input":60,
					"interpolation":"STEP",
					"output":13
				},
				{
					"input":60,
					"interpolation":"STEP",
					"output":14
				},
				{
					"input":60,
					"interpolation":"STEP",
					"output":15
				},
				{
					"input":58,
					"interpolation":"LINEAR",
					"output":61
				},
				{
					"input":60,
					"interpolation":"STEP",
					"output":14
				},
				{
					"input":60,
					"interpolation":"STEP",
					"output":18
				},
				{
					"input":58,
					"interpolation":"LINEAR",
					"output":62
				},
				{
					"input":60,
					"interpolation":"STEP",
					"output":14
				},
				{
					"input":60,
					"interpolation":"STEP",
					"output":20
				},
				{
					"input":60,
					"interpolation":"STEP",
					"output":13
				},
				{
					"input":60,
					"interpolation":"STEP",
					"output":14
				},
				{
					"input":60,
					"interpolation":"STEP",
					"output":21
				},
				{
					"input":58,
					"interpolation":"LINEAR",
					"output":63
				},
				{
					"input":60,
					"interpolation":"STEP",
					"output":14
				},
				{
					"input":60,
					"interpolation":"STEP",
					"output":64
				},
				{
					"input":60,
					"interpolation":"STEP",
					"output":23
				},
				{
					"input":60,
					"interpolation":"STEP",
					"output":14
				},
				{
					"input":60,
					"interpolation":"STEP",
					"output":24
				},
				{
					"input":58,
					"interpolation":"LINEAR",
					"output":65
				},
				{
					"input":60,
					"interpolation":"STEP",
					"output":66
				},
				{
					"input":60,
					"interpolation":"STEP",
					"output":67
				},
				{
					"input":60,
					"interpolation":"STEP",
					"output":68
				},
				{
					"input":60,
					"interpolation":"STEP",
					"output":69
				},
				{
					"input":60,
					"interpolation":"STEP",
					"output":70
				},
				{
					"input":60,
					"interpolation":"STEP",
					"output":71
				},
				{
					"input":60,
					"interpolation":"STEP",
					"output":72
				},
				{
					"input":60,
					"interpolation":"STEP",
					"output":33
				},
				{
					"input":60,
					"interpolation":"STEP",
					"output":73
				},
				{
					"input":60,
					"interpolation":"STEP",
					"output":26
				},
				{
					"input":60,
					"interpolation":"STEP",
					"output":74
				},
				{
					"input":60,
					"interpolation":"STEP",
					"output":75
				},
				{
					"input":60,
					"interpolation":"STEP",
					"output":76
				},
				{
					"input":60,
					"interpolation":"STEP",
					"output":77
				},
				{
					"input":60,
					"interpolation":"STEP",
					"output":78
				},
				{
					"input":60,
					"interpolation":"STEP",
					"output":14
				},
				{
					"input":60,
					"interpolation":"STEP",
					"output":42
				},
				{
					"input":60,
					"interpolation":"STEP",
					"output":79
				},
				{
					"input":60,
					"interpolation":"STEP",
					"output":44
				},
				{
					"input":60,
					"interpolation":"STEP",
					"output":80
				},
				{
					"input":60,
					"interpolation":"STEP",
					"output":81
				},
				{
					"input":60,
					"interpolation":"STEP",
					"output":47
				},
				{
					"input":60,
					"interpolation":"STEP",
					"output":82
				},
				{
					"input":60,
					"interpolation":"STEP",
					"output":83
				},
				{
					"input":60,
					"interpolation":"STEP",
					"output":84
				},
				{
					"input":60,
					"interpolation":"STEP",
					"output":51
				},
				{
					"input":60,
					"interpolation":"STEP",
					"output":79
				},
				{
					"input":60,
					"interpolation":"STEP",
					"output":44
				},
				{
					"input":60,
					"interpolation":"STEP",
					"output":85
				},
				{
					"input":60,
					"interpolation":"STEP",
					"output":81
				},
				{
					"input":60,
					"interpolation":"STEP",
					"output":47
				},
				{
					"input":60,
					"interpolation":"STEP",
					"output":86
				},
				{
					"input":60,
					"interpolation":"STEP",
					"output":83
				},
				{
					"input":60,
					"interpolation":"STEP",
					"output":84
				}
			]
		},
		{
			"channels":[
				{
					"sampler":0,
					"target":{
						"node":18,
						"path":"translation"
					}
				},
				{
					"sampler":1,
					"target":{
						"node":18,
						"path":"rotation"
					}
				},
				{
					"sampler":2,
					"target":{
						"node":18,
						"path":"scale"
					}
				},
				{
					"sampler":3,
					"target":{
						"node":11,
						"path":"translation"
					}
				},
				{
					"sampler":4,
					"target":{
						"node":11,
						"path":"rotation"
					}
				},
				{
					"sampler":5,
					"target":{
						"node":11,
						"path":"scale"
					}
				},
				{
					"sampler":6,
					"target":{
						"node":10,
						"path":"translation"
					}
				},
				{
					"sampler":7,
					"target":{
						"node":10,
						"path":"rotation"
					}
				},
				{
					"sampler":8,
					"target":{
						"node":10,
						"path":"scale"
					}
				},
				{
					"sampler":9,
					"target":{
						"node":2,
						"path":"translation"
					}
				},
				{
					"sampler":10,
					"target":{
						"node":2,
						"path":"rotation"
					}
				},
				{
					"sampler":11,
					"target":{
						"node":2,
						"path":"scale"
					}
				},
				{
					"sampler":12,
					"target":{
						"node":1,
						"path":"translation"
					}
				},
				{
					"sampler":13,
					"target":{
						"node":1,
						"path":"rotation"
					}
				},
				{
					"sampler":14,
					"target":{
						"node":1,
						"path":"scale"
					}
				},
				{
					"sampler":15,
					"target":{
						"node":0,
						"path":"translation"
					}
				},
				{
					"sampler":16,
					"target":{
						"node":0,
						"path":"rotation"
					}
				},
				{
					"sampler":17,
					"target":{
						"node":0,
						"path":"scale"
					}
				},
				{
					"sampler":18,
					"target":{
						"node":5,
						"path":"translation"
					}
				},
				{
					"sampler":19,
					"target":{
						"node":5,
						"path":"rotation"
					}
				},
				{
					"sampler":20,
					"target":{
						"node":5,
						"path":"scale"
					}
				},
				{
					"sampler":21,
					"target":{
						"node":4,
						"path":"translation"
					}
				},
				{
					"sampler":22,
					"target":{
						"node":4,
						"path":"rotation"
					}
				},
				{
					"sampler":23,
					"target":{
						"node":4,
						"path":"scale"
					}
				},
				{
					"sampler":24,
					"target":{
						"node":3,
						"path":"translation"
					}
				},
				{
					"sampler":25,
					"target":{
						"node":3,
						"path":"rotation"
					}
				},
				{
					"sampler":26,
					"target":{
						"node":3,
						"path":"scale"
					}
				},
				{
					"sampler":27,
					"target":{
						"node":9,
						"path":"translation"
					}
				},
				{
					"sampler":28,
					"target":{
						"node":9,
						"path":"rotation"
					}
				},
				{
					"sampler":29,
					"target":{
						"node":9,
						"path":"scale"
					}
				},
				{
					"sampler":30,
					"target":{
						"node":8,
						"path":"translation"
					}
				},
				{
					"sampler":31,
					"target":{
						"node":8,
						"path":"rotation"
					}
				},
				{
					"sampler":32,
					"target":{
						"node":8,
						"path":"scale"
					}
				},
				{
					"sampler":33,
					"target":{
						"node":7,
						"path":"translation"
					}
				},
				{
					"sampler":34,
					"target":{
						"node":7,
						"path":"rotation"
					}
				},
				{
					"sampler":35,
					"target":{
						"node":7,
						"path":"scale"
					}
				},
				{
					"sampler":36,
					"target":{
						"node":14,
						"path":"translation"
					}
				},
				{
					"sampler":37,
					"target":{
						"node":14,
						"path":"rotation"
					}
				},
				{
					"sampler":38,
					"target":{
						"node":14,
						"path":"scale"
					}
				},
				{
					"sampler":39,
					"target":{
						"node":13,
						"path":"translation"
					}
				},
				{
					"sampler":40,
					"target":{
						"node":13,
						"path":"rotation"
					}
				},
				{
					"sampler":41,
					"target":{
						"node":13,
						"path":"scale"
					}
				},
				{
					"sampler":42,
					"target":{
						"node":12,
						"path":"translation"
					}
				},
				{
					"sampler":43,
					"target":{
						"node":12,
						"path":"rotation"
					}
				},
				{
					"sampler":44,
					"target":{
						"node":12,
						"path":"scale"
					}
				},
				{
					"sampler":45,
					"target":{
						"node":17,
						"path":"translation"
					}
				},
				{
					"sampler":46,
					"target":{
						"node":17,
						"path":"rotation"
					}
				},
				{
					"sampler":47,
					"target":{
						"node":17,
						"path":"scale"
					}
				},
				{
					"sampler":48,
					"target":{
						"node":16,
						"path":"translation"
					}
				},
				{
					"sampler":49,
					"target":{
						"node":16,
						"path":"rotation"
					}
				},
				{
					"sampler":50,
					"target":{
						"node":16,
						"path":"scale"
					}
				},
				{
					"sampler":51,
					"target":{
						"node":15,
						"path":"translation"
					}
				},
				{
					"sampler":52,
					"target":{
						"node":15,
						"path":"rotation"
					}
				},
				{
					"sampler":53,
					"target":{
						"node":15,
						"path":"scale"
					}
				}
			],
			"name":"Laufen",
			"samplers":[
				{
					"input":16,
					"interpolation":"LINEAR",
					"output":87
				},
				{
					"input":16,
					"interpolation":"LINEAR",
					"output":88
				},
				{
					"input":11,
					"interpolation":"STEP",
					"output":14
				},
				{
					"input":11,
					"interpolation":"STEP",
					"output":15
				},
				{
					"input":11,
					"interpolation":"STEP",
					"output":89
				},
				{
					"input":11,
					"interpolation":"STEP",
					"output":14
				},
				{
					"input":11,
					"interpolation":"STEP",
					"output":90
				},
				{
					"input":16,
					"interpolation":"LINEAR",
					"output":91
				},
				{
					"input":11,
					"interpolation":"STEP",
					"output":92
				},
				{
					"input":11,
					"interpolation":"STEP",
					"output":93
				},
				{
					"input":11,
					"interpolation":"STEP",
					"output":13
				},
				{
					"input":11,
					"interpolation":"STEP",
					"output":14
				},
				{
					"input":11,
					"interpolation":"STEP",
					"output":94
				},
				{
					"input":16,
					"interpolation":"LINEAR",
					"output":95
				},
				{
					"input":11,
					"interpolation":"STEP",
					"output":14
				},
				{
					"input":11,
					"interpolation":"STEP",
					"output":96
				},
				{
					"input":16,
					"interpolation":"LINEAR",
					"output":97
				},
				{
					"input":11,
					"interpolation":"STEP",
					"output":14
				},
				{
					"input":11,
					"interpolation":"STEP",
					"output":98
				},
				{
					"input":16,
					"interpolation":"LINEAR",
					"output":99
				},
				{
					"input":11,
					"interpolation":"STEP",
					"output":100
				},
				{
					"input":11,
					"interpolation":"STEP",
					"output":101
				},
				{
					"input":11,
					"interpolation":"STEP",
					"output":102
				},
				{
					"input":11,
					"interpolation":"STEP",
					"output":103
				},
				{
					"input":11,
					"interpolation":"STEP",
					"output":104
				},
				{
					"input":11,
					"interpolation":"STEP",
					"output":105
				},
				{
					"input":11,
					"interpolation":"STEP",
					"output":106
				},
				{
					"input":11,
					"interpolation":"STEP",
					"output":107
				},
				{
					"input":16,
					"interpolation":"LINEAR",
					"output":108
				},
				{
					"input":11,
					"interpolation":"STEP",
					"output":109
				},
				{
					"input":11,
					"interpolation":"STEP",
					"output":110
				},
				{
					"input":11,
					"interpolation":"STEP",
					"output":111
				},
				{
					"input":11,
					"interpolation":"STEP",
					"output":112
				},
				{
					"input":11,
					"interpolation":"STEP",
					"output":113
				},
				{
					"input":11,
					"interpolation":"STEP",
					"output":114
				},
				{
					"input":11,
					"interpolation":"STEP",
					"output":115
				},
				{
					"input":11,
					"interpolation":"STEP",
					"output":116
				},
				{
					"input":16,
					"interpolation":"LINEAR",
					"output":117
				},
				{
					"input":11,
					"interpolation":"STEP",
					"output":44
				},
				{
					"input":11,
					"interpolation":"STEP",
					"output":118
				},
				{
					"input":16,
					"interpolation":"LINEAR",
					"output":119
				},
				{
					"input":11,
					"interpolation":"STEP",
					"output":47
				},
				{
					"input":11,
					"interpolation":"STEP",
					"output":120
				},
				{
					"input":16,
					"interpolation":"LINEAR",
					"output":121
				},
				{
					"input":11,
					"interpolation":"STEP",
					"output":50
				},
				{
					"input":11,
					"interpolation":"STEP",
					"output":122
				},
				{
					"input":16,
					"interpolation":"LINEAR",
					"output":123
				},
				{
					"input":11,
					"interpolation":"STEP",
					"output":44
				},
				{
					"input":11,
					"interpolation":"STEP",
					"output":124
				},
				{
					"input":16,
					"interpolation":"LINEAR",
					"output":125
				},
				{
					"input":11,
					"interpolation":"STEP",
					"output":47
				},
				{
					"input":11,
					"interpolation":"STEP",
					"output":126
				},
				{
					"input":16,
					"interpolation":"LINEAR",
					"output":127
				},
				{
					"input":11,
					"interpolation":"STEP",
					"output":84
				}
			]
		}
	],
	"materials":[
		{
			"doubleSided":true,
			"name":"Daemonenfuerst",
			"pbrMetallicRoughness":{
				"metallicFactor":0,
				"roughnessFactor":0.8500000238418579
			}
		}
	],
	"meshes":[
		{
			"name":"Bein",
			"primitives":[
				{
					"attributes":{
						"POSITION":0,
						"NORMAL":1,
						"COLOR_0":2,
						"JOINTS_0":3,
						"WEIGHTS_0":4
					},
					"indices":5,
					"material":0
				}
			]
		},
		{
			"name":"Flammenschwert",
			"primitives":[
				{
					"attributes":{
						"POSITION":7,
						"NORMAL":8,
						"COLOR_0":9
					},
					"indices":10,
					"material":0
				}
			]
		}
	],
	"skins":[
		{
			"inverseBindMatrices":6,
			"joints":[
				18,
				11,
				10,
				2,
				1,
				0,
				5,
				4,
				3,
				9,
				8,
				7,
				14,
				13,
				12,
				17,
				16,
				15
			],
			"name":"DaemonenfuerstSkelett"
		}
	],
	"accessors":[
		{
			"bufferView":0,
			"componentType":5126,
			"count":8784,
			"max":[
				2.7757644653320312,
				5.074802398681641,
				0.5284249782562256
			],
			"min":[
				-2.7757644653320312,
				-0.019999999552965164,
				-2.258821725845337
			],
			"type":"VEC3"
		},
		{
			"bufferView":1,
			"componentType":5126,
			"count":8784,
			"type":"VEC3"
		},
		{
			"bufferView":2,
			"componentType":5126,
			"count":8784,
			"type":"VEC3"
		},
		{
			"bufferView":3,
			"componentType":5121,
			"count":8784,
			"type":"VEC4"
		},
		{
			"bufferView":4,
			"componentType":5126,
			"count":8784,
			"type":"VEC4"
		},
		{
			"bufferView":5,
			"componentType":5123,
			"count":12720,
			"type":"SCALAR"
		},
		{
			"bufferView":6,
			"componentType":5126,
			"count":18,
			"type":"MAT4"
		},
		{
			"bufferView":7,
			"componentType":5126,
			"count":114,
			"max":[
				-0.5519999861717224,
				2.3468575477600098,
				1.8363405466079712
			],
			"min":[
				-1.149999976158142,
				-0.014879033900797367,
				-0.05904806777834892
			],
			"type":"VEC3"
		},
		{
			"bufferView":8,
			"componentType":5126,
			"count":114,
			"type":"VEC3"
		},
		{
			"bufferView":9,
			"componentType":5126,
			"count":114,
			"type":"VEC3"
		},
		{
			"bufferView":10,
			"componentType":5123,
			"count":174,
			"type":"SCALAR"
		},
		{
			"bufferView":11,
			"componentType":5126,
			"count":2,
			"max":[
				1
			],
			"min":[
				0
			],
			"type":"SCALAR"
		},
		{
			"bufferView":12,
			"componentType":5126,
			"count":2,
			"type":"VEC3"
		},
		{
			"bufferView":13,
			"componentType":5126,
			"count":2,
			"type":"VEC4"
		},
		{
			"bufferView":14,
			"componentType":5126,
			"count":2,
			"type":"VEC3"
		},
		{
			"bufferView":15,
			"componentType":5126,
			"count":2,
			"type":"VEC3"
		},
		{
			"bufferView":16,
			"componentType":5126,
			"count":31,
			"max":[
				1
			],
			"min":[
				0
			],
			"type":"SCALAR"
		},
		{
			"bufferView":17,
			"componentType":5126,
			"count":31,
			"type":"VEC4"
		},
		{
			"bufferView":18,
			"componentType":5126,
			"count":2,
			"type":"VEC3"
		},
		{
			"bufferView":19,
			"componentType":5126,
			"count":31,
			"type":"VEC4"
		},
		{
			"bufferView":20,
			"componentType":5126,
			"count":2,
			"type":"VEC3"
		},
		{
			"bufferView":21,
			"componentType":5126,
			"count":2,
			"type":"VEC3"
		},
		{
			"bufferView":22,
			"componentType":5126,
			"count":2,
			"type":"VEC3"
		},
		{
			"bufferView":23,
			"componentType":5126,
			"count":2,
			"type":"VEC4"
		},
		{
			"bufferView":24,
			"componentType":5126,
			"count":2,
			"type":"VEC3"
		},
		{
			"bufferView":25,
			"componentType":5126,
			"count":2,
			"type":"VEC4"
		},
		{
			"bufferView":26,
			"componentType":5126,
			"count":2,
			"type":"VEC3"
		},
		{
			"bufferView":27,
			"componentType":5126,
			"count":2,
			"type":"VEC3"
		},
		{
			"bufferView":28,
			"componentType":5126,
			"count":2,
			"type":"VEC4"
		},
		{
			"bufferView":29,
			"componentType":5126,
			"count":2,
			"type":"VEC3"
		},
		{
			"bufferView":30,
			"componentType":5126,
			"count":2,
			"type":"VEC3"
		},
		{
			"bufferView":31,
			"componentType":5126,
			"count":2,
			"type":"VEC4"
		},
		{
			"bufferView":32,
			"componentType":5126,
			"count":2,
			"type":"VEC3"
		},
		{
			"bufferView":33,
			"componentType":5126,
			"count":2,
			"type":"VEC3"
		},
		{
			"bufferView":34,
			"componentType":5126,
			"count":31,
			"type":"VEC4"
		},
		{
			"bufferView":35,
			"componentType":5126,
			"count":2,
			"type":"VEC3"
		},
		{
			"bufferView":36,
			"componentType":5126,
			"count":2,
			"type":"VEC3"
		},
		{
			"bufferView":37,
			"componentType":5126,
			"count":31,
			"type":"VEC4"
		},
		{
			"bufferView":38,
			"componentType":5126,
			"count":2,
			"type":"VEC3"
		},
		{
			"bufferView":39,
			"componentType":5126,
			"count":2,
			"type":"VEC3"
		},
		{
			"bufferView":40,
			"componentType":5126,
			"count":2,
			"type":"VEC4"
		},
		{
			"bufferView":41,
			"componentType":5126,
			"count":2,
			"type":"VEC3"
		},
		{
			"bufferView":42,
			"componentType":5126,
			"count":2,
			"type":"VEC3"
		},
		{
			"bufferView":43,
			"componentType":5126,
			"count":31,
			"type":"VEC4"
		},
		{
			"bufferView":44,
			"componentType":5126,
			"count":2,
			"type":"VEC3"
		},
		{
			"bufferView":45,
			"componentType":5126,
			"count":2,
			"type":"VEC3"
		},
		{
			"bufferView":46,
			"componentType":5126,
			"count":31,
			"type":"VEC4"
		},
		{
			"bufferView":47,
			"componentType":5126,
			"count":2,
			"type":"VEC3"
		},
		{
			"bufferView":48,
			"componentType":5126,
			"count":2,
			"type":"VEC3"
		},
		{
			"bufferView":49,
			"componentType":5126,
			"count":2,
			"type":"VEC4"
		},
		{
			"bufferView":50,
			"componentType":5126,
			"count":2,
			"type":"VEC3"
		},
		{
			"bufferView":51,
			"componentType":5126,
			"count":2,
			"type":"VEC3"
		},
		{
			"bufferView":52,
			"componentType":5126,
			"count":31,
			"type":"VEC4"
		},
		{
			"bufferView":53,
			"componentType":5126,
			"count":2,
			"type":"VEC3"
		},
		{
			"bufferView":54,
			"componentType":5126,
			"count":2,
			"type":"VEC3"
		},
		{
			"bufferView":55,
			"componentType":5126,
			"count":31,
			"type":"VEC4"
		},
		{
			"bufferView":56,
			"componentType":5126,
			"count":2,
			"type":"VEC3"
		},
		{
			"bufferView":57,
			"componentType":5126,
			"count":2,
			"type":"VEC4"
		},
		{
			"bufferView":58,
			"componentType":5126,
			"count":181,
			"max":[
				6
			],
			"min":[
				0
			],
			"type":"SCALAR"
		},
		{
			"bufferView":59,
			"componentType":5126,
			"count":181,
			"type":"VEC3"
		},
		{
			"bufferView":60,
			"componentType":5126,
			"count":2,
			"max":[
				6
			],
			"min":[
				0
			],
			"type":"SCALAR"
		},
		{
			"bufferView":61,
			"componentType":5126,
			"count":181,
			"type":"VEC4"
		},
		{
			"bufferView":62,
			"componentType":5126,
			"count":181,
			"type":"VEC4"
		},
		{
			"bufferView":63,
			"componentType":5126,
			"count":181,
			"type":"VEC4"
		},
		{
			"bufferView":64,
			"componentType":5126,
			"count":2,
			"type":"VEC3"
		},
		{
			"bufferView":65,
			"componentType":5126,
			"count":181,
			"type":"VEC4"
		},
		{
			"bufferView":66,
			"componentType":5126,
			"count":2,
			"type":"VEC3"
		},
		{
			"bufferView":67,
			"componentType":5126,
			"count":2,
			"type":"VEC3"
		},
		{
			"bufferView":68,
			"componentType":5126,
			"count":2,
			"type":"VEC4"
		},
		{
			"bufferView":69,
			"componentType":5126,
			"count":2,
			"type":"VEC3"
		},
		{
			"bufferView":70,
			"componentType":5126,
			"count":2,
			"type":"VEC3"
		},
		{
			"bufferView":71,
			"componentType":5126,
			"count":2,
			"type":"VEC4"
		},
		{
			"bufferView":72,
			"componentType":5126,
			"count":2,
			"type":"VEC3"
		},
		{
			"bufferView":73,
			"componentType":5126,
			"count":2,
			"type":"VEC4"
		},
		{
			"bufferView":74,
			"componentType":5126,
			"count":2,
			"type":"VEC3"
		},
		{
			"bufferView":75,
			"componentType":5126,
			"count":2,
			"type":"VEC4"
		},
		{
			"bufferView":76,
			"componentType":5126,
			"count":2,
			"type":"VEC3"
		},
		{
			"bufferView":77,
			"componentType":5126,
			"count":2,
			"type":"VEC3"
		},
		{
			"bufferView":78,
			"componentType":5126,
			"count":2,
			"type":"VEC4"
		},
		{
			"bufferView":79,
			"componentType":5126,
			"count":2,
			"type":"VEC4"
		},
		{
			"bufferView":80,
			"componentType":5126,
			"count":2,
			"type":"VEC3"
		},
		{
			"bufferView":81,
			"componentType":5126,
			"count":2,
			"type":"VEC4"
		},
		{
			"bufferView":82,
			"componentType":5126,
			"count":2,
			"type":"VEC3"
		},
		{
			"bufferView":83,
			"componentType":5126,
			"count":2,
			"type":"VEC4"
		},
		{
			"bufferView":84,
			"componentType":5126,
			"count":2,
			"type":"VEC3"
		},
		{
			"bufferView":85,
			"componentType":5126,
			"count":2,
			"type":"VEC3"
		},
		{
			"bufferView":86,
			"componentType":5126,
			"count":2,
			"type":"VEC3"
		},
		{
			"bufferView":87,
			"componentType":5126,
			"count":31,
			"type":"VEC3"
		},
		{
			"bufferView":88,
			"componentType":5126,
			"count":31,
			"type":"VEC4"
		},
		{
			"bufferView":89,
			"componentType":5126,
			"count":2,
			"type":"VEC4"
		},
		{
			"bufferView":90,
			"componentType":5126,
			"count":2,
			"type":"VEC3"
		},
		{
			"bufferView":91,
			"componentType":5126,
			"count":31,
			"type":"VEC4"
		},
		{
			"bufferView":92,
			"componentType":5126,
			"count":2,
			"type":"VEC3"
		},
		{
			"bufferView":93,
			"componentType":5126,
			"count":2,
			"type":"VEC3"
		},
		{
			"bufferView":94,
			"componentType":5126,
			"count":2,
			"type":"VEC3"
		},
		{
			"bufferView":95,
			"componentType":5126,
			"count":31,
			"type":"VEC4"
		},
		{
			"bufferView":96,
			"componentType":5126,
			"count":2,
			"type":"VEC3"
		},
		{
			"bufferView":97,
			"componentType":5126,
			"count":31,
			"type":"VEC4"
		},
		{
			"bufferView":98,
			"componentType":5126,
			"count":2,
			"type":"VEC3"
		},
		{
			"bufferView":99,
			"componentType":5126,
			"count":31,
			"type":"VEC4"
		},
		{
			"bufferView":100,
			"componentType":5126,
			"count":2,
			"type":"VEC3"
		},
		{
			"bufferView":101,
			"componentType":5126,
			"count":2,
			"type":"VEC3"
		},
		{
			"bufferView":102,
			"componentType":5126,
			"count":2,
			"type":"VEC4"
		},
		{
			"bufferView":103,
			"componentType":5126,
			"count":2,
			"type":"VEC3"
		},
		{
			"bufferView":104,
			"componentType":5126,
			"count":2,
			"type":"VEC3"
		},
		{
			"bufferView":105,
			"componentType":5126,
			"count":2,
			"type":"VEC4"
		},
		{
			"bufferView":106,
			"componentType":5126,
			"count":2,
			"type":"VEC3"
		},
		{
			"bufferView":107,
			"componentType":5126,
			"count":2,
			"type":"VEC3"
		},
		{
			"bufferView":108,
			"componentType":5126,
			"count":31,
			"type":"VEC4"
		},
		{
			"bufferView":109,
			"componentType":5126,
			"count":2,
			"type":"VEC3"
		},
		{
			"bufferView":110,
			"componentType":5126,
			"count":2,
			"type":"VEC3"
		},
		{
			"bufferView":111,
			"componentType":5126,
			"count":2,
			"type":"VEC4"
		},
		{
			"bufferView":112,
			"componentType":5126,
			"count":2,
			"type":"VEC3"
		},
		{
			"bufferView":113,
			"componentType":5126,
			"count":2,
			"type":"VEC3"
		},
		{
			"bufferView":114,
			"componentType":5126,
			"count":2,
			"type":"VEC4"
		},
		{
			"bufferView":115,
			"componentType":5126,
			"count":2,
			"type":"VEC3"
		},
		{
			"bufferView":116,
			"componentType":5126,
			"count":2,
			"type":"VEC3"
		},
		{
			"bufferView":117,
			"componentType":5126,
			"count":31,
			"type":"VEC4"
		},
		{
			"bufferView":118,
			"componentType":5126,
			"count":2,
			"type":"VEC3"
		},
		{
			"bufferView":119,
			"componentType":5126,
			"count":31,
			"type":"VEC4"
		},
		{
			"bufferView":120,
			"componentType":5126,
			"count":2,
			"type":"VEC3"
		},
		{
			"bufferView":121,
			"componentType":5126,
			"count":31,
			"type":"VEC4"
		},
		{
			"bufferView":122,
			"componentType":5126,
			"count":2,
			"type":"VEC3"
		},
		{
			"bufferView":123,
			"componentType":5126,
			"count":31,
			"type":"VEC4"
		},
		{
			"bufferView":124,
			"componentType":5126,
			"count":2,
			"type":"VEC3"
		},
		{
			"bufferView":125,
			"componentType":5126,
			"count":31,
			"type":"VEC4"
		},
		{
			"bufferView":126,
			"componentType":5126,
			"count":2,
			"type":"VEC3"
		},
		{
			"bufferView":127,
			"componentType":5126,
			"count":31,
			"type":"VEC4"
		}
	],
	"bufferViews":[
		{
			"buffer":0,
			"byteLength":105408,
			"byteOffset":0,
			"target":34962
		},
		{
			"buffer":0,
			"byteLength":105408,
			"byteOffset":105408,
			"target":34962
		},
		{
			"buffer":0,
			"byteLength":105408,
			"byteOffset":210816,
			"target":34962
		},
		{
			"buffer":0,
			"byteLength":35136,
			"byteOffset":316224,
			"target":34962
		},
		{
			"buffer":0,
			"byteLength":140544,
			"byteOffset":351360,
			"target":34962
		},
		{
			"buffer":0,
			"byteLength":25440,
			"byteOffset":491904,
			"target":34963
		},
		{
			"buffer":0,
			"byteLength":1152,
			"byteOffset":517344
		},
		{
			"buffer":0,
			"byteLength":1368,
			"byteOffset":518496,
			"target":34962
		},
		{
			"buffer":0,
			"byteLength":1368,
			"byteOffset":519864,
			"target":34962
		},
		{
			"buffer":0,
			"byteLength":1368,
			"byteOffset":521232,
			"target":34962
		},
		{
			"buffer":0,
			"byteLength":348,
			"byteOffset":522600,
			"target":34963
		},
		{
			"buffer":0,
			"byteLength":8,
			"byteOffset":522948
		},
		{
			"buffer":0,
			"byteLength":24,
			"byteOffset":522956
		},
		{
			"buffer":0,
			"byteLength":32,
			"byteOffset":522980
		},
		{
			"buffer":0,
			"byteLength":24,
			"byteOffset":523012
		},
		{
			"buffer":0,
			"byteLength":24,
			"byteOffset":523036
		},
		{
			"buffer":0,
			"byteLength":124,
			"byteOffset":523060
		},
		{
			"buffer":0,
			"byteLength":496,
			"byteOffset":523184
		},
		{
			"buffer":0,
			"byteLength":24,
			"byteOffset":523680
		},
		{
			"buffer":0,
			"byteLength":496,
			"byteOffset":523704
		},
		{
			"buffer":0,
			"byteLength":24,
			"byteOffset":524200
		},
		{
			"buffer":0,
			"byteLength":24,
			"byteOffset":524224
		},
		{
			"buffer":0,
			"byteLength":24,
			"byteOffset":524248
		},
		{
			"buffer":0,
			"byteLength":32,
			"byteOffset":524272
		},
		{
			"buffer":0,
			"byteLength":24,
			"byteOffset":524304
		},
		{
			"buffer":0,
			"byteLength":32,
			"byteOffset":524328
		},
		{
			"buffer":0,
			"byteLength":24,
			"byteOffset":524360
		},
		{
			"buffer":0,
			"byteLength":24,
			"byteOffset":524384
		},
		{
			"buffer":0,
			"byteLength":32,
			"byteOffset":524408
		},
		{
			"buffer":0,
			"byteLength":24,
			"byteOffset":524440
		},
		{
			"buffer":0,
			"byteLength":24,
			"byteOffset":524464
		},
		{
			"buffer":0,
			"byteLength":32,
			"byteOffset":524488
		},
		{
			"buffer":0,
			"byteLength":24,
			"byteOffset":524520
		},
		{
			"buffer":0,
			"byteLength":24,
			"byteOffset":524544
		},
		{
			"buffer":0,
			"byteLength":496,
			"byteOffset":524568
		},
		{
			"buffer":0,
			"byteLength":24,
			"byteOffset":525064
		},
		{
			"buffer":0,
			"byteLength":24,
			"byteOffset":525088
		},
		{
			"buffer":0,
			"byteLength":496,
			"byteOffset":525112
		},
		{
			"buffer":0,
			"byteLength":24,
			"byteOffset":525608
		},
		{
			"buffer":0,
			"byteLength":24,
			"byteOffset":525632
		},
		{
			"buffer":0,
			"byteLength":32,
			"byteOffset":525656
		},
		{
			"buffer":0,
			"byteLength":24,
			"byteOffset":525688
		},
		{
			"buffer":0,
			"byteLength":24,
			"byteOffset":525712
		},
		{
			"buffer":0,
			"byteLength":496,
			"byteOffset":525736
		},
		{
			"buffer":0,
			"byteLength":24,
			"byteOffset":526232
		},
		{
			"buffer":0,
			"byteLength":24,
			"byteOffset":526256
		},
		{
			"buffer":0,
			"byteLength":496,
			"byteOffset":526280
		},
		{
			"buffer":0,
			"byteLength":24,
			"byteOffset":526776
		},
		{
			"buffer":0,
			"byteLength":24,
			"byteOffset":526800
		},
		{
			"buffer":0,
			"byteLength":32,
			"byteOffset":526824
		},
		{
			"buffer":0,
			"byteLength":24,
			"byteOffset":526856
		},
		{
			"buffer":0,
			"byteLength":24,
			"byteOffset":526880
		},
		{
			"buffer":0,
			"byteLength":496,
			"byteOffset":526904
		},
		{
			"buffer":0,
			"byteLength":24,
			"byteOffset":527400
		},
		{
			"buffer":0,
			"byteLength":24,
			"byteOffset":527424
		},
		{
			"buffer":0,
			"byteLength":496,
			"byteOffset":527448
		},
		{
			"buffer":0,
			"byteLength":24,
			"byteOffset":527944
		},
		{
			"buffer":0,
			"byteLength":32,
			"byteOffset":527968
		},
		{
			"buffer":0,
			"byteLength":724,
			"byteOffset":528000
		},
		{
			"buffer":0,
			"byteLength":2172,
			"byteOffset":528724
		},
		{
			"buffer":0,
			"byteLength":8,
			"byteOffset":530896
		},
		{
			"buffer":0,
			"byteLength":2896,
			"byteOffset":530904
		},
		{
			"buffer":0,
			"byteLength":2896,
			"byteOffset":533800
		},
		{
			"buffer":0,
			"byteLength":2896,
			"byteOffset":536696
		},
		{
			"buffer":0,
			"byteLength":24,
			"byteOffset":539592
		},
		{
			"buffer":0,
			"byteLength":2896,
			"byteOffset":539616
		},
		{
			"buffer":0,
			"byteLength":24,
			"byteOffset":542512
		},
		{
			"buffer":0,
			"byteLength":24,
			"byteOffset":542536
		},
		{
			"buffer":0,
			"byteLength":32,
			"byteOffset":542560
		},
		{
			"buffer":0,
			"byteLength":24,
			"byteOffset":542592
		},
		{
			"buffer":0,
			"byteLength":24,
			"byteOffset":542616
		},
		{
			"buffer":0,
			"byteLength":32,
			"byteOffset":542640
		},
		{
			"buffer":0,
			"byteLength":24,
			"byteOffset":542672
		},
		{
			"buffer":0,
			"byteLength":32,
			"byteOffset":542696
		},
		{
			"buffer":0,
			"byteLength":24,
			"byteOffset":542728
		},
		{
			"buffer":0,
			"byteLength":32,
			"byteOffset":542752
		},
		{
			"buffer":0,
			"byteLength":24,
			"byteOffset":542784
		},
		{
			"buffer":0,
			"byteLength":24,
			"byteOffset":542808
		},
		{
			"buffer":0,
			"byteLength":32,
			"byteOffset":542832
		},
		{
			"buffer":0,
			"byteLength":32,
			"byteOffset":542864
		},
		{
			"buffer":0,
			"byteLength":24,
			"byteOffset":542896
		},
		{
			"buffer":0,
			"byteLength":32,
			"byteOffset":542920
		},
		{
			"buffer":0,
			"byteLength":24,
			"byteOffset":542952
		},
		{
			"buffer":0,
			"byteLength":32,
			"byteOffset":542976
		},
		{
			"buffer":0,
			"byteLength":24,
			"byteOffset":543008
		},
		{
			"buffer":0,
			"byteLength":24,
			"byteOffset":543032
		},
		{
			"buffer":0,
			"byteLength":24,
			"byteOffset":543056
		},
		{
			"buffer":0,
			"byteLength":372,
			"byteOffset":543080
		},
		{
			"buffer":0,
			"byteLength":496,
			"byteOffset":543452
		},
		{
			"buffer":0,
			"byteLength":32,
			"byteOffset":543948
		},
		{
			"buffer":0,
			"byteLength":24,
			"byteOffset":543980
		},
		{
			"buffer":0,
			"byteLength":496,
			"byteOffset":544004
		},
		{
			"buffer":0,
			"byteLength":24,
			"byteOffset":544500
		},
		{
			"buffer":0,
			"byteLength":24,
			"byteOffset":544524
		},
		{
			"buffer":0,
			"byteLength":24,
			"byteOffset":544548
		},
		{
			"buffer":0,
			"byteLength":496,
			"byteOffset":544572
		},
		{
			"buffer":0,
			"byteLength":24,
			"byteOffset":545068
		},
		{
			"buffer":0,
			"byteLength":496,
			"byteOffset":545092
		},
		{
			"buffer":0,
			"byteLength":24,
			"byteOffset":545588
		},
		{
			"buffer":0,
			"byteLength":496,
			"byteOffset":545612
		},
		{
			"buffer":0,
			"byteLength":24,
			"byteOffset":546108
		},
		{
			"buffer":0,
			"byteLength":24,
			"byteOffset":546132
		},
		{
			"buffer":0,
			"byteLength":32,
			"byteOffset":546156
		},
		{
			"buffer":0,
			"byteLength":24,
			"byteOffset":546188
		},
		{
			"buffer":0,
			"byteLength":24,
			"byteOffset":546212
		},
		{
			"buffer":0,
			"byteLength":32,
			"byteOffset":546236
		},
		{
			"buffer":0,
			"byteLength":24,
			"byteOffset":546268
		},
		{
			"buffer":0,
			"byteLength":24,
			"byteOffset":546292
		},
		{
			"buffer":0,
			"byteLength":496,
			"byteOffset":546316
		},
		{
			"buffer":0,
			"byteLength":24,
			"byteOffset":546812
		},
		{
			"buffer":0,
			"byteLength":24,
			"byteOffset":546836
		},
		{
			"buffer":0,
			"byteLength":32,
			"byteOffset":546860
		},
		{
			"buffer":0,
			"byteLength":24,
			"byteOffset":546892
		},
		{
			"buffer":0,
			"byteLength":24,
			"byteOffset":546916
		},
		{
			"buffer":0,
			"byteLength":32,
			"byteOffset":546940
		},
		{
			"buffer":0,
			"byteLength":24,
			"byteOffset":546972
		},
		{
			"buffer":0,
			"byteLength":24,
			"byteOffset":546996
		},
		{
			"buffer":0,
			"byteLength":496,
			"byteOffset":547020
		},
		{
			"buffer":0,
			"byteLength":24,
			"byteOffset":547516
		},
		{
			"buffer":0,
			"byteLength":496,
			"byteOffset":547540
		},
		{
			"buffer":0,
			"byteLength":24,
			"byteOffset":548036
		},
		{
			"buffer":0,
			"byteLength":496,
			"byteOffset":548060
		},
		{
			"buffer":0,
			"byteLength":24,
			"byteOffset":548556
		},
		{
			"buffer":0,
			"byteLength":496,
			"byteOffset":548580
		},
		{
			"buffer":0,
			"byteLength":24,
			"byteOffset":549076
		},
		{
			"buffer":0,
			"byteLength":496,
			"byteOffset":549100
		},
		{
			"buffer":0,
			"byteLength":24,
			"byteOffset":549596
		},
		{
			"buffer":0,
			"byteLength":496,
			"byteOffset":549620
		}
	],
	"buffers":[
		{
			"byteLength":550116,
			"uri":"daemonenfuerst.bin"
		}
	]
}
