{
	"asset":{
		"generator":"Khronos glTF Blender I/O v5.2.40",
		"version":"2.0"
	},
	"scene":0,
	"scenes":[
		{
			"name":"Scene",
			"nodes":[
				21
			]
		}
	],
	"nodes":[
		{
			"name":"Hut",
			"rotation":[
				-0.49269899725914,
				1.4670467862742953e-07,
				-8.306282950343302e-08,
				0.8701998591423035
			],
			"scale":[
				1,
				0.9999998807907104,
				0.9999999403953552
			],
			"translation":[
				0,
				0.2900000810623169,
				-0.019999999552965164
			]
		},
		{
			"children":[
				0
			],
			"name":"Kopf",
			"translation":[
				0,
				0.09000003337860107,
				0
			]
		},
		{
			"children":[
				1
			],
			"name":"Hals",
			"translation":[
				0,
				0.25999999046325684,
				0
			]
		},
		{
			"name":"Hand.L",
			"rotation":[
				-0.02993539348244667,
				-0.0012853139778599143,
				0.008676200173795223,
				0.9995133876800537
			],
			"scale":[
				1,
				0.9999998807907104,
				1
			],
			"translation":[
				-2.9709189774962397e-08,
				0.2567099928855896,
				-2.7939677238464355e-09
			]
		},
		{
			"mesh":1,
			"name":"Schild",
			"rotation":[
				-0.9934272170066833,
				-0.09836863726377487,
				-0.005767595488578081,
				0.05824718251824379
			],
			"scale":[
				1.0000001192092896,
				1,
				0.9999999403953552
			],
			"translation":[
				-0.5236302018165588,
				1.1339648962020874,
				0.1132953092455864
			]
		},
		{
			"children":[
				3,
				4
			],
			"name":"Unterarm.L",
			"rotation":[
				-0.09223336726427078,
				-0.0013973830500617623,
				0.056753627955913544,
				0.9941177368164062
			],
			"scale":[
				1,
				0.9999999403953552,
				1
			],
			"translation":[
				-6.705523913907996e-10,
				0.2947879731655121,
				-4.656612873077393e-10
			]
		},
		{
			"children":[
				5
			],
			"name":"Oberarm.L",
			"rotation":[
				-0.9873651266098022,
				-0.15478397905826569,
				0.0052567459642887115,
				0.03353271260857582
			],
			"scale":[
				0.9999997615814209,
				0.9999998211860657,
				1
			],
			"translation":[
				0.20000000298023224,
				0.20000004768371582,
				0
			]
		},
		{
			"mesh":2,
			"name":"Schwert",
			"rotation":[
				-0.9920610189437866,
				0.08945408463478088,
				0.007937991060316563,
				0.08803384751081467
			],
			"scale":[
				1.0000001192092896,
				1.000000238418579,
				1
			],
			"translation":[
				0.508034884929657,
				0.877810001373291,
				0.16718614101409912
			]
		},
		{
			"children":[
				7
			],
			"name":"Hand.R",
			"rotation":[
				-0.02993539348244667,
				0.0012853139778599143,
				-0.008676200173795223,
				0.9995133876800537
			],
			"scale":[
				1,
				0.9999998807907104,
				1
			],
			"translation":[
				2.9709189774962397e-08,
				0.2567099928855896,
				-2.7939677238464355e-09
			]
		},
		{
			"children":[
				8
			],
			"name":"Unterarm.R",
			"rotation":[
				-0.09223336726427078,
				0.0013973830500617623,
				-0.056753627955913544,
				0.9941177368164062
			],
			"scale":[
				1,
				0.9999999403953552,
				1
			],
			"translation":[
				6.705523913907996e-10,
				0.2947879731655121,
				-4.656612873077393e-10
			]
		},
		{
			"children":[
				9
			],
			"name":"Oberarm.R",
			"rotation":[
				-0.9873651266098022,
				0.15478397905826569,
				-0.0052567459642887115,
				0.03353271260857582
			],
			"scale":[
				0.9999997615814209,
				0.9999998211860657,
				1
			],
			"translation":[
				-0.20000000298023224,
				0.20000004768371582,
				0
			]
		},
		{
			"children":[
				2,
				6,
				10
			],
			"name":"Brust",
			"translation":[
				0,
				0.19999992847442627,
				0
			]
		},
		{
			"children":[
				11
			],
			"name":"Bauch",
			"translation":[
				0,
				0.15000003576278687,
				0
			]
		},
		{
			"name":"Fuss.L",
			"rotation":[
				1.1095015572948341e-08,
				0.8304529190063477,
				-0.5570888519287109,
				6.26974596684704e-08
			],
			"scale":[
				1,
				0.9999998807907104,
				0.9999998807907104
			],
			"translation":[
				-2.35995756270313e-09,
				0.42047592997550964,
				1.1594929461011816e-09
			]
		},
		{
			"children":[
				13
			],
			"name":"Unterschenkel.L",
			"rotation":[
				0.023789310827851295,
				9.13925006784666e-08,
				9.505255610386953e-11,
				0.9997169971466064
			],
			"scale":[
				1,
				0.9999999403953552,
				1
			],
			"translation":[
				0,
				0.4300000071525574,
				0
			]
		},
		{
			"children":[
				14
			],
			"name":"Oberschenkel.L",
			"rotation":[
				1,
				0,
				-4.371138828673793e-08,
				0
			],
			"translation":[
				0.10000000149011612,
				0,
				0
			]
		},
		{
			"name":"Fuss.R",
			"rotation":[
				1.1095015572948341e-08,
				0.8304529190063477,
				-0.5570888519287109,
				6.26974596684704e-08
			],
			"scale":[
				1,
				0.9999998807907104,
				0.9999998807907104
			],
			"translation":[
				-2.35995756270313e-09,
				0.42047592997550964,
				7.031522031297754e-10
			]
		},
		{
			"children":[
				16
			],
			"name":"Unterschenkel.R",
			"rotation":[
				0.023789310827851295,
				9.13925006784666e-08,
				9.505255610386953e-11,
				0.9997169971466064
			],
			"scale":[
				1,
				0.9999999403953552,
				1
			],
			"translation":[
				0,
				0.4300000071525574,
				0
			]
		},
		{
			"children":[
				17
			],
			"name":"Oberschenkel.R",
			"rotation":[
				1,
				0,
				-4.371138828673793e-08,
				0
			],
			"translation":[
				-0.10000000149011612,
				0,
				0
			]
		},
		{
			"children":[
				12,
				15,
				18
			],
			"name":"Becken",
			"translation":[
				0,
				0.949999988079071,
				0
			]
		},
		{
			"mesh":0,
			"name":"DunklerRitter",
			"skin":0
		},
		{
			"children":[
				20,
				19
			],
			"name":"DunklerRitterSkelett"
		}
	],
	"animations":[
		{
			"channels":[
				{
					"sampler":0,
					"target":{
						"node":19,
						"path":"translation"
					}
				},
				{
					"sampler":1,
					"target":{
						"node":19,
						"path":"rotation"
					}
				},
				{
					"sampler":2,
					"target":{
						"node":19,
						"path":"scale"
					}
				},
				{
					"sampler":3,
					"target":{
						"node":12,
						"path":"translation"
					}
				},
				{
					"sampler":4,
					"target":{
						"node":12,
						"path":"rotation"
					}
				},
				{
					"sampler":5,
					"target":{
						"node":12,
						"path":"scale"
					}
				},
				{
					"sampler":6,
					"target":{
						"node":11,
						"path":"translation"
					}
				},
				{
					"sampler":7,
					"target":{
						"node":11,
						"path":"rotation"
					}
				},
				{
					"sampler":8,
					"target":{
						"node":11,
						"path":"scale"
					}
				},
				{
					"sampler":9,
					"target":{
						"node":2,
						"path":"translation"
					}
				},
				{
					"sampler":10,
					"target":{
						"node":2,
						"path":"rotation"
					}
				},
				{
					"sampler":11,
					"target":{
						"node":2,
						"path":"scale"
					}
				},
				{
					"sampler":12,
					"target":{
						"node":1,
						"path":"translation"
					}
				},
				{
					"sampler":13,
					"target":{
						"node":1,
						"path":"rotation"
					}
				},
				{
					"sampler":14,
					"target":{
						"node":1,
						"path":"scale"
					}
				},
				{
					"sampler":15,
					"target":{
						"node":0,
						"path":"translation"
					}
				},
				{
					"sampler":16,
					"target":{
						"node":0,
						"path":"rotation"
					}
				},
				{
					"sampler":17,
					"target":{
						"node":0,
						"path":"scale"
					}
				},
				{
					"sampler":18,
					"target":{
						"node":6,
						"path":"translation"
					}
				},
				{
					"sampler":19,
					"target":{
						"node":6,
						"path":"rotation"
					}
				},
				{
					"sampler":20,
					"target":{
						"node":6,
						"path":"scale"
					}
				},
				{
					"sampler":21,
					"target":{
						"node":5,
						"path":"translation"
					}
				},
				{
					"sampler":22,
					"target":{
						"node":5,
						"path":"rotation"
					}
				},
				{
					"sampler":23,
					"target":{
						"node":5,
						"path":"scale"
					}
				},
				{
					"sampler":24,
					"target":{
						"node":3,
						"path":"translation"
					}
				},
				{
					"sampler":25,
					"target":{
						"node":3,
						"path":"rotation"
					}
				},
				{
					"sampler":26,
					"target":{
						"node":3,
						"path":"scale"
					}
				},
				{
					"sampler":27,
					"target":{
						"node":10,
						"path":"translation"
					}
				},
				{
					"sampler":28,
					"target":{
						"node":10,
						"path":"rotation"
					}
				},
				{
					"sampler":29,
					"target":{
						"node":10,
						"path":"scale"
					}
				},
				{
					"sampler":30,
					"target":{
						"node":9,
						"path":"translation"
					}
				},
				{
					"sampler":31,
					"target":{
						"node":9,
						"path":"rotation"
					}
				},
				{
					"sampler":32,
					"target":{
						"node":9,
						"path":"scale"
					}
				},
				{
					"sampler":33,
					"target":{
						"node":8,
						"path":"translation"
					}
				},
				{
					"sampler":34,
					"target":{
						"node":8,
						"path":"rotation"
					}
				},
				{
					"sampler":35,
					"target":{
						"node":8,
						"path":"scale"
					}
				},
				{
					"sampler":36,
					"target":{
						"node":15,
						"path":"translation"
					}
				},
				{
					"sampler":37,
					"target":{
						"node":15,
						"path":"rotation"
					}
				},
				{
					"sampler":38,
					"target":{
						"node":15,
						"path":"scale"
					}
				},
				{
					"sampler":39,
					"target":{
						"node":14,
						"path":"translation"
					}
				},
				{
					"sampler":40,
					"target":{
						"node":14,
						"path":"rotation"
					}
				},
				{
					"sampler":41,
					"target":{
						"node":14,
						"path":"scale"
					}
				},
				{
					"sampler":42,
					"target":{
						"node":13,
						"path":"translation"
					}
				},
				{
					"sampler":43,
					"target":{
						"node":13,
						"path":"rotation"
					}
				},
				{
					"sampler":44,
					"target":{
						"node":13,
						"path":"scale"
					}
				},
				{
					"sampler":45,
					"target":{
						"node":18,
						"path":"translation"
					}
				},
				{
					"sampler":46,
					"target":{
						"node":18,
						"path":"rotation"
					}
				},
				{
					"sampler":47,
					"target":{
						"node":18,
						"path":"scale"
					}
				},
				{
					"sampler":48,
					"target":{
						"node":17,
						"path":"translation"
					}
				},
				{
					"sampler":49,
					"target":{
						"node":17,
						"path":"rotation"
					}
				},
				{
					"sampler":50,
					"target":{
						"node":17,
						"path":"scale"
					}
				},
				{
					"sampler":51,
					"target":{
						"node":16,
						"path":"translation"
					}
				},
				{
					"sampler":52,
					"target":{
						"node":16,
						"path":"rotation"
					}
				},
				{
					"sampler":53,
					"target":{
						"node":16,
						"path":"scale"
					}
				}
			],
			"name":"Angriff",
			"samplers":[
				{
					"input":15,
					"interpolation":"STEP",
					"output":16
				},
				{
					"input":15,
					"interpolation":"STEP",
					"output":17
				},
				{
					"input":15,
					"interpolation":"STEP",
					"output":18
				},
				{
					"input":15,
					"interpolation":"STEP",
					"output":19
				},
				{
					"input":20,
					"interpolation":"LINEAR",
					"output":21
				},
				{
					"input":15,
					"interpolation":"STEP",
					"output":18
				},
				{
					"input":15,
					"interpolation":"STEP",
					"output":22
				},
				{
					"input":20,
					"interpolation":"LINEAR",
					"output":23
				},
				{
					"input":15,
					"interpolation":"STEP",
					"output":18
				},
				{
					"input":15,
					"interpolation":"STEP",
					"output":24
				},
				{
					"input":15,
					"interpolation":"STEP",
					"output":17
				},
				{
					"input":15,
					"interpolation":"STEP",
					"output":18
				},
				{
					"input":15,
					"interpolation":"STEP",
					"output":25
				},
				{
					"input":15,
					"interpolation":"STEP",
					"output":17
				},
				{
					"input":15,
					"interpolation":"STEP",
					"output":18
				},
				{
					"input":15,
					"interpolation":"STEP",
					"output":26
				},
				{
					"input":15,
					"interpolation":"STEP",
					"output":27
				},
				{
					"input":15,
					"interpolation":"STEP",
					"output":28
				},
				{
					"input":15,
					"interpolation":"STEP",
					"output":29
				},
				{
					"input":15,
					"interpolation":"STEP",
					"output":30
				},
				{
					"input":15,
					"interpolation":"STEP",
					"output":31
				},
				{
					"input":15,
					"interpolation":"STEP",
					"output":32
				},
				{
					"input":15,
					"interpolation":"STEP",
					"output":33
				},
				{
					"input":15,
					"interpolation":"STEP",
					"output":18
				},
				{
					"input":15,
					"interpolation":"STEP",
					"output":34
				},
				{
					"input":15,
					"interpolation":"STEP",
					"output":35
				},
				{
					"input":15,
					"interpolation":"STEP",
					"output":36
				},
				{
					"input":15,
					"interpolation":"STEP",
					"output":37
				},
				{
					"input":20,
					"interpolation":"LINEAR",
					"output":38
				},
				{
					"input":15,
					"interpolation":"STEP",
					"output":31
				},
				{
					"input":15,
					"interpolation":"STEP",
					"output":39
				},
				{
					"input":20,
					"interpolation":"LINEAR",
					"output":40
				},
				{
					"input":15,
					"interpolation":"STEP",
					"output":41
				},
				{
					"input":15,
					"interpolation":"STEP",
					"output":42
				},
				{
					"input":15,
					"interpolation":"STEP",
					"output":43
				},
				{
					"input":15,
					"interpolation":"STEP",
					"output":44
				},
				{
					"input":15,
					"interpolation":"STEP",
					"output":45
				},
				{
					"input":20,
					"interpolation":"LINEAR",
					"output":46
				},
				{
					"input":15,
					"interpolation":"STEP",
					"output":18
				},
				{
					"input":15,
					"interpolation":"STEP",
					"output":47
				},
				{
					"input":20,
					"interpolation":"LINEAR",
					"output":48
				},
				{
					"input":15,
					"interpolation":"STEP",
					"output":36
				},
				{
					"input":15,
					"interpolation":"STEP",
					"output":49
				},
				{
					"input":15,
					"interpolation":"STEP",
					"output":50
				},
				{
					"input":15,
					"interpolation":"STEP",
					"output":18
				},
				{
					"input":15,
					"interpolation":"STEP",
					"output":51
				},
				{
					"input":20,
					"interpolation":"LINEAR",
					"output":52
				},
				{
					"input":15,
					"interpolation":"STEP",
					"output":53
				},
				{
					"input":15,
					"interpolation":"STEP",
					"output":54
				},
				{
					"input":20,
					"interpolation":"LINEAR",
					"output":55
				},
				{
					"input":15,
					"interpolation":"STEP",
					"output":28
				},
				{
					"input":15,
					"interpolation":"STEP",
					"output":56
				},
				{
					"input":15,
					"interpolation":"STEP",
					"output":57
				},
				{
					"input":15,
					"interpolation":"STEP",
					"output":58
				}
			]
		},
		{
			"channels":[
				{
					"sampler":0,
					"target":{
						"node":19,
						"path":"translation"
					}
				},
				{
					"sampler":1,
					"target":{
						"node":19,
						"path":"rotation"
					}
				},
				{
					"sampler":2,
					"target":{
						"node":19,
						"path":"scale"
					}
				},
				{
					"sampler":3,
					"target":{
						"node":12,
						"path":"translation"
					}
				},
				{
					"sampler":4,
					"target":{
						"node":12,
						"path":"rotation"
					}
				},
				{
					"sampler":5,
					"target":{
						"node":12,
						"path":"scale"
					}
				},
				{
					"sampler":6,
					"target":{
						"node":11,
						"path":"translation"
					}
				},
				{
					"sampler":7,
					"target":{
						"node":11,
						"path":"rotation"
					}
				},
				{
					"sampler":8,
					"target":{
						"node":11,
						"path":"scale"
					}
				},
				{
					"sampler":9,
					"target":{
						"node":2,
						"path":"translation"
					}
				},
				{
					"sampler":10,
					"target":{
						"node":2,
						"path":"rotation"
					}
				},
				{
					"sampler":11,
					"target":{
						"node":2,
						"path":"scale"
					}
				},
				{
					"sampler":12,
					"target":{
						"node":1,
						"path":"translation"
					}
				},
				{
					"sampler":13,
					"target":{
						"node":1,
						"path":"rotation"
					}
				},
				{
					"sampler":14,
					"target":{
						"node":1,
						"path":"scale"
					}
				},
				{
					"sampler":15,
					"target":{
						"node":0,
						"path":"translation"
					}
				},
				{
					"sampler":16,
					"target":{
						"node":0,
						"path":"rotation"
					}
				},
				{
					"sampler":17,
					"target":{
						"node":0,
						"path":"scale"
					}
				},
				{
					"sampler":18,
					"target":{
						"node":6,
						"path":"translation"
					}
				},
				{
					"sampler":19,
					"target":{
						"node":6,
						"path":"rotation"
					}
				},
				{
					"sampler":20,
					"target":{
						"node":6,
						"path":"scale"
					}
				},
				{
					"sampler":21,
					"target":{
						"node":5,
						"path":"translation"
					}
				},
				{
					"sampler":22,
					"target":{
						"node":5,
						"path":"rotation"
					}
				},
				{
					"sampler":23,
					"target":{
						"node":5,
						"path":"scale"
					}
				},
				{
					"sampler":24,
					"target":{
						"node":3,
						"path":"translation"
					}
				},
				{
					"sampler":25,
					"target":{
						"node":3,
						"path":"rotation"
					}
				},
				{
					"sampler":26,
					"target":{
						"node":3,
						"path":"scale"
					}
				},
				{
					"sampler":27,
					"target":{
						"node":10,
						"path":"translation"
					}
				},
				{
					"sampler":28,
					"target":{
						"node":10,
						"path":"rotation"
					}
				},
				{
					"sampler":29,
					"target":{
						"node":10,
						"path":"scale"
					}
				},
				{
					"sampler":30,
					"target":{
						"node":9,
						"path":"translation"
					}
				},
				{
					"sampler":31,
					"target":{
						"node":9,
						"path":"rotation"
					}
				},
				{
					"sampler":32,
					"target":{
						"node":9,
						"path":"scale"
					}
				},
				{
					"sampler":33,
					"target":{
						"node":8,
						"path":"translation"
					}
				},
				{
					"sampler":34,
					"target":{
						"node":8,
						"path":"rotation"
					}
				},
				{
					"sampler":35,
					"target":{
						"node":8,
						"path":"scale"
					}
				},
				{
					"sampler":36,
					"target":{
						"node":15,
						"path":"translation"
					}
				},
				{
					"sampler":37,
					"target":{
						"node":15,
						"path":"rotation"
					}
				},
				{
					"sampler":38,
					"target":{
						"node":15,
						"path":"scale"
					}
				},
				{
					"sampler":39,
					"target":{
						"node":14,
						"path":"translation"
					}
				},
				{
					"sampler":40,
					"target":{
						"node":14,
						"path":"rotation"
					}
				},
				{
					"sampler":41,
					"target":{
						"node":14,
						"path":"scale"
					}
				},
				{
					"sampler":42,
					"target":{
						"node":13,
						"path":"translation"
					}
				},
				{
					"sampler":43,
					"target":{
						"node":13,
						"path":"rotation"
					}
				},
				{
					"sampler":44,
					"target":{
						"node":13,
						"path":"scale"
					}
				},
				{
					"sampler":45,
					"target":{
						"node":18,
						"path":"translation"
					}
				},
				{
					"sampler":46,
					"target":{
						"node":18,
						"path":"rotation"
					}
				},
				{
					"sampler":47,
					"target":{
						"node":18,
						"path":"scale"
					}
				},
				{
					"sampler":48,
					"target":{
						"node":17,
						"path":"translation"
					}
				},
				{
					"sampler":49,
					"target":{
						"node":17,
						"path":"rotation"
					}
				},
				{
					"sampler":50,
					"target":{
						"node":17,
						"path":"scale"
					}
				},
				{
					"sampler":51,
					"target":{
						"node":16,
						"path":"translation"
					}
				},
				{
					"sampler":52,
					"target":{
						"node":16,
						"path":"rotation"
					}
				},
				{
					"sampler":53,
					"target":{
						"node":16,
						"path":"scale"
					}
				}
			],
			"name":"Idle",
			"samplers":[
				{
					"input":59,
					"interpolation":"LINEAR",
					"output":60
				},
				{
					"input":61,
					"interpolation":"STEP",
					"output":17
				},
				{
					"input":61,
					"interpolation":"STEP",
					"output":18
				},
				{
					"input":61,
					"interpolation":"STEP",
					"output":19
				},
				{
					"input":59,
					"interpolation":"LINEAR",
					"output":62
				},
				{
					"input":61,
					"interpolation":"STEP",
					"output":18
				},
				{
					"input":61,
					"interpolation":"STEP",
					"output":22
				},
				{
					"input":59,
					"interpolation":"LINEAR",
					"output":63
				},
				{
					"input":61,
					"interpolation":"STEP",
					"output":18
				},
				{
					"input":61,
					"interpolation":"STEP",
					"output":24
				},
				{
					"input":61,
					"interpolation":"STEP",
					"output":17
				},
				{
					"input":61,
					"interpolation":"STEP",
					"output":18
				},
				{
					"input":61,
					"interpolation":"STEP",
					"output":25
				},
				{
					"input":59,
					"interpolation":"LINEAR",
					"output":64
				},
				{
					"input":61,
					"interpolation":"STEP",
					"output":18
				},
				{
					"input":61,
					"interpolation":"STEP",
					"output":65
				},
				{
					"input":61,
					"interpolation":"STEP",
					"output":66
				},
				{
					"input":61,
					"interpolation":"STEP",
					"output":28
				},
				{
					"input":61,
					"interpolation":"STEP",
					"output":29
				},
				{
					"input":59,
					"interpolation":"LINEAR",
					"output":67
				},
				{
					"input":61,
					"interpolation":"STEP",
					"output":68
				},
				{
					"input":61,
					"interpolation":"STEP",
					"output":69
				},
				{
					"input":61,
					"interpolation":"STEP",
					"output":70
				},
				{
					"input":61,
					"interpolation":"STEP",
					"output":71
				},
				{
					"input":61,
					"interpolation":"STEP",
					"output":72
				},
				{
					"input":61,
					"interpolation":"STEP",
					"output":73
				},
				{
					"input":61,
					"interpolation":"STEP",
					"output":74
				},
				{
					"input":61,
					"interpolation":"STEP",
					"output":37
				},
				{
					"input":61,
					"interpolation":"STEP",
					"output":75
				},
				{
					"input":61,
					"interpolation":"STEP",
					"output":76
				},
				{
					"input":61,
					"interpolation":"STEP",
					"output":77
				},
				{
					"input":61,
					"interpolation":"STEP",
					"output":78
				},
				{
					"input":61,
					"interpolation":"STEP",
					"output":79
				},
				{
					"input":61,
					"interpolation":"STEP",
					"output":80
				},
				{
					"input":61,
					"interpolation":"STEP",
					"output":81
				},
				{
					"input":61,
					"interpolation":"STEP",
					"output":82
				},
				{
					"input":61,
					"interpolation":"STEP",
					"output":45
				},
				{
					"input":61,
					"interpolation":"STEP",
					"output":83
				},
				{
					"input":61,
					"interpolation":"STEP",
					"output":18
				},
				{
					"input":61,
					"interpolation":"STEP",
					"output":84
				},
				{
					"input":61,
					"interpolation":"STEP",
					"output":85
				},
				{
					"input":61,
					"interpolation":"STEP",
					"output":36
				},
				{
					"input":61,
					"interpolation":"STEP",
					"output":86
				},
				{
					"input":61,
					"interpolation":"STEP",
					"output":87
				},
				{
					"input":61,
					"interpolation":"STEP",
					"output":88
				},
				{
					"input":61,
					"interpolation":"STEP",
					"output":51
				},
				{
					"input":61,
					"interpolation":"STEP",
					"output":83
				},
				{
					"input":61,
					"interpolation":"STEP",
					"output":18
				},
				{
					"input":61,
					"interpolation":"STEP",
					"output":89
				},
				{
					"input":61,
					"interpolation":"STEP",
					"output":85
				},
				{
					"input":61,
					"interpolation":"STEP",
					"output":36
				},
				{
					"input":61,
					"interpolation":"STEP",
					"output":90
				},
				{
					"input":61,
					"interpolation":"STEP",
					"output":87
				},
				{
					"input":61,
					"interpolation":"STEP",
					"output":88
				}
			]
		},
		{
			"channels":[
				{
					"sampler":0,
					"target":{
						"node":19,
						"path":"translation"
					}
				},
				{
					"sampler":1,
					"target":{
						"node":19,
						"path":"rotation"
					}
				},
				{
					"sampler":2,
					"target":{
						"node":19,
						"path":"scale"
					}
				},
				{
					"sampler":3,
					"target":{
						"node":12,
						"path":"translation"
					}
				},
				{
					"sampler":4,
					"target":{
						"node":12,
						"path":"rotation"
					}
				},
				{
					"sampler":5,
					"target":{
						"node":12,
						"path":"scale"
					}
				},
				{
					"sampler":6,
					"target":{
						"node":11,
						"path":"translation"
					}
				},
				{
					"sampler":7,
					"target":{
						"node":11,
						"path":"rotation"
					}
				},
				{
					"sampler":8,
					"target":{
						"node":11,
						"path":"scale"
					}
				},
				{
					"sampler":9,
					"target":{
						"node":2,
						"path":"translation"
					}
				},
				{
					"sampler":10,
					"target":{
						"node":2,
						"path":"rotation"
					}
				},
				{
					"sampler":11,
					"target":{
						"node":2,
						"path":"scale"
					}
				},
				{
					"sampler":12,
					"target":{
						"node":1,
						"path":"translation"
					}
				},
				{
					"sampler":13,
					"target":{
						"node":1,
						"path":"rotation"
					}
				},
				{
					"sampler":14,
					"target":{
						"node":1,
						"path":"scale"
					}
				},
				{
					"sampler":15,
					"target":{
						"node":0,
						"path":"translation"
					}
				},
				{
					"sampler":16,
					"target":{
						"node":0,
						"path":"rotation"
					}
				},
				{
					"sampler":17,
					"target":{
						"node":0,
						"path":"scale"
					}
				},
				{
					"sampler":18,
					"target":{
						"node":6,
						"path":"translation"
					}
				},
				{
					"sampler":19,
					"target":{
						"node":6,
						"path":"rotation"
					}
				},
				{
					"sampler":20,
					"target":{
						"node":6,
						"path":"scale"
					}
				},
				{
					"sampler":21,
					"target":{
						"node":5,
						"path":"translation"
					}
				},
				{
					"sampler":22,
					"target":{
						"node":5,
						"path":"rotation"
					}
				},
				{
					"sampler":23,
					"target":{
						"node":5,
						"path":"scale"
					}
				},
				{
					"sampler":24,
					"target":{
						"node":3,
						"path":"translation"
					}
				},
				{
					"sampler":25,
					"target":{
						"node":3,
						"path":"rotation"
					}
				},
				{
					"sampler":26,
					"target":{
						"node":3,
						"path":"scale"
					}
				},
				{
					"sampler":27,
					"target":{
						"node":10,
						"path":"translation"
					}
				},
				{
					"sampler":28,
					"target":{
						"node":10,
						"path":"rotation"
					}
				},
				{
					"sampler":29,
					"target":{
						"node":10,
						"path":"scale"
					}
				},
				{
					"sampler":30,
					"target":{
						"node":9,
						"path":"translation"
					}
				},
				{
					"sampler":31,
					"target":{
						"node":9,
						"path":"rotation"
					}
				},
				{
					"sampler":32,
					"target":{
						"node":9,
						"path":"scale"
					}
				},
				{
					"sampler":33,
					"target":{
						"node":8,
						"path":"translation"
					}
				},
				{
					"sampler":34,
					"target":{
						"node":8,
						"path":"rotation"
					}
				},
				{
					"sampler":35,
					"target":{
						"node":8,
						"path":"scale"
					}
				},
				{
					"sampler":36,
					"target":{
						"node":15,
						"path":"translation"
					}
				},
				{
					"sampler":37,
					"target":{
						"node":15,
						"path":"rotation"
					}
				},
				{
					"sampler":38,
					"target":{
						"node":15,
						"path":"scale"
					}
				},
				{
					"sampler":39,
					"target":{
						"node":14,
						"path":"translation"
					}
				},
				{
					"sampler":40,
					"target":{
						"node":14,
						"path":"rotation"
					}
				},
				{
					"sampler":41,
					"target":{
						"node":14,
						"path":"scale"
					}
				},
				{
					"sampler":42,
					"target":{
						"node":13,
						"path":"translation"
					}
				},
				{
					"sampler":43,
					"target":{
						"node":13,
						"path":"rotation"
					}
				},
				{
					"sampler":44,
					"target":{
						"node":13,
						"path":"scale"
					}
				},
				{
					"sampler":45,
					"target":{
						"node":18,
						"path":"translation"
					}
				},
				{
					"sampler":46,
					"target":{
						"node":18,
						"path":"rotation"
					}
				},
				{
					"sampler":47,
					"target":{
						"node":18,
						"path":"scale"
					}
				},
				{
					"sampler":48,
					"target":{
						"node":17,
						"path":"translation"
					}
				},
				{
					"sampler":49,
					"target":{
						"node":17,
						"path":"rotation"
					}
				},
				{
					"sampler":50,
					"target":{
						"node":17,
						"path":"scale"
					}
				},
				{
					"sampler":51,
					"target":{
						"node":16,
						"path":"translation"
					}
				},
				{
					"sampler":52,
					"target":{
						"node":16,
						"path":"rotation"
					}
				},
				{
					"sampler":53,
					"target":{
						"node":16,
						"path":"scale"
					}
				}
			],
			"name":"Laufen",
			"samplers":[
				{
					"input":20,
					"interpolation":"LINEAR",
					"output":91
				},
				{
					"input":20,
					"interpolation":"LINEAR",
					"output":92
				},
				{
					"input":15,
					"interpolation":"STEP",
					"output":18
				},
				{
					"input":15,
					"interpolation":"STEP",
					"output":19
				},
				{
					"input":15,
					"interpolation":"STEP",
					"output":93
				},
				{
					"input":15,
					"interpolation":"STEP",
					"output":18
				},
				{
					"input":15,
					"interpolation":"STEP",
					"output":94
				},
				{
					"input":20,
					"interpolation":"LINEAR",
					"output":95
				},
				{
					"input":15,
					"interpolation":"STEP",
					"output":18
				},
				{
					"input":15,
					"interpolation":"STEP",
					"output":96
				},
				{
					"input":15,
					"interpolation":"STEP",
					"output":17
				},
				{
					"input":15,
					"interpolation":"STEP",
					"output":18
				},
				{
					"input":15,
					"interpolation":"STEP",
					"output":97
				},
				{
					"input":20,
					"interpolation":"LINEAR",
					"output":98
				},
				{
					"input":15,
					"interpolation":"STEP",
					"output":99
				},
				{
					"input":15,
					"interpolation":"STEP",
					"output":100
				},
				{
					"input":20,
					"interpolation":"LINEAR",
					"output":101
				},
				{
					"input":15,
					"interpolation":"STEP",
					"output":82
				},
				{
					"input":15,
					"interpolation":"STEP",
					"output":102
				},
				{
					"input":20,
					"interpolation":"LINEAR",
					"output":103
				},
				{
					"input":15,
					"interpolation":"STEP",
					"output":104
				},
				{
					"input":15,
					"interpolation":"STEP",
					"output":105
				},
				{
					"input":15,
					"interpolation":"STEP",
					"output":106
				},
				{
					"input":15,
					"interpolation":"STEP",
					"output":107
				},
				{
					"input":15,
					"interpolation":"STEP",
					"output":108
				},
				{
					"input":15,
					"interpolation":"STEP",
					"output":109
				},
				{
					"input":15,
					"interpolation":"STEP",
					"output":110
				},
				{
					"input":15,
					"interpolation":"STEP",
					"output":111
				},
				{
					"input":20,
					"interpolation":"LINEAR",
					"output":112
				},
				{
					"input":15,
					"interpolation":"STEP",
					"output":113
				},
				{
					"input":15,
					"interpolation":"STEP",
					"output":114
				},
				{
					"input":15,
					"interpolation":"STEP",
					"output":115
				},
				{
					"input":15,
					"interpolation":"STEP",
					"output":18
				},
				{
					"input":15,
					"interpolation":"STEP",
					"output":116
				},
				{
					"input":15,
					"interpolation":"STEP",
					"output":117
				},
				{
					"input":15,
					"interpolation":"STEP",
					"output":82
				},
				{
					"input":15,
					"interpolation":"STEP",
					"output":45
				},
				{
					"input":20,
					"interpolation":"LINEAR",
					"output":118
				},
				{
					"input":15,
					"interpolation":"STEP",
					"output":18
				},
				{
					"input":15,
					"interpolation":"STEP",
					"output":119
				},
				{
					"input":20,
					"interpolation":"LINEAR",
					"output":120
				},
				{
					"input":15,
					"interpolation":"STEP",
					"output":36
				},
				{
					"input":15,
					"interpolation":"STEP",
					"output":121
				},
				{
					"input":20,
					"interpolation":"LINEAR",
					"output":122
				},
				{
					"input":15,
					"interpolation":"STEP",
					"output":58
				},
				{
					"input":15,
					"interpolation":"STEP",
					"output":51
				},
				{
					"input":20,
					"interpolation":"LINEAR",
					"output":123
				},
				{
					"input":15,
					"interpolation":"STEP",
					"output":18
				},
				{
					"input":15,
					"interpolation":"STEP",
					"output":124
				},
				{
					"input":20,
					"interpolation":"LINEAR",
					"output":125
				},
				{
					"input":15,
					"interpolation":"STEP",
					"output":36
				},
				{
					"input":15,
					"interpolation":"STEP",
					"output":126
				},
				{
					"input":20,
					"interpolation":"LINEAR",
					"output":127
				},
				{
					"input":15,
					"interpolation":"STEP",
					"output":99
				}
			]
		}
	],
	"materials":[
		{
			"doubleSided":true,
			"name":"DunklerRitter",
			"pbrMetallicRoughness":{
				"metallicFactor":0,
				"roughnessFactor":0.8500000238418579
			}
		}
	],
	"meshes":[
		{
			"name":"Koerper",
			"primitives":[
				{
					"attributes":{
						"POSITION":0,
						"NORMAL":1,
						"COLOR_0":2,
						"JOINTS_0":3,
						"WEIGHTS_0":4
					},
					"indices":5,
					"material":0
				}
			]
		},
		{
			"name":"Schild",
			"primitives":[
				{
					"attributes":{
						"POSITION":7,
						"NORMAL":8,
						"COLOR_0":9
					},
					"indices":10,
					"material":0
				}
			]
		},
		{
			"name":"Schwert",
			"primitives":[
				{
					"attributes":{
						"POSITION":11,
						"NORMAL":12,
						"COLOR_0":13
					},
					"indices":14,
					"material":0
				}
			]
		}
	],
	"skins":[
		{
			"inverseBindMatrices":6,
			"joints":[
				19,
				12,
				11,
				2,
				1,
				0,
				6,
				5,
				3,
				10,
				9,
				8,
				15,
				14,
				13,
				18,
				17,
				16
			],
			"name":"DunklerRitterSkelett"
		}
	],
	"accessors":[
		{
			"bufferView":0,
			"componentType":5126,
			"count":27394,
			"max":[
				0.40761303901672363,
				2.131455421447754,
				0.23992936313152313
			],
			"min":[
				-0.40761303901672363,
				-0.0016493006842210889,
				-0.4373427629470825
			],
			"type":"VEC3"
		},
		{
			"bufferView":1,
			"componentType":5126,
			"count":27394,
			"type":"VEC3"
		},
		{
			"bufferView":2,
			"componentType":5126,
			"count":27394,
			"type":"VEC3"
		},
		{
			"bufferView":3,
			"componentType":5121,
			"count":27394,
			"type":"VEC4"
		},
		{
			"bufferView":4,
			"componentType":5126,
			"count":27394,
			"type":"VEC4"
		},
		{
			"bufferView":5,
			"componentType":5123,
			"count":81510,
			"type":"SCALAR"
		},
		{
			"bufferView":6,
			"componentType":5126,
			"count":18,
			"type":"MAT4"
		},
		{
			"bufferView":7,
			"componentType":5126,
			"count":1037,
			"max":[
				0.5542477965354919,
				1.3399999141693115,
				0.23000000417232513
			],
			"min":[
				0.4020000100135803,
				0.6399999856948853,
				-0.17000000178813934
			],
			"type":"VEC3"
		},
		{
			"bufferView":8,
			"componentType":5126,
			"count":1037,
			"type":"VEC3"
		},
		{
			"bufferView":9,
			"componentType":5126,
			"count":1037,
			"type":"VEC3"
		},
		{
			"bufferView":10,
			"componentType":5123,
			"count":3774,
			"type":"SCALAR"
		},
		{
			"bufferView":11,
			"componentType":5126,
			"count":577,
			"max":[
				-0.2250000238418579,
				1.0505952835083008,
				0.5854994058609009
			],
			"min":[
				-0.4750000238418579,
				0.20610345900058746,
				-0.09311417490243912
			],
			"type":"VEC3"
		},
		{
			"bufferView":12,
			"componentType":5126,
			"count":577,
			"type":"VEC3"
		},
		{
			"bufferView":13,
			"componentType":5126,
			"count":577,
			"type":"VEC3"
		},
		{
			"bufferView":14,
			"componentType":5123,
			"count":1770,
			"type":"SCALAR"
		},
		{
			"bufferView":15,
			"componentType":5126,
			"count":2,
			"max":[
				1
			],
			"min":[
				0
			],
			"type":"SCALAR"
		},
		{
			"bufferView":16,
			"componentType":5126,
			"count":2,
			"type":"VEC3"
		},
		{
			"bufferView":17,
			"componentType":5126,
			"count":2,
			"type":"VEC4"
		},
		{
			"bufferView":18,
			"componentType":5126,
			"count":2,
			"type":"VEC3"
		},
		{
			"bufferView":19,
			"componentType":5126,
			"count":2,
			"type":"VEC3"
		},
		{
			"bufferView":20,
			"componentType":5126,
			"count":31,
			"max":[
				1
			],
			"min":[
				0
			],
			"type":"SCALAR"
		},
		{
			"bufferView":21,
			"componentType":5126,
			"count":31,
			"type":"VEC4"
		},
		{
			"bufferView":22,
			"componentType":5126,
			"count":2,
			"type":"VEC3"
		},
		{
			"bufferView":23,
			"componentType":5126,
			"count":31,
			"type":"VEC4"
		},
		{
			"bufferView":24,
			"componentType":5126,
			"count":2,
			"type":"VEC3"
		},
		{
			"bufferView":25,
			"componentType":5126,
			"count":2,
			"type":"VEC3"
		},
		{
			"bufferView":26,
			"componentType":5126,
			"count":2,
			"type":"VEC3"
		},
		{
			"bufferView":27,
			"componentType":5126,
			"count":2,
			"type":"VEC4"
		},
		{
			"bufferView":28,
			"componentType":5126,
			"count":2,
			"type":"VEC3"
		},
		{
			"bufferView":29,
			"componentType":5126,
			"count":2,
			"type":"VEC3"
		},
		{
			"bufferView":30,
			"componentType":5126,
			"count":2,
			"type":"VEC4"
		},
		{
			"bufferView":31,
			"componentType":5126,
			"count":2,
			"type":"VEC3"
		},
		{
			"bufferView":32,
			"componentType":5126,
			"count":2,
			"type":"VEC3"
		},
		{
			"bufferView":33,
			"componentType":5126,
			"count":2,
			"type":"VEC4"
		},
		{
			"bufferView":34,
			"componentType":5126,
			"count":2,
			"type":"VEC3"
		},
		{
			"bufferView":35,
			"componentType":5126,
			"count":2,
			"type":"VEC4"
		},
		{
			"bufferView":36,
			"componentType":5126,
			"count":2,
			"type":"VEC3"
		},
		{
			"bufferView":37,
			"componentType":5126,
			"count":2,
			"type":"VEC3"
		},
		{
			"bufferView":38,
			"componentType":5126,
			"count":31,
			"type":"VEC4"
		},
		{
			"bufferView":39,
			"componentType":5126,
			"count":2,
			"type":"VEC3"
		},
		{
			"bufferView":40,
			"componentType":5126,
			"count":31,
			"type":"VEC4"
		},
		{
			"bufferView":41,
			"componentType":5126,
			"count":2,
			"type":"VEC3"
		},
		{
			"bufferView":42,
			"componentType":5126,
			"count":2,
			"type":"VEC3"
		},
		{
			"bufferView":43,
			"componentType":5126,
			"count":2,
			"type":"VEC4"
		},
		{
			"bufferView":44,
			"componentType":5126,
			"count":2,
			"type":"VEC3"
		},
		{
			"bufferView":45,
			"componentType":5126,
			"count":2,
			"type":"VEC3"
		},
		{
			"bufferView":46,
			"componentType":5126,
			"count":31,
			"type":"VEC4"
		},
		{
			"bufferView":47,
			"componentType":5126,
			"count":2,
			"type":"VEC3"
		},
		{
			"bufferView":48,
			"componentType":5126,
			"count":31,
			"type":"VEC4"
		},
		{
			"bufferView":49,
			"componentType":5126,
			"count":2,
			"type":"VEC3"
		},
		{
			"bufferView":50,
			"componentType":5126,
			"count":2,
			"type":"VEC4"
		},
		{
			"bufferView":51,
			"componentType":5126,
			"count":2,
			"type":"VEC3"
		},
		{
			"bufferView":52,
			"componentType":5126,
			"count":31,
			"type":"VEC4"
		},
		{
			"bufferView":53,
			"componentType":5126,
			"count":2,
			"type":"VEC3"
		},
		{
			"bufferView":54,
			"componentType":5126,
			"count":2,
			"type":"VEC3"
		},
		{
			"bufferView":55,
			"componentType":5126,
			"count":31,
			"type":"VEC4"
		},
		{
			"bufferView":56,
			"componentType":5126,
			"count":2,
			"type":"VEC3"
		},
		{
			"bufferView":57,
			"componentType":5126,
			"count":2,
			"type":"VEC4"
		},
		{
			"bufferView":58,
			"componentType":5126,
			"count":2,
			"type":"VEC3"
		},
		{
			"bufferView":59,
			"componentType":5126,
			"count":181,
			"max":[
				6
			],
			"min":[
				0
			],
			"type":"SCALAR"
		},
		{
			"bufferView":60,
			"componentType":5126,
			"count":181,
			"type":"VEC3"
		},
		{
			"bufferView":61,
			"componentType":5126,
			"count":2,
			"max":[
				6
			],
			"min":[
				0
			],
			"type":"SCALAR"
		},
		{
			"bufferView":62,
			"componentType":5126,
			"count":181,
			"type":"VEC4"
		},
		{
			"bufferView":63,
			"componentType":5126,
			"count":181,
			"type":"VEC4"
		},
		{
			"bufferView":64,
			"componentType":5126,
			"count":181,
			"type":"VEC4"
		},
		{
			"bufferView":65,
			"componentType":5126,
			"count":2,
			"type":"VEC3"
		},
		{
			"bufferView":66,
			"componentType":5126,
			"count":2,
			"type":"VEC4"
		},
		{
			"bufferView":67,
			"componentType":5126,
			"count":181,
			"type":"VEC4"
		},
		{
			"bufferView":68,
			"componentType":5126,
			"count":2,
			"type":"VEC3"
		},
		{
			"bufferView":69,
			"componentType":5126,
			"count":2,
			"type":"VEC3"
		},
		{
			"bufferView":70,
			"componentType":5126,
			"count":2,
			"type":"VEC4"
		},
		{
			"bufferView":71,
			"componentType":5126,
			"count":2,
			"type":"VEC3"
		},
		{
			"bufferView":72,
			"componentType":5126,
			"count":2,
			"type":"VEC3"
		},
		{
			"bufferView":73,
			"componentType":5126,
			"count":2,
			"type":"VEC4"
		},
		{
			"bufferView":74,
			"componentType":5126,
			"count":2,
			"type":"VEC3"
		},
		{
			"bufferView":75,
			"componentType":5126,
			"count":2,
			"type":"VEC4"
		},
		{
			"bufferView":76,
			"componentType":5126,
			"count":2,
			"type":"VEC3"
		},
		{
			"bufferView":77,
			"componentType":5126,
			"count":2,
			"type":"VEC3"
		},
		{
			"bufferView":78,
			"componentType":5126,
			"count":2,
			"type":"VEC4"
		},
		{
			"bufferView":79,
			"componentType":5126,
			"count":2,
			"type":"VEC3"
		},
		{
			"bufferView":80,
			"componentType":5126,
			"count":2,
			"type":"VEC3"
		},
		{
			"bufferView":81,
			"componentType":5126,
			"count":2,
			"type":"VEC4"
		},
		{
			"bufferView":82,
			"componentType":5126,
			"count":2,
			"type":"VEC3"
		},
		{
			"bufferView":83,
			"componentType":5126,
			"count":2,
			"type":"VEC4"
		},
		{
			"bufferView":84,
			"componentType":5126,
			"count":2,
			"type":"VEC3"
		},
		{
			"bufferView":85,
			"componentType":5126,
			"count":2,
			"type":"VEC4"
		},
		{
			"bufferView":86,
			"componentType":5126,
			"count":2,
			"type":"VEC3"
		},
		{
			"bufferView":87,
			"componentType":5126,
			"count":2,
			"type":"VEC4"
		},
		{
			"bufferView":88,
			"componentType":5126,
			"count":2,
			"type":"VEC3"
		},
		{
			"bufferView":89,
			"componentType":5126,
			"count":2,
			"type":"VEC3"
		},
		{
			"bufferView":90,
			"componentType":5126,
			"count":2,
			"type":"VEC3"
		},
		{
			"bufferView":91,
			"componentType":5126,
			"count":31,
			"type":"VEC3"
		},
		{
			"bufferView":92,
			"componentType":5126,
			"count":31,
			"type":"VEC4"
		},
		{
			"bufferView":93,
			"componentType":5126,
			"count":2,
			"type":"VEC4"
		},
		{
			"bufferView":94,
			"componentType":5126,
			"count":2,
			"type":"VEC3"
		},
		{
			"bufferView":95,
			"componentType":5126,
			"count":31,
			"type":"VEC4"
		},
		{
			"bufferView":96,
			"componentType":5126,
			"count":2,
			"type":"VEC3"
		},
		{
			"bufferView":97,
			"componentType":5126,
			"count":2,
			"type":"VEC3"
		},
		{
			"bufferView":98,
			"componentType":5126,
			"count":31,
			"type":"VEC4"
		},
		{
			"bufferView":99,
			"componentType":5126,
			"count":2,
			"type":"VEC3"
		},
		{
			"bufferView":100,
			"componentType":5126,
			"count":2,
			"type":"VEC3"
		},
		{
			"bufferView":101,
			"componentType":5126,
			"count":31,
			"type":"VEC4"
		},
		{
			"bufferView":102,
			"componentType":5126,
			"count":2,
			"type":"VEC3"
		},
		{
			"bufferView":103,
			"componentType":5126,
			"count":31,
			"type":"VEC4"
		},
		{
			"bufferView":104,
			"componentType":5126,
			"count":2,
			"type":"VEC3"
		},
		{
			"bufferView":105,
			"componentType":5126,
			"count":2,
			"type":"VEC3"
		},
		{
			"bufferView":106,
			"componentType":5126,
			"count":2,
			"type":"VEC4"
		},
		{
			"bufferView":107,
			"componentType":5126,
			"count":2,
			"type":"VEC3"
		},
		{
			"bufferView":108,
			"componentType":5126,
			"count":2,
			"type":"VEC3"
		},
		{
			"bufferView":109,
			"componentType":5126,
			"count":2,
			"type":"VEC4"
		},
		{
			"bufferView":110,
			"componentType":5126,
			"count":2,
			"type":"VEC3"
		},
		{
			"bufferView":111,
			"componentType":5126,
			"count":2,
			"type":"VEC3"
		},
		{
			"bufferView":112,
			"componentType":5126,
			"count":31,
			"type":"VEC4"
		},
		{
			"bufferView":113,
			"componentType":5126,
			"count":2,
			"type":"VEC3"
		},
		{
			"bufferView":114,
			"componentType":5126,
			"count":2,
			"type":"VEC3"
		},
		{
			"bufferView":115,
			"componentType":5126,
			"count":2,
			"type":"VEC4"
		},
		{
			"bufferView":116,
			"componentType":5126,
			"count":2,
			"type":"VEC3"
		},
		{
			"bufferView":117,
			"componentType":5126,
			"count":2,
			"type":"VEC4"
		},
		{
			"bufferView":118,
			"componentType":5126,
			"count":31,
			"type":"VEC4"
		},
		{
			"bufferView":119,
			"componentType":5126,
			"count":2,
			"type":"VEC3"
		},
		{
			"bufferView":120,
			"componentType":5126,
			"count":31,
			"type":"VEC4"
		},
		{
			"bufferView":121,
			"componentType":5126,
			"count":2,
			"type":"VEC3"
		},
		{
			"bufferView":122,
			"componentType":5126,
			"count":31,
			"type":"VEC4"
		},
		{
			"bufferView":123,
			"componentType":5126,
			"count":31,
			"type":"VEC4"
		},
		{
			"bufferView":124,
			"componentType":5126,
			"count":2,
			"type":"VEC3"
		},
		{
			"bufferView":125,
			"componentType":5126,
			"count":31,
			"type":"VEC4"
		},
		{
			"bufferView":126,
			"componentType":5126,
			"count":2,
			"type":"VEC3"
		},
		{
			"bufferView":127,
			"componentType":5126,
			"count":31,
			"type":"VEC4"
		}
	],
	"bufferViews":[
		{
			"buffer":0,
			"byteLength":328728,
			"byteOffset":0,
			"target":34962
		},
		{
			"buffer":0,
			"byteLength":328728,
			"byteOffset":328728,
			"target":34962
		},
		{
			"buffer":0,
			"byteLength":328728,
			"byteOffset":657456,
			"target":34962
		},
		{
			"buffer":0,
			"byteLength":109576,
			"byteOffset":986184,
			"target":34962
		},
		{
			"buffer":0,
			"byteLength":438304,
			"byteOffset":1095760,
			"target":34962
		},
		{
			"buffer":0,
			"byteLength":163020,
			"byteOffset":1534064,
			"target":34963
		},
		{
			"buffer":0,
			"byteLength":1152,
			"byteOffset":1697084
		},
		{
			"buffer":0,
			"byteLength":12444,
			"byteOffset":1698236,
			"target":34962
		},
		{
			"buffer":0,
			"byteLength":12444,
			"byteOffset":1710680,
			"target":34962
		},
		{
			"buffer":0,
			"byteLength":12444,
			"byteOffset":1723124,
			"target":34962
		},
		{
			"buffer":0,
			"byteLength":7548,
			"byteOffset":1735568,
			"target":34963
		},
		{
			"buffer":0,
			"byteLength":6924,
			"byteOffset":1743116,
			"target":34962
		},
		{
			"buffer":0,
			"byteLength":6924,
			"byteOffset":1750040,
			"target":34962
		},
		{
			"buffer":0,
			"byteLength":6924,
			"byteOffset":1756964,
			"target":34962
		},
		{
			"buffer":0,
			"byteLength":3540,
			"byteOffset":1763888,
			"target":34963
		},
		{
			"buffer":0,
			"byteLength":8,
			"byteOffset":1767428
		},
		{
			"buffer":0,
			"byteLength":24,
			"byteOffset":1767436
		},
		{
			"buffer":0,
			"byteLength":32,
			"byteOffset":1767460
		},
		{
			"buffer":0,
			"byteLength":24,
			"byteOffset":1767492
		},
		{
			"buffer":0,
			"byteLength":24,
			"byteOffset":1767516
		},
		{
			"buffer":0,
			"byteLength":124,
			"byteOffset":1767540
		},
		{
			"buffer":0,
			"byteLength":496,
			"byteOffset":1767664
		},
		{
			"buffer":0,
			"byteLength":24,
			"byteOffset":1768160
		},
		{
			"buffer":0,
			"byteLength":496,
			"byteOffset":1768184
		},
		{
			"buffer":0,
			"byteLength":24,
			"byteOffset":1768680
		},
		{
			"buffer":0,
			"byteLength":24,
			"byteOffset":1768704
		},
		{
			"buffer":0,
			"byteLength":24,
			"byteOffset":1768728
		},
		{
			"buffer":0,
			"byteLength":32,
			"byteOffset":1768752
		},
		{
			"buffer":0,
			"byteLength":24,
			"byteOffset":1768784
		},
		{
			"buffer":0,
			"byteLength":24,
			"byteOffset":1768808
		},
		{
			"buffer":0,
			"byteLength":32,
			"byteOffset":1768832
		},
		{
			"buffer":0,
			"byteLength":24,
			"byteOffset":1768864
		},
		{
			"buffer":0,
			"byteLength":24,
			"byteOffset":1768888
		},
		{
			"buffer":0,
			"byteLength":32,
			"byteOffset":1768912
		},
		{
			"buffer":0,
			"byteLength":24,
			"byteOffset":1768944
		},
		{
			"buffer":0,
			"byteLength":32,
			"byteOffset":1768968
		},
		{
			"buffer":0,
			"byteLength":24,
			"byteOffset":1769000
		},
		{
			"buffer":0,
			"byteLength":24,
			"byteOffset":1769024
		},
		{
			"buffer":0,
			"byteLength":496,
			"byteOffset":1769048
		},
		{
			"buffer":0,
			"byteLength":24,
			"byteOffset":1769544
		},
		{
			"buffer":0,
			"byteLength":496,
			"byteOffset":1769568
		},
		{
			"buffer":0,
			"byteLength":24,
			"byteOffset":1770064
		},
		{
			"buffer":0,
			"byteLength":24,
			"byteOffset":1770088
		},
		{
			"buffer":0,
			"byteLength":32,
			"byteOffset":1770112
		},
		{
			"buffer":0,
			"byteLength":24,
			"byteOffset":1770144
		},
		{
			"buffer":0,
			"byteLength":24,
			"byteOffset":1770168
		},
		{
			"buffer":0,
			"byteLength":496,
			"byteOffset":1770192
		},
		{
			"buffer":0,
			"byteLength":24,
			"byteOffset":1770688
		},
		{
			"buffer":0,
			"byteLength":496,
			"byteOffset":1770712
		},
		{
			"buffer":0,
			"byteLength":24,
			"byteOffset":1771208
		},
		{
			"buffer":0,
			"byteLength":32,
			"byteOffset":1771232
		},
		{
			"buffer":0,
			"byteLength":24,
			"byteOffset":1771264
		},
		{
			"buffer":0,
			"byteLength":496,
			"byteOffset":1771288
		},
		{
			"buffer":0,
			"byteLength":24,
			"byteOffset":1771784
		},
		{
			"buffer":0,
			"byteLength":24,
			"byteOffset":1771808
		},
		{
			"buffer":0,
			"byteLength":496,
			"byteOffset":1771832
		},
		{
			"buffer":0,
			"byteLength":24,
			"byteOffset":1772328
		},
		{
			"buffer":0,
			"byteLength":32,
			"byteOffset":1772352
		},
		{
			"buffer":0,
			"byteLength":24,
			"byteOffset":1772384
		},
		{
			"buffer":0,
			"byteLength":724,
			"byteOffset":1772408
		},
		{
			"buffer":0,
			"byteLength":2172,
			"byteOffset":1773132
		},
		{
			"buffer":0,
			"byteLength":8,
			"byteOffset":1775304
		},
		{
			"buffer":0,
			"byteLength":2896,
			"byteOffset":1775312
		},
		{
			"buffer":0,
			"byteLength":2896,
			"byteOffset":1778208
		},
		{
			"buffer":0,
			"byteLength":2896,
			"byteOffset":1781104
		},
		{
			"buffer":0,
			"byteLength":24,
			"byteOffset":1784000
		},
		{
			"buffer":0,
			"byteLength":32,
			"byteOffset":1784024
		},
		{
			"buffer":0,
			"byteLength":2896,
			"byteOffset":1784056
		},
		{
			"buffer":0,
			"byteLength":24,
			"byteOffset":1786952
		},
		{
			"buffer":0,
			"byteLength":24,
			"byteOffset":1786976
		},
		{
			"buffer":0,
			"byteLength":32,
			"byteOffset":1787000
		},
		{
			"buffer":0,
			"byteLength":24,
			"byteOffset":1787032
		},
		{
			"buffer":0,
			"byteLength":24,
			"byteOffset":1787056
		},
		{
			"buffer":0,
			"byteLength":32,
			"byteOffset":1787080
		},
		{
			"buffer":0,
			"byteLength":24,
			"byteOffset":1787112
		},
		{
			"buffer":0,
			"byteLength":32,
			"byteOffset":1787136
		},
		{
			"buffer":0,
			"byteLength":24,
			"byteOffset":1787168
		},
		{
			"buffer":0,
			"byteLength":24,
			"byteOffset":1787192
		},
		{
			"buffer":0,
			"byteLength":32,
			"byteOffset":1787216
		},
		{
			"buffer":0,
			"byteLength":24,
			"byteOffset":1787248
		},
		{
			"buffer":0,
			"byteLength":24,
			"byteOffset":1787272
		},
		{
			"buffer":0,
			"byteLength":32,
			"byteOffset":1787296
		},
		{
			"buffer":0,
			"byteLength":24,
			"byteOffset":1787328
		},
		{
			"buffer":0,
			"byteLength":32,
			"byteOffset":1787352
		},
		{
			"buffer":0,
			"byteLength":24,
			"byteOffset":1787384
		},
		{
			"buffer":0,
			"byteLength":32,
			"byteOffset":1787408
		},
		{
			"buffer":0,
			"byteLength":24,
			"byteOffset":1787440
		},
		{
			"buffer":0,
			"byteLength":32,
			"byteOffset":1787464
		},
		{
			"buffer":0,
			"byteLength":24,
			"byteOffset":1787496
		},
		{
			"buffer":0,
			"byteLength":24,
			"byteOffset":1787520
		},
		{
			"buffer":0,
			"byteLength":24,
			"byteOffset":1787544
		},
		{
			"buffer":0,
			"byteLength":372,
			"byteOffset":1787568
		},
		{
			"buffer":0,
			"byteLength":496,
			"byteOffset":1787940
		},
		{
			"buffer":0,
			"byteLength":32,
			"byteOffset":1788436
		},
		{
			"buffer":0,
			"byteLength":24,
			"byteOffset":1788468
		},
		{
			"buffer":0,
			"byteLength":496,
			"byteOffset":1788492
		},
		{
			"buffer":0,
			"byteLength":24,
			"byteOffset":1788988
		},
		{
			"buffer":0,
			"byteLength":24,
			"byteOffset":1789012
		},
		{
			"buffer":0,
			"byteLength":496,
			"byteOffset":1789036
		},
		{
			"buffer":0,
			"byteLength":24,
			"byteOffset":1789532
		},
		{
			"buffer":0,
			"byteLength":24,
			"byteOffset":1789556
		},
		{
			"buffer":0,
			"byteLength":496,
			"byteOffset":1789580
		},
		{
			"buffer":0,
			"byteLength":24,
			"byteOffset":1790076
		},
		{
			"buffer":0,
			"byteLength":496,
			"byteOffset":1790100
		},
		{
			"buffer":0,
			"byteLength":24,
			"byteOffset":1790596
		},
		{
			"buffer":0,
			"byteLength":24,
			"byteOffset":1790620
		},
		{
			"buffer":0,
			"byteLength":32,
			"byteOffset":1790644
		},
		{
			"buffer":0,
			"byteLength":24,
			"byteOffset":1790676
		},
		{
			"buffer":0,
			"byteLength":24,
			"byteOffset":1790700
		},
		{
			"buffer":0,
			"byteLength":32,
			"byteOffset":1790724
		},
		{
			"buffer":0,
			"byteLength":24,
			"byteOffset":1790756
		},
		{
			"buffer":0,
			"byteLength":24,
			"byteOffset":1790780
		},
		{
			"buffer":0,
			"byteLength":496,
			"byteOffset":1790804
		},
		{
			"buffer":0,
			"byteLength":24,
			"byteOffset":1791300
		},
		{
			"buffer":0,
			"byteLength":24,
			"byteOffset":1791324
		},
		{
			"buffer":0,
			"byteLength":32,
			"byteOffset":1791348
		},
		{
			"buffer":0,
			"byteLength":24,
			"byteOffset":1791380
		},
		{
			"buffer":0,
			"byteLength":32,
			"byteOffset":1791404
		},
		{
			"buffer":0,
			"byteLength":496,
			"byteOffset":1791436
		},
		{
			"buffer":0,
			"byteLength":24,
			"byteOffset":1791932
		},
		{
			"buffer":0,
			"byteLength":496,
			"byteOffset":1791956
		},
		{
			"buffer":0,
			"byteLength":24,
			"byteOffset":1792452
		},
		{
			"buffer":0,
			"byteLength":496,
			"byteOffset":1792476
		},
		{
			"buffer":0,
			"byteLength":496,
			"byteOffset":1792972
		},
		{
			"buffer":0,
			"byteLength":24,
			"byteOffset":1793468
		},
		{
			"buffer":0,
			"byteLength":496,
			"byteOffset":1793492
		},
		{
			"buffer":0,
			"byteLength":24,
			"byteOffset":1793988
		},
		{
			"buffer":0,
			"byteLength":496,
			"byteOffset":1794012
		}
	],
	"buffers":[
		{
			"byteLength":1794508,
			"uri":"dunkler_ritter.bin"
		}
	]
}
