{
	"asset":{
		"generator":"Khronos glTF Blender I/O v5.2.40",
		"version":"2.0"
	},
	"scene":0,
	"scenes":[
		{
			"name":"Scene",
			"nodes":[
				20
			]
		}
	],
	"nodes":[
		{
			"name":"Hut",
			"rotation":[
				-0.49269899725914,
				1.4670467862742953e-07,
				-8.306282950343302e-08,
				0.8701998591423035
			],
			"scale":[
				1,
				0.9999998807907104,
				0.9999999403953552
			],
			"translation":[
				0,
				0.2900000810623169,
				-0.019999999552965164
			]
		},
		{
			"children":[
				0
			],
			"name":"Kopf",
			"translation":[
				0,
				0.09000003337860107,
				0
			]
		},
		{
			"children":[
				1
			],
			"name":"Hals",
			"translation":[
				0,
				0.25999999046325684,
				0
			]
		},
		{
			"name":"Hand.L",
			"rotation":[
				-0.02993539348244667,
				-0.0012853139778599143,
				0.008676200173795223,
				0.9995133876800537
			],
			"scale":[
				1,
				0.9999998807907104,
				1
			],
			"translation":[
				-2.9709189774962397e-08,
				0.2567099928855896,
				-2.7939677238464355e-09
			]
		},
		{
			"children":[
				3
			],
			"name":"Unterarm.L",
			"rotation":[
				-0.09223336726427078,
				-0.0013973830500617623,
				0.056753627955913544,
				0.9941177368164062
			],
			"scale":[
				1,
				0.9999999403953552,
				1
			],
			"translation":[
				-6.705523913907996e-10,
				0.2947879731655121,
				-4.656612873077393e-10
			]
		},
		{
			"children":[
				4
			],
			"name":"Oberarm.L",
			"rotation":[
				-0.9873651266098022,
				-0.15478397905826569,
				0.0052567459642887115,
				0.03353271260857582
			],
			"scale":[
				0.9999997615814209,
				0.9999998211860657,
				1
			],
			"translation":[
				0.20000000298023224,
				0.20000004768371582,
				0
			]
		},
		{
			"mesh":1,
			"name":"Stab",
			"rotation":[
				-0.9920610189437866,
				0.08945408463478088,
				0.007937991060316563,
				0.08803384751081467
			],
			"scale":[
				1.0000001192092896,
				1.000000238418579,
				1
			],
			"translation":[
				0.508034884929657,
				0.877810001373291,
				0.16718614101409912
			]
		},
		{
			"children":[
				6
			],
			"name":"Hand.R",
			"rotation":[
				-0.02993539348244667,
				0.0012853139778599143,
				-0.008676200173795223,
				0.9995133876800537
			],
			"scale":[
				1,
				0.9999998807907104,
				1
			],
			"translation":[
				2.9709189774962397e-08,
				0.2567099928855896,
				-2.7939677238464355e-09
			]
		},
		{
			"children":[
				7
			],
			"name":"Unterarm.R",
			"rotation":[
				-0.09223336726427078,
				0.0013973830500617623,
				-0.056753627955913544,
				0.9941177368164062
			],
			"scale":[
				1,
				0.9999999403953552,
				1
			],
			"translation":[
				6.705523913907996e-10,
				0.2947879731655121,
				-4.656612873077393e-10
			]
		},
		{
			"children":[
				8
			],
			"name":"Oberarm.R",
			"rotation":[
				-0.9873651266098022,
				0.15478397905826569,
				-0.0052567459642887115,
				0.03353271260857582
			],
			"scale":[
				0.9999997615814209,
				0.9999998211860657,
				1
			],
			"translation":[
				-0.20000000298023224,
				0.20000004768371582,
				0
			]
		},
		{
			"children":[
				2,
				5,
				9
			],
			"name":"Brust",
			"translation":[
				0,
				0.19999992847442627,
				0
			]
		},
		{
			"children":[
				10
			],
			"name":"Bauch",
			"translation":[
				0,
				0.15000003576278687,
				0
			]
		},
		{
			"name":"Fuss.L",
			"rotation":[
				1.1095015572948341e-08,
				0.8304529190063477,
				-0.5570888519287109,
				6.26974596684704e-08
			],
			"scale":[
				1,
				0.9999998807907104,
				0.9999998807907104
			],
			"translation":[
				-2.35995756270313e-09,
				0.42047592997550964,
				1.1594929461011816e-09
			]
		},
		{
			"children":[
				12
			],
			"name":"Unterschenkel.L",
			"rotation":[
				0.023789310827851295,
				9.13925006784666e-08,
				9.505255610386953e-11,
				0.9997169971466064
			],
			"scale":[
				1,
				0.9999999403953552,
				1
			],
			"translation":[
				0,
				0.4300000071525574,
				0
			]
		},
		{
			"children":[
				13
			],
			"name":"Oberschenkel.L",
			"rotation":[
				1,
				0,
				-4.371138828673793e-08,
				0
			],
			"translation":[
				0.10000000149011612,
				0,
				0
			]
		},
		{
			"name":"Fuss.R",
			"rotation":[
				1.1095015572948341e-08,
				0.8304529190063477,
				-0.5570888519287109,
				6.26974596684704e-08
			],
			"scale":[
				1,
				0.9999998807907104,
				0.9999998807907104
			],
			"translation":[
				-2.35995756270313e-09,
				0.42047592997550964,
				7.031522031297754e-10
			]
		},
		{
			"children":[
				15
			],
			"name":"Unterschenkel.R",
			"rotation":[
				0.023789310827851295,
				9.13925006784666e-08,
				9.505255610386953e-11,
				0.9997169971466064
			],
			"scale":[
				1,
				0.9999999403953552,
				1
			],
			"translation":[
				0,
				0.4300000071525574,
				0
			]
		},
		{
			"children":[
				16
			],
			"name":"Oberschenkel.R",
			"rotation":[
				1,
				0,
				-4.371138828673793e-08,
				0
			],
			"translation":[
				-0.10000000149011612,
				0,
				0
			]
		},
		{
			"children":[
				11,
				14,
				17
			],
			"name":"Becken",
			"translation":[
				0,
				0.949999988079071,
				0
			]
		},
		{
			"mesh":0,
			"name":"Dunkelmagier",
			"skin":0
		},
		{
			"children":[
				19,
				18
			],
			"name":"DunkelmagierSkelett"
		}
	],
	"animations":[
		{
			"channels":[
				{
					"sampler":0,
					"target":{
						"node":18,
						"path":"translation"
					}
				},
				{
					"sampler":1,
					"target":{
						"node":18,
						"path":"rotation"
					}
				},
				{
					"sampler":2,
					"target":{
						"node":18,
						"path":"scale"
					}
				},
				{
					"sampler":3,
					"target":{
						"node":11,
						"path":"translation"
					}
				},
				{
					"sampler":4,
					"target":{
						"node":11,
						"path":"rotation"
					}
				},
				{
					"sampler":5,
					"target":{
						"node":11,
						"path":"scale"
					}
				},
				{
					"sampler":6,
					"target":{
						"node":10,
						"path":"translation"
					}
				},
				{
					"sampler":7,
					"target":{
						"node":10,
						"path":"rotation"
					}
				},
				{
					"sampler":8,
					"target":{
						"node":10,
						"path":"scale"
					}
				},
				{
					"sampler":9,
					"target":{
						"node":2,
						"path":"translation"
					}
				},
				{
					"sampler":10,
					"target":{
						"node":2,
						"path":"rotation"
					}
				},
				{
					"sampler":11,
					"target":{
						"node":2,
						"path":"scale"
					}
				},
				{
					"sampler":12,
					"target":{
						"node":1,
						"path":"translation"
					}
				},
				{
					"sampler":13,
					"target":{
						"node":1,
						"path":"rotation"
					}
				},
				{
					"sampler":14,
					"target":{
						"node":1,
						"path":"scale"
					}
				},
				{
					"sampler":15,
					"target":{
						"node":0,
						"path":"translation"
					}
				},
				{
					"sampler":16,
					"target":{
						"node":0,
						"path":"rotation"
					}
				},
				{
					"sampler":17,
					"target":{
						"node":0,
						"path":"scale"
					}
				},
				{
					"sampler":18,
					"target":{
						"node":5,
						"path":"translation"
					}
				},
				{
					"sampler":19,
					"target":{
						"node":5,
						"path":"rotation"
					}
				},
				{
					"sampler":20,
					"target":{
						"node":5,
						"path":"scale"
					}
				},
				{
					"sampler":21,
					"target":{
						"node":4,
						"path":"translation"
					}
				},
				{
					"sampler":22,
					"target":{
						"node":4,
						"path":"rotation"
					}
				},
				{
					"sampler":23,
					"target":{
						"node":4,
						"path":"scale"
					}
				},
				{
					"sampler":24,
					"target":{
						"node":3,
						"path":"translation"
					}
				},
				{
					"sampler":25,
					"target":{
						"node":3,
						"path":"rotation"
					}
				},
				{
					"sampler":26,
					"target":{
						"node":3,
						"path":"scale"
					}
				},
				{
					"sampler":27,
					"target":{
						"node":9,
						"path":"translation"
					}
				},
				{
					"sampler":28,
					"target":{
						"node":9,
						"path":"rotation"
					}
				},
				{
					"sampler":29,
					"target":{
						"node":9,
						"path":"scale"
					}
				},
				{
					"sampler":30,
					"target":{
						"node":8,
						"path":"translation"
					}
				},
				{
					"sampler":31,
					"target":{
						"node":8,
						"path":"rotation"
					}
				},
				{
					"sampler":32,
					"target":{
						"node":8,
						"path":"scale"
					}
				},
				{
					"sampler":33,
					"target":{
						"node":7,
						"path":"translation"
					}
				},
				{
					"sampler":34,
					"target":{
						"node":7,
						"path":"rotation"
					}
				},
				{
					"sampler":35,
					"target":{
						"node":7,
						"path":"scale"
					}
				},
				{
					"sampler":36,
					"target":{
						"node":14,
						"path":"translation"
					}
				},
				{
					"sampler":37,
					"target":{
						"node":14,
						"path":"rotation"
					}
				},
				{
					"sampler":38,
					"target":{
						"node":14,
						"path":"scale"
					}
				},
				{
					"sampler":39,
					"target":{
						"node":13,
						"path":"translation"
					}
				},
				{
					"sampler":40,
					"target":{
						"node":13,
						"path":"rotation"
					}
				},
				{
					"sampler":41,
					"target":{
						"node":13,
						"path":"scale"
					}
				},
				{
					"sampler":42,
					"target":{
						"node":12,
						"path":"translation"
					}
				},
				{
					"sampler":43,
					"target":{
						"node":12,
						"path":"rotation"
					}
				},
				{
					"sampler":44,
					"target":{
						"node":12,
						"path":"scale"
					}
				},
				{
					"sampler":45,
					"target":{
						"node":17,
						"path":"translation"
					}
				},
				{
					"sampler":46,
					"target":{
						"node":17,
						"path":"rotation"
					}
				},
				{
					"sampler":47,
					"target":{
						"node":17,
						"path":"scale"
					}
				},
				{
					"sampler":48,
					"target":{
						"node":16,
						"path":"translation"
					}
				},
				{
					"sampler":49,
					"target":{
						"node":16,
						"path":"rotation"
					}
				},
				{
					"sampler":50,
					"target":{
						"node":16,
						"path":"scale"
					}
				},
				{
					"sampler":51,
					"target":{
						"node":15,
						"path":"translation"
					}
				},
				{
					"sampler":52,
					"target":{
						"node":15,
						"path":"rotation"
					}
				},
				{
					"sampler":53,
					"target":{
						"node":15,
						"path":"scale"
					}
				}
			],
			"name":"Angriff",
			"samplers":[
				{
					"input":11,
					"interpolation":"STEP",
					"output":12
				},
				{
					"input":11,
					"interpolation":"STEP",
					"output":13
				},
				{
					"input":11,
					"interpolation":"STEP",
					"output":14
				},
				{
					"input":11,
					"interpolation":"STEP",
					"output":15
				},
				{
					"input":16,
					"interpolation":"LINEAR",
					"output":17
				},
				{
					"input":11,
					"interpolation":"STEP",
					"output":14
				},
				{
					"input":11,
					"interpolation":"STEP",
					"output":18
				},
				{
					"input":16,
					"interpolation":"LINEAR",
					"output":19
				},
				{
					"input":11,
					"interpolation":"STEP",
					"output":14
				},
				{
					"input":11,
					"interpolation":"STEP",
					"output":20
				},
				{
					"input":11,
					"interpolation":"STEP",
					"output":13
				},
				{
					"input":11,
					"interpolation":"STEP",
					"output":14
				},
				{
					"input":11,
					"interpolation":"STEP",
					"output":21
				},
				{
					"input":11,
					"interpolation":"STEP",
					"output":13
				},
				{
					"input":11,
					"interpolation":"STEP",
					"output":14
				},
				{
					"input":11,
					"interpolation":"STEP",
					"output":22
				},
				{
					"input":16,
					"interpolation":"LINEAR",
					"output":23
				},
				{
					"input":11,
					"interpolation":"STEP",
					"output":24
				},
				{
					"input":11,
					"interpolation":"STEP",
					"output":25
				},
				{
					"input":16,
					"interpolation":"LINEAR",
					"output":26
				},
				{
					"input":11,
					"interpolation":"STEP",
					"output":27
				},
				{
					"input":11,
					"interpolation":"STEP",
					"output":28
				},
				{
					"input":16,
					"interpolation":"LINEAR",
					"output":29
				},
				{
					"input":11,
					"interpolation":"STEP",
					"output":30
				},
				{
					"input":11,
					"interpolation":"STEP",
					"output":31
				},
				{
					"input":11,
					"interpolation":"STEP",
					"output":32
				},
				{
					"input":11,
					"interpolation":"STEP",
					"output":33
				},
				{
					"input":11,
					"interpolation":"STEP",
					"output":34
				},
				{
					"input":16,
					"interpolation":"LINEAR",
					"output":35
				},
				{
					"input":11,
					"interpolation":"STEP",
					"output":36
				},
				{
					"input":11,
					"interpolation":"STEP",
					"output":37
				},
				{
					"input":16,
					"interpolation":"LINEAR",
					"output":38
				},
				{
					"input":11,
					"interpolation":"STEP",
					"output":39
				},
				{
					"input":11,
					"interpolation":"STEP",
					"output":40
				},
				{
					"input":11,
					"interpolation":"STEP",
					"output":41
				},
				{
					"input":11,
					"interpolation":"STEP",
					"output":42
				},
				{
					"input":11,
					"interpolation":"STEP",
					"output":43
				},
				{
					"input":11,
					"interpolation":"STEP",
					"output":44
				},
				{
					"input":11,
					"interpolation":"STEP",
					"output":14
				},
				{
					"input":11,
					"interpolation":"STEP",
					"output":45
				},
				{
					"input":11,
					"interpolation":"STEP",
					"output":46
				},
				{
					"input":11,
					"interpolation":"STEP",
					"output":47
				},
				{
					"input":11,
					"interpolation":"STEP",
					"output":48
				},
				{
					"input":11,
					"interpolation":"STEP",
					"output":49
				},
				{
					"input":11,
					"interpolation":"STEP",
					"output":50
				},
				{
					"input":11,
					"interpolation":"STEP",
					"output":51
				},
				{
					"input":11,
					"interpolation":"STEP",
					"output":44
				},
				{
					"input":11,
					"interpolation":"STEP",
					"output":14
				},
				{
					"input":11,
					"interpolation":"STEP",
					"output":52
				},
				{
					"input":11,
					"interpolation":"STEP",
					"output":46
				},
				{
					"input":11,
					"interpolation":"STEP",
					"output":47
				},
				{
					"input":11,
					"interpolation":"STEP",
					"output":53
				},
				{
					"input":11,
					"interpolation":"STEP",
					"output":49
				},
				{
					"input":11,
					"interpolation":"STEP",
					"output":50
				}
			]
		},
		{
			"channels":[
				{
					"sampler":0,
					"target":{
						"node":18,
						"path":"translation"
					}
				},
				{
					"sampler":1,
					"target":{
						"node":18,
						"path":"rotation"
					}
				},
				{
					"sampler":2,
					"target":{
						"node":18,
						"path":"scale"
					}
				},
				{
					"sampler":3,
					"target":{
						"node":11,
						"path":"translation"
					}
				},
				{
					"sampler":4,
					"target":{
						"node":11,
						"path":"rotation"
					}
				},
				{
					"sampler":5,
					"target":{
						"node":11,
						"path":"scale"
					}
				},
				{
					"sampler":6,
					"target":{
						"node":10,
						"path":"translation"
					}
				},
				{
					"sampler":7,
					"target":{
						"node":10,
						"path":"rotation"
					}
				},
				{
					"sampler":8,
					"target":{
						"node":10,
						"path":"scale"
					}
				},
				{
					"sampler":9,
					"target":{
						"node":2,
						"path":"translation"
					}
				},
				{
					"sampler":10,
					"target":{
						"node":2,
						"path":"rotation"
					}
				},
				{
					"sampler":11,
					"target":{
						"node":2,
						"path":"scale"
					}
				},
				{
					"sampler":12,
					"target":{
						"node":1,
						"path":"translation"
					}
				},
				{
					"sampler":13,
					"target":{
						"node":1,
						"path":"rotation"
					}
				},
				{
					"sampler":14,
					"target":{
						"node":1,
						"path":"scale"
					}
				},
				{
					"sampler":15,
					"target":{
						"node":0,
						"path":"translation"
					}
				},
				{
					"sampler":16,
					"target":{
						"node":0,
						"path":"rotation"
					}
				},
				{
					"sampler":17,
					"target":{
						"node":0,
						"path":"scale"
					}
				},
				{
					"sampler":18,
					"target":{
						"node":5,
						"path":"translation"
					}
				},
				{
					"sampler":19,
					"target":{
						"node":5,
						"path":"rotation"
					}
				},
				{
					"sampler":20,
					"target":{
						"node":5,
						"path":"scale"
					}
				},
				{
					"sampler":21,
					"target":{
						"node":4,
						"path":"translation"
					}
				},
				{
					"sampler":22,
					"target":{
						"node":4,
						"path":"rotation"
					}
				},
				{
					"sampler":23,
					"target":{
						"node":4,
						"path":"scale"
					}
				},
				{
					"sampler":24,
					"target":{
						"node":3,
						"path":"translation"
					}
				},
				{
					"sampler":25,
					"target":{
						"node":3,
						"path":"rotation"
					}
				},
				{
					"sampler":26,
					"target":{
						"node":3,
						"path":"scale"
					}
				},
				{
					"sampler":27,
					"target":{
						"node":9,
						"path":"translation"
					}
				},
				{
					"sampler":28,
					"target":{
						"node":9,
						"path":"rotation"
					}
				},
				{
					"sampler":29,
					"target":{
						"node":9,
						"path":"scale"
					}
				},
				{
					"sampler":30,
					"target":{
						"node":8,
						"path":"translation"
					}
				},
				{
					"sampler":31,
					"target":{
						"node":8,
						"path":"rotation"
					}
				},
				{
					"sampler":32,
					"target":{
						"node":8,
						"path":"scale"
					}
				},
				{
					"sampler":33,
					"target":{
						"node":7,
						"path":"translation"
					}
				},
				{
					"sampler":34,
					"target":{
						"node":7,
						"path":"rotation"
					}
				},
				{
					"sampler":35,
					"target":{
						"node":7,
						"path":"scale"
					}
				},
				{
					"sampler":36,
					"target":{
						"node":14,
						"path":"translation"
					}
				},
				{
					"sampler":37,
					"target":{
						"node":14,
						"path":"rotation"
					}
				},
				{
					"sampler":38,
					"target":{
						"node":14,
						"path":"scale"
					}
				},
				{
					"sampler":39,
					"target":{
						"node":13,
						"path":"translation"
					}
				},
				{
					"sampler":40,
					"target":{
						"node":13,
						"path":"rotation"
					}
				},
				{
					"sampler":41,
					"target":{
						"node":13,
						"path":"scale"
					}
				},
				{
					"sampler":42,
					"target":{
						"node":12,
						"path":"translation"
					}
				},
				{
					"sampler":43,
					"target":{
						"node":12,
						"path":"rotation"
					}
				},
				{
					"sampler":44,
					"target":{
						"node":12,
						"path":"scale"
					}
				},
				{
					"sampler":45,
					"target":{
						"node":17,
						"path":"translation"
					}
				},
				{
					"sampler":46,
					"target":{
						"node":17,
						"path":"rotation"
					}
				},
				{
					"sampler":47,
					"target":{
						"node":17,
						"path":"scale"
					}
				},
				{
					"sampler":48,
					"target":{
						"node":16,
						"path":"translation"
					}
				},
				{
					"sampler":49,
					"target":{
						"node":16,
						"path":"rotation"
					}
				},
				{
					"sampler":50,
					"target":{
						"node":16,
						"path":"scale"
					}
				},
				{
					"sampler":51,
					"target":{
						"node":15,
						"path":"translation"
					}
				},
				{
					"sampler":52,
					"target":{
						"node":15,
						"path":"rotation"
					}
				},
				{
					"sampler":53,
					"target":{
						"node":15,
						"path":"scale"
					}
				}
			],
			"name":"Idle",
			"samplers":[
				{
					"input":54,
					"interpolation":"LINEAR",
					"output":55
				},
				{
					"input":56,
					"interpolation":"STEP",
					"output":13
				},
				{
					"input":56,
					"interpolation":"STEP",
					"output":14
				},
				{
					"input":56,
					"interpolation":"STEP",
					"output":15
				},
				{
					"input":54,
					"interpolation":"LINEAR",
					"output":57
				},
				{
					"input":56,
					"interpolation":"STEP",
					"output":14
				},
				{
					"input":56,
					"interpolation":"STEP",
					"output":18
				},
				{
					"input":54,
					"interpolation":"LINEAR",
					"output":58
				},
				{
					"input":56,
					"interpolation":"STEP",
					"output":14
				},
				{
					"input":56,
					"interpolation":"STEP",
					"output":20
				},
				{
					"input":56,
					"interpolation":"STEP",
					"output":13
				},
				{
					"input":56,
					"interpolation":"STEP",
					"output":14
				},
				{
					"input":56,
					"interpolation":"STEP",
					"output":21
				},
				{
					"input":54,
					"interpolation":"LINEAR",
					"output":59
				},
				{
					"input":56,
					"interpolation":"STEP",
					"output":14
				},
				{
					"input":56,
					"interpolation":"STEP",
					"output":60
				},
				{
					"input":56,
					"interpolation":"STEP",
					"output":61
				},
				{
					"input":56,
					"interpolation":"STEP",
					"output":24
				},
				{
					"input":56,
					"interpolation":"STEP",
					"output":25
				},
				{
					"input":54,
					"interpolation":"LINEAR",
					"output":62
				},
				{
					"input":56,
					"interpolation":"STEP",
					"output":42
				},
				{
					"input":56,
					"interpolation":"STEP",
					"output":63
				},
				{
					"input":56,
					"interpolation":"STEP",
					"output":64
				},
				{
					"input":56,
					"interpolation":"STEP",
					"output":65
				},
				{
					"input":56,
					"interpolation":"STEP",
					"output":66
				},
				{
					"input":56,
					"interpolation":"STEP",
					"output":67
				},
				{
					"input":56,
					"interpolation":"STEP",
					"output":68
				},
				{
					"input":56,
					"interpolation":"STEP",
					"output":34
				},
				{
					"input":56,
					"interpolation":"STEP",
					"output":69
				},
				{
					"input":56,
					"interpolation":"STEP",
					"output":70
				},
				{
					"input":56,
					"interpolation":"STEP",
					"output":71
				},
				{
					"input":56,
					"interpolation":"STEP",
					"output":72
				},
				{
					"input":56,
					"interpolation":"STEP",
					"output":24
				},
				{
					"input":56,
					"interpolation":"STEP",
					"output":73
				},
				{
					"input":56,
					"interpolation":"STEP",
					"output":74
				},
				{
					"input":56,
					"interpolation":"STEP",
					"output":50
				},
				{
					"input":56,
					"interpolation":"STEP",
					"output":43
				},
				{
					"input":56,
					"interpolation":"STEP",
					"output":44
				},
				{
					"input":56,
					"interpolation":"STEP",
					"output":14
				},
				{
					"input":56,
					"interpolation":"STEP",
					"output":45
				},
				{
					"input":56,
					"interpolation":"STEP",
					"output":46
				},
				{
					"input":56,
					"interpolation":"STEP",
					"output":47
				},
				{
					"input":56,
					"interpolation":"STEP",
					"output":48
				},
				{
					"input":56,
					"interpolation":"STEP",
					"output":49
				},
				{
					"input":56,
					"interpolation":"STEP",
					"output":50
				},
				{
					"input":56,
					"interpolation":"STEP",
					"output":51
				},
				{
					"input":56,
					"interpolation":"STEP",
					"output":44
				},
				{
					"input":56,
					"interpolation":"STEP",
					"output":14
				},
				{
					"input":56,
					"interpolation":"STEP",
					"output":52
				},
				{
					"input":56,
					"interpolation":"STEP",
					"output":46
				},
				{
					"input":56,
					"interpolation":"STEP",
					"output":47
				},
				{
					"input":56,
					"interpolation":"STEP",
					"output":53
				},
				{
					"input":56,
					"interpolation":"STEP",
					"output":49
				},
				{
					"input":56,
					"interpolation":"STEP",
					"output":50
				}
			]
		},
		{
			"channels":[
				{
					"sampler":0,
					"target":{
						"node":18,
						"path":"translation"
					}
				},
				{
					"sampler":1,
					"target":{
						"node":18,
						"path":"rotation"
					}
				},
				{
					"sampler":2,
					"target":{
						"node":18,
						"path":"scale"
					}
				},
				{
					"sampler":3,
					"target":{
						"node":11,
						"path":"translation"
					}
				},
				{
					"sampler":4,
					"target":{
						"node":11,
						"path":"rotation"
					}
				},
				{
					"sampler":5,
					"target":{
						"node":11,
						"path":"scale"
					}
				},
				{
					"sampler":6,
					"target":{
						"node":10,
						"path":"translation"
					}
				},
				{
					"sampler":7,
					"target":{
						"node":10,
						"path":"rotation"
					}
				},
				{
					"sampler":8,
					"target":{
						"node":10,
						"path":"scale"
					}
				},
				{
					"sampler":9,
					"target":{
						"node":2,
						"path":"translation"
					}
				},
				{
					"sampler":10,
					"target":{
						"node":2,
						"path":"rotation"
					}
				},
				{
					"sampler":11,
					"target":{
						"node":2,
						"path":"scale"
					}
				},
				{
					"sampler":12,
					"target":{
						"node":1,
						"path":"translation"
					}
				},
				{
					"sampler":13,
					"target":{
						"node":1,
						"path":"rotation"
					}
				},
				{
					"sampler":14,
					"target":{
						"node":1,
						"path":"scale"
					}
				},
				{
					"sampler":15,
					"target":{
						"node":0,
						"path":"translation"
					}
				},
				{
					"sampler":16,
					"target":{
						"node":0,
						"path":"rotation"
					}
				},
				{
					"sampler":17,
					"target":{
						"node":0,
						"path":"scale"
					}
				},
				{
					"sampler":18,
					"target":{
						"node":5,
						"path":"translation"
					}
				},
				{
					"sampler":19,
					"target":{
						"node":5,
						"path":"rotation"
					}
				},
				{
					"sampler":20,
					"target":{
						"node":5,
						"path":"scale"
					}
				},
				{
					"sampler":21,
					"target":{
						"node":4,
						"path":"translation"
					}
				},
				{
					"sampler":22,
					"target":{
						"node":4,
						"path":"rotation"
					}
				},
				{
					"sampler":23,
					"target":{
						"node":4,
						"path":"scale"
					}
				},
				{
					"sampler":24,
					"target":{
						"node":3,
						"path":"translation"
					}
				},
				{
					"sampler":25,
					"target":{
						"node":3,
						"path":"rotation"
					}
				},
				{
					"sampler":26,
					"target":{
						"node":3,
						"path":"scale"
					}
				},
				{
					"sampler":27,
					"target":{
						"node":9,
						"path":"translation"
					}
				},
				{
					"sampler":28,
					"target":{
						"node":9,
						"path":"rotation"
					}
				},
				{
					"sampler":29,
					"target":{
						"node":9,
						"path":"scale"
					}
				},
				{
					"sampler":30,
					"target":{
						"node":8,
						"path":"translation"
					}
				},
				{
					"sampler":31,
					"target":{
						"node":8,
						"path":"rotation"
					}
				},
				{
					"sampler":32,
					"target":{
						"node":8,
						"path":"scale"
					}
				},
				{
					"sampler":33,
					"target":{
						"node":7,
						"path":"translation"
					}
				},
				{
					"sampler":34,
					"target":{
						"node":7,
						"path":"rotation"
					}
				},
				{
					"sampler":35,
					"target":{
						"node":7,
						"path":"scale"
					}
				},
				{
					"sampler":36,
					"target":{
						"node":14,
						"path":"translation"
					}
				},
				{
					"sampler":37,
					"target":{
						"node":14,
						"path":"rotation"
					}
				},
				{
					"sampler":38,
					"target":{
						"node":14,
						"path":"scale"
					}
				},
				{
					"sampler":39,
					"target":{
						"node":13,
						"path":"translation"
					}
				},
				{
					"sampler":40,
					"target":{
						"node":13,
						"path":"rotation"
					}
				},
				{
					"sampler":41,
					"target":{
						"node":13,
						"path":"scale"
					}
				},
				{
					"sampler":42,
					"target":{
						"node":12,
						"path":"translation"
					}
				},
				{
					"sampler":43,
					"target":{
						"node":12,
						"path":"rotation"
					}
				},
				{
					"sampler":44,
					"target":{
						"node":12,
						"path":"scale"
					}
				},
				{
					"sampler":45,
					"target":{
						"node":17,
						"path":"translation"
					}
				},
				{
					"sampler":46,
					"target":{
						"node":17,
						"path":"rotation"
					}
				},
				{
					"sampler":47,
					"target":{
						"node":17,
						"path":"scale"
					}
				},
				{
					"sampler":48,
					"target":{
						"node":16,
						"path":"translation"
					}
				},
				{
					"sampler":49,
					"target":{
						"node":16,
						"path":"rotation"
					}
				},
				{
					"sampler":50,
					"target":{
						"node":16,
						"path":"scale"
					}
				},
				{
					"sampler":51,
					"target":{
						"node":15,
						"path":"translation"
					}
				},
				{
					"sampler":52,
					"target":{
						"node":15,
						"path":"rotation"
					}
				},
				{
					"sampler":53,
					"target":{
						"node":15,
						"path":"scale"
					}
				}
			],
			"name":"Laufen",
			"samplers":[
				{
					"input":75,
					"interpolation":"LINEAR",
					"output":76
				},
				{
					"input":75,
					"interpolation":"LINEAR",
					"output":77
				},
				{
					"input":78,
					"interpolation":"STEP",
					"output":14
				},
				{
					"input":78,
					"interpolation":"STEP",
					"output":15
				},
				{
					"input":78,
					"interpolation":"STEP",
					"output":79
				},
				{
					"input":78,
					"interpolation":"STEP",
					"output":14
				},
				{
					"input":78,
					"interpolation":"STEP",
					"output":80
				},
				{
					"input":75,
					"interpolation":"LINEAR",
					"output":81
				},
				{
					"input":78,
					"interpolation":"STEP",
					"output":14
				},
				{
					"input":78,
					"interpolation":"STEP",
					"output":82
				},
				{
					"input":78,
					"interpolation":"STEP",
					"output":83
				},
				{
					"input":78,
					"interpolation":"STEP",
					"output":84
				},
				{
					"input":78,
					"interpolation":"STEP",
					"output":85
				},
				{
					"input":75,
					"interpolation":"LINEAR",
					"output":86
				},
				{
					"input":78,
					"interpolation":"STEP",
					"output":84
				},
				{
					"input":78,
					"interpolation":"STEP",
					"output":87
				},
				{
					"input":75,
					"interpolation":"LINEAR",
					"output":88
				},
				{
					"input":78,
					"interpolation":"STEP",
					"output":24
				},
				{
					"input":78,
					"interpolation":"STEP",
					"output":89
				},
				{
					"input":75,
					"interpolation":"LINEAR",
					"output":90
				},
				{
					"input":78,
					"interpolation":"STEP",
					"output":91
				},
				{
					"input":78,
					"interpolation":"STEP",
					"output":92
				},
				{
					"input":78,
					"interpolation":"STEP",
					"output":93
				},
				{
					"input":78,
					"interpolation":"STEP",
					"output":94
				},
				{
					"input":78,
					"interpolation":"STEP",
					"output":95
				},
				{
					"input":78,
					"interpolation":"STEP",
					"output":96
				},
				{
					"input":78,
					"interpolation":"STEP",
					"output":33
				},
				{
					"input":78,
					"interpolation":"STEP",
					"output":97
				},
				{
					"input":75,
					"interpolation":"LINEAR",
					"output":98
				},
				{
					"input":78,
					"interpolation":"STEP",
					"output":99
				},
				{
					"input":78,
					"interpolation":"STEP",
					"output":100
				},
				{
					"input":78,
					"interpolation":"STEP",
					"output":101
				},
				{
					"input":78,
					"interpolation":"STEP",
					"output":102
				},
				{
					"input":78,
					"interpolation":"STEP",
					"output":103
				},
				{
					"input":78,
					"interpolation":"STEP",
					"output":104
				},
				{
					"input":78,
					"interpolation":"STEP",
					"output":105
				},
				{
					"input":78,
					"interpolation":"STEP",
					"output":43
				},
				{
					"input":75,
					"interpolation":"LINEAR",
					"output":106
				},
				{
					"input":78,
					"interpolation":"STEP",
					"output":14
				},
				{
					"input":78,
					"interpolation":"STEP",
					"output":107
				},
				{
					"input":75,
					"interpolation":"LINEAR",
					"output":108
				},
				{
					"input":78,
					"interpolation":"STEP",
					"output":47
				},
				{
					"input":78,
					"interpolation":"STEP",
					"output":109
				},
				{
					"input":75,
					"interpolation":"LINEAR",
					"output":110
				},
				{
					"input":78,
					"interpolation":"STEP",
					"output":111
				},
				{
					"input":78,
					"interpolation":"STEP",
					"output":51
				},
				{
					"input":75,
					"interpolation":"LINEAR",
					"output":112
				},
				{
					"input":78,
					"interpolation":"STEP",
					"output":14
				},
				{
					"input":78,
					"interpolation":"STEP",
					"output":113
				},
				{
					"input":75,
					"interpolation":"LINEAR",
					"output":114
				},
				{
					"input":78,
					"interpolation":"STEP",
					"output":47
				},
				{
					"input":78,
					"interpolation":"STEP",
					"output":115
				},
				{
					"input":75,
					"interpolation":"LINEAR",
					"output":116
				},
				{
					"input":78,
					"interpolation":"STEP",
					"output":111
				}
			]
		}
	],
	"materials":[
		{
			"doubleSided":true,
			"name":"Dunkelmagier",
			"pbrMetallicRoughness":{
				"metallicFactor":0,
				"roughnessFactor":0.8500000238418579
			}
		}
	],
	"meshes":[
		{
			"name":"Koerper",
			"primitives":[
				{
					"attributes":{
						"POSITION":0,
						"NORMAL":1,
						"COLOR_0":2,
						"JOINTS_0":3,
						"WEIGHTS_0":4
					},
					"indices":5,
					"material":0
				}
			]
		},
		{
			"name":"Stab",
			"primitives":[
				{
					"attributes":{
						"POSITION":7,
						"NORMAL":8,
						"COLOR_0":9
					},
					"indices":10,
					"material":0
				}
			]
		}
	],
	"skins":[
		{
			"inverseBindMatrices":6,
			"joints":[
				18,
				11,
				10,
				2,
				1,
				0,
				5,
				4,
				3,
				9,
				8,
				7,
				14,
				13,
				12,
				17,
				16,
				15
			],
			"name":"DunkelmagierSkelett"
		}
	],
	"accessors":[
		{
			"bufferView":0,
			"componentType":5126,
			"count":13616,
			"max":[
				0.4700457751750946,
				2.0226755142211914,
				0.24711304903030396
			],
			"min":[
				-0.46289652585983276,
				-0.0016493004513904452,
				-0.3598259389400482
			],
			"type":"VEC3"
		},
		{
			"bufferView":1,
			"componentType":5126,
			"count":13616,
			"type":"VEC3"
		},
		{
			"bufferView":2,
			"componentType":5126,
			"count":13616,
			"type":"VEC3"
		},
		{
			"bufferView":3,
			"componentType":5121,
			"count":13616,
			"type":"VEC4"
		},
		{
			"bufferView":4,
			"componentType":5126,
			"count":13616,
			"type":"VEC4"
		},
		{
			"bufferView":5,
			"componentType":5123,
			"count":52440,
			"type":"SCALAR"
		},
		{
			"bufferView":6,
			"componentType":5126,
			"count":18,
			"type":"MAT4"
		},
		{
			"bufferView":7,
			"componentType":5126,
			"count":1235,
			"max":[
				-0.26118922233581543,
				2.299999952316284,
				0.10881081968545914
			],
			"min":[
				-0.4388108253479004,
				0.04922895506024361,
				-0.06881082057952881
			],
			"type":"VEC3"
		},
		{
			"bufferView":8,
			"componentType":5126,
			"count":1235,
			"type":"VEC3"
		},
		{
			"bufferView":9,
			"componentType":5126,
			"count":1235,
			"type":"VEC3"
		},
		{
			"bufferView":10,
			"componentType":5123,
			"count":2754,
			"type":"SCALAR"
		},
		{
			"bufferView":11,
			"componentType":5126,
			"count":2,
			"max":[
				1.0666666666666667
			],
			"min":[
				0
			],
			"type":"SCALAR"
		},
		{
			"bufferView":12,
			"componentType":5126,
			"count":2,
			"type":"VEC3"
		},
		{
			"bufferView":13,
			"componentType":5126,
			"count":2,
			"type":"VEC4"
		},
		{
			"bufferView":14,
			"componentType":5126,
			"count":2,
			"type":"VEC3"
		},
		{
			"bufferView":15,
			"componentType":5126,
			"count":2,
			"type":"VEC3"
		},
		{
			"bufferView":16,
			"componentType":5126,
			"count":33,
			"max":[
				1.0666666666666667
			],
			"min":[
				0
			],
			"type":"SCALAR"
		},
		{
			"bufferView":17,
			"componentType":5126,
			"count":33,
			"type":"VEC4"
		},
		{
			"bufferView":18,
			"componentType":5126,
			"count":2,
			"type":"VEC3"
		},
		{
			"bufferView":19,
			"componentType":5126,
			"count":33,
			"type":"VEC4"
		},
		{
			"bufferView":20,
			"componentType":5126,
			"count":2,
			"type":"VEC3"
		},
		{
			"bufferView":21,
			"componentType":5126,
			"count":2,
			"type":"VEC3"
		},
		{
			"bufferView":22,
			"componentType":5126,
			"count":2,
			"type":"VEC3"
		},
		{
			"bufferView":23,
			"componentType":5126,
			"count":33,
			"type":"VEC4"
		},
		{
			"bufferView":24,
			"componentType":5126,
			"count":2,
			"type":"VEC3"
		},
		{
			"bufferView":25,
			"componentType":5126,
			"count":2,
			"type":"VEC3"
		},
		{
			"bufferView":26,
			"componentType":5126,
			"count":33,
			"type":"VEC4"
		},
		{
			"bufferView":27,
			"componentType":5126,
			"count":2,
			"type":"VEC3"
		},
		{
			"bufferView":28,
			"componentType":5126,
			"count":2,
			"type":"VEC3"
		},
		{
			"bufferView":29,
			"componentType":5126,
			"count":33,
			"type":"VEC4"
		},
		{
			"bufferView":30,
			"componentType":5126,
			"count":2,
			"type":"VEC3"
		},
		{
			"bufferView":31,
			"componentType":5126,
			"count":2,
			"type":"VEC3"
		},
		{
			"bufferView":32,
			"componentType":5126,
			"count":2,
			"type":"VEC4"
		},
		{
			"bufferView":33,
			"componentType":5126,
			"count":2,
			"type":"VEC3"
		},
		{
			"bufferView":34,
			"componentType":5126,
			"count":2,
			"type":"VEC3"
		},
		{
			"bufferView":35,
			"componentType":5126,
			"count":33,
			"type":"VEC4"
		},
		{
			"bufferView":36,
			"componentType":5126,
			"count":2,
			"type":"VEC3"
		},
		{
			"bufferView":37,
			"componentType":5126,
			"count":2,
			"type":"VEC3"
		},
		{
			"bufferView":38,
			"componentType":5126,
			"count":33,
			"type":"VEC4"
		},
		{
			"bufferView":39,
			"componentType":5126,
			"count":2,
			"type":"VEC3"
		},
		{
			"bufferView":40,
			"componentType":5126,
			"count":2,
			"type":"VEC3"
		},
		{
			"bufferView":41,
			"componentType":5126,
			"count":2,
			"type":"VEC4"
		},
		{
			"bufferView":42,
			"componentType":5126,
			"count":2,
			"type":"VEC3"
		},
		{
			"bufferView":43,
			"componentType":5126,
			"count":2,
			"type":"VEC3"
		},
		{
			"bufferView":44,
			"componentType":5126,
			"count":2,
			"type":"VEC4"
		},
		{
			"bufferView":45,
			"componentType":5126,
			"count":2,
			"type":"VEC3"
		},
		{
			"bufferView":46,
			"componentType":5126,
			"count":2,
			"type":"VEC4"
		},
		{
			"bufferView":47,
			"componentType":5126,
			"count":2,
			"type":"VEC3"
		},
		{
			"bufferView":48,
			"componentType":5126,
			"count":2,
			"type":"VEC3"
		},
		{
			"bufferView":49,
			"componentType":5126,
			"count":2,
			"type":"VEC4"
		},
		{
			"bufferView":50,
			"componentType":5126,
			"count":2,
			"type":"VEC3"
		},
		{
			"bufferView":51,
			"componentType":5126,
			"count":2,
			"type":"VEC3"
		},
		{
			"bufferView":52,
			"componentType":5126,
			"count":2,
			"type":"VEC3"
		},
		{
			"bufferView":53,
			"componentType":5126,
			"count":2,
			"type":"VEC3"
		},
		{
			"bufferView":54,
			"componentType":5126,
			"count":181,
			"max":[
				6
			],
			"min":[
				0
			],
			"type":"SCALAR"
		},
		{
			"bufferView":55,
			"componentType":5126,
			"count":181,
			"type":"VEC3"
		},
		{
			"bufferView":56,
			"componentType":5126,
			"count":2,
			"max":[
				6
			],
			"min":[
				0
			],
			"type":"SCALAR"
		},
		{
			"bufferView":57,
			"componentType":5126,
			"count":181,
			"type":"VEC4"
		},
		{
			"bufferView":58,
			"componentType":5126,
			"count":181,
			"type":"VEC4"
		},
		{
			"bufferView":59,
			"componentType":5126,
			"count":181,
			"type":"VEC4"
		},
		{
			"bufferView":60,
			"componentType":5126,
			"count":2,
			"type":"VEC3"
		},
		{
			"bufferView":61,
			"componentType":5126,
			"count":2,
			"type":"VEC4"
		},
		{
			"bufferView":62,
			"componentType":5126,
			"count":181,
			"type":"VEC4"
		},
		{
			"bufferView":63,
			"componentType":5126,
			"count":2,
			"type":"VEC3"
		},
		{
			"bufferView":64,
			"componentType":5126,
			"count":2,
			"type":"VEC4"
		},
		{
			"bufferView":65,
			"componentType":5126,
			"count":2,
			"type":"VEC3"
		},
		{
			"bufferView":66,
			"componentType":5126,
			"count":2,
			"type":"VEC3"
		},
		{
			"bufferView":67,
			"componentType":5126,
			"count":2,
			"type":"VEC4"
		},
		{
			"bufferView":68,
			"componentType":5126,
			"count":2,
			"type":"VEC3"
		},
		{
			"bufferView":69,
			"componentType":5126,
			"count":2,
			"type":"VEC4"
		},
		{
			"bufferView":70,
			"componentType":5126,
			"count":2,
			"type":"VEC3"
		},
		{
			"bufferView":71,
			"componentType":5126,
			"count":2,
			"type":"VEC3"
		},
		{
			"bufferView":72,
			"componentType":5126,
			"count":2,
			"type":"VEC4"
		},
		{
			"bufferView":73,
			"componentType":5126,
			"count":2,
			"type":"VEC3"
		},
		{
			"bufferView":74,
			"componentType":5126,
			"count":2,
			"type":"VEC4"
		},
		{
			"bufferView":75,
			"componentType":5126,
			"count":31,
			"max":[
				1
			],
			"min":[
				0
			],
			"type":"SCALAR"
		},
		{
			"bufferView":76,
			"componentType":5126,
			"count":31,
			"type":"VEC3"
		},
		{
			"bufferView":77,
			"componentType":5126,
			"count":31,
			"type":"VEC4"
		},
		{
			"bufferView":78,
			"componentType":5126,
			"count":2,
			"max":[
				1
			],
			"min":[
				0
			],
			"type":"SCALAR"
		},
		{
			"bufferView":79,
			"componentType":5126,
			"count":2,
			"type":"VEC4"
		},
		{
			"bufferView":80,
			"componentType":5126,
			"count":2,
			"type":"VEC3"
		},
		{
			"bufferView":81,
			"componentType":5126,
			"count":31,
			"type":"VEC4"
		},
		{
			"bufferView":82,
			"componentType":5126,
			"count":2,
			"type":"VEC3"
		},
		{
			"bufferView":83,
			"componentType":5126,
			"count":2,
			"type":"VEC4"
		},
		{
			"bufferView":84,
			"componentType":5126,
			"count":2,
			"type":"VEC3"
		},
		{
			"bufferView":85,
			"componentType":5126,
			"count":2,
			"type":"VEC3"
		},
		{
			"bufferView":86,
			"componentType":5126,
			"count":31,
			"type":"VEC4"
		},
		{
			"bufferView":87,
			"componentType":5126,
			"count":2,
			"type":"VEC3"
		},
		{
			"bufferView":88,
			"componentType":5126,
			"count":31,
			"type":"VEC4"
		},
		{
			"bufferView":89,
			"componentType":5126,
			"count":2,
			"type":"VEC3"
		},
		{
			"bufferView":90,
			"componentType":5126,
			"count":31,
			"type":"VEC4"
		},
		{
			"bufferView":91,
			"componentType":5126,
			"count":2,
			"type":"VEC3"
		},
		{
			"bufferView":92,
			"componentType":5126,
			"count":2,
			"type":"VEC3"
		},
		{
			"bufferView":93,
			"componentType":5126,
			"count":2,
			"type":"VEC4"
		},
		{
			"bufferView":94,
			"componentType":5126,
			"count":2,
			"type":"VEC3"
		},
		{
			"bufferView":95,
			"componentType":5126,
			"count":2,
			"type":"VEC3"
		},
		{
			"bufferView":96,
			"componentType":5126,
			"count":2,
			"type":"VEC4"
		},
		{
			"bufferView":97,
			"componentType":5126,
			"count":2,
			"type":"VEC3"
		},
		{
			"bufferView":98,
			"componentType":5126,
			"count":31,
			"type":"VEC4"
		},
		{
			"bufferView":99,
			"componentType":5126,
			"count":2,
			"type":"VEC3"
		},
		{
			"bufferView":100,
			"componentType":5126,
			"count":2,
			"type":"VEC3"
		},
		{
			"bufferView":101,
			"componentType":5126,
			"count":2,
			"type":"VEC4"
		},
		{
			"bufferView":102,
			"componentType":5126,
			"count":2,
			"type":"VEC3"
		},
		{
			"bufferView":103,
			"componentType":5126,
			"count":2,
			"type":"VEC3"
		},
		{
			"bufferView":104,
			"componentType":5126,
			"count":2,
			"type":"VEC4"
		},
		{
			"bufferView":105,
			"componentType":5126,
			"count":2,
			"type":"VEC3"
		},
		{
			"bufferView":106,
			"componentType":5126,
			"count":31,
			"type":"VEC4"
		},
		{
			"bufferView":107,
			"componentType":5126,
			"count":2,
			"type":"VEC3"
		},
		{
			"bufferView":108,
			"componentType":5126,
			"count":31,
			"type":"VEC4"
		},
		{
			"bufferView":109,
			"componentType":5126,
			"count":2,
			"type":"VEC3"
		},
		{
			"bufferView":110,
			"componentType":5126,
			"count":31,
			"type":"VEC4"
		},
		{
			"bufferView":111,
			"componentType":5126,
			"count":2,
			"type":"VEC3"
		},
		{
			"bufferView":112,
			"componentType":5126,
			"count":31,
			"type":"VEC4"
		},
		{
			"bufferView":113,
			"componentType":5126,
			"count":2,
			"type":"VEC3"
		},
		{
			"bufferView":114,
			"componentType":5126,
			"count":31,
			"type":"VEC4"
		},
		{
			"bufferView":115,
			"componentType":5126,
			"count":2,
			"type":"VEC3"
		},
		{
			"bufferView":116,
			"componentType":5126,
			"count":31,
			"type":"VEC4"
		}
	],
	"bufferViews":[
		{
			"buffer":0,
			"byteLength":163392,
			"byteOffset":0,
			"target":34962
		},
		{
			"buffer":0,
			"byteLength":163392,
			"byteOffset":163392,
			"target":34962
		},
		{
			"buffer":0,
			"byteLength":163392,
			"byteOffset":326784,
			"target":34962
		},
		{
			"buffer":0,
			"byteLength":54464,
			"byteOffset":490176,
			"target":34962
		},
		{
			"buffer":0,
			"byteLength":217856,
			"byteOffset":544640,
			"target":34962
		},
		{
			"buffer":0,
			"byteLength":104880,
			"byteOffset":762496,
			"target":34963
		},
		{
			"buffer":0,
			"byteLength":1152,
			"byteOffset":867376
		},
		{
			"buffer":0,
			"byteLength":14820,
			"byteOffset":868528,
			"target":34962
		},
		{
			"buffer":0,
			"byteLength":14820,
			"byteOffset":883348,
			"target":34962
		},
		{
			"buffer":0,
			"byteLength":14820,
			"byteOffset":898168,
			"target":34962
		},
		{
			"buffer":0,
			"byteLength":5508,
			"byteOffset":912988,
			"target":34963
		},
		{
			"buffer":0,
			"byteLength":8,
			"byteOffset":918496
		},
		{
			"buffer":0,
			"byteLength":24,
			"byteOffset":918504
		},
		{
			"buffer":0,
			"byteLength":32,
			"byteOffset":918528
		},
		{
			"buffer":0,
			"byteLength":24,
			"byteOffset":918560
		},
		{
			"buffer":0,
			"byteLength":24,
			"byteOffset":918584
		},
		{
			"buffer":0,
			"byteLength":132,
			"byteOffset":918608
		},
		{
			"buffer":0,
			"byteLength":528,
			"byteOffset":918740
		},
		{
			"buffer":0,
			"byteLength":24,
			"byteOffset":919268
		},
		{
			"buffer":0,
			"byteLength":528,
			"byteOffset":919292
		},
		{
			"buffer":0,
			"byteLength":24,
			"byteOffset":919820
		},
		{
			"buffer":0,
			"byteLength":24,
			"byteOffset":919844
		},
		{
			"buffer":0,
			"byteLength":24,
			"byteOffset":919868
		},
		{
			"buffer":0,
			"byteLength":528,
			"byteOffset":919892
		},
		{
			"buffer":0,
			"byteLength":24,
			"byteOffset":920420
		},
		{
			"buffer":0,
			"byteLength":24,
			"byteOffset":920444
		},
		{
			"buffer":0,
			"byteLength":528,
			"byteOffset":920468
		},
		{
			"buffer":0,
			"byteLength":24,
			"byteOffset":920996
		},
		{
			"buffer":0,
			"byteLength":24,
			"byteOffset":921020
		},
		{
			"buffer":0,
			"byteLength":528,
			"byteOffset":921044
		},
		{
			"buffer":0,
			"byteLength":24,
			"byteOffset":921572
		},
		{
			"buffer":0,
			"byteLength":24,
			"byteOffset":921596
		},
		{
			"buffer":0,
			"byteLength":32,
			"byteOffset":921620
		},
		{
			"buffer":0,
			"byteLength":24,
			"byteOffset":921652
		},
		{
			"buffer":0,
			"byteLength":24,
			"byteOffset":921676
		},
		{
			"buffer":0,
			"byteLength":528,
			"byteOffset":921700
		},
		{
			"buffer":0,
			"byteLength":24,
			"byteOffset":922228
		},
		{
			"buffer":0,
			"byteLength":24,
			"byteOffset":922252
		},
		{
			"buffer":0,
			"byteLength":528,
			"byteOffset":922276
		},
		{
			"buffer":0,
			"byteLength":24,
			"byteOffset":922804
		},
		{
			"buffer":0,
			"byteLength":24,
			"byteOffset":922828
		},
		{
			"buffer":0,
			"byteLength":32,
			"byteOffset":922852
		},
		{
			"buffer":0,
			"byteLength":24,
			"byteOffset":922884
		},
		{
			"buffer":0,
			"byteLength":24,
			"byteOffset":922908
		},
		{
			"buffer":0,
			"byteLength":32,
			"byteOffset":922932
		},
		{
			"buffer":0,
			"byteLength":24,
			"byteOffset":922964
		},
		{
			"buffer":0,
			"byteLength":32,
			"byteOffset":922988
		},
		{
			"buffer":0,
			"byteLength":24,
			"byteOffset":923020
		},
		{
			"buffer":0,
			"byteLength":24,
			"byteOffset":923044
		},
		{
			"buffer":0,
			"byteLength":32,
			"byteOffset":923068
		},
		{
			"buffer":0,
			"byteLength":24,
			"byteOffset":923100
		},
		{
			"buffer":0,
			"byteLength":24,
			"byteOffset":923124
		},
		{
			"buffer":0,
			"byteLength":24,
			"byteOffset":923148
		},
		{
			"buffer":0,
			"byteLength":24,
			"byteOffset":923172
		},
		{
			"buffer":0,
			"byteLength":724,
			"byteOffset":923196
		},
		{
			"buffer":0,
			"byteLength":2172,
			"byteOffset":923920
		},
		{
			"buffer":0,
			"byteLength":8,
			"byteOffset":926092
		},
		{
			"buffer":0,
			"byteLength":2896,
			"byteOffset":926100
		},
		{
			"buffer":0,
			"byteLength":2896,
			"byteOffset":928996
		},
		{
			"buffer":0,
			"byteLength":2896,
			"byteOffset":931892
		},
		{
			"buffer":0,
			"byteLength":24,
			"byteOffset":934788
		},
		{
			"buffer":0,
			"byteLength":32,
			"byteOffset":934812
		},
		{
			"buffer":0,
			"byteLength":2896,
			"byteOffset":934844
		},
		{
			"buffer":0,
			"byteLength":24,
			"byteOffset":937740
		},
		{
			"buffer":0,
			"byteLength":32,
			"byteOffset":937764
		},
		{
			"buffer":0,
			"byteLength":24,
			"byteOffset":937796
		},
		{
			"buffer":0,
			"byteLength":24,
			"byteOffset":937820
		},
		{
			"buffer":0,
			"byteLength":32,
			"byteOffset":937844
		},
		{
			"buffer":0,
			"byteLength":24,
			"byteOffset":937876
		},
		{
			"buffer":0,
			"byteLength":32,
			"byteOffset":937900
		},
		{
			"buffer":0,
			"byteLength":24,
			"byteOffset":937932
		},
		{
			"buffer":0,
			"byteLength":24,
			"byteOffset":937956
		},
		{
			"buffer":0,
			"byteLength":32,
			"byteOffset":937980
		},
		{
			"buffer":0,
			"byteLength":24,
			"byteOffset":938012
		},
		{
			"buffer":0,
			"byteLength":32,
			"byteOffset":938036
		},
		{
			"buffer":0,
			"byteLength":124,
			"byteOffset":938068
		},
		{
			"buffer":0,
			"byteLength":372,
			"byteOffset":938192
		},
		{
			"buffer":0,
			"byteLength":496,
			"byteOffset":938564
		},
		{
			"buffer":0,
			"byteLength":8,
			"byteOffset":939060
		},
		{
			"buffer":0,
			"byteLength":32,
			"byteOffset":939068
		},
		{
			"buffer":0,
			"byteLength":24,
			"byteOffset":939100
		},
		{
			"buffer":0,
			"byteLength":496,
			"byteOffset":939124
		},
		{
			"buffer":0,
			"byteLength":24,
			"byteOffset":939620
		},
		{
			"buffer":0,
			"byteLength":32,
			"byteOffset":939644
		},
		{
			"buffer":0,
			"byteLength":24,
			"byteOffset":939676
		},
		{
			"buffer":0,
			"byteLength":24,
			"byteOffset":939700
		},
		{
			"buffer":0,
			"byteLength":496,
			"byteOffset":939724
		},
		{
			"buffer":0,
			"byteLength":24,
			"byteOffset":940220
		},
		{
			"buffer":0,
			"byteLength":496,
			"byteOffset":940244
		},
		{
			"buffer":0,
			"byteLength":24,
			"byteOffset":940740
		},
		{
			"buffer":0,
			"byteLength":496,
			"byteOffset":940764
		},
		{
			"buffer":0,
			"byteLength":24,
			"byteOffset":941260
		},
		{
			"buffer":0,
			"byteLength":24,
			"byteOffset":941284
		},
		{
			"buffer":0,
			"byteLength":32,
			"byteOffset":941308
		},
		{
			"buffer":0,
			"byteLength":24,
			"byteOffset":941340
		},
		{
			"buffer":0,
			"byteLength":24,
			"byteOffset":941364
		},
		{
			"buffer":0,
			"byteLength":32,
			"byteOffset":941388
		},
		{
			"buffer":0,
			"byteLength":24,
			"byteOffset":941420
		},
		{
			"buffer":0,
			"byteLength":496,
			"byteOffset":941444
		},
		{
			"buffer":0,
			"byteLength":24,
			"byteOffset":941940
		},
		{
			"buffer":0,
			"byteLength":24,
			"byteOffset":941964
		},
		{
			"buffer":0,
			"byteLength":32,
			"byteOffset":941988
		},
		{
			"buffer":0,
			"byteLength":24,
			"byteOffset":942020
		},
		{
			"buffer":0,
			"byteLength":24,
			"byteOffset":942044
		},
		{
			"buffer":0,
			"byteLength":32,
			"byteOffset":942068
		},
		{
			"buffer":0,
			"byteLength":24,
			"byteOffset":942100
		},
		{
			"buffer":0,
			"byteLength":496,
			"byteOffset":942124
		},
		{
			"buffer":0,
			"byteLength":24,
			"byteOffset":942620
		},
		{
			"buffer":0,
			"byteLength":496,
			"byteOffset":942644
		},
		{
			"buffer":0,
			"byteLength":24,
			"byteOffset":943140
		},
		{
			"buffer":0,
			"byteLength":496,
			"byteOffset":943164
		},
		{
			"buffer":0,
			"byteLength":24,
			"byteOffset":943660
		},
		{
			"buffer":0,
			"byteLength":496,
			"byteOffset":943684
		},
		{
			"buffer":0,
			"byteLength":24,
			"byteOffset":944180
		},
		{
			"buffer":0,
			"byteLength":496,
			"byteOffset":944204
		},
		{
			"buffer":0,
			"byteLength":24,
			"byteOffset":944700
		},
		{
			"buffer":0,
			"byteLength":496,
			"byteOffset":944724
		}
	],
	"buffers":[
		{
			"byteLength":945220,
			"uri":"dunkelmagier.bin"
		}
	]
}
