{
	"asset":{
		"generator":"Khronos glTF Blender I/O v5.2.40",
		"version":"2.0"
	},
	"scene":0,
	"scenes":[
		{
			"name":"Scene",
			"nodes":[
				21
			]
		}
	],
	"nodes":[
		{
			"name":"Hut",
			"rotation":[
				-0.492698609828949,
				2.5933989178383854e-08,
				-1.4683560145556385e-08,
				0.8702000379562378
			],
			"scale":[
				1,
				0.9999999403953552,
				1
			],
			"translation":[
				-2.8421711442107257e-16,
				0.25999999046325684,
				-0.020000001415610313
			]
		},
		{
			"children":[
				0
			],
			"name":"Kopf",
			"rotation":[
				-0.43318894505500793,
				-5.372184119778467e-08,
				-2.5820064308845758e-08,
				0.9013031125068665
			],
			"scale":[
				1,
				1.0000001192092896,
				1.0000001192092896
			],
			"translation":[
				1.8207657603852567e-14,
				0.1280624270439148,
				-1.30385160446167e-07
			]
		},
		{
			"children":[
				1
			],
			"name":"Hals",
			"rotation":[
				0.4331889748573303,
				5.3721830539643634e-08,
				2.582006075613208e-08,
				0.9013031721115112
			],
			"scale":[
				1,
				0.9999999403953552,
				0.9999999403953552
			],
			"translation":[
				0,
				0.25999999046325684,
				0
			]
		},
		{
			"name":"Hand.L",
			"rotation":[
				-0.047517042607069016,
				-0.007082207128405571,
				0.028625978156924248,
				0.9984350204467773
			],
			"scale":[
				1,
				1,
				0.9999998807907104
			],
			"translation":[
				-1.4901161193847656e-08,
				0.25806984305381775,
				-8.31131519163364e-09
			]
		},
		{
			"mesh":1,
			"name":"Schild",
			"rotation":[
				-0.9921218156814575,
				-0.07886814326047897,
				-0.007713169325143099,
				0.09702908992767334
			],
			"scale":[
				1.000000238418579,
				1.0000001192092896,
				1
			],
			"translation":[
				-0.49688026309013367,
				1.1934759616851807,
				0.18473173677921295
			]
		},
		{
			"children":[
				3,
				4
			],
			"name":"Unterarm.L",
			"rotation":[
				-0.14967398345470428,
				-0.002871221862733364,
				0.06459123641252518,
				0.9866191744804382
			],
			"scale":[
				1,
				1,
				1.0000001192092896
			],
			"translation":[
				-2.9988587613161144e-08,
				0.28319603204727173,
				-2.60770320892334e-08
			]
		},
		{
			"children":[
				5
			],
			"name":"Oberarm.L",
			"rotation":[
				-0.9882528185844421,
				-0.1433282494544983,
				0.00761317228898406,
				0.052492327988147736
			],
			"scale":[
				0.999999463558197,
				0.9999998211860657,
				0.9999998807907104
			],
			"translation":[
				0.2199999988079071,
				0.21999990940093994,
				-0.019999999552965164
			]
		},
		{
			"mesh":2,
			"name":"Speer",
			"rotation":[
				-0.9882709383964539,
				0.04929057136178017,
				0.007199814077466726,
				0.14435769617557526
			],
			"scale":[
				1.0000003576278687,
				1.000000238418579,
				1.0000001192092896
			],
			"translation":[
				0.43980664014816284,
				0.940114438533783,
				0.2806350290775299
			]
		},
		{
			"children":[
				7
			],
			"name":"Hand.R",
			"rotation":[
				-0.047517042607069016,
				0.007082207128405571,
				-0.028625978156924248,
				0.9984350204467773
			],
			"scale":[
				1,
				1,
				0.9999998807907104
			],
			"translation":[
				1.4901161193847656e-08,
				0.25806984305381775,
				-8.31131519163364e-09
			]
		},
		{
			"children":[
				8
			],
			"name":"Unterarm.R",
			"rotation":[
				-0.14967398345470428,
				0.002871221862733364,
				-0.06459123641252518,
				0.9866191744804382
			],
			"scale":[
				1,
				1,
				1.0000001192092896
			],
			"translation":[
				2.9988587613161144e-08,
				0.28319603204727173,
				-2.60770320892334e-08
			]
		},
		{
			"children":[
				9
			],
			"name":"Oberarm.R",
			"rotation":[
				-0.9882528185844421,
				0.1433282494544983,
				-0.00761317228898406,
				0.052492327988147736
			],
			"scale":[
				0.999999463558197,
				0.9999998211860657,
				0.9999998807907104
			],
			"translation":[
				-0.2199999988079071,
				0.21999990940093994,
				-0.019999999552965164
			]
		},
		{
			"children":[
				2,
				6,
				10
			],
			"name":"Brust",
			"translation":[
				0,
				0.20000004768371582,
				0
			]
		},
		{
			"children":[
				11
			],
			"name":"Bauch",
			"translation":[
				0,
				0.13999998569488525,
				0
			]
		},
		{
			"name":"Fuss.L",
			"rotation":[
				-8.998853928687822e-08,
				0.7738655805587769,
				-0.6333498954772949,
				1.5067715253280767e-07
			],
			"scale":[
				1,
				1.0000003576278687,
				1
			],
			"translation":[
				9.797752831275375e-09,
				0.46173563599586487,
				2.3163693185779266e-09
			]
		},
		{
			"children":[
				13
			],
			"name":"Unterschenkel.L",
			"rotation":[
				0.2673976719379425,
				0.0008867179276421666,
				0.02377278357744217,
				0.9632925391197205
			],
			"scale":[
				1.0000001192092896,
				1.0000001192092896,
				1
			],
			"translation":[
				-1.9371553250380202e-09,
				0.4322036802768707,
				-2.561137080192566e-09
			]
		},
		{
			"children":[
				14
			],
			"name":"Oberschenkel.L",
			"rotation":[
				0.9929121136665344,
				0.023627346381545067,
				0.002770737512037158,
				0.11644594371318817
			],
			"scale":[
				1.0000001192092896,
				1.0000001192092896,
				1.000002145767212
			],
			"translation":[
				0.10999999940395355,
				0,
				-0.019999999552965164
			]
		},
		{
			"name":"Fuss.R",
			"rotation":[
				-8.114584204577113e-08,
				0.7738655805587769,
				-0.6333498954772949,
				1.5067719516537181e-07
			],
			"scale":[
				1,
				1.0000003576278687,
				1
			],
			"translation":[
				-6.049782008687998e-09,
				0.46173563599586487,
				9.179380811019655e-09
			]
		},
		{
			"children":[
				16
			],
			"name":"Unterschenkel.R",
			"rotation":[
				0.2673977017402649,
				-0.0008866604184731841,
				-0.023772766813635826,
				0.9632925391197205
			],
			"scale":[
				1.0000001192092896,
				1.0000001192092896,
				1
			],
			"translation":[
				1.9371553250380202e-09,
				0.4322036802768707,
				-2.561137080192566e-09
			]
		},
		{
			"children":[
				17
			],
			"name":"Oberschenkel.R",
			"rotation":[
				0.9929121136665344,
				-0.023627346381545067,
				-0.002770737512037158,
				0.11644594371318817
			],
			"scale":[
				1.0000001192092896,
				1.0000001192092896,
				1.000002145767212
			],
			"translation":[
				-0.10999999940395355,
				0,
				-0.019999999552965164
			]
		},
		{
			"children":[
				12,
				15,
				18
			],
			"name":"Becken",
			"translation":[
				0,
				0.9800000190734863,
				0
			]
		},
		{
			"mesh":0,
			"name":"Echsenkrieger",
			"skin":0
		},
		{
			"children":[
				20,
				19
			],
			"name":"EchsenkriegerSkelett"
		}
	],
	"animations":[
		{
			"channels":[
				{
					"sampler":0,
					"target":{
						"node":19,
						"path":"translation"
					}
				},
				{
					"sampler":1,
					"target":{
						"node":19,
						"path":"rotation"
					}
				},
				{
					"sampler":2,
					"target":{
						"node":19,
						"path":"scale"
					}
				},
				{
					"sampler":3,
					"target":{
						"node":12,
						"path":"translation"
					}
				},
				{
					"sampler":4,
					"target":{
						"node":12,
						"path":"rotation"
					}
				},
				{
					"sampler":5,
					"target":{
						"node":12,
						"path":"scale"
					}
				},
				{
					"sampler":6,
					"target":{
						"node":11,
						"path":"translation"
					}
				},
				{
					"sampler":7,
					"target":{
						"node":11,
						"path":"rotation"
					}
				},
				{
					"sampler":8,
					"target":{
						"node":11,
						"path":"scale"
					}
				},
				{
					"sampler":9,
					"target":{
						"node":2,
						"path":"translation"
					}
				},
				{
					"sampler":10,
					"target":{
						"node":2,
						"path":"rotation"
					}
				},
				{
					"sampler":11,
					"target":{
						"node":2,
						"path":"scale"
					}
				},
				{
					"sampler":12,
					"target":{
						"node":1,
						"path":"translation"
					}
				},
				{
					"sampler":13,
					"target":{
						"node":1,
						"path":"rotation"
					}
				},
				{
					"sampler":14,
					"target":{
						"node":1,
						"path":"scale"
					}
				},
				{
					"sampler":15,
					"target":{
						"node":0,
						"path":"translation"
					}
				},
				{
					"sampler":16,
					"target":{
						"node":0,
						"path":"rotation"
					}
				},
				{
					"sampler":17,
					"target":{
						"node":0,
						"path":"scale"
					}
				},
				{
					"sampler":18,
					"target":{
						"node":6,
						"path":"translation"
					}
				},
				{
					"sampler":19,
					"target":{
						"node":6,
						"path":"rotation"
					}
				},
				{
					"sampler":20,
					"target":{
						"node":6,
						"path":"scale"
					}
				},
				{
					"sampler":21,
					"target":{
						"node":5,
						"path":"translation"
					}
				},
				{
					"sampler":22,
					"target":{
						"node":5,
						"path":"rotation"
					}
				},
				{
					"sampler":23,
					"target":{
						"node":5,
						"path":"scale"
					}
				},
				{
					"sampler":24,
					"target":{
						"node":3,
						"path":"translation"
					}
				},
				{
					"sampler":25,
					"target":{
						"node":3,
						"path":"rotation"
					}
				},
				{
					"sampler":26,
					"target":{
						"node":3,
						"path":"scale"
					}
				},
				{
					"sampler":27,
					"target":{
						"node":10,
						"path":"translation"
					}
				},
				{
					"sampler":28,
					"target":{
						"node":10,
						"path":"rotation"
					}
				},
				{
					"sampler":29,
					"target":{
						"node":10,
						"path":"scale"
					}
				},
				{
					"sampler":30,
					"target":{
						"node":9,
						"path":"translation"
					}
				},
				{
					"sampler":31,
					"target":{
						"node":9,
						"path":"rotation"
					}
				},
				{
					"sampler":32,
					"target":{
						"node":9,
						"path":"scale"
					}
				},
				{
					"sampler":33,
					"target":{
						"node":8,
						"path":"translation"
					}
				},
				{
					"sampler":34,
					"target":{
						"node":8,
						"path":"rotation"
					}
				},
				{
					"sampler":35,
					"target":{
						"node":8,
						"path":"scale"
					}
				},
				{
					"sampler":36,
					"target":{
						"node":15,
						"path":"translation"
					}
				},
				{
					"sampler":37,
					"target":{
						"node":15,
						"path":"rotation"
					}
				},
				{
					"sampler":38,
					"target":{
						"node":15,
						"path":"scale"
					}
				},
				{
					"sampler":39,
					"target":{
						"node":14,
						"path":"translation"
					}
				},
				{
					"sampler":40,
					"target":{
						"node":14,
						"path":"rotation"
					}
				},
				{
					"sampler":41,
					"target":{
						"node":14,
						"path":"scale"
					}
				},
				{
					"sampler":42,
					"target":{
						"node":13,
						"path":"translation"
					}
				},
				{
					"sampler":43,
					"target":{
						"node":13,
						"path":"rotation"
					}
				},
				{
					"sampler":44,
					"target":{
						"node":13,
						"path":"scale"
					}
				},
				{
					"sampler":45,
					"target":{
						"node":18,
						"path":"translation"
					}
				},
				{
					"sampler":46,
					"target":{
						"node":18,
						"path":"rotation"
					}
				},
				{
					"sampler":47,
					"target":{
						"node":18,
						"path":"scale"
					}
				},
				{
					"sampler":48,
					"target":{
						"node":17,
						"path":"translation"
					}
				},
				{
					"sampler":49,
					"target":{
						"node":17,
						"path":"rotation"
					}
				},
				{
					"sampler":50,
					"target":{
						"node":17,
						"path":"scale"
					}
				},
				{
					"sampler":51,
					"target":{
						"node":16,
						"path":"translation"
					}
				},
				{
					"sampler":52,
					"target":{
						"node":16,
						"path":"rotation"
					}
				},
				{
					"sampler":53,
					"target":{
						"node":16,
						"path":"scale"
					}
				}
			],
			"name":"Angriff",
			"samplers":[
				{
					"input":15,
					"interpolation":"LINEAR",
					"output":16
				},
				{
					"input":17,
					"interpolation":"STEP",
					"output":18
				},
				{
					"input":17,
					"interpolation":"STEP",
					"output":19
				},
				{
					"input":17,
					"interpolation":"STEP",
					"output":20
				},
				{
					"input":15,
					"interpolation":"LINEAR",
					"output":21
				},
				{
					"input":17,
					"interpolation":"STEP",
					"output":19
				},
				{
					"input":17,
					"interpolation":"STEP",
					"output":22
				},
				{
					"input":15,
					"interpolation":"LINEAR",
					"output":23
				},
				{
					"input":17,
					"interpolation":"STEP",
					"output":19
				},
				{
					"input":17,
					"interpolation":"STEP",
					"output":24
				},
				{
					"input":17,
					"interpolation":"STEP",
					"output":25
				},
				{
					"input":17,
					"interpolation":"STEP",
					"output":26
				},
				{
					"input":17,
					"interpolation":"STEP",
					"output":27
				},
				{
					"input":17,
					"interpolation":"STEP",
					"output":28
				},
				{
					"input":17,
					"interpolation":"STEP",
					"output":29
				},
				{
					"input":17,
					"interpolation":"STEP",
					"output":30
				},
				{
					"input":17,
					"interpolation":"STEP",
					"output":31
				},
				{
					"input":17,
					"interpolation":"STEP",
					"output":32
				},
				{
					"input":17,
					"interpolation":"STEP",
					"output":33
				},
				{
					"input":15,
					"interpolation":"LINEAR",
					"output":34
				},
				{
					"input":17,
					"interpolation":"STEP",
					"output":35
				},
				{
					"input":17,
					"interpolation":"STEP",
					"output":36
				},
				{
					"input":17,
					"interpolation":"STEP",
					"output":37
				},
				{
					"input":17,
					"interpolation":"STEP",
					"output":32
				},
				{
					"input":17,
					"interpolation":"STEP",
					"output":38
				},
				{
					"input":17,
					"interpolation":"STEP",
					"output":39
				},
				{
					"input":17,
					"interpolation":"STEP",
					"output":32
				},
				{
					"input":17,
					"interpolation":"STEP",
					"output":40
				},
				{
					"input":15,
					"interpolation":"LINEAR",
					"output":41
				},
				{
					"input":17,
					"interpolation":"STEP",
					"output":42
				},
				{
					"input":17,
					"interpolation":"STEP",
					"output":43
				},
				{
					"input":15,
					"interpolation":"LINEAR",
					"output":44
				},
				{
					"input":17,
					"interpolation":"STEP",
					"output":45
				},
				{
					"input":17,
					"interpolation":"STEP",
					"output":46
				},
				{
					"input":17,
					"interpolation":"STEP",
					"output":47
				},
				{
					"input":17,
					"interpolation":"STEP",
					"output":48
				},
				{
					"input":17,
					"interpolation":"STEP",
					"output":49
				},
				{
					"input":15,
					"interpolation":"LINEAR",
					"output":50
				},
				{
					"input":17,
					"interpolation":"STEP",
					"output":51
				},
				{
					"input":17,
					"interpolation":"STEP",
					"output":52
				},
				{
					"input":15,
					"interpolation":"LINEAR",
					"output":53
				},
				{
					"input":17,
					"interpolation":"STEP",
					"output":54
				},
				{
					"input":17,
					"interpolation":"STEP",
					"output":55
				},
				{
					"input":17,
					"interpolation":"STEP",
					"output":56
				},
				{
					"input":17,
					"interpolation":"STEP",
					"output":57
				},
				{
					"input":17,
					"interpolation":"STEP",
					"output":58
				},
				{
					"input":15,
					"interpolation":"LINEAR",
					"output":59
				},
				{
					"input":17,
					"interpolation":"STEP",
					"output":51
				},
				{
					"input":17,
					"interpolation":"STEP",
					"output":60
				},
				{
					"input":15,
					"interpolation":"LINEAR",
					"output":61
				},
				{
					"input":17,
					"interpolation":"STEP",
					"output":54
				},
				{
					"input":17,
					"interpolation":"STEP",
					"output":62
				},
				{
					"input":17,
					"interpolation":"STEP",
					"output":63
				},
				{
					"input":17,
					"interpolation":"STEP",
					"output":64
				}
			]
		},
		{
			"channels":[
				{
					"sampler":0,
					"target":{
						"node":19,
						"path":"translation"
					}
				},
				{
					"sampler":1,
					"target":{
						"node":19,
						"path":"rotation"
					}
				},
				{
					"sampler":2,
					"target":{
						"node":19,
						"path":"scale"
					}
				},
				{
					"sampler":3,
					"target":{
						"node":12,
						"path":"translation"
					}
				},
				{
					"sampler":4,
					"target":{
						"node":12,
						"path":"rotation"
					}
				},
				{
					"sampler":5,
					"target":{
						"node":12,
						"path":"scale"
					}
				},
				{
					"sampler":6,
					"target":{
						"node":11,
						"path":"translation"
					}
				},
				{
					"sampler":7,
					"target":{
						"node":11,
						"path":"rotation"
					}
				},
				{
					"sampler":8,
					"target":{
						"node":11,
						"path":"scale"
					}
				},
				{
					"sampler":9,
					"target":{
						"node":2,
						"path":"translation"
					}
				},
				{
					"sampler":10,
					"target":{
						"node":2,
						"path":"rotation"
					}
				},
				{
					"sampler":11,
					"target":{
						"node":2,
						"path":"scale"
					}
				},
				{
					"sampler":12,
					"target":{
						"node":1,
						"path":"translation"
					}
				},
				{
					"sampler":13,
					"target":{
						"node":1,
						"path":"rotation"
					}
				},
				{
					"sampler":14,
					"target":{
						"node":1,
						"path":"scale"
					}
				},
				{
					"sampler":15,
					"target":{
						"node":0,
						"path":"translation"
					}
				},
				{
					"sampler":16,
					"target":{
						"node":0,
						"path":"rotation"
					}
				},
				{
					"sampler":17,
					"target":{
						"node":0,
						"path":"scale"
					}
				},
				{
					"sampler":18,
					"target":{
						"node":6,
						"path":"translation"
					}
				},
				{
					"sampler":19,
					"target":{
						"node":6,
						"path":"rotation"
					}
				},
				{
					"sampler":20,
					"target":{
						"node":6,
						"path":"scale"
					}
				},
				{
					"sampler":21,
					"target":{
						"node":5,
						"path":"translation"
					}
				},
				{
					"sampler":22,
					"target":{
						"node":5,
						"path":"rotation"
					}
				},
				{
					"sampler":23,
					"target":{
						"node":5,
						"path":"scale"
					}
				},
				{
					"sampler":24,
					"target":{
						"node":3,
						"path":"translation"
					}
				},
				{
					"sampler":25,
					"target":{
						"node":3,
						"path":"rotation"
					}
				},
				{
					"sampler":26,
					"target":{
						"node":3,
						"path":"scale"
					}
				},
				{
					"sampler":27,
					"target":{
						"node":10,
						"path":"translation"
					}
				},
				{
					"sampler":28,
					"target":{
						"node":10,
						"path":"rotation"
					}
				},
				{
					"sampler":29,
					"target":{
						"node":10,
						"path":"scale"
					}
				},
				{
					"sampler":30,
					"target":{
						"node":9,
						"path":"translation"
					}
				},
				{
					"sampler":31,
					"target":{
						"node":9,
						"path":"rotation"
					}
				},
				{
					"sampler":32,
					"target":{
						"node":9,
						"path":"scale"
					}
				},
				{
					"sampler":33,
					"target":{
						"node":8,
						"path":"translation"
					}
				},
				{
					"sampler":34,
					"target":{
						"node":8,
						"path":"rotation"
					}
				},
				{
					"sampler":35,
					"target":{
						"node":8,
						"path":"scale"
					}
				},
				{
					"sampler":36,
					"target":{
						"node":15,
						"path":"translation"
					}
				},
				{
					"sampler":37,
					"target":{
						"node":15,
						"path":"rotation"
					}
				},
				{
					"sampler":38,
					"target":{
						"node":15,
						"path":"scale"
					}
				},
				{
					"sampler":39,
					"target":{
						"node":14,
						"path":"translation"
					}
				},
				{
					"sampler":40,
					"target":{
						"node":14,
						"path":"rotation"
					}
				},
				{
					"sampler":41,
					"target":{
						"node":14,
						"path":"scale"
					}
				},
				{
					"sampler":42,
					"target":{
						"node":13,
						"path":"translation"
					}
				},
				{
					"sampler":43,
					"target":{
						"node":13,
						"path":"rotation"
					}
				},
				{
					"sampler":44,
					"target":{
						"node":13,
						"path":"scale"
					}
				},
				{
					"sampler":45,
					"target":{
						"node":18,
						"path":"translation"
					}
				},
				{
					"sampler":46,
					"target":{
						"node":18,
						"path":"rotation"
					}
				},
				{
					"sampler":47,
					"target":{
						"node":18,
						"path":"scale"
					}
				},
				{
					"sampler":48,
					"target":{
						"node":17,
						"path":"translation"
					}
				},
				{
					"sampler":49,
					"target":{
						"node":17,
						"path":"rotation"
					}
				},
				{
					"sampler":50,
					"target":{
						"node":17,
						"path":"scale"
					}
				},
				{
					"sampler":51,
					"target":{
						"node":16,
						"path":"translation"
					}
				},
				{
					"sampler":52,
					"target":{
						"node":16,
						"path":"rotation"
					}
				},
				{
					"sampler":53,
					"target":{
						"node":16,
						"path":"scale"
					}
				}
			],
			"name":"Idle",
			"samplers":[
				{
					"input":65,
					"interpolation":"LINEAR",
					"output":66
				},
				{
					"input":67,
					"interpolation":"STEP",
					"output":18
				},
				{
					"input":67,
					"interpolation":"STEP",
					"output":19
				},
				{
					"input":67,
					"interpolation":"STEP",
					"output":20
				},
				{
					"input":65,
					"interpolation":"LINEAR",
					"output":68
				},
				{
					"input":67,
					"interpolation":"STEP",
					"output":19
				},
				{
					"input":67,
					"interpolation":"STEP",
					"output":22
				},
				{
					"input":65,
					"interpolation":"LINEAR",
					"output":69
				},
				{
					"input":67,
					"interpolation":"STEP",
					"output":19
				},
				{
					"input":67,
					"interpolation":"STEP",
					"output":24
				},
				{
					"input":67,
					"interpolation":"STEP",
					"output":25
				},
				{
					"input":67,
					"interpolation":"STEP",
					"output":26
				},
				{
					"input":67,
					"interpolation":"STEP",
					"output":27
				},
				{
					"input":65,
					"interpolation":"LINEAR",
					"output":70
				},
				{
					"input":67,
					"interpolation":"STEP",
					"output":29
				},
				{
					"input":67,
					"interpolation":"STEP",
					"output":71
				},
				{
					"input":67,
					"interpolation":"STEP",
					"output":72
				},
				{
					"input":67,
					"interpolation":"STEP",
					"output":73
				},
				{
					"input":67,
					"interpolation":"STEP",
					"output":33
				},
				{
					"input":65,
					"interpolation":"LINEAR",
					"output":74
				},
				{
					"input":67,
					"interpolation":"STEP",
					"output":75
				},
				{
					"input":67,
					"interpolation":"STEP",
					"output":76
				},
				{
					"input":67,
					"interpolation":"STEP",
					"output":77
				},
				{
					"input":67,
					"interpolation":"STEP",
					"output":78
				},
				{
					"input":67,
					"interpolation":"STEP",
					"output":79
				},
				{
					"input":67,
					"interpolation":"STEP",
					"output":80
				},
				{
					"input":67,
					"interpolation":"STEP",
					"output":81
				},
				{
					"input":67,
					"interpolation":"STEP",
					"output":40
				},
				{
					"input":67,
					"interpolation":"STEP",
					"output":82
				},
				{
					"input":67,
					"interpolation":"STEP",
					"output":83
				},
				{
					"input":67,
					"interpolation":"STEP",
					"output":84
				},
				{
					"input":67,
					"interpolation":"STEP",
					"output":85
				},
				{
					"input":67,
					"interpolation":"STEP",
					"output":32
				},
				{
					"input":67,
					"interpolation":"STEP",
					"output":86
				},
				{
					"input":67,
					"interpolation":"STEP",
					"output":87
				},
				{
					"input":67,
					"interpolation":"STEP",
					"output":88
				},
				{
					"input":67,
					"interpolation":"STEP",
					"output":49
				},
				{
					"input":67,
					"interpolation":"STEP",
					"output":89
				},
				{
					"input":67,
					"interpolation":"STEP",
					"output":51
				},
				{
					"input":67,
					"interpolation":"STEP",
					"output":52
				},
				{
					"input":67,
					"interpolation":"STEP",
					"output":90
				},
				{
					"input":67,
					"interpolation":"STEP",
					"output":54
				},
				{
					"input":67,
					"interpolation":"STEP",
					"output":91
				},
				{
					"input":67,
					"interpolation":"STEP",
					"output":92
				},
				{
					"input":67,
					"interpolation":"STEP",
					"output":93
				},
				{
					"input":67,
					"interpolation":"STEP",
					"output":58
				},
				{
					"input":67,
					"interpolation":"STEP",
					"output":94
				},
				{
					"input":67,
					"interpolation":"STEP",
					"output":51
				},
				{
					"input":67,
					"interpolation":"STEP",
					"output":60
				},
				{
					"input":67,
					"interpolation":"STEP",
					"output":95
				},
				{
					"input":67,
					"interpolation":"STEP",
					"output":54
				},
				{
					"input":67,
					"interpolation":"STEP",
					"output":96
				},
				{
					"input":67,
					"interpolation":"STEP",
					"output":63
				},
				{
					"input":67,
					"interpolation":"STEP",
					"output":93
				}
			]
		},
		{
			"channels":[
				{
					"sampler":0,
					"target":{
						"node":19,
						"path":"translation"
					}
				},
				{
					"sampler":1,
					"target":{
						"node":19,
						"path":"rotation"
					}
				},
				{
					"sampler":2,
					"target":{
						"node":19,
						"path":"scale"
					}
				},
				{
					"sampler":3,
					"target":{
						"node":12,
						"path":"translation"
					}
				},
				{
					"sampler":4,
					"target":{
						"node":12,
						"path":"rotation"
					}
				},
				{
					"sampler":5,
					"target":{
						"node":12,
						"path":"scale"
					}
				},
				{
					"sampler":6,
					"target":{
						"node":11,
						"path":"translation"
					}
				},
				{
					"sampler":7,
					"target":{
						"node":11,
						"path":"rotation"
					}
				},
				{
					"sampler":8,
					"target":{
						"node":11,
						"path":"scale"
					}
				},
				{
					"sampler":9,
					"target":{
						"node":2,
						"path":"translation"
					}
				},
				{
					"sampler":10,
					"target":{
						"node":2,
						"path":"rotation"
					}
				},
				{
					"sampler":11,
					"target":{
						"node":2,
						"path":"scale"
					}
				},
				{
					"sampler":12,
					"target":{
						"node":1,
						"path":"translation"
					}
				},
				{
					"sampler":13,
					"target":{
						"node":1,
						"path":"rotation"
					}
				},
				{
					"sampler":14,
					"target":{
						"node":1,
						"path":"scale"
					}
				},
				{
					"sampler":15,
					"target":{
						"node":0,
						"path":"translation"
					}
				},
				{
					"sampler":16,
					"target":{
						"node":0,
						"path":"rotation"
					}
				},
				{
					"sampler":17,
					"target":{
						"node":0,
						"path":"scale"
					}
				},
				{
					"sampler":18,
					"target":{
						"node":6,
						"path":"translation"
					}
				},
				{
					"sampler":19,
					"target":{
						"node":6,
						"path":"rotation"
					}
				},
				{
					"sampler":20,
					"target":{
						"node":6,
						"path":"scale"
					}
				},
				{
					"sampler":21,
					"target":{
						"node":5,
						"path":"translation"
					}
				},
				{
					"sampler":22,
					"target":{
						"node":5,
						"path":"rotation"
					}
				},
				{
					"sampler":23,
					"target":{
						"node":5,
						"path":"scale"
					}
				},
				{
					"sampler":24,
					"target":{
						"node":3,
						"path":"translation"
					}
				},
				{
					"sampler":25,
					"target":{
						"node":3,
						"path":"rotation"
					}
				},
				{
					"sampler":26,
					"target":{
						"node":3,
						"path":"scale"
					}
				},
				{
					"sampler":27,
					"target":{
						"node":10,
						"path":"translation"
					}
				},
				{
					"sampler":28,
					"target":{
						"node":10,
						"path":"rotation"
					}
				},
				{
					"sampler":29,
					"target":{
						"node":10,
						"path":"scale"
					}
				},
				{
					"sampler":30,
					"target":{
						"node":9,
						"path":"translation"
					}
				},
				{
					"sampler":31,
					"target":{
						"node":9,
						"path":"rotation"
					}
				},
				{
					"sampler":32,
					"target":{
						"node":9,
						"path":"scale"
					}
				},
				{
					"sampler":33,
					"target":{
						"node":8,
						"path":"translation"
					}
				},
				{
					"sampler":34,
					"target":{
						"node":8,
						"path":"rotation"
					}
				},
				{
					"sampler":35,
					"target":{
						"node":8,
						"path":"scale"
					}
				},
				{
					"sampler":36,
					"target":{
						"node":15,
						"path":"translation"
					}
				},
				{
					"sampler":37,
					"target":{
						"node":15,
						"path":"rotation"
					}
				},
				{
					"sampler":38,
					"target":{
						"node":15,
						"path":"scale"
					}
				},
				{
					"sampler":39,
					"target":{
						"node":14,
						"path":"translation"
					}
				},
				{
					"sampler":40,
					"target":{
						"node":14,
						"path":"rotation"
					}
				},
				{
					"sampler":41,
					"target":{
						"node":14,
						"path":"scale"
					}
				},
				{
					"sampler":42,
					"target":{
						"node":13,
						"path":"translation"
					}
				},
				{
					"sampler":43,
					"target":{
						"node":13,
						"path":"rotation"
					}
				},
				{
					"sampler":44,
					"target":{
						"node":13,
						"path":"scale"
					}
				},
				{
					"sampler":45,
					"target":{
						"node":18,
						"path":"translation"
					}
				},
				{
					"sampler":46,
					"target":{
						"node":18,
						"path":"rotation"
					}
				},
				{
					"sampler":47,
					"target":{
						"node":18,
						"path":"scale"
					}
				},
				{
					"sampler":48,
					"target":{
						"node":17,
						"path":"translation"
					}
				},
				{
					"sampler":49,
					"target":{
						"node":17,
						"path":"rotation"
					}
				},
				{
					"sampler":50,
					"target":{
						"node":17,
						"path":"scale"
					}
				},
				{
					"sampler":51,
					"target":{
						"node":16,
						"path":"translation"
					}
				},
				{
					"sampler":52,
					"target":{
						"node":16,
						"path":"rotation"
					}
				},
				{
					"sampler":53,
					"target":{
						"node":16,
						"path":"scale"
					}
				}
			],
			"name":"Laufen",
			"samplers":[
				{
					"input":15,
					"interpolation":"LINEAR",
					"output":97
				},
				{
					"input":15,
					"interpolation":"LINEAR",
					"output":98
				},
				{
					"input":17,
					"interpolation":"STEP",
					"output":19
				},
				{
					"input":17,
					"interpolation":"STEP",
					"output":20
				},
				{
					"input":17,
					"interpolation":"STEP",
					"output":99
				},
				{
					"input":17,
					"interpolation":"STEP",
					"output":19
				},
				{
					"input":17,
					"interpolation":"STEP",
					"output":100
				},
				{
					"input":15,
					"interpolation":"LINEAR",
					"output":101
				},
				{
					"input":17,
					"interpolation":"STEP",
					"output":19
				},
				{
					"input":17,
					"interpolation":"STEP",
					"output":102
				},
				{
					"input":17,
					"interpolation":"STEP",
					"output":25
				},
				{
					"input":17,
					"interpolation":"STEP",
					"output":88
				},
				{
					"input":17,
					"interpolation":"STEP",
					"output":103
				},
				{
					"input":15,
					"interpolation":"LINEAR",
					"output":104
				},
				{
					"input":17,
					"interpolation":"STEP",
					"output":29
				},
				{
					"input":17,
					"interpolation":"STEP",
					"output":105
				},
				{
					"input":15,
					"interpolation":"LINEAR",
					"output":106
				},
				{
					"input":17,
					"interpolation":"STEP",
					"output":32
				},
				{
					"input":17,
					"interpolation":"STEP",
					"output":107
				},
				{
					"input":15,
					"interpolation":"LINEAR",
					"output":108
				},
				{
					"input":17,
					"interpolation":"STEP",
					"output":109
				},
				{
					"input":17,
					"interpolation":"STEP",
					"output":110
				},
				{
					"input":17,
					"interpolation":"STEP",
					"output":111
				},
				{
					"input":17,
					"interpolation":"STEP",
					"output":78
				},
				{
					"input":17,
					"interpolation":"STEP",
					"output":112
				},
				{
					"input":17,
					"interpolation":"STEP",
					"output":113
				},
				{
					"input":17,
					"interpolation":"STEP",
					"output":114
				},
				{
					"input":17,
					"interpolation":"STEP",
					"output":115
				},
				{
					"input":15,
					"interpolation":"LINEAR",
					"output":116
				},
				{
					"input":17,
					"interpolation":"STEP",
					"output":117
				},
				{
					"input":17,
					"interpolation":"STEP",
					"output":118
				},
				{
					"input":17,
					"interpolation":"STEP",
					"output":119
				},
				{
					"input":17,
					"interpolation":"STEP",
					"output":26
				},
				{
					"input":17,
					"interpolation":"STEP",
					"output":120
				},
				{
					"input":17,
					"interpolation":"STEP",
					"output":121
				},
				{
					"input":17,
					"interpolation":"STEP",
					"output":122
				},
				{
					"input":17,
					"interpolation":"STEP",
					"output":123
				},
				{
					"input":15,
					"interpolation":"LINEAR",
					"output":124
				},
				{
					"input":17,
					"interpolation":"STEP",
					"output":51
				},
				{
					"input":17,
					"interpolation":"STEP",
					"output":125
				},
				{
					"input":15,
					"interpolation":"LINEAR",
					"output":126
				},
				{
					"input":17,
					"interpolation":"STEP",
					"output":54
				},
				{
					"input":17,
					"interpolation":"STEP",
					"output":127
				},
				{
					"input":15,
					"interpolation":"LINEAR",
					"output":128
				},
				{
					"input":17,
					"interpolation":"STEP",
					"output":57
				},
				{
					"input":17,
					"interpolation":"STEP",
					"output":129
				},
				{
					"input":15,
					"interpolation":"LINEAR",
					"output":130
				},
				{
					"input":17,
					"interpolation":"STEP",
					"output":51
				},
				{
					"input":17,
					"interpolation":"STEP",
					"output":131
				},
				{
					"input":15,
					"interpolation":"LINEAR",
					"output":132
				},
				{
					"input":17,
					"interpolation":"STEP",
					"output":54
				},
				{
					"input":17,
					"interpolation":"STEP",
					"output":133
				},
				{
					"input":15,
					"interpolation":"LINEAR",
					"output":134
				},
				{
					"input":17,
					"interpolation":"STEP",
					"output":93
				}
			]
		}
	],
	"materials":[
		{
			"doubleSided":true,
			"name":"Echsenkrieger",
			"pbrMetallicRoughness":{
				"metallicFactor":0,
				"roughnessFactor":0.8500000238418579
			}
		}
	],
	"meshes":[
		{
			"name":"Rumpf",
			"primitives":[
				{
					"attributes":{
						"POSITION":0,
						"NORMAL":1,
						"COLOR_0":2,
						"JOINTS_0":3,
						"WEIGHTS_0":4
					},
					"indices":5,
					"material":0
				}
			]
		},
		{
			"name":"Schild",
			"primitives":[
				{
					"attributes":{
						"POSITION":7,
						"NORMAL":8,
						"COLOR_0":9
					},
					"indices":10,
					"material":0
				}
			]
		},
		{
			"name":"Speer",
			"primitives":[
				{
					"attributes":{
						"POSITION":11,
						"NORMAL":12,
						"COLOR_0":13
					},
					"indices":14,
					"material":0
				}
			]
		}
	],
	"skins":[
		{
			"inverseBindMatrices":6,
			"joints":[
				19,
				12,
				11,
				2,
				1,
				0,
				6,
				5,
				3,
				10,
				9,
				8,
				15,
				14,
				13,
				18,
				17,
				16
			],
			"name":"EchsenkriegerSkelett"
		}
	],
	"accessors":[
		{
			"bufferView":0,
			"componentType":5126,
			"count":36886,
			"max":[
				0.41411715745925903,
				1.9457945823669434,
				0.42100003361701965
			],
			"min":[
				-0.4140092134475708,
				-0.0002665079082362354,
				-1.2021355628967285
			],
			"type":"VEC3"
		},
		{
			"bufferView":1,
			"componentType":5126,
			"count":36886,
			"type":"VEC3"
		},
		{
			"bufferView":2,
			"componentType":5126,
			"count":36886,
			"type":"VEC3"
		},
		{
			"bufferView":3,
			"componentType":5121,
			"count":36886,
			"type":"VEC4"
		},
		{
			"bufferView":4,
			"componentType":5126,
			"count":36886,
			"type":"VEC4"
		},
		{
			"bufferView":5,
			"componentType":5123,
			"count":44298,
			"type":"SCALAR"
		},
		{
			"bufferView":6,
			"componentType":5126,
			"count":18,
			"type":"MAT4"
		},
		{
			"bufferView":7,
			"componentType":5126,
			"count":3440,
			"max":[
				0.5139999985694885,
				1.4587061405181885,
				0.2988584041595459
			],
			"min":[
				0.3947216272354126,
				0.7812936902046204,
				-0.2988584041595459
			],
			"type":"VEC3"
		},
		{
			"bufferView":8,
			"componentType":5126,
			"count":3440,
			"type":"VEC3"
		},
		{
			"bufferView":9,
			"componentType":5126,
			"count":3440,
			"type":"VEC3"
		},
		{
			"bufferView":10,
			"componentType":5123,
			"count":4944,
			"type":"SCALAR"
		},
		{
			"bufferView":11,
			"componentType":5126,
			"count":460,
			"max":[
				-0.2944657504558563,
				2.4652719497680664,
				0.2392907738685608
			],
			"min":[
				-0.3955342471599579,
				0.27507445216178894,
				-0.10663917660713196
			],
			"type":"VEC3"
		},
		{
			"bufferView":12,
			"componentType":5126,
			"count":460,
			"type":"VEC3"
		},
		{
			"bufferView":13,
			"componentType":5126,
			"count":460,
			"type":"VEC3"
		},
		{
			"bufferView":14,
			"componentType":5123,
			"count":660,
			"type":"SCALAR"
		},
		{
			"bufferView":15,
			"componentType":5126,
			"count":31,
			"max":[
				1
			],
			"min":[
				0
			],
			"type":"SCALAR"
		},
		{
			"bufferView":16,
			"componentType":5126,
			"count":31,
			"type":"VEC3"
		},
		{
			"bufferView":17,
			"componentType":5126,
			"count":2,
			"max":[
				1
			],
			"min":[
				0
			],
			"type":"SCALAR"
		},
		{
			"bufferView":18,
			"componentType":5126,
			"count":2,
			"type":"VEC4"
		},
		{
			"bufferView":19,
			"componentType":5126,
			"count":2,
			"type":"VEC3"
		},
		{
			"bufferView":20,
			"componentType":5126,
			"count":2,
			"type":"VEC3"
		},
		{
			"bufferView":21,
			"componentType":5126,
			"count":31,
			"type":"VEC4"
		},
		{
			"bufferView":22,
			"componentType":5126,
			"count":2,
			"type":"VEC3"
		},
		{
			"bufferView":23,
			"componentType":5126,
			"count":31,
			"type":"VEC4"
		},
		{
			"bufferView":24,
			"componentType":5126,
			"count":2,
			"type":"VEC3"
		},
		{
			"bufferView":25,
			"componentType":5126,
			"count":2,
			"type":"VEC4"
		},
		{
			"bufferView":26,
			"componentType":5126,
			"count":2,
			"type":"VEC3"
		},
		{
			"bufferView":27,
			"componentType":5126,
			"count":2,
			"type":"VEC3"
		},
		{
			"bufferView":28,
			"componentType":5126,
			"count":2,
			"type":"VEC4"
		},
		{
			"bufferView":29,
			"componentType":5126,
			"count":2,
			"type":"VEC3"
		},
		{
			"bufferView":30,
			"componentType":5126,
			"count":2,
			"type":"VEC3"
		},
		{
			"bufferView":31,
			"componentType":5126,
			"count":2,
			"type":"VEC4"
		},
		{
			"bufferView":32,
			"componentType":5126,
			"count":2,
			"type":"VEC3"
		},
		{
			"bufferView":33,
			"componentType":5126,
			"count":2,
			"type":"VEC3"
		},
		{
			"bufferView":34,
			"componentType":5126,
			"count":31,
			"type":"VEC4"
		},
		{
			"bufferView":35,
			"componentType":5126,
			"count":2,
			"type":"VEC3"
		},
		{
			"bufferView":36,
			"componentType":5126,
			"count":2,
			"type":"VEC3"
		},
		{
			"bufferView":37,
			"componentType":5126,
			"count":2,
			"type":"VEC4"
		},
		{
			"bufferView":38,
			"componentType":5126,
			"count":2,
			"type":"VEC3"
		},
		{
			"bufferView":39,
			"componentType":5126,
			"count":2,
			"type":"VEC4"
		},
		{
			"bufferView":40,
			"componentType":5126,
			"count":2,
			"type":"VEC3"
		},
		{
			"bufferView":41,
			"componentType":5126,
			"count":31,
			"type":"VEC4"
		},
		{
			"bufferView":42,
			"componentType":5126,
			"count":2,
			"type":"VEC3"
		},
		{
			"bufferView":43,
			"componentType":5126,
			"count":2,
			"type":"VEC3"
		},
		{
			"bufferView":44,
			"componentType":5126,
			"count":31,
			"type":"VEC4"
		},
		{
			"bufferView":45,
			"componentType":5126,
			"count":2,
			"type":"VEC3"
		},
		{
			"bufferView":46,
			"componentType":5126,
			"count":2,
			"type":"VEC3"
		},
		{
			"bufferView":47,
			"componentType":5126,
			"count":2,
			"type":"VEC4"
		},
		{
			"bufferView":48,
			"componentType":5126,
			"count":2,
			"type":"VEC3"
		},
		{
			"bufferView":49,
			"componentType":5126,
			"count":2,
			"type":"VEC3"
		},
		{
			"bufferView":50,
			"componentType":5126,
			"count":31,
			"type":"VEC4"
		},
		{
			"bufferView":51,
			"componentType":5126,
			"count":2,
			"type":"VEC3"
		},
		{
			"bufferView":52,
			"componentType":5126,
			"count":2,
			"type":"VEC3"
		},
		{
			"bufferView":53,
			"componentType":5126,
			"count":31,
			"type":"VEC4"
		},
		{
			"bufferView":54,
			"componentType":5126,
			"count":2,
			"type":"VEC3"
		},
		{
			"bufferView":55,
			"componentType":5126,
			"count":2,
			"type":"VEC3"
		},
		{
			"bufferView":56,
			"componentType":5126,
			"count":2,
			"type":"VEC4"
		},
		{
			"bufferView":57,
			"componentType":5126,
			"count":2,
			"type":"VEC3"
		},
		{
			"bufferView":58,
			"componentType":5126,
			"count":2,
			"type":"VEC3"
		},
		{
			"bufferView":59,
			"componentType":5126,
			"count":31,
			"type":"VEC4"
		},
		{
			"bufferView":60,
			"componentType":5126,
			"count":2,
			"type":"VEC3"
		},
		{
			"bufferView":61,
			"componentType":5126,
			"count":31,
			"type":"VEC4"
		},
		{
			"bufferView":62,
			"componentType":5126,
			"count":2,
			"type":"VEC3"
		},
		{
			"bufferView":63,
			"componentType":5126,
			"count":2,
			"type":"VEC4"
		},
		{
			"bufferView":64,
			"componentType":5126,
			"count":2,
			"type":"VEC3"
		},
		{
			"bufferView":65,
			"componentType":5126,
			"count":181,
			"max":[
				6
			],
			"min":[
				0
			],
			"type":"SCALAR"
		},
		{
			"bufferView":66,
			"componentType":5126,
			"count":181,
			"type":"VEC3"
		},
		{
			"bufferView":67,
			"componentType":5126,
			"count":2,
			"max":[
				6
			],
			"min":[
				0
			],
			"type":"SCALAR"
		},
		{
			"bufferView":68,
			"componentType":5126,
			"count":181,
			"type":"VEC4"
		},
		{
			"bufferView":69,
			"componentType":5126,
			"count":181,
			"type":"VEC4"
		},
		{
			"bufferView":70,
			"componentType":5126,
			"count":181,
			"type":"VEC4"
		},
		{
			"bufferView":71,
			"componentType":5126,
			"count":2,
			"type":"VEC3"
		},
		{
			"bufferView":72,
			"componentType":5126,
			"count":2,
			"type":"VEC4"
		},
		{
			"bufferView":73,
			"componentType":5126,
			"count":2,
			"type":"VEC3"
		},
		{
			"bufferView":74,
			"componentType":5126,
			"count":181,
			"type":"VEC4"
		},
		{
			"bufferView":75,
			"componentType":5126,
			"count":2,
			"type":"VEC3"
		},
		{
			"bufferView":76,
			"componentType":5126,
			"count":2,
			"type":"VEC3"
		},
		{
			"bufferView":77,
			"componentType":5126,
			"count":2,
			"type":"VEC4"
		},
		{
			"bufferView":78,
			"componentType":5126,
			"count":2,
			"type":"VEC3"
		},
		{
			"bufferView":79,
			"componentType":5126,
			"count":2,
			"type":"VEC3"
		},
		{
			"bufferView":80,
			"componentType":5126,
			"count":2,
			"type":"VEC4"
		},
		{
			"bufferView":81,
			"componentType":5126,
			"count":2,
			"type":"VEC3"
		},
		{
			"bufferView":82,
			"componentType":5126,
			"count":2,
			"type":"VEC4"
		},
		{
			"bufferView":83,
			"componentType":5126,
			"count":2,
			"type":"VEC3"
		},
		{
			"bufferView":84,
			"componentType":5126,
			"count":2,
			"type":"VEC3"
		},
		{
			"bufferView":85,
			"componentType":5126,
			"count":2,
			"type":"VEC4"
		},
		{
			"bufferView":86,
			"componentType":5126,
			"count":2,
			"type":"VEC3"
		},
		{
			"bufferView":87,
			"componentType":5126,
			"count":2,
			"type":"VEC4"
		},
		{
			"bufferView":88,
			"componentType":5126,
			"count":2,
			"type":"VEC3"
		},
		{
			"bufferView":89,
			"componentType":5126,
			"count":2,
			"type":"VEC4"
		},
		{
			"bufferView":90,
			"componentType":5126,
			"count":2,
			"type":"VEC4"
		},
		{
			"bufferView":91,
			"componentType":5126,
			"count":2,
			"type":"VEC3"
		},
		{
			"bufferView":92,
			"componentType":5126,
			"count":2,
			"type":"VEC4"
		},
		{
			"bufferView":93,
			"componentType":5126,
			"count":2,
			"type":"VEC3"
		},
		{
			"bufferView":94,
			"componentType":5126,
			"count":2,
			"type":"VEC4"
		},
		{
			"bufferView":95,
			"componentType":5126,
			"count":2,
			"type":"VEC4"
		},
		{
			"bufferView":96,
			"componentType":5126,
			"count":2,
			"type":"VEC3"
		},
		{
			"bufferView":97,
			"componentType":5126,
			"count":31,
			"type":"VEC3"
		},
		{
			"bufferView":98,
			"componentType":5126,
			"count":31,
			"type":"VEC4"
		},
		{
			"bufferView":99,
			"componentType":5126,
			"count":2,
			"type":"VEC4"
		},
		{
			"bufferView":100,
			"componentType":5126,
			"count":2,
			"type":"VEC3"
		},
		{
			"bufferView":101,
			"componentType":5126,
			"count":31,
			"type":"VEC4"
		},
		{
			"bufferView":102,
			"componentType":5126,
			"count":2,
			"type":"VEC3"
		},
		{
			"bufferView":103,
			"componentType":5126,
			"count":2,
			"type":"VEC3"
		},
		{
			"bufferView":104,
			"componentType":5126,
			"count":31,
			"type":"VEC4"
		},
		{
			"bufferView":105,
			"componentType":5126,
			"count":2,
			"type":"VEC3"
		},
		{
			"bufferView":106,
			"componentType":5126,
			"count":31,
			"type":"VEC4"
		},
		{
			"bufferView":107,
			"componentType":5126,
			"count":2,
			"type":"VEC3"
		},
		{
			"bufferView":108,
			"componentType":5126,
			"count":31,
			"type":"VEC4"
		},
		{
			"bufferView":109,
			"componentType":5126,
			"count":2,
			"type":"VEC3"
		},
		{
			"bufferView":110,
			"componentType":5126,
			"count":2,
			"type":"VEC3"
		},
		{
			"bufferView":111,
			"componentType":5126,
			"count":2,
			"type":"VEC4"
		},
		{
			"bufferView":112,
			"componentType":5126,
			"count":2,
			"type":"VEC3"
		},
		{
			"bufferView":113,
			"componentType":5126,
			"count":2,
			"type":"VEC4"
		},
		{
			"bufferView":114,
			"componentType":5126,
			"count":2,
			"type":"VEC3"
		},
		{
			"bufferView":115,
			"componentType":5126,
			"count":2,
			"type":"VEC3"
		},
		{
			"bufferView":116,
			"componentType":5126,
			"count":31,
			"type":"VEC4"
		},
		{
			"bufferView":117,
			"componentType":5126,
			"count":2,
			"type":"VEC3"
		},
		{
			"bufferView":118,
			"componentType":5126,
			"count":2,
			"type":"VEC3"
		},
		{
			"bufferView":119,
			"componentType":5126,
			"count":2,
			"type":"VEC4"
		},
		{
			"bufferView":120,
			"componentType":5126,
			"count":2,
			"type":"VEC3"
		},
		{
			"bufferView":121,
			"componentType":5126,
			"count":2,
			"type":"VEC4"
		},
		{
			"bufferView":122,
			"componentType":5126,
			"count":2,
			"type":"VEC3"
		},
		{
			"bufferView":123,
			"componentType":5126,
			"count":2,
			"type":"VEC3"
		},
		{
			"bufferView":124,
			"componentType":5126,
			"count":31,
			"type":"VEC4"
		},
		{
			"bufferView":125,
			"componentType":5126,
			"count":2,
			"type":"VEC3"
		},
		{
			"bufferView":126,
			"componentType":5126,
			"count":31,
			"type":"VEC4"
		},
		{
			"bufferView":127,
			"componentType":5126,
			"count":2,
			"type":"VEC3"
		},
		{
			"bufferView":128,
			"componentType":5126,
			"count":31,
			"type":"VEC4"
		},
		{
			"bufferView":129,
			"componentType":5126,
			"count":2,
			"type":"VEC3"
		},
		{
			"bufferView":130,
			"componentType":5126,
			"count":31,
			"type":"VEC4"
		},
		{
			"bufferView":131,
			"componentType":5126,
			"count":2,
			"type":"VEC3"
		},
		{
			"bufferView":132,
			"componentType":5126,
			"count":31,
			"type":"VEC4"
		},
		{
			"bufferView":133,
			"componentType":5126,
			"count":2,
			"type":"VEC3"
		},
		{
			"bufferView":134,
			"componentType":5126,
			"count":31,
			"type":"VEC4"
		}
	],
	"bufferViews":[
		{
			"buffer":0,
			"byteLength":442632,
			"byteOffset":0,
			"target":34962
		},
		{
			"buffer":0,
			"byteLength":442632,
			"byteOffset":442632,
			"target":34962
		},
		{
			"buffer":0,
			"byteLength":442632,
			"byteOffset":885264,
			"target":34962
		},
		{
			"buffer":0,
			"byteLength":147544,
			"byteOffset":1327896,
			"target":34962
		},
		{
			"buffer":0,
			"byteLength":590176,
			"byteOffset":1475440,
			"target":34962
		},
		{
			"buffer":0,
			"byteLength":88596,
			"byteOffset":2065616,
			"target":34963
		},
		{
			"buffer":0,
			"byteLength":1152,
			"byteOffset":2154212
		},
		{
			"buffer":0,
			"byteLength":41280,
			"byteOffset":2155364,
			"target":34962
		},
		{
			"buffer":0,
			"byteLength":41280,
			"byteOffset":2196644,
			"target":34962
		},
		{
			"buffer":0,
			"byteLength":41280,
			"byteOffset":2237924,
			"target":34962
		},
		{
			"buffer":0,
			"byteLength":9888,
			"byteOffset":2279204,
			"target":34963
		},
		{
			"buffer":0,
			"byteLength":5520,
			"byteOffset":2289092,
			"target":34962
		},
		{
			"buffer":0,
			"byteLength":5520,
			"byteOffset":2294612,
			"target":34962
		},
		{
			"buffer":0,
			"byteLength":5520,
			"byteOffset":2300132,
			"target":34962
		},
		{
			"buffer":0,
			"byteLength":1320,
			"byteOffset":2305652,
			"target":34963
		},
		{
			"buffer":0,
			"byteLength":124,
			"byteOffset":2306972
		},
		{
			"buffer":0,
			"byteLength":372,
			"byteOffset":2307096
		},
		{
			"buffer":0,
			"byteLength":8,
			"byteOffset":2307468
		},
		{
			"buffer":0,
			"byteLength":32,
			"byteOffset":2307476
		},
		{
			"buffer":0,
			"byteLength":24,
			"byteOffset":2307508
		},
		{
			"buffer":0,
			"byteLength":24,
			"byteOffset":2307532
		},
		{
			"buffer":0,
			"byteLength":496,
			"byteOffset":2307556
		},
		{
			"buffer":0,
			"byteLength":24,
			"byteOffset":2308052
		},
		{
			"buffer":0,
			"byteLength":496,
			"byteOffset":2308076
		},
		{
			"buffer":0,
			"byteLength":24,
			"byteOffset":2308572
		},
		{
			"buffer":0,
			"byteLength":32,
			"byteOffset":2308596
		},
		{
			"buffer":0,
			"byteLength":24,
			"byteOffset":2308628
		},
		{
			"buffer":0,
			"byteLength":24,
			"byteOffset":2308652
		},
		{
			"buffer":0,
			"byteLength":32,
			"byteOffset":2308676
		},
		{
			"buffer":0,
			"byteLength":24,
			"byteOffset":2308708
		},
		{
			"buffer":0,
			"byteLength":24,
			"byteOffset":2308732
		},
		{
			"buffer":0,
			"byteLength":32,
			"byteOffset":2308756
		},
		{
			"buffer":0,
			"byteLength":24,
			"byteOffset":2308788
		},
		{
			"buffer":0,
			"byteLength":24,
			"byteOffset":2308812
		},
		{
			"buffer":0,
			"byteLength":496,
			"byteOffset":2308836
		},
		{
			"buffer":0,
			"byteLength":24,
			"byteOffset":2309332
		},
		{
			"buffer":0,
			"byteLength":24,
			"byteOffset":2309356
		},
		{
			"buffer":0,
			"byteLength":32,
			"byteOffset":2309380
		},
		{
			"buffer":0,
			"byteLength":24,
			"byteOffset":2309412
		},
		{
			"buffer":0,
			"byteLength":32,
			"byteOffset":2309436
		},
		{
			"buffer":0,
			"byteLength":24,
			"byteOffset":2309468
		},
		{
			"buffer":0,
			"byteLength":496,
			"byteOffset":2309492
		},
		{
			"buffer":0,
			"byteLength":24,
			"byteOffset":2309988
		},
		{
			"buffer":0,
			"byteLength":24,
			"byteOffset":2310012
		},
		{
			"buffer":0,
			"byteLength":496,
			"byteOffset":2310036
		},
		{
			"buffer":0,
			"byteLength":24,
			"byteOffset":2310532
		},
		{
			"buffer":0,
			"byteLength":24,
			"byteOffset":2310556
		},
		{
			"buffer":0,
			"byteLength":32,
			"byteOffset":2310580
		},
		{
			"buffer":0,
			"byteLength":24,
			"byteOffset":2310612
		},
		{
			"buffer":0,
			"byteLength":24,
			"byteOffset":2310636
		},
		{
			"buffer":0,
			"byteLength":496,
			"byteOffset":2310660
		},
		{
			"buffer":0,
			"byteLength":24,
			"byteOffset":2311156
		},
		{
			"buffer":0,
			"byteLength":24,
			"byteOffset":2311180
		},
		{
			"buffer":0,
			"byteLength":496,
			"byteOffset":2311204
		},
		{
			"buffer":0,
			"byteLength":24,
			"byteOffset":2311700
		},
		{
			"buffer":0,
			"byteLength":24,
			"byteOffset":2311724
		},
		{
			"buffer":0,
			"byteLength":32,
			"byteOffset":2311748
		},
		{
			"buffer":0,
			"byteLength":24,
			"byteOffset":2311780
		},
		{
			"buffer":0,
			"byteLength":24,
			"byteOffset":2311804
		},
		{
			"buffer":0,
			"byteLength":496,
			"byteOffset":2311828
		},
		{
			"buffer":0,
			"byteLength":24,
			"byteOffset":2312324
		},
		{
			"buffer":0,
			"byteLength":496,
			"byteOffset":2312348
		},
		{
			"buffer":0,
			"byteLength":24,
			"byteOffset":2312844
		},
		{
			"buffer":0,
			"byteLength":32,
			"byteOffset":2312868
		},
		{
			"buffer":0,
			"byteLength":24,
			"byteOffset":2312900
		},
		{
			"buffer":0,
			"byteLength":724,
			"byteOffset":2312924
		},
		{
			"buffer":0,
			"byteLength":2172,
			"byteOffset":2313648
		},
		{
			"buffer":0,
			"byteLength":8,
			"byteOffset":2315820
		},
		{
			"buffer":0,
			"byteLength":2896,
			"byteOffset":2315828
		},
		{
			"buffer":0,
			"byteLength":2896,
			"byteOffset":2318724
		},
		{
			"buffer":0,
			"byteLength":2896,
			"byteOffset":2321620
		},
		{
			"buffer":0,
			"byteLength":24,
			"byteOffset":2324516
		},
		{
			"buffer":0,
			"byteLength":32,
			"byteOffset":2324540
		},
		{
			"buffer":0,
			"byteLength":24,
			"byteOffset":2324572
		},
		{
			"buffer":0,
			"byteLength":2896,
			"byteOffset":2324596
		},
		{
			"buffer":0,
			"byteLength":24,
			"byteOffset":2327492
		},
		{
			"buffer":0,
			"byteLength":24,
			"byteOffset":2327516
		},
		{
			"buffer":0,
			"byteLength":32,
			"byteOffset":2327540
		},
		{
			"buffer":0,
			"byteLength":24,
			"byteOffset":2327572
		},
		{
			"buffer":0,
			"byteLength":24,
			"byteOffset":2327596
		},
		{
			"buffer":0,
			"byteLength":32,
			"byteOffset":2327620
		},
		{
			"buffer":0,
			"byteLength":24,
			"byteOffset":2327652
		},
		{
			"buffer":0,
			"byteLength":32,
			"byteOffset":2327676
		},
		{
			"buffer":0,
			"byteLength":24,
			"byteOffset":2327708
		},
		{
			"buffer":0,
			"byteLength":24,
			"byteOffset":2327732
		},
		{
			"buffer":0,
			"byteLength":32,
			"byteOffset":2327756
		},
		{
			"buffer":0,
			"byteLength":24,
			"byteOffset":2327788
		},
		{
			"buffer":0,
			"byteLength":32,
			"byteOffset":2327812
		},
		{
			"buffer":0,
			"byteLength":24,
			"byteOffset":2327844
		},
		{
			"buffer":0,
			"byteLength":32,
			"byteOffset":2327868
		},
		{
			"buffer":0,
			"byteLength":32,
			"byteOffset":2327900
		},
		{
			"buffer":0,
			"byteLength":24,
			"byteOffset":2327932
		},
		{
			"buffer":0,
			"byteLength":32,
			"byteOffset":2327956
		},
		{
			"buffer":0,
			"byteLength":24,
			"byteOffset":2327988
		},
		{
			"buffer":0,
			"byteLength":32,
			"byteOffset":2328012
		},
		{
			"buffer":0,
			"byteLength":32,
			"byteOffset":2328044
		},
		{
			"buffer":0,
			"byteLength":24,
			"byteOffset":2328076
		},
		{
			"buffer":0,
			"byteLength":372,
			"byteOffset":2328100
		},
		{
			"buffer":0,
			"byteLength":496,
			"byteOffset":2328472
		},
		{
			"buffer":0,
			"byteLength":32,
			"byteOffset":2328968
		},
		{
			"buffer":0,
			"byteLength":24,
			"byteOffset":2329000
		},
		{
			"buffer":0,
			"byteLength":496,
			"byteOffset":2329024
		},
		{
			"buffer":0,
			"byteLength":24,
			"byteOffset":2329520
		},
		{
			"buffer":0,
			"byteLength":24,
			"byteOffset":2329544
		},
		{
			"buffer":0,
			"byteLength":496,
			"byteOffset":2329568
		},
		{
			"buffer":0,
			"byteLength":24,
			"byteOffset":2330064
		},
		{
			"buffer":0,
			"byteLength":496,
			"byteOffset":2330088
		},
		{
			"buffer":0,
			"byteLength":24,
			"byteOffset":2330584
		},
		{
			"buffer":0,
			"byteLength":496,
			"byteOffset":2330608
		},
		{
			"buffer":0,
			"byteLength":24,
			"byteOffset":2331104
		},
		{
			"buffer":0,
			"byteLength":24,
			"byteOffset":2331128
		},
		{
			"buffer":0,
			"byteLength":32,
			"byteOffset":2331152
		},
		{
			"buffer":0,
			"byteLength":24,
			"byteOffset":2331184
		},
		{
			"buffer":0,
			"byteLength":32,
			"byteOffset":2331208
		},
		{
			"buffer":0,
			"byteLength":24,
			"byteOffset":2331240
		},
		{
			"buffer":0,
			"byteLength":24,
			"byteOffset":2331264
		},
		{
			"buffer":0,
			"byteLength":496,
			"byteOffset":2331288
		},
		{
			"buffer":0,
			"byteLength":24,
			"byteOffset":2331784
		},
		{
			"buffer":0,
			"byteLength":24,
			"byteOffset":2331808
		},
		{
			"buffer":0,
			"byteLength":32,
			"byteOffset":2331832
		},
		{
			"buffer":0,
			"byteLength":24,
			"byteOffset":2331864
		},
		{
			"buffer":0,
			"byteLength":32,
			"byteOffset":2331888
		},
		{
			"buffer":0,
			"byteLength":24,
			"byteOffset":2331920
		},
		{
			"buffer":0,
			"byteLength":24,
			"byteOffset":2331944
		},
		{
			"buffer":0,
			"byteLength":496,
			"byteOffset":2331968
		},
		{
			"buffer":0,
			"byteLength":24,
			"byteOffset":2332464
		},
		{
			"buffer":0,
			"byteLength":496,
			"byteOffset":2332488
		},
		{
			"buffer":0,
			"byteLength":24,
			"byteOffset":2332984
		},
		{
			"buffer":0,
			"byteLength":496,
			"byteOffset":2333008
		},
		{
			"buffer":0,
			"byteLength":24,
			"byteOffset":2333504
		},
		{
			"buffer":0,
			"byteLength":496,
			"byteOffset":2333528
		},
		{
			"buffer":0,
			"byteLength":24,
			"byteOffset":2334024
		},
		{
			"buffer":0,
			"byteLength":496,
			"byteOffset":2334048
		},
		{
			"buffer":0,
			"byteLength":24,
			"byteOffset":2334544
		},
		{
			"buffer":0,
			"byteLength":496,
			"byteOffset":2334568
		}
	],
	"buffers":[
		{
			"byteLength":2335064,
			"uri":"echsenkrieger.bin"
		}
	]
}
