{
	"asset":{
		"generator":"Khronos glTF Blender I/O v5.2.40",
		"version":"2.0"
	},
	"scene":0,
	"scenes":[
		{
			"name":"Scene",
			"nodes":[
				19
			]
		}
	],
	"nodes":[
		{
			"name":"Hut",
			"rotation":[
				-0.49269899725914,
				1.4670467862742953e-07,
				-8.306282950343302e-08,
				0.8701998591423035
			],
			"scale":[
				1,
				0.9999998807907104,
				0.9999999403953552
			],
			"translation":[
				0,
				0.2900000810623169,
				-0.019999999552965164
			]
		},
		{
			"children":[
				0
			],
			"name":"Kopf",
			"rotation":[
				-0.35538044571876526,
				-5.571375538693246e-08,
				-2.1182325227186993e-08,
				0.9347217082977295
			],
			"translation":[
				0,
				0.12041591107845306,
				0
			]
		},
		{
			"children":[
				1
			],
			"name":"Hals",
			"rotation":[
				0.35538044571876526,
				5.571375538693246e-08,
				2.1182325227186993e-08,
				0.9347217082977295
			],
			"translation":[
				0,
				0.25999999046325684,
				0
			]
		},
		{
			"name":"Hand.L",
			"rotation":[
				-0.13953106105327606,
				0.0044493293389678,
				-0.012378926388919353,
				0.9901303648948669
			],
			"translation":[
				6.027519816598215e-08,
				0.24556073546409607,
				1.30385160446167e-08
			]
		},
		{
			"children":[
				3
			],
			"name":"Unterarm.L",
			"rotation":[
				-0.1360461711883545,
				-0.0005330170388333499,
				0.007760367356240749,
				0.9906719923019409
			],
			"scale":[
				0.9999999403953552,
				0.9999999403953552,
				0.9999998807907104
			],
			"translation":[
				-6.705523913907996e-10,
				0.2947879731655121,
				-4.656612873077393e-10
			]
		},
		{
			"children":[
				4
			],
			"name":"Oberarm.L",
			"rotation":[
				-0.9873651266098022,
				-0.15478397905826569,
				0.0052567459642887115,
				0.03353271260857582
			],
			"scale":[
				0.9999997615814209,
				0.9999998211860657,
				1
			],
			"translation":[
				0.20000000298023224,
				0.20000004768371582,
				0
			]
		},
		{
			"name":"Hand.R",
			"rotation":[
				-0.13953106105327606,
				-0.0044493293389678,
				0.012378926388919353,
				0.9901303648948669
			],
			"translation":[
				-6.027519816598215e-08,
				0.24556073546409607,
				1.30385160446167e-08
			]
		},
		{
			"children":[
				6
			],
			"name":"Unterarm.R",
			"rotation":[
				-0.1360461711883545,
				0.0005330170388333499,
				-0.007760367356240749,
				0.9906719923019409
			],
			"scale":[
				0.9999999403953552,
				0.9999999403953552,
				0.9999998807907104
			],
			"translation":[
				6.705523913907996e-10,
				0.2947879731655121,
				-4.656612873077393e-10
			]
		},
		{
			"children":[
				7
			],
			"name":"Oberarm.R",
			"rotation":[
				-0.9873651266098022,
				0.15478397905826569,
				-0.0052567459642887115,
				0.03353271260857582
			],
			"scale":[
				0.9999997615814209,
				0.9999998211860657,
				1
			],
			"translation":[
				-0.20000000298023224,
				0.20000004768371582,
				0
			]
		},
		{
			"children":[
				2,
				5,
				8
			],
			"name":"Brust",
			"translation":[
				0,
				0.19999992847442627,
				0
			]
		},
		{
			"children":[
				9
			],
			"name":"Bauch",
			"translation":[
				0,
				0.15000003576278687,
				0
			]
		},
		{
			"name":"Fuss.L",
			"rotation":[
				1.1095015572948341e-08,
				0.8304529190063477,
				-0.5570888519287109,
				6.26974596684704e-08
			],
			"scale":[
				1,
				0.9999998807907104,
				0.9999998807907104
			],
			"translation":[
				-2.35995756270313e-09,
				0.42047592997550964,
				1.1594929461011816e-09
			]
		},
		{
			"children":[
				11
			],
			"name":"Unterschenkel.L",
			"rotation":[
				0.023789310827851295,
				9.13925006784666e-08,
				9.505255610386953e-11,
				0.9997169971466064
			],
			"scale":[
				1,
				0.9999999403953552,
				1
			],
			"translation":[
				0,
				0.4300000071525574,
				0
			]
		},
		{
			"children":[
				12
			],
			"name":"Oberschenkel.L",
			"rotation":[
				1,
				0,
				-4.371138828673793e-08,
				0
			],
			"translation":[
				0.10000000149011612,
				0,
				0
			]
		},
		{
			"name":"Fuss.R",
			"rotation":[
				1.1095015572948341e-08,
				0.8304529190063477,
				-0.5570888519287109,
				6.26974596684704e-08
			],
			"scale":[
				1,
				0.9999998807907104,
				0.9999998807907104
			],
			"translation":[
				-2.35995756270313e-09,
				0.42047592997550964,
				7.031522031297754e-10
			]
		},
		{
			"children":[
				14
			],
			"name":"Unterschenkel.R",
			"rotation":[
				0.023789310827851295,
				9.13925006784666e-08,
				9.505255610386953e-11,
				0.9997169971466064
			],
			"scale":[
				1,
				0.9999999403953552,
				1
			],
			"translation":[
				0,
				0.4300000071525574,
				0
			]
		},
		{
			"children":[
				15
			],
			"name":"Oberschenkel.R",
			"rotation":[
				1,
				0,
				-4.371138828673793e-08,
				0
			],
			"translation":[
				-0.10000000149011612,
				0,
				0
			]
		},
		{
			"children":[
				10,
				13,
				16
			],
			"name":"Becken",
			"translation":[
				0,
				0.949999988079071,
				0
			]
		},
		{
			"mesh":0,
			"name":"Gargoyle",
			"skin":0
		},
		{
			"children":[
				18,
				17
			],
			"name":"GargoyleSkelett"
		}
	],
	"animations":[
		{
			"channels":[
				{
					"sampler":0,
					"target":{
						"node":17,
						"path":"translation"
					}
				},
				{
					"sampler":1,
					"target":{
						"node":17,
						"path":"rotation"
					}
				},
				{
					"sampler":2,
					"target":{
						"node":17,
						"path":"scale"
					}
				},
				{
					"sampler":3,
					"target":{
						"node":10,
						"path":"translation"
					}
				},
				{
					"sampler":4,
					"target":{
						"node":10,
						"path":"rotation"
					}
				},
				{
					"sampler":5,
					"target":{
						"node":10,
						"path":"scale"
					}
				},
				{
					"sampler":6,
					"target":{
						"node":9,
						"path":"translation"
					}
				},
				{
					"sampler":7,
					"target":{
						"node":9,
						"path":"rotation"
					}
				},
				{
					"sampler":8,
					"target":{
						"node":9,
						"path":"scale"
					}
				},
				{
					"sampler":9,
					"target":{
						"node":2,
						"path":"translation"
					}
				},
				{
					"sampler":10,
					"target":{
						"node":2,
						"path":"rotation"
					}
				},
				{
					"sampler":11,
					"target":{
						"node":2,
						"path":"scale"
					}
				},
				{
					"sampler":12,
					"target":{
						"node":1,
						"path":"translation"
					}
				},
				{
					"sampler":13,
					"target":{
						"node":1,
						"path":"rotation"
					}
				},
				{
					"sampler":14,
					"target":{
						"node":1,
						"path":"scale"
					}
				},
				{
					"sampler":15,
					"target":{
						"node":0,
						"path":"translation"
					}
				},
				{
					"sampler":16,
					"target":{
						"node":0,
						"path":"rotation"
					}
				},
				{
					"sampler":17,
					"target":{
						"node":0,
						"path":"scale"
					}
				},
				{
					"sampler":18,
					"target":{
						"node":5,
						"path":"translation"
					}
				},
				{
					"sampler":19,
					"target":{
						"node":5,
						"path":"rotation"
					}
				},
				{
					"sampler":20,
					"target":{
						"node":5,
						"path":"scale"
					}
				},
				{
					"sampler":21,
					"target":{
						"node":4,
						"path":"translation"
					}
				},
				{
					"sampler":22,
					"target":{
						"node":4,
						"path":"rotation"
					}
				},
				{
					"sampler":23,
					"target":{
						"node":4,
						"path":"scale"
					}
				},
				{
					"sampler":24,
					"target":{
						"node":3,
						"path":"translation"
					}
				},
				{
					"sampler":25,
					"target":{
						"node":3,
						"path":"rotation"
					}
				},
				{
					"sampler":26,
					"target":{
						"node":3,
						"path":"scale"
					}
				},
				{
					"sampler":27,
					"target":{
						"node":8,
						"path":"translation"
					}
				},
				{
					"sampler":28,
					"target":{
						"node":8,
						"path":"rotation"
					}
				},
				{
					"sampler":29,
					"target":{
						"node":8,
						"path":"scale"
					}
				},
				{
					"sampler":30,
					"target":{
						"node":7,
						"path":"translation"
					}
				},
				{
					"sampler":31,
					"target":{
						"node":7,
						"path":"rotation"
					}
				},
				{
					"sampler":32,
					"target":{
						"node":7,
						"path":"scale"
					}
				},
				{
					"sampler":33,
					"target":{
						"node":6,
						"path":"translation"
					}
				},
				{
					"sampler":34,
					"target":{
						"node":6,
						"path":"rotation"
					}
				},
				{
					"sampler":35,
					"target":{
						"node":6,
						"path":"scale"
					}
				},
				{
					"sampler":36,
					"target":{
						"node":13,
						"path":"translation"
					}
				},
				{
					"sampler":37,
					"target":{
						"node":13,
						"path":"rotation"
					}
				},
				{
					"sampler":38,
					"target":{
						"node":13,
						"path":"scale"
					}
				},
				{
					"sampler":39,
					"target":{
						"node":12,
						"path":"translation"
					}
				},
				{
					"sampler":40,
					"target":{
						"node":12,
						"path":"rotation"
					}
				},
				{
					"sampler":41,
					"target":{
						"node":12,
						"path":"scale"
					}
				},
				{
					"sampler":42,
					"target":{
						"node":11,
						"path":"translation"
					}
				},
				{
					"sampler":43,
					"target":{
						"node":11,
						"path":"rotation"
					}
				},
				{
					"sampler":44,
					"target":{
						"node":11,
						"path":"scale"
					}
				},
				{
					"sampler":45,
					"target":{
						"node":16,
						"path":"translation"
					}
				},
				{
					"sampler":46,
					"target":{
						"node":16,
						"path":"rotation"
					}
				},
				{
					"sampler":47,
					"target":{
						"node":16,
						"path":"scale"
					}
				},
				{
					"sampler":48,
					"target":{
						"node":15,
						"path":"translation"
					}
				},
				{
					"sampler":49,
					"target":{
						"node":15,
						"path":"rotation"
					}
				},
				{
					"sampler":50,
					"target":{
						"node":15,
						"path":"scale"
					}
				},
				{
					"sampler":51,
					"target":{
						"node":14,
						"path":"translation"
					}
				},
				{
					"sampler":52,
					"target":{
						"node":14,
						"path":"rotation"
					}
				},
				{
					"sampler":53,
					"target":{
						"node":14,
						"path":"scale"
					}
				}
			],
			"name":"Angriff",
			"samplers":[
				{
					"input":7,
					"interpolation":"STEP",
					"output":8
				},
				{
					"input":7,
					"interpolation":"STEP",
					"output":9
				},
				{
					"input":7,
					"interpolation":"STEP",
					"output":10
				},
				{
					"input":7,
					"interpolation":"STEP",
					"output":11
				},
				{
					"input":12,
					"interpolation":"LINEAR",
					"output":13
				},
				{
					"input":7,
					"interpolation":"STEP",
					"output":10
				},
				{
					"input":7,
					"interpolation":"STEP",
					"output":14
				},
				{
					"input":12,
					"interpolation":"LINEAR",
					"output":15
				},
				{
					"input":7,
					"interpolation":"STEP",
					"output":10
				},
				{
					"input":7,
					"interpolation":"STEP",
					"output":16
				},
				{
					"input":7,
					"interpolation":"STEP",
					"output":17
				},
				{
					"input":7,
					"interpolation":"STEP",
					"output":10
				},
				{
					"input":7,
					"interpolation":"STEP",
					"output":18
				},
				{
					"input":12,
					"interpolation":"LINEAR",
					"output":19
				},
				{
					"input":7,
					"interpolation":"STEP",
					"output":10
				},
				{
					"input":7,
					"interpolation":"STEP",
					"output":20
				},
				{
					"input":7,
					"interpolation":"STEP",
					"output":21
				},
				{
					"input":7,
					"interpolation":"STEP",
					"output":22
				},
				{
					"input":7,
					"interpolation":"STEP",
					"output":23
				},
				{
					"input":12,
					"interpolation":"LINEAR",
					"output":24
				},
				{
					"input":7,
					"interpolation":"STEP",
					"output":25
				},
				{
					"input":7,
					"interpolation":"STEP",
					"output":26
				},
				{
					"input":7,
					"interpolation":"STEP",
					"output":27
				},
				{
					"input":7,
					"interpolation":"STEP",
					"output":28
				},
				{
					"input":7,
					"interpolation":"STEP",
					"output":29
				},
				{
					"input":7,
					"interpolation":"STEP",
					"output":30
				},
				{
					"input":7,
					"interpolation":"STEP",
					"output":31
				},
				{
					"input":7,
					"interpolation":"STEP",
					"output":32
				},
				{
					"input":12,
					"interpolation":"LINEAR",
					"output":33
				},
				{
					"input":7,
					"interpolation":"STEP",
					"output":25
				},
				{
					"input":7,
					"interpolation":"STEP",
					"output":34
				},
				{
					"input":7,
					"interpolation":"STEP",
					"output":35
				},
				{
					"input":7,
					"interpolation":"STEP",
					"output":28
				},
				{
					"input":7,
					"interpolation":"STEP",
					"output":36
				},
				{
					"input":7,
					"interpolation":"STEP",
					"output":37
				},
				{
					"input":7,
					"interpolation":"STEP",
					"output":31
				},
				{
					"input":7,
					"interpolation":"STEP",
					"output":38
				},
				{
					"input":12,
					"interpolation":"LINEAR",
					"output":39
				},
				{
					"input":7,
					"interpolation":"STEP",
					"output":40
				},
				{
					"input":7,
					"interpolation":"STEP",
					"output":41
				},
				{
					"input":12,
					"interpolation":"LINEAR",
					"output":42
				},
				{
					"input":7,
					"interpolation":"STEP",
					"output":43
				},
				{
					"input":7,
					"interpolation":"STEP",
					"output":44
				},
				{
					"input":7,
					"interpolation":"STEP",
					"output":45
				},
				{
					"input":7,
					"interpolation":"STEP",
					"output":46
				},
				{
					"input":7,
					"interpolation":"STEP",
					"output":47
				},
				{
					"input":12,
					"interpolation":"LINEAR",
					"output":48
				},
				{
					"input":7,
					"interpolation":"STEP",
					"output":40
				},
				{
					"input":7,
					"interpolation":"STEP",
					"output":49
				},
				{
					"input":12,
					"interpolation":"LINEAR",
					"output":50
				},
				{
					"input":7,
					"interpolation":"STEP",
					"output":46
				},
				{
					"input":7,
					"interpolation":"STEP",
					"output":51
				},
				{
					"input":7,
					"interpolation":"STEP",
					"output":52
				},
				{
					"input":7,
					"interpolation":"STEP",
					"output":53
				}
			]
		},
		{
			"channels":[
				{
					"sampler":0,
					"target":{
						"node":17,
						"path":"translation"
					}
				},
				{
					"sampler":1,
					"target":{
						"node":17,
						"path":"rotation"
					}
				},
				{
					"sampler":2,
					"target":{
						"node":17,
						"path":"scale"
					}
				},
				{
					"sampler":3,
					"target":{
						"node":10,
						"path":"translation"
					}
				},
				{
					"sampler":4,
					"target":{
						"node":10,
						"path":"rotation"
					}
				},
				{
					"sampler":5,
					"target":{
						"node":10,
						"path":"scale"
					}
				},
				{
					"sampler":6,
					"target":{
						"node":9,
						"path":"translation"
					}
				},
				{
					"sampler":7,
					"target":{
						"node":9,
						"path":"rotation"
					}
				},
				{
					"sampler":8,
					"target":{
						"node":9,
						"path":"scale"
					}
				},
				{
					"sampler":9,
					"target":{
						"node":2,
						"path":"translation"
					}
				},
				{
					"sampler":10,
					"target":{
						"node":2,
						"path":"rotation"
					}
				},
				{
					"sampler":11,
					"target":{
						"node":2,
						"path":"scale"
					}
				},
				{
					"sampler":12,
					"target":{
						"node":1,
						"path":"translation"
					}
				},
				{
					"sampler":13,
					"target":{
						"node":1,
						"path":"rotation"
					}
				},
				{
					"sampler":14,
					"target":{
						"node":1,
						"path":"scale"
					}
				},
				{
					"sampler":15,
					"target":{
						"node":0,
						"path":"translation"
					}
				},
				{
					"sampler":16,
					"target":{
						"node":0,
						"path":"rotation"
					}
				},
				{
					"sampler":17,
					"target":{
						"node":0,
						"path":"scale"
					}
				},
				{
					"sampler":18,
					"target":{
						"node":5,
						"path":"translation"
					}
				},
				{
					"sampler":19,
					"target":{
						"node":5,
						"path":"rotation"
					}
				},
				{
					"sampler":20,
					"target":{
						"node":5,
						"path":"scale"
					}
				},
				{
					"sampler":21,
					"target":{
						"node":4,
						"path":"translation"
					}
				},
				{
					"sampler":22,
					"target":{
						"node":4,
						"path":"rotation"
					}
				},
				{
					"sampler":23,
					"target":{
						"node":4,
						"path":"scale"
					}
				},
				{
					"sampler":24,
					"target":{
						"node":3,
						"path":"translation"
					}
				},
				{
					"sampler":25,
					"target":{
						"node":3,
						"path":"rotation"
					}
				},
				{
					"sampler":26,
					"target":{
						"node":3,
						"path":"scale"
					}
				},
				{
					"sampler":27,
					"target":{
						"node":8,
						"path":"translation"
					}
				},
				{
					"sampler":28,
					"target":{
						"node":8,
						"path":"rotation"
					}
				},
				{
					"sampler":29,
					"target":{
						"node":8,
						"path":"scale"
					}
				},
				{
					"sampler":30,
					"target":{
						"node":7,
						"path":"translation"
					}
				},
				{
					"sampler":31,
					"target":{
						"node":7,
						"path":"rotation"
					}
				},
				{
					"sampler":32,
					"target":{
						"node":7,
						"path":"scale"
					}
				},
				{
					"sampler":33,
					"target":{
						"node":6,
						"path":"translation"
					}
				},
				{
					"sampler":34,
					"target":{
						"node":6,
						"path":"rotation"
					}
				},
				{
					"sampler":35,
					"target":{
						"node":6,
						"path":"scale"
					}
				},
				{
					"sampler":36,
					"target":{
						"node":13,
						"path":"translation"
					}
				},
				{
					"sampler":37,
					"target":{
						"node":13,
						"path":"rotation"
					}
				},
				{
					"sampler":38,
					"target":{
						"node":13,
						"path":"scale"
					}
				},
				{
					"sampler":39,
					"target":{
						"node":12,
						"path":"translation"
					}
				},
				{
					"sampler":40,
					"target":{
						"node":12,
						"path":"rotation"
					}
				},
				{
					"sampler":41,
					"target":{
						"node":12,
						"path":"scale"
					}
				},
				{
					"sampler":42,
					"target":{
						"node":11,
						"path":"translation"
					}
				},
				{
					"sampler":43,
					"target":{
						"node":11,
						"path":"rotation"
					}
				},
				{
					"sampler":44,
					"target":{
						"node":11,
						"path":"scale"
					}
				},
				{
					"sampler":45,
					"target":{
						"node":16,
						"path":"translation"
					}
				},
				{
					"sampler":46,
					"target":{
						"node":16,
						"path":"rotation"
					}
				},
				{
					"sampler":47,
					"target":{
						"node":16,
						"path":"scale"
					}
				},
				{
					"sampler":48,
					"target":{
						"node":15,
						"path":"translation"
					}
				},
				{
					"sampler":49,
					"target":{
						"node":15,
						"path":"rotation"
					}
				},
				{
					"sampler":50,
					"target":{
						"node":15,
						"path":"scale"
					}
				},
				{
					"sampler":51,
					"target":{
						"node":14,
						"path":"translation"
					}
				},
				{
					"sampler":52,
					"target":{
						"node":14,
						"path":"rotation"
					}
				},
				{
					"sampler":53,
					"target":{
						"node":14,
						"path":"scale"
					}
				}
			],
			"name":"Idle",
			"samplers":[
				{
					"input":54,
					"interpolation":"LINEAR",
					"output":55
				},
				{
					"input":56,
					"interpolation":"STEP",
					"output":9
				},
				{
					"input":56,
					"interpolation":"STEP",
					"output":10
				},
				{
					"input":56,
					"interpolation":"STEP",
					"output":11
				},
				{
					"input":56,
					"interpolation":"STEP",
					"output":9
				},
				{
					"input":56,
					"interpolation":"STEP",
					"output":10
				},
				{
					"input":56,
					"interpolation":"STEP",
					"output":57
				},
				{
					"input":54,
					"interpolation":"LINEAR",
					"output":58
				},
				{
					"input":56,
					"interpolation":"STEP",
					"output":10
				},
				{
					"input":56,
					"interpolation":"STEP",
					"output":59
				},
				{
					"input":56,
					"interpolation":"STEP",
					"output":17
				},
				{
					"input":56,
					"interpolation":"STEP",
					"output":10
				},
				{
					"input":56,
					"interpolation":"STEP",
					"output":60
				},
				{
					"input":54,
					"interpolation":"LINEAR",
					"output":61
				},
				{
					"input":56,
					"interpolation":"STEP",
					"output":10
				},
				{
					"input":56,
					"interpolation":"STEP",
					"output":62
				},
				{
					"input":56,
					"interpolation":"STEP",
					"output":63
				},
				{
					"input":56,
					"interpolation":"STEP",
					"output":64
				},
				{
					"input":56,
					"interpolation":"STEP",
					"output":65
				},
				{
					"input":54,
					"interpolation":"LINEAR",
					"output":66
				},
				{
					"input":56,
					"interpolation":"STEP",
					"output":67
				},
				{
					"input":56,
					"interpolation":"STEP",
					"output":68
				},
				{
					"input":54,
					"interpolation":"LINEAR",
					"output":69
				},
				{
					"input":56,
					"interpolation":"STEP",
					"output":70
				},
				{
					"input":56,
					"interpolation":"STEP",
					"output":71
				},
				{
					"input":56,
					"interpolation":"STEP",
					"output":72
				},
				{
					"input":56,
					"interpolation":"STEP",
					"output":73
				},
				{
					"input":56,
					"interpolation":"STEP",
					"output":74
				},
				{
					"input":54,
					"interpolation":"LINEAR",
					"output":75
				},
				{
					"input":56,
					"interpolation":"STEP",
					"output":67
				},
				{
					"input":56,
					"interpolation":"STEP",
					"output":76
				},
				{
					"input":54,
					"interpolation":"LINEAR",
					"output":77
				},
				{
					"input":56,
					"interpolation":"STEP",
					"output":70
				},
				{
					"input":56,
					"interpolation":"STEP",
					"output":78
				},
				{
					"input":56,
					"interpolation":"STEP",
					"output":79
				},
				{
					"input":56,
					"interpolation":"STEP",
					"output":73
				},
				{
					"input":56,
					"interpolation":"STEP",
					"output":80
				},
				{
					"input":56,
					"interpolation":"STEP",
					"output":81
				},
				{
					"input":56,
					"interpolation":"STEP",
					"output":40
				},
				{
					"input":56,
					"interpolation":"STEP",
					"output":82
				},
				{
					"input":56,
					"interpolation":"STEP",
					"output":83
				},
				{
					"input":56,
					"interpolation":"STEP",
					"output":43
				},
				{
					"input":56,
					"interpolation":"STEP",
					"output":84
				},
				{
					"input":56,
					"interpolation":"STEP",
					"output":85
				},
				{
					"input":56,
					"interpolation":"STEP",
					"output":86
				},
				{
					"input":56,
					"interpolation":"STEP",
					"output":87
				},
				{
					"input":56,
					"interpolation":"STEP",
					"output":88
				},
				{
					"input":56,
					"interpolation":"STEP",
					"output":40
				},
				{
					"input":56,
					"interpolation":"STEP",
					"output":89
				},
				{
					"input":56,
					"interpolation":"STEP",
					"output":90
				},
				{
					"input":56,
					"interpolation":"STEP",
					"output":46
				},
				{
					"input":56,
					"interpolation":"STEP",
					"output":91
				},
				{
					"input":56,
					"interpolation":"STEP",
					"output":92
				},
				{
					"input":56,
					"interpolation":"STEP",
					"output":86
				}
			]
		},
		{
			"channels":[
				{
					"sampler":0,
					"target":{
						"node":17,
						"path":"translation"
					}
				},
				{
					"sampler":1,
					"target":{
						"node":17,
						"path":"rotation"
					}
				},
				{
					"sampler":2,
					"target":{
						"node":17,
						"path":"scale"
					}
				},
				{
					"sampler":3,
					"target":{
						"node":10,
						"path":"translation"
					}
				},
				{
					"sampler":4,
					"target":{
						"node":10,
						"path":"rotation"
					}
				},
				{
					"sampler":5,
					"target":{
						"node":10,
						"path":"scale"
					}
				},
				{
					"sampler":6,
					"target":{
						"node":9,
						"path":"translation"
					}
				},
				{
					"sampler":7,
					"target":{
						"node":9,
						"path":"rotation"
					}
				},
				{
					"sampler":8,
					"target":{
						"node":9,
						"path":"scale"
					}
				},
				{
					"sampler":9,
					"target":{
						"node":2,
						"path":"translation"
					}
				},
				{
					"sampler":10,
					"target":{
						"node":2,
						"path":"rotation"
					}
				},
				{
					"sampler":11,
					"target":{
						"node":2,
						"path":"scale"
					}
				},
				{
					"sampler":12,
					"target":{
						"node":1,
						"path":"translation"
					}
				},
				{
					"sampler":13,
					"target":{
						"node":1,
						"path":"rotation"
					}
				},
				{
					"sampler":14,
					"target":{
						"node":1,
						"path":"scale"
					}
				},
				{
					"sampler":15,
					"target":{
						"node":0,
						"path":"translation"
					}
				},
				{
					"sampler":16,
					"target":{
						"node":0,
						"path":"rotation"
					}
				},
				{
					"sampler":17,
					"target":{
						"node":0,
						"path":"scale"
					}
				},
				{
					"sampler":18,
					"target":{
						"node":5,
						"path":"translation"
					}
				},
				{
					"sampler":19,
					"target":{
						"node":5,
						"path":"rotation"
					}
				},
				{
					"sampler":20,
					"target":{
						"node":5,
						"path":"scale"
					}
				},
				{
					"sampler":21,
					"target":{
						"node":4,
						"path":"translation"
					}
				},
				{
					"sampler":22,
					"target":{
						"node":4,
						"path":"rotation"
					}
				},
				{
					"sampler":23,
					"target":{
						"node":4,
						"path":"scale"
					}
				},
				{
					"sampler":24,
					"target":{
						"node":3,
						"path":"translation"
					}
				},
				{
					"sampler":25,
					"target":{
						"node":3,
						"path":"rotation"
					}
				},
				{
					"sampler":26,
					"target":{
						"node":3,
						"path":"scale"
					}
				},
				{
					"sampler":27,
					"target":{
						"node":8,
						"path":"translation"
					}
				},
				{
					"sampler":28,
					"target":{
						"node":8,
						"path":"rotation"
					}
				},
				{
					"sampler":29,
					"target":{
						"node":8,
						"path":"scale"
					}
				},
				{
					"sampler":30,
					"target":{
						"node":7,
						"path":"translation"
					}
				},
				{
					"sampler":31,
					"target":{
						"node":7,
						"path":"rotation"
					}
				},
				{
					"sampler":32,
					"target":{
						"node":7,
						"path":"scale"
					}
				},
				{
					"sampler":33,
					"target":{
						"node":6,
						"path":"translation"
					}
				},
				{
					"sampler":34,
					"target":{
						"node":6,
						"path":"rotation"
					}
				},
				{
					"sampler":35,
					"target":{
						"node":6,
						"path":"scale"
					}
				},
				{
					"sampler":36,
					"target":{
						"node":13,
						"path":"translation"
					}
				},
				{
					"sampler":37,
					"target":{
						"node":13,
						"path":"rotation"
					}
				},
				{
					"sampler":38,
					"target":{
						"node":13,
						"path":"scale"
					}
				},
				{
					"sampler":39,
					"target":{
						"node":12,
						"path":"translation"
					}
				},
				{
					"sampler":40,
					"target":{
						"node":12,
						"path":"rotation"
					}
				},
				{
					"sampler":41,
					"target":{
						"node":12,
						"path":"scale"
					}
				},
				{
					"sampler":42,
					"target":{
						"node":11,
						"path":"translation"
					}
				},
				{
					"sampler":43,
					"target":{
						"node":11,
						"path":"rotation"
					}
				},
				{
					"sampler":44,
					"target":{
						"node":11,
						"path":"scale"
					}
				},
				{
					"sampler":45,
					"target":{
						"node":16,
						"path":"translation"
					}
				},
				{
					"sampler":46,
					"target":{
						"node":16,
						"path":"rotation"
					}
				},
				{
					"sampler":47,
					"target":{
						"node":16,
						"path":"scale"
					}
				},
				{
					"sampler":48,
					"target":{
						"node":15,
						"path":"translation"
					}
				},
				{
					"sampler":49,
					"target":{
						"node":15,
						"path":"rotation"
					}
				},
				{
					"sampler":50,
					"target":{
						"node":15,
						"path":"scale"
					}
				},
				{
					"sampler":51,
					"target":{
						"node":14,
						"path":"translation"
					}
				},
				{
					"sampler":52,
					"target":{
						"node":14,
						"path":"rotation"
					}
				},
				{
					"sampler":53,
					"target":{
						"node":14,
						"path":"scale"
					}
				}
			],
			"name":"Laufen",
			"samplers":[
				{
					"input":93,
					"interpolation":"LINEAR",
					"output":94
				},
				{
					"input":95,
					"interpolation":"STEP",
					"output":9
				},
				{
					"input":95,
					"interpolation":"STEP",
					"output":10
				},
				{
					"input":95,
					"interpolation":"STEP",
					"output":11
				},
				{
					"input":95,
					"interpolation":"STEP",
					"output":96
				},
				{
					"input":95,
					"interpolation":"STEP",
					"output":10
				},
				{
					"input":95,
					"interpolation":"STEP",
					"output":97
				},
				{
					"input":95,
					"interpolation":"STEP",
					"output":98
				},
				{
					"input":95,
					"interpolation":"STEP",
					"output":99
				},
				{
					"input":95,
					"interpolation":"STEP",
					"output":100
				},
				{
					"input":95,
					"interpolation":"STEP",
					"output":101
				},
				{
					"input":95,
					"interpolation":"STEP",
					"output":10
				},
				{
					"input":95,
					"interpolation":"STEP",
					"output":102
				},
				{
					"input":95,
					"interpolation":"STEP",
					"output":103
				},
				{
					"input":95,
					"interpolation":"STEP",
					"output":10
				},
				{
					"input":95,
					"interpolation":"STEP",
					"output":104
				},
				{
					"input":95,
					"interpolation":"STEP",
					"output":63
				},
				{
					"input":95,
					"interpolation":"STEP",
					"output":105
				},
				{
					"input":95,
					"interpolation":"STEP",
					"output":106
				},
				{
					"input":93,
					"interpolation":"LINEAR",
					"output":107
				},
				{
					"input":95,
					"interpolation":"STEP",
					"output":108
				},
				{
					"input":95,
					"interpolation":"STEP",
					"output":109
				},
				{
					"input":93,
					"interpolation":"LINEAR",
					"output":110
				},
				{
					"input":95,
					"interpolation":"STEP",
					"output":10
				},
				{
					"input":95,
					"interpolation":"STEP",
					"output":111
				},
				{
					"input":95,
					"interpolation":"STEP",
					"output":112
				},
				{
					"input":95,
					"interpolation":"STEP",
					"output":105
				},
				{
					"input":95,
					"interpolation":"STEP",
					"output":113
				},
				{
					"input":93,
					"interpolation":"LINEAR",
					"output":114
				},
				{
					"input":95,
					"interpolation":"STEP",
					"output":108
				},
				{
					"input":95,
					"interpolation":"STEP",
					"output":115
				},
				{
					"input":93,
					"interpolation":"LINEAR",
					"output":116
				},
				{
					"input":95,
					"interpolation":"STEP",
					"output":10
				},
				{
					"input":95,
					"interpolation":"STEP",
					"output":117
				},
				{
					"input":95,
					"interpolation":"STEP",
					"output":118
				},
				{
					"input":95,
					"interpolation":"STEP",
					"output":105
				},
				{
					"input":95,
					"interpolation":"STEP",
					"output":80
				},
				{
					"input":95,
					"interpolation":"STEP",
					"output":119
				},
				{
					"input":95,
					"interpolation":"STEP",
					"output":10
				},
				{
					"input":95,
					"interpolation":"STEP",
					"output":120
				},
				{
					"input":95,
					"interpolation":"STEP",
					"output":121
				},
				{
					"input":95,
					"interpolation":"STEP",
					"output":10
				},
				{
					"input":95,
					"interpolation":"STEP",
					"output":122
				},
				{
					"input":95,
					"interpolation":"STEP",
					"output":123
				},
				{
					"input":95,
					"interpolation":"STEP",
					"output":124
				},
				{
					"input":95,
					"interpolation":"STEP",
					"output":87
				},
				{
					"input":95,
					"interpolation":"STEP",
					"output":125
				},
				{
					"input":95,
					"interpolation":"STEP",
					"output":10
				},
				{
					"input":95,
					"interpolation":"STEP",
					"output":126
				},
				{
					"input":95,
					"interpolation":"STEP",
					"output":127
				},
				{
					"input":95,
					"interpolation":"STEP",
					"output":10
				},
				{
					"input":95,
					"interpolation":"STEP",
					"output":128
				},
				{
					"input":95,
					"interpolation":"STEP",
					"output":129
				},
				{
					"input":95,
					"interpolation":"STEP",
					"output":130
				}
			]
		}
	],
	"materials":[
		{
			"doubleSided":true,
			"name":"Gargoyle",
			"pbrMetallicRoughness":{
				"metallicFactor":0,
				"roughnessFactor":0.8500000238418579
			}
		}
	],
	"meshes":[
		{
			"name":"Koerper",
			"primitives":[
				{
					"attributes":{
						"POSITION":0,
						"NORMAL":1,
						"COLOR_0":2,
						"JOINTS_0":3,
						"WEIGHTS_0":4
					},
					"indices":5,
					"material":0
				}
			]
		}
	],
	"skins":[
		{
			"inverseBindMatrices":6,
			"joints":[
				17,
				10,
				9,
				2,
				1,
				0,
				5,
				4,
				3,
				8,
				7,
				6,
				13,
				12,
				11,
				16,
				15,
				14
			],
			"name":"GargoyleSkelett"
		}
	],
	"accessors":[
		{
			"bufferView":0,
			"componentType":5126,
			"count":11760,
			"max":[
				0.7819557785987854,
				2.0140838623046875,
				0.2523064613342285
			],
			"min":[
				-0.7819557785987854,
				-0.0007288133492693305,
				-0.9099999666213989
			],
			"type":"VEC3"
		},
		{
			"bufferView":1,
			"componentType":5126,
			"count":11760,
			"type":"VEC3"
		},
		{
			"bufferView":2,
			"componentType":5126,
			"count":11760,
			"type":"VEC3"
		},
		{
			"bufferView":3,
			"componentType":5121,
			"count":11760,
			"type":"VEC4"
		},
		{
			"bufferView":4,
			"componentType":5126,
			"count":11760,
			"type":"VEC4"
		},
		{
			"bufferView":5,
			"componentType":5123,
			"count":50970,
			"type":"SCALAR"
		},
		{
			"bufferView":6,
			"componentType":5126,
			"count":18,
			"type":"MAT4"
		},
		{
			"bufferView":7,
			"componentType":5126,
			"count":2,
			"max":[
				1
			],
			"min":[
				0
			],
			"type":"SCALAR"
		},
		{
			"bufferView":8,
			"componentType":5126,
			"count":2,
			"type":"VEC3"
		},
		{
			"bufferView":9,
			"componentType":5126,
			"count":2,
			"type":"VEC4"
		},
		{
			"bufferView":10,
			"componentType":5126,
			"count":2,
			"type":"VEC3"
		},
		{
			"bufferView":11,
			"componentType":5126,
			"count":2,
			"type":"VEC3"
		},
		{
			"bufferView":12,
			"componentType":5126,
			"count":31,
			"max":[
				1
			],
			"min":[
				0
			],
			"type":"SCALAR"
		},
		{
			"bufferView":13,
			"componentType":5126,
			"count":31,
			"type":"VEC4"
		},
		{
			"bufferView":14,
			"componentType":5126,
			"count":2,
			"type":"VEC3"
		},
		{
			"bufferView":15,
			"componentType":5126,
			"count":31,
			"type":"VEC4"
		},
		{
			"bufferView":16,
			"componentType":5126,
			"count":2,
			"type":"VEC3"
		},
		{
			"bufferView":17,
			"componentType":5126,
			"count":2,
			"type":"VEC4"
		},
		{
			"bufferView":18,
			"componentType":5126,
			"count":2,
			"type":"VEC3"
		},
		{
			"bufferView":19,
			"componentType":5126,
			"count":31,
			"type":"VEC4"
		},
		{
			"bufferView":20,
			"componentType":5126,
			"count":2,
			"type":"VEC3"
		},
		{
			"bufferView":21,
			"componentType":5126,
			"count":2,
			"type":"VEC4"
		},
		{
			"bufferView":22,
			"componentType":5126,
			"count":2,
			"type":"VEC3"
		},
		{
			"bufferView":23,
			"componentType":5126,
			"count":2,
			"type":"VEC3"
		},
		{
			"bufferView":24,
			"componentType":5126,
			"count":31,
			"type":"VEC4"
		},
		{
			"bufferView":25,
			"componentType":5126,
			"count":2,
			"type":"VEC3"
		},
		{
			"bufferView":26,
			"componentType":5126,
			"count":2,
			"type":"VEC3"
		},
		{
			"bufferView":27,
			"componentType":5126,
			"count":2,
			"type":"VEC4"
		},
		{
			"bufferView":28,
			"componentType":5126,
			"count":2,
			"type":"VEC3"
		},
		{
			"bufferView":29,
			"componentType":5126,
			"count":2,
			"type":"VEC3"
		},
		{
			"bufferView":30,
			"componentType":5126,
			"count":2,
			"type":"VEC4"
		},
		{
			"bufferView":31,
			"componentType":5126,
			"count":2,
			"type":"VEC3"
		},
		{
			"bufferView":32,
			"componentType":5126,
			"count":2,
			"type":"VEC3"
		},
		{
			"bufferView":33,
			"componentType":5126,
			"count":31,
			"type":"VEC4"
		},
		{
			"bufferView":34,
			"componentType":5126,
			"count":2,
			"type":"VEC3"
		},
		{
			"bufferView":35,
			"componentType":5126,
			"count":2,
			"type":"VEC4"
		},
		{
			"bufferView":36,
			"componentType":5126,
			"count":2,
			"type":"VEC3"
		},
		{
			"bufferView":37,
			"componentType":5126,
			"count":2,
			"type":"VEC4"
		},
		{
			"bufferView":38,
			"componentType":5126,
			"count":2,
			"type":"VEC3"
		},
		{
			"bufferView":39,
			"componentType":5126,
			"count":31,
			"type":"VEC4"
		},
		{
			"bufferView":40,
			"componentType":5126,
			"count":2,
			"type":"VEC3"
		},
		{
			"bufferView":41,
			"componentType":5126,
			"count":2,
			"type":"VEC3"
		},
		{
			"bufferView":42,
			"componentType":5126,
			"count":31,
			"type":"VEC4"
		},
		{
			"bufferView":43,
			"componentType":5126,
			"count":2,
			"type":"VEC3"
		},
		{
			"bufferView":44,
			"componentType":5126,
			"count":2,
			"type":"VEC3"
		},
		{
			"bufferView":45,
			"componentType":5126,
			"count":2,
			"type":"VEC4"
		},
		{
			"bufferView":46,
			"componentType":5126,
			"count":2,
			"type":"VEC3"
		},
		{
			"bufferView":47,
			"componentType":5126,
			"count":2,
			"type":"VEC3"
		},
		{
			"bufferView":48,
			"componentType":5126,
			"count":31,
			"type":"VEC4"
		},
		{
			"bufferView":49,
			"componentType":5126,
			"count":2,
			"type":"VEC3"
		},
		{
			"bufferView":50,
			"componentType":5126,
			"count":31,
			"type":"VEC4"
		},
		{
			"bufferView":51,
			"componentType":5126,
			"count":2,
			"type":"VEC3"
		},
		{
			"bufferView":52,
			"componentType":5126,
			"count":2,
			"type":"VEC4"
		},
		{
			"bufferView":53,
			"componentType":5126,
			"count":2,
			"type":"VEC3"
		},
		{
			"bufferView":54,
			"componentType":5126,
			"count":37,
			"max":[
				1.2
			],
			"min":[
				0
			],
			"type":"SCALAR"
		},
		{
			"bufferView":55,
			"componentType":5126,
			"count":37,
			"type":"VEC3"
		},
		{
			"bufferView":56,
			"componentType":5126,
			"count":2,
			"max":[
				1.2
			],
			"min":[
				0
			],
			"type":"SCALAR"
		},
		{
			"bufferView":57,
			"componentType":5126,
			"count":2,
			"type":"VEC3"
		},
		{
			"bufferView":58,
			"componentType":5126,
			"count":37,
			"type":"VEC4"
		},
		{
			"bufferView":59,
			"componentType":5126,
			"count":2,
			"type":"VEC3"
		},
		{
			"bufferView":60,
			"componentType":5126,
			"count":2,
			"type":"VEC3"
		},
		{
			"bufferView":61,
			"componentType":5126,
			"count":37,
			"type":"VEC4"
		},
		{
			"bufferView":62,
			"componentType":5126,
			"count":2,
			"type":"VEC3"
		},
		{
			"bufferView":63,
			"componentType":5126,
			"count":2,
			"type":"VEC4"
		},
		{
			"bufferView":64,
			"componentType":5126,
			"count":2,
			"type":"VEC3"
		},
		{
			"bufferView":65,
			"componentType":5126,
			"count":2,
			"type":"VEC3"
		},
		{
			"bufferView":66,
			"componentType":5126,
			"count":37,
			"type":"VEC4"
		},
		{
			"bufferView":67,
			"componentType":5126,
			"count":2,
			"type":"VEC3"
		},
		{
			"bufferView":68,
			"componentType":5126,
			"count":2,
			"type":"VEC3"
		},
		{
			"bufferView":69,
			"componentType":5126,
			"count":37,
			"type":"VEC4"
		},
		{
			"bufferView":70,
			"componentType":5126,
			"count":2,
			"type":"VEC3"
		},
		{
			"bufferView":71,
			"componentType":5126,
			"count":2,
			"type":"VEC3"
		},
		{
			"bufferView":72,
			"componentType":5126,
			"count":2,
			"type":"VEC4"
		},
		{
			"bufferView":73,
			"componentType":5126,
			"count":2,
			"type":"VEC3"
		},
		{
			"bufferView":74,
			"componentType":5126,
			"count":2,
			"type":"VEC3"
		},
		{
			"bufferView":75,
			"componentType":5126,
			"count":37,
			"type":"VEC4"
		},
		{
			"bufferView":76,
			"componentType":5126,
			"count":2,
			"type":"VEC3"
		},
		{
			"bufferView":77,
			"componentType":5126,
			"count":37,
			"type":"VEC4"
		},
		{
			"bufferView":78,
			"componentType":5126,
			"count":2,
			"type":"VEC3"
		},
		{
			"bufferView":79,
			"componentType":5126,
			"count":2,
			"type":"VEC4"
		},
		{
			"bufferView":80,
			"componentType":5126,
			"count":2,
			"type":"VEC3"
		},
		{
			"bufferView":81,
			"componentType":5126,
			"count":2,
			"type":"VEC4"
		},
		{
			"bufferView":82,
			"componentType":5126,
			"count":2,
			"type":"VEC3"
		},
		{
			"bufferView":83,
			"componentType":5126,
			"count":2,
			"type":"VEC4"
		},
		{
			"bufferView":84,
			"componentType":5126,
			"count":2,
			"type":"VEC3"
		},
		{
			"bufferView":85,
			"componentType":5126,
			"count":2,
			"type":"VEC4"
		},
		{
			"bufferView":86,
			"componentType":5126,
			"count":2,
			"type":"VEC3"
		},
		{
			"bufferView":87,
			"componentType":5126,
			"count":2,
			"type":"VEC3"
		},
		{
			"bufferView":88,
			"componentType":5126,
			"count":2,
			"type":"VEC4"
		},
		{
			"bufferView":89,
			"componentType":5126,
			"count":2,
			"type":"VEC3"
		},
		{
			"bufferView":90,
			"componentType":5126,
			"count":2,
			"type":"VEC4"
		},
		{
			"bufferView":91,
			"componentType":5126,
			"count":2,
			"type":"VEC3"
		},
		{
			"bufferView":92,
			"componentType":5126,
			"count":2,
			"type":"VEC4"
		},
		{
			"bufferView":93,
			"componentType":5126,
			"count":25,
			"max":[
				0.8
			],
			"min":[
				0
			],
			"type":"SCALAR"
		},
		{
			"bufferView":94,
			"componentType":5126,
			"count":25,
			"type":"VEC3"
		},
		{
			"bufferView":95,
			"componentType":5126,
			"count":2,
			"max":[
				0.8
			],
			"min":[
				0
			],
			"type":"SCALAR"
		},
		{
			"bufferView":96,
			"componentType":5126,
			"count":2,
			"type":"VEC4"
		},
		{
			"bufferView":97,
			"componentType":5126,
			"count":2,
			"type":"VEC3"
		},
		{
			"bufferView":98,
			"componentType":5126,
			"count":2,
			"type":"VEC4"
		},
		{
			"bufferView":99,
			"componentType":5126,
			"count":2,
			"type":"VEC3"
		},
		{
			"bufferView":100,
			"componentType":5126,
			"count":2,
			"type":"VEC3"
		},
		{
			"bufferView":101,
			"componentType":5126,
			"count":2,
			"type":"VEC4"
		},
		{
			"bufferView":102,
			"componentType":5126,
			"count":2,
			"type":"VEC3"
		},
		{
			"bufferView":103,
			"componentType":5126,
			"count":2,
			"type":"VEC4"
		},
		{
			"bufferView":104,
			"componentType":5126,
			"count":2,
			"type":"VEC3"
		},
		{
			"bufferView":105,
			"componentType":5126,
			"count":2,
			"type":"VEC3"
		},
		{
			"bufferView":106,
			"componentType":5126,
			"count":2,
			"type":"VEC3"
		},
		{
			"bufferView":107,
			"componentType":5126,
			"count":25,
			"type":"VEC4"
		},
		{
			"bufferView":108,
			"componentType":5126,
			"count":2,
			"type":"VEC3"
		},
		{
			"bufferView":109,
			"componentType":5126,
			"count":2,
			"type":"VEC3"
		},
		{
			"bufferView":110,
			"componentType":5126,
			"count":25,
			"type":"VEC4"
		},
		{
			"bufferView":111,
			"componentType":5126,
			"count":2,
			"type":"VEC3"
		},
		{
			"bufferView":112,
			"componentType":5126,
			"count":2,
			"type":"VEC4"
		},
		{
			"bufferView":113,
			"componentType":5126,
			"count":2,
			"type":"VEC3"
		},
		{
			"bufferView":114,
			"componentType":5126,
			"count":25,
			"type":"VEC4"
		},
		{
			"bufferView":115,
			"componentType":5126,
			"count":2,
			"type":"VEC3"
		},
		{
			"bufferView":116,
			"componentType":5126,
			"count":25,
			"type":"VEC4"
		},
		{
			"bufferView":117,
			"componentType":5126,
			"count":2,
			"type":"VEC3"
		},
		{
			"bufferView":118,
			"componentType":5126,
			"count":2,
			"type":"VEC4"
		},
		{
			"bufferView":119,
			"componentType":5126,
			"count":2,
			"type":"VEC4"
		},
		{
			"bufferView":120,
			"componentType":5126,
			"count":2,
			"type":"VEC3"
		},
		{
			"bufferView":121,
			"componentType":5126,
			"count":2,
			"type":"VEC4"
		},
		{
			"bufferView":122,
			"componentType":5126,
			"count":2,
			"type":"VEC3"
		},
		{
			"bufferView":123,
			"componentType":5126,
			"count":2,
			"type":"VEC4"
		},
		{
			"bufferView":124,
			"componentType":5126,
			"count":2,
			"type":"VEC3"
		},
		{
			"bufferView":125,
			"componentType":5126,
			"count":2,
			"type":"VEC4"
		},
		{
			"bufferView":126,
			"componentType":5126,
			"count":2,
			"type":"VEC3"
		},
		{
			"bufferView":127,
			"componentType":5126,
			"count":2,
			"type":"VEC4"
		},
		{
			"bufferView":128,
			"componentType":5126,
			"count":2,
			"type":"VEC3"
		},
		{
			"bufferView":129,
			"componentType":5126,
			"count":2,
			"type":"VEC4"
		},
		{
			"bufferView":130,
			"componentType":5126,
			"count":2,
			"type":"VEC3"
		}
	],
	"bufferViews":[
		{
			"buffer":0,
			"byteLength":141120,
			"byteOffset":0,
			"target":34962
		},
		{
			"buffer":0,
			"byteLength":141120,
			"byteOffset":141120,
			"target":34962
		},
		{
			"buffer":0,
			"byteLength":141120,
			"byteOffset":282240,
			"target":34962
		},
		{
			"buffer":0,
			"byteLength":47040,
			"byteOffset":423360,
			"target":34962
		},
		{
			"buffer":0,
			"byteLength":188160,
			"byteOffset":470400,
			"target":34962
		},
		{
			"buffer":0,
			"byteLength":101940,
			"byteOffset":658560,
			"target":34963
		},
		{
			"buffer":0,
			"byteLength":1152,
			"byteOffset":760500
		},
		{
			"buffer":0,
			"byteLength":8,
			"byteOffset":761652
		},
		{
			"buffer":0,
			"byteLength":24,
			"byteOffset":761660
		},
		{
			"buffer":0,
			"byteLength":32,
			"byteOffset":761684
		},
		{
			"buffer":0,
			"byteLength":24,
			"byteOffset":761716
		},
		{
			"buffer":0,
			"byteLength":24,
			"byteOffset":761740
		},
		{
			"buffer":0,
			"byteLength":124,
			"byteOffset":761764
		},
		{
			"buffer":0,
			"byteLength":496,
			"byteOffset":761888
		},
		{
			"buffer":0,
			"byteLength":24,
			"byteOffset":762384
		},
		{
			"buffer":0,
			"byteLength":496,
			"byteOffset":762408
		},
		{
			"buffer":0,
			"byteLength":24,
			"byteOffset":762904
		},
		{
			"buffer":0,
			"byteLength":32,
			"byteOffset":762928
		},
		{
			"buffer":0,
			"byteLength":24,
			"byteOffset":762960
		},
		{
			"buffer":0,
			"byteLength":496,
			"byteOffset":762984
		},
		{
			"buffer":0,
			"byteLength":24,
			"byteOffset":763480
		},
		{
			"buffer":0,
			"byteLength":32,
			"byteOffset":763504
		},
		{
			"buffer":0,
			"byteLength":24,
			"byteOffset":763536
		},
		{
			"buffer":0,
			"byteLength":24,
			"byteOffset":763560
		},
		{
			"buffer":0,
			"byteLength":496,
			"byteOffset":763584
		},
		{
			"buffer":0,
			"byteLength":24,
			"byteOffset":764080
		},
		{
			"buffer":0,
			"byteLength":24,
			"byteOffset":764104
		},
		{
			"buffer":0,
			"byteLength":32,
			"byteOffset":764128
		},
		{
			"buffer":0,
			"byteLength":24,
			"byteOffset":764160
		},
		{
			"buffer":0,
			"byteLength":24,
			"byteOffset":764184
		},
		{
			"buffer":0,
			"byteLength":32,
			"byteOffset":764208
		},
		{
			"buffer":0,
			"byteLength":24,
			"byteOffset":764240
		},
		{
			"buffer":0,
			"byteLength":24,
			"byteOffset":764264
		},
		{
			"buffer":0,
			"byteLength":496,
			"byteOffset":764288
		},
		{
			"buffer":0,
			"byteLength":24,
			"byteOffset":764784
		},
		{
			"buffer":0,
			"byteLength":32,
			"byteOffset":764808
		},
		{
			"buffer":0,
			"byteLength":24,
			"byteOffset":764840
		},
		{
			"buffer":0,
			"byteLength":32,
			"byteOffset":764864
		},
		{
			"buffer":0,
			"byteLength":24,
			"byteOffset":764896
		},
		{
			"buffer":0,
			"byteLength":496,
			"byteOffset":764920
		},
		{
			"buffer":0,
			"byteLength":24,
			"byteOffset":765416
		},
		{
			"buffer":0,
			"byteLength":24,
			"byteOffset":765440
		},
		{
			"buffer":0,
			"byteLength":496,
			"byteOffset":765464
		},
		{
			"buffer":0,
			"byteLength":24,
			"byteOffset":765960
		},
		{
			"buffer":0,
			"byteLength":24,
			"byteOffset":765984
		},
		{
			"buffer":0,
			"byteLength":32,
			"byteOffset":766008
		},
		{
			"buffer":0,
			"byteLength":24,
			"byteOffset":766040
		},
		{
			"buffer":0,
			"byteLength":24,
			"byteOffset":766064
		},
		{
			"buffer":0,
			"byteLength":496,
			"byteOffset":766088
		},
		{
			"buffer":0,
			"byteLength":24,
			"byteOffset":766584
		},
		{
			"buffer":0,
			"byteLength":496,
			"byteOffset":766608
		},
		{
			"buffer":0,
			"byteLength":24,
			"byteOffset":767104
		},
		{
			"buffer":0,
			"byteLength":32,
			"byteOffset":767128
		},
		{
			"buffer":0,
			"byteLength":24,
			"byteOffset":767160
		},
		{
			"buffer":0,
			"byteLength":148,
			"byteOffset":767184
		},
		{
			"buffer":0,
			"byteLength":444,
			"byteOffset":767332
		},
		{
			"buffer":0,
			"byteLength":8,
			"byteOffset":767776
		},
		{
			"buffer":0,
			"byteLength":24,
			"byteOffset":767784
		},
		{
			"buffer":0,
			"byteLength":592,
			"byteOffset":767808
		},
		{
			"buffer":0,
			"byteLength":24,
			"byteOffset":768400
		},
		{
			"buffer":0,
			"byteLength":24,
			"byteOffset":768424
		},
		{
			"buffer":0,
			"byteLength":592,
			"byteOffset":768448
		},
		{
			"buffer":0,
			"byteLength":24,
			"byteOffset":769040
		},
		{
			"buffer":0,
			"byteLength":32,
			"byteOffset":769064
		},
		{
			"buffer":0,
			"byteLength":24,
			"byteOffset":769096
		},
		{
			"buffer":0,
			"byteLength":24,
			"byteOffset":769120
		},
		{
			"buffer":0,
			"byteLength":592,
			"byteOffset":769144
		},
		{
			"buffer":0,
			"byteLength":24,
			"byteOffset":769736
		},
		{
			"buffer":0,
			"byteLength":24,
			"byteOffset":769760
		},
		{
			"buffer":0,
			"byteLength":592,
			"byteOffset":769784
		},
		{
			"buffer":0,
			"byteLength":24,
			"byteOffset":770376
		},
		{
			"buffer":0,
			"byteLength":24,
			"byteOffset":770400
		},
		{
			"buffer":0,
			"byteLength":32,
			"byteOffset":770424
		},
		{
			"buffer":0,
			"byteLength":24,
			"byteOffset":770456
		},
		{
			"buffer":0,
			"byteLength":24,
			"byteOffset":770480
		},
		{
			"buffer":0,
			"byteLength":592,
			"byteOffset":770504
		},
		{
			"buffer":0,
			"byteLength":24,
			"byteOffset":771096
		},
		{
			"buffer":0,
			"byteLength":592,
			"byteOffset":771120
		},
		{
			"buffer":0,
			"byteLength":24,
			"byteOffset":771712
		},
		{
			"buffer":0,
			"byteLength":32,
			"byteOffset":771736
		},
		{
			"buffer":0,
			"byteLength":24,
			"byteOffset":771768
		},
		{
			"buffer":0,
			"byteLength":32,
			"byteOffset":771792
		},
		{
			"buffer":0,
			"byteLength":24,
			"byteOffset":771824
		},
		{
			"buffer":0,
			"byteLength":32,
			"byteOffset":771848
		},
		{
			"buffer":0,
			"byteLength":24,
			"byteOffset":771880
		},
		{
			"buffer":0,
			"byteLength":32,
			"byteOffset":771904
		},
		{
			"buffer":0,
			"byteLength":24,
			"byteOffset":771936
		},
		{
			"buffer":0,
			"byteLength":24,
			"byteOffset":771960
		},
		{
			"buffer":0,
			"byteLength":32,
			"byteOffset":771984
		},
		{
			"buffer":0,
			"byteLength":24,
			"byteOffset":772016
		},
		{
			"buffer":0,
			"byteLength":32,
			"byteOffset":772040
		},
		{
			"buffer":0,
			"byteLength":24,
			"byteOffset":772072
		},
		{
			"buffer":0,
			"byteLength":32,
			"byteOffset":772096
		},
		{
			"buffer":0,
			"byteLength":100,
			"byteOffset":772128
		},
		{
			"buffer":0,
			"byteLength":300,
			"byteOffset":772228
		},
		{
			"buffer":0,
			"byteLength":8,
			"byteOffset":772528
		},
		{
			"buffer":0,
			"byteLength":32,
			"byteOffset":772536
		},
		{
			"buffer":0,
			"byteLength":24,
			"byteOffset":772568
		},
		{
			"buffer":0,
			"byteLength":32,
			"byteOffset":772592
		},
		{
			"buffer":0,
			"byteLength":24,
			"byteOffset":772624
		},
		{
			"buffer":0,
			"byteLength":24,
			"byteOffset":772648
		},
		{
			"buffer":0,
			"byteLength":32,
			"byteOffset":772672
		},
		{
			"buffer":0,
			"byteLength":24,
			"byteOffset":772704
		},
		{
			"buffer":0,
			"byteLength":32,
			"byteOffset":772728
		},
		{
			"buffer":0,
			"byteLength":24,
			"byteOffset":772760
		},
		{
			"buffer":0,
			"byteLength":24,
			"byteOffset":772784
		},
		{
			"buffer":0,
			"byteLength":24,
			"byteOffset":772808
		},
		{
			"buffer":0,
			"byteLength":400,
			"byteOffset":772832
		},
		{
			"buffer":0,
			"byteLength":24,
			"byteOffset":773232
		},
		{
			"buffer":0,
			"byteLength":24,
			"byteOffset":773256
		},
		{
			"buffer":0,
			"byteLength":400,
			"byteOffset":773280
		},
		{
			"buffer":0,
			"byteLength":24,
			"byteOffset":773680
		},
		{
			"buffer":0,
			"byteLength":32,
			"byteOffset":773704
		},
		{
			"buffer":0,
			"byteLength":24,
			"byteOffset":773736
		},
		{
			"buffer":0,
			"byteLength":400,
			"byteOffset":773760
		},
		{
			"buffer":0,
			"byteLength":24,
			"byteOffset":774160
		},
		{
			"buffer":0,
			"byteLength":400,
			"byteOffset":774184
		},
		{
			"buffer":0,
			"byteLength":24,
			"byteOffset":774584
		},
		{
			"buffer":0,
			"byteLength":32,
			"byteOffset":774608
		},
		{
			"buffer":0,
			"byteLength":32,
			"byteOffset":774640
		},
		{
			"buffer":0,
			"byteLength":24,
			"byteOffset":774672
		},
		{
			"buffer":0,
			"byteLength":32,
			"byteOffset":774696
		},
		{
			"buffer":0,
			"byteLength":24,
			"byteOffset":774728
		},
		{
			"buffer":0,
			"byteLength":32,
			"byteOffset":774752
		},
		{
			"buffer":0,
			"byteLength":24,
			"byteOffset":774784
		},
		{
			"buffer":0,
			"byteLength":32,
			"byteOffset":774808
		},
		{
			"buffer":0,
			"byteLength":24,
			"byteOffset":774840
		},
		{
			"buffer":0,
			"byteLength":32,
			"byteOffset":774864
		},
		{
			"buffer":0,
			"byteLength":24,
			"byteOffset":774896
		},
		{
			"buffer":0,
			"byteLength":32,
			"byteOffset":774920
		},
		{
			"buffer":0,
			"byteLength":24,
			"byteOffset":774952
		}
	],
	"buffers":[
		{
			"byteLength":774976,
			"uri":"gargoyle.bin"
		}
	]
}
