{
	"asset":{
		"generator":"Khronos glTF Blender I/O v5.2.40",
		"version":"2.0"
	},
	"scene":0,
	"scenes":[
		{
			"name":"Scene",
			"nodes":[
				20
			]
		}
	],
	"nodes":[
		{
			"name":"Hut",
			"rotation":[
				-0.49269863963127136,
				2.5933980296599657e-08,
				-1.4683562810091644e-08,
				0.870199978351593
			],
			"scale":[
				1,
				0.9999999403953552,
				1
			],
			"translation":[
				0,
				0.2999999523162842,
				-0.019999999552965164
			]
		},
		{
			"children":[
				0
			],
			"name":"Kopf",
			"rotation":[
				-0.5257309675216675,
				-6.337838698300402e-08,
				-3.916998636555036e-08,
				0.8506509065628052
			],
			"scale":[
				1,
				1,
				0.9999999403953552
			],
			"translation":[
				1.6500320397126386e-15,
				0.08944270759820938,
				1.1175870895385742e-08
			]
		},
		{
			"children":[
				1
			],
			"name":"Hals",
			"rotation":[
				0.5257310271263123,
				6.337838698300402e-08,
				3.9169989918264037e-08,
				0.8506509065628052
			],
			"scale":[
				1,
				0.9999999403953552,
				1
			],
			"translation":[
				0,
				0.13999998569488525,
				0
			]
		},
		{
			"name":"Hand.L",
			"rotation":[
				-0.09514978528022766,
				-0.011058516800403595,
				0.03501752018928528,
				0.9947854280471802
			],
			"scale":[
				1.0000001192092896,
				1,
				1
			],
			"translation":[
				0,
				0.16748139262199402,
				0
			]
		},
		{
			"children":[
				3
			],
			"name":"Unterarm.L",
			"rotation":[
				-0.19725000858306885,
				-0.000980398734100163,
				0.08750706911087036,
				0.9764394164085388
			],
			"scale":[
				1,
				1,
				0.9999998807907104
			],
			"translation":[
				-1.3336538984276558e-08,
				0.18714961409568787,
				1.3969838619232178e-08
			]
		},
		{
			"children":[
				4
			],
			"name":"Oberarm.L",
			"rotation":[
				-0.9766523241996765,
				-0.19320639967918396,
				0.018227238208055496,
				0.0921376571059227
			],
			"scale":[
				0.9999998211860657,
				1,
				0.9999999403953552
			],
			"translation":[
				0.14000000059604645,
				0.10000002384185791,
				0
			]
		},
		{
			"mesh":1,
			"name":"Stab",
			"rotation":[
				-0.9774771928787231,
				0.06946708261966705,
				0.014126718044281006,
				0.19877909123897552
			],
			"scale":[
				1,
				1,
				1.0000001192092896
			],
			"translation":[
				0.3090057075023651,
				0.3964252769947052,
				0.16818910837173462
			]
		},
		{
			"children":[
				6
			],
			"name":"Hand.R",
			"rotation":[
				-0.09514978528022766,
				0.011058516800403595,
				-0.03501752018928528,
				0.9947854280471802
			],
			"scale":[
				1.0000001192092896,
				1,
				1
			],
			"translation":[
				0,
				0.16748139262199402,
				0
			]
		},
		{
			"children":[
				7
			],
			"name":"Unterarm.R",
			"rotation":[
				-0.19725000858306885,
				0.000980398734100163,
				-0.08750706911087036,
				0.9764394164085388
			],
			"scale":[
				1,
				1,
				0.9999998807907104
			],
			"translation":[
				1.3336538984276558e-08,
				0.18714961409568787,
				1.3969838619232178e-08
			]
		},
		{
			"children":[
				8
			],
			"name":"Oberarm.R",
			"rotation":[
				-0.9766523241996765,
				0.19320639967918396,
				-0.018227238208055496,
				0.0921376571059227
			],
			"scale":[
				0.9999998211860657,
				1,
				0.9999999403953552
			],
			"translation":[
				-0.14000000059604645,
				0.10000002384185791,
				0
			]
		},
		{
			"children":[
				2,
				5,
				9
			],
			"name":"Brust",
			"translation":[
				0,
				0.12000000476837158,
				0
			]
		},
		{
			"children":[
				10
			],
			"name":"Bauch",
			"translation":[
				0,
				0.07999998331069946,
				0
			]
		},
		{
			"name":"Fuss.L",
			"rotation":[
				-3.688030858484126e-07,
				0.7345811128616333,
				-0.678520917892456,
				4.057348519381776e-07
			],
			"scale":[
				1,
				0.9999998211860657,
				0.9999999403953552
			],
			"translation":[
				-3.8486547282445827e-11,
				0.2232150435447693,
				-3.875754828186473e-09
			]
		},
		{
			"children":[
				12
			],
			"name":"Unterschenkel.L",
			"rotation":[
				0.20500525832176208,
				0.0031034506391733885,
				0.04735630005598068,
				0.9776096940040588
			],
			"scale":[
				0.9999998807907104,
				0.9999999403953552,
				0.9999997615814209
			],
			"translation":[
				1.1939579991349092e-08,
				0.2130727618932724,
				-2.2118911147117615e-09
			]
		},
		{
			"children":[
				13
			],
			"name":"Oberschenkel.L",
			"rotation":[
				0.9963825941085815,
				0.04733959212899208,
				0.0033473949879407883,
				0.0704946517944336
			],
			"scale":[
				1.0000025033950806,
				1.0000001192092896,
				1.0000054836273193
			],
			"translation":[
				0.07500000298023224,
				0,
				0
			]
		},
		{
			"name":"Fuss.R",
			"rotation":[
				-3.4155945627389883e-07,
				0.7345811128616333,
				-0.678520917892456,
				4.0573499404672475e-07
			],
			"scale":[
				1,
				0.9999998211860657,
				0.9999999403953552
			],
			"translation":[
				-2.7940716407215405e-09,
				0.2232150435447693,
				-2.168519586120965e-09
			]
		},
		{
			"children":[
				15
			],
			"name":"Unterschenkel.R",
			"rotation":[
				0.20500525832176208,
				-0.0031034215353429317,
				-0.047356292605400085,
				0.9776096940040588
			],
			"scale":[
				0.9999998807907104,
				0.9999999403953552,
				0.9999997615814209
			],
			"translation":[
				-1.1939579991349092e-08,
				0.2130727618932724,
				-2.2118911147117615e-09
			]
		},
		{
			"children":[
				16
			],
			"name":"Oberschenkel.R",
			"rotation":[
				0.9963825941085815,
				-0.04733959212899208,
				-0.0033473949879407883,
				0.0704946517944336
			],
			"scale":[
				1.0000025033950806,
				1.0000001192092896,
				1.0000054836273193
			],
			"translation":[
				-0.07500000298023224,
				0,
				0
			]
		},
		{
			"children":[
				11,
				14,
				17
			],
			"name":"Becken",
			"translation":[
				0,
				0.5,
				0
			]
		},
		{
			"mesh":0,
			"name":"GoblinSchamane",
			"skin":0
		},
		{
			"children":[
				19,
				18
			],
			"name":"GoblinSchamaneSkelett"
		}
	],
	"animations":[
		{
			"channels":[
				{
					"sampler":0,
					"target":{
						"node":18,
						"path":"translation"
					}
				},
				{
					"sampler":1,
					"target":{
						"node":18,
						"path":"rotation"
					}
				},
				{
					"sampler":2,
					"target":{
						"node":18,
						"path":"scale"
					}
				},
				{
					"sampler":3,
					"target":{
						"node":11,
						"path":"translation"
					}
				},
				{
					"sampler":4,
					"target":{
						"node":11,
						"path":"rotation"
					}
				},
				{
					"sampler":5,
					"target":{
						"node":11,
						"path":"scale"
					}
				},
				{
					"sampler":6,
					"target":{
						"node":10,
						"path":"translation"
					}
				},
				{
					"sampler":7,
					"target":{
						"node":10,
						"path":"rotation"
					}
				},
				{
					"sampler":8,
					"target":{
						"node":10,
						"path":"scale"
					}
				},
				{
					"sampler":9,
					"target":{
						"node":2,
						"path":"translation"
					}
				},
				{
					"sampler":10,
					"target":{
						"node":2,
						"path":"rotation"
					}
				},
				{
					"sampler":11,
					"target":{
						"node":2,
						"path":"scale"
					}
				},
				{
					"sampler":12,
					"target":{
						"node":1,
						"path":"translation"
					}
				},
				{
					"sampler":13,
					"target":{
						"node":1,
						"path":"rotation"
					}
				},
				{
					"sampler":14,
					"target":{
						"node":1,
						"path":"scale"
					}
				},
				{
					"sampler":15,
					"target":{
						"node":0,
						"path":"translation"
					}
				},
				{
					"sampler":16,
					"target":{
						"node":0,
						"path":"rotation"
					}
				},
				{
					"sampler":17,
					"target":{
						"node":0,
						"path":"scale"
					}
				},
				{
					"sampler":18,
					"target":{
						"node":5,
						"path":"translation"
					}
				},
				{
					"sampler":19,
					"target":{
						"node":5,
						"path":"rotation"
					}
				},
				{
					"sampler":20,
					"target":{
						"node":5,
						"path":"scale"
					}
				},
				{
					"sampler":21,
					"target":{
						"node":4,
						"path":"translation"
					}
				},
				{
					"sampler":22,
					"target":{
						"node":4,
						"path":"rotation"
					}
				},
				{
					"sampler":23,
					"target":{
						"node":4,
						"path":"scale"
					}
				},
				{
					"sampler":24,
					"target":{
						"node":3,
						"path":"translation"
					}
				},
				{
					"sampler":25,
					"target":{
						"node":3,
						"path":"rotation"
					}
				},
				{
					"sampler":26,
					"target":{
						"node":3,
						"path":"scale"
					}
				},
				{
					"sampler":27,
					"target":{
						"node":9,
						"path":"translation"
					}
				},
				{
					"sampler":28,
					"target":{
						"node":9,
						"path":"rotation"
					}
				},
				{
					"sampler":29,
					"target":{
						"node":9,
						"path":"scale"
					}
				},
				{
					"sampler":30,
					"target":{
						"node":8,
						"path":"translation"
					}
				},
				{
					"sampler":31,
					"target":{
						"node":8,
						"path":"rotation"
					}
				},
				{
					"sampler":32,
					"target":{
						"node":8,
						"path":"scale"
					}
				},
				{
					"sampler":33,
					"target":{
						"node":7,
						"path":"translation"
					}
				},
				{
					"sampler":34,
					"target":{
						"node":7,
						"path":"rotation"
					}
				},
				{
					"sampler":35,
					"target":{
						"node":7,
						"path":"scale"
					}
				},
				{
					"sampler":36,
					"target":{
						"node":14,
						"path":"translation"
					}
				},
				{
					"sampler":37,
					"target":{
						"node":14,
						"path":"rotation"
					}
				},
				{
					"sampler":38,
					"target":{
						"node":14,
						"path":"scale"
					}
				},
				{
					"sampler":39,
					"target":{
						"node":13,
						"path":"translation"
					}
				},
				{
					"sampler":40,
					"target":{
						"node":13,
						"path":"rotation"
					}
				},
				{
					"sampler":41,
					"target":{
						"node":13,
						"path":"scale"
					}
				},
				{
					"sampler":42,
					"target":{
						"node":12,
						"path":"translation"
					}
				},
				{
					"sampler":43,
					"target":{
						"node":12,
						"path":"rotation"
					}
				},
				{
					"sampler":44,
					"target":{
						"node":12,
						"path":"scale"
					}
				},
				{
					"sampler":45,
					"target":{
						"node":17,
						"path":"translation"
					}
				},
				{
					"sampler":46,
					"target":{
						"node":17,
						"path":"rotation"
					}
				},
				{
					"sampler":47,
					"target":{
						"node":17,
						"path":"scale"
					}
				},
				{
					"sampler":48,
					"target":{
						"node":16,
						"path":"translation"
					}
				},
				{
					"sampler":49,
					"target":{
						"node":16,
						"path":"rotation"
					}
				},
				{
					"sampler":50,
					"target":{
						"node":16,
						"path":"scale"
					}
				},
				{
					"sampler":51,
					"target":{
						"node":15,
						"path":"translation"
					}
				},
				{
					"sampler":52,
					"target":{
						"node":15,
						"path":"rotation"
					}
				},
				{
					"sampler":53,
					"target":{
						"node":15,
						"path":"scale"
					}
				}
			],
			"name":"Angriff",
			"samplers":[
				{
					"input":11,
					"interpolation":"STEP",
					"output":12
				},
				{
					"input":11,
					"interpolation":"STEP",
					"output":13
				},
				{
					"input":11,
					"interpolation":"STEP",
					"output":14
				},
				{
					"input":11,
					"interpolation":"STEP",
					"output":15
				},
				{
					"input":16,
					"interpolation":"LINEAR",
					"output":17
				},
				{
					"input":11,
					"interpolation":"STEP",
					"output":14
				},
				{
					"input":11,
					"interpolation":"STEP",
					"output":18
				},
				{
					"input":16,
					"interpolation":"LINEAR",
					"output":19
				},
				{
					"input":11,
					"interpolation":"STEP",
					"output":14
				},
				{
					"input":11,
					"interpolation":"STEP",
					"output":20
				},
				{
					"input":11,
					"interpolation":"STEP",
					"output":21
				},
				{
					"input":11,
					"interpolation":"STEP",
					"output":22
				},
				{
					"input":11,
					"interpolation":"STEP",
					"output":23
				},
				{
					"input":11,
					"interpolation":"STEP",
					"output":24
				},
				{
					"input":11,
					"interpolation":"STEP",
					"output":25
				},
				{
					"input":11,
					"interpolation":"STEP",
					"output":26
				},
				{
					"input":16,
					"interpolation":"LINEAR",
					"output":27
				},
				{
					"input":11,
					"interpolation":"STEP",
					"output":22
				},
				{
					"input":11,
					"interpolation":"STEP",
					"output":28
				},
				{
					"input":16,
					"interpolation":"LINEAR",
					"output":29
				},
				{
					"input":11,
					"interpolation":"STEP",
					"output":30
				},
				{
					"input":11,
					"interpolation":"STEP",
					"output":31
				},
				{
					"input":16,
					"interpolation":"LINEAR",
					"output":32
				},
				{
					"input":11,
					"interpolation":"STEP",
					"output":33
				},
				{
					"input":11,
					"interpolation":"STEP",
					"output":34
				},
				{
					"input":11,
					"interpolation":"STEP",
					"output":35
				},
				{
					"input":11,
					"interpolation":"STEP",
					"output":36
				},
				{
					"input":11,
					"interpolation":"STEP",
					"output":37
				},
				{
					"input":16,
					"interpolation":"LINEAR",
					"output":38
				},
				{
					"input":11,
					"interpolation":"STEP",
					"output":30
				},
				{
					"input":11,
					"interpolation":"STEP",
					"output":39
				},
				{
					"input":16,
					"interpolation":"LINEAR",
					"output":40
				},
				{
					"input":11,
					"interpolation":"STEP",
					"output":41
				},
				{
					"input":11,
					"interpolation":"STEP",
					"output":42
				},
				{
					"input":11,
					"interpolation":"STEP",
					"output":43
				},
				{
					"input":11,
					"interpolation":"STEP",
					"output":44
				},
				{
					"input":11,
					"interpolation":"STEP",
					"output":45
				},
				{
					"input":11,
					"interpolation":"STEP",
					"output":46
				},
				{
					"input":11,
					"interpolation":"STEP",
					"output":47
				},
				{
					"input":11,
					"interpolation":"STEP",
					"output":48
				},
				{
					"input":11,
					"interpolation":"STEP",
					"output":49
				},
				{
					"input":11,
					"interpolation":"STEP",
					"output":50
				},
				{
					"input":11,
					"interpolation":"STEP",
					"output":51
				},
				{
					"input":11,
					"interpolation":"STEP",
					"output":52
				},
				{
					"input":11,
					"interpolation":"STEP",
					"output":41
				},
				{
					"input":11,
					"interpolation":"STEP",
					"output":53
				},
				{
					"input":11,
					"interpolation":"STEP",
					"output":54
				},
				{
					"input":11,
					"interpolation":"STEP",
					"output":47
				},
				{
					"input":11,
					"interpolation":"STEP",
					"output":55
				},
				{
					"input":11,
					"interpolation":"STEP",
					"output":56
				},
				{
					"input":11,
					"interpolation":"STEP",
					"output":57
				},
				{
					"input":11,
					"interpolation":"STEP",
					"output":58
				},
				{
					"input":11,
					"interpolation":"STEP",
					"output":59
				},
				{
					"input":11,
					"interpolation":"STEP",
					"output":41
				}
			]
		},
		{
			"channels":[
				{
					"sampler":0,
					"target":{
						"node":18,
						"path":"translation"
					}
				},
				{
					"sampler":1,
					"target":{
						"node":18,
						"path":"rotation"
					}
				},
				{
					"sampler":2,
					"target":{
						"node":18,
						"path":"scale"
					}
				},
				{
					"sampler":3,
					"target":{
						"node":11,
						"path":"translation"
					}
				},
				{
					"sampler":4,
					"target":{
						"node":11,
						"path":"rotation"
					}
				},
				{
					"sampler":5,
					"target":{
						"node":11,
						"path":"scale"
					}
				},
				{
					"sampler":6,
					"target":{
						"node":10,
						"path":"translation"
					}
				},
				{
					"sampler":7,
					"target":{
						"node":10,
						"path":"rotation"
					}
				},
				{
					"sampler":8,
					"target":{
						"node":10,
						"path":"scale"
					}
				},
				{
					"sampler":9,
					"target":{
						"node":2,
						"path":"translation"
					}
				},
				{
					"sampler":10,
					"target":{
						"node":2,
						"path":"rotation"
					}
				},
				{
					"sampler":11,
					"target":{
						"node":2,
						"path":"scale"
					}
				},
				{
					"sampler":12,
					"target":{
						"node":1,
						"path":"translation"
					}
				},
				{
					"sampler":13,
					"target":{
						"node":1,
						"path":"rotation"
					}
				},
				{
					"sampler":14,
					"target":{
						"node":1,
						"path":"scale"
					}
				},
				{
					"sampler":15,
					"target":{
						"node":0,
						"path":"translation"
					}
				},
				{
					"sampler":16,
					"target":{
						"node":0,
						"path":"rotation"
					}
				},
				{
					"sampler":17,
					"target":{
						"node":0,
						"path":"scale"
					}
				},
				{
					"sampler":18,
					"target":{
						"node":5,
						"path":"translation"
					}
				},
				{
					"sampler":19,
					"target":{
						"node":5,
						"path":"rotation"
					}
				},
				{
					"sampler":20,
					"target":{
						"node":5,
						"path":"scale"
					}
				},
				{
					"sampler":21,
					"target":{
						"node":4,
						"path":"translation"
					}
				},
				{
					"sampler":22,
					"target":{
						"node":4,
						"path":"rotation"
					}
				},
				{
					"sampler":23,
					"target":{
						"node":4,
						"path":"scale"
					}
				},
				{
					"sampler":24,
					"target":{
						"node":3,
						"path":"translation"
					}
				},
				{
					"sampler":25,
					"target":{
						"node":3,
						"path":"rotation"
					}
				},
				{
					"sampler":26,
					"target":{
						"node":3,
						"path":"scale"
					}
				},
				{
					"sampler":27,
					"target":{
						"node":9,
						"path":"translation"
					}
				},
				{
					"sampler":28,
					"target":{
						"node":9,
						"path":"rotation"
					}
				},
				{
					"sampler":29,
					"target":{
						"node":9,
						"path":"scale"
					}
				},
				{
					"sampler":30,
					"target":{
						"node":8,
						"path":"translation"
					}
				},
				{
					"sampler":31,
					"target":{
						"node":8,
						"path":"rotation"
					}
				},
				{
					"sampler":32,
					"target":{
						"node":8,
						"path":"scale"
					}
				},
				{
					"sampler":33,
					"target":{
						"node":7,
						"path":"translation"
					}
				},
				{
					"sampler":34,
					"target":{
						"node":7,
						"path":"rotation"
					}
				},
				{
					"sampler":35,
					"target":{
						"node":7,
						"path":"scale"
					}
				},
				{
					"sampler":36,
					"target":{
						"node":14,
						"path":"translation"
					}
				},
				{
					"sampler":37,
					"target":{
						"node":14,
						"path":"rotation"
					}
				},
				{
					"sampler":38,
					"target":{
						"node":14,
						"path":"scale"
					}
				},
				{
					"sampler":39,
					"target":{
						"node":13,
						"path":"translation"
					}
				},
				{
					"sampler":40,
					"target":{
						"node":13,
						"path":"rotation"
					}
				},
				{
					"sampler":41,
					"target":{
						"node":13,
						"path":"scale"
					}
				},
				{
					"sampler":42,
					"target":{
						"node":12,
						"path":"translation"
					}
				},
				{
					"sampler":43,
					"target":{
						"node":12,
						"path":"rotation"
					}
				},
				{
					"sampler":44,
					"target":{
						"node":12,
						"path":"scale"
					}
				},
				{
					"sampler":45,
					"target":{
						"node":17,
						"path":"translation"
					}
				},
				{
					"sampler":46,
					"target":{
						"node":17,
						"path":"rotation"
					}
				},
				{
					"sampler":47,
					"target":{
						"node":17,
						"path":"scale"
					}
				},
				{
					"sampler":48,
					"target":{
						"node":16,
						"path":"translation"
					}
				},
				{
					"sampler":49,
					"target":{
						"node":16,
						"path":"rotation"
					}
				},
				{
					"sampler":50,
					"target":{
						"node":16,
						"path":"scale"
					}
				},
				{
					"sampler":51,
					"target":{
						"node":15,
						"path":"translation"
					}
				},
				{
					"sampler":52,
					"target":{
						"node":15,
						"path":"rotation"
					}
				},
				{
					"sampler":53,
					"target":{
						"node":15,
						"path":"scale"
					}
				}
			],
			"name":"Idle",
			"samplers":[
				{
					"input":60,
					"interpolation":"LINEAR",
					"output":61
				},
				{
					"input":62,
					"interpolation":"STEP",
					"output":13
				},
				{
					"input":62,
					"interpolation":"STEP",
					"output":14
				},
				{
					"input":62,
					"interpolation":"STEP",
					"output":15
				},
				{
					"input":60,
					"interpolation":"LINEAR",
					"output":63
				},
				{
					"input":62,
					"interpolation":"STEP",
					"output":14
				},
				{
					"input":62,
					"interpolation":"STEP",
					"output":18
				},
				{
					"input":60,
					"interpolation":"LINEAR",
					"output":64
				},
				{
					"input":62,
					"interpolation":"STEP",
					"output":14
				},
				{
					"input":62,
					"interpolation":"STEP",
					"output":20
				},
				{
					"input":62,
					"interpolation":"STEP",
					"output":21
				},
				{
					"input":62,
					"interpolation":"STEP",
					"output":22
				},
				{
					"input":62,
					"interpolation":"STEP",
					"output":23
				},
				{
					"input":60,
					"interpolation":"LINEAR",
					"output":65
				},
				{
					"input":62,
					"interpolation":"STEP",
					"output":25
				},
				{
					"input":62,
					"interpolation":"STEP",
					"output":66
				},
				{
					"input":62,
					"interpolation":"STEP",
					"output":67
				},
				{
					"input":62,
					"interpolation":"STEP",
					"output":22
				},
				{
					"input":62,
					"interpolation":"STEP",
					"output":28
				},
				{
					"input":60,
					"interpolation":"LINEAR",
					"output":68
				},
				{
					"input":62,
					"interpolation":"STEP",
					"output":69
				},
				{
					"input":62,
					"interpolation":"STEP",
					"output":70
				},
				{
					"input":62,
					"interpolation":"STEP",
					"output":71
				},
				{
					"input":62,
					"interpolation":"STEP",
					"output":72
				},
				{
					"input":62,
					"interpolation":"STEP",
					"output":73
				},
				{
					"input":62,
					"interpolation":"STEP",
					"output":74
				},
				{
					"input":62,
					"interpolation":"STEP",
					"output":75
				},
				{
					"input":62,
					"interpolation":"STEP",
					"output":37
				},
				{
					"input":62,
					"interpolation":"STEP",
					"output":76
				},
				{
					"input":62,
					"interpolation":"STEP",
					"output":69
				},
				{
					"input":62,
					"interpolation":"STEP",
					"output":77
				},
				{
					"input":62,
					"interpolation":"STEP",
					"output":78
				},
				{
					"input":62,
					"interpolation":"STEP",
					"output":72
				},
				{
					"input":62,
					"interpolation":"STEP",
					"output":79
				},
				{
					"input":62,
					"interpolation":"STEP",
					"output":80
				},
				{
					"input":62,
					"interpolation":"STEP",
					"output":75
				},
				{
					"input":62,
					"interpolation":"STEP",
					"output":45
				},
				{
					"input":62,
					"interpolation":"STEP",
					"output":46
				},
				{
					"input":62,
					"interpolation":"STEP",
					"output":47
				},
				{
					"input":62,
					"interpolation":"STEP",
					"output":48
				},
				{
					"input":62,
					"interpolation":"STEP",
					"output":49
				},
				{
					"input":62,
					"interpolation":"STEP",
					"output":50
				},
				{
					"input":62,
					"interpolation":"STEP",
					"output":51
				},
				{
					"input":62,
					"interpolation":"STEP",
					"output":52
				},
				{
					"input":62,
					"interpolation":"STEP",
					"output":41
				},
				{
					"input":62,
					"interpolation":"STEP",
					"output":53
				},
				{
					"input":62,
					"interpolation":"STEP",
					"output":54
				},
				{
					"input":62,
					"interpolation":"STEP",
					"output":47
				},
				{
					"input":62,
					"interpolation":"STEP",
					"output":55
				},
				{
					"input":62,
					"interpolation":"STEP",
					"output":56
				},
				{
					"input":62,
					"interpolation":"STEP",
					"output":57
				},
				{
					"input":62,
					"interpolation":"STEP",
					"output":58
				},
				{
					"input":62,
					"interpolation":"STEP",
					"output":59
				},
				{
					"input":62,
					"interpolation":"STEP",
					"output":41
				}
			]
		},
		{
			"channels":[
				{
					"sampler":0,
					"target":{
						"node":18,
						"path":"translation"
					}
				},
				{
					"sampler":1,
					"target":{
						"node":18,
						"path":"rotation"
					}
				},
				{
					"sampler":2,
					"target":{
						"node":18,
						"path":"scale"
					}
				},
				{
					"sampler":3,
					"target":{
						"node":11,
						"path":"translation"
					}
				},
				{
					"sampler":4,
					"target":{
						"node":11,
						"path":"rotation"
					}
				},
				{
					"sampler":5,
					"target":{
						"node":11,
						"path":"scale"
					}
				},
				{
					"sampler":6,
					"target":{
						"node":10,
						"path":"translation"
					}
				},
				{
					"sampler":7,
					"target":{
						"node":10,
						"path":"rotation"
					}
				},
				{
					"sampler":8,
					"target":{
						"node":10,
						"path":"scale"
					}
				},
				{
					"sampler":9,
					"target":{
						"node":2,
						"path":"translation"
					}
				},
				{
					"sampler":10,
					"target":{
						"node":2,
						"path":"rotation"
					}
				},
				{
					"sampler":11,
					"target":{
						"node":2,
						"path":"scale"
					}
				},
				{
					"sampler":12,
					"target":{
						"node":1,
						"path":"translation"
					}
				},
				{
					"sampler":13,
					"target":{
						"node":1,
						"path":"rotation"
					}
				},
				{
					"sampler":14,
					"target":{
						"node":1,
						"path":"scale"
					}
				},
				{
					"sampler":15,
					"target":{
						"node":0,
						"path":"translation"
					}
				},
				{
					"sampler":16,
					"target":{
						"node":0,
						"path":"rotation"
					}
				},
				{
					"sampler":17,
					"target":{
						"node":0,
						"path":"scale"
					}
				},
				{
					"sampler":18,
					"target":{
						"node":5,
						"path":"translation"
					}
				},
				{
					"sampler":19,
					"target":{
						"node":5,
						"path":"rotation"
					}
				},
				{
					"sampler":20,
					"target":{
						"node":5,
						"path":"scale"
					}
				},
				{
					"sampler":21,
					"target":{
						"node":4,
						"path":"translation"
					}
				},
				{
					"sampler":22,
					"target":{
						"node":4,
						"path":"rotation"
					}
				},
				{
					"sampler":23,
					"target":{
						"node":4,
						"path":"scale"
					}
				},
				{
					"sampler":24,
					"target":{
						"node":3,
						"path":"translation"
					}
				},
				{
					"sampler":25,
					"target":{
						"node":3,
						"path":"rotation"
					}
				},
				{
					"sampler":26,
					"target":{
						"node":3,
						"path":"scale"
					}
				},
				{
					"sampler":27,
					"target":{
						"node":9,
						"path":"translation"
					}
				},
				{
					"sampler":28,
					"target":{
						"node":9,
						"path":"rotation"
					}
				},
				{
					"sampler":29,
					"target":{
						"node":9,
						"path":"scale"
					}
				},
				{
					"sampler":30,
					"target":{
						"node":8,
						"path":"translation"
					}
				},
				{
					"sampler":31,
					"target":{
						"node":8,
						"path":"rotation"
					}
				},
				{
					"sampler":32,
					"target":{
						"node":8,
						"path":"scale"
					}
				},
				{
					"sampler":33,
					"target":{
						"node":7,
						"path":"translation"
					}
				},
				{
					"sampler":34,
					"target":{
						"node":7,
						"path":"rotation"
					}
				},
				{
					"sampler":35,
					"target":{
						"node":7,
						"path":"scale"
					}
				},
				{
					"sampler":36,
					"target":{
						"node":14,
						"path":"translation"
					}
				},
				{
					"sampler":37,
					"target":{
						"node":14,
						"path":"rotation"
					}
				},
				{
					"sampler":38,
					"target":{
						"node":14,
						"path":"scale"
					}
				},
				{
					"sampler":39,
					"target":{
						"node":13,
						"path":"translation"
					}
				},
				{
					"sampler":40,
					"target":{
						"node":13,
						"path":"rotation"
					}
				},
				{
					"sampler":41,
					"target":{
						"node":13,
						"path":"scale"
					}
				},
				{
					"sampler":42,
					"target":{
						"node":12,
						"path":"translation"
					}
				},
				{
					"sampler":43,
					"target":{
						"node":12,
						"path":"rotation"
					}
				},
				{
					"sampler":44,
					"target":{
						"node":12,
						"path":"scale"
					}
				},
				{
					"sampler":45,
					"target":{
						"node":17,
						"path":"translation"
					}
				},
				{
					"sampler":46,
					"target":{
						"node":17,
						"path":"rotation"
					}
				},
				{
					"sampler":47,
					"target":{
						"node":17,
						"path":"scale"
					}
				},
				{
					"sampler":48,
					"target":{
						"node":16,
						"path":"translation"
					}
				},
				{
					"sampler":49,
					"target":{
						"node":16,
						"path":"rotation"
					}
				},
				{
					"sampler":50,
					"target":{
						"node":16,
						"path":"scale"
					}
				},
				{
					"sampler":51,
					"target":{
						"node":15,
						"path":"translation"
					}
				},
				{
					"sampler":52,
					"target":{
						"node":15,
						"path":"rotation"
					}
				},
				{
					"sampler":53,
					"target":{
						"node":15,
						"path":"scale"
					}
				}
			],
			"name":"Laufen",
			"samplers":[
				{
					"input":81,
					"interpolation":"LINEAR",
					"output":82
				},
				{
					"input":81,
					"interpolation":"LINEAR",
					"output":83
				},
				{
					"input":84,
					"interpolation":"STEP",
					"output":14
				},
				{
					"input":84,
					"interpolation":"STEP",
					"output":15
				},
				{
					"input":84,
					"interpolation":"STEP",
					"output":85
				},
				{
					"input":84,
					"interpolation":"STEP",
					"output":14
				},
				{
					"input":84,
					"interpolation":"STEP",
					"output":86
				},
				{
					"input":81,
					"interpolation":"LINEAR",
					"output":87
				},
				{
					"input":84,
					"interpolation":"STEP",
					"output":41
				},
				{
					"input":84,
					"interpolation":"STEP",
					"output":88
				},
				{
					"input":84,
					"interpolation":"STEP",
					"output":89
				},
				{
					"input":84,
					"interpolation":"STEP",
					"output":22
				},
				{
					"input":84,
					"interpolation":"STEP",
					"output":90
				},
				{
					"input":81,
					"interpolation":"LINEAR",
					"output":91
				},
				{
					"input":84,
					"interpolation":"STEP",
					"output":92
				},
				{
					"input":84,
					"interpolation":"STEP",
					"output":93
				},
				{
					"input":81,
					"interpolation":"LINEAR",
					"output":94
				},
				{
					"input":84,
					"interpolation":"STEP",
					"output":95
				},
				{
					"input":84,
					"interpolation":"STEP",
					"output":96
				},
				{
					"input":81,
					"interpolation":"LINEAR",
					"output":97
				},
				{
					"input":84,
					"interpolation":"STEP",
					"output":98
				},
				{
					"input":84,
					"interpolation":"STEP",
					"output":99
				},
				{
					"input":84,
					"interpolation":"STEP",
					"output":100
				},
				{
					"input":84,
					"interpolation":"STEP",
					"output":101
				},
				{
					"input":84,
					"interpolation":"STEP",
					"output":102
				},
				{
					"input":84,
					"interpolation":"STEP",
					"output":103
				},
				{
					"input":84,
					"interpolation":"STEP",
					"output":104
				},
				{
					"input":84,
					"interpolation":"STEP",
					"output":105
				},
				{
					"input":81,
					"interpolation":"LINEAR",
					"output":106
				},
				{
					"input":84,
					"interpolation":"STEP",
					"output":98
				},
				{
					"input":84,
					"interpolation":"STEP",
					"output":107
				},
				{
					"input":84,
					"interpolation":"STEP",
					"output":108
				},
				{
					"input":84,
					"interpolation":"STEP",
					"output":101
				},
				{
					"input":84,
					"interpolation":"STEP",
					"output":109
				},
				{
					"input":84,
					"interpolation":"STEP",
					"output":110
				},
				{
					"input":84,
					"interpolation":"STEP",
					"output":104
				},
				{
					"input":84,
					"interpolation":"STEP",
					"output":111
				},
				{
					"input":81,
					"interpolation":"LINEAR",
					"output":112
				},
				{
					"input":84,
					"interpolation":"STEP",
					"output":47
				},
				{
					"input":84,
					"interpolation":"STEP",
					"output":113
				},
				{
					"input":81,
					"interpolation":"LINEAR",
					"output":114
				},
				{
					"input":84,
					"interpolation":"STEP",
					"output":50
				},
				{
					"input":84,
					"interpolation":"STEP",
					"output":115
				},
				{
					"input":81,
					"interpolation":"LINEAR",
					"output":116
				},
				{
					"input":84,
					"interpolation":"STEP",
					"output":92
				},
				{
					"input":84,
					"interpolation":"STEP",
					"output":117
				},
				{
					"input":81,
					"interpolation":"LINEAR",
					"output":118
				},
				{
					"input":84,
					"interpolation":"STEP",
					"output":47
				},
				{
					"input":84,
					"interpolation":"STEP",
					"output":119
				},
				{
					"input":81,
					"interpolation":"LINEAR",
					"output":120
				},
				{
					"input":84,
					"interpolation":"STEP",
					"output":121
				},
				{
					"input":84,
					"interpolation":"STEP",
					"output":122
				},
				{
					"input":81,
					"interpolation":"LINEAR",
					"output":123
				},
				{
					"input":84,
					"interpolation":"STEP",
					"output":124
				}
			]
		}
	],
	"materials":[
		{
			"doubleSided":true,
			"name":"GoblinSchamane",
			"pbrMetallicRoughness":{
				"metallicFactor":0,
				"roughnessFactor":0.8500000238418579
			}
		}
	],
	"meshes":[
		{
			"name":"Haut",
			"primitives":[
				{
					"attributes":{
						"POSITION":0,
						"NORMAL":1,
						"COLOR_0":2,
						"JOINTS_0":3,
						"WEIGHTS_0":4
					},
					"indices":5,
					"material":0
				}
			]
		},
		{
			"name":"Stab",
			"primitives":[
				{
					"attributes":{
						"POSITION":7,
						"NORMAL":8,
						"COLOR_0":9
					},
					"indices":10,
					"material":0
				}
			]
		}
	],
	"skins":[
		{
			"inverseBindMatrices":6,
			"joints":[
				18,
				11,
				10,
				2,
				1,
				0,
				5,
				4,
				3,
				9,
				8,
				7,
				14,
				13,
				12,
				17,
				16,
				15
			],
			"name":"GoblinSchamaneSkelett"
		}
	],
	"accessors":[
		{
			"bufferView":0,
			"componentType":5126,
			"count":19958,
			"max":[
				0.3150000274181366,
				1.330650806427002,
				0.3189241886138916
			],
			"min":[
				-0.3150000274181366,
				-0.005249988753348589,
				-0.1751881092786789
			],
			"type":"VEC3"
		},
		{
			"bufferView":1,
			"componentType":5126,
			"count":19958,
			"type":"VEC3"
		},
		{
			"bufferView":2,
			"componentType":5126,
			"count":19958,
			"type":"VEC3"
		},
		{
			"bufferView":3,
			"componentType":5121,
			"count":19958,
			"type":"VEC4"
		},
		{
			"bufferView":4,
			"componentType":5126,
			"count":19958,
			"type":"VEC4"
		},
		{
			"bufferView":5,
			"componentType":5123,
			"count":80406,
			"type":"SCALAR"
		},
		{
			"bufferView":6,
			"componentType":5126,
			"count":18,
			"type":"MAT4"
		},
		{
			"bufferView":7,
			"componentType":5126,
			"count":1187,
			"max":[
				-0.1638137400150299,
				1.2693136930465698,
				0.10716025531291962
			],
			"min":[
				-0.3048137426376343,
				0.05892088636755943,
				-0.18185055255889893
			],
			"type":"VEC3"
		},
		{
			"bufferView":8,
			"componentType":5126,
			"count":1187,
			"type":"VEC3"
		},
		{
			"bufferView":9,
			"componentType":5126,
			"count":1187,
			"type":"VEC3"
		},
		{
			"bufferView":10,
			"componentType":5123,
			"count":2472,
			"type":"SCALAR"
		},
		{
			"bufferView":11,
			"componentType":5126,
			"count":2,
			"max":[
				1.0666666666666667
			],
			"min":[
				0
			],
			"type":"SCALAR"
		},
		{
			"bufferView":12,
			"componentType":5126,
			"count":2,
			"type":"VEC3"
		},
		{
			"bufferView":13,
			"componentType":5126,
			"count":2,
			"type":"VEC4"
		},
		{
			"bufferView":14,
			"componentType":5126,
			"count":2,
			"type":"VEC3"
		},
		{
			"bufferView":15,
			"componentType":5126,
			"count":2,
			"type":"VEC3"
		},
		{
			"bufferView":16,
			"componentType":5126,
			"count":33,
			"max":[
				1.0666666666666667
			],
			"min":[
				0
			],
			"type":"SCALAR"
		},
		{
			"bufferView":17,
			"componentType":5126,
			"count":33,
			"type":"VEC4"
		},
		{
			"bufferView":18,
			"componentType":5126,
			"count":2,
			"type":"VEC3"
		},
		{
			"bufferView":19,
			"componentType":5126,
			"count":33,
			"type":"VEC4"
		},
		{
			"bufferView":20,
			"componentType":5126,
			"count":2,
			"type":"VEC3"
		},
		{
			"bufferView":21,
			"componentType":5126,
			"count":2,
			"type":"VEC4"
		},
		{
			"bufferView":22,
			"componentType":5126,
			"count":2,
			"type":"VEC3"
		},
		{
			"bufferView":23,
			"componentType":5126,
			"count":2,
			"type":"VEC3"
		},
		{
			"bufferView":24,
			"componentType":5126,
			"count":2,
			"type":"VEC4"
		},
		{
			"bufferView":25,
			"componentType":5126,
			"count":2,
			"type":"VEC3"
		},
		{
			"bufferView":26,
			"componentType":5126,
			"count":2,
			"type":"VEC3"
		},
		{
			"bufferView":27,
			"componentType":5126,
			"count":33,
			"type":"VEC4"
		},
		{
			"bufferView":28,
			"componentType":5126,
			"count":2,
			"type":"VEC3"
		},
		{
			"bufferView":29,
			"componentType":5126,
			"count":33,
			"type":"VEC4"
		},
		{
			"bufferView":30,
			"componentType":5126,
			"count":2,
			"type":"VEC3"
		},
		{
			"bufferView":31,
			"componentType":5126,
			"count":2,
			"type":"VEC3"
		},
		{
			"bufferView":32,
			"componentType":5126,
			"count":33,
			"type":"VEC4"
		},
		{
			"bufferView":33,
			"componentType":5126,
			"count":2,
			"type":"VEC3"
		},
		{
			"bufferView":34,
			"componentType":5126,
			"count":2,
			"type":"VEC3"
		},
		{
			"bufferView":35,
			"componentType":5126,
			"count":2,
			"type":"VEC4"
		},
		{
			"bufferView":36,
			"componentType":5126,
			"count":2,
			"type":"VEC3"
		},
		{
			"bufferView":37,
			"componentType":5126,
			"count":2,
			"type":"VEC3"
		},
		{
			"bufferView":38,
			"componentType":5126,
			"count":33,
			"type":"VEC4"
		},
		{
			"bufferView":39,
			"componentType":5126,
			"count":2,
			"type":"VEC3"
		},
		{
			"bufferView":40,
			"componentType":5126,
			"count":33,
			"type":"VEC4"
		},
		{
			"bufferView":41,
			"componentType":5126,
			"count":2,
			"type":"VEC3"
		},
		{
			"bufferView":42,
			"componentType":5126,
			"count":2,
			"type":"VEC3"
		},
		{
			"bufferView":43,
			"componentType":5126,
			"count":2,
			"type":"VEC4"
		},
		{
			"bufferView":44,
			"componentType":5126,
			"count":2,
			"type":"VEC3"
		},
		{
			"bufferView":45,
			"componentType":5126,
			"count":2,
			"type":"VEC3"
		},
		{
			"bufferView":46,
			"componentType":5126,
			"count":2,
			"type":"VEC4"
		},
		{
			"bufferView":47,
			"componentType":5126,
			"count":2,
			"type":"VEC3"
		},
		{
			"bufferView":48,
			"componentType":5126,
			"count":2,
			"type":"VEC3"
		},
		{
			"bufferView":49,
			"componentType":5126,
			"count":2,
			"type":"VEC4"
		},
		{
			"bufferView":50,
			"componentType":5126,
			"count":2,
			"type":"VEC3"
		},
		{
			"bufferView":51,
			"componentType":5126,
			"count":2,
			"type":"VEC3"
		},
		{
			"bufferView":52,
			"componentType":5126,
			"count":2,
			"type":"VEC4"
		},
		{
			"bufferView":53,
			"componentType":5126,
			"count":2,
			"type":"VEC3"
		},
		{
			"bufferView":54,
			"componentType":5126,
			"count":2,
			"type":"VEC4"
		},
		{
			"bufferView":55,
			"componentType":5126,
			"count":2,
			"type":"VEC3"
		},
		{
			"bufferView":56,
			"componentType":5126,
			"count":2,
			"type":"VEC4"
		},
		{
			"bufferView":57,
			"componentType":5126,
			"count":2,
			"type":"VEC3"
		},
		{
			"bufferView":58,
			"componentType":5126,
			"count":2,
			"type":"VEC3"
		},
		{
			"bufferView":59,
			"componentType":5126,
			"count":2,
			"type":"VEC4"
		},
		{
			"bufferView":60,
			"componentType":5126,
			"count":181,
			"max":[
				6
			],
			"min":[
				0
			],
			"type":"SCALAR"
		},
		{
			"bufferView":61,
			"componentType":5126,
			"count":181,
			"type":"VEC3"
		},
		{
			"bufferView":62,
			"componentType":5126,
			"count":2,
			"max":[
				6
			],
			"min":[
				0
			],
			"type":"SCALAR"
		},
		{
			"bufferView":63,
			"componentType":5126,
			"count":181,
			"type":"VEC4"
		},
		{
			"bufferView":64,
			"componentType":5126,
			"count":181,
			"type":"VEC4"
		},
		{
			"bufferView":65,
			"componentType":5126,
			"count":181,
			"type":"VEC4"
		},
		{
			"bufferView":66,
			"componentType":5126,
			"count":2,
			"type":"VEC3"
		},
		{
			"bufferView":67,
			"componentType":5126,
			"count":2,
			"type":"VEC4"
		},
		{
			"bufferView":68,
			"componentType":5126,
			"count":181,
			"type":"VEC4"
		},
		{
			"bufferView":69,
			"componentType":5126,
			"count":2,
			"type":"VEC3"
		},
		{
			"bufferView":70,
			"componentType":5126,
			"count":2,
			"type":"VEC3"
		},
		{
			"bufferView":71,
			"componentType":5126,
			"count":2,
			"type":"VEC4"
		},
		{
			"bufferView":72,
			"componentType":5126,
			"count":2,
			"type":"VEC3"
		},
		{
			"bufferView":73,
			"componentType":5126,
			"count":2,
			"type":"VEC3"
		},
		{
			"bufferView":74,
			"componentType":5126,
			"count":2,
			"type":"VEC4"
		},
		{
			"bufferView":75,
			"componentType":5126,
			"count":2,
			"type":"VEC3"
		},
		{
			"bufferView":76,
			"componentType":5126,
			"count":2,
			"type":"VEC4"
		},
		{
			"bufferView":77,
			"componentType":5126,
			"count":2,
			"type":"VEC3"
		},
		{
			"bufferView":78,
			"componentType":5126,
			"count":2,
			"type":"VEC4"
		},
		{
			"bufferView":79,
			"componentType":5126,
			"count":2,
			"type":"VEC3"
		},
		{
			"bufferView":80,
			"componentType":5126,
			"count":2,
			"type":"VEC4"
		},
		{
			"bufferView":81,
			"componentType":5126,
			"count":31,
			"max":[
				1
			],
			"min":[
				0
			],
			"type":"SCALAR"
		},
		{
			"bufferView":82,
			"componentType":5126,
			"count":31,
			"type":"VEC3"
		},
		{
			"bufferView":83,
			"componentType":5126,
			"count":31,
			"type":"VEC4"
		},
		{
			"bufferView":84,
			"componentType":5126,
			"count":2,
			"max":[
				1
			],
			"min":[
				0
			],
			"type":"SCALAR"
		},
		{
			"bufferView":85,
			"componentType":5126,
			"count":2,
			"type":"VEC4"
		},
		{
			"bufferView":86,
			"componentType":5126,
			"count":2,
			"type":"VEC3"
		},
		{
			"bufferView":87,
			"componentType":5126,
			"count":31,
			"type":"VEC4"
		},
		{
			"bufferView":88,
			"componentType":5126,
			"count":2,
			"type":"VEC3"
		},
		{
			"bufferView":89,
			"componentType":5126,
			"count":2,
			"type":"VEC4"
		},
		{
			"bufferView":90,
			"componentType":5126,
			"count":2,
			"type":"VEC3"
		},
		{
			"bufferView":91,
			"componentType":5126,
			"count":31,
			"type":"VEC4"
		},
		{
			"bufferView":92,
			"componentType":5126,
			"count":2,
			"type":"VEC3"
		},
		{
			"bufferView":93,
			"componentType":5126,
			"count":2,
			"type":"VEC3"
		},
		{
			"bufferView":94,
			"componentType":5126,
			"count":31,
			"type":"VEC4"
		},
		{
			"bufferView":95,
			"componentType":5126,
			"count":2,
			"type":"VEC3"
		},
		{
			"bufferView":96,
			"componentType":5126,
			"count":2,
			"type":"VEC3"
		},
		{
			"bufferView":97,
			"componentType":5126,
			"count":31,
			"type":"VEC4"
		},
		{
			"bufferView":98,
			"componentType":5126,
			"count":2,
			"type":"VEC3"
		},
		{
			"bufferView":99,
			"componentType":5126,
			"count":2,
			"type":"VEC3"
		},
		{
			"bufferView":100,
			"componentType":5126,
			"count":2,
			"type":"VEC4"
		},
		{
			"bufferView":101,
			"componentType":5126,
			"count":2,
			"type":"VEC3"
		},
		{
			"bufferView":102,
			"componentType":5126,
			"count":2,
			"type":"VEC3"
		},
		{
			"bufferView":103,
			"componentType":5126,
			"count":2,
			"type":"VEC4"
		},
		{
			"bufferView":104,
			"componentType":5126,
			"count":2,
			"type":"VEC3"
		},
		{
			"bufferView":105,
			"componentType":5126,
			"count":2,
			"type":"VEC3"
		},
		{
			"bufferView":106,
			"componentType":5126,
			"count":31,
			"type":"VEC4"
		},
		{
			"bufferView":107,
			"componentType":5126,
			"count":2,
			"type":"VEC3"
		},
		{
			"bufferView":108,
			"componentType":5126,
			"count":2,
			"type":"VEC4"
		},
		{
			"bufferView":109,
			"componentType":5126,
			"count":2,
			"type":"VEC3"
		},
		{
			"bufferView":110,
			"componentType":5126,
			"count":2,
			"type":"VEC4"
		},
		{
			"bufferView":111,
			"componentType":5126,
			"count":2,
			"type":"VEC3"
		},
		{
			"bufferView":112,
			"componentType":5126,
			"count":31,
			"type":"VEC4"
		},
		{
			"bufferView":113,
			"componentType":5126,
			"count":2,
			"type":"VEC3"
		},
		{
			"bufferView":114,
			"componentType":5126,
			"count":31,
			"type":"VEC4"
		},
		{
			"bufferView":115,
			"componentType":5126,
			"count":2,
			"type":"VEC3"
		},
		{
			"bufferView":116,
			"componentType":5126,
			"count":31,
			"type":"VEC4"
		},
		{
			"bufferView":117,
			"componentType":5126,
			"count":2,
			"type":"VEC3"
		},
		{
			"bufferView":118,
			"componentType":5126,
			"count":31,
			"type":"VEC4"
		},
		{
			"bufferView":119,
			"componentType":5126,
			"count":2,
			"type":"VEC3"
		},
		{
			"bufferView":120,
			"componentType":5126,
			"count":31,
			"type":"VEC4"
		},
		{
			"bufferView":121,
			"componentType":5126,
			"count":2,
			"type":"VEC3"
		},
		{
			"bufferView":122,
			"componentType":5126,
			"count":2,
			"type":"VEC3"
		},
		{
			"bufferView":123,
			"componentType":5126,
			"count":31,
			"type":"VEC4"
		},
		{
			"bufferView":124,
			"componentType":5126,
			"count":2,
			"type":"VEC3"
		}
	],
	"bufferViews":[
		{
			"buffer":0,
			"byteLength":239496,
			"byteOffset":0,
			"target":34962
		},
		{
			"buffer":0,
			"byteLength":239496,
			"byteOffset":239496,
			"target":34962
		},
		{
			"buffer":0,
			"byteLength":239496,
			"byteOffset":478992,
			"target":34962
		},
		{
			"buffer":0,
			"byteLength":79832,
			"byteOffset":718488,
			"target":34962
		},
		{
			"buffer":0,
			"byteLength":319328,
			"byteOffset":798320,
			"target":34962
		},
		{
			"buffer":0,
			"byteLength":160812,
			"byteOffset":1117648,
			"target":34963
		},
		{
			"buffer":0,
			"byteLength":1152,
			"byteOffset":1278460
		},
		{
			"buffer":0,
			"byteLength":14244,
			"byteOffset":1279612,
			"target":34962
		},
		{
			"buffer":0,
			"byteLength":14244,
			"byteOffset":1293856,
			"target":34962
		},
		{
			"buffer":0,
			"byteLength":14244,
			"byteOffset":1308100,
			"target":34962
		},
		{
			"buffer":0,
			"byteLength":4944,
			"byteOffset":1322344,
			"target":34963
		},
		{
			"buffer":0,
			"byteLength":8,
			"byteOffset":1327288
		},
		{
			"buffer":0,
			"byteLength":24,
			"byteOffset":1327296
		},
		{
			"buffer":0,
			"byteLength":32,
			"byteOffset":1327320
		},
		{
			"buffer":0,
			"byteLength":24,
			"byteOffset":1327352
		},
		{
			"buffer":0,
			"byteLength":24,
			"byteOffset":1327376
		},
		{
			"buffer":0,
			"byteLength":132,
			"byteOffset":1327400
		},
		{
			"buffer":0,
			"byteLength":528,
			"byteOffset":1327532
		},
		{
			"buffer":0,
			"byteLength":24,
			"byteOffset":1328060
		},
		{
			"buffer":0,
			"byteLength":528,
			"byteOffset":1328084
		},
		{
			"buffer":0,
			"byteLength":24,
			"byteOffset":1328612
		},
		{
			"buffer":0,
			"byteLength":32,
			"byteOffset":1328636
		},
		{
			"buffer":0,
			"byteLength":24,
			"byteOffset":1328668
		},
		{
			"buffer":0,
			"byteLength":24,
			"byteOffset":1328692
		},
		{
			"buffer":0,
			"byteLength":32,
			"byteOffset":1328716
		},
		{
			"buffer":0,
			"byteLength":24,
			"byteOffset":1328748
		},
		{
			"buffer":0,
			"byteLength":24,
			"byteOffset":1328772
		},
		{
			"buffer":0,
			"byteLength":528,
			"byteOffset":1328796
		},
		{
			"buffer":0,
			"byteLength":24,
			"byteOffset":1329324
		},
		{
			"buffer":0,
			"byteLength":528,
			"byteOffset":1329348
		},
		{
			"buffer":0,
			"byteLength":24,
			"byteOffset":1329876
		},
		{
			"buffer":0,
			"byteLength":24,
			"byteOffset":1329900
		},
		{
			"buffer":0,
			"byteLength":528,
			"byteOffset":1329924
		},
		{
			"buffer":0,
			"byteLength":24,
			"byteOffset":1330452
		},
		{
			"buffer":0,
			"byteLength":24,
			"byteOffset":1330476
		},
		{
			"buffer":0,
			"byteLength":32,
			"byteOffset":1330500
		},
		{
			"buffer":0,
			"byteLength":24,
			"byteOffset":1330532
		},
		{
			"buffer":0,
			"byteLength":24,
			"byteOffset":1330556
		},
		{
			"buffer":0,
			"byteLength":528,
			"byteOffset":1330580
		},
		{
			"buffer":0,
			"byteLength":24,
			"byteOffset":1331108
		},
		{
			"buffer":0,
			"byteLength":528,
			"byteOffset":1331132
		},
		{
			"buffer":0,
			"byteLength":24,
			"byteOffset":1331660
		},
		{
			"buffer":0,
			"byteLength":24,
			"byteOffset":1331684
		},
		{
			"buffer":0,
			"byteLength":32,
			"byteOffset":1331708
		},
		{
			"buffer":0,
			"byteLength":24,
			"byteOffset":1331740
		},
		{
			"buffer":0,
			"byteLength":24,
			"byteOffset":1331764
		},
		{
			"buffer":0,
			"byteLength":32,
			"byteOffset":1331788
		},
		{
			"buffer":0,
			"byteLength":24,
			"byteOffset":1331820
		},
		{
			"buffer":0,
			"byteLength":24,
			"byteOffset":1331844
		},
		{
			"buffer":0,
			"byteLength":32,
			"byteOffset":1331868
		},
		{
			"buffer":0,
			"byteLength":24,
			"byteOffset":1331900
		},
		{
			"buffer":0,
			"byteLength":24,
			"byteOffset":1331924
		},
		{
			"buffer":0,
			"byteLength":32,
			"byteOffset":1331948
		},
		{
			"buffer":0,
			"byteLength":24,
			"byteOffset":1331980
		},
		{
			"buffer":0,
			"byteLength":32,
			"byteOffset":1332004
		},
		{
			"buffer":0,
			"byteLength":24,
			"byteOffset":1332036
		},
		{
			"buffer":0,
			"byteLength":32,
			"byteOffset":1332060
		},
		{
			"buffer":0,
			"byteLength":24,
			"byteOffset":1332092
		},
		{
			"buffer":0,
			"byteLength":24,
			"byteOffset":1332116
		},
		{
			"buffer":0,
			"byteLength":32,
			"byteOffset":1332140
		},
		{
			"buffer":0,
			"byteLength":724,
			"byteOffset":1332172
		},
		{
			"buffer":0,
			"byteLength":2172,
			"byteOffset":1332896
		},
		{
			"buffer":0,
			"byteLength":8,
			"byteOffset":1335068
		},
		{
			"buffer":0,
			"byteLength":2896,
			"byteOffset":1335076
		},
		{
			"buffer":0,
			"byteLength":2896,
			"byteOffset":1337972
		},
		{
			"buffer":0,
			"byteLength":2896,
			"byteOffset":1340868
		},
		{
			"buffer":0,
			"byteLength":24,
			"byteOffset":1343764
		},
		{
			"buffer":0,
			"byteLength":32,
			"byteOffset":1343788
		},
		{
			"buffer":0,
			"byteLength":2896,
			"byteOffset":1343820
		},
		{
			"buffer":0,
			"byteLength":24,
			"byteOffset":1346716
		},
		{
			"buffer":0,
			"byteLength":24,
			"byteOffset":1346740
		},
		{
			"buffer":0,
			"byteLength":32,
			"byteOffset":1346764
		},
		{
			"buffer":0,
			"byteLength":24,
			"byteOffset":1346796
		},
		{
			"buffer":0,
			"byteLength":24,
			"byteOffset":1346820
		},
		{
			"buffer":0,
			"byteLength":32,
			"byteOffset":1346844
		},
		{
			"buffer":0,
			"byteLength":24,
			"byteOffset":1346876
		},
		{
			"buffer":0,
			"byteLength":32,
			"byteOffset":1346900
		},
		{
			"buffer":0,
			"byteLength":24,
			"byteOffset":1346932
		},
		{
			"buffer":0,
			"byteLength":32,
			"byteOffset":1346956
		},
		{
			"buffer":0,
			"byteLength":24,
			"byteOffset":1346988
		},
		{
			"buffer":0,
			"byteLength":32,
			"byteOffset":1347012
		},
		{
			"buffer":0,
			"byteLength":124,
			"byteOffset":1347044
		},
		{
			"buffer":0,
			"byteLength":372,
			"byteOffset":1347168
		},
		{
			"buffer":0,
			"byteLength":496,
			"byteOffset":1347540
		},
		{
			"buffer":0,
			"byteLength":8,
			"byteOffset":1348036
		},
		{
			"buffer":0,
			"byteLength":32,
			"byteOffset":1348044
		},
		{
			"buffer":0,
			"byteLength":24,
			"byteOffset":1348076
		},
		{
			"buffer":0,
			"byteLength":496,
			"byteOffset":1348100
		},
		{
			"buffer":0,
			"byteLength":24,
			"byteOffset":1348596
		},
		{
			"buffer":0,
			"byteLength":32,
			"byteOffset":1348620
		},
		{
			"buffer":0,
			"byteLength":24,
			"byteOffset":1348652
		},
		{
			"buffer":0,
			"byteLength":496,
			"byteOffset":1348676
		},
		{
			"buffer":0,
			"byteLength":24,
			"byteOffset":1349172
		},
		{
			"buffer":0,
			"byteLength":24,
			"byteOffset":1349196
		},
		{
			"buffer":0,
			"byteLength":496,
			"byteOffset":1349220
		},
		{
			"buffer":0,
			"byteLength":24,
			"byteOffset":1349716
		},
		{
			"buffer":0,
			"byteLength":24,
			"byteOffset":1349740
		},
		{
			"buffer":0,
			"byteLength":496,
			"byteOffset":1349764
		},
		{
			"buffer":0,
			"byteLength":24,
			"byteOffset":1350260
		},
		{
			"buffer":0,
			"byteLength":24,
			"byteOffset":1350284
		},
		{
			"buffer":0,
			"byteLength":32,
			"byteOffset":1350308
		},
		{
			"buffer":0,
			"byteLength":24,
			"byteOffset":1350340
		},
		{
			"buffer":0,
			"byteLength":24,
			"byteOffset":1350364
		},
		{
			"buffer":0,
			"byteLength":32,
			"byteOffset":1350388
		},
		{
			"buffer":0,
			"byteLength":24,
			"byteOffset":1350420
		},
		{
			"buffer":0,
			"byteLength":24,
			"byteOffset":1350444
		},
		{
			"buffer":0,
			"byteLength":496,
			"byteOffset":1350468
		},
		{
			"buffer":0,
			"byteLength":24,
			"byteOffset":1350964
		},
		{
			"buffer":0,
			"byteLength":32,
			"byteOffset":1350988
		},
		{
			"buffer":0,
			"byteLength":24,
			"byteOffset":1351020
		},
		{
			"buffer":0,
			"byteLength":32,
			"byteOffset":1351044
		},
		{
			"buffer":0,
			"byteLength":24,
			"byteOffset":1351076
		},
		{
			"buffer":0,
			"byteLength":496,
			"byteOffset":1351100
		},
		{
			"buffer":0,
			"byteLength":24,
			"byteOffset":1351596
		},
		{
			"buffer":0,
			"byteLength":496,
			"byteOffset":1351620
		},
		{
			"buffer":0,
			"byteLength":24,
			"byteOffset":1352116
		},
		{
			"buffer":0,
			"byteLength":496,
			"byteOffset":1352140
		},
		{
			"buffer":0,
			"byteLength":24,
			"byteOffset":1352636
		},
		{
			"buffer":0,
			"byteLength":496,
			"byteOffset":1352660
		},
		{
			"buffer":0,
			"byteLength":24,
			"byteOffset":1353156
		},
		{
			"buffer":0,
			"byteLength":496,
			"byteOffset":1353180
		},
		{
			"buffer":0,
			"byteLength":24,
			"byteOffset":1353676
		},
		{
			"buffer":0,
			"byteLength":24,
			"byteOffset":1353700
		},
		{
			"buffer":0,
			"byteLength":496,
			"byteOffset":1353724
		},
		{
			"buffer":0,
			"byteLength":24,
			"byteOffset":1354220
		}
	],
	"buffers":[
		{
			"byteLength":1354244,
			"uri":"goblin_schamane.bin"
		}
	]
}
