{
	"asset":{
		"generator":"Khronos glTF Blender I/O v5.2.40",
		"version":"2.0"
	},
	"scene":0,
	"scenes":[
		{
			"name":"Scene",
			"nodes":[
				20
			]
		}
	],
	"nodes":[
		{
			"name":"Hut",
			"rotation":[
				-0.492698609828949,
				2.5933980296599657e-08,
				-1.4683562810091644e-08,
				0.870199978351593
			],
			"translation":[
				0,
				0.2999999523162842,
				-0.019999999552965164
			]
		},
		{
			"children":[
				0
			],
			"name":"Kopf",
			"rotation":[
				-0.38268330693244934,
				-2.7533758384379325e-08,
				-1.1404851285590212e-08,
				0.9238796234130859
			],
			"translation":[
				-1.6653345369377348e-15,
				0.05656857416033745,
				2.7939677238464355e-08
			]
		},
		{
			"children":[
				1
			],
			"name":"Hals",
			"rotation":[
				0.38268330693244934,
				2.7533758384379325e-08,
				1.1404852173768631e-08,
				0.9238796234130859
			],
			"translation":[
				0,
				0.13999998569488525,
				0
			]
		},
		{
			"name":"Hand.L",
			"rotation":[
				-0.11473914235830307,
				-0.008630042895674706,
				0.029325924813747406,
				0.992925226688385
			],
			"scale":[
				1,
				1,
				0.9999999403953552
			],
			"translation":[
				0,
				0.17613917589187622,
				9.041069004567248e-10
			]
		},
		{
			"children":[
				3
			],
			"name":"Unterarm.L",
			"rotation":[
				-0.1649579405784607,
				-0.00044009514385834336,
				0.09364243596792221,
				0.9818451404571533
			],
			"scale":[
				0.9999999403953552,
				1,
				1
			],
			"translation":[
				-9.201468031960758e-09,
				0.18627935647964478,
				4.6566128730773926e-09
			]
		},
		{
			"children":[
				4
			],
			"name":"Oberarm.L",
			"rotation":[
				-0.9777822494506836,
				-0.19342993199825287,
				0.015678171068429947,
				0.07925237715244293
			],
			"scale":[
				1.0000001192092896,
				1,
				1
			],
			"translation":[
				0.14000000059604645,
				0.11000001430511475,
				0
			]
		},
		{
			"mesh":1,
			"name":"Hackmesser",
			"rotation":[
				-0.9774771928787231,
				0.06946712732315063,
				0.01412681583315134,
				0.1987791210412979
			],
			"scale":[
				0.9999999403953552,
				0.9999999403953552,
				0.9999999403953552
			],
			"translation":[
				0.3090057373046875,
				0.3964252173900604,
				0.1681889146566391
			]
		},
		{
			"children":[
				6
			],
			"name":"Hand.R",
			"rotation":[
				-0.11473914235830307,
				0.008630042895674706,
				-0.029325924813747406,
				0.992925226688385
			],
			"scale":[
				1,
				1,
				0.9999999403953552
			],
			"translation":[
				0,
				0.17613917589187622,
				9.041069004567248e-10
			]
		},
		{
			"children":[
				7
			],
			"name":"Unterarm.R",
			"rotation":[
				-0.1649579405784607,
				0.00044009514385834336,
				-0.09364243596792221,
				0.9818451404571533
			],
			"scale":[
				0.9999999403953552,
				1,
				1
			],
			"translation":[
				9.201468031960758e-09,
				0.18627935647964478,
				4.6566128730773926e-09
			]
		},
		{
			"children":[
				8
			],
			"name":"Oberarm.R",
			"rotation":[
				-0.9777822494506836,
				0.19342993199825287,
				-0.015678171068429947,
				0.07925237715244293
			],
			"scale":[
				1.0000001192092896,
				1,
				1
			],
			"translation":[
				-0.14000000059604645,
				0.11000001430511475,
				0
			]
		},
		{
			"children":[
				2,
				5,
				9
			],
			"name":"Brust",
			"translation":[
				0,
				0.12000000476837158,
				0
			]
		},
		{
			"children":[
				10
			],
			"name":"Bauch",
			"translation":[
				0,
				0.07999998331069946,
				0
			]
		},
		{
			"name":"Fuss.L",
			"rotation":[
				-8.671097617707346e-08,
				0.7264547944068909,
				-0.6872142553329468,
				1.4144585236408602e-07
			],
			"translation":[
				-3.8031053861686814e-09,
				0.22803497314453125,
				-1.663408966123825e-09
			]
		},
		{
			"children":[
				12
			],
			"name":"Unterschenkel.L",
			"rotation":[
				0.20212341845035553,
				0.0029638821724802256,
				0.04736526310443878,
				0.9782095551490784
			],
			"scale":[
				0.9999998807907104,
				0.9999997615814209,
				0.9999998211860657
			],
			"translation":[
				1.3699765766261862e-08,
				0.2130727469921112,
				-4.307366907596588e-09
			]
		},
		{
			"children":[
				13
			],
			"name":"Oberschenkel.L",
			"rotation":[
				0.9963825941085815,
				0.04733959957957268,
				0.0033473344519734383,
				0.0704946368932724
			],
			"scale":[
				1.0000026226043701,
				1.0000001192092896,
				1.0000057220458984
			],
			"translation":[
				0.07999999821186066,
				0,
				0
			]
		},
		{
			"name":"Fuss.R",
			"rotation":[
				-6.569720056859296e-08,
				0.7264547944068909,
				-0.6872143149375916,
				1.414460228943426e-07
			],
			"scale":[
				1,
				0.9999998211860657,
				0.9999999403953552
			],
			"translation":[
				3.3142220079440676e-09,
				0.22803495824337006,
				-3.5906850825995207e-09
			]
		},
		{
			"children":[
				15
			],
			"name":"Unterschenkel.R",
			"rotation":[
				0.20212341845035553,
				-0.002963799750432372,
				-0.04736524820327759,
				0.9782095551490784
			],
			"scale":[
				0.9999999403953552,
				0.9999997615814209,
				0.9999997615814209
			],
			"translation":[
				-1.3699765766261862e-08,
				0.2130727469921112,
				-4.307366907596588e-09
			]
		},
		{
			"children":[
				16
			],
			"name":"Oberschenkel.R",
			"rotation":[
				0.9963825941085815,
				-0.04733959957957268,
				-0.0033473344519734383,
				0.0704946368932724
			],
			"scale":[
				1.0000026226043701,
				1.0000001192092896,
				1.0000057220458984
			],
			"translation":[
				-0.07999999821186066,
				0,
				0
			]
		},
		{
			"children":[
				11,
				14,
				17
			],
			"name":"Becken",
			"translation":[
				0,
				0.5,
				0
			]
		},
		{
			"mesh":0,
			"name":"Goblin",
			"skin":0
		},
		{
			"children":[
				19,
				18
			],
			"name":"GoblinSkelett"
		}
	],
	"animations":[
		{
			"channels":[
				{
					"sampler":0,
					"target":{
						"node":18,
						"path":"translation"
					}
				},
				{
					"sampler":1,
					"target":{
						"node":18,
						"path":"rotation"
					}
				},
				{
					"sampler":2,
					"target":{
						"node":18,
						"path":"scale"
					}
				},
				{
					"sampler":3,
					"target":{
						"node":11,
						"path":"translation"
					}
				},
				{
					"sampler":4,
					"target":{
						"node":11,
						"path":"rotation"
					}
				},
				{
					"sampler":5,
					"target":{
						"node":11,
						"path":"scale"
					}
				},
				{
					"sampler":6,
					"target":{
						"node":10,
						"path":"translation"
					}
				},
				{
					"sampler":7,
					"target":{
						"node":10,
						"path":"rotation"
					}
				},
				{
					"sampler":8,
					"target":{
						"node":10,
						"path":"scale"
					}
				},
				{
					"sampler":9,
					"target":{
						"node":2,
						"path":"translation"
					}
				},
				{
					"sampler":10,
					"target":{
						"node":2,
						"path":"rotation"
					}
				},
				{
					"sampler":11,
					"target":{
						"node":2,
						"path":"scale"
					}
				},
				{
					"sampler":12,
					"target":{
						"node":1,
						"path":"translation"
					}
				},
				{
					"sampler":13,
					"target":{
						"node":1,
						"path":"rotation"
					}
				},
				{
					"sampler":14,
					"target":{
						"node":1,
						"path":"scale"
					}
				},
				{
					"sampler":15,
					"target":{
						"node":0,
						"path":"translation"
					}
				},
				{
					"sampler":16,
					"target":{
						"node":0,
						"path":"rotation"
					}
				},
				{
					"sampler":17,
					"target":{
						"node":0,
						"path":"scale"
					}
				},
				{
					"sampler":18,
					"target":{
						"node":5,
						"path":"translation"
					}
				},
				{
					"sampler":19,
					"target":{
						"node":5,
						"path":"rotation"
					}
				},
				{
					"sampler":20,
					"target":{
						"node":5,
						"path":"scale"
					}
				},
				{
					"sampler":21,
					"target":{
						"node":4,
						"path":"translation"
					}
				},
				{
					"sampler":22,
					"target":{
						"node":4,
						"path":"rotation"
					}
				},
				{
					"sampler":23,
					"target":{
						"node":4,
						"path":"scale"
					}
				},
				{
					"sampler":24,
					"target":{
						"node":3,
						"path":"translation"
					}
				},
				{
					"sampler":25,
					"target":{
						"node":3,
						"path":"rotation"
					}
				},
				{
					"sampler":26,
					"target":{
						"node":3,
						"path":"scale"
					}
				},
				{
					"sampler":27,
					"target":{
						"node":9,
						"path":"translation"
					}
				},
				{
					"sampler":28,
					"target":{
						"node":9,
						"path":"rotation"
					}
				},
				{
					"sampler":29,
					"target":{
						"node":9,
						"path":"scale"
					}
				},
				{
					"sampler":30,
					"target":{
						"node":8,
						"path":"translation"
					}
				},
				{
					"sampler":31,
					"target":{
						"node":8,
						"path":"rotation"
					}
				},
				{
					"sampler":32,
					"target":{
						"node":8,
						"path":"scale"
					}
				},
				{
					"sampler":33,
					"target":{
						"node":7,
						"path":"translation"
					}
				},
				{
					"sampler":34,
					"target":{
						"node":7,
						"path":"rotation"
					}
				},
				{
					"sampler":35,
					"target":{
						"node":7,
						"path":"scale"
					}
				},
				{
					"sampler":36,
					"target":{
						"node":14,
						"path":"translation"
					}
				},
				{
					"sampler":37,
					"target":{
						"node":14,
						"path":"rotation"
					}
				},
				{
					"sampler":38,
					"target":{
						"node":14,
						"path":"scale"
					}
				},
				{
					"sampler":39,
					"target":{
						"node":13,
						"path":"translation"
					}
				},
				{
					"sampler":40,
					"target":{
						"node":13,
						"path":"rotation"
					}
				},
				{
					"sampler":41,
					"target":{
						"node":13,
						"path":"scale"
					}
				},
				{
					"sampler":42,
					"target":{
						"node":12,
						"path":"translation"
					}
				},
				{
					"sampler":43,
					"target":{
						"node":12,
						"path":"rotation"
					}
				},
				{
					"sampler":44,
					"target":{
						"node":12,
						"path":"scale"
					}
				},
				{
					"sampler":45,
					"target":{
						"node":17,
						"path":"translation"
					}
				},
				{
					"sampler":46,
					"target":{
						"node":17,
						"path":"rotation"
					}
				},
				{
					"sampler":47,
					"target":{
						"node":17,
						"path":"scale"
					}
				},
				{
					"sampler":48,
					"target":{
						"node":16,
						"path":"translation"
					}
				},
				{
					"sampler":49,
					"target":{
						"node":16,
						"path":"rotation"
					}
				},
				{
					"sampler":50,
					"target":{
						"node":16,
						"path":"scale"
					}
				},
				{
					"sampler":51,
					"target":{
						"node":15,
						"path":"translation"
					}
				},
				{
					"sampler":52,
					"target":{
						"node":15,
						"path":"rotation"
					}
				},
				{
					"sampler":53,
					"target":{
						"node":15,
						"path":"scale"
					}
				}
			],
			"name":"Angriff",
			"samplers":[
				{
					"input":11,
					"interpolation":"STEP",
					"output":12
				},
				{
					"input":11,
					"interpolation":"STEP",
					"output":13
				},
				{
					"input":11,
					"interpolation":"STEP",
					"output":14
				},
				{
					"input":11,
					"interpolation":"STEP",
					"output":15
				},
				{
					"input":16,
					"interpolation":"LINEAR",
					"output":17
				},
				{
					"input":11,
					"interpolation":"STEP",
					"output":14
				},
				{
					"input":11,
					"interpolation":"STEP",
					"output":18
				},
				{
					"input":16,
					"interpolation":"LINEAR",
					"output":19
				},
				{
					"input":11,
					"interpolation":"STEP",
					"output":14
				},
				{
					"input":11,
					"interpolation":"STEP",
					"output":20
				},
				{
					"input":11,
					"interpolation":"STEP",
					"output":21
				},
				{
					"input":11,
					"interpolation":"STEP",
					"output":14
				},
				{
					"input":11,
					"interpolation":"STEP",
					"output":22
				},
				{
					"input":11,
					"interpolation":"STEP",
					"output":23
				},
				{
					"input":11,
					"interpolation":"STEP",
					"output":14
				},
				{
					"input":11,
					"interpolation":"STEP",
					"output":24
				},
				{
					"input":11,
					"interpolation":"STEP",
					"output":25
				},
				{
					"input":11,
					"interpolation":"STEP",
					"output":14
				},
				{
					"input":11,
					"interpolation":"STEP",
					"output":26
				},
				{
					"input":11,
					"interpolation":"STEP",
					"output":27
				},
				{
					"input":11,
					"interpolation":"STEP",
					"output":28
				},
				{
					"input":11,
					"interpolation":"STEP",
					"output":29
				},
				{
					"input":11,
					"interpolation":"STEP",
					"output":30
				},
				{
					"input":11,
					"interpolation":"STEP",
					"output":31
				},
				{
					"input":11,
					"interpolation":"STEP",
					"output":32
				},
				{
					"input":11,
					"interpolation":"STEP",
					"output":33
				},
				{
					"input":11,
					"interpolation":"STEP",
					"output":34
				},
				{
					"input":11,
					"interpolation":"STEP",
					"output":35
				},
				{
					"input":16,
					"interpolation":"LINEAR",
					"output":36
				},
				{
					"input":11,
					"interpolation":"STEP",
					"output":28
				},
				{
					"input":11,
					"interpolation":"STEP",
					"output":37
				},
				{
					"input":16,
					"interpolation":"LINEAR",
					"output":38
				},
				{
					"input":11,
					"interpolation":"STEP",
					"output":39
				},
				{
					"input":11,
					"interpolation":"STEP",
					"output":40
				},
				{
					"input":11,
					"interpolation":"STEP",
					"output":41
				},
				{
					"input":11,
					"interpolation":"STEP",
					"output":42
				},
				{
					"input":11,
					"interpolation":"STEP",
					"output":43
				},
				{
					"input":16,
					"interpolation":"LINEAR",
					"output":44
				},
				{
					"input":11,
					"interpolation":"STEP",
					"output":45
				},
				{
					"input":11,
					"interpolation":"STEP",
					"output":46
				},
				{
					"input":16,
					"interpolation":"LINEAR",
					"output":47
				},
				{
					"input":11,
					"interpolation":"STEP",
					"output":48
				},
				{
					"input":11,
					"interpolation":"STEP",
					"output":49
				},
				{
					"input":11,
					"interpolation":"STEP",
					"output":50
				},
				{
					"input":11,
					"interpolation":"STEP",
					"output":51
				},
				{
					"input":11,
					"interpolation":"STEP",
					"output":52
				},
				{
					"input":16,
					"interpolation":"LINEAR",
					"output":53
				},
				{
					"input":11,
					"interpolation":"STEP",
					"output":54
				},
				{
					"input":11,
					"interpolation":"STEP",
					"output":55
				},
				{
					"input":16,
					"interpolation":"LINEAR",
					"output":56
				},
				{
					"input":11,
					"interpolation":"STEP",
					"output":57
				},
				{
					"input":11,
					"interpolation":"STEP",
					"output":58
				},
				{
					"input":11,
					"interpolation":"STEP",
					"output":59
				},
				{
					"input":11,
					"interpolation":"STEP",
					"output":60
				}
			]
		},
		{
			"channels":[
				{
					"sampler":0,
					"target":{
						"node":18,
						"path":"translation"
					}
				},
				{
					"sampler":1,
					"target":{
						"node":18,
						"path":"rotation"
					}
				},
				{
					"sampler":2,
					"target":{
						"node":18,
						"path":"scale"
					}
				},
				{
					"sampler":3,
					"target":{
						"node":11,
						"path":"translation"
					}
				},
				{
					"sampler":4,
					"target":{
						"node":11,
						"path":"rotation"
					}
				},
				{
					"sampler":5,
					"target":{
						"node":11,
						"path":"scale"
					}
				},
				{
					"sampler":6,
					"target":{
						"node":10,
						"path":"translation"
					}
				},
				{
					"sampler":7,
					"target":{
						"node":10,
						"path":"rotation"
					}
				},
				{
					"sampler":8,
					"target":{
						"node":10,
						"path":"scale"
					}
				},
				{
					"sampler":9,
					"target":{
						"node":2,
						"path":"translation"
					}
				},
				{
					"sampler":10,
					"target":{
						"node":2,
						"path":"rotation"
					}
				},
				{
					"sampler":11,
					"target":{
						"node":2,
						"path":"scale"
					}
				},
				{
					"sampler":12,
					"target":{
						"node":1,
						"path":"translation"
					}
				},
				{
					"sampler":13,
					"target":{
						"node":1,
						"path":"rotation"
					}
				},
				{
					"sampler":14,
					"target":{
						"node":1,
						"path":"scale"
					}
				},
				{
					"sampler":15,
					"target":{
						"node":0,
						"path":"translation"
					}
				},
				{
					"sampler":16,
					"target":{
						"node":0,
						"path":"rotation"
					}
				},
				{
					"sampler":17,
					"target":{
						"node":0,
						"path":"scale"
					}
				},
				{
					"sampler":18,
					"target":{
						"node":5,
						"path":"translation"
					}
				},
				{
					"sampler":19,
					"target":{
						"node":5,
						"path":"rotation"
					}
				},
				{
					"sampler":20,
					"target":{
						"node":5,
						"path":"scale"
					}
				},
				{
					"sampler":21,
					"target":{
						"node":4,
						"path":"translation"
					}
				},
				{
					"sampler":22,
					"target":{
						"node":4,
						"path":"rotation"
					}
				},
				{
					"sampler":23,
					"target":{
						"node":4,
						"path":"scale"
					}
				},
				{
					"sampler":24,
					"target":{
						"node":3,
						"path":"translation"
					}
				},
				{
					"sampler":25,
					"target":{
						"node":3,
						"path":"rotation"
					}
				},
				{
					"sampler":26,
					"target":{
						"node":3,
						"path":"scale"
					}
				},
				{
					"sampler":27,
					"target":{
						"node":9,
						"path":"translation"
					}
				},
				{
					"sampler":28,
					"target":{
						"node":9,
						"path":"rotation"
					}
				},
				{
					"sampler":29,
					"target":{
						"node":9,
						"path":"scale"
					}
				},
				{
					"sampler":30,
					"target":{
						"node":8,
						"path":"translation"
					}
				},
				{
					"sampler":31,
					"target":{
						"node":8,
						"path":"rotation"
					}
				},
				{
					"sampler":32,
					"target":{
						"node":8,
						"path":"scale"
					}
				},
				{
					"sampler":33,
					"target":{
						"node":7,
						"path":"translation"
					}
				},
				{
					"sampler":34,
					"target":{
						"node":7,
						"path":"rotation"
					}
				},
				{
					"sampler":35,
					"target":{
						"node":7,
						"path":"scale"
					}
				},
				{
					"sampler":36,
					"target":{
						"node":14,
						"path":"translation"
					}
				},
				{
					"sampler":37,
					"target":{
						"node":14,
						"path":"rotation"
					}
				},
				{
					"sampler":38,
					"target":{
						"node":14,
						"path":"scale"
					}
				},
				{
					"sampler":39,
					"target":{
						"node":13,
						"path":"translation"
					}
				},
				{
					"sampler":40,
					"target":{
						"node":13,
						"path":"rotation"
					}
				},
				{
					"sampler":41,
					"target":{
						"node":13,
						"path":"scale"
					}
				},
				{
					"sampler":42,
					"target":{
						"node":12,
						"path":"translation"
					}
				},
				{
					"sampler":43,
					"target":{
						"node":12,
						"path":"rotation"
					}
				},
				{
					"sampler":44,
					"target":{
						"node":12,
						"path":"scale"
					}
				},
				{
					"sampler":45,
					"target":{
						"node":17,
						"path":"translation"
					}
				},
				{
					"sampler":46,
					"target":{
						"node":17,
						"path":"rotation"
					}
				},
				{
					"sampler":47,
					"target":{
						"node":17,
						"path":"scale"
					}
				},
				{
					"sampler":48,
					"target":{
						"node":16,
						"path":"translation"
					}
				},
				{
					"sampler":49,
					"target":{
						"node":16,
						"path":"rotation"
					}
				},
				{
					"sampler":50,
					"target":{
						"node":16,
						"path":"scale"
					}
				},
				{
					"sampler":51,
					"target":{
						"node":15,
						"path":"translation"
					}
				},
				{
					"sampler":52,
					"target":{
						"node":15,
						"path":"rotation"
					}
				},
				{
					"sampler":53,
					"target":{
						"node":15,
						"path":"scale"
					}
				}
			],
			"name":"Idle",
			"samplers":[
				{
					"input":61,
					"interpolation":"LINEAR",
					"output":62
				},
				{
					"input":63,
					"interpolation":"STEP",
					"output":13
				},
				{
					"input":63,
					"interpolation":"STEP",
					"output":14
				},
				{
					"input":63,
					"interpolation":"STEP",
					"output":15
				},
				{
					"input":61,
					"interpolation":"LINEAR",
					"output":64
				},
				{
					"input":63,
					"interpolation":"STEP",
					"output":14
				},
				{
					"input":63,
					"interpolation":"STEP",
					"output":18
				},
				{
					"input":61,
					"interpolation":"LINEAR",
					"output":65
				},
				{
					"input":63,
					"interpolation":"STEP",
					"output":14
				},
				{
					"input":63,
					"interpolation":"STEP",
					"output":20
				},
				{
					"input":63,
					"interpolation":"STEP",
					"output":21
				},
				{
					"input":63,
					"interpolation":"STEP",
					"output":14
				},
				{
					"input":63,
					"interpolation":"STEP",
					"output":22
				},
				{
					"input":61,
					"interpolation":"LINEAR",
					"output":66
				},
				{
					"input":63,
					"interpolation":"STEP",
					"output":14
				},
				{
					"input":63,
					"interpolation":"STEP",
					"output":67
				},
				{
					"input":63,
					"interpolation":"STEP",
					"output":25
				},
				{
					"input":63,
					"interpolation":"STEP",
					"output":68
				},
				{
					"input":63,
					"interpolation":"STEP",
					"output":26
				},
				{
					"input":61,
					"interpolation":"LINEAR",
					"output":69
				},
				{
					"input":63,
					"interpolation":"STEP",
					"output":70
				},
				{
					"input":63,
					"interpolation":"STEP",
					"output":71
				},
				{
					"input":63,
					"interpolation":"STEP",
					"output":72
				},
				{
					"input":63,
					"interpolation":"STEP",
					"output":73
				},
				{
					"input":63,
					"interpolation":"STEP",
					"output":74
				},
				{
					"input":63,
					"interpolation":"STEP",
					"output":75
				},
				{
					"input":63,
					"interpolation":"STEP",
					"output":76
				},
				{
					"input":63,
					"interpolation":"STEP",
					"output":35
				},
				{
					"input":63,
					"interpolation":"STEP",
					"output":77
				},
				{
					"input":63,
					"interpolation":"STEP",
					"output":28
				},
				{
					"input":63,
					"interpolation":"STEP",
					"output":78
				},
				{
					"input":63,
					"interpolation":"STEP",
					"output":79
				},
				{
					"input":63,
					"interpolation":"STEP",
					"output":28
				},
				{
					"input":63,
					"interpolation":"STEP",
					"output":80
				},
				{
					"input":63,
					"interpolation":"STEP",
					"output":81
				},
				{
					"input":63,
					"interpolation":"STEP",
					"output":42
				},
				{
					"input":63,
					"interpolation":"STEP",
					"output":43
				},
				{
					"input":63,
					"interpolation":"STEP",
					"output":82
				},
				{
					"input":63,
					"interpolation":"STEP",
					"output":45
				},
				{
					"input":63,
					"interpolation":"STEP",
					"output":83
				},
				{
					"input":63,
					"interpolation":"STEP",
					"output":84
				},
				{
					"input":63,
					"interpolation":"STEP",
					"output":85
				},
				{
					"input":63,
					"interpolation":"STEP",
					"output":86
				},
				{
					"input":63,
					"interpolation":"STEP",
					"output":87
				},
				{
					"input":63,
					"interpolation":"STEP",
					"output":57
				},
				{
					"input":63,
					"interpolation":"STEP",
					"output":52
				},
				{
					"input":63,
					"interpolation":"STEP",
					"output":88
				},
				{
					"input":63,
					"interpolation":"STEP",
					"output":45
				},
				{
					"input":63,
					"interpolation":"STEP",
					"output":89
				},
				{
					"input":63,
					"interpolation":"STEP",
					"output":90
				},
				{
					"input":63,
					"interpolation":"STEP",
					"output":91
				},
				{
					"input":63,
					"interpolation":"STEP",
					"output":92
				},
				{
					"input":63,
					"interpolation":"STEP",
					"output":93
				},
				{
					"input":63,
					"interpolation":"STEP",
					"output":94
				}
			]
		},
		{
			"channels":[
				{
					"sampler":0,
					"target":{
						"node":18,
						"path":"translation"
					}
				},
				{
					"sampler":1,
					"target":{
						"node":18,
						"path":"rotation"
					}
				},
				{
					"sampler":2,
					"target":{
						"node":18,
						"path":"scale"
					}
				},
				{
					"sampler":3,
					"target":{
						"node":11,
						"path":"translation"
					}
				},
				{
					"sampler":4,
					"target":{
						"node":11,
						"path":"rotation"
					}
				},
				{
					"sampler":5,
					"target":{
						"node":11,
						"path":"scale"
					}
				},
				{
					"sampler":6,
					"target":{
						"node":10,
						"path":"translation"
					}
				},
				{
					"sampler":7,
					"target":{
						"node":10,
						"path":"rotation"
					}
				},
				{
					"sampler":8,
					"target":{
						"node":10,
						"path":"scale"
					}
				},
				{
					"sampler":9,
					"target":{
						"node":2,
						"path":"translation"
					}
				},
				{
					"sampler":10,
					"target":{
						"node":2,
						"path":"rotation"
					}
				},
				{
					"sampler":11,
					"target":{
						"node":2,
						"path":"scale"
					}
				},
				{
					"sampler":12,
					"target":{
						"node":1,
						"path":"translation"
					}
				},
				{
					"sampler":13,
					"target":{
						"node":1,
						"path":"rotation"
					}
				},
				{
					"sampler":14,
					"target":{
						"node":1,
						"path":"scale"
					}
				},
				{
					"sampler":15,
					"target":{
						"node":0,
						"path":"translation"
					}
				},
				{
					"sampler":16,
					"target":{
						"node":0,
						"path":"rotation"
					}
				},
				{
					"sampler":17,
					"target":{
						"node":0,
						"path":"scale"
					}
				},
				{
					"sampler":18,
					"target":{
						"node":5,
						"path":"translation"
					}
				},
				{
					"sampler":19,
					"target":{
						"node":5,
						"path":"rotation"
					}
				},
				{
					"sampler":20,
					"target":{
						"node":5,
						"path":"scale"
					}
				},
				{
					"sampler":21,
					"target":{
						"node":4,
						"path":"translation"
					}
				},
				{
					"sampler":22,
					"target":{
						"node":4,
						"path":"rotation"
					}
				},
				{
					"sampler":23,
					"target":{
						"node":4,
						"path":"scale"
					}
				},
				{
					"sampler":24,
					"target":{
						"node":3,
						"path":"translation"
					}
				},
				{
					"sampler":25,
					"target":{
						"node":3,
						"path":"rotation"
					}
				},
				{
					"sampler":26,
					"target":{
						"node":3,
						"path":"scale"
					}
				},
				{
					"sampler":27,
					"target":{
						"node":9,
						"path":"translation"
					}
				},
				{
					"sampler":28,
					"target":{
						"node":9,
						"path":"rotation"
					}
				},
				{
					"sampler":29,
					"target":{
						"node":9,
						"path":"scale"
					}
				},
				{
					"sampler":30,
					"target":{
						"node":8,
						"path":"translation"
					}
				},
				{
					"sampler":31,
					"target":{
						"node":8,
						"path":"rotation"
					}
				},
				{
					"sampler":32,
					"target":{
						"node":8,
						"path":"scale"
					}
				},
				{
					"sampler":33,
					"target":{
						"node":7,
						"path":"translation"
					}
				},
				{
					"sampler":34,
					"target":{
						"node":7,
						"path":"rotation"
					}
				},
				{
					"sampler":35,
					"target":{
						"node":7,
						"path":"scale"
					}
				},
				{
					"sampler":36,
					"target":{
						"node":14,
						"path":"translation"
					}
				},
				{
					"sampler":37,
					"target":{
						"node":14,
						"path":"rotation"
					}
				},
				{
					"sampler":38,
					"target":{
						"node":14,
						"path":"scale"
					}
				},
				{
					"sampler":39,
					"target":{
						"node":13,
						"path":"translation"
					}
				},
				{
					"sampler":40,
					"target":{
						"node":13,
						"path":"rotation"
					}
				},
				{
					"sampler":41,
					"target":{
						"node":13,
						"path":"scale"
					}
				},
				{
					"sampler":42,
					"target":{
						"node":12,
						"path":"translation"
					}
				},
				{
					"sampler":43,
					"target":{
						"node":12,
						"path":"rotation"
					}
				},
				{
					"sampler":44,
					"target":{
						"node":12,
						"path":"scale"
					}
				},
				{
					"sampler":45,
					"target":{
						"node":17,
						"path":"translation"
					}
				},
				{
					"sampler":46,
					"target":{
						"node":17,
						"path":"rotation"
					}
				},
				{
					"sampler":47,
					"target":{
						"node":17,
						"path":"scale"
					}
				},
				{
					"sampler":48,
					"target":{
						"node":16,
						"path":"translation"
					}
				},
				{
					"sampler":49,
					"target":{
						"node":16,
						"path":"rotation"
					}
				},
				{
					"sampler":50,
					"target":{
						"node":16,
						"path":"scale"
					}
				},
				{
					"sampler":51,
					"target":{
						"node":15,
						"path":"translation"
					}
				},
				{
					"sampler":52,
					"target":{
						"node":15,
						"path":"rotation"
					}
				},
				{
					"sampler":53,
					"target":{
						"node":15,
						"path":"scale"
					}
				}
			],
			"name":"Laufen",
			"samplers":[
				{
					"input":16,
					"interpolation":"LINEAR",
					"output":95
				},
				{
					"input":16,
					"interpolation":"LINEAR",
					"output":96
				},
				{
					"input":11,
					"interpolation":"STEP",
					"output":14
				},
				{
					"input":11,
					"interpolation":"STEP",
					"output":15
				},
				{
					"input":11,
					"interpolation":"STEP",
					"output":97
				},
				{
					"input":11,
					"interpolation":"STEP",
					"output":14
				},
				{
					"input":11,
					"interpolation":"STEP",
					"output":98
				},
				{
					"input":16,
					"interpolation":"LINEAR",
					"output":99
				},
				{
					"input":11,
					"interpolation":"STEP",
					"output":14
				},
				{
					"input":11,
					"interpolation":"STEP",
					"output":100
				},
				{
					"input":11,
					"interpolation":"STEP",
					"output":21
				},
				{
					"input":11,
					"interpolation":"STEP",
					"output":39
				},
				{
					"input":11,
					"interpolation":"STEP",
					"output":101
				},
				{
					"input":16,
					"interpolation":"LINEAR",
					"output":102
				},
				{
					"input":11,
					"interpolation":"STEP",
					"output":51
				},
				{
					"input":11,
					"interpolation":"STEP",
					"output":103
				},
				{
					"input":16,
					"interpolation":"LINEAR",
					"output":104
				},
				{
					"input":11,
					"interpolation":"STEP",
					"output":105
				},
				{
					"input":11,
					"interpolation":"STEP",
					"output":106
				},
				{
					"input":16,
					"interpolation":"LINEAR",
					"output":107
				},
				{
					"input":11,
					"interpolation":"STEP",
					"output":108
				},
				{
					"input":11,
					"interpolation":"STEP",
					"output":109
				},
				{
					"input":11,
					"interpolation":"STEP",
					"output":110
				},
				{
					"input":11,
					"interpolation":"STEP",
					"output":111
				},
				{
					"input":11,
					"interpolation":"STEP",
					"output":112
				},
				{
					"input":11,
					"interpolation":"STEP",
					"output":113
				},
				{
					"input":11,
					"interpolation":"STEP",
					"output":114
				},
				{
					"input":11,
					"interpolation":"STEP",
					"output":115
				},
				{
					"input":16,
					"interpolation":"LINEAR",
					"output":116
				},
				{
					"input":11,
					"interpolation":"STEP",
					"output":108
				},
				{
					"input":11,
					"interpolation":"STEP",
					"output":117
				},
				{
					"input":11,
					"interpolation":"STEP",
					"output":118
				},
				{
					"input":11,
					"interpolation":"STEP",
					"output":14
				},
				{
					"input":11,
					"interpolation":"STEP",
					"output":119
				},
				{
					"input":11,
					"interpolation":"STEP",
					"output":120
				},
				{
					"input":11,
					"interpolation":"STEP",
					"output":76
				},
				{
					"input":11,
					"interpolation":"STEP",
					"output":121
				},
				{
					"input":16,
					"interpolation":"LINEAR",
					"output":122
				},
				{
					"input":11,
					"interpolation":"STEP",
					"output":45
				},
				{
					"input":11,
					"interpolation":"STEP",
					"output":123
				},
				{
					"input":16,
					"interpolation":"LINEAR",
					"output":124
				},
				{
					"input":11,
					"interpolation":"STEP",
					"output":85
				},
				{
					"input":11,
					"interpolation":"STEP",
					"output":125
				},
				{
					"input":16,
					"interpolation":"LINEAR",
					"output":126
				},
				{
					"input":11,
					"interpolation":"STEP",
					"output":68
				},
				{
					"input":11,
					"interpolation":"STEP",
					"output":127
				},
				{
					"input":16,
					"interpolation":"LINEAR",
					"output":128
				},
				{
					"input":11,
					"interpolation":"STEP",
					"output":45
				},
				{
					"input":11,
					"interpolation":"STEP",
					"output":129
				},
				{
					"input":16,
					"interpolation":"LINEAR",
					"output":130
				},
				{
					"input":11,
					"interpolation":"STEP",
					"output":91
				},
				{
					"input":11,
					"interpolation":"STEP",
					"output":131
				},
				{
					"input":16,
					"interpolation":"LINEAR",
					"output":132
				},
				{
					"input":11,
					"interpolation":"STEP",
					"output":68
				}
			]
		}
	],
	"materials":[
		{
			"doubleSided":true,
			"name":"Goblin",
			"pbrMetallicRoughness":{
				"metallicFactor":0,
				"roughnessFactor":0.8500000238418579
			}
		}
	],
	"meshes":[
		{
			"name":"Rumpf",
			"primitives":[
				{
					"attributes":{
						"POSITION":0,
						"NORMAL":1,
						"COLOR_0":2,
						"JOINTS_0":3,
						"WEIGHTS_0":4
					},
					"indices":5,
					"material":0
				}
			]
		},
		{
			"name":"Hackmesser",
			"primitives":[
				{
					"attributes":{
						"POSITION":7,
						"NORMAL":8,
						"COLOR_0":9
					},
					"indices":10,
					"material":0
				}
			]
		}
	],
	"skins":[
		{
			"inverseBindMatrices":6,
			"joints":[
				18,
				11,
				10,
				2,
				1,
				0,
				5,
				4,
				3,
				9,
				8,
				7,
				14,
				13,
				12,
				17,
				16,
				15
			],
			"name":"GoblinSkelett"
		}
	],
	"accessors":[
		{
			"bufferView":0,
			"componentType":5126,
			"count":37266,
			"max":[
				0.32129570841789246,
				1.180879831314087,
				0.25994402170181274
			],
			"min":[
				-0.32129570841789246,
				-6.476364796981215e-05,
				-0.10982312262058258
			],
			"type":"VEC3"
		},
		{
			"bufferView":1,
			"componentType":5126,
			"count":37266,
			"type":"VEC3"
		},
		{
			"bufferView":2,
			"componentType":5126,
			"count":37266,
			"type":"VEC3"
		},
		{
			"bufferView":3,
			"componentType":5121,
			"count":37266,
			"type":"VEC4"
		},
		{
			"bufferView":4,
			"componentType":5126,
			"count":37266,
			"type":"VEC4"
		},
		{
			"bufferView":5,
			"componentType":5123,
			"count":44388,
			"type":"SCALAR"
		},
		{
			"bufferView":6,
			"componentType":5126,
			"count":18,
			"type":"MAT4"
		},
		{
			"bufferView":7,
			"componentType":5126,
			"count":272,
			"max":[
				-0.2329999953508377,
				0.493946373462677,
				0.34266197681427
			],
			"min":[
				-0.2669999897480011,
				0.02824721299111843,
				-0.03162030875682831
			],
			"type":"VEC3"
		},
		{
			"bufferView":8,
			"componentType":5126,
			"count":272,
			"type":"VEC3"
		},
		{
			"bufferView":9,
			"componentType":5126,
			"count":272,
			"type":"VEC3"
		},
		{
			"bufferView":10,
			"componentType":5123,
			"count":396,
			"type":"SCALAR"
		},
		{
			"bufferView":11,
			"componentType":5126,
			"count":2,
			"max":[
				1
			],
			"min":[
				0
			],
			"type":"SCALAR"
		},
		{
			"bufferView":12,
			"componentType":5126,
			"count":2,
			"type":"VEC3"
		},
		{
			"bufferView":13,
			"componentType":5126,
			"count":2,
			"type":"VEC4"
		},
		{
			"bufferView":14,
			"componentType":5126,
			"count":2,
			"type":"VEC3"
		},
		{
			"bufferView":15,
			"componentType":5126,
			"count":2,
			"type":"VEC3"
		},
		{
			"bufferView":16,
			"componentType":5126,
			"count":31,
			"max":[
				1
			],
			"min":[
				0
			],
			"type":"SCALAR"
		},
		{
			"bufferView":17,
			"componentType":5126,
			"count":31,
			"type":"VEC4"
		},
		{
			"bufferView":18,
			"componentType":5126,
			"count":2,
			"type":"VEC3"
		},
		{
			"bufferView":19,
			"componentType":5126,
			"count":31,
			"type":"VEC4"
		},
		{
			"bufferView":20,
			"componentType":5126,
			"count":2,
			"type":"VEC3"
		},
		{
			"bufferView":21,
			"componentType":5126,
			"count":2,
			"type":"VEC4"
		},
		{
			"bufferView":22,
			"componentType":5126,
			"count":2,
			"type":"VEC3"
		},
		{
			"bufferView":23,
			"componentType":5126,
			"count":2,
			"type":"VEC4"
		},
		{
			"bufferView":24,
			"componentType":5126,
			"count":2,
			"type":"VEC3"
		},
		{
			"bufferView":25,
			"componentType":5126,
			"count":2,
			"type":"VEC4"
		},
		{
			"bufferView":26,
			"componentType":5126,
			"count":2,
			"type":"VEC3"
		},
		{
			"bufferView":27,
			"componentType":5126,
			"count":2,
			"type":"VEC4"
		},
		{
			"bufferView":28,
			"componentType":5126,
			"count":2,
			"type":"VEC3"
		},
		{
			"bufferView":29,
			"componentType":5126,
			"count":2,
			"type":"VEC3"
		},
		{
			"bufferView":30,
			"componentType":5126,
			"count":2,
			"type":"VEC4"
		},
		{
			"bufferView":31,
			"componentType":5126,
			"count":2,
			"type":"VEC3"
		},
		{
			"bufferView":32,
			"componentType":5126,
			"count":2,
			"type":"VEC3"
		},
		{
			"bufferView":33,
			"componentType":5126,
			"count":2,
			"type":"VEC4"
		},
		{
			"bufferView":34,
			"componentType":5126,
			"count":2,
			"type":"VEC3"
		},
		{
			"bufferView":35,
			"componentType":5126,
			"count":2,
			"type":"VEC3"
		},
		{
			"bufferView":36,
			"componentType":5126,
			"count":31,
			"type":"VEC4"
		},
		{
			"bufferView":37,
			"componentType":5126,
			"count":2,
			"type":"VEC3"
		},
		{
			"bufferView":38,
			"componentType":5126,
			"count":31,
			"type":"VEC4"
		},
		{
			"bufferView":39,
			"componentType":5126,
			"count":2,
			"type":"VEC3"
		},
		{
			"bufferView":40,
			"componentType":5126,
			"count":2,
			"type":"VEC3"
		},
		{
			"bufferView":41,
			"componentType":5126,
			"count":2,
			"type":"VEC4"
		},
		{
			"bufferView":42,
			"componentType":5126,
			"count":2,
			"type":"VEC3"
		},
		{
			"bufferView":43,
			"componentType":5126,
			"count":2,
			"type":"VEC3"
		},
		{
			"bufferView":44,
			"componentType":5126,
			"count":31,
			"type":"VEC4"
		},
		{
			"bufferView":45,
			"componentType":5126,
			"count":2,
			"type":"VEC3"
		},
		{
			"bufferView":46,
			"componentType":5126,
			"count":2,
			"type":"VEC3"
		},
		{
			"bufferView":47,
			"componentType":5126,
			"count":31,
			"type":"VEC4"
		},
		{
			"bufferView":48,
			"componentType":5126,
			"count":2,
			"type":"VEC3"
		},
		{
			"bufferView":49,
			"componentType":5126,
			"count":2,
			"type":"VEC3"
		},
		{
			"bufferView":50,
			"componentType":5126,
			"count":2,
			"type":"VEC4"
		},
		{
			"bufferView":51,
			"componentType":5126,
			"count":2,
			"type":"VEC3"
		},
		{
			"bufferView":52,
			"componentType":5126,
			"count":2,
			"type":"VEC3"
		},
		{
			"bufferView":53,
			"componentType":5126,
			"count":31,
			"type":"VEC4"
		},
		{
			"bufferView":54,
			"componentType":5126,
			"count":2,
			"type":"VEC3"
		},
		{
			"bufferView":55,
			"componentType":5126,
			"count":2,
			"type":"VEC3"
		},
		{
			"bufferView":56,
			"componentType":5126,
			"count":31,
			"type":"VEC4"
		},
		{
			"bufferView":57,
			"componentType":5126,
			"count":2,
			"type":"VEC3"
		},
		{
			"bufferView":58,
			"componentType":5126,
			"count":2,
			"type":"VEC3"
		},
		{
			"bufferView":59,
			"componentType":5126,
			"count":2,
			"type":"VEC4"
		},
		{
			"bufferView":60,
			"componentType":5126,
			"count":2,
			"type":"VEC3"
		},
		{
			"bufferView":61,
			"componentType":5126,
			"count":181,
			"max":[
				6
			],
			"min":[
				0
			],
			"type":"SCALAR"
		},
		{
			"bufferView":62,
			"componentType":5126,
			"count":181,
			"type":"VEC3"
		},
		{
			"bufferView":63,
			"componentType":5126,
			"count":2,
			"max":[
				6
			],
			"min":[
				0
			],
			"type":"SCALAR"
		},
		{
			"bufferView":64,
			"componentType":5126,
			"count":181,
			"type":"VEC4"
		},
		{
			"bufferView":65,
			"componentType":5126,
			"count":181,
			"type":"VEC4"
		},
		{
			"bufferView":66,
			"componentType":5126,
			"count":181,
			"type":"VEC4"
		},
		{
			"bufferView":67,
			"componentType":5126,
			"count":2,
			"type":"VEC3"
		},
		{
			"bufferView":68,
			"componentType":5126,
			"count":2,
			"type":"VEC3"
		},
		{
			"bufferView":69,
			"componentType":5126,
			"count":181,
			"type":"VEC4"
		},
		{
			"bufferView":70,
			"componentType":5126,
			"count":2,
			"type":"VEC3"
		},
		{
			"bufferView":71,
			"componentType":5126,
			"count":2,
			"type":"VEC3"
		},
		{
			"bufferView":72,
			"componentType":5126,
			"count":2,
			"type":"VEC4"
		},
		{
			"bufferView":73,
			"componentType":5126,
			"count":2,
			"type":"VEC3"
		},
		{
			"bufferView":74,
			"componentType":5126,
			"count":2,
			"type":"VEC3"
		},
		{
			"bufferView":75,
			"componentType":5126,
			"count":2,
			"type":"VEC4"
		},
		{
			"bufferView":76,
			"componentType":5126,
			"count":2,
			"type":"VEC3"
		},
		{
			"bufferView":77,
			"componentType":5126,
			"count":2,
			"type":"VEC4"
		},
		{
			"bufferView":78,
			"componentType":5126,
			"count":2,
			"type":"VEC3"
		},
		{
			"bufferView":79,
			"componentType":5126,
			"count":2,
			"type":"VEC4"
		},
		{
			"bufferView":80,
			"componentType":5126,
			"count":2,
			"type":"VEC3"
		},
		{
			"bufferView":81,
			"componentType":5126,
			"count":2,
			"type":"VEC4"
		},
		{
			"bufferView":82,
			"componentType":5126,
			"count":2,
			"type":"VEC4"
		},
		{
			"bufferView":83,
			"componentType":5126,
			"count":2,
			"type":"VEC3"
		},
		{
			"bufferView":84,
			"componentType":5126,
			"count":2,
			"type":"VEC4"
		},
		{
			"bufferView":85,
			"componentType":5126,
			"count":2,
			"type":"VEC3"
		},
		{
			"bufferView":86,
			"componentType":5126,
			"count":2,
			"type":"VEC3"
		},
		{
			"bufferView":87,
			"componentType":5126,
			"count":2,
			"type":"VEC4"
		},
		{
			"bufferView":88,
			"componentType":5126,
			"count":2,
			"type":"VEC4"
		},
		{
			"bufferView":89,
			"componentType":5126,
			"count":2,
			"type":"VEC3"
		},
		{
			"bufferView":90,
			"componentType":5126,
			"count":2,
			"type":"VEC4"
		},
		{
			"bufferView":91,
			"componentType":5126,
			"count":2,
			"type":"VEC3"
		},
		{
			"bufferView":92,
			"componentType":5126,
			"count":2,
			"type":"VEC3"
		},
		{
			"bufferView":93,
			"componentType":5126,
			"count":2,
			"type":"VEC4"
		},
		{
			"bufferView":94,
			"componentType":5126,
			"count":2,
			"type":"VEC3"
		},
		{
			"bufferView":95,
			"componentType":5126,
			"count":31,
			"type":"VEC3"
		},
		{
			"bufferView":96,
			"componentType":5126,
			"count":31,
			"type":"VEC4"
		},
		{
			"bufferView":97,
			"componentType":5126,
			"count":2,
			"type":"VEC4"
		},
		{
			"bufferView":98,
			"componentType":5126,
			"count":2,
			"type":"VEC3"
		},
		{
			"bufferView":99,
			"componentType":5126,
			"count":31,
			"type":"VEC4"
		},
		{
			"bufferView":100,
			"componentType":5126,
			"count":2,
			"type":"VEC3"
		},
		{
			"bufferView":101,
			"componentType":5126,
			"count":2,
			"type":"VEC3"
		},
		{
			"bufferView":102,
			"componentType":5126,
			"count":31,
			"type":"VEC4"
		},
		{
			"bufferView":103,
			"componentType":5126,
			"count":2,
			"type":"VEC3"
		},
		{
			"bufferView":104,
			"componentType":5126,
			"count":31,
			"type":"VEC4"
		},
		{
			"bufferView":105,
			"componentType":5126,
			"count":2,
			"type":"VEC3"
		},
		{
			"bufferView":106,
			"componentType":5126,
			"count":2,
			"type":"VEC3"
		},
		{
			"bufferView":107,
			"componentType":5126,
			"count":31,
			"type":"VEC4"
		},
		{
			"bufferView":108,
			"componentType":5126,
			"count":2,
			"type":"VEC3"
		},
		{
			"bufferView":109,
			"componentType":5126,
			"count":2,
			"type":"VEC3"
		},
		{
			"bufferView":110,
			"componentType":5126,
			"count":2,
			"type":"VEC4"
		},
		{
			"bufferView":111,
			"componentType":5126,
			"count":2,
			"type":"VEC3"
		},
		{
			"bufferView":112,
			"componentType":5126,
			"count":2,
			"type":"VEC3"
		},
		{
			"bufferView":113,
			"componentType":5126,
			"count":2,
			"type":"VEC4"
		},
		{
			"bufferView":114,
			"componentType":5126,
			"count":2,
			"type":"VEC3"
		},
		{
			"bufferView":115,
			"componentType":5126,
			"count":2,
			"type":"VEC3"
		},
		{
			"bufferView":116,
			"componentType":5126,
			"count":31,
			"type":"VEC4"
		},
		{
			"bufferView":117,
			"componentType":5126,
			"count":2,
			"type":"VEC3"
		},
		{
			"bufferView":118,
			"componentType":5126,
			"count":2,
			"type":"VEC4"
		},
		{
			"bufferView":119,
			"componentType":5126,
			"count":2,
			"type":"VEC3"
		},
		{
			"bufferView":120,
			"componentType":5126,
			"count":2,
			"type":"VEC4"
		},
		{
			"bufferView":121,
			"componentType":5126,
			"count":2,
			"type":"VEC3"
		},
		{
			"bufferView":122,
			"componentType":5126,
			"count":31,
			"type":"VEC4"
		},
		{
			"bufferView":123,
			"componentType":5126,
			"count":2,
			"type":"VEC3"
		},
		{
			"bufferView":124,
			"componentType":5126,
			"count":31,
			"type":"VEC4"
		},
		{
			"bufferView":125,
			"componentType":5126,
			"count":2,
			"type":"VEC3"
		},
		{
			"bufferView":126,
			"componentType":5126,
			"count":31,
			"type":"VEC4"
		},
		{
			"bufferView":127,
			"componentType":5126,
			"count":2,
			"type":"VEC3"
		},
		{
			"bufferView":128,
			"componentType":5126,
			"count":31,
			"type":"VEC4"
		},
		{
			"bufferView":129,
			"componentType":5126,
			"count":2,
			"type":"VEC3"
		},
		{
			"bufferView":130,
			"componentType":5126,
			"count":31,
			"type":"VEC4"
		},
		{
			"bufferView":131,
			"componentType":5126,
			"count":2,
			"type":"VEC3"
		},
		{
			"bufferView":132,
			"componentType":5126,
			"count":31,
			"type":"VEC4"
		}
	],
	"bufferViews":[
		{
			"buffer":0,
			"byteLength":447192,
			"byteOffset":0,
			"target":34962
		},
		{
			"buffer":0,
			"byteLength":447192,
			"byteOffset":447192,
			"target":34962
		},
		{
			"buffer":0,
			"byteLength":447192,
			"byteOffset":894384,
			"target":34962
		},
		{
			"buffer":0,
			"byteLength":149064,
			"byteOffset":1341576,
			"target":34962
		},
		{
			"buffer":0,
			"byteLength":596256,
			"byteOffset":1490640,
			"target":34962
		},
		{
			"buffer":0,
			"byteLength":88776,
			"byteOffset":2086896,
			"target":34963
		},
		{
			"buffer":0,
			"byteLength":1152,
			"byteOffset":2175672
		},
		{
			"buffer":0,
			"byteLength":3264,
			"byteOffset":2176824,
			"target":34962
		},
		{
			"buffer":0,
			"byteLength":3264,
			"byteOffset":2180088,
			"target":34962
		},
		{
			"buffer":0,
			"byteLength":3264,
			"byteOffset":2183352,
			"target":34962
		},
		{
			"buffer":0,
			"byteLength":792,
			"byteOffset":2186616,
			"target":34963
		},
		{
			"buffer":0,
			"byteLength":8,
			"byteOffset":2187408
		},
		{
			"buffer":0,
			"byteLength":24,
			"byteOffset":2187416
		},
		{
			"buffer":0,
			"byteLength":32,
			"byteOffset":2187440
		},
		{
			"buffer":0,
			"byteLength":24,
			"byteOffset":2187472
		},
		{
			"buffer":0,
			"byteLength":24,
			"byteOffset":2187496
		},
		{
			"buffer":0,
			"byteLength":124,
			"byteOffset":2187520
		},
		{
			"buffer":0,
			"byteLength":496,
			"byteOffset":2187644
		},
		{
			"buffer":0,
			"byteLength":24,
			"byteOffset":2188140
		},
		{
			"buffer":0,
			"byteLength":496,
			"byteOffset":2188164
		},
		{
			"buffer":0,
			"byteLength":24,
			"byteOffset":2188660
		},
		{
			"buffer":0,
			"byteLength":32,
			"byteOffset":2188684
		},
		{
			"buffer":0,
			"byteLength":24,
			"byteOffset":2188716
		},
		{
			"buffer":0,
			"byteLength":32,
			"byteOffset":2188740
		},
		{
			"buffer":0,
			"byteLength":24,
			"byteOffset":2188772
		},
		{
			"buffer":0,
			"byteLength":32,
			"byteOffset":2188796
		},
		{
			"buffer":0,
			"byteLength":24,
			"byteOffset":2188828
		},
		{
			"buffer":0,
			"byteLength":32,
			"byteOffset":2188852
		},
		{
			"buffer":0,
			"byteLength":24,
			"byteOffset":2188884
		},
		{
			"buffer":0,
			"byteLength":24,
			"byteOffset":2188908
		},
		{
			"buffer":0,
			"byteLength":32,
			"byteOffset":2188932
		},
		{
			"buffer":0,
			"byteLength":24,
			"byteOffset":2188964
		},
		{
			"buffer":0,
			"byteLength":24,
			"byteOffset":2188988
		},
		{
			"buffer":0,
			"byteLength":32,
			"byteOffset":2189012
		},
		{
			"buffer":0,
			"byteLength":24,
			"byteOffset":2189044
		},
		{
			"buffer":0,
			"byteLength":24,
			"byteOffset":2189068
		},
		{
			"buffer":0,
			"byteLength":496,
			"byteOffset":2189092
		},
		{
			"buffer":0,
			"byteLength":24,
			"byteOffset":2189588
		},
		{
			"buffer":0,
			"byteLength":496,
			"byteOffset":2189612
		},
		{
			"buffer":0,
			"byteLength":24,
			"byteOffset":2190108
		},
		{
			"buffer":0,
			"byteLength":24,
			"byteOffset":2190132
		},
		{
			"buffer":0,
			"byteLength":32,
			"byteOffset":2190156
		},
		{
			"buffer":0,
			"byteLength":24,
			"byteOffset":2190188
		},
		{
			"buffer":0,
			"byteLength":24,
			"byteOffset":2190212
		},
		{
			"buffer":0,
			"byteLength":496,
			"byteOffset":2190236
		},
		{
			"buffer":0,
			"byteLength":24,
			"byteOffset":2190732
		},
		{
			"buffer":0,
			"byteLength":24,
			"byteOffset":2190756
		},
		{
			"buffer":0,
			"byteLength":496,
			"byteOffset":2190780
		},
		{
			"buffer":0,
			"byteLength":24,
			"byteOffset":2191276
		},
		{
			"buffer":0,
			"byteLength":24,
			"byteOffset":2191300
		},
		{
			"buffer":0,
			"byteLength":32,
			"byteOffset":2191324
		},
		{
			"buffer":0,
			"byteLength":24,
			"byteOffset":2191356
		},
		{
			"buffer":0,
			"byteLength":24,
			"byteOffset":2191380
		},
		{
			"buffer":0,
			"byteLength":496,
			"byteOffset":2191404
		},
		{
			"buffer":0,
			"byteLength":24,
			"byteOffset":2191900
		},
		{
			"buffer":0,
			"byteLength":24,
			"byteOffset":2191924
		},
		{
			"buffer":0,
			"byteLength":496,
			"byteOffset":2191948
		},
		{
			"buffer":0,
			"byteLength":24,
			"byteOffset":2192444
		},
		{
			"buffer":0,
			"byteLength":24,
			"byteOffset":2192468
		},
		{
			"buffer":0,
			"byteLength":32,
			"byteOffset":2192492
		},
		{
			"buffer":0,
			"byteLength":24,
			"byteOffset":2192524
		},
		{
			"buffer":0,
			"byteLength":724,
			"byteOffset":2192548
		},
		{
			"buffer":0,
			"byteLength":2172,
			"byteOffset":2193272
		},
		{
			"buffer":0,
			"byteLength":8,
			"byteOffset":2195444
		},
		{
			"buffer":0,
			"byteLength":2896,
			"byteOffset":2195452
		},
		{
			"buffer":0,
			"byteLength":2896,
			"byteOffset":2198348
		},
		{
			"buffer":0,
			"byteLength":2896,
			"byteOffset":2201244
		},
		{
			"buffer":0,
			"byteLength":24,
			"byteOffset":2204140
		},
		{
			"buffer":0,
			"byteLength":24,
			"byteOffset":2204164
		},
		{
			"buffer":0,
			"byteLength":2896,
			"byteOffset":2204188
		},
		{
			"buffer":0,
			"byteLength":24,
			"byteOffset":2207084
		},
		{
			"buffer":0,
			"byteLength":24,
			"byteOffset":2207108
		},
		{
			"buffer":0,
			"byteLength":32,
			"byteOffset":2207132
		},
		{
			"buffer":0,
			"byteLength":24,
			"byteOffset":2207164
		},
		{
			"buffer":0,
			"byteLength":24,
			"byteOffset":2207188
		},
		{
			"buffer":0,
			"byteLength":32,
			"byteOffset":2207212
		},
		{
			"buffer":0,
			"byteLength":24,
			"byteOffset":2207244
		},
		{
			"buffer":0,
			"byteLength":32,
			"byteOffset":2207268
		},
		{
			"buffer":0,
			"byteLength":24,
			"byteOffset":2207300
		},
		{
			"buffer":0,
			"byteLength":32,
			"byteOffset":2207324
		},
		{
			"buffer":0,
			"byteLength":24,
			"byteOffset":2207356
		},
		{
			"buffer":0,
			"byteLength":32,
			"byteOffset":2207380
		},
		{
			"buffer":0,
			"byteLength":32,
			"byteOffset":2207412
		},
		{
			"buffer":0,
			"byteLength":24,
			"byteOffset":2207444
		},
		{
			"buffer":0,
			"byteLength":32,
			"byteOffset":2207468
		},
		{
			"buffer":0,
			"byteLength":24,
			"byteOffset":2207500
		},
		{
			"buffer":0,
			"byteLength":24,
			"byteOffset":2207524
		},
		{
			"buffer":0,
			"byteLength":32,
			"byteOffset":2207548
		},
		{
			"buffer":0,
			"byteLength":32,
			"byteOffset":2207580
		},
		{
			"buffer":0,
			"byteLength":24,
			"byteOffset":2207612
		},
		{
			"buffer":0,
			"byteLength":32,
			"byteOffset":2207636
		},
		{
			"buffer":0,
			"byteLength":24,
			"byteOffset":2207668
		},
		{
			"buffer":0,
			"byteLength":24,
			"byteOffset":2207692
		},
		{
			"buffer":0,
			"byteLength":32,
			"byteOffset":2207716
		},
		{
			"buffer":0,
			"byteLength":24,
			"byteOffset":2207748
		},
		{
			"buffer":0,
			"byteLength":372,
			"byteOffset":2207772
		},
		{
			"buffer":0,
			"byteLength":496,
			"byteOffset":2208144
		},
		{
			"buffer":0,
			"byteLength":32,
			"byteOffset":2208640
		},
		{
			"buffer":0,
			"byteLength":24,
			"byteOffset":2208672
		},
		{
			"buffer":0,
			"byteLength":496,
			"byteOffset":2208696
		},
		{
			"buffer":0,
			"byteLength":24,
			"byteOffset":2209192
		},
		{
			"buffer":0,
			"byteLength":24,
			"byteOffset":2209216
		},
		{
			"buffer":0,
			"byteLength":496,
			"byteOffset":2209240
		},
		{
			"buffer":0,
			"byteLength":24,
			"byteOffset":2209736
		},
		{
			"buffer":0,
			"byteLength":496,
			"byteOffset":2209760
		},
		{
			"buffer":0,
			"byteLength":24,
			"byteOffset":2210256
		},
		{
			"buffer":0,
			"byteLength":24,
			"byteOffset":2210280
		},
		{
			"buffer":0,
			"byteLength":496,
			"byteOffset":2210304
		},
		{
			"buffer":0,
			"byteLength":24,
			"byteOffset":2210800
		},
		{
			"buffer":0,
			"byteLength":24,
			"byteOffset":2210824
		},
		{
			"buffer":0,
			"byteLength":32,
			"byteOffset":2210848
		},
		{
			"buffer":0,
			"byteLength":24,
			"byteOffset":2210880
		},
		{
			"buffer":0,
			"byteLength":24,
			"byteOffset":2210904
		},
		{
			"buffer":0,
			"byteLength":32,
			"byteOffset":2210928
		},
		{
			"buffer":0,
			"byteLength":24,
			"byteOffset":2210960
		},
		{
			"buffer":0,
			"byteLength":24,
			"byteOffset":2210984
		},
		{
			"buffer":0,
			"byteLength":496,
			"byteOffset":2211008
		},
		{
			"buffer":0,
			"byteLength":24,
			"byteOffset":2211504
		},
		{
			"buffer":0,
			"byteLength":32,
			"byteOffset":2211528
		},
		{
			"buffer":0,
			"byteLength":24,
			"byteOffset":2211560
		},
		{
			"buffer":0,
			"byteLength":32,
			"byteOffset":2211584
		},
		{
			"buffer":0,
			"byteLength":24,
			"byteOffset":2211616
		},
		{
			"buffer":0,
			"byteLength":496,
			"byteOffset":2211640
		},
		{
			"buffer":0,
			"byteLength":24,
			"byteOffset":2212136
		},
		{
			"buffer":0,
			"byteLength":496,
			"byteOffset":2212160
		},
		{
			"buffer":0,
			"byteLength":24,
			"byteOffset":2212656
		},
		{
			"buffer":0,
			"byteLength":496,
			"byteOffset":2212680
		},
		{
			"buffer":0,
			"byteLength":24,
			"byteOffset":2213176
		},
		{
			"buffer":0,
			"byteLength":496,
			"byteOffset":2213200
		},
		{
			"buffer":0,
			"byteLength":24,
			"byteOffset":2213696
		},
		{
			"buffer":0,
			"byteLength":496,
			"byteOffset":2213720
		},
		{
			"buffer":0,
			"byteLength":24,
			"byteOffset":2214216
		},
		{
			"buffer":0,
			"byteLength":496,
			"byteOffset":2214240
		}
	],
	"buffers":[
		{
			"byteLength":2214736,
			"uri":"goblin.bin"
		}
	]
}
