{
	"asset":{
		"generator":"Khronos glTF Blender I/O v5.2.40",
		"version":"2.0"
	},
	"scene":0,
	"scenes":[
		{
			"name":"Scene",
			"nodes":[
				19
			]
		}
	],
	"nodes":[
		{
			"name":"Hut",
			"rotation":[
				-0.5646035075187683,
				2.0283800949982833e-07,
				-1.3875485649350594e-07,
				0.8253622651100159
			],
			"scale":[
				1,
				1.0000001192092896,
				1
			],
			"translation":[
				0,
				0.33000004291534424,
				-0.019999999552965164
			]
		},
		{
			"children":[
				0
			],
			"name":"Kopf",
			"translation":[
				0,
				0.09000003337860107,
				0
			]
		},
		{
			"children":[
				1
			],
			"name":"Hals",
			"translation":[
				0,
				0.25999999046325684,
				0
			]
		},
		{
			"name":"Hand.L",
			"rotation":[
				-0.02993539348244667,
				-0.0012853139778599143,
				0.008676200173795223,
				0.9995133876800537
			],
			"scale":[
				1,
				0.9999998807907104,
				1
			],
			"translation":[
				-2.9709189774962397e-08,
				0.2567099928855896,
				-2.7939677238464355e-09
			]
		},
		{
			"children":[
				3
			],
			"name":"Unterarm.L",
			"rotation":[
				-0.09223336726427078,
				-0.0013973830500617623,
				0.056753627955913544,
				0.9941177368164062
			],
			"scale":[
				1,
				0.9999999403953552,
				1
			],
			"translation":[
				-6.705523913907996e-10,
				0.2947879731655121,
				-4.656612873077393e-10
			]
		},
		{
			"children":[
				4
			],
			"name":"Oberarm.L",
			"rotation":[
				-0.9873651266098022,
				-0.15478397905826569,
				0.0052567459642887115,
				0.03353271260857582
			],
			"scale":[
				0.9999997615814209,
				0.9999998211860657,
				1
			],
			"translation":[
				0.20000000298023224,
				0.20000004768371582,
				0
			]
		},
		{
			"name":"Hand.R",
			"rotation":[
				-0.02993539348244667,
				0.0012853139778599143,
				-0.008676200173795223,
				0.9995133876800537
			],
			"scale":[
				1,
				0.9999998807907104,
				1
			],
			"translation":[
				2.9709189774962397e-08,
				0.2567099928855896,
				-2.7939677238464355e-09
			]
		},
		{
			"children":[
				6
			],
			"name":"Unterarm.R",
			"rotation":[
				-0.09223336726427078,
				0.0013973830500617623,
				-0.056753627955913544,
				0.9941177368164062
			],
			"scale":[
				1,
				0.9999999403953552,
				1
			],
			"translation":[
				6.705523913907996e-10,
				0.2947879731655121,
				-4.656612873077393e-10
			]
		},
		{
			"children":[
				7
			],
			"name":"Oberarm.R",
			"rotation":[
				-0.9873651266098022,
				0.15478397905826569,
				-0.0052567459642887115,
				0.03353271260857582
			],
			"scale":[
				0.9999997615814209,
				0.9999998211860657,
				1
			],
			"translation":[
				-0.20000000298023224,
				0.20000004768371582,
				0
			]
		},
		{
			"children":[
				2,
				5,
				8
			],
			"name":"Brust",
			"translation":[
				0,
				0.19999992847442627,
				0
			]
		},
		{
			"children":[
				9
			],
			"name":"Bauch",
			"translation":[
				0,
				0.15000003576278687,
				0
			]
		},
		{
			"name":"Fuss.L",
			"rotation":[
				1.1095015572948341e-08,
				0.8304529190063477,
				-0.5570888519287109,
				6.26974596684704e-08
			],
			"scale":[
				1,
				0.9999998807907104,
				0.9999998807907104
			],
			"translation":[
				-2.35995756270313e-09,
				0.42047592997550964,
				1.1594929461011816e-09
			]
		},
		{
			"children":[
				11
			],
			"name":"Unterschenkel.L",
			"rotation":[
				0.023789310827851295,
				9.13925006784666e-08,
				9.505255610386953e-11,
				0.9997169971466064
			],
			"scale":[
				1,
				0.9999999403953552,
				1
			],
			"translation":[
				0,
				0.4300000071525574,
				0
			]
		},
		{
			"children":[
				12
			],
			"name":"Oberschenkel.L",
			"rotation":[
				1,
				0,
				-4.371138828673793e-08,
				0
			],
			"translation":[
				0.10000000149011612,
				0,
				0
			]
		},
		{
			"name":"Fuss.R",
			"rotation":[
				1.1095015572948341e-08,
				0.8304529190063477,
				-0.5570888519287109,
				6.26974596684704e-08
			],
			"scale":[
				1,
				0.9999998807907104,
				0.9999998807907104
			],
			"translation":[
				-2.35995756270313e-09,
				0.42047592997550964,
				7.031522031297754e-10
			]
		},
		{
			"children":[
				14
			],
			"name":"Unterschenkel.R",
			"rotation":[
				0.023789310827851295,
				9.13925006784666e-08,
				9.505255610386953e-11,
				0.9997169971466064
			],
			"scale":[
				1,
				0.9999999403953552,
				1
			],
			"translation":[
				0,
				0.4300000071525574,
				0
			]
		},
		{
			"children":[
				15
			],
			"name":"Oberschenkel.R",
			"rotation":[
				1,
				0,
				-4.371138828673793e-08,
				0
			],
			"translation":[
				-0.10000000149011612,
				0,
				0
			]
		},
		{
			"children":[
				10,
				13,
				16
			],
			"name":"Becken",
			"translation":[
				0,
				0.949999988079071,
				0
			]
		},
		{
			"mesh":0,
			"name":"Harpyie",
			"skin":0
		},
		{
			"children":[
				18,
				17
			],
			"name":"HarpyieSkelett"
		}
	],
	"animations":[
		{
			"channels":[
				{
					"sampler":0,
					"target":{
						"node":17,
						"path":"translation"
					}
				},
				{
					"sampler":1,
					"target":{
						"node":17,
						"path":"rotation"
					}
				},
				{
					"sampler":2,
					"target":{
						"node":17,
						"path":"scale"
					}
				},
				{
					"sampler":3,
					"target":{
						"node":10,
						"path":"translation"
					}
				},
				{
					"sampler":4,
					"target":{
						"node":10,
						"path":"rotation"
					}
				},
				{
					"sampler":5,
					"target":{
						"node":10,
						"path":"scale"
					}
				},
				{
					"sampler":6,
					"target":{
						"node":9,
						"path":"translation"
					}
				},
				{
					"sampler":7,
					"target":{
						"node":9,
						"path":"rotation"
					}
				},
				{
					"sampler":8,
					"target":{
						"node":9,
						"path":"scale"
					}
				},
				{
					"sampler":9,
					"target":{
						"node":2,
						"path":"translation"
					}
				},
				{
					"sampler":10,
					"target":{
						"node":2,
						"path":"rotation"
					}
				},
				{
					"sampler":11,
					"target":{
						"node":2,
						"path":"scale"
					}
				},
				{
					"sampler":12,
					"target":{
						"node":1,
						"path":"translation"
					}
				},
				{
					"sampler":13,
					"target":{
						"node":1,
						"path":"rotation"
					}
				},
				{
					"sampler":14,
					"target":{
						"node":1,
						"path":"scale"
					}
				},
				{
					"sampler":15,
					"target":{
						"node":0,
						"path":"translation"
					}
				},
				{
					"sampler":16,
					"target":{
						"node":0,
						"path":"rotation"
					}
				},
				{
					"sampler":17,
					"target":{
						"node":0,
						"path":"scale"
					}
				},
				{
					"sampler":18,
					"target":{
						"node":5,
						"path":"translation"
					}
				},
				{
					"sampler":19,
					"target":{
						"node":5,
						"path":"rotation"
					}
				},
				{
					"sampler":20,
					"target":{
						"node":5,
						"path":"scale"
					}
				},
				{
					"sampler":21,
					"target":{
						"node":4,
						"path":"translation"
					}
				},
				{
					"sampler":22,
					"target":{
						"node":4,
						"path":"rotation"
					}
				},
				{
					"sampler":23,
					"target":{
						"node":4,
						"path":"scale"
					}
				},
				{
					"sampler":24,
					"target":{
						"node":3,
						"path":"translation"
					}
				},
				{
					"sampler":25,
					"target":{
						"node":3,
						"path":"rotation"
					}
				},
				{
					"sampler":26,
					"target":{
						"node":3,
						"path":"scale"
					}
				},
				{
					"sampler":27,
					"target":{
						"node":8,
						"path":"translation"
					}
				},
				{
					"sampler":28,
					"target":{
						"node":8,
						"path":"rotation"
					}
				},
				{
					"sampler":29,
					"target":{
						"node":8,
						"path":"scale"
					}
				},
				{
					"sampler":30,
					"target":{
						"node":7,
						"path":"translation"
					}
				},
				{
					"sampler":31,
					"target":{
						"node":7,
						"path":"rotation"
					}
				},
				{
					"sampler":32,
					"target":{
						"node":7,
						"path":"scale"
					}
				},
				{
					"sampler":33,
					"target":{
						"node":6,
						"path":"translation"
					}
				},
				{
					"sampler":34,
					"target":{
						"node":6,
						"path":"rotation"
					}
				},
				{
					"sampler":35,
					"target":{
						"node":6,
						"path":"scale"
					}
				},
				{
					"sampler":36,
					"target":{
						"node":13,
						"path":"translation"
					}
				},
				{
					"sampler":37,
					"target":{
						"node":13,
						"path":"rotation"
					}
				},
				{
					"sampler":38,
					"target":{
						"node":13,
						"path":"scale"
					}
				},
				{
					"sampler":39,
					"target":{
						"node":12,
						"path":"translation"
					}
				},
				{
					"sampler":40,
					"target":{
						"node":12,
						"path":"rotation"
					}
				},
				{
					"sampler":41,
					"target":{
						"node":12,
						"path":"scale"
					}
				},
				{
					"sampler":42,
					"target":{
						"node":11,
						"path":"translation"
					}
				},
				{
					"sampler":43,
					"target":{
						"node":11,
						"path":"rotation"
					}
				},
				{
					"sampler":44,
					"target":{
						"node":11,
						"path":"scale"
					}
				},
				{
					"sampler":45,
					"target":{
						"node":16,
						"path":"translation"
					}
				},
				{
					"sampler":46,
					"target":{
						"node":16,
						"path":"rotation"
					}
				},
				{
					"sampler":47,
					"target":{
						"node":16,
						"path":"scale"
					}
				},
				{
					"sampler":48,
					"target":{
						"node":15,
						"path":"translation"
					}
				},
				{
					"sampler":49,
					"target":{
						"node":15,
						"path":"rotation"
					}
				},
				{
					"sampler":50,
					"target":{
						"node":15,
						"path":"scale"
					}
				},
				{
					"sampler":51,
					"target":{
						"node":14,
						"path":"translation"
					}
				},
				{
					"sampler":52,
					"target":{
						"node":14,
						"path":"rotation"
					}
				},
				{
					"sampler":53,
					"target":{
						"node":14,
						"path":"scale"
					}
				}
			],
			"name":"Angriff",
			"samplers":[
				{
					"input":7,
					"interpolation":"STEP",
					"output":8
				},
				{
					"input":7,
					"interpolation":"STEP",
					"output":9
				},
				{
					"input":7,
					"interpolation":"STEP",
					"output":10
				},
				{
					"input":7,
					"interpolation":"STEP",
					"output":11
				},
				{
					"input":12,
					"interpolation":"LINEAR",
					"output":13
				},
				{
					"input":7,
					"interpolation":"STEP",
					"output":10
				},
				{
					"input":7,
					"interpolation":"STEP",
					"output":14
				},
				{
					"input":12,
					"interpolation":"LINEAR",
					"output":15
				},
				{
					"input":7,
					"interpolation":"STEP",
					"output":10
				},
				{
					"input":7,
					"interpolation":"STEP",
					"output":16
				},
				{
					"input":7,
					"interpolation":"STEP",
					"output":9
				},
				{
					"input":7,
					"interpolation":"STEP",
					"output":10
				},
				{
					"input":7,
					"interpolation":"STEP",
					"output":17
				},
				{
					"input":12,
					"interpolation":"LINEAR",
					"output":18
				},
				{
					"input":7,
					"interpolation":"STEP",
					"output":19
				},
				{
					"input":7,
					"interpolation":"STEP",
					"output":20
				},
				{
					"input":7,
					"interpolation":"STEP",
					"output":21
				},
				{
					"input":7,
					"interpolation":"STEP",
					"output":22
				},
				{
					"input":7,
					"interpolation":"STEP",
					"output":23
				},
				{
					"input":12,
					"interpolation":"LINEAR",
					"output":24
				},
				{
					"input":7,
					"interpolation":"STEP",
					"output":25
				},
				{
					"input":7,
					"interpolation":"STEP",
					"output":26
				},
				{
					"input":7,
					"interpolation":"STEP",
					"output":27
				},
				{
					"input":7,
					"interpolation":"STEP",
					"output":28
				},
				{
					"input":7,
					"interpolation":"STEP",
					"output":29
				},
				{
					"input":7,
					"interpolation":"STEP",
					"output":30
				},
				{
					"input":7,
					"interpolation":"STEP",
					"output":31
				},
				{
					"input":7,
					"interpolation":"STEP",
					"output":32
				},
				{
					"input":12,
					"interpolation":"LINEAR",
					"output":33
				},
				{
					"input":7,
					"interpolation":"STEP",
					"output":25
				},
				{
					"input":7,
					"interpolation":"STEP",
					"output":34
				},
				{
					"input":7,
					"interpolation":"STEP",
					"output":35
				},
				{
					"input":7,
					"interpolation":"STEP",
					"output":28
				},
				{
					"input":7,
					"interpolation":"STEP",
					"output":36
				},
				{
					"input":7,
					"interpolation":"STEP",
					"output":37
				},
				{
					"input":7,
					"interpolation":"STEP",
					"output":31
				},
				{
					"input":7,
					"interpolation":"STEP",
					"output":38
				},
				{
					"input":12,
					"interpolation":"LINEAR",
					"output":39
				},
				{
					"input":7,
					"interpolation":"STEP",
					"output":40
				},
				{
					"input":7,
					"interpolation":"STEP",
					"output":41
				},
				{
					"input":12,
					"interpolation":"LINEAR",
					"output":42
				},
				{
					"input":7,
					"interpolation":"STEP",
					"output":43
				},
				{
					"input":7,
					"interpolation":"STEP",
					"output":44
				},
				{
					"input":7,
					"interpolation":"STEP",
					"output":45
				},
				{
					"input":7,
					"interpolation":"STEP",
					"output":46
				},
				{
					"input":7,
					"interpolation":"STEP",
					"output":47
				},
				{
					"input":12,
					"interpolation":"LINEAR",
					"output":48
				},
				{
					"input":7,
					"interpolation":"STEP",
					"output":40
				},
				{
					"input":7,
					"interpolation":"STEP",
					"output":49
				},
				{
					"input":12,
					"interpolation":"LINEAR",
					"output":50
				},
				{
					"input":7,
					"interpolation":"STEP",
					"output":46
				},
				{
					"input":7,
					"interpolation":"STEP",
					"output":51
				},
				{
					"input":7,
					"interpolation":"STEP",
					"output":52
				},
				{
					"input":7,
					"interpolation":"STEP",
					"output":31
				}
			]
		},
		{
			"channels":[
				{
					"sampler":0,
					"target":{
						"node":17,
						"path":"translation"
					}
				},
				{
					"sampler":1,
					"target":{
						"node":17,
						"path":"rotation"
					}
				},
				{
					"sampler":2,
					"target":{
						"node":17,
						"path":"scale"
					}
				},
				{
					"sampler":3,
					"target":{
						"node":10,
						"path":"translation"
					}
				},
				{
					"sampler":4,
					"target":{
						"node":10,
						"path":"rotation"
					}
				},
				{
					"sampler":5,
					"target":{
						"node":10,
						"path":"scale"
					}
				},
				{
					"sampler":6,
					"target":{
						"node":9,
						"path":"translation"
					}
				},
				{
					"sampler":7,
					"target":{
						"node":9,
						"path":"rotation"
					}
				},
				{
					"sampler":8,
					"target":{
						"node":9,
						"path":"scale"
					}
				},
				{
					"sampler":9,
					"target":{
						"node":2,
						"path":"translation"
					}
				},
				{
					"sampler":10,
					"target":{
						"node":2,
						"path":"rotation"
					}
				},
				{
					"sampler":11,
					"target":{
						"node":2,
						"path":"scale"
					}
				},
				{
					"sampler":12,
					"target":{
						"node":1,
						"path":"translation"
					}
				},
				{
					"sampler":13,
					"target":{
						"node":1,
						"path":"rotation"
					}
				},
				{
					"sampler":14,
					"target":{
						"node":1,
						"path":"scale"
					}
				},
				{
					"sampler":15,
					"target":{
						"node":0,
						"path":"translation"
					}
				},
				{
					"sampler":16,
					"target":{
						"node":0,
						"path":"rotation"
					}
				},
				{
					"sampler":17,
					"target":{
						"node":0,
						"path":"scale"
					}
				},
				{
					"sampler":18,
					"target":{
						"node":5,
						"path":"translation"
					}
				},
				{
					"sampler":19,
					"target":{
						"node":5,
						"path":"rotation"
					}
				},
				{
					"sampler":20,
					"target":{
						"node":5,
						"path":"scale"
					}
				},
				{
					"sampler":21,
					"target":{
						"node":4,
						"path":"translation"
					}
				},
				{
					"sampler":22,
					"target":{
						"node":4,
						"path":"rotation"
					}
				},
				{
					"sampler":23,
					"target":{
						"node":4,
						"path":"scale"
					}
				},
				{
					"sampler":24,
					"target":{
						"node":3,
						"path":"translation"
					}
				},
				{
					"sampler":25,
					"target":{
						"node":3,
						"path":"rotation"
					}
				},
				{
					"sampler":26,
					"target":{
						"node":3,
						"path":"scale"
					}
				},
				{
					"sampler":27,
					"target":{
						"node":8,
						"path":"translation"
					}
				},
				{
					"sampler":28,
					"target":{
						"node":8,
						"path":"rotation"
					}
				},
				{
					"sampler":29,
					"target":{
						"node":8,
						"path":"scale"
					}
				},
				{
					"sampler":30,
					"target":{
						"node":7,
						"path":"translation"
					}
				},
				{
					"sampler":31,
					"target":{
						"node":7,
						"path":"rotation"
					}
				},
				{
					"sampler":32,
					"target":{
						"node":7,
						"path":"scale"
					}
				},
				{
					"sampler":33,
					"target":{
						"node":6,
						"path":"translation"
					}
				},
				{
					"sampler":34,
					"target":{
						"node":6,
						"path":"rotation"
					}
				},
				{
					"sampler":35,
					"target":{
						"node":6,
						"path":"scale"
					}
				},
				{
					"sampler":36,
					"target":{
						"node":13,
						"path":"translation"
					}
				},
				{
					"sampler":37,
					"target":{
						"node":13,
						"path":"rotation"
					}
				},
				{
					"sampler":38,
					"target":{
						"node":13,
						"path":"scale"
					}
				},
				{
					"sampler":39,
					"target":{
						"node":12,
						"path":"translation"
					}
				},
				{
					"sampler":40,
					"target":{
						"node":12,
						"path":"rotation"
					}
				},
				{
					"sampler":41,
					"target":{
						"node":12,
						"path":"scale"
					}
				},
				{
					"sampler":42,
					"target":{
						"node":11,
						"path":"translation"
					}
				},
				{
					"sampler":43,
					"target":{
						"node":11,
						"path":"rotation"
					}
				},
				{
					"sampler":44,
					"target":{
						"node":11,
						"path":"scale"
					}
				},
				{
					"sampler":45,
					"target":{
						"node":16,
						"path":"translation"
					}
				},
				{
					"sampler":46,
					"target":{
						"node":16,
						"path":"rotation"
					}
				},
				{
					"sampler":47,
					"target":{
						"node":16,
						"path":"scale"
					}
				},
				{
					"sampler":48,
					"target":{
						"node":15,
						"path":"translation"
					}
				},
				{
					"sampler":49,
					"target":{
						"node":15,
						"path":"rotation"
					}
				},
				{
					"sampler":50,
					"target":{
						"node":15,
						"path":"scale"
					}
				},
				{
					"sampler":51,
					"target":{
						"node":14,
						"path":"translation"
					}
				},
				{
					"sampler":52,
					"target":{
						"node":14,
						"path":"rotation"
					}
				},
				{
					"sampler":53,
					"target":{
						"node":14,
						"path":"scale"
					}
				}
			],
			"name":"Idle",
			"samplers":[
				{
					"input":53,
					"interpolation":"LINEAR",
					"output":54
				},
				{
					"input":55,
					"interpolation":"STEP",
					"output":9
				},
				{
					"input":55,
					"interpolation":"STEP",
					"output":10
				},
				{
					"input":55,
					"interpolation":"STEP",
					"output":11
				},
				{
					"input":55,
					"interpolation":"STEP",
					"output":9
				},
				{
					"input":55,
					"interpolation":"STEP",
					"output":10
				},
				{
					"input":55,
					"interpolation":"STEP",
					"output":56
				},
				{
					"input":53,
					"interpolation":"LINEAR",
					"output":57
				},
				{
					"input":55,
					"interpolation":"STEP",
					"output":10
				},
				{
					"input":55,
					"interpolation":"STEP",
					"output":58
				},
				{
					"input":55,
					"interpolation":"STEP",
					"output":9
				},
				{
					"input":55,
					"interpolation":"STEP",
					"output":10
				},
				{
					"input":55,
					"interpolation":"STEP",
					"output":59
				},
				{
					"input":53,
					"interpolation":"LINEAR",
					"output":60
				},
				{
					"input":55,
					"interpolation":"STEP",
					"output":10
				},
				{
					"input":55,
					"interpolation":"STEP",
					"output":61
				},
				{
					"input":55,
					"interpolation":"STEP",
					"output":21
				},
				{
					"input":55,
					"interpolation":"STEP",
					"output":22
				},
				{
					"input":55,
					"interpolation":"STEP",
					"output":62
				},
				{
					"input":53,
					"interpolation":"LINEAR",
					"output":63
				},
				{
					"input":55,
					"interpolation":"STEP",
					"output":64
				},
				{
					"input":55,
					"interpolation":"STEP",
					"output":65
				},
				{
					"input":53,
					"interpolation":"LINEAR",
					"output":66
				},
				{
					"input":55,
					"interpolation":"STEP",
					"output":10
				},
				{
					"input":55,
					"interpolation":"STEP",
					"output":67
				},
				{
					"input":55,
					"interpolation":"STEP",
					"output":68
				},
				{
					"input":55,
					"interpolation":"STEP",
					"output":69
				},
				{
					"input":55,
					"interpolation":"STEP",
					"output":70
				},
				{
					"input":53,
					"interpolation":"LINEAR",
					"output":71
				},
				{
					"input":55,
					"interpolation":"STEP",
					"output":64
				},
				{
					"input":55,
					"interpolation":"STEP",
					"output":72
				},
				{
					"input":53,
					"interpolation":"LINEAR",
					"output":73
				},
				{
					"input":55,
					"interpolation":"STEP",
					"output":10
				},
				{
					"input":55,
					"interpolation":"STEP",
					"output":74
				},
				{
					"input":55,
					"interpolation":"STEP",
					"output":75
				},
				{
					"input":55,
					"interpolation":"STEP",
					"output":69
				},
				{
					"input":55,
					"interpolation":"STEP",
					"output":76
				},
				{
					"input":55,
					"interpolation":"STEP",
					"output":77
				},
				{
					"input":55,
					"interpolation":"STEP",
					"output":40
				},
				{
					"input":55,
					"interpolation":"STEP",
					"output":78
				},
				{
					"input":55,
					"interpolation":"STEP",
					"output":79
				},
				{
					"input":55,
					"interpolation":"STEP",
					"output":43
				},
				{
					"input":55,
					"interpolation":"STEP",
					"output":80
				},
				{
					"input":55,
					"interpolation":"STEP",
					"output":81
				},
				{
					"input":55,
					"interpolation":"STEP",
					"output":82
				},
				{
					"input":55,
					"interpolation":"STEP",
					"output":83
				},
				{
					"input":55,
					"interpolation":"STEP",
					"output":84
				},
				{
					"input":55,
					"interpolation":"STEP",
					"output":40
				},
				{
					"input":55,
					"interpolation":"STEP",
					"output":85
				},
				{
					"input":55,
					"interpolation":"STEP",
					"output":86
				},
				{
					"input":55,
					"interpolation":"STEP",
					"output":46
				},
				{
					"input":55,
					"interpolation":"STEP",
					"output":87
				},
				{
					"input":55,
					"interpolation":"STEP",
					"output":88
				},
				{
					"input":55,
					"interpolation":"STEP",
					"output":82
				}
			]
		},
		{
			"channels":[
				{
					"sampler":0,
					"target":{
						"node":17,
						"path":"translation"
					}
				},
				{
					"sampler":1,
					"target":{
						"node":17,
						"path":"rotation"
					}
				},
				{
					"sampler":2,
					"target":{
						"node":17,
						"path":"scale"
					}
				},
				{
					"sampler":3,
					"target":{
						"node":10,
						"path":"translation"
					}
				},
				{
					"sampler":4,
					"target":{
						"node":10,
						"path":"rotation"
					}
				},
				{
					"sampler":5,
					"target":{
						"node":10,
						"path":"scale"
					}
				},
				{
					"sampler":6,
					"target":{
						"node":9,
						"path":"translation"
					}
				},
				{
					"sampler":7,
					"target":{
						"node":9,
						"path":"rotation"
					}
				},
				{
					"sampler":8,
					"target":{
						"node":9,
						"path":"scale"
					}
				},
				{
					"sampler":9,
					"target":{
						"node":2,
						"path":"translation"
					}
				},
				{
					"sampler":10,
					"target":{
						"node":2,
						"path":"rotation"
					}
				},
				{
					"sampler":11,
					"target":{
						"node":2,
						"path":"scale"
					}
				},
				{
					"sampler":12,
					"target":{
						"node":1,
						"path":"translation"
					}
				},
				{
					"sampler":13,
					"target":{
						"node":1,
						"path":"rotation"
					}
				},
				{
					"sampler":14,
					"target":{
						"node":1,
						"path":"scale"
					}
				},
				{
					"sampler":15,
					"target":{
						"node":0,
						"path":"translation"
					}
				},
				{
					"sampler":16,
					"target":{
						"node":0,
						"path":"rotation"
					}
				},
				{
					"sampler":17,
					"target":{
						"node":0,
						"path":"scale"
					}
				},
				{
					"sampler":18,
					"target":{
						"node":5,
						"path":"translation"
					}
				},
				{
					"sampler":19,
					"target":{
						"node":5,
						"path":"rotation"
					}
				},
				{
					"sampler":20,
					"target":{
						"node":5,
						"path":"scale"
					}
				},
				{
					"sampler":21,
					"target":{
						"node":4,
						"path":"translation"
					}
				},
				{
					"sampler":22,
					"target":{
						"node":4,
						"path":"rotation"
					}
				},
				{
					"sampler":23,
					"target":{
						"node":4,
						"path":"scale"
					}
				},
				{
					"sampler":24,
					"target":{
						"node":3,
						"path":"translation"
					}
				},
				{
					"sampler":25,
					"target":{
						"node":3,
						"path":"rotation"
					}
				},
				{
					"sampler":26,
					"target":{
						"node":3,
						"path":"scale"
					}
				},
				{
					"sampler":27,
					"target":{
						"node":8,
						"path":"translation"
					}
				},
				{
					"sampler":28,
					"target":{
						"node":8,
						"path":"rotation"
					}
				},
				{
					"sampler":29,
					"target":{
						"node":8,
						"path":"scale"
					}
				},
				{
					"sampler":30,
					"target":{
						"node":7,
						"path":"translation"
					}
				},
				{
					"sampler":31,
					"target":{
						"node":7,
						"path":"rotation"
					}
				},
				{
					"sampler":32,
					"target":{
						"node":7,
						"path":"scale"
					}
				},
				{
					"sampler":33,
					"target":{
						"node":6,
						"path":"translation"
					}
				},
				{
					"sampler":34,
					"target":{
						"node":6,
						"path":"rotation"
					}
				},
				{
					"sampler":35,
					"target":{
						"node":6,
						"path":"scale"
					}
				},
				{
					"sampler":36,
					"target":{
						"node":13,
						"path":"translation"
					}
				},
				{
					"sampler":37,
					"target":{
						"node":13,
						"path":"rotation"
					}
				},
				{
					"sampler":38,
					"target":{
						"node":13,
						"path":"scale"
					}
				},
				{
					"sampler":39,
					"target":{
						"node":12,
						"path":"translation"
					}
				},
				{
					"sampler":40,
					"target":{
						"node":12,
						"path":"rotation"
					}
				},
				{
					"sampler":41,
					"target":{
						"node":12,
						"path":"scale"
					}
				},
				{
					"sampler":42,
					"target":{
						"node":11,
						"path":"translation"
					}
				},
				{
					"sampler":43,
					"target":{
						"node":11,
						"path":"rotation"
					}
				},
				{
					"sampler":44,
					"target":{
						"node":11,
						"path":"scale"
					}
				},
				{
					"sampler":45,
					"target":{
						"node":16,
						"path":"translation"
					}
				},
				{
					"sampler":46,
					"target":{
						"node":16,
						"path":"rotation"
					}
				},
				{
					"sampler":47,
					"target":{
						"node":16,
						"path":"scale"
					}
				},
				{
					"sampler":48,
					"target":{
						"node":15,
						"path":"translation"
					}
				},
				{
					"sampler":49,
					"target":{
						"node":15,
						"path":"rotation"
					}
				},
				{
					"sampler":50,
					"target":{
						"node":15,
						"path":"scale"
					}
				},
				{
					"sampler":51,
					"target":{
						"node":14,
						"path":"translation"
					}
				},
				{
					"sampler":52,
					"target":{
						"node":14,
						"path":"rotation"
					}
				},
				{
					"sampler":53,
					"target":{
						"node":14,
						"path":"scale"
					}
				}
			],
			"name":"Laufen",
			"samplers":[
				{
					"input":89,
					"interpolation":"LINEAR",
					"output":90
				},
				{
					"input":91,
					"interpolation":"STEP",
					"output":9
				},
				{
					"input":91,
					"interpolation":"STEP",
					"output":10
				},
				{
					"input":91,
					"interpolation":"STEP",
					"output":11
				},
				{
					"input":91,
					"interpolation":"STEP",
					"output":92
				},
				{
					"input":91,
					"interpolation":"STEP",
					"output":10
				},
				{
					"input":91,
					"interpolation":"STEP",
					"output":93
				},
				{
					"input":91,
					"interpolation":"STEP",
					"output":94
				},
				{
					"input":91,
					"interpolation":"STEP",
					"output":95
				},
				{
					"input":91,
					"interpolation":"STEP",
					"output":96
				},
				{
					"input":91,
					"interpolation":"STEP",
					"output":9
				},
				{
					"input":91,
					"interpolation":"STEP",
					"output":10
				},
				{
					"input":91,
					"interpolation":"STEP",
					"output":97
				},
				{
					"input":91,
					"interpolation":"STEP",
					"output":98
				},
				{
					"input":91,
					"interpolation":"STEP",
					"output":10
				},
				{
					"input":91,
					"interpolation":"STEP",
					"output":99
				},
				{
					"input":91,
					"interpolation":"STEP",
					"output":21
				},
				{
					"input":91,
					"interpolation":"STEP",
					"output":22
				},
				{
					"input":91,
					"interpolation":"STEP",
					"output":100
				},
				{
					"input":89,
					"interpolation":"LINEAR",
					"output":101
				},
				{
					"input":91,
					"interpolation":"STEP",
					"output":102
				},
				{
					"input":91,
					"interpolation":"STEP",
					"output":103
				},
				{
					"input":89,
					"interpolation":"LINEAR",
					"output":104
				},
				{
					"input":91,
					"interpolation":"STEP",
					"output":105
				},
				{
					"input":91,
					"interpolation":"STEP",
					"output":106
				},
				{
					"input":91,
					"interpolation":"STEP",
					"output":107
				},
				{
					"input":91,
					"interpolation":"STEP",
					"output":108
				},
				{
					"input":91,
					"interpolation":"STEP",
					"output":109
				},
				{
					"input":89,
					"interpolation":"LINEAR",
					"output":110
				},
				{
					"input":91,
					"interpolation":"STEP",
					"output":102
				},
				{
					"input":91,
					"interpolation":"STEP",
					"output":111
				},
				{
					"input":89,
					"interpolation":"LINEAR",
					"output":112
				},
				{
					"input":91,
					"interpolation":"STEP",
					"output":105
				},
				{
					"input":91,
					"interpolation":"STEP",
					"output":113
				},
				{
					"input":91,
					"interpolation":"STEP",
					"output":114
				},
				{
					"input":91,
					"interpolation":"STEP",
					"output":108
				},
				{
					"input":91,
					"interpolation":"STEP",
					"output":76
				},
				{
					"input":91,
					"interpolation":"STEP",
					"output":115
				},
				{
					"input":91,
					"interpolation":"STEP",
					"output":10
				},
				{
					"input":91,
					"interpolation":"STEP",
					"output":116
				},
				{
					"input":91,
					"interpolation":"STEP",
					"output":117
				},
				{
					"input":91,
					"interpolation":"STEP",
					"output":10
				},
				{
					"input":91,
					"interpolation":"STEP",
					"output":118
				},
				{
					"input":91,
					"interpolation":"STEP",
					"output":119
				},
				{
					"input":91,
					"interpolation":"STEP",
					"output":120
				},
				{
					"input":91,
					"interpolation":"STEP",
					"output":83
				},
				{
					"input":91,
					"interpolation":"STEP",
					"output":121
				},
				{
					"input":91,
					"interpolation":"STEP",
					"output":10
				},
				{
					"input":91,
					"interpolation":"STEP",
					"output":122
				},
				{
					"input":91,
					"interpolation":"STEP",
					"output":123
				},
				{
					"input":91,
					"interpolation":"STEP",
					"output":10
				},
				{
					"input":91,
					"interpolation":"STEP",
					"output":124
				},
				{
					"input":91,
					"interpolation":"STEP",
					"output":125
				},
				{
					"input":91,
					"interpolation":"STEP",
					"output":126
				}
			]
		}
	],
	"materials":[
		{
			"doubleSided":true,
			"name":"Harpyie",
			"pbrMetallicRoughness":{
				"metallicFactor":0,
				"roughnessFactor":0.8500000238418579
			}
		}
	],
	"meshes":[
		{
			"name":"Bein",
			"primitives":[
				{
					"attributes":{
						"POSITION":0,
						"NORMAL":1,
						"COLOR_0":2,
						"JOINTS_0":3,
						"WEIGHTS_0":4
					},
					"indices":5,
					"material":0
				}
			]
		}
	],
	"skins":[
		{
			"inverseBindMatrices":6,
			"joints":[
				17,
				10,
				9,
				2,
				1,
				0,
				5,
				4,
				3,
				8,
				7,
				6,
				13,
				12,
				11,
				16,
				15,
				14
			],
			"name":"HarpyieSkelett"
		}
	],
	"accessors":[
		{
			"bufferView":0,
			"componentType":5126,
			"count":10508,
			"max":[
				0.45422491431236267,
				1.8734567165374756,
				0.2413836568593979
			],
			"min":[
				-0.45422491431236267,
				-0.009999999776482582,
				-0.789344072341919
			],
			"type":"VEC3"
		},
		{
			"bufferView":1,
			"componentType":5126,
			"count":10508,
			"type":"VEC3"
		},
		{
			"bufferView":2,
			"componentType":5126,
			"count":10508,
			"type":"VEC3"
		},
		{
			"bufferView":3,
			"componentType":5121,
			"count":10508,
			"type":"VEC4"
		},
		{
			"bufferView":4,
			"componentType":5126,
			"count":10508,
			"type":"VEC4"
		},
		{
			"bufferView":5,
			"componentType":5123,
			"count":15324,
			"type":"SCALAR"
		},
		{
			"bufferView":6,
			"componentType":5126,
			"count":18,
			"type":"MAT4"
		},
		{
			"bufferView":7,
			"componentType":5126,
			"count":2,
			"max":[
				1
			],
			"min":[
				0
			],
			"type":"SCALAR"
		},
		{
			"bufferView":8,
			"componentType":5126,
			"count":2,
			"type":"VEC3"
		},
		{
			"bufferView":9,
			"componentType":5126,
			"count":2,
			"type":"VEC4"
		},
		{
			"bufferView":10,
			"componentType":5126,
			"count":2,
			"type":"VEC3"
		},
		{
			"bufferView":11,
			"componentType":5126,
			"count":2,
			"type":"VEC3"
		},
		{
			"bufferView":12,
			"componentType":5126,
			"count":31,
			"max":[
				1
			],
			"min":[
				0
			],
			"type":"SCALAR"
		},
		{
			"bufferView":13,
			"componentType":5126,
			"count":31,
			"type":"VEC4"
		},
		{
			"bufferView":14,
			"componentType":5126,
			"count":2,
			"type":"VEC3"
		},
		{
			"bufferView":15,
			"componentType":5126,
			"count":31,
			"type":"VEC4"
		},
		{
			"bufferView":16,
			"componentType":5126,
			"count":2,
			"type":"VEC3"
		},
		{
			"bufferView":17,
			"componentType":5126,
			"count":2,
			"type":"VEC3"
		},
		{
			"bufferView":18,
			"componentType":5126,
			"count":31,
			"type":"VEC4"
		},
		{
			"bufferView":19,
			"componentType":5126,
			"count":2,
			"type":"VEC3"
		},
		{
			"bufferView":20,
			"componentType":5126,
			"count":2,
			"type":"VEC3"
		},
		{
			"bufferView":21,
			"componentType":5126,
			"count":2,
			"type":"VEC4"
		},
		{
			"bufferView":22,
			"componentType":5126,
			"count":2,
			"type":"VEC3"
		},
		{
			"bufferView":23,
			"componentType":5126,
			"count":2,
			"type":"VEC3"
		},
		{
			"bufferView":24,
			"componentType":5126,
			"count":31,
			"type":"VEC4"
		},
		{
			"bufferView":25,
			"componentType":5126,
			"count":2,
			"type":"VEC3"
		},
		{
			"bufferView":26,
			"componentType":5126,
			"count":2,
			"type":"VEC3"
		},
		{
			"bufferView":27,
			"componentType":5126,
			"count":2,
			"type":"VEC4"
		},
		{
			"bufferView":28,
			"componentType":5126,
			"count":2,
			"type":"VEC3"
		},
		{
			"bufferView":29,
			"componentType":5126,
			"count":2,
			"type":"VEC3"
		},
		{
			"bufferView":30,
			"componentType":5126,
			"count":2,
			"type":"VEC4"
		},
		{
			"bufferView":31,
			"componentType":5126,
			"count":2,
			"type":"VEC3"
		},
		{
			"bufferView":32,
			"componentType":5126,
			"count":2,
			"type":"VEC3"
		},
		{
			"bufferView":33,
			"componentType":5126,
			"count":31,
			"type":"VEC4"
		},
		{
			"bufferView":34,
			"componentType":5126,
			"count":2,
			"type":"VEC3"
		},
		{
			"bufferView":35,
			"componentType":5126,
			"count":2,
			"type":"VEC4"
		},
		{
			"bufferView":36,
			"componentType":5126,
			"count":2,
			"type":"VEC3"
		},
		{
			"bufferView":37,
			"componentType":5126,
			"count":2,
			"type":"VEC4"
		},
		{
			"bufferView":38,
			"componentType":5126,
			"count":2,
			"type":"VEC3"
		},
		{
			"bufferView":39,
			"componentType":5126,
			"count":31,
			"type":"VEC4"
		},
		{
			"bufferView":40,
			"componentType":5126,
			"count":2,
			"type":"VEC3"
		},
		{
			"bufferView":41,
			"componentType":5126,
			"count":2,
			"type":"VEC3"
		},
		{
			"bufferView":42,
			"componentType":5126,
			"count":31,
			"type":"VEC4"
		},
		{
			"bufferView":43,
			"componentType":5126,
			"count":2,
			"type":"VEC3"
		},
		{
			"bufferView":44,
			"componentType":5126,
			"count":2,
			"type":"VEC3"
		},
		{
			"bufferView":45,
			"componentType":5126,
			"count":2,
			"type":"VEC4"
		},
		{
			"bufferView":46,
			"componentType":5126,
			"count":2,
			"type":"VEC3"
		},
		{
			"bufferView":47,
			"componentType":5126,
			"count":2,
			"type":"VEC3"
		},
		{
			"bufferView":48,
			"componentType":5126,
			"count":31,
			"type":"VEC4"
		},
		{
			"bufferView":49,
			"componentType":5126,
			"count":2,
			"type":"VEC3"
		},
		{
			"bufferView":50,
			"componentType":5126,
			"count":31,
			"type":"VEC4"
		},
		{
			"bufferView":51,
			"componentType":5126,
			"count":2,
			"type":"VEC3"
		},
		{
			"bufferView":52,
			"componentType":5126,
			"count":2,
			"type":"VEC4"
		},
		{
			"bufferView":53,
			"componentType":5126,
			"count":37,
			"max":[
				1.2
			],
			"min":[
				0
			],
			"type":"SCALAR"
		},
		{
			"bufferView":54,
			"componentType":5126,
			"count":37,
			"type":"VEC3"
		},
		{
			"bufferView":55,
			"componentType":5126,
			"count":2,
			"max":[
				1.2
			],
			"min":[
				0
			],
			"type":"SCALAR"
		},
		{
			"bufferView":56,
			"componentType":5126,
			"count":2,
			"type":"VEC3"
		},
		{
			"bufferView":57,
			"componentType":5126,
			"count":37,
			"type":"VEC4"
		},
		{
			"bufferView":58,
			"componentType":5126,
			"count":2,
			"type":"VEC3"
		},
		{
			"bufferView":59,
			"componentType":5126,
			"count":2,
			"type":"VEC3"
		},
		{
			"bufferView":60,
			"componentType":5126,
			"count":37,
			"type":"VEC4"
		},
		{
			"bufferView":61,
			"componentType":5126,
			"count":2,
			"type":"VEC3"
		},
		{
			"bufferView":62,
			"componentType":5126,
			"count":2,
			"type":"VEC3"
		},
		{
			"bufferView":63,
			"componentType":5126,
			"count":37,
			"type":"VEC4"
		},
		{
			"bufferView":64,
			"componentType":5126,
			"count":2,
			"type":"VEC3"
		},
		{
			"bufferView":65,
			"componentType":5126,
			"count":2,
			"type":"VEC3"
		},
		{
			"bufferView":66,
			"componentType":5126,
			"count":37,
			"type":"VEC4"
		},
		{
			"bufferView":67,
			"componentType":5126,
			"count":2,
			"type":"VEC3"
		},
		{
			"bufferView":68,
			"componentType":5126,
			"count":2,
			"type":"VEC4"
		},
		{
			"bufferView":69,
			"componentType":5126,
			"count":2,
			"type":"VEC3"
		},
		{
			"bufferView":70,
			"componentType":5126,
			"count":2,
			"type":"VEC3"
		},
		{
			"bufferView":71,
			"componentType":5126,
			"count":37,
			"type":"VEC4"
		},
		{
			"bufferView":72,
			"componentType":5126,
			"count":2,
			"type":"VEC3"
		},
		{
			"bufferView":73,
			"componentType":5126,
			"count":37,
			"type":"VEC4"
		},
		{
			"bufferView":74,
			"componentType":5126,
			"count":2,
			"type":"VEC3"
		},
		{
			"bufferView":75,
			"componentType":5126,
			"count":2,
			"type":"VEC4"
		},
		{
			"bufferView":76,
			"componentType":5126,
			"count":2,
			"type":"VEC3"
		},
		{
			"bufferView":77,
			"componentType":5126,
			"count":2,
			"type":"VEC4"
		},
		{
			"bufferView":78,
			"componentType":5126,
			"count":2,
			"type":"VEC3"
		},
		{
			"bufferView":79,
			"componentType":5126,
			"count":2,
			"type":"VEC4"
		},
		{
			"bufferView":80,
			"componentType":5126,
			"count":2,
			"type":"VEC3"
		},
		{
			"bufferView":81,
			"componentType":5126,
			"count":2,
			"type":"VEC4"
		},
		{
			"bufferView":82,
			"componentType":5126,
			"count":2,
			"type":"VEC3"
		},
		{
			"bufferView":83,
			"componentType":5126,
			"count":2,
			"type":"VEC3"
		},
		{
			"bufferView":84,
			"componentType":5126,
			"count":2,
			"type":"VEC4"
		},
		{
			"bufferView":85,
			"componentType":5126,
			"count":2,
			"type":"VEC3"
		},
		{
			"bufferView":86,
			"componentType":5126,
			"count":2,
			"type":"VEC4"
		},
		{
			"bufferView":87,
			"componentType":5126,
			"count":2,
			"type":"VEC3"
		},
		{
			"bufferView":88,
			"componentType":5126,
			"count":2,
			"type":"VEC4"
		},
		{
			"bufferView":89,
			"componentType":5126,
			"count":25,
			"max":[
				0.8
			],
			"min":[
				0
			],
			"type":"SCALAR"
		},
		{
			"bufferView":90,
			"componentType":5126,
			"count":25,
			"type":"VEC3"
		},
		{
			"bufferView":91,
			"componentType":5126,
			"count":2,
			"max":[
				0.8
			],
			"min":[
				0
			],
			"type":"SCALAR"
		},
		{
			"bufferView":92,
			"componentType":5126,
			"count":2,
			"type":"VEC4"
		},
		{
			"bufferView":93,
			"componentType":5126,
			"count":2,
			"type":"VEC3"
		},
		{
			"bufferView":94,
			"componentType":5126,
			"count":2,
			"type":"VEC4"
		},
		{
			"bufferView":95,
			"componentType":5126,
			"count":2,
			"type":"VEC3"
		},
		{
			"bufferView":96,
			"componentType":5126,
			"count":2,
			"type":"VEC3"
		},
		{
			"bufferView":97,
			"componentType":5126,
			"count":2,
			"type":"VEC3"
		},
		{
			"bufferView":98,
			"componentType":5126,
			"count":2,
			"type":"VEC4"
		},
		{
			"bufferView":99,
			"componentType":5126,
			"count":2,
			"type":"VEC3"
		},
		{
			"bufferView":100,
			"componentType":5126,
			"count":2,
			"type":"VEC3"
		},
		{
			"bufferView":101,
			"componentType":5126,
			"count":25,
			"type":"VEC4"
		},
		{
			"bufferView":102,
			"componentType":5126,
			"count":2,
			"type":"VEC3"
		},
		{
			"bufferView":103,
			"componentType":5126,
			"count":2,
			"type":"VEC3"
		},
		{
			"bufferView":104,
			"componentType":5126,
			"count":25,
			"type":"VEC4"
		},
		{
			"bufferView":105,
			"componentType":5126,
			"count":2,
			"type":"VEC3"
		},
		{
			"bufferView":106,
			"componentType":5126,
			"count":2,
			"type":"VEC3"
		},
		{
			"bufferView":107,
			"componentType":5126,
			"count":2,
			"type":"VEC4"
		},
		{
			"bufferView":108,
			"componentType":5126,
			"count":2,
			"type":"VEC3"
		},
		{
			"bufferView":109,
			"componentType":5126,
			"count":2,
			"type":"VEC3"
		},
		{
			"bufferView":110,
			"componentType":5126,
			"count":25,
			"type":"VEC4"
		},
		{
			"bufferView":111,
			"componentType":5126,
			"count":2,
			"type":"VEC3"
		},
		{
			"bufferView":112,
			"componentType":5126,
			"count":25,
			"type":"VEC4"
		},
		{
			"bufferView":113,
			"componentType":5126,
			"count":2,
			"type":"VEC3"
		},
		{
			"bufferView":114,
			"componentType":5126,
			"count":2,
			"type":"VEC4"
		},
		{
			"bufferView":115,
			"componentType":5126,
			"count":2,
			"type":"VEC4"
		},
		{
			"bufferView":116,
			"componentType":5126,
			"count":2,
			"type":"VEC3"
		},
		{
			"bufferView":117,
			"componentType":5126,
			"count":2,
			"type":"VEC4"
		},
		{
			"bufferView":118,
			"componentType":5126,
			"count":2,
			"type":"VEC3"
		},
		{
			"bufferView":119,
			"componentType":5126,
			"count":2,
			"type":"VEC4"
		},
		{
			"bufferView":120,
			"componentType":5126,
			"count":2,
			"type":"VEC3"
		},
		{
			"bufferView":121,
			"componentType":5126,
			"count":2,
			"type":"VEC4"
		},
		{
			"bufferView":122,
			"componentType":5126,
			"count":2,
			"type":"VEC3"
		},
		{
			"bufferView":123,
			"componentType":5126,
			"count":2,
			"type":"VEC4"
		},
		{
			"bufferView":124,
			"componentType":5126,
			"count":2,
			"type":"VEC3"
		},
		{
			"bufferView":125,
			"componentType":5126,
			"count":2,
			"type":"VEC4"
		},
		{
			"bufferView":126,
			"componentType":5126,
			"count":2,
			"type":"VEC3"
		}
	],
	"bufferViews":[
		{
			"buffer":0,
			"byteLength":126096,
			"byteOffset":0,
			"target":34962
		},
		{
			"buffer":0,
			"byteLength":126096,
			"byteOffset":126096,
			"target":34962
		},
		{
			"buffer":0,
			"byteLength":126096,
			"byteOffset":252192,
			"target":34962
		},
		{
			"buffer":0,
			"byteLength":42032,
			"byteOffset":378288,
			"target":34962
		},
		{
			"buffer":0,
			"byteLength":168128,
			"byteOffset":420320,
			"target":34962
		},
		{
			"buffer":0,
			"byteLength":30648,
			"byteOffset":588448,
			"target":34963
		},
		{
			"buffer":0,
			"byteLength":1152,
			"byteOffset":619096
		},
		{
			"buffer":0,
			"byteLength":8,
			"byteOffset":620248
		},
		{
			"buffer":0,
			"byteLength":24,
			"byteOffset":620256
		},
		{
			"buffer":0,
			"byteLength":32,
			"byteOffset":620280
		},
		{
			"buffer":0,
			"byteLength":24,
			"byteOffset":620312
		},
		{
			"buffer":0,
			"byteLength":24,
			"byteOffset":620336
		},
		{
			"buffer":0,
			"byteLength":124,
			"byteOffset":620360
		},
		{
			"buffer":0,
			"byteLength":496,
			"byteOffset":620484
		},
		{
			"buffer":0,
			"byteLength":24,
			"byteOffset":620980
		},
		{
			"buffer":0,
			"byteLength":496,
			"byteOffset":621004
		},
		{
			"buffer":0,
			"byteLength":24,
			"byteOffset":621500
		},
		{
			"buffer":0,
			"byteLength":24,
			"byteOffset":621524
		},
		{
			"buffer":0,
			"byteLength":496,
			"byteOffset":621548
		},
		{
			"buffer":0,
			"byteLength":24,
			"byteOffset":622044
		},
		{
			"buffer":0,
			"byteLength":24,
			"byteOffset":622068
		},
		{
			"buffer":0,
			"byteLength":32,
			"byteOffset":622092
		},
		{
			"buffer":0,
			"byteLength":24,
			"byteOffset":622124
		},
		{
			"buffer":0,
			"byteLength":24,
			"byteOffset":622148
		},
		{
			"buffer":0,
			"byteLength":496,
			"byteOffset":622172
		},
		{
			"buffer":0,
			"byteLength":24,
			"byteOffset":622668
		},
		{
			"buffer":0,
			"byteLength":24,
			"byteOffset":622692
		},
		{
			"buffer":0,
			"byteLength":32,
			"byteOffset":622716
		},
		{
			"buffer":0,
			"byteLength":24,
			"byteOffset":622748
		},
		{
			"buffer":0,
			"byteLength":24,
			"byteOffset":622772
		},
		{
			"buffer":0,
			"byteLength":32,
			"byteOffset":622796
		},
		{
			"buffer":0,
			"byteLength":24,
			"byteOffset":622828
		},
		{
			"buffer":0,
			"byteLength":24,
			"byteOffset":622852
		},
		{
			"buffer":0,
			"byteLength":496,
			"byteOffset":622876
		},
		{
			"buffer":0,
			"byteLength":24,
			"byteOffset":623372
		},
		{
			"buffer":0,
			"byteLength":32,
			"byteOffset":623396
		},
		{
			"buffer":0,
			"byteLength":24,
			"byteOffset":623428
		},
		{
			"buffer":0,
			"byteLength":32,
			"byteOffset":623452
		},
		{
			"buffer":0,
			"byteLength":24,
			"byteOffset":623484
		},
		{
			"buffer":0,
			"byteLength":496,
			"byteOffset":623508
		},
		{
			"buffer":0,
			"byteLength":24,
			"byteOffset":624004
		},
		{
			"buffer":0,
			"byteLength":24,
			"byteOffset":624028
		},
		{
			"buffer":0,
			"byteLength":496,
			"byteOffset":624052
		},
		{
			"buffer":0,
			"byteLength":24,
			"byteOffset":624548
		},
		{
			"buffer":0,
			"byteLength":24,
			"byteOffset":624572
		},
		{
			"buffer":0,
			"byteLength":32,
			"byteOffset":624596
		},
		{
			"buffer":0,
			"byteLength":24,
			"byteOffset":624628
		},
		{
			"buffer":0,
			"byteLength":24,
			"byteOffset":624652
		},
		{
			"buffer":0,
			"byteLength":496,
			"byteOffset":624676
		},
		{
			"buffer":0,
			"byteLength":24,
			"byteOffset":625172
		},
		{
			"buffer":0,
			"byteLength":496,
			"byteOffset":625196
		},
		{
			"buffer":0,
			"byteLength":24,
			"byteOffset":625692
		},
		{
			"buffer":0,
			"byteLength":32,
			"byteOffset":625716
		},
		{
			"buffer":0,
			"byteLength":148,
			"byteOffset":625748
		},
		{
			"buffer":0,
			"byteLength":444,
			"byteOffset":625896
		},
		{
			"buffer":0,
			"byteLength":8,
			"byteOffset":626340
		},
		{
			"buffer":0,
			"byteLength":24,
			"byteOffset":626348
		},
		{
			"buffer":0,
			"byteLength":592,
			"byteOffset":626372
		},
		{
			"buffer":0,
			"byteLength":24,
			"byteOffset":626964
		},
		{
			"buffer":0,
			"byteLength":24,
			"byteOffset":626988
		},
		{
			"buffer":0,
			"byteLength":592,
			"byteOffset":627012
		},
		{
			"buffer":0,
			"byteLength":24,
			"byteOffset":627604
		},
		{
			"buffer":0,
			"byteLength":24,
			"byteOffset":627628
		},
		{
			"buffer":0,
			"byteLength":592,
			"byteOffset":627652
		},
		{
			"buffer":0,
			"byteLength":24,
			"byteOffset":628244
		},
		{
			"buffer":0,
			"byteLength":24,
			"byteOffset":628268
		},
		{
			"buffer":0,
			"byteLength":592,
			"byteOffset":628292
		},
		{
			"buffer":0,
			"byteLength":24,
			"byteOffset":628884
		},
		{
			"buffer":0,
			"byteLength":32,
			"byteOffset":628908
		},
		{
			"buffer":0,
			"byteLength":24,
			"byteOffset":628940
		},
		{
			"buffer":0,
			"byteLength":24,
			"byteOffset":628964
		},
		{
			"buffer":0,
			"byteLength":592,
			"byteOffset":628988
		},
		{
			"buffer":0,
			"byteLength":24,
			"byteOffset":629580
		},
		{
			"buffer":0,
			"byteLength":592,
			"byteOffset":629604
		},
		{
			"buffer":0,
			"byteLength":24,
			"byteOffset":630196
		},
		{
			"buffer":0,
			"byteLength":32,
			"byteOffset":630220
		},
		{
			"buffer":0,
			"byteLength":24,
			"byteOffset":630252
		},
		{
			"buffer":0,
			"byteLength":32,
			"byteOffset":630276
		},
		{
			"buffer":0,
			"byteLength":24,
			"byteOffset":630308
		},
		{
			"buffer":0,
			"byteLength":32,
			"byteOffset":630332
		},
		{
			"buffer":0,
			"byteLength":24,
			"byteOffset":630364
		},
		{
			"buffer":0,
			"byteLength":32,
			"byteOffset":630388
		},
		{
			"buffer":0,
			"byteLength":24,
			"byteOffset":630420
		},
		{
			"buffer":0,
			"byteLength":24,
			"byteOffset":630444
		},
		{
			"buffer":0,
			"byteLength":32,
			"byteOffset":630468
		},
		{
			"buffer":0,
			"byteLength":24,
			"byteOffset":630500
		},
		{
			"buffer":0,
			"byteLength":32,
			"byteOffset":630524
		},
		{
			"buffer":0,
			"byteLength":24,
			"byteOffset":630556
		},
		{
			"buffer":0,
			"byteLength":32,
			"byteOffset":630580
		},
		{
			"buffer":0,
			"byteLength":100,
			"byteOffset":630612
		},
		{
			"buffer":0,
			"byteLength":300,
			"byteOffset":630712
		},
		{
			"buffer":0,
			"byteLength":8,
			"byteOffset":631012
		},
		{
			"buffer":0,
			"byteLength":32,
			"byteOffset":631020
		},
		{
			"buffer":0,
			"byteLength":24,
			"byteOffset":631052
		},
		{
			"buffer":0,
			"byteLength":32,
			"byteOffset":631076
		},
		{
			"buffer":0,
			"byteLength":24,
			"byteOffset":631108
		},
		{
			"buffer":0,
			"byteLength":24,
			"byteOffset":631132
		},
		{
			"buffer":0,
			"byteLength":24,
			"byteOffset":631156
		},
		{
			"buffer":0,
			"byteLength":32,
			"byteOffset":631180
		},
		{
			"buffer":0,
			"byteLength":24,
			"byteOffset":631212
		},
		{
			"buffer":0,
			"byteLength":24,
			"byteOffset":631236
		},
		{
			"buffer":0,
			"byteLength":400,
			"byteOffset":631260
		},
		{
			"buffer":0,
			"byteLength":24,
			"byteOffset":631660
		},
		{
			"buffer":0,
			"byteLength":24,
			"byteOffset":631684
		},
		{
			"buffer":0,
			"byteLength":400,
			"byteOffset":631708
		},
		{
			"buffer":0,
			"byteLength":24,
			"byteOffset":632108
		},
		{
			"buffer":0,
			"byteLength":24,
			"byteOffset":632132
		},
		{
			"buffer":0,
			"byteLength":32,
			"byteOffset":632156
		},
		{
			"buffer":0,
			"byteLength":24,
			"byteOffset":632188
		},
		{
			"buffer":0,
			"byteLength":24,
			"byteOffset":632212
		},
		{
			"buffer":0,
			"byteLength":400,
			"byteOffset":632236
		},
		{
			"buffer":0,
			"byteLength":24,
			"byteOffset":632636
		},
		{
			"buffer":0,
			"byteLength":400,
			"byteOffset":632660
		},
		{
			"buffer":0,
			"byteLength":24,
			"byteOffset":633060
		},
		{
			"buffer":0,
			"byteLength":32,
			"byteOffset":633084
		},
		{
			"buffer":0,
			"byteLength":32,
			"byteOffset":633116
		},
		{
			"buffer":0,
			"byteLength":24,
			"byteOffset":633148
		},
		{
			"buffer":0,
			"byteLength":32,
			"byteOffset":633172
		},
		{
			"buffer":0,
			"byteLength":24,
			"byteOffset":633204
		},
		{
			"buffer":0,
			"byteLength":32,
			"byteOffset":633228
		},
		{
			"buffer":0,
			"byteLength":24,
			"byteOffset":633260
		},
		{
			"buffer":0,
			"byteLength":32,
			"byteOffset":633284
		},
		{
			"buffer":0,
			"byteLength":24,
			"byteOffset":633316
		},
		{
			"buffer":0,
			"byteLength":32,
			"byteOffset":633340
		},
		{
			"buffer":0,
			"byteLength":24,
			"byteOffset":633372
		},
		{
			"buffer":0,
			"byteLength":32,
			"byteOffset":633396
		},
		{
			"buffer":0,
			"byteLength":24,
			"byteOffset":633428
		}
	],
	"buffers":[
		{
			"byteLength":633452,
			"uri":"harpyie.bin"
		}
	]
}
