{
	"asset":{
		"generator":"Khronos glTF Blender I/O v5.2.40",
		"version":"2.0"
	},
	"scene":0,
	"scenes":[
		{
			"name":"Scene",
			"nodes":[
				13
			]
		}
	],
	"nodes":[
		{
			"name":"Bein.HL.unten",
			"rotation":[
				0.2681708335876465,
				-1.720802877969163e-08,
				6.153975817824175e-08,
				0.9633713960647583
			],
			"scale":[
				1,
				1.0000001192092896,
				0.9999999403953552
			],
			"translation":[
				7.150743108752522e-09,
				0.29123494029045105,
				2.6310203793400433e-08
			]
		},
		{
			"children":[
				0
			],
			"name":"Bein.HL.oben",
			"rotation":[
				4.594863014517614e-07,
				-0.7403923273086548,
				0.6721749901771545,
				6.73729687150626e-07
			],
			"scale":[
				1,
				1.000000238418579,
				1.0000001192092896
			],
			"translation":[
				-0.132000133395195,
				0.013689719140529633,
				-0.08966740220785141
			]
		},
		{
			"name":"Bein.HR.unten",
			"rotation":[
				0.2681708335876465,
				-1.720802877969163e-08,
				6.153975817824175e-08,
				0.9633713960647583
			],
			"scale":[
				1,
				1.0000001192092896,
				0.9999999403953552
			],
			"translation":[
				7.150743108752522e-09,
				0.29123494029045105,
				2.5843853279639006e-08
			]
		},
		{
			"children":[
				2
			],
			"name":"Bein.HR.oben",
			"rotation":[
				4.594863014517614e-07,
				-0.7403923273086548,
				0.6721749901771545,
				6.73729687150626e-07
			],
			"scale":[
				1,
				1.000000238418579,
				1.0000001192092896
			],
			"translation":[
				0.13199986517429352,
				0.013689719140529633,
				-0.08966781944036484
			]
		},
		{
			"name":"Bein.VL.unten",
			"rotation":[
				-0.15062637627124786,
				9.477653861722501e-08,
				6.974528066194807e-09,
				0.9885907769203186
			],
			"translation":[
				1.3932925035931021e-08,
				0.3087790608406067,
				4.2589012316796016e-09
			]
		},
		{
			"children":[
				4
			],
			"name":"Bein.VL.oben",
			"rotation":[
				6.283590323619137e-07,
				-0.6465120911598206,
				0.7629038095474243,
				5.112317467137473e-07
			],
			"scale":[
				1,
				1.0000001192092896,
				1
			],
			"translation":[
				-0.13200022280216217,
				0.6270003318786621,
				-0.1471642255783081
			]
		},
		{
			"name":"Bein.VR.unten",
			"rotation":[
				-0.15062637627124786,
				9.477653861722501e-08,
				6.974528066194807e-09,
				0.9885907769203186
			],
			"translation":[
				1.3932923259574181e-08,
				0.3087790608406067,
				1.4367550704719179e-08
			]
		},
		{
			"children":[
				6
			],
			"name":"Bein.VR.oben",
			"rotation":[
				6.283590323619137e-07,
				-0.6465120911598206,
				0.7629038095474243,
				5.112317467137473e-07
			],
			"scale":[
				1,
				1.0000001192092896,
				1
			],
			"translation":[
				0.13199977576732635,
				0.6270003914833069,
				-0.14716464281082153
			]
		},
		{
			"name":"Kopf",
			"rotation":[
				-0.06334053725004196,
				1.1898053742243064e-07,
				1.7115992179128625e-08,
				0.9979919791221619
			],
			"scale":[
				1,
				0.9999997615814209,
				0.9999999403953552
			],
			"translation":[
				4.858327553192848e-14,
				0.22968600690364838,
				0
			]
		},
		{
			"children":[
				8
			],
			"name":"Hals",
			"rotation":[
				-0.19127768278121948,
				5.850425282005745e-07,
				1.8850208505227783e-07,
				0.9815359711647034
			],
			"scale":[
				1,
				1,
				1.0000001192092896
			],
			"translation":[
				6.750155989720952e-14,
				0.7070870399475098,
				2.9802322387695312e-08
			]
		},
		{
			"name":"Schwanz1",
			"rotation":[
				7.192791713350744e-07,
				-0.41553401947021484,
				0.9095776677131653,
				3.2858508802746655e-07
			],
			"scale":[
				1,
				0.9999998807907104,
				0.9999998211860657
			],
			"translation":[
				1.6238139721735934e-08,
				-0.10951988399028778,
				0.010267317295074463
			]
		},
		{
			"children":[
				1,
				3,
				5,
				7,
				9,
				10
			],
			"name":"Koerper",
			"rotation":[
				5.324122298588918e-07,
				0.7393719553947449,
				0.6732972264289856,
				5.84660483582411e-07
			],
			"scale":[
				1,
				0.9999998807907104,
				1.0000189542770386
			],
			"translation":[
				0,
				0.6159999966621399,
				-0.37400001287460327
			]
		},
		{
			"mesh":0,
			"name":"Keiler",
			"skin":0
		},
		{
			"children":[
				12,
				11
			],
			"name":"KeilerSkelett"
		}
	],
	"animations":[
		{
			"channels":[
				{
					"sampler":0,
					"target":{
						"node":11,
						"path":"translation"
					}
				},
				{
					"sampler":1,
					"target":{
						"node":11,
						"path":"rotation"
					}
				},
				{
					"sampler":2,
					"target":{
						"node":11,
						"path":"scale"
					}
				},
				{
					"sampler":3,
					"target":{
						"node":1,
						"path":"translation"
					}
				},
				{
					"sampler":4,
					"target":{
						"node":1,
						"path":"rotation"
					}
				},
				{
					"sampler":5,
					"target":{
						"node":1,
						"path":"scale"
					}
				},
				{
					"sampler":6,
					"target":{
						"node":0,
						"path":"translation"
					}
				},
				{
					"sampler":7,
					"target":{
						"node":0,
						"path":"rotation"
					}
				},
				{
					"sampler":8,
					"target":{
						"node":0,
						"path":"scale"
					}
				},
				{
					"sampler":9,
					"target":{
						"node":3,
						"path":"translation"
					}
				},
				{
					"sampler":10,
					"target":{
						"node":3,
						"path":"rotation"
					}
				},
				{
					"sampler":11,
					"target":{
						"node":3,
						"path":"scale"
					}
				},
				{
					"sampler":12,
					"target":{
						"node":2,
						"path":"translation"
					}
				},
				{
					"sampler":13,
					"target":{
						"node":2,
						"path":"rotation"
					}
				},
				{
					"sampler":14,
					"target":{
						"node":2,
						"path":"scale"
					}
				},
				{
					"sampler":15,
					"target":{
						"node":5,
						"path":"translation"
					}
				},
				{
					"sampler":16,
					"target":{
						"node":5,
						"path":"rotation"
					}
				},
				{
					"sampler":17,
					"target":{
						"node":5,
						"path":"scale"
					}
				},
				{
					"sampler":18,
					"target":{
						"node":4,
						"path":"translation"
					}
				},
				{
					"sampler":19,
					"target":{
						"node":4,
						"path":"rotation"
					}
				},
				{
					"sampler":20,
					"target":{
						"node":4,
						"path":"scale"
					}
				},
				{
					"sampler":21,
					"target":{
						"node":7,
						"path":"translation"
					}
				},
				{
					"sampler":22,
					"target":{
						"node":7,
						"path":"rotation"
					}
				},
				{
					"sampler":23,
					"target":{
						"node":7,
						"path":"scale"
					}
				},
				{
					"sampler":24,
					"target":{
						"node":6,
						"path":"translation"
					}
				},
				{
					"sampler":25,
					"target":{
						"node":6,
						"path":"rotation"
					}
				},
				{
					"sampler":26,
					"target":{
						"node":6,
						"path":"scale"
					}
				},
				{
					"sampler":27,
					"target":{
						"node":9,
						"path":"translation"
					}
				},
				{
					"sampler":28,
					"target":{
						"node":9,
						"path":"rotation"
					}
				},
				{
					"sampler":29,
					"target":{
						"node":9,
						"path":"scale"
					}
				},
				{
					"sampler":30,
					"target":{
						"node":8,
						"path":"translation"
					}
				},
				{
					"sampler":31,
					"target":{
						"node":8,
						"path":"rotation"
					}
				},
				{
					"sampler":32,
					"target":{
						"node":8,
						"path":"scale"
					}
				},
				{
					"sampler":33,
					"target":{
						"node":10,
						"path":"translation"
					}
				},
				{
					"sampler":34,
					"target":{
						"node":10,
						"path":"rotation"
					}
				},
				{
					"sampler":35,
					"target":{
						"node":10,
						"path":"scale"
					}
				}
			],
			"name":"Angriff",
			"samplers":[
				{
					"input":7,
					"interpolation":"LINEAR",
					"output":8
				},
				{
					"input":7,
					"interpolation":"LINEAR",
					"output":9
				},
				{
					"input":10,
					"interpolation":"STEP",
					"output":11
				},
				{
					"input":10,
					"interpolation":"STEP",
					"output":12
				},
				{
					"input":7,
					"interpolation":"LINEAR",
					"output":13
				},
				{
					"input":10,
					"interpolation":"STEP",
					"output":14
				},
				{
					"input":10,
					"interpolation":"STEP",
					"output":15
				},
				{
					"input":7,
					"interpolation":"LINEAR",
					"output":16
				},
				{
					"input":10,
					"interpolation":"STEP",
					"output":17
				},
				{
					"input":10,
					"interpolation":"STEP",
					"output":18
				},
				{
					"input":7,
					"interpolation":"LINEAR",
					"output":13
				},
				{
					"input":10,
					"interpolation":"STEP",
					"output":14
				},
				{
					"input":10,
					"interpolation":"STEP",
					"output":19
				},
				{
					"input":7,
					"interpolation":"LINEAR",
					"output":16
				},
				{
					"input":10,
					"interpolation":"STEP",
					"output":17
				},
				{
					"input":10,
					"interpolation":"STEP",
					"output":20
				},
				{
					"input":7,
					"interpolation":"LINEAR",
					"output":21
				},
				{
					"input":10,
					"interpolation":"STEP",
					"output":22
				},
				{
					"input":10,
					"interpolation":"STEP",
					"output":23
				},
				{
					"input":7,
					"interpolation":"LINEAR",
					"output":24
				},
				{
					"input":10,
					"interpolation":"STEP",
					"output":25
				},
				{
					"input":10,
					"interpolation":"STEP",
					"output":26
				},
				{
					"input":7,
					"interpolation":"LINEAR",
					"output":21
				},
				{
					"input":10,
					"interpolation":"STEP",
					"output":22
				},
				{
					"input":10,
					"interpolation":"STEP",
					"output":27
				},
				{
					"input":7,
					"interpolation":"LINEAR",
					"output":24
				},
				{
					"input":10,
					"interpolation":"STEP",
					"output":25
				},
				{
					"input":10,
					"interpolation":"STEP",
					"output":28
				},
				{
					"input":7,
					"interpolation":"LINEAR",
					"output":29
				},
				{
					"input":10,
					"interpolation":"STEP",
					"output":25
				},
				{
					"input":10,
					"interpolation":"STEP",
					"output":30
				},
				{
					"input":7,
					"interpolation":"LINEAR",
					"output":31
				},
				{
					"input":10,
					"interpolation":"STEP",
					"output":32
				},
				{
					"input":10,
					"interpolation":"STEP",
					"output":33
				},
				{
					"input":10,
					"interpolation":"STEP",
					"output":34
				},
				{
					"input":10,
					"interpolation":"STEP",
					"output":35
				}
			]
		},
		{
			"channels":[
				{
					"sampler":0,
					"target":{
						"node":11,
						"path":"translation"
					}
				},
				{
					"sampler":1,
					"target":{
						"node":11,
						"path":"rotation"
					}
				},
				{
					"sampler":2,
					"target":{
						"node":11,
						"path":"scale"
					}
				},
				{
					"sampler":3,
					"target":{
						"node":1,
						"path":"translation"
					}
				},
				{
					"sampler":4,
					"target":{
						"node":1,
						"path":"rotation"
					}
				},
				{
					"sampler":5,
					"target":{
						"node":1,
						"path":"scale"
					}
				},
				{
					"sampler":6,
					"target":{
						"node":0,
						"path":"translation"
					}
				},
				{
					"sampler":7,
					"target":{
						"node":0,
						"path":"rotation"
					}
				},
				{
					"sampler":8,
					"target":{
						"node":0,
						"path":"scale"
					}
				},
				{
					"sampler":9,
					"target":{
						"node":3,
						"path":"translation"
					}
				},
				{
					"sampler":10,
					"target":{
						"node":3,
						"path":"rotation"
					}
				},
				{
					"sampler":11,
					"target":{
						"node":3,
						"path":"scale"
					}
				},
				{
					"sampler":12,
					"target":{
						"node":2,
						"path":"translation"
					}
				},
				{
					"sampler":13,
					"target":{
						"node":2,
						"path":"rotation"
					}
				},
				{
					"sampler":14,
					"target":{
						"node":2,
						"path":"scale"
					}
				},
				{
					"sampler":15,
					"target":{
						"node":5,
						"path":"translation"
					}
				},
				{
					"sampler":16,
					"target":{
						"node":5,
						"path":"rotation"
					}
				},
				{
					"sampler":17,
					"target":{
						"node":5,
						"path":"scale"
					}
				},
				{
					"sampler":18,
					"target":{
						"node":4,
						"path":"translation"
					}
				},
				{
					"sampler":19,
					"target":{
						"node":4,
						"path":"rotation"
					}
				},
				{
					"sampler":20,
					"target":{
						"node":4,
						"path":"scale"
					}
				},
				{
					"sampler":21,
					"target":{
						"node":7,
						"path":"translation"
					}
				},
				{
					"sampler":22,
					"target":{
						"node":7,
						"path":"rotation"
					}
				},
				{
					"sampler":23,
					"target":{
						"node":7,
						"path":"scale"
					}
				},
				{
					"sampler":24,
					"target":{
						"node":6,
						"path":"translation"
					}
				},
				{
					"sampler":25,
					"target":{
						"node":6,
						"path":"rotation"
					}
				},
				{
					"sampler":26,
					"target":{
						"node":6,
						"path":"scale"
					}
				},
				{
					"sampler":27,
					"target":{
						"node":9,
						"path":"translation"
					}
				},
				{
					"sampler":28,
					"target":{
						"node":9,
						"path":"rotation"
					}
				},
				{
					"sampler":29,
					"target":{
						"node":9,
						"path":"scale"
					}
				},
				{
					"sampler":30,
					"target":{
						"node":8,
						"path":"translation"
					}
				},
				{
					"sampler":31,
					"target":{
						"node":8,
						"path":"rotation"
					}
				},
				{
					"sampler":32,
					"target":{
						"node":8,
						"path":"scale"
					}
				},
				{
					"sampler":33,
					"target":{
						"node":10,
						"path":"translation"
					}
				},
				{
					"sampler":34,
					"target":{
						"node":10,
						"path":"rotation"
					}
				},
				{
					"sampler":35,
					"target":{
						"node":10,
						"path":"scale"
					}
				}
			],
			"name":"Idle",
			"samplers":[
				{
					"input":36,
					"interpolation":"LINEAR",
					"output":37
				},
				{
					"input":38,
					"interpolation":"STEP",
					"output":39
				},
				{
					"input":38,
					"interpolation":"STEP",
					"output":11
				},
				{
					"input":38,
					"interpolation":"STEP",
					"output":12
				},
				{
					"input":38,
					"interpolation":"STEP",
					"output":40
				},
				{
					"input":38,
					"interpolation":"STEP",
					"output":14
				},
				{
					"input":38,
					"interpolation":"STEP",
					"output":15
				},
				{
					"input":38,
					"interpolation":"STEP",
					"output":41
				},
				{
					"input":38,
					"interpolation":"STEP",
					"output":17
				},
				{
					"input":38,
					"interpolation":"STEP",
					"output":18
				},
				{
					"input":38,
					"interpolation":"STEP",
					"output":40
				},
				{
					"input":38,
					"interpolation":"STEP",
					"output":14
				},
				{
					"input":38,
					"interpolation":"STEP",
					"output":19
				},
				{
					"input":38,
					"interpolation":"STEP",
					"output":41
				},
				{
					"input":38,
					"interpolation":"STEP",
					"output":17
				},
				{
					"input":38,
					"interpolation":"STEP",
					"output":20
				},
				{
					"input":38,
					"interpolation":"STEP",
					"output":42
				},
				{
					"input":38,
					"interpolation":"STEP",
					"output":22
				},
				{
					"input":38,
					"interpolation":"STEP",
					"output":23
				},
				{
					"input":38,
					"interpolation":"STEP",
					"output":43
				},
				{
					"input":38,
					"interpolation":"STEP",
					"output":25
				},
				{
					"input":38,
					"interpolation":"STEP",
					"output":26
				},
				{
					"input":38,
					"interpolation":"STEP",
					"output":42
				},
				{
					"input":38,
					"interpolation":"STEP",
					"output":22
				},
				{
					"input":38,
					"interpolation":"STEP",
					"output":27
				},
				{
					"input":38,
					"interpolation":"STEP",
					"output":43
				},
				{
					"input":38,
					"interpolation":"STEP",
					"output":25
				},
				{
					"input":38,
					"interpolation":"STEP",
					"output":28
				},
				{
					"input":36,
					"interpolation":"LINEAR",
					"output":44
				},
				{
					"input":38,
					"interpolation":"STEP",
					"output":25
				},
				{
					"input":38,
					"interpolation":"STEP",
					"output":45
				},
				{
					"input":36,
					"interpolation":"LINEAR",
					"output":46
				},
				{
					"input":38,
					"interpolation":"STEP",
					"output":32
				},
				{
					"input":38,
					"interpolation":"STEP",
					"output":33
				},
				{
					"input":36,
					"interpolation":"LINEAR",
					"output":47
				},
				{
					"input":38,
					"interpolation":"STEP",
					"output":35
				}
			]
		},
		{
			"channels":[
				{
					"sampler":0,
					"target":{
						"node":11,
						"path":"translation"
					}
				},
				{
					"sampler":1,
					"target":{
						"node":11,
						"path":"rotation"
					}
				},
				{
					"sampler":2,
					"target":{
						"node":11,
						"path":"scale"
					}
				},
				{
					"sampler":3,
					"target":{
						"node":1,
						"path":"translation"
					}
				},
				{
					"sampler":4,
					"target":{
						"node":1,
						"path":"rotation"
					}
				},
				{
					"sampler":5,
					"target":{
						"node":1,
						"path":"scale"
					}
				},
				{
					"sampler":6,
					"target":{
						"node":0,
						"path":"translation"
					}
				},
				{
					"sampler":7,
					"target":{
						"node":0,
						"path":"rotation"
					}
				},
				{
					"sampler":8,
					"target":{
						"node":0,
						"path":"scale"
					}
				},
				{
					"sampler":9,
					"target":{
						"node":3,
						"path":"translation"
					}
				},
				{
					"sampler":10,
					"target":{
						"node":3,
						"path":"rotation"
					}
				},
				{
					"sampler":11,
					"target":{
						"node":3,
						"path":"scale"
					}
				},
				{
					"sampler":12,
					"target":{
						"node":2,
						"path":"translation"
					}
				},
				{
					"sampler":13,
					"target":{
						"node":2,
						"path":"rotation"
					}
				},
				{
					"sampler":14,
					"target":{
						"node":2,
						"path":"scale"
					}
				},
				{
					"sampler":15,
					"target":{
						"node":5,
						"path":"translation"
					}
				},
				{
					"sampler":16,
					"target":{
						"node":5,
						"path":"rotation"
					}
				},
				{
					"sampler":17,
					"target":{
						"node":5,
						"path":"scale"
					}
				},
				{
					"sampler":18,
					"target":{
						"node":4,
						"path":"translation"
					}
				},
				{
					"sampler":19,
					"target":{
						"node":4,
						"path":"rotation"
					}
				},
				{
					"sampler":20,
					"target":{
						"node":4,
						"path":"scale"
					}
				},
				{
					"sampler":21,
					"target":{
						"node":7,
						"path":"translation"
					}
				},
				{
					"sampler":22,
					"target":{
						"node":7,
						"path":"rotation"
					}
				},
				{
					"sampler":23,
					"target":{
						"node":7,
						"path":"scale"
					}
				},
				{
					"sampler":24,
					"target":{
						"node":6,
						"path":"translation"
					}
				},
				{
					"sampler":25,
					"target":{
						"node":6,
						"path":"rotation"
					}
				},
				{
					"sampler":26,
					"target":{
						"node":6,
						"path":"scale"
					}
				},
				{
					"sampler":27,
					"target":{
						"node":9,
						"path":"translation"
					}
				},
				{
					"sampler":28,
					"target":{
						"node":9,
						"path":"rotation"
					}
				},
				{
					"sampler":29,
					"target":{
						"node":9,
						"path":"scale"
					}
				},
				{
					"sampler":30,
					"target":{
						"node":8,
						"path":"translation"
					}
				},
				{
					"sampler":31,
					"target":{
						"node":8,
						"path":"rotation"
					}
				},
				{
					"sampler":32,
					"target":{
						"node":8,
						"path":"scale"
					}
				},
				{
					"sampler":33,
					"target":{
						"node":10,
						"path":"translation"
					}
				},
				{
					"sampler":34,
					"target":{
						"node":10,
						"path":"rotation"
					}
				},
				{
					"sampler":35,
					"target":{
						"node":10,
						"path":"scale"
					}
				}
			],
			"name":"Laufen",
			"samplers":[
				{
					"input":48,
					"interpolation":"LINEAR",
					"output":49
				},
				{
					"input":50,
					"interpolation":"STEP",
					"output":39
				},
				{
					"input":50,
					"interpolation":"STEP",
					"output":11
				},
				{
					"input":50,
					"interpolation":"STEP",
					"output":12
				},
				{
					"input":48,
					"interpolation":"LINEAR",
					"output":51
				},
				{
					"input":50,
					"interpolation":"STEP",
					"output":14
				},
				{
					"input":50,
					"interpolation":"STEP",
					"output":52
				},
				{
					"input":48,
					"interpolation":"LINEAR",
					"output":53
				},
				{
					"input":50,
					"interpolation":"STEP",
					"output":35
				},
				{
					"input":50,
					"interpolation":"STEP",
					"output":18
				},
				{
					"input":48,
					"interpolation":"LINEAR",
					"output":54
				},
				{
					"input":50,
					"interpolation":"STEP",
					"output":55
				},
				{
					"input":50,
					"interpolation":"STEP",
					"output":56
				},
				{
					"input":48,
					"interpolation":"LINEAR",
					"output":57
				},
				{
					"input":50,
					"interpolation":"STEP",
					"output":58
				},
				{
					"input":50,
					"interpolation":"STEP",
					"output":20
				},
				{
					"input":48,
					"interpolation":"LINEAR",
					"output":59
				},
				{
					"input":50,
					"interpolation":"STEP",
					"output":22
				},
				{
					"input":50,
					"interpolation":"STEP",
					"output":60
				},
				{
					"input":48,
					"interpolation":"LINEAR",
					"output":61
				},
				{
					"input":50,
					"interpolation":"STEP",
					"output":25
				},
				{
					"input":50,
					"interpolation":"STEP",
					"output":26
				},
				{
					"input":48,
					"interpolation":"LINEAR",
					"output":62
				},
				{
					"input":50,
					"interpolation":"STEP",
					"output":22
				},
				{
					"input":50,
					"interpolation":"STEP",
					"output":63
				},
				{
					"input":48,
					"interpolation":"LINEAR",
					"output":64
				},
				{
					"input":50,
					"interpolation":"STEP",
					"output":25
				},
				{
					"input":50,
					"interpolation":"STEP",
					"output":28
				},
				{
					"input":50,
					"interpolation":"STEP",
					"output":65
				},
				{
					"input":50,
					"interpolation":"STEP",
					"output":25
				},
				{
					"input":50,
					"interpolation":"STEP",
					"output":30
				},
				{
					"input":48,
					"interpolation":"LINEAR",
					"output":66
				},
				{
					"input":50,
					"interpolation":"STEP",
					"output":32
				},
				{
					"input":50,
					"interpolation":"STEP",
					"output":33
				},
				{
					"input":48,
					"interpolation":"LINEAR",
					"output":67
				},
				{
					"input":50,
					"interpolation":"STEP",
					"output":35
				}
			]
		},
		{
			"channels":[
				{
					"sampler":0,
					"target":{
						"node":11,
						"path":"translation"
					}
				},
				{
					"sampler":1,
					"target":{
						"node":11,
						"path":"rotation"
					}
				},
				{
					"sampler":2,
					"target":{
						"node":11,
						"path":"scale"
					}
				},
				{
					"sampler":3,
					"target":{
						"node":1,
						"path":"translation"
					}
				},
				{
					"sampler":4,
					"target":{
						"node":1,
						"path":"rotation"
					}
				},
				{
					"sampler":5,
					"target":{
						"node":1,
						"path":"scale"
					}
				},
				{
					"sampler":6,
					"target":{
						"node":0,
						"path":"translation"
					}
				},
				{
					"sampler":7,
					"target":{
						"node":0,
						"path":"rotation"
					}
				},
				{
					"sampler":8,
					"target":{
						"node":0,
						"path":"scale"
					}
				},
				{
					"sampler":9,
					"target":{
						"node":3,
						"path":"translation"
					}
				},
				{
					"sampler":10,
					"target":{
						"node":3,
						"path":"rotation"
					}
				},
				{
					"sampler":11,
					"target":{
						"node":3,
						"path":"scale"
					}
				},
				{
					"sampler":12,
					"target":{
						"node":2,
						"path":"translation"
					}
				},
				{
					"sampler":13,
					"target":{
						"node":2,
						"path":"rotation"
					}
				},
				{
					"sampler":14,
					"target":{
						"node":2,
						"path":"scale"
					}
				},
				{
					"sampler":15,
					"target":{
						"node":5,
						"path":"translation"
					}
				},
				{
					"sampler":16,
					"target":{
						"node":5,
						"path":"rotation"
					}
				},
				{
					"sampler":17,
					"target":{
						"node":5,
						"path":"scale"
					}
				},
				{
					"sampler":18,
					"target":{
						"node":4,
						"path":"translation"
					}
				},
				{
					"sampler":19,
					"target":{
						"node":4,
						"path":"rotation"
					}
				},
				{
					"sampler":20,
					"target":{
						"node":4,
						"path":"scale"
					}
				},
				{
					"sampler":21,
					"target":{
						"node":7,
						"path":"translation"
					}
				},
				{
					"sampler":22,
					"target":{
						"node":7,
						"path":"rotation"
					}
				},
				{
					"sampler":23,
					"target":{
						"node":7,
						"path":"scale"
					}
				},
				{
					"sampler":24,
					"target":{
						"node":6,
						"path":"translation"
					}
				},
				{
					"sampler":25,
					"target":{
						"node":6,
						"path":"rotation"
					}
				},
				{
					"sampler":26,
					"target":{
						"node":6,
						"path":"scale"
					}
				},
				{
					"sampler":27,
					"target":{
						"node":9,
						"path":"translation"
					}
				},
				{
					"sampler":28,
					"target":{
						"node":9,
						"path":"rotation"
					}
				},
				{
					"sampler":29,
					"target":{
						"node":9,
						"path":"scale"
					}
				},
				{
					"sampler":30,
					"target":{
						"node":8,
						"path":"translation"
					}
				},
				{
					"sampler":31,
					"target":{
						"node":8,
						"path":"rotation"
					}
				},
				{
					"sampler":32,
					"target":{
						"node":8,
						"path":"scale"
					}
				},
				{
					"sampler":33,
					"target":{
						"node":10,
						"path":"translation"
					}
				},
				{
					"sampler":34,
					"target":{
						"node":10,
						"path":"rotation"
					}
				},
				{
					"sampler":35,
					"target":{
						"node":10,
						"path":"scale"
					}
				}
			],
			"name":"Rennen",
			"samplers":[
				{
					"input":68,
					"interpolation":"LINEAR",
					"output":69
				},
				{
					"input":68,
					"interpolation":"LINEAR",
					"output":70
				},
				{
					"input":71,
					"interpolation":"STEP",
					"output":72
				},
				{
					"input":71,
					"interpolation":"STEP",
					"output":73
				},
				{
					"input":68,
					"interpolation":"LINEAR",
					"output":74
				},
				{
					"input":71,
					"interpolation":"STEP",
					"output":25
				},
				{
					"input":71,
					"interpolation":"STEP",
					"output":75
				},
				{
					"input":68,
					"interpolation":"LINEAR",
					"output":76
				},
				{
					"input":71,
					"interpolation":"STEP",
					"output":77
				},
				{
					"input":71,
					"interpolation":"STEP",
					"output":78
				},
				{
					"input":68,
					"interpolation":"LINEAR",
					"output":79
				},
				{
					"input":71,
					"interpolation":"STEP",
					"output":25
				},
				{
					"input":71,
					"interpolation":"STEP",
					"output":80
				},
				{
					"input":68,
					"interpolation":"LINEAR",
					"output":81
				},
				{
					"input":71,
					"interpolation":"STEP",
					"output":77
				},
				{
					"input":71,
					"interpolation":"STEP",
					"output":82
				},
				{
					"input":68,
					"interpolation":"LINEAR",
					"output":83
				},
				{
					"input":71,
					"interpolation":"STEP",
					"output":25
				},
				{
					"input":71,
					"interpolation":"STEP",
					"output":84
				},
				{
					"input":68,
					"interpolation":"LINEAR",
					"output":85
				},
				{
					"input":71,
					"interpolation":"STEP",
					"output":77
				},
				{
					"input":71,
					"interpolation":"STEP",
					"output":86
				},
				{
					"input":68,
					"interpolation":"LINEAR",
					"output":87
				},
				{
					"input":71,
					"interpolation":"STEP",
					"output":25
				},
				{
					"input":71,
					"interpolation":"STEP",
					"output":88
				},
				{
					"input":68,
					"interpolation":"LINEAR",
					"output":89
				},
				{
					"input":71,
					"interpolation":"STEP",
					"output":90
				},
				{
					"input":71,
					"interpolation":"STEP",
					"output":91
				},
				{
					"input":71,
					"interpolation":"STEP",
					"output":92
				},
				{
					"input":71,
					"interpolation":"STEP",
					"output":25
				},
				{
					"input":71,
					"interpolation":"STEP",
					"output":93
				},
				{
					"input":68,
					"interpolation":"LINEAR",
					"output":94
				},
				{
					"input":71,
					"interpolation":"STEP",
					"output":25
				},
				{
					"input":71,
					"interpolation":"STEP",
					"output":95
				},
				{
					"input":68,
					"interpolation":"LINEAR",
					"output":96
				},
				{
					"input":71,
					"interpolation":"STEP",
					"output":97
				}
			]
		}
	],
	"materials":[
		{
			"doubleSided":true,
			"name":"Keiler",
			"pbrMetallicRoughness":{
				"metallicFactor":0,
				"roughnessFactor":0.8999999761581421
			}
		}
	],
	"meshes":[
		{
			"name":"Keiler",
			"primitives":[
				{
					"attributes":{
						"POSITION":0,
						"NORMAL":1,
						"COLOR_0":2,
						"JOINTS_0":3,
						"WEIGHTS_0":4
					},
					"indices":5,
					"material":0
				}
			]
		}
	],
	"skins":[
		{
			"inverseBindMatrices":6,
			"joints":[
				11,
				1,
				0,
				3,
				2,
				5,
				4,
				7,
				6,
				9,
				8,
				10
			],
			"name":"KeilerSkelett"
		}
	],
	"accessors":[
		{
			"bufferView":0,
			"componentType":5126,
			"count":5606,
			"max":[
				0.2422783225774765,
				1.0662026405334473,
				0.9768000245094299
			],
			"min":[
				-0.24221228063106537,
				0.015775425359606743,
				-0.5854942798614502
			],
			"type":"VEC3"
		},
		{
			"bufferView":1,
			"componentType":5126,
			"count":5606,
			"type":"VEC3"
		},
		{
			"bufferView":2,
			"componentType":5126,
			"count":5606,
			"type":"VEC3"
		},
		{
			"bufferView":3,
			"componentType":5121,
			"count":5606,
			"type":"VEC4"
		},
		{
			"bufferView":4,
			"componentType":5126,
			"count":5606,
			"type":"VEC4"
		},
		{
			"bufferView":5,
			"componentType":5123,
			"count":28440,
			"type":"SCALAR"
		},
		{
			"bufferView":6,
			"componentType":5126,
			"count":12,
			"type":"MAT4"
		},
		{
			"bufferView":7,
			"componentType":5126,
			"count":29,
			"max":[
				0.9333333333333333
			],
			"min":[
				0
			],
			"type":"SCALAR"
		},
		{
			"bufferView":8,
			"componentType":5126,
			"count":29,
			"type":"VEC3"
		},
		{
			"bufferView":9,
			"componentType":5126,
			"count":29,
			"type":"VEC4"
		},
		{
			"bufferView":10,
			"componentType":5126,
			"count":2,
			"max":[
				0.9333333333333333
			],
			"min":[
				0
			],
			"type":"SCALAR"
		},
		{
			"bufferView":11,
			"componentType":5126,
			"count":2,
			"type":"VEC3"
		},
		{
			"bufferView":12,
			"componentType":5126,
			"count":2,
			"type":"VEC3"
		},
		{
			"bufferView":13,
			"componentType":5126,
			"count":29,
			"type":"VEC4"
		},
		{
			"bufferView":14,
			"componentType":5126,
			"count":2,
			"type":"VEC3"
		},
		{
			"bufferView":15,
			"componentType":5126,
			"count":2,
			"type":"VEC3"
		},
		{
			"bufferView":16,
			"componentType":5126,
			"count":29,
			"type":"VEC4"
		},
		{
			"bufferView":17,
			"componentType":5126,
			"count":2,
			"type":"VEC3"
		},
		{
			"bufferView":18,
			"componentType":5126,
			"count":2,
			"type":"VEC3"
		},
		{
			"bufferView":19,
			"componentType":5126,
			"count":2,
			"type":"VEC3"
		},
		{
			"bufferView":20,
			"componentType":5126,
			"count":2,
			"type":"VEC3"
		},
		{
			"bufferView":21,
			"componentType":5126,
			"count":29,
			"type":"VEC4"
		},
		{
			"bufferView":22,
			"componentType":5126,
			"count":2,
			"type":"VEC3"
		},
		{
			"bufferView":23,
			"componentType":5126,
			"count":2,
			"type":"VEC3"
		},
		{
			"bufferView":24,
			"componentType":5126,
			"count":29,
			"type":"VEC4"
		},
		{
			"bufferView":25,
			"componentType":5126,
			"count":2,
			"type":"VEC3"
		},
		{
			"bufferView":26,
			"componentType":5126,
			"count":2,
			"type":"VEC3"
		},
		{
			"bufferView":27,
			"componentType":5126,
			"count":2,
			"type":"VEC3"
		},
		{
			"bufferView":28,
			"componentType":5126,
			"count":2,
			"type":"VEC3"
		},
		{
			"bufferView":29,
			"componentType":5126,
			"count":29,
			"type":"VEC4"
		},
		{
			"bufferView":30,
			"componentType":5126,
			"count":2,
			"type":"VEC3"
		},
		{
			"bufferView":31,
			"componentType":5126,
			"count":29,
			"type":"VEC4"
		},
		{
			"bufferView":32,
			"componentType":5126,
			"count":2,
			"type":"VEC3"
		},
		{
			"bufferView":33,
			"componentType":5126,
			"count":2,
			"type":"VEC3"
		},
		{
			"bufferView":34,
			"componentType":5126,
			"count":2,
			"type":"VEC4"
		},
		{
			"bufferView":35,
			"componentType":5126,
			"count":2,
			"type":"VEC3"
		},
		{
			"bufferView":36,
			"componentType":5126,
			"count":181,
			"max":[
				6
			],
			"min":[
				0
			],
			"type":"SCALAR"
		},
		{
			"bufferView":37,
			"componentType":5126,
			"count":181,
			"type":"VEC3"
		},
		{
			"bufferView":38,
			"componentType":5126,
			"count":2,
			"max":[
				6
			],
			"min":[
				0
			],
			"type":"SCALAR"
		},
		{
			"bufferView":39,
			"componentType":5126,
			"count":2,
			"type":"VEC4"
		},
		{
			"bufferView":40,
			"componentType":5126,
			"count":2,
			"type":"VEC4"
		},
		{
			"bufferView":41,
			"componentType":5126,
			"count":2,
			"type":"VEC4"
		},
		{
			"bufferView":42,
			"componentType":5126,
			"count":2,
			"type":"VEC4"
		},
		{
			"bufferView":43,
			"componentType":5126,
			"count":2,
			"type":"VEC4"
		},
		{
			"bufferView":44,
			"componentType":5126,
			"count":181,
			"type":"VEC4"
		},
		{
			"bufferView":45,
			"componentType":5126,
			"count":2,
			"type":"VEC3"
		},
		{
			"bufferView":46,
			"componentType":5126,
			"count":181,
			"type":"VEC4"
		},
		{
			"bufferView":47,
			"componentType":5126,
			"count":181,
			"type":"VEC4"
		},
		{
			"bufferView":48,
			"componentType":5126,
			"count":17,
			"max":[
				0.5333333333333333
			],
			"min":[
				0
			],
			"type":"SCALAR"
		},
		{
			"bufferView":49,
			"componentType":5126,
			"count":17,
			"type":"VEC3"
		},
		{
			"bufferView":50,
			"componentType":5126,
			"count":2,
			"max":[
				0.5333333333333333
			],
			"min":[
				0
			],
			"type":"SCALAR"
		},
		{
			"bufferView":51,
			"componentType":5126,
			"count":17,
			"type":"VEC4"
		},
		{
			"bufferView":52,
			"componentType":5126,
			"count":2,
			"type":"VEC3"
		},
		{
			"bufferView":53,
			"componentType":5126,
			"count":17,
			"type":"VEC4"
		},
		{
			"bufferView":54,
			"componentType":5126,
			"count":17,
			"type":"VEC4"
		},
		{
			"bufferView":55,
			"componentType":5126,
			"count":2,
			"type":"VEC3"
		},
		{
			"bufferView":56,
			"componentType":5126,
			"count":2,
			"type":"VEC3"
		},
		{
			"bufferView":57,
			"componentType":5126,
			"count":17,
			"type":"VEC4"
		},
		{
			"bufferView":58,
			"componentType":5126,
			"count":2,
			"type":"VEC3"
		},
		{
			"bufferView":59,
			"componentType":5126,
			"count":17,
			"type":"VEC4"
		},
		{
			"bufferView":60,
			"componentType":5126,
			"count":2,
			"type":"VEC3"
		},
		{
			"bufferView":61,
			"componentType":5126,
			"count":17,
			"type":"VEC4"
		},
		{
			"bufferView":62,
			"componentType":5126,
			"count":17,
			"type":"VEC4"
		},
		{
			"bufferView":63,
			"componentType":5126,
			"count":2,
			"type":"VEC3"
		},
		{
			"bufferView":64,
			"componentType":5126,
			"count":17,
			"type":"VEC4"
		},
		{
			"bufferView":65,
			"componentType":5126,
			"count":2,
			"type":"VEC4"
		},
		{
			"bufferView":66,
			"componentType":5126,
			"count":17,
			"type":"VEC4"
		},
		{
			"bufferView":67,
			"componentType":5126,
			"count":17,
			"type":"VEC4"
		},
		{
			"bufferView":68,
			"componentType":5126,
			"count":13,
			"max":[
				0.4
			],
			"min":[
				0
			],
			"type":"SCALAR"
		},
		{
			"bufferView":69,
			"componentType":5126,
			"count":13,
			"type":"VEC3"
		},
		{
			"bufferView":70,
			"componentType":5126,
			"count":13,
			"type":"VEC4"
		},
		{
			"bufferView":71,
			"componentType":5126,
			"count":2,
			"max":[
				0.4
			],
			"min":[
				0
			],
			"type":"SCALAR"
		},
		{
			"bufferView":72,
			"componentType":5126,
			"count":2,
			"type":"VEC3"
		},
		{
			"bufferView":73,
			"componentType":5126,
			"count":2,
			"type":"VEC3"
		},
		{
			"bufferView":74,
			"componentType":5126,
			"count":13,
			"type":"VEC4"
		},
		{
			"bufferView":75,
			"componentType":5126,
			"count":2,
			"type":"VEC3"
		},
		{
			"bufferView":76,
			"componentType":5126,
			"count":13,
			"type":"VEC4"
		},
		{
			"bufferView":77,
			"componentType":5126,
			"count":2,
			"type":"VEC3"
		},
		{
			"bufferView":78,
			"componentType":5126,
			"count":2,
			"type":"VEC3"
		},
		{
			"bufferView":79,
			"componentType":5126,
			"count":13,
			"type":"VEC4"
		},
		{
			"bufferView":80,
			"componentType":5126,
			"count":2,
			"type":"VEC3"
		},
		{
			"bufferView":81,
			"componentType":5126,
			"count":13,
			"type":"VEC4"
		},
		{
			"bufferView":82,
			"componentType":5126,
			"count":2,
			"type":"VEC3"
		},
		{
			"bufferView":83,
			"componentType":5126,
			"count":13,
			"type":"VEC4"
		},
		{
			"bufferView":84,
			"componentType":5126,
			"count":2,
			"type":"VEC3"
		},
		{
			"bufferView":85,
			"componentType":5126,
			"count":13,
			"type":"VEC4"
		},
		{
			"bufferView":86,
			"componentType":5126,
			"count":2,
			"type":"VEC3"
		},
		{
			"bufferView":87,
			"componentType":5126,
			"count":13,
			"type":"VEC4"
		},
		{
			"bufferView":88,
			"componentType":5126,
			"count":2,
			"type":"VEC3"
		},
		{
			"bufferView":89,
			"componentType":5126,
			"count":13,
			"type":"VEC4"
		},
		{
			"bufferView":90,
			"componentType":5126,
			"count":2,
			"type":"VEC3"
		},
		{
			"bufferView":91,
			"componentType":5126,
			"count":2,
			"type":"VEC3"
		},
		{
			"bufferView":92,
			"componentType":5126,
			"count":2,
			"type":"VEC4"
		},
		{
			"bufferView":93,
			"componentType":5126,
			"count":2,
			"type":"VEC3"
		},
		{
			"bufferView":94,
			"componentType":5126,
			"count":13,
			"type":"VEC4"
		},
		{
			"bufferView":95,
			"componentType":5126,
			"count":2,
			"type":"VEC3"
		},
		{
			"bufferView":96,
			"componentType":5126,
			"count":13,
			"type":"VEC4"
		},
		{
			"bufferView":97,
			"componentType":5126,
			"count":2,
			"type":"VEC3"
		}
	],
	"bufferViews":[
		{
			"buffer":0,
			"byteLength":67272,
			"byteOffset":0,
			"target":34962
		},
		{
			"buffer":0,
			"byteLength":67272,
			"byteOffset":67272,
			"target":34962
		},
		{
			"buffer":0,
			"byteLength":67272,
			"byteOffset":134544,
			"target":34962
		},
		{
			"buffer":0,
			"byteLength":22424,
			"byteOffset":201816,
			"target":34962
		},
		{
			"buffer":0,
			"byteLength":89696,
			"byteOffset":224240,
			"target":34962
		},
		{
			"buffer":0,
			"byteLength":56880,
			"byteOffset":313936,
			"target":34963
		},
		{
			"buffer":0,
			"byteLength":768,
			"byteOffset":370816
		},
		{
			"buffer":0,
			"byteLength":116,
			"byteOffset":371584
		},
		{
			"buffer":0,
			"byteLength":348,
			"byteOffset":371700
		},
		{
			"buffer":0,
			"byteLength":464,
			"byteOffset":372048
		},
		{
			"buffer":0,
			"byteLength":8,
			"byteOffset":372512
		},
		{
			"buffer":0,
			"byteLength":24,
			"byteOffset":372520
		},
		{
			"buffer":0,
			"byteLength":24,
			"byteOffset":372544
		},
		{
			"buffer":0,
			"byteLength":464,
			"byteOffset":372568
		},
		{
			"buffer":0,
			"byteLength":24,
			"byteOffset":373032
		},
		{
			"buffer":0,
			"byteLength":24,
			"byteOffset":373056
		},
		{
			"buffer":0,
			"byteLength":464,
			"byteOffset":373080
		},
		{
			"buffer":0,
			"byteLength":24,
			"byteOffset":373544
		},
		{
			"buffer":0,
			"byteLength":24,
			"byteOffset":373568
		},
		{
			"buffer":0,
			"byteLength":24,
			"byteOffset":373592
		},
		{
			"buffer":0,
			"byteLength":24,
			"byteOffset":373616
		},
		{
			"buffer":0,
			"byteLength":464,
			"byteOffset":373640
		},
		{
			"buffer":0,
			"byteLength":24,
			"byteOffset":374104
		},
		{
			"buffer":0,
			"byteLength":24,
			"byteOffset":374128
		},
		{
			"buffer":0,
			"byteLength":464,
			"byteOffset":374152
		},
		{
			"buffer":0,
			"byteLength":24,
			"byteOffset":374616
		},
		{
			"buffer":0,
			"byteLength":24,
			"byteOffset":374640
		},
		{
			"buffer":0,
			"byteLength":24,
			"byteOffset":374664
		},
		{
			"buffer":0,
			"byteLength":24,
			"byteOffset":374688
		},
		{
			"buffer":0,
			"byteLength":464,
			"byteOffset":374712
		},
		{
			"buffer":0,
			"byteLength":24,
			"byteOffset":375176
		},
		{
			"buffer":0,
			"byteLength":464,
			"byteOffset":375200
		},
		{
			"buffer":0,
			"byteLength":24,
			"byteOffset":375664
		},
		{
			"buffer":0,
			"byteLength":24,
			"byteOffset":375688
		},
		{
			"buffer":0,
			"byteLength":32,
			"byteOffset":375712
		},
		{
			"buffer":0,
			"byteLength":24,
			"byteOffset":375744
		},
		{
			"buffer":0,
			"byteLength":724,
			"byteOffset":375768
		},
		{
			"buffer":0,
			"byteLength":2172,
			"byteOffset":376492
		},
		{
			"buffer":0,
			"byteLength":8,
			"byteOffset":378664
		},
		{
			"buffer":0,
			"byteLength":32,
			"byteOffset":378672
		},
		{
			"buffer":0,
			"byteLength":32,
			"byteOffset":378704
		},
		{
			"buffer":0,
			"byteLength":32,
			"byteOffset":378736
		},
		{
			"buffer":0,
			"byteLength":32,
			"byteOffset":378768
		},
		{
			"buffer":0,
			"byteLength":32,
			"byteOffset":378800
		},
		{
			"buffer":0,
			"byteLength":2896,
			"byteOffset":378832
		},
		{
			"buffer":0,
			"byteLength":24,
			"byteOffset":381728
		},
		{
			"buffer":0,
			"byteLength":2896,
			"byteOffset":381752
		},
		{
			"buffer":0,
			"byteLength":2896,
			"byteOffset":384648
		},
		{
			"buffer":0,
			"byteLength":68,
			"byteOffset":387544
		},
		{
			"buffer":0,
			"byteLength":204,
			"byteOffset":387612
		},
		{
			"buffer":0,
			"byteLength":8,
			"byteOffset":387816
		},
		{
			"buffer":0,
			"byteLength":272,
			"byteOffset":387824
		},
		{
			"buffer":0,
			"byteLength":24,
			"byteOffset":388096
		},
		{
			"buffer":0,
			"byteLength":272,
			"byteOffset":388120
		},
		{
			"buffer":0,
			"byteLength":272,
			"byteOffset":388392
		},
		{
			"buffer":0,
			"byteLength":24,
			"byteOffset":388664
		},
		{
			"buffer":0,
			"byteLength":24,
			"byteOffset":388688
		},
		{
			"buffer":0,
			"byteLength":272,
			"byteOffset":388712
		},
		{
			"buffer":0,
			"byteLength":24,
			"byteOffset":388984
		},
		{
			"buffer":0,
			"byteLength":272,
			"byteOffset":389008
		},
		{
			"buffer":0,
			"byteLength":24,
			"byteOffset":389280
		},
		{
			"buffer":0,
			"byteLength":272,
			"byteOffset":389304
		},
		{
			"buffer":0,
			"byteLength":272,
			"byteOffset":389576
		},
		{
			"buffer":0,
			"byteLength":24,
			"byteOffset":389848
		},
		{
			"buffer":0,
			"byteLength":272,
			"byteOffset":389872
		},
		{
			"buffer":0,
			"byteLength":32,
			"byteOffset":390144
		},
		{
			"buffer":0,
			"byteLength":272,
			"byteOffset":390176
		},
		{
			"buffer":0,
			"byteLength":272,
			"byteOffset":390448
		},
		{
			"buffer":0,
			"byteLength":52,
			"byteOffset":390720
		},
		{
			"buffer":0,
			"byteLength":156,
			"byteOffset":390772
		},
		{
			"buffer":0,
			"byteLength":208,
			"byteOffset":390928
		},
		{
			"buffer":0,
			"byteLength":8,
			"byteOffset":391136
		},
		{
			"buffer":0,
			"byteLength":24,
			"byteOffset":391144
		},
		{
			"buffer":0,
			"byteLength":24,
			"byteOffset":391168
		},
		{
			"buffer":0,
			"byteLength":208,
			"byteOffset":391192
		},
		{
			"buffer":0,
			"byteLength":24,
			"byteOffset":391400
		},
		{
			"buffer":0,
			"byteLength":208,
			"byteOffset":391424
		},
		{
			"buffer":0,
			"byteLength":24,
			"byteOffset":391632
		},
		{
			"buffer":0,
			"byteLength":24,
			"byteOffset":391656
		},
		{
			"buffer":0,
			"byteLength":208,
			"byteOffset":391680
		},
		{
			"buffer":0,
			"byteLength":24,
			"byteOffset":391888
		},
		{
			"buffer":0,
			"byteLength":208,
			"byteOffset":391912
		},
		{
			"buffer":0,
			"byteLength":24,
			"byteOffset":392120
		},
		{
			"buffer":0,
			"byteLength":208,
			"byteOffset":392144
		},
		{
			"buffer":0,
			"byteLength":24,
			"byteOffset":392352
		},
		{
			"buffer":0,
			"byteLength":208,
			"byteOffset":392376
		},
		{
			"buffer":0,
			"byteLength":24,
			"byteOffset":392584
		},
		{
			"buffer":0,
			"byteLength":208,
			"byteOffset":392608
		},
		{
			"buffer":0,
			"byteLength":24,
			"byteOffset":392816
		},
		{
			"buffer":0,
			"byteLength":208,
			"byteOffset":392840
		},
		{
			"buffer":0,
			"byteLength":24,
			"byteOffset":393048
		},
		{
			"buffer":0,
			"byteLength":24,
			"byteOffset":393072
		},
		{
			"buffer":0,
			"byteLength":32,
			"byteOffset":393096
		},
		{
			"buffer":0,
			"byteLength":24,
			"byteOffset":393128
		},
		{
			"buffer":0,
			"byteLength":208,
			"byteOffset":393152
		},
		{
			"buffer":0,
			"byteLength":24,
			"byteOffset":393360
		},
		{
			"buffer":0,
			"byteLength":208,
			"byteOffset":393384
		},
		{
			"buffer":0,
			"byteLength":24,
			"byteOffset":393592
		}
	],
	"buffers":[
		{
			"byteLength":393616,
			"uri":"keiler.bin"
		}
	]
}
