{
	"asset":{
		"generator":"Khronos glTF Blender I/O v5.2.40",
		"version":"2.0"
	},
	"scene":0,
	"scenes":[
		{
			"name":"Scene",
			"nodes":[
				20
			]
		}
	],
	"nodes":[
		{
			"name":"Hut",
			"rotation":[
				-0.49269893765449524,
				0,
				0,
				0.8701998591423035
			],
			"translation":[
				0,
				0.6090002059936523,
				-0.041999995708465576
			]
		},
		{
			"children":[
				0
			],
			"name":"Kopf",
			"translation":[
				0,
				0.18899989128112793,
				0
			]
		},
		{
			"children":[
				1
			],
			"name":"Hals",
			"translation":[
				0,
				0.5460000038146973,
				0
			]
		},
		{
			"name":"Hand.L",
			"rotation":[
				-0.029935462400317192,
				-0.0012852993095293641,
				0.008676205761730671,
				0.9995133876800537
			],
			"scale":[
				1,
				1.0000001192092896,
				0.9999998807907104
			],
			"translation":[
				1.1881813577474531e-07,
				0.5390905141830444,
				-5.587935447692871e-09
			]
		},
		{
			"children":[
				3
			],
			"name":"Unterarm.L",
			"rotation":[
				-0.09223347157239914,
				-0.0013973611639812589,
				0.0567534938454628,
				0.9941177368164062
			],
			"scale":[
				0.9999999403953552,
				1,
				0.9999999403953552
			],
			"translation":[
				2.8945401631119694e-09,
				0.6190547347068787,
				1.6763806343078613e-08
			]
		},
		{
			"children":[
				4
			],
			"name":"Oberarm.L",
			"rotation":[
				-0.9873650670051575,
				-0.15478426218032837,
				0.005256406497210264,
				0.03353264927864075
			],
			"scale":[
				1.0000029802322388,
				1.000000238418579,
				1.0000001192092896
			],
			"translation":[
				0.41999998688697815,
				0.4200000762939453,
				0
			]
		},
		{
			"mesh":1,
			"name":"Stab",
			"rotation":[
				-0.9920609593391418,
				0.08945441991090775,
				0.0079384446144104,
				0.08803398907184601
			],
			"scale":[
				0.9999977946281433,
				0.9999994039535522,
				1
			],
			"translation":[
				1.0668699741363525,
				1.843397617340088,
				0.3510889708995819
			]
		},
		{
			"children":[
				6
			],
			"name":"Hand.R",
			"rotation":[
				-0.029935462400317192,
				0.0012852993095293641,
				-0.008676205761730671,
				0.9995133876800537
			],
			"scale":[
				1,
				1.0000001192092896,
				0.9999998807907104
			],
			"translation":[
				-1.1881813577474531e-07,
				0.5390905141830444,
				-5.587935447692871e-09
			]
		},
		{
			"children":[
				7
			],
			"name":"Unterarm.R",
			"rotation":[
				-0.09223347157239914,
				0.0013973611639812589,
				-0.0567534938454628,
				0.9941177368164062
			],
			"scale":[
				0.9999999403953552,
				1,
				0.9999999403953552
			],
			"translation":[
				-2.8945401631119694e-09,
				0.6190547347068787,
				1.6763806343078613e-08
			]
		},
		{
			"children":[
				8
			],
			"name":"Oberarm.R",
			"rotation":[
				-0.9873650670051575,
				0.15478426218032837,
				-0.005256406497210264,
				0.03353264927864075
			],
			"scale":[
				1.0000029802322388,
				1.000000238418579,
				1.0000001192092896
			],
			"translation":[
				-0.41999998688697815,
				0.4200000762939453,
				0
			]
		},
		{
			"children":[
				2,
				5,
				9
			],
			"name":"Brust",
			"translation":[
				0,
				0.4199998378753662,
				0
			]
		},
		{
			"children":[
				10
			],
			"name":"Bauch",
			"translation":[
				0,
				0.315000057220459,
				0
			]
		},
		{
			"name":"Fuss.L",
			"rotation":[
				-7.914105992767873e-08,
				-0.8304529786109924,
				0.5570887327194214,
				3.630025346978982e-08
			],
			"scale":[
				1,
				1.0000003576278687,
				0.9999999403953552
			],
			"translation":[
				9.792725741419872e-09,
				0.8829993605613708,
				1.0958220997281387e-09
			]
		},
		{
			"children":[
				12
			],
			"name":"Unterschenkel.L",
			"rotation":[
				0.023789308965206146,
				9.286033986199982e-08,
				1.299809565535881e-10,
				0.9997169971466064
			],
			"scale":[
				1,
				0.9999999403953552,
				1
			],
			"translation":[
				0,
				0.902999997138977,
				0
			]
		},
		{
			"children":[
				13
			],
			"name":"Oberschenkel.L",
			"rotation":[
				1,
				0,
				-4.371138828673793e-08,
				0
			],
			"translation":[
				0.20999999344348907,
				0,
				0
			]
		},
		{
			"name":"Fuss.R",
			"rotation":[
				-7.914105992767873e-08,
				-0.8304529786109924,
				0.5570887327194214,
				3.630025346978982e-08
			],
			"scale":[
				1,
				1.0000003576278687,
				0.9999999403953552
			],
			"translation":[
				-2.000959575809702e-08,
				0.8829993605613708,
				4.492113347964732e-09
			]
		},
		{
			"children":[
				15
			],
			"name":"Unterschenkel.R",
			"rotation":[
				0.023789308965206146,
				9.286033986199982e-08,
				1.299809565535881e-10,
				0.9997169971466064
			],
			"scale":[
				1,
				0.9999999403953552,
				1
			],
			"translation":[
				0,
				0.902999997138977,
				0
			]
		},
		{
			"children":[
				16
			],
			"name":"Oberschenkel.R",
			"rotation":[
				1,
				0,
				-4.371138828673793e-08,
				0
			],
			"translation":[
				-0.20999999344348907,
				0,
				0
			]
		},
		{
			"children":[
				11,
				14,
				17
			],
			"name":"Becken",
			"translation":[
				0,
				1.994999885559082,
				0
			]
		},
		{
			"mesh":0,
			"name":"Lichkoenig",
			"skin":0
		},
		{
			"children":[
				19,
				18
			],
			"name":"LichkoenigSkelett"
		}
	],
	"animations":[
		{
			"channels":[
				{
					"sampler":0,
					"target":{
						"node":18,
						"path":"translation"
					}
				},
				{
					"sampler":1,
					"target":{
						"node":18,
						"path":"rotation"
					}
				},
				{
					"sampler":2,
					"target":{
						"node":18,
						"path":"scale"
					}
				},
				{
					"sampler":3,
					"target":{
						"node":11,
						"path":"translation"
					}
				},
				{
					"sampler":4,
					"target":{
						"node":11,
						"path":"rotation"
					}
				},
				{
					"sampler":5,
					"target":{
						"node":11,
						"path":"scale"
					}
				},
				{
					"sampler":6,
					"target":{
						"node":10,
						"path":"translation"
					}
				},
				{
					"sampler":7,
					"target":{
						"node":10,
						"path":"rotation"
					}
				},
				{
					"sampler":8,
					"target":{
						"node":10,
						"path":"scale"
					}
				},
				{
					"sampler":9,
					"target":{
						"node":2,
						"path":"translation"
					}
				},
				{
					"sampler":10,
					"target":{
						"node":2,
						"path":"rotation"
					}
				},
				{
					"sampler":11,
					"target":{
						"node":2,
						"path":"scale"
					}
				},
				{
					"sampler":12,
					"target":{
						"node":1,
						"path":"translation"
					}
				},
				{
					"sampler":13,
					"target":{
						"node":1,
						"path":"rotation"
					}
				},
				{
					"sampler":14,
					"target":{
						"node":1,
						"path":"scale"
					}
				},
				{
					"sampler":15,
					"target":{
						"node":0,
						"path":"translation"
					}
				},
				{
					"sampler":16,
					"target":{
						"node":0,
						"path":"rotation"
					}
				},
				{
					"sampler":17,
					"target":{
						"node":0,
						"path":"scale"
					}
				},
				{
					"sampler":18,
					"target":{
						"node":5,
						"path":"translation"
					}
				},
				{
					"sampler":19,
					"target":{
						"node":5,
						"path":"rotation"
					}
				},
				{
					"sampler":20,
					"target":{
						"node":5,
						"path":"scale"
					}
				},
				{
					"sampler":21,
					"target":{
						"node":4,
						"path":"translation"
					}
				},
				{
					"sampler":22,
					"target":{
						"node":4,
						"path":"rotation"
					}
				},
				{
					"sampler":23,
					"target":{
						"node":4,
						"path":"scale"
					}
				},
				{
					"sampler":24,
					"target":{
						"node":3,
						"path":"translation"
					}
				},
				{
					"sampler":25,
					"target":{
						"node":3,
						"path":"rotation"
					}
				},
				{
					"sampler":26,
					"target":{
						"node":3,
						"path":"scale"
					}
				},
				{
					"sampler":27,
					"target":{
						"node":9,
						"path":"translation"
					}
				},
				{
					"sampler":28,
					"target":{
						"node":9,
						"path":"rotation"
					}
				},
				{
					"sampler":29,
					"target":{
						"node":9,
						"path":"scale"
					}
				},
				{
					"sampler":30,
					"target":{
						"node":8,
						"path":"translation"
					}
				},
				{
					"sampler":31,
					"target":{
						"node":8,
						"path":"rotation"
					}
				},
				{
					"sampler":32,
					"target":{
						"node":8,
						"path":"scale"
					}
				},
				{
					"sampler":33,
					"target":{
						"node":7,
						"path":"translation"
					}
				},
				{
					"sampler":34,
					"target":{
						"node":7,
						"path":"rotation"
					}
				},
				{
					"sampler":35,
					"target":{
						"node":7,
						"path":"scale"
					}
				},
				{
					"sampler":36,
					"target":{
						"node":14,
						"path":"translation"
					}
				},
				{
					"sampler":37,
					"target":{
						"node":14,
						"path":"rotation"
					}
				},
				{
					"sampler":38,
					"target":{
						"node":14,
						"path":"scale"
					}
				},
				{
					"sampler":39,
					"target":{
						"node":13,
						"path":"translation"
					}
				},
				{
					"sampler":40,
					"target":{
						"node":13,
						"path":"rotation"
					}
				},
				{
					"sampler":41,
					"target":{
						"node":13,
						"path":"scale"
					}
				},
				{
					"sampler":42,
					"target":{
						"node":12,
						"path":"translation"
					}
				},
				{
					"sampler":43,
					"target":{
						"node":12,
						"path":"rotation"
					}
				},
				{
					"sampler":44,
					"target":{
						"node":12,
						"path":"scale"
					}
				},
				{
					"sampler":45,
					"target":{
						"node":17,
						"path":"translation"
					}
				},
				{
					"sampler":46,
					"target":{
						"node":17,
						"path":"rotation"
					}
				},
				{
					"sampler":47,
					"target":{
						"node":17,
						"path":"scale"
					}
				},
				{
					"sampler":48,
					"target":{
						"node":16,
						"path":"translation"
					}
				},
				{
					"sampler":49,
					"target":{
						"node":16,
						"path":"rotation"
					}
				},
				{
					"sampler":50,
					"target":{
						"node":16,
						"path":"scale"
					}
				},
				{
					"sampler":51,
					"target":{
						"node":15,
						"path":"translation"
					}
				},
				{
					"sampler":52,
					"target":{
						"node":15,
						"path":"rotation"
					}
				},
				{
					"sampler":53,
					"target":{
						"node":15,
						"path":"scale"
					}
				}
			],
			"name":"Angriff",
			"samplers":[
				{
					"input":11,
					"interpolation":"STEP",
					"output":12
				},
				{
					"input":11,
					"interpolation":"STEP",
					"output":13
				},
				{
					"input":11,
					"interpolation":"STEP",
					"output":14
				},
				{
					"input":11,
					"interpolation":"STEP",
					"output":15
				},
				{
					"input":16,
					"interpolation":"LINEAR",
					"output":17
				},
				{
					"input":11,
					"interpolation":"STEP",
					"output":14
				},
				{
					"input":11,
					"interpolation":"STEP",
					"output":18
				},
				{
					"input":16,
					"interpolation":"LINEAR",
					"output":19
				},
				{
					"input":11,
					"interpolation":"STEP",
					"output":14
				},
				{
					"input":11,
					"interpolation":"STEP",
					"output":20
				},
				{
					"input":11,
					"interpolation":"STEP",
					"output":13
				},
				{
					"input":11,
					"interpolation":"STEP",
					"output":14
				},
				{
					"input":11,
					"interpolation":"STEP",
					"output":21
				},
				{
					"input":11,
					"interpolation":"STEP",
					"output":13
				},
				{
					"input":11,
					"interpolation":"STEP",
					"output":14
				},
				{
					"input":11,
					"interpolation":"STEP",
					"output":22
				},
				{
					"input":16,
					"interpolation":"LINEAR",
					"output":23
				},
				{
					"input":11,
					"interpolation":"STEP",
					"output":14
				},
				{
					"input":11,
					"interpolation":"STEP",
					"output":24
				},
				{
					"input":16,
					"interpolation":"LINEAR",
					"output":25
				},
				{
					"input":11,
					"interpolation":"STEP",
					"output":26
				},
				{
					"input":11,
					"interpolation":"STEP",
					"output":27
				},
				{
					"input":16,
					"interpolation":"LINEAR",
					"output":28
				},
				{
					"input":11,
					"interpolation":"STEP",
					"output":29
				},
				{
					"input":11,
					"interpolation":"STEP",
					"output":30
				},
				{
					"input":11,
					"interpolation":"STEP",
					"output":31
				},
				{
					"input":11,
					"interpolation":"STEP",
					"output":32
				},
				{
					"input":11,
					"interpolation":"STEP",
					"output":33
				},
				{
					"input":16,
					"interpolation":"LINEAR",
					"output":34
				},
				{
					"input":11,
					"interpolation":"STEP",
					"output":26
				},
				{
					"input":11,
					"interpolation":"STEP",
					"output":35
				},
				{
					"input":16,
					"interpolation":"LINEAR",
					"output":36
				},
				{
					"input":11,
					"interpolation":"STEP",
					"output":37
				},
				{
					"input":11,
					"interpolation":"STEP",
					"output":38
				},
				{
					"input":11,
					"interpolation":"STEP",
					"output":39
				},
				{
					"input":11,
					"interpolation":"STEP",
					"output":32
				},
				{
					"input":11,
					"interpolation":"STEP",
					"output":40
				},
				{
					"input":11,
					"interpolation":"STEP",
					"output":41
				},
				{
					"input":11,
					"interpolation":"STEP",
					"output":14
				},
				{
					"input":11,
					"interpolation":"STEP",
					"output":42
				},
				{
					"input":11,
					"interpolation":"STEP",
					"output":43
				},
				{
					"input":11,
					"interpolation":"STEP",
					"output":44
				},
				{
					"input":11,
					"interpolation":"STEP",
					"output":45
				},
				{
					"input":11,
					"interpolation":"STEP",
					"output":46
				},
				{
					"input":11,
					"interpolation":"STEP",
					"output":47
				},
				{
					"input":11,
					"interpolation":"STEP",
					"output":48
				},
				{
					"input":11,
					"interpolation":"STEP",
					"output":41
				},
				{
					"input":11,
					"interpolation":"STEP",
					"output":14
				},
				{
					"input":11,
					"interpolation":"STEP",
					"output":49
				},
				{
					"input":11,
					"interpolation":"STEP",
					"output":43
				},
				{
					"input":11,
					"interpolation":"STEP",
					"output":44
				},
				{
					"input":11,
					"interpolation":"STEP",
					"output":50
				},
				{
					"input":11,
					"interpolation":"STEP",
					"output":46
				},
				{
					"input":11,
					"interpolation":"STEP",
					"output":47
				}
			]
		},
		{
			"channels":[
				{
					"sampler":0,
					"target":{
						"node":18,
						"path":"translation"
					}
				},
				{
					"sampler":1,
					"target":{
						"node":18,
						"path":"rotation"
					}
				},
				{
					"sampler":2,
					"target":{
						"node":18,
						"path":"scale"
					}
				},
				{
					"sampler":3,
					"target":{
						"node":11,
						"path":"translation"
					}
				},
				{
					"sampler":4,
					"target":{
						"node":11,
						"path":"rotation"
					}
				},
				{
					"sampler":5,
					"target":{
						"node":11,
						"path":"scale"
					}
				},
				{
					"sampler":6,
					"target":{
						"node":10,
						"path":"translation"
					}
				},
				{
					"sampler":7,
					"target":{
						"node":10,
						"path":"rotation"
					}
				},
				{
					"sampler":8,
					"target":{
						"node":10,
						"path":"scale"
					}
				},
				{
					"sampler":9,
					"target":{
						"node":2,
						"path":"translation"
					}
				},
				{
					"sampler":10,
					"target":{
						"node":2,
						"path":"rotation"
					}
				},
				{
					"sampler":11,
					"target":{
						"node":2,
						"path":"scale"
					}
				},
				{
					"sampler":12,
					"target":{
						"node":1,
						"path":"translation"
					}
				},
				{
					"sampler":13,
					"target":{
						"node":1,
						"path":"rotation"
					}
				},
				{
					"sampler":14,
					"target":{
						"node":1,
						"path":"scale"
					}
				},
				{
					"sampler":15,
					"target":{
						"node":0,
						"path":"translation"
					}
				},
				{
					"sampler":16,
					"target":{
						"node":0,
						"path":"rotation"
					}
				},
				{
					"sampler":17,
					"target":{
						"node":0,
						"path":"scale"
					}
				},
				{
					"sampler":18,
					"target":{
						"node":5,
						"path":"translation"
					}
				},
				{
					"sampler":19,
					"target":{
						"node":5,
						"path":"rotation"
					}
				},
				{
					"sampler":20,
					"target":{
						"node":5,
						"path":"scale"
					}
				},
				{
					"sampler":21,
					"target":{
						"node":4,
						"path":"translation"
					}
				},
				{
					"sampler":22,
					"target":{
						"node":4,
						"path":"rotation"
					}
				},
				{
					"sampler":23,
					"target":{
						"node":4,
						"path":"scale"
					}
				},
				{
					"sampler":24,
					"target":{
						"node":3,
						"path":"translation"
					}
				},
				{
					"sampler":25,
					"target":{
						"node":3,
						"path":"rotation"
					}
				},
				{
					"sampler":26,
					"target":{
						"node":3,
						"path":"scale"
					}
				},
				{
					"sampler":27,
					"target":{
						"node":9,
						"path":"translation"
					}
				},
				{
					"sampler":28,
					"target":{
						"node":9,
						"path":"rotation"
					}
				},
				{
					"sampler":29,
					"target":{
						"node":9,
						"path":"scale"
					}
				},
				{
					"sampler":30,
					"target":{
						"node":8,
						"path":"translation"
					}
				},
				{
					"sampler":31,
					"target":{
						"node":8,
						"path":"rotation"
					}
				},
				{
					"sampler":32,
					"target":{
						"node":8,
						"path":"scale"
					}
				},
				{
					"sampler":33,
					"target":{
						"node":7,
						"path":"translation"
					}
				},
				{
					"sampler":34,
					"target":{
						"node":7,
						"path":"rotation"
					}
				},
				{
					"sampler":35,
					"target":{
						"node":7,
						"path":"scale"
					}
				},
				{
					"sampler":36,
					"target":{
						"node":14,
						"path":"translation"
					}
				},
				{
					"sampler":37,
					"target":{
						"node":14,
						"path":"rotation"
					}
				},
				{
					"sampler":38,
					"target":{
						"node":14,
						"path":"scale"
					}
				},
				{
					"sampler":39,
					"target":{
						"node":13,
						"path":"translation"
					}
				},
				{
					"sampler":40,
					"target":{
						"node":13,
						"path":"rotation"
					}
				},
				{
					"sampler":41,
					"target":{
						"node":13,
						"path":"scale"
					}
				},
				{
					"sampler":42,
					"target":{
						"node":12,
						"path":"translation"
					}
				},
				{
					"sampler":43,
					"target":{
						"node":12,
						"path":"rotation"
					}
				},
				{
					"sampler":44,
					"target":{
						"node":12,
						"path":"scale"
					}
				},
				{
					"sampler":45,
					"target":{
						"node":17,
						"path":"translation"
					}
				},
				{
					"sampler":46,
					"target":{
						"node":17,
						"path":"rotation"
					}
				},
				{
					"sampler":47,
					"target":{
						"node":17,
						"path":"scale"
					}
				},
				{
					"sampler":48,
					"target":{
						"node":16,
						"path":"translation"
					}
				},
				{
					"sampler":49,
					"target":{
						"node":16,
						"path":"rotation"
					}
				},
				{
					"sampler":50,
					"target":{
						"node":16,
						"path":"scale"
					}
				},
				{
					"sampler":51,
					"target":{
						"node":15,
						"path":"translation"
					}
				},
				{
					"sampler":52,
					"target":{
						"node":15,
						"path":"rotation"
					}
				},
				{
					"sampler":53,
					"target":{
						"node":15,
						"path":"scale"
					}
				}
			],
			"name":"Idle",
			"samplers":[
				{
					"input":51,
					"interpolation":"LINEAR",
					"output":52
				},
				{
					"input":53,
					"interpolation":"STEP",
					"output":13
				},
				{
					"input":53,
					"interpolation":"STEP",
					"output":14
				},
				{
					"input":53,
					"interpolation":"STEP",
					"output":15
				},
				{
					"input":51,
					"interpolation":"LINEAR",
					"output":54
				},
				{
					"input":53,
					"interpolation":"STEP",
					"output":14
				},
				{
					"input":53,
					"interpolation":"STEP",
					"output":18
				},
				{
					"input":51,
					"interpolation":"LINEAR",
					"output":55
				},
				{
					"input":53,
					"interpolation":"STEP",
					"output":14
				},
				{
					"input":53,
					"interpolation":"STEP",
					"output":20
				},
				{
					"input":53,
					"interpolation":"STEP",
					"output":13
				},
				{
					"input":53,
					"interpolation":"STEP",
					"output":14
				},
				{
					"input":53,
					"interpolation":"STEP",
					"output":21
				},
				{
					"input":51,
					"interpolation":"LINEAR",
					"output":56
				},
				{
					"input":53,
					"interpolation":"STEP",
					"output":14
				},
				{
					"input":53,
					"interpolation":"STEP",
					"output":57
				},
				{
					"input":53,
					"interpolation":"STEP",
					"output":58
				},
				{
					"input":53,
					"interpolation":"STEP",
					"output":14
				},
				{
					"input":53,
					"interpolation":"STEP",
					"output":24
				},
				{
					"input":51,
					"interpolation":"LINEAR",
					"output":59
				},
				{
					"input":53,
					"interpolation":"STEP",
					"output":60
				},
				{
					"input":53,
					"interpolation":"STEP",
					"output":61
				},
				{
					"input":53,
					"interpolation":"STEP",
					"output":62
				},
				{
					"input":53,
					"interpolation":"STEP",
					"output":63
				},
				{
					"input":53,
					"interpolation":"STEP",
					"output":64
				},
				{
					"input":53,
					"interpolation":"STEP",
					"output":65
				},
				{
					"input":53,
					"interpolation":"STEP",
					"output":66
				},
				{
					"input":53,
					"interpolation":"STEP",
					"output":33
				},
				{
					"input":53,
					"interpolation":"STEP",
					"output":67
				},
				{
					"input":53,
					"interpolation":"STEP",
					"output":26
				},
				{
					"input":53,
					"interpolation":"STEP",
					"output":68
				},
				{
					"input":53,
					"interpolation":"STEP",
					"output":69
				},
				{
					"input":53,
					"interpolation":"STEP",
					"output":70
				},
				{
					"input":53,
					"interpolation":"STEP",
					"output":71
				},
				{
					"input":53,
					"interpolation":"STEP",
					"output":72
				},
				{
					"input":53,
					"interpolation":"STEP",
					"output":73
				},
				{
					"input":53,
					"interpolation":"STEP",
					"output":40
				},
				{
					"input":53,
					"interpolation":"STEP",
					"output":41
				},
				{
					"input":53,
					"interpolation":"STEP",
					"output":14
				},
				{
					"input":53,
					"interpolation":"STEP",
					"output":42
				},
				{
					"input":53,
					"interpolation":"STEP",
					"output":43
				},
				{
					"input":53,
					"interpolation":"STEP",
					"output":44
				},
				{
					"input":53,
					"interpolation":"STEP",
					"output":45
				},
				{
					"input":53,
					"interpolation":"STEP",
					"output":46
				},
				{
					"input":53,
					"interpolation":"STEP",
					"output":47
				},
				{
					"input":53,
					"interpolation":"STEP",
					"output":48
				},
				{
					"input":53,
					"interpolation":"STEP",
					"output":41
				},
				{
					"input":53,
					"interpolation":"STEP",
					"output":14
				},
				{
					"input":53,
					"interpolation":"STEP",
					"output":49
				},
				{
					"input":53,
					"interpolation":"STEP",
					"output":43
				},
				{
					"input":53,
					"interpolation":"STEP",
					"output":44
				},
				{
					"input":53,
					"interpolation":"STEP",
					"output":50
				},
				{
					"input":53,
					"interpolation":"STEP",
					"output":46
				},
				{
					"input":53,
					"interpolation":"STEP",
					"output":47
				}
			]
		},
		{
			"channels":[
				{
					"sampler":0,
					"target":{
						"node":18,
						"path":"translation"
					}
				},
				{
					"sampler":1,
					"target":{
						"node":18,
						"path":"rotation"
					}
				},
				{
					"sampler":2,
					"target":{
						"node":18,
						"path":"scale"
					}
				},
				{
					"sampler":3,
					"target":{
						"node":11,
						"path":"translation"
					}
				},
				{
					"sampler":4,
					"target":{
						"node":11,
						"path":"rotation"
					}
				},
				{
					"sampler":5,
					"target":{
						"node":11,
						"path":"scale"
					}
				},
				{
					"sampler":6,
					"target":{
						"node":10,
						"path":"translation"
					}
				},
				{
					"sampler":7,
					"target":{
						"node":10,
						"path":"rotation"
					}
				},
				{
					"sampler":8,
					"target":{
						"node":10,
						"path":"scale"
					}
				},
				{
					"sampler":9,
					"target":{
						"node":2,
						"path":"translation"
					}
				},
				{
					"sampler":10,
					"target":{
						"node":2,
						"path":"rotation"
					}
				},
				{
					"sampler":11,
					"target":{
						"node":2,
						"path":"scale"
					}
				},
				{
					"sampler":12,
					"target":{
						"node":1,
						"path":"translation"
					}
				},
				{
					"sampler":13,
					"target":{
						"node":1,
						"path":"rotation"
					}
				},
				{
					"sampler":14,
					"target":{
						"node":1,
						"path":"scale"
					}
				},
				{
					"sampler":15,
					"target":{
						"node":0,
						"path":"translation"
					}
				},
				{
					"sampler":16,
					"target":{
						"node":0,
						"path":"rotation"
					}
				},
				{
					"sampler":17,
					"target":{
						"node":0,
						"path":"scale"
					}
				},
				{
					"sampler":18,
					"target":{
						"node":5,
						"path":"translation"
					}
				},
				{
					"sampler":19,
					"target":{
						"node":5,
						"path":"rotation"
					}
				},
				{
					"sampler":20,
					"target":{
						"node":5,
						"path":"scale"
					}
				},
				{
					"sampler":21,
					"target":{
						"node":4,
						"path":"translation"
					}
				},
				{
					"sampler":22,
					"target":{
						"node":4,
						"path":"rotation"
					}
				},
				{
					"sampler":23,
					"target":{
						"node":4,
						"path":"scale"
					}
				},
				{
					"sampler":24,
					"target":{
						"node":3,
						"path":"translation"
					}
				},
				{
					"sampler":25,
					"target":{
						"node":3,
						"path":"rotation"
					}
				},
				{
					"sampler":26,
					"target":{
						"node":3,
						"path":"scale"
					}
				},
				{
					"sampler":27,
					"target":{
						"node":9,
						"path":"translation"
					}
				},
				{
					"sampler":28,
					"target":{
						"node":9,
						"path":"rotation"
					}
				},
				{
					"sampler":29,
					"target":{
						"node":9,
						"path":"scale"
					}
				},
				{
					"sampler":30,
					"target":{
						"node":8,
						"path":"translation"
					}
				},
				{
					"sampler":31,
					"target":{
						"node":8,
						"path":"rotation"
					}
				},
				{
					"sampler":32,
					"target":{
						"node":8,
						"path":"scale"
					}
				},
				{
					"sampler":33,
					"target":{
						"node":7,
						"path":"translation"
					}
				},
				{
					"sampler":34,
					"target":{
						"node":7,
						"path":"rotation"
					}
				},
				{
					"sampler":35,
					"target":{
						"node":7,
						"path":"scale"
					}
				},
				{
					"sampler":36,
					"target":{
						"node":14,
						"path":"translation"
					}
				},
				{
					"sampler":37,
					"target":{
						"node":14,
						"path":"rotation"
					}
				},
				{
					"sampler":38,
					"target":{
						"node":14,
						"path":"scale"
					}
				},
				{
					"sampler":39,
					"target":{
						"node":13,
						"path":"translation"
					}
				},
				{
					"sampler":40,
					"target":{
						"node":13,
						"path":"rotation"
					}
				},
				{
					"sampler":41,
					"target":{
						"node":13,
						"path":"scale"
					}
				},
				{
					"sampler":42,
					"target":{
						"node":12,
						"path":"translation"
					}
				},
				{
					"sampler":43,
					"target":{
						"node":12,
						"path":"rotation"
					}
				},
				{
					"sampler":44,
					"target":{
						"node":12,
						"path":"scale"
					}
				},
				{
					"sampler":45,
					"target":{
						"node":17,
						"path":"translation"
					}
				},
				{
					"sampler":46,
					"target":{
						"node":17,
						"path":"rotation"
					}
				},
				{
					"sampler":47,
					"target":{
						"node":17,
						"path":"scale"
					}
				},
				{
					"sampler":48,
					"target":{
						"node":16,
						"path":"translation"
					}
				},
				{
					"sampler":49,
					"target":{
						"node":16,
						"path":"rotation"
					}
				},
				{
					"sampler":50,
					"target":{
						"node":16,
						"path":"scale"
					}
				},
				{
					"sampler":51,
					"target":{
						"node":15,
						"path":"translation"
					}
				},
				{
					"sampler":52,
					"target":{
						"node":15,
						"path":"rotation"
					}
				},
				{
					"sampler":53,
					"target":{
						"node":15,
						"path":"scale"
					}
				}
			],
			"name":"Laufen",
			"samplers":[
				{
					"input":74,
					"interpolation":"LINEAR",
					"output":75
				},
				{
					"input":76,
					"interpolation":"STEP",
					"output":13
				},
				{
					"input":76,
					"interpolation":"STEP",
					"output":14
				},
				{
					"input":76,
					"interpolation":"STEP",
					"output":15
				},
				{
					"input":76,
					"interpolation":"STEP",
					"output":13
				},
				{
					"input":76,
					"interpolation":"STEP",
					"output":14
				},
				{
					"input":76,
					"interpolation":"STEP",
					"output":18
				},
				{
					"input":74,
					"interpolation":"LINEAR",
					"output":77
				},
				{
					"input":76,
					"interpolation":"STEP",
					"output":78
				},
				{
					"input":76,
					"interpolation":"STEP",
					"output":79
				},
				{
					"input":76,
					"interpolation":"STEP",
					"output":13
				},
				{
					"input":76,
					"interpolation":"STEP",
					"output":14
				},
				{
					"input":76,
					"interpolation":"STEP",
					"output":80
				},
				{
					"input":76,
					"interpolation":"STEP",
					"output":81
				},
				{
					"input":76,
					"interpolation":"STEP",
					"output":14
				},
				{
					"input":76,
					"interpolation":"STEP",
					"output":82
				},
				{
					"input":76,
					"interpolation":"STEP",
					"output":58
				},
				{
					"input":76,
					"interpolation":"STEP",
					"output":14
				},
				{
					"input":76,
					"interpolation":"STEP",
					"output":83
				},
				{
					"input":76,
					"interpolation":"STEP",
					"output":84
				},
				{
					"input":76,
					"interpolation":"STEP",
					"output":26
				},
				{
					"input":76,
					"interpolation":"STEP",
					"output":85
				},
				{
					"input":76,
					"interpolation":"STEP",
					"output":62
				},
				{
					"input":76,
					"interpolation":"STEP",
					"output":86
				},
				{
					"input":76,
					"interpolation":"STEP",
					"output":87
				},
				{
					"input":76,
					"interpolation":"STEP",
					"output":88
				},
				{
					"input":76,
					"interpolation":"STEP",
					"output":89
				},
				{
					"input":76,
					"interpolation":"STEP",
					"output":90
				},
				{
					"input":76,
					"interpolation":"STEP",
					"output":91
				},
				{
					"input":76,
					"interpolation":"STEP",
					"output":60
				},
				{
					"input":76,
					"interpolation":"STEP",
					"output":92
				},
				{
					"input":76,
					"interpolation":"STEP",
					"output":93
				},
				{
					"input":76,
					"interpolation":"STEP",
					"output":37
				},
				{
					"input":76,
					"interpolation":"STEP",
					"output":94
				},
				{
					"input":76,
					"interpolation":"STEP",
					"output":95
				},
				{
					"input":76,
					"interpolation":"STEP",
					"output":66
				},
				{
					"input":76,
					"interpolation":"STEP",
					"output":40
				},
				{
					"input":76,
					"interpolation":"STEP",
					"output":41
				},
				{
					"input":76,
					"interpolation":"STEP",
					"output":14
				},
				{
					"input":76,
					"interpolation":"STEP",
					"output":42
				},
				{
					"input":76,
					"interpolation":"STEP",
					"output":43
				},
				{
					"input":76,
					"interpolation":"STEP",
					"output":44
				},
				{
					"input":76,
					"interpolation":"STEP",
					"output":45
				},
				{
					"input":76,
					"interpolation":"STEP",
					"output":46
				},
				{
					"input":76,
					"interpolation":"STEP",
					"output":47
				},
				{
					"input":76,
					"interpolation":"STEP",
					"output":48
				},
				{
					"input":76,
					"interpolation":"STEP",
					"output":41
				},
				{
					"input":76,
					"interpolation":"STEP",
					"output":14
				},
				{
					"input":76,
					"interpolation":"STEP",
					"output":49
				},
				{
					"input":76,
					"interpolation":"STEP",
					"output":43
				},
				{
					"input":76,
					"interpolation":"STEP",
					"output":44
				},
				{
					"input":76,
					"interpolation":"STEP",
					"output":50
				},
				{
					"input":76,
					"interpolation":"STEP",
					"output":46
				},
				{
					"input":76,
					"interpolation":"STEP",
					"output":47
				}
			]
		}
	],
	"materials":[
		{
			"doubleSided":true,
			"name":"Lichkoenig",
			"pbrMetallicRoughness":{
				"metallicFactor":0,
				"roughnessFactor":0.8500000238418579
			}
		}
	],
	"meshes":[
		{
			"name":"Koerper",
			"primitives":[
				{
					"attributes":{
						"POSITION":0,
						"NORMAL":1,
						"COLOR_0":2,
						"JOINTS_0":3,
						"WEIGHTS_0":4
					},
					"indices":5,
					"material":0
				}
			]
		},
		{
			"name":"Stab",
			"primitives":[
				{
					"attributes":{
						"POSITION":7,
						"NORMAL":8,
						"COLOR_0":9
					},
					"indices":10,
					"material":0
				}
			]
		}
	],
	"skins":[
		{
			"inverseBindMatrices":6,
			"joints":[
				18,
				11,
				10,
				2,
				1,
				0,
				5,
				4,
				3,
				9,
				8,
				7,
				14,
				13,
				12,
				17,
				16,
				15
			],
			"name":"LichkoenigSkelett"
		}
	],
	"accessors":[
		{
			"bufferView":0,
			"componentType":5126,
			"count":13250,
			"max":[
				0.9863049387931824,
				4.215467929840088,
				0.5831366777420044
			],
			"min":[
				-0.9939690828323364,
				0.041999995708465576,
				-0.926863968372345
			],
			"type":"VEC3"
		},
		{
			"bufferView":1,
			"componentType":5126,
			"count":13250,
			"type":"VEC3"
		},
		{
			"bufferView":2,
			"componentType":5126,
			"count":13250,
			"type":"VEC3"
		},
		{
			"bufferView":3,
			"componentType":5121,
			"count":13250,
			"type":"VEC4"
		},
		{
			"bufferView":4,
			"componentType":5126,
			"count":13250,
			"type":"VEC4"
		},
		{
			"bufferView":5,
			"componentType":5123,
			"count":56958,
			"type":"SCALAR"
		},
		{
			"bufferView":6,
			"componentType":5126,
			"count":18,
			"type":"MAT4"
		},
		{
			"bufferView":7,
			"componentType":5126,
			"count":830,
			"max":[
				-0.5354999899864197,
				5.64900016784668,
				0.2369833141565323
			],
			"min":[
				-0.8819999694824219,
				-0.000979551812633872,
				-0.13077206909656525
			],
			"type":"VEC3"
		},
		{
			"bufferView":8,
			"componentType":5126,
			"count":830,
			"type":"VEC3"
		},
		{
			"bufferView":9,
			"componentType":5126,
			"count":830,
			"type":"VEC3"
		},
		{
			"bufferView":10,
			"componentType":5123,
			"count":4920,
			"type":"SCALAR"
		},
		{
			"bufferView":11,
			"componentType":5126,
			"count":2,
			"max":[
				1.0666666666666667
			],
			"min":[
				0
			],
			"type":"SCALAR"
		},
		{
			"bufferView":12,
			"componentType":5126,
			"count":2,
			"type":"VEC3"
		},
		{
			"bufferView":13,
			"componentType":5126,
			"count":2,
			"type":"VEC4"
		},
		{
			"bufferView":14,
			"componentType":5126,
			"count":2,
			"type":"VEC3"
		},
		{
			"bufferView":15,
			"componentType":5126,
			"count":2,
			"type":"VEC3"
		},
		{
			"bufferView":16,
			"componentType":5126,
			"count":33,
			"max":[
				1.0666666666666667
			],
			"min":[
				0
			],
			"type":"SCALAR"
		},
		{
			"bufferView":17,
			"componentType":5126,
			"count":33,
			"type":"VEC4"
		},
		{
			"bufferView":18,
			"componentType":5126,
			"count":2,
			"type":"VEC3"
		},
		{
			"bufferView":19,
			"componentType":5126,
			"count":33,
			"type":"VEC4"
		},
		{
			"bufferView":20,
			"componentType":5126,
			"count":2,
			"type":"VEC3"
		},
		{
			"bufferView":21,
			"componentType":5126,
			"count":2,
			"type":"VEC3"
		},
		{
			"bufferView":22,
			"componentType":5126,
			"count":2,
			"type":"VEC3"
		},
		{
			"bufferView":23,
			"componentType":5126,
			"count":33,
			"type":"VEC4"
		},
		{
			"bufferView":24,
			"componentType":5126,
			"count":2,
			"type":"VEC3"
		},
		{
			"bufferView":25,
			"componentType":5126,
			"count":33,
			"type":"VEC4"
		},
		{
			"bufferView":26,
			"componentType":5126,
			"count":2,
			"type":"VEC3"
		},
		{
			"bufferView":27,
			"componentType":5126,
			"count":2,
			"type":"VEC3"
		},
		{
			"bufferView":28,
			"componentType":5126,
			"count":33,
			"type":"VEC4"
		},
		{
			"bufferView":29,
			"componentType":5126,
			"count":2,
			"type":"VEC3"
		},
		{
			"bufferView":30,
			"componentType":5126,
			"count":2,
			"type":"VEC3"
		},
		{
			"bufferView":31,
			"componentType":5126,
			"count":2,
			"type":"VEC4"
		},
		{
			"bufferView":32,
			"componentType":5126,
			"count":2,
			"type":"VEC3"
		},
		{
			"bufferView":33,
			"componentType":5126,
			"count":2,
			"type":"VEC3"
		},
		{
			"bufferView":34,
			"componentType":5126,
			"count":33,
			"type":"VEC4"
		},
		{
			"bufferView":35,
			"componentType":5126,
			"count":2,
			"type":"VEC3"
		},
		{
			"bufferView":36,
			"componentType":5126,
			"count":33,
			"type":"VEC4"
		},
		{
			"bufferView":37,
			"componentType":5126,
			"count":2,
			"type":"VEC3"
		},
		{
			"bufferView":38,
			"componentType":5126,
			"count":2,
			"type":"VEC3"
		},
		{
			"bufferView":39,
			"componentType":5126,
			"count":2,
			"type":"VEC4"
		},
		{
			"bufferView":40,
			"componentType":5126,
			"count":2,
			"type":"VEC3"
		},
		{
			"bufferView":41,
			"componentType":5126,
			"count":2,
			"type":"VEC4"
		},
		{
			"bufferView":42,
			"componentType":5126,
			"count":2,
			"type":"VEC3"
		},
		{
			"bufferView":43,
			"componentType":5126,
			"count":2,
			"type":"VEC4"
		},
		{
			"bufferView":44,
			"componentType":5126,
			"count":2,
			"type":"VEC3"
		},
		{
			"bufferView":45,
			"componentType":5126,
			"count":2,
			"type":"VEC3"
		},
		{
			"bufferView":46,
			"componentType":5126,
			"count":2,
			"type":"VEC4"
		},
		{
			"bufferView":47,
			"componentType":5126,
			"count":2,
			"type":"VEC3"
		},
		{
			"bufferView":48,
			"componentType":5126,
			"count":2,
			"type":"VEC3"
		},
		{
			"bufferView":49,
			"componentType":5126,
			"count":2,
			"type":"VEC3"
		},
		{
			"bufferView":50,
			"componentType":5126,
			"count":2,
			"type":"VEC3"
		},
		{
			"bufferView":51,
			"componentType":5126,
			"count":181,
			"max":[
				6
			],
			"min":[
				0
			],
			"type":"SCALAR"
		},
		{
			"bufferView":52,
			"componentType":5126,
			"count":181,
			"type":"VEC3"
		},
		{
			"bufferView":53,
			"componentType":5126,
			"count":2,
			"max":[
				6
			],
			"min":[
				0
			],
			"type":"SCALAR"
		},
		{
			"bufferView":54,
			"componentType":5126,
			"count":181,
			"type":"VEC4"
		},
		{
			"bufferView":55,
			"componentType":5126,
			"count":181,
			"type":"VEC4"
		},
		{
			"bufferView":56,
			"componentType":5126,
			"count":181,
			"type":"VEC4"
		},
		{
			"bufferView":57,
			"componentType":5126,
			"count":2,
			"type":"VEC3"
		},
		{
			"bufferView":58,
			"componentType":5126,
			"count":2,
			"type":"VEC4"
		},
		{
			"bufferView":59,
			"componentType":5126,
			"count":181,
			"type":"VEC4"
		},
		{
			"bufferView":60,
			"componentType":5126,
			"count":2,
			"type":"VEC3"
		},
		{
			"bufferView":61,
			"componentType":5126,
			"count":2,
			"type":"VEC3"
		},
		{
			"bufferView":62,
			"componentType":5126,
			"count":2,
			"type":"VEC4"
		},
		{
			"bufferView":63,
			"componentType":5126,
			"count":2,
			"type":"VEC3"
		},
		{
			"bufferView":64,
			"componentType":5126,
			"count":2,
			"type":"VEC3"
		},
		{
			"bufferView":65,
			"componentType":5126,
			"count":2,
			"type":"VEC4"
		},
		{
			"bufferView":66,
			"componentType":5126,
			"count":2,
			"type":"VEC3"
		},
		{
			"bufferView":67,
			"componentType":5126,
			"count":2,
			"type":"VEC4"
		},
		{
			"bufferView":68,
			"componentType":5126,
			"count":2,
			"type":"VEC3"
		},
		{
			"bufferView":69,
			"componentType":5126,
			"count":2,
			"type":"VEC4"
		},
		{
			"bufferView":70,
			"componentType":5126,
			"count":2,
			"type":"VEC3"
		},
		{
			"bufferView":71,
			"componentType":5126,
			"count":2,
			"type":"VEC3"
		},
		{
			"bufferView":72,
			"componentType":5126,
			"count":2,
			"type":"VEC4"
		},
		{
			"bufferView":73,
			"componentType":5126,
			"count":2,
			"type":"VEC3"
		},
		{
			"bufferView":74,
			"componentType":5126,
			"count":31,
			"max":[
				1
			],
			"min":[
				0
			],
			"type":"SCALAR"
		},
		{
			"bufferView":75,
			"componentType":5126,
			"count":31,
			"type":"VEC3"
		},
		{
			"bufferView":76,
			"componentType":5126,
			"count":2,
			"max":[
				1
			],
			"min":[
				0
			],
			"type":"SCALAR"
		},
		{
			"bufferView":77,
			"componentType":5126,
			"count":31,
			"type":"VEC4"
		},
		{
			"bufferView":78,
			"componentType":5126,
			"count":2,
			"type":"VEC3"
		},
		{
			"bufferView":79,
			"componentType":5126,
			"count":2,
			"type":"VEC3"
		},
		{
			"bufferView":80,
			"componentType":5126,
			"count":2,
			"type":"VEC3"
		},
		{
			"bufferView":81,
			"componentType":5126,
			"count":2,
			"type":"VEC4"
		},
		{
			"bufferView":82,
			"componentType":5126,
			"count":2,
			"type":"VEC3"
		},
		{
			"bufferView":83,
			"componentType":5126,
			"count":2,
			"type":"VEC3"
		},
		{
			"bufferView":84,
			"componentType":5126,
			"count":2,
			"type":"VEC4"
		},
		{
			"bufferView":85,
			"componentType":5126,
			"count":2,
			"type":"VEC3"
		},
		{
			"bufferView":86,
			"componentType":5126,
			"count":2,
			"type":"VEC3"
		},
		{
			"bufferView":87,
			"componentType":5126,
			"count":2,
			"type":"VEC3"
		},
		{
			"bufferView":88,
			"componentType":5126,
			"count":2,
			"type":"VEC4"
		},
		{
			"bufferView":89,
			"componentType":5126,
			"count":2,
			"type":"VEC3"
		},
		{
			"bufferView":90,
			"componentType":5126,
			"count":2,
			"type":"VEC3"
		},
		{
			"bufferView":91,
			"componentType":5126,
			"count":2,
			"type":"VEC4"
		},
		{
			"bufferView":92,
			"componentType":5126,
			"count":2,
			"type":"VEC3"
		},
		{
			"bufferView":93,
			"componentType":5126,
			"count":2,
			"type":"VEC4"
		},
		{
			"bufferView":94,
			"componentType":5126,
			"count":2,
			"type":"VEC3"
		},
		{
			"bufferView":95,
			"componentType":5126,
			"count":2,
			"type":"VEC4"
		}
	],
	"bufferViews":[
		{
			"buffer":0,
			"byteLength":159000,
			"byteOffset":0,
			"target":34962
		},
		{
			"buffer":0,
			"byteLength":159000,
			"byteOffset":159000,
			"target":34962
		},
		{
			"buffer":0,
			"byteLength":159000,
			"byteOffset":318000,
			"target":34962
		},
		{
			"buffer":0,
			"byteLength":53000,
			"byteOffset":477000,
			"target":34962
		},
		{
			"buffer":0,
			"byteLength":212000,
			"byteOffset":530000,
			"target":34962
		},
		{
			"buffer":0,
			"byteLength":113916,
			"byteOffset":742000,
			"target":34963
		},
		{
			"buffer":0,
			"byteLength":1152,
			"byteOffset":855916
		},
		{
			"buffer":0,
			"byteLength":9960,
			"byteOffset":857068,
			"target":34962
		},
		{
			"buffer":0,
			"byteLength":9960,
			"byteOffset":867028,
			"target":34962
		},
		{
			"buffer":0,
			"byteLength":9960,
			"byteOffset":876988,
			"target":34962
		},
		{
			"buffer":0,
			"byteLength":9840,
			"byteOffset":886948,
			"target":34963
		},
		{
			"buffer":0,
			"byteLength":8,
			"byteOffset":896788
		},
		{
			"buffer":0,
			"byteLength":24,
			"byteOffset":896796
		},
		{
			"buffer":0,
			"byteLength":32,
			"byteOffset":896820
		},
		{
			"buffer":0,
			"byteLength":24,
			"byteOffset":896852
		},
		{
			"buffer":0,
			"byteLength":24,
			"byteOffset":896876
		},
		{
			"buffer":0,
			"byteLength":132,
			"byteOffset":896900
		},
		{
			"buffer":0,
			"byteLength":528,
			"byteOffset":897032
		},
		{
			"buffer":0,
			"byteLength":24,
			"byteOffset":897560
		},
		{
			"buffer":0,
			"byteLength":528,
			"byteOffset":897584
		},
		{
			"buffer":0,
			"byteLength":24,
			"byteOffset":898112
		},
		{
			"buffer":0,
			"byteLength":24,
			"byteOffset":898136
		},
		{
			"buffer":0,
			"byteLength":24,
			"byteOffset":898160
		},
		{
			"buffer":0,
			"byteLength":528,
			"byteOffset":898184
		},
		{
			"buffer":0,
			"byteLength":24,
			"byteOffset":898712
		},
		{
			"buffer":0,
			"byteLength":528,
			"byteOffset":898736
		},
		{
			"buffer":0,
			"byteLength":24,
			"byteOffset":899264
		},
		{
			"buffer":0,
			"byteLength":24,
			"byteOffset":899288
		},
		{
			"buffer":0,
			"byteLength":528,
			"byteOffset":899312
		},
		{
			"buffer":0,
			"byteLength":24,
			"byteOffset":899840
		},
		{
			"buffer":0,
			"byteLength":24,
			"byteOffset":899864
		},
		{
			"buffer":0,
			"byteLength":32,
			"byteOffset":899888
		},
		{
			"buffer":0,
			"byteLength":24,
			"byteOffset":899920
		},
		{
			"buffer":0,
			"byteLength":24,
			"byteOffset":899944
		},
		{
			"buffer":0,
			"byteLength":528,
			"byteOffset":899968
		},
		{
			"buffer":0,
			"byteLength":24,
			"byteOffset":900496
		},
		{
			"buffer":0,
			"byteLength":528,
			"byteOffset":900520
		},
		{
			"buffer":0,
			"byteLength":24,
			"byteOffset":901048
		},
		{
			"buffer":0,
			"byteLength":24,
			"byteOffset":901072
		},
		{
			"buffer":0,
			"byteLength":32,
			"byteOffset":901096
		},
		{
			"buffer":0,
			"byteLength":24,
			"byteOffset":901128
		},
		{
			"buffer":0,
			"byteLength":32,
			"byteOffset":901152
		},
		{
			"buffer":0,
			"byteLength":24,
			"byteOffset":901184
		},
		{
			"buffer":0,
			"byteLength":32,
			"byteOffset":901208
		},
		{
			"buffer":0,
			"byteLength":24,
			"byteOffset":901240
		},
		{
			"buffer":0,
			"byteLength":24,
			"byteOffset":901264
		},
		{
			"buffer":0,
			"byteLength":32,
			"byteOffset":901288
		},
		{
			"buffer":0,
			"byteLength":24,
			"byteOffset":901320
		},
		{
			"buffer":0,
			"byteLength":24,
			"byteOffset":901344
		},
		{
			"buffer":0,
			"byteLength":24,
			"byteOffset":901368
		},
		{
			"buffer":0,
			"byteLength":24,
			"byteOffset":901392
		},
		{
			"buffer":0,
			"byteLength":724,
			"byteOffset":901416
		},
		{
			"buffer":0,
			"byteLength":2172,
			"byteOffset":902140
		},
		{
			"buffer":0,
			"byteLength":8,
			"byteOffset":904312
		},
		{
			"buffer":0,
			"byteLength":2896,
			"byteOffset":904320
		},
		{
			"buffer":0,
			"byteLength":2896,
			"byteOffset":907216
		},
		{
			"buffer":0,
			"byteLength":2896,
			"byteOffset":910112
		},
		{
			"buffer":0,
			"byteLength":24,
			"byteOffset":913008
		},
		{
			"buffer":0,
			"byteLength":32,
			"byteOffset":913032
		},
		{
			"buffer":0,
			"byteLength":2896,
			"byteOffset":913064
		},
		{
			"buffer":0,
			"byteLength":24,
			"byteOffset":915960
		},
		{
			"buffer":0,
			"byteLength":24,
			"byteOffset":915984
		},
		{
			"buffer":0,
			"byteLength":32,
			"byteOffset":916008
		},
		{
			"buffer":0,
			"byteLength":24,
			"byteOffset":916040
		},
		{
			"buffer":0,
			"byteLength":24,
			"byteOffset":916064
		},
		{
			"buffer":0,
			"byteLength":32,
			"byteOffset":916088
		},
		{
			"buffer":0,
			"byteLength":24,
			"byteOffset":916120
		},
		{
			"buffer":0,
			"byteLength":32,
			"byteOffset":916144
		},
		{
			"buffer":0,
			"byteLength":24,
			"byteOffset":916176
		},
		{
			"buffer":0,
			"byteLength":32,
			"byteOffset":916200
		},
		{
			"buffer":0,
			"byteLength":24,
			"byteOffset":916232
		},
		{
			"buffer":0,
			"byteLength":24,
			"byteOffset":916256
		},
		{
			"buffer":0,
			"byteLength":32,
			"byteOffset":916280
		},
		{
			"buffer":0,
			"byteLength":24,
			"byteOffset":916312
		},
		{
			"buffer":0,
			"byteLength":124,
			"byteOffset":916336
		},
		{
			"buffer":0,
			"byteLength":372,
			"byteOffset":916460
		},
		{
			"buffer":0,
			"byteLength":8,
			"byteOffset":916832
		},
		{
			"buffer":0,
			"byteLength":496,
			"byteOffset":916840
		},
		{
			"buffer":0,
			"byteLength":24,
			"byteOffset":917336
		},
		{
			"buffer":0,
			"byteLength":24,
			"byteOffset":917360
		},
		{
			"buffer":0,
			"byteLength":24,
			"byteOffset":917384
		},
		{
			"buffer":0,
			"byteLength":32,
			"byteOffset":917408
		},
		{
			"buffer":0,
			"byteLength":24,
			"byteOffset":917440
		},
		{
			"buffer":0,
			"byteLength":24,
			"byteOffset":917464
		},
		{
			"buffer":0,
			"byteLength":32,
			"byteOffset":917488
		},
		{
			"buffer":0,
			"byteLength":24,
			"byteOffset":917520
		},
		{
			"buffer":0,
			"byteLength":24,
			"byteOffset":917544
		},
		{
			"buffer":0,
			"byteLength":24,
			"byteOffset":917568
		},
		{
			"buffer":0,
			"byteLength":32,
			"byteOffset":917592
		},
		{
			"buffer":0,
			"byteLength":24,
			"byteOffset":917624
		},
		{
			"buffer":0,
			"byteLength":24,
			"byteOffset":917648
		},
		{
			"buffer":0,
			"byteLength":32,
			"byteOffset":917672
		},
		{
			"buffer":0,
			"byteLength":24,
			"byteOffset":917704
		},
		{
			"buffer":0,
			"byteLength":32,
			"byteOffset":917728
		},
		{
			"buffer":0,
			"byteLength":24,
			"byteOffset":917760
		},
		{
			"buffer":0,
			"byteLength":32,
			"byteOffset":917784
		}
	],
	"buffers":[
		{
			"byteLength":917816,
			"uri":"lichkoenig.bin"
		}
	]
}
