{
	"asset":{
		"generator":"Khronos glTF Blender I/O v5.2.40",
		"version":"2.0"
	},
	"scene":0,
	"scenes":[
		{
			"name":"Scene",
			"nodes":[
				20
			]
		}
	],
	"nodes":[
		{
			"name":"Hut",
			"rotation":[
				-0.4926983118057251,
				5.799017444019228e-08,
				-3.2833419538746966e-08,
				0.8702002167701721
			],
			"translation":[
				-5.684340700234675e-16,
				0.36000001430511475,
				-0.01999998837709427
			]
		},
		{
			"children":[
				0
			],
			"name":"Kopf",
			"rotation":[
				-0.5847103595733643,
				-1.7600994794975122e-07,
				-1.2686081163337803e-07,
				0.8112421035766602
			],
			"translation":[
				-7.107546295221853e-14,
				0.12649112939834595,
				1.1920928955078125e-07
			]
		},
		{
			"children":[
				1
			],
			"name":"Hals",
			"rotation":[
				0.584710419178009,
				1.7600994794975122e-07,
				1.2686082584423275e-07,
				0.8112421035766602
			],
			"scale":[
				1,
				0.9999998807907104,
				0.9999999403953552
			],
			"translation":[
				0,
				0.3400000333786011,
				0
			]
		},
		{
			"name":"Hand.L",
			"rotation":[
				-0.04545393958687782,
				-0.007089249789714813,
				0.035213544964790344,
				0.998320460319519
			],
			"translation":[
				-1.4901161193847656e-08,
				0.32771947979927063,
				4.700225098019928e-09
			]
		},
		{
			"children":[
				3
			],
			"name":"Unterarm.L",
			"rotation":[
				-0.11358261108398438,
				-0.002939621452242136,
				0.07531224936246872,
				0.9906656742095947
			],
			"scale":[
				1,
				1,
				0.9999998807907104
			],
			"translation":[
				4.936015152168238e-09,
				0.3996247947216034,
				-6.51925802230835e-09
			]
		},
		{
			"children":[
				4
			],
			"name":"Oberarm.L",
			"rotation":[
				-0.9876301288604736,
				-0.15223634243011475,
				0.005722477100789547,
				0.03712328150868416
			],
			"scale":[
				0.9999989867210388,
				0.9999998211860657,
				0.9999998807907104
			],
			"translation":[
				0.3700000047683716,
				0.2799999713897705,
				-0.019999999552965164
			]
		},
		{
			"mesh":1,
			"name":"Doppelaxt",
			"rotation":[
				-0.9916996359825134,
				0.04124918580055237,
				0.0050608571618795395,
				0.12167458236217499
			],
			"scale":[
				1.0000007152557373,
				1,
				1.0000001192092896
			],
			"translation":[
				0.6361286044120789,
				1.0975313186645508,
				0.2734352946281433
			]
		},
		{
			"children":[
				6
			],
			"name":"Hand.R",
			"rotation":[
				-0.04545393958687782,
				0.007089249789714813,
				-0.035213544964790344,
				0.998320460319519
			],
			"translation":[
				1.4901161193847656e-08,
				0.32771947979927063,
				4.700225098019928e-09
			]
		},
		{
			"children":[
				7
			],
			"name":"Unterarm.R",
			"rotation":[
				-0.11358261108398438,
				0.002939621452242136,
				-0.07531224936246872,
				0.9906656742095947
			],
			"scale":[
				1,
				1,
				0.9999998807907104
			],
			"translation":[
				-4.936015152168238e-09,
				0.3996247947216034,
				-6.51925802230835e-09
			]
		},
		{
			"children":[
				8
			],
			"name":"Oberarm.R",
			"rotation":[
				-0.9876301288604736,
				0.15223634243011475,
				-0.005722477100789547,
				0.03712328150868416
			],
			"scale":[
				0.9999989867210388,
				0.9999998211860657,
				0.9999998807907104
			],
			"translation":[
				-0.3700000047683716,
				0.2799999713897705,
				-0.019999999552965164
			]
		},
		{
			"children":[
				2,
				5,
				9
			],
			"name":"Brust",
			"translation":[
				0,
				0.24000000953674316,
				0
			]
		},
		{
			"children":[
				10
			],
			"name":"Bauch",
			"translation":[
				0,
				0.18000006675720215,
				0
			]
		},
		{
			"name":"Fuss.L",
			"rotation":[
				-1.8004604029897564e-08,
				0.8459329009056091,
				-0.5332894325256348,
				6.386638773392406e-08
			],
			"scale":[
				1,
				0.9999999403953552,
				0.9999999403953552
			],
			"translation":[
				-5.20802512227192e-09,
				0.5192297697067261,
				-2.3794655135134235e-10
			]
		},
		{
			"children":[
				12
			],
			"name":"Unterschenkel.L",
			"rotation":[
				0.19255514442920685,
				0.002278184052556753,
				0.02871996909379959,
				0.9808631539344788
			],
			"scale":[
				0.9999999403953552,
				1,
				1
			],
			"translation":[
				-1.0804006578268854e-09,
				0.524308979511261,
				-1.4086253941059113e-08
			]
		},
		{
			"children":[
				13
			],
			"name":"Oberschenkel.L",
			"rotation":[
				0.9979419112205505,
				0.02876278944313526,
				0.0016491616843268275,
				0.057288285344839096
			],
			"scale":[
				1.0000020265579224,
				1.0000001192092896,
				1.000008225440979
			],
			"translation":[
				0.1599999964237213,
				0,
				0
			]
		},
		{
			"name":"Fuss.R",
			"rotation":[
				8.006327156806492e-09,
				0.8459329009056091,
				-0.5332894325256348,
				6.386615325482126e-08
			],
			"scale":[
				1,
				0.9999999403953552,
				0.9999999403953552
			],
			"translation":[
				1.9117235794396947e-08,
				0.5192297697067261,
				4.3753516365541145e-09
			]
		},
		{
			"children":[
				15
			],
			"name":"Unterschenkel.R",
			"rotation":[
				0.19255515933036804,
				-0.0022781190928071737,
				-0.028719957917928696,
				0.9808631539344788
			],
			"scale":[
				0.9999999403953552,
				1,
				1
			],
			"translation":[
				1.0804006578268854e-09,
				0.524308979511261,
				-1.4086253941059113e-08
			]
		},
		{
			"children":[
				16
			],
			"name":"Oberschenkel.R",
			"rotation":[
				0.9979419112205505,
				-0.02876278944313526,
				-0.0016491616843268275,
				0.057288285344839096
			],
			"scale":[
				1.0000020265579224,
				1.0000001192092896,
				1.000008225440979
			],
			"translation":[
				-0.1599999964237213,
				0,
				0
			]
		},
		{
			"children":[
				11,
				14,
				17
			],
			"name":"Becken",
			"translation":[
				0,
				1.1799999475479126,
				0
			]
		},
		{
			"mesh":0,
			"name":"Minotaurus",
			"skin":0
		},
		{
			"children":[
				19,
				18
			],
			"name":"MinotaurusSkelett"
		}
	],
	"animations":[
		{
			"channels":[
				{
					"sampler":0,
					"target":{
						"node":18,
						"path":"translation"
					}
				},
				{
					"sampler":1,
					"target":{
						"node":18,
						"path":"rotation"
					}
				},
				{
					"sampler":2,
					"target":{
						"node":18,
						"path":"scale"
					}
				},
				{
					"sampler":3,
					"target":{
						"node":11,
						"path":"translation"
					}
				},
				{
					"sampler":4,
					"target":{
						"node":11,
						"path":"rotation"
					}
				},
				{
					"sampler":5,
					"target":{
						"node":11,
						"path":"scale"
					}
				},
				{
					"sampler":6,
					"target":{
						"node":10,
						"path":"translation"
					}
				},
				{
					"sampler":7,
					"target":{
						"node":10,
						"path":"rotation"
					}
				},
				{
					"sampler":8,
					"target":{
						"node":10,
						"path":"scale"
					}
				},
				{
					"sampler":9,
					"target":{
						"node":2,
						"path":"translation"
					}
				},
				{
					"sampler":10,
					"target":{
						"node":2,
						"path":"rotation"
					}
				},
				{
					"sampler":11,
					"target":{
						"node":2,
						"path":"scale"
					}
				},
				{
					"sampler":12,
					"target":{
						"node":1,
						"path":"translation"
					}
				},
				{
					"sampler":13,
					"target":{
						"node":1,
						"path":"rotation"
					}
				},
				{
					"sampler":14,
					"target":{
						"node":1,
						"path":"scale"
					}
				},
				{
					"sampler":15,
					"target":{
						"node":0,
						"path":"translation"
					}
				},
				{
					"sampler":16,
					"target":{
						"node":0,
						"path":"rotation"
					}
				},
				{
					"sampler":17,
					"target":{
						"node":0,
						"path":"scale"
					}
				},
				{
					"sampler":18,
					"target":{
						"node":5,
						"path":"translation"
					}
				},
				{
					"sampler":19,
					"target":{
						"node":5,
						"path":"rotation"
					}
				},
				{
					"sampler":20,
					"target":{
						"node":5,
						"path":"scale"
					}
				},
				{
					"sampler":21,
					"target":{
						"node":4,
						"path":"translation"
					}
				},
				{
					"sampler":22,
					"target":{
						"node":4,
						"path":"rotation"
					}
				},
				{
					"sampler":23,
					"target":{
						"node":4,
						"path":"scale"
					}
				},
				{
					"sampler":24,
					"target":{
						"node":3,
						"path":"translation"
					}
				},
				{
					"sampler":25,
					"target":{
						"node":3,
						"path":"rotation"
					}
				},
				{
					"sampler":26,
					"target":{
						"node":3,
						"path":"scale"
					}
				},
				{
					"sampler":27,
					"target":{
						"node":9,
						"path":"translation"
					}
				},
				{
					"sampler":28,
					"target":{
						"node":9,
						"path":"rotation"
					}
				},
				{
					"sampler":29,
					"target":{
						"node":9,
						"path":"scale"
					}
				},
				{
					"sampler":30,
					"target":{
						"node":8,
						"path":"translation"
					}
				},
				{
					"sampler":31,
					"target":{
						"node":8,
						"path":"rotation"
					}
				},
				{
					"sampler":32,
					"target":{
						"node":8,
						"path":"scale"
					}
				},
				{
					"sampler":33,
					"target":{
						"node":7,
						"path":"translation"
					}
				},
				{
					"sampler":34,
					"target":{
						"node":7,
						"path":"rotation"
					}
				},
				{
					"sampler":35,
					"target":{
						"node":7,
						"path":"scale"
					}
				},
				{
					"sampler":36,
					"target":{
						"node":14,
						"path":"translation"
					}
				},
				{
					"sampler":37,
					"target":{
						"node":14,
						"path":"rotation"
					}
				},
				{
					"sampler":38,
					"target":{
						"node":14,
						"path":"scale"
					}
				},
				{
					"sampler":39,
					"target":{
						"node":13,
						"path":"translation"
					}
				},
				{
					"sampler":40,
					"target":{
						"node":13,
						"path":"rotation"
					}
				},
				{
					"sampler":41,
					"target":{
						"node":13,
						"path":"scale"
					}
				},
				{
					"sampler":42,
					"target":{
						"node":12,
						"path":"translation"
					}
				},
				{
					"sampler":43,
					"target":{
						"node":12,
						"path":"rotation"
					}
				},
				{
					"sampler":44,
					"target":{
						"node":12,
						"path":"scale"
					}
				},
				{
					"sampler":45,
					"target":{
						"node":17,
						"path":"translation"
					}
				},
				{
					"sampler":46,
					"target":{
						"node":17,
						"path":"rotation"
					}
				},
				{
					"sampler":47,
					"target":{
						"node":17,
						"path":"scale"
					}
				},
				{
					"sampler":48,
					"target":{
						"node":16,
						"path":"translation"
					}
				},
				{
					"sampler":49,
					"target":{
						"node":16,
						"path":"rotation"
					}
				},
				{
					"sampler":50,
					"target":{
						"node":16,
						"path":"scale"
					}
				},
				{
					"sampler":51,
					"target":{
						"node":15,
						"path":"translation"
					}
				},
				{
					"sampler":52,
					"target":{
						"node":15,
						"path":"rotation"
					}
				},
				{
					"sampler":53,
					"target":{
						"node":15,
						"path":"scale"
					}
				}
			],
			"name":"Angriff",
			"samplers":[
				{
					"input":11,
					"interpolation":"STEP",
					"output":12
				},
				{
					"input":11,
					"interpolation":"STEP",
					"output":13
				},
				{
					"input":11,
					"interpolation":"STEP",
					"output":14
				},
				{
					"input":11,
					"interpolation":"STEP",
					"output":15
				},
				{
					"input":16,
					"interpolation":"LINEAR",
					"output":17
				},
				{
					"input":11,
					"interpolation":"STEP",
					"output":14
				},
				{
					"input":11,
					"interpolation":"STEP",
					"output":18
				},
				{
					"input":16,
					"interpolation":"LINEAR",
					"output":19
				},
				{
					"input":11,
					"interpolation":"STEP",
					"output":14
				},
				{
					"input":11,
					"interpolation":"STEP",
					"output":20
				},
				{
					"input":11,
					"interpolation":"STEP",
					"output":21
				},
				{
					"input":11,
					"interpolation":"STEP",
					"output":22
				},
				{
					"input":11,
					"interpolation":"STEP",
					"output":23
				},
				{
					"input":11,
					"interpolation":"STEP",
					"output":24
				},
				{
					"input":11,
					"interpolation":"STEP",
					"output":14
				},
				{
					"input":11,
					"interpolation":"STEP",
					"output":25
				},
				{
					"input":11,
					"interpolation":"STEP",
					"output":26
				},
				{
					"input":11,
					"interpolation":"STEP",
					"output":27
				},
				{
					"input":11,
					"interpolation":"STEP",
					"output":28
				},
				{
					"input":11,
					"interpolation":"STEP",
					"output":29
				},
				{
					"input":11,
					"interpolation":"STEP",
					"output":30
				},
				{
					"input":11,
					"interpolation":"STEP",
					"output":31
				},
				{
					"input":11,
					"interpolation":"STEP",
					"output":32
				},
				{
					"input":11,
					"interpolation":"STEP",
					"output":33
				},
				{
					"input":11,
					"interpolation":"STEP",
					"output":34
				},
				{
					"input":11,
					"interpolation":"STEP",
					"output":35
				},
				{
					"input":11,
					"interpolation":"STEP",
					"output":36
				},
				{
					"input":11,
					"interpolation":"STEP",
					"output":37
				},
				{
					"input":16,
					"interpolation":"LINEAR",
					"output":38
				},
				{
					"input":11,
					"interpolation":"STEP",
					"output":39
				},
				{
					"input":11,
					"interpolation":"STEP",
					"output":40
				},
				{
					"input":16,
					"interpolation":"LINEAR",
					"output":41
				},
				{
					"input":11,
					"interpolation":"STEP",
					"output":42
				},
				{
					"input":11,
					"interpolation":"STEP",
					"output":43
				},
				{
					"input":11,
					"interpolation":"STEP",
					"output":44
				},
				{
					"input":11,
					"interpolation":"STEP",
					"output":45
				},
				{
					"input":11,
					"interpolation":"STEP",
					"output":46
				},
				{
					"input":16,
					"interpolation":"LINEAR",
					"output":47
				},
				{
					"input":11,
					"interpolation":"STEP",
					"output":48
				},
				{
					"input":11,
					"interpolation":"STEP",
					"output":49
				},
				{
					"input":16,
					"interpolation":"LINEAR",
					"output":50
				},
				{
					"input":11,
					"interpolation":"STEP",
					"output":51
				},
				{
					"input":11,
					"interpolation":"STEP",
					"output":52
				},
				{
					"input":11,
					"interpolation":"STEP",
					"output":53
				},
				{
					"input":11,
					"interpolation":"STEP",
					"output":54
				},
				{
					"input":11,
					"interpolation":"STEP",
					"output":55
				},
				{
					"input":16,
					"interpolation":"LINEAR",
					"output":56
				},
				{
					"input":11,
					"interpolation":"STEP",
					"output":57
				},
				{
					"input":11,
					"interpolation":"STEP",
					"output":58
				},
				{
					"input":16,
					"interpolation":"LINEAR",
					"output":59
				},
				{
					"input":11,
					"interpolation":"STEP",
					"output":60
				},
				{
					"input":11,
					"interpolation":"STEP",
					"output":61
				},
				{
					"input":11,
					"interpolation":"STEP",
					"output":62
				},
				{
					"input":11,
					"interpolation":"STEP",
					"output":63
				}
			]
		},
		{
			"channels":[
				{
					"sampler":0,
					"target":{
						"node":18,
						"path":"translation"
					}
				},
				{
					"sampler":1,
					"target":{
						"node":18,
						"path":"rotation"
					}
				},
				{
					"sampler":2,
					"target":{
						"node":18,
						"path":"scale"
					}
				},
				{
					"sampler":3,
					"target":{
						"node":11,
						"path":"translation"
					}
				},
				{
					"sampler":4,
					"target":{
						"node":11,
						"path":"rotation"
					}
				},
				{
					"sampler":5,
					"target":{
						"node":11,
						"path":"scale"
					}
				},
				{
					"sampler":6,
					"target":{
						"node":10,
						"path":"translation"
					}
				},
				{
					"sampler":7,
					"target":{
						"node":10,
						"path":"rotation"
					}
				},
				{
					"sampler":8,
					"target":{
						"node":10,
						"path":"scale"
					}
				},
				{
					"sampler":9,
					"target":{
						"node":2,
						"path":"translation"
					}
				},
				{
					"sampler":10,
					"target":{
						"node":2,
						"path":"rotation"
					}
				},
				{
					"sampler":11,
					"target":{
						"node":2,
						"path":"scale"
					}
				},
				{
					"sampler":12,
					"target":{
						"node":1,
						"path":"translation"
					}
				},
				{
					"sampler":13,
					"target":{
						"node":1,
						"path":"rotation"
					}
				},
				{
					"sampler":14,
					"target":{
						"node":1,
						"path":"scale"
					}
				},
				{
					"sampler":15,
					"target":{
						"node":0,
						"path":"translation"
					}
				},
				{
					"sampler":16,
					"target":{
						"node":0,
						"path":"rotation"
					}
				},
				{
					"sampler":17,
					"target":{
						"node":0,
						"path":"scale"
					}
				},
				{
					"sampler":18,
					"target":{
						"node":5,
						"path":"translation"
					}
				},
				{
					"sampler":19,
					"target":{
						"node":5,
						"path":"rotation"
					}
				},
				{
					"sampler":20,
					"target":{
						"node":5,
						"path":"scale"
					}
				},
				{
					"sampler":21,
					"target":{
						"node":4,
						"path":"translation"
					}
				},
				{
					"sampler":22,
					"target":{
						"node":4,
						"path":"rotation"
					}
				},
				{
					"sampler":23,
					"target":{
						"node":4,
						"path":"scale"
					}
				},
				{
					"sampler":24,
					"target":{
						"node":3,
						"path":"translation"
					}
				},
				{
					"sampler":25,
					"target":{
						"node":3,
						"path":"rotation"
					}
				},
				{
					"sampler":26,
					"target":{
						"node":3,
						"path":"scale"
					}
				},
				{
					"sampler":27,
					"target":{
						"node":9,
						"path":"translation"
					}
				},
				{
					"sampler":28,
					"target":{
						"node":9,
						"path":"rotation"
					}
				},
				{
					"sampler":29,
					"target":{
						"node":9,
						"path":"scale"
					}
				},
				{
					"sampler":30,
					"target":{
						"node":8,
						"path":"translation"
					}
				},
				{
					"sampler":31,
					"target":{
						"node":8,
						"path":"rotation"
					}
				},
				{
					"sampler":32,
					"target":{
						"node":8,
						"path":"scale"
					}
				},
				{
					"sampler":33,
					"target":{
						"node":7,
						"path":"translation"
					}
				},
				{
					"sampler":34,
					"target":{
						"node":7,
						"path":"rotation"
					}
				},
				{
					"sampler":35,
					"target":{
						"node":7,
						"path":"scale"
					}
				},
				{
					"sampler":36,
					"target":{
						"node":14,
						"path":"translation"
					}
				},
				{
					"sampler":37,
					"target":{
						"node":14,
						"path":"rotation"
					}
				},
				{
					"sampler":38,
					"target":{
						"node":14,
						"path":"scale"
					}
				},
				{
					"sampler":39,
					"target":{
						"node":13,
						"path":"translation"
					}
				},
				{
					"sampler":40,
					"target":{
						"node":13,
						"path":"rotation"
					}
				},
				{
					"sampler":41,
					"target":{
						"node":13,
						"path":"scale"
					}
				},
				{
					"sampler":42,
					"target":{
						"node":12,
						"path":"translation"
					}
				},
				{
					"sampler":43,
					"target":{
						"node":12,
						"path":"rotation"
					}
				},
				{
					"sampler":44,
					"target":{
						"node":12,
						"path":"scale"
					}
				},
				{
					"sampler":45,
					"target":{
						"node":17,
						"path":"translation"
					}
				},
				{
					"sampler":46,
					"target":{
						"node":17,
						"path":"rotation"
					}
				},
				{
					"sampler":47,
					"target":{
						"node":17,
						"path":"scale"
					}
				},
				{
					"sampler":48,
					"target":{
						"node":16,
						"path":"translation"
					}
				},
				{
					"sampler":49,
					"target":{
						"node":16,
						"path":"rotation"
					}
				},
				{
					"sampler":50,
					"target":{
						"node":16,
						"path":"scale"
					}
				},
				{
					"sampler":51,
					"target":{
						"node":15,
						"path":"translation"
					}
				},
				{
					"sampler":52,
					"target":{
						"node":15,
						"path":"rotation"
					}
				},
				{
					"sampler":53,
					"target":{
						"node":15,
						"path":"scale"
					}
				}
			],
			"name":"Idle",
			"samplers":[
				{
					"input":64,
					"interpolation":"LINEAR",
					"output":65
				},
				{
					"input":66,
					"interpolation":"STEP",
					"output":13
				},
				{
					"input":66,
					"interpolation":"STEP",
					"output":14
				},
				{
					"input":66,
					"interpolation":"STEP",
					"output":15
				},
				{
					"input":64,
					"interpolation":"LINEAR",
					"output":67
				},
				{
					"input":66,
					"interpolation":"STEP",
					"output":14
				},
				{
					"input":66,
					"interpolation":"STEP",
					"output":18
				},
				{
					"input":64,
					"interpolation":"LINEAR",
					"output":68
				},
				{
					"input":66,
					"interpolation":"STEP",
					"output":14
				},
				{
					"input":66,
					"interpolation":"STEP",
					"output":20
				},
				{
					"input":66,
					"interpolation":"STEP",
					"output":21
				},
				{
					"input":66,
					"interpolation":"STEP",
					"output":22
				},
				{
					"input":66,
					"interpolation":"STEP",
					"output":23
				},
				{
					"input":64,
					"interpolation":"LINEAR",
					"output":69
				},
				{
					"input":66,
					"interpolation":"STEP",
					"output":14
				},
				{
					"input":66,
					"interpolation":"STEP",
					"output":70
				},
				{
					"input":66,
					"interpolation":"STEP",
					"output":71
				},
				{
					"input":66,
					"interpolation":"STEP",
					"output":27
				},
				{
					"input":66,
					"interpolation":"STEP",
					"output":28
				},
				{
					"input":64,
					"interpolation":"LINEAR",
					"output":72
				},
				{
					"input":66,
					"interpolation":"STEP",
					"output":73
				},
				{
					"input":66,
					"interpolation":"STEP",
					"output":74
				},
				{
					"input":66,
					"interpolation":"STEP",
					"output":75
				},
				{
					"input":66,
					"interpolation":"STEP",
					"output":27
				},
				{
					"input":66,
					"interpolation":"STEP",
					"output":76
				},
				{
					"input":66,
					"interpolation":"STEP",
					"output":77
				},
				{
					"input":66,
					"interpolation":"STEP",
					"output":78
				},
				{
					"input":66,
					"interpolation":"STEP",
					"output":37
				},
				{
					"input":66,
					"interpolation":"STEP",
					"output":79
				},
				{
					"input":66,
					"interpolation":"STEP",
					"output":39
				},
				{
					"input":66,
					"interpolation":"STEP",
					"output":80
				},
				{
					"input":66,
					"interpolation":"STEP",
					"output":81
				},
				{
					"input":66,
					"interpolation":"STEP",
					"output":82
				},
				{
					"input":66,
					"interpolation":"STEP",
					"output":83
				},
				{
					"input":66,
					"interpolation":"STEP",
					"output":84
				},
				{
					"input":66,
					"interpolation":"STEP",
					"output":36
				},
				{
					"input":66,
					"interpolation":"STEP",
					"output":46
				},
				{
					"input":66,
					"interpolation":"STEP",
					"output":85
				},
				{
					"input":66,
					"interpolation":"STEP",
					"output":86
				},
				{
					"input":66,
					"interpolation":"STEP",
					"output":87
				},
				{
					"input":66,
					"interpolation":"STEP",
					"output":88
				},
				{
					"input":66,
					"interpolation":"STEP",
					"output":89
				},
				{
					"input":66,
					"interpolation":"STEP",
					"output":90
				},
				{
					"input":66,
					"interpolation":"STEP",
					"output":91
				},
				{
					"input":66,
					"interpolation":"STEP",
					"output":92
				},
				{
					"input":66,
					"interpolation":"STEP",
					"output":55
				},
				{
					"input":66,
					"interpolation":"STEP",
					"output":93
				},
				{
					"input":66,
					"interpolation":"STEP",
					"output":86
				},
				{
					"input":66,
					"interpolation":"STEP",
					"output":94
				},
				{
					"input":66,
					"interpolation":"STEP",
					"output":95
				},
				{
					"input":66,
					"interpolation":"STEP",
					"output":96
				},
				{
					"input":66,
					"interpolation":"STEP",
					"output":97
				},
				{
					"input":66,
					"interpolation":"STEP",
					"output":98
				},
				{
					"input":66,
					"interpolation":"STEP",
					"output":27
				}
			]
		},
		{
			"channels":[
				{
					"sampler":0,
					"target":{
						"node":18,
						"path":"translation"
					}
				},
				{
					"sampler":1,
					"target":{
						"node":18,
						"path":"rotation"
					}
				},
				{
					"sampler":2,
					"target":{
						"node":18,
						"path":"scale"
					}
				},
				{
					"sampler":3,
					"target":{
						"node":11,
						"path":"translation"
					}
				},
				{
					"sampler":4,
					"target":{
						"node":11,
						"path":"rotation"
					}
				},
				{
					"sampler":5,
					"target":{
						"node":11,
						"path":"scale"
					}
				},
				{
					"sampler":6,
					"target":{
						"node":10,
						"path":"translation"
					}
				},
				{
					"sampler":7,
					"target":{
						"node":10,
						"path":"rotation"
					}
				},
				{
					"sampler":8,
					"target":{
						"node":10,
						"path":"scale"
					}
				},
				{
					"sampler":9,
					"target":{
						"node":2,
						"path":"translation"
					}
				},
				{
					"sampler":10,
					"target":{
						"node":2,
						"path":"rotation"
					}
				},
				{
					"sampler":11,
					"target":{
						"node":2,
						"path":"scale"
					}
				},
				{
					"sampler":12,
					"target":{
						"node":1,
						"path":"translation"
					}
				},
				{
					"sampler":13,
					"target":{
						"node":1,
						"path":"rotation"
					}
				},
				{
					"sampler":14,
					"target":{
						"node":1,
						"path":"scale"
					}
				},
				{
					"sampler":15,
					"target":{
						"node":0,
						"path":"translation"
					}
				},
				{
					"sampler":16,
					"target":{
						"node":0,
						"path":"rotation"
					}
				},
				{
					"sampler":17,
					"target":{
						"node":0,
						"path":"scale"
					}
				},
				{
					"sampler":18,
					"target":{
						"node":5,
						"path":"translation"
					}
				},
				{
					"sampler":19,
					"target":{
						"node":5,
						"path":"rotation"
					}
				},
				{
					"sampler":20,
					"target":{
						"node":5,
						"path":"scale"
					}
				},
				{
					"sampler":21,
					"target":{
						"node":4,
						"path":"translation"
					}
				},
				{
					"sampler":22,
					"target":{
						"node":4,
						"path":"rotation"
					}
				},
				{
					"sampler":23,
					"target":{
						"node":4,
						"path":"scale"
					}
				},
				{
					"sampler":24,
					"target":{
						"node":3,
						"path":"translation"
					}
				},
				{
					"sampler":25,
					"target":{
						"node":3,
						"path":"rotation"
					}
				},
				{
					"sampler":26,
					"target":{
						"node":3,
						"path":"scale"
					}
				},
				{
					"sampler":27,
					"target":{
						"node":9,
						"path":"translation"
					}
				},
				{
					"sampler":28,
					"target":{
						"node":9,
						"path":"rotation"
					}
				},
				{
					"sampler":29,
					"target":{
						"node":9,
						"path":"scale"
					}
				},
				{
					"sampler":30,
					"target":{
						"node":8,
						"path":"translation"
					}
				},
				{
					"sampler":31,
					"target":{
						"node":8,
						"path":"rotation"
					}
				},
				{
					"sampler":32,
					"target":{
						"node":8,
						"path":"scale"
					}
				},
				{
					"sampler":33,
					"target":{
						"node":7,
						"path":"translation"
					}
				},
				{
					"sampler":34,
					"target":{
						"node":7,
						"path":"rotation"
					}
				},
				{
					"sampler":35,
					"target":{
						"node":7,
						"path":"scale"
					}
				},
				{
					"sampler":36,
					"target":{
						"node":14,
						"path":"translation"
					}
				},
				{
					"sampler":37,
					"target":{
						"node":14,
						"path":"rotation"
					}
				},
				{
					"sampler":38,
					"target":{
						"node":14,
						"path":"scale"
					}
				},
				{
					"sampler":39,
					"target":{
						"node":13,
						"path":"translation"
					}
				},
				{
					"sampler":40,
					"target":{
						"node":13,
						"path":"rotation"
					}
				},
				{
					"sampler":41,
					"target":{
						"node":13,
						"path":"scale"
					}
				},
				{
					"sampler":42,
					"target":{
						"node":12,
						"path":"translation"
					}
				},
				{
					"sampler":43,
					"target":{
						"node":12,
						"path":"rotation"
					}
				},
				{
					"sampler":44,
					"target":{
						"node":12,
						"path":"scale"
					}
				},
				{
					"sampler":45,
					"target":{
						"node":17,
						"path":"translation"
					}
				},
				{
					"sampler":46,
					"target":{
						"node":17,
						"path":"rotation"
					}
				},
				{
					"sampler":47,
					"target":{
						"node":17,
						"path":"scale"
					}
				},
				{
					"sampler":48,
					"target":{
						"node":16,
						"path":"translation"
					}
				},
				{
					"sampler":49,
					"target":{
						"node":16,
						"path":"rotation"
					}
				},
				{
					"sampler":50,
					"target":{
						"node":16,
						"path":"scale"
					}
				},
				{
					"sampler":51,
					"target":{
						"node":15,
						"path":"translation"
					}
				},
				{
					"sampler":52,
					"target":{
						"node":15,
						"path":"rotation"
					}
				},
				{
					"sampler":53,
					"target":{
						"node":15,
						"path":"scale"
					}
				}
			],
			"name":"Laufen",
			"samplers":[
				{
					"input":16,
					"interpolation":"LINEAR",
					"output":99
				},
				{
					"input":16,
					"interpolation":"LINEAR",
					"output":100
				},
				{
					"input":11,
					"interpolation":"STEP",
					"output":14
				},
				{
					"input":11,
					"interpolation":"STEP",
					"output":15
				},
				{
					"input":11,
					"interpolation":"STEP",
					"output":101
				},
				{
					"input":11,
					"interpolation":"STEP",
					"output":14
				},
				{
					"input":11,
					"interpolation":"STEP",
					"output":102
				},
				{
					"input":16,
					"interpolation":"LINEAR",
					"output":103
				},
				{
					"input":11,
					"interpolation":"STEP",
					"output":14
				},
				{
					"input":11,
					"interpolation":"STEP",
					"output":104
				},
				{
					"input":11,
					"interpolation":"STEP",
					"output":21
				},
				{
					"input":11,
					"interpolation":"STEP",
					"output":105
				},
				{
					"input":11,
					"interpolation":"STEP",
					"output":106
				},
				{
					"input":16,
					"interpolation":"LINEAR",
					"output":107
				},
				{
					"input":11,
					"interpolation":"STEP",
					"output":14
				},
				{
					"input":11,
					"interpolation":"STEP",
					"output":108
				},
				{
					"input":16,
					"interpolation":"LINEAR",
					"output":109
				},
				{
					"input":11,
					"interpolation":"STEP",
					"output":27
				},
				{
					"input":11,
					"interpolation":"STEP",
					"output":110
				},
				{
					"input":16,
					"interpolation":"LINEAR",
					"output":111
				},
				{
					"input":11,
					"interpolation":"STEP",
					"output":112
				},
				{
					"input":11,
					"interpolation":"STEP",
					"output":113
				},
				{
					"input":11,
					"interpolation":"STEP",
					"output":114
				},
				{
					"input":11,
					"interpolation":"STEP",
					"output":27
				},
				{
					"input":11,
					"interpolation":"STEP",
					"output":115
				},
				{
					"input":11,
					"interpolation":"STEP",
					"output":116
				},
				{
					"input":11,
					"interpolation":"STEP",
					"output":36
				},
				{
					"input":11,
					"interpolation":"STEP",
					"output":117
				},
				{
					"input":16,
					"interpolation":"LINEAR",
					"output":118
				},
				{
					"input":11,
					"interpolation":"STEP",
					"output":119
				},
				{
					"input":11,
					"interpolation":"STEP",
					"output":120
				},
				{
					"input":11,
					"interpolation":"STEP",
					"output":121
				},
				{
					"input":11,
					"interpolation":"STEP",
					"output":122
				},
				{
					"input":11,
					"interpolation":"STEP",
					"output":123
				},
				{
					"input":11,
					"interpolation":"STEP",
					"output":124
				},
				{
					"input":11,
					"interpolation":"STEP",
					"output":122
				},
				{
					"input":11,
					"interpolation":"STEP",
					"output":125
				},
				{
					"input":16,
					"interpolation":"LINEAR",
					"output":126
				},
				{
					"input":11,
					"interpolation":"STEP",
					"output":86
				},
				{
					"input":11,
					"interpolation":"STEP",
					"output":127
				},
				{
					"input":16,
					"interpolation":"LINEAR",
					"output":128
				},
				{
					"input":11,
					"interpolation":"STEP",
					"output":89
				},
				{
					"input":11,
					"interpolation":"STEP",
					"output":129
				},
				{
					"input":16,
					"interpolation":"LINEAR",
					"output":130
				},
				{
					"input":11,
					"interpolation":"STEP",
					"output":131
				},
				{
					"input":11,
					"interpolation":"STEP",
					"output":132
				},
				{
					"input":16,
					"interpolation":"LINEAR",
					"output":133
				},
				{
					"input":11,
					"interpolation":"STEP",
					"output":86
				},
				{
					"input":11,
					"interpolation":"STEP",
					"output":134
				},
				{
					"input":16,
					"interpolation":"LINEAR",
					"output":135
				},
				{
					"input":11,
					"interpolation":"STEP",
					"output":89
				},
				{
					"input":11,
					"interpolation":"STEP",
					"output":136
				},
				{
					"input":16,
					"interpolation":"LINEAR",
					"output":137
				},
				{
					"input":11,
					"interpolation":"STEP",
					"output":27
				}
			]
		}
	],
	"materials":[
		{
			"doubleSided":true,
			"name":"Minotaurus",
			"pbrMetallicRoughness":{
				"metallicFactor":0,
				"roughnessFactor":0.8500000238418579
			}
		}
	],
	"meshes":[
		{
			"name":"Rumpf",
			"primitives":[
				{
					"attributes":{
						"POSITION":0,
						"NORMAL":1,
						"COLOR_0":2,
						"JOINTS_0":3,
						"WEIGHTS_0":4
					},
					"indices":5,
					"material":0
				}
			]
		},
		{
			"name":"Doppelaxt",
			"primitives":[
				{
					"attributes":{
						"POSITION":7,
						"NORMAL":8,
						"COLOR_0":9
					},
					"indices":10,
					"material":0
				}
			]
		}
	],
	"skins":[
		{
			"inverseBindMatrices":6,
			"joints":[
				18,
				11,
				10,
				2,
				1,
				0,
				5,
				4,
				3,
				9,
				8,
				7,
				14,
				13,
				12,
				17,
				16,
				15
			],
			"name":"MinotaurusSkelett"
		}
	],
	"accessors":[
		{
			"bufferView":0,
			"componentType":5126,
			"count":32654,
			"max":[
				0.6412970423698425,
				2.502084255218506,
				0.4449999928474426
			],
			"min":[
				-0.6410776376724243,
				0,
				-0.2800000011920929
			],
			"type":"VEC3"
		},
		{
			"bufferView":1,
			"componentType":5126,
			"count":32654,
			"type":"VEC3"
		},
		{
			"bufferView":2,
			"componentType":5126,
			"count":32654,
			"type":"VEC3"
		},
		{
			"bufferView":3,
			"componentType":5121,
			"count":32654,
			"type":"VEC4"
		},
		{
			"bufferView":4,
			"componentType":5126,
			"count":32654,
			"type":"VEC4"
		},
		{
			"bufferView":5,
			"componentType":5123,
			"count":39846,
			"type":"SCALAR"
		},
		{
			"bufferView":6,
			"componentType":5126,
			"count":18,
			"type":"MAT4"
		},
		{
			"bufferView":7,
			"componentType":5126,
			"count":1076,
			"max":[
				-0.4974471926689148,
				2.354506254196167,
				0.6327127814292908
			],
			"min":[
				-0.5925528407096863,
				0.6280086040496826,
				-0.1418950855731964
			],
			"type":"VEC3"
		},
		{
			"bufferView":8,
			"componentType":5126,
			"count":1076,
			"type":"VEC3"
		},
		{
			"bufferView":9,
			"componentType":5126,
			"count":1076,
			"type":"VEC3"
		},
		{
			"bufferView":10,
			"componentType":5123,
			"count":1560,
			"type":"SCALAR"
		},
		{
			"bufferView":11,
			"componentType":5126,
			"count":2,
			"max":[
				1
			],
			"min":[
				0
			],
			"type":"SCALAR"
		},
		{
			"bufferView":12,
			"componentType":5126,
			"count":2,
			"type":"VEC3"
		},
		{
			"bufferView":13,
			"componentType":5126,
			"count":2,
			"type":"VEC4"
		},
		{
			"bufferView":14,
			"componentType":5126,
			"count":2,
			"type":"VEC3"
		},
		{
			"bufferView":15,
			"componentType":5126,
			"count":2,
			"type":"VEC3"
		},
		{
			"bufferView":16,
			"componentType":5126,
			"count":31,
			"max":[
				1
			],
			"min":[
				0
			],
			"type":"SCALAR"
		},
		{
			"bufferView":17,
			"componentType":5126,
			"count":31,
			"type":"VEC4"
		},
		{
			"bufferView":18,
			"componentType":5126,
			"count":2,
			"type":"VEC3"
		},
		{
			"bufferView":19,
			"componentType":5126,
			"count":31,
			"type":"VEC4"
		},
		{
			"bufferView":20,
			"componentType":5126,
			"count":2,
			"type":"VEC3"
		},
		{
			"bufferView":21,
			"componentType":5126,
			"count":2,
			"type":"VEC4"
		},
		{
			"bufferView":22,
			"componentType":5126,
			"count":2,
			"type":"VEC3"
		},
		{
			"bufferView":23,
			"componentType":5126,
			"count":2,
			"type":"VEC3"
		},
		{
			"bufferView":24,
			"componentType":5126,
			"count":2,
			"type":"VEC4"
		},
		{
			"bufferView":25,
			"componentType":5126,
			"count":2,
			"type":"VEC3"
		},
		{
			"bufferView":26,
			"componentType":5126,
			"count":2,
			"type":"VEC4"
		},
		{
			"bufferView":27,
			"componentType":5126,
			"count":2,
			"type":"VEC3"
		},
		{
			"bufferView":28,
			"componentType":5126,
			"count":2,
			"type":"VEC3"
		},
		{
			"bufferView":29,
			"componentType":5126,
			"count":2,
			"type":"VEC4"
		},
		{
			"bufferView":30,
			"componentType":5126,
			"count":2,
			"type":"VEC3"
		},
		{
			"bufferView":31,
			"componentType":5126,
			"count":2,
			"type":"VEC3"
		},
		{
			"bufferView":32,
			"componentType":5126,
			"count":2,
			"type":"VEC4"
		},
		{
			"bufferView":33,
			"componentType":5126,
			"count":2,
			"type":"VEC3"
		},
		{
			"bufferView":34,
			"componentType":5126,
			"count":2,
			"type":"VEC3"
		},
		{
			"bufferView":35,
			"componentType":5126,
			"count":2,
			"type":"VEC4"
		},
		{
			"bufferView":36,
			"componentType":5126,
			"count":2,
			"type":"VEC3"
		},
		{
			"bufferView":37,
			"componentType":5126,
			"count":2,
			"type":"VEC3"
		},
		{
			"bufferView":38,
			"componentType":5126,
			"count":31,
			"type":"VEC4"
		},
		{
			"bufferView":39,
			"componentType":5126,
			"count":2,
			"type":"VEC3"
		},
		{
			"bufferView":40,
			"componentType":5126,
			"count":2,
			"type":"VEC3"
		},
		{
			"bufferView":41,
			"componentType":5126,
			"count":31,
			"type":"VEC4"
		},
		{
			"bufferView":42,
			"componentType":5126,
			"count":2,
			"type":"VEC3"
		},
		{
			"bufferView":43,
			"componentType":5126,
			"count":2,
			"type":"VEC3"
		},
		{
			"bufferView":44,
			"componentType":5126,
			"count":2,
			"type":"VEC4"
		},
		{
			"bufferView":45,
			"componentType":5126,
			"count":2,
			"type":"VEC3"
		},
		{
			"bufferView":46,
			"componentType":5126,
			"count":2,
			"type":"VEC3"
		},
		{
			"bufferView":47,
			"componentType":5126,
			"count":31,
			"type":"VEC4"
		},
		{
			"bufferView":48,
			"componentType":5126,
			"count":2,
			"type":"VEC3"
		},
		{
			"bufferView":49,
			"componentType":5126,
			"count":2,
			"type":"VEC3"
		},
		{
			"bufferView":50,
			"componentType":5126,
			"count":31,
			"type":"VEC4"
		},
		{
			"bufferView":51,
			"componentType":5126,
			"count":2,
			"type":"VEC3"
		},
		{
			"bufferView":52,
			"componentType":5126,
			"count":2,
			"type":"VEC3"
		},
		{
			"bufferView":53,
			"componentType":5126,
			"count":2,
			"type":"VEC4"
		},
		{
			"bufferView":54,
			"componentType":5126,
			"count":2,
			"type":"VEC3"
		},
		{
			"bufferView":55,
			"componentType":5126,
			"count":2,
			"type":"VEC3"
		},
		{
			"bufferView":56,
			"componentType":5126,
			"count":31,
			"type":"VEC4"
		},
		{
			"bufferView":57,
			"componentType":5126,
			"count":2,
			"type":"VEC3"
		},
		{
			"bufferView":58,
			"componentType":5126,
			"count":2,
			"type":"VEC3"
		},
		{
			"bufferView":59,
			"componentType":5126,
			"count":31,
			"type":"VEC4"
		},
		{
			"bufferView":60,
			"componentType":5126,
			"count":2,
			"type":"VEC3"
		},
		{
			"bufferView":61,
			"componentType":5126,
			"count":2,
			"type":"VEC3"
		},
		{
			"bufferView":62,
			"componentType":5126,
			"count":2,
			"type":"VEC4"
		},
		{
			"bufferView":63,
			"componentType":5126,
			"count":2,
			"type":"VEC3"
		},
		{
			"bufferView":64,
			"componentType":5126,
			"count":181,
			"max":[
				6
			],
			"min":[
				0
			],
			"type":"SCALAR"
		},
		{
			"bufferView":65,
			"componentType":5126,
			"count":181,
			"type":"VEC3"
		},
		{
			"bufferView":66,
			"componentType":5126,
			"count":2,
			"max":[
				6
			],
			"min":[
				0
			],
			"type":"SCALAR"
		},
		{
			"bufferView":67,
			"componentType":5126,
			"count":181,
			"type":"VEC4"
		},
		{
			"bufferView":68,
			"componentType":5126,
			"count":181,
			"type":"VEC4"
		},
		{
			"bufferView":69,
			"componentType":5126,
			"count":181,
			"type":"VEC4"
		},
		{
			"bufferView":70,
			"componentType":5126,
			"count":2,
			"type":"VEC3"
		},
		{
			"bufferView":71,
			"componentType":5126,
			"count":2,
			"type":"VEC4"
		},
		{
			"bufferView":72,
			"componentType":5126,
			"count":181,
			"type":"VEC4"
		},
		{
			"bufferView":73,
			"componentType":5126,
			"count":2,
			"type":"VEC3"
		},
		{
			"bufferView":74,
			"componentType":5126,
			"count":2,
			"type":"VEC3"
		},
		{
			"bufferView":75,
			"componentType":5126,
			"count":2,
			"type":"VEC4"
		},
		{
			"bufferView":76,
			"componentType":5126,
			"count":2,
			"type":"VEC3"
		},
		{
			"bufferView":77,
			"componentType":5126,
			"count":2,
			"type":"VEC4"
		},
		{
			"bufferView":78,
			"componentType":5126,
			"count":2,
			"type":"VEC3"
		},
		{
			"bufferView":79,
			"componentType":5126,
			"count":2,
			"type":"VEC4"
		},
		{
			"bufferView":80,
			"componentType":5126,
			"count":2,
			"type":"VEC3"
		},
		{
			"bufferView":81,
			"componentType":5126,
			"count":2,
			"type":"VEC4"
		},
		{
			"bufferView":82,
			"componentType":5126,
			"count":2,
			"type":"VEC3"
		},
		{
			"bufferView":83,
			"componentType":5126,
			"count":2,
			"type":"VEC3"
		},
		{
			"bufferView":84,
			"componentType":5126,
			"count":2,
			"type":"VEC4"
		},
		{
			"bufferView":85,
			"componentType":5126,
			"count":2,
			"type":"VEC4"
		},
		{
			"bufferView":86,
			"componentType":5126,
			"count":2,
			"type":"VEC3"
		},
		{
			"bufferView":87,
			"componentType":5126,
			"count":2,
			"type":"VEC3"
		},
		{
			"bufferView":88,
			"componentType":5126,
			"count":2,
			"type":"VEC4"
		},
		{
			"bufferView":89,
			"componentType":5126,
			"count":2,
			"type":"VEC3"
		},
		{
			"bufferView":90,
			"componentType":5126,
			"count":2,
			"type":"VEC3"
		},
		{
			"bufferView":91,
			"componentType":5126,
			"count":2,
			"type":"VEC4"
		},
		{
			"bufferView":92,
			"componentType":5126,
			"count":2,
			"type":"VEC3"
		},
		{
			"bufferView":93,
			"componentType":5126,
			"count":2,
			"type":"VEC4"
		},
		{
			"bufferView":94,
			"componentType":5126,
			"count":2,
			"type":"VEC3"
		},
		{
			"bufferView":95,
			"componentType":5126,
			"count":2,
			"type":"VEC4"
		},
		{
			"bufferView":96,
			"componentType":5126,
			"count":2,
			"type":"VEC3"
		},
		{
			"bufferView":97,
			"componentType":5126,
			"count":2,
			"type":"VEC3"
		},
		{
			"bufferView":98,
			"componentType":5126,
			"count":2,
			"type":"VEC4"
		},
		{
			"bufferView":99,
			"componentType":5126,
			"count":31,
			"type":"VEC3"
		},
		{
			"bufferView":100,
			"componentType":5126,
			"count":31,
			"type":"VEC4"
		},
		{
			"bufferView":101,
			"componentType":5126,
			"count":2,
			"type":"VEC4"
		},
		{
			"bufferView":102,
			"componentType":5126,
			"count":2,
			"type":"VEC3"
		},
		{
			"bufferView":103,
			"componentType":5126,
			"count":31,
			"type":"VEC4"
		},
		{
			"bufferView":104,
			"componentType":5126,
			"count":2,
			"type":"VEC3"
		},
		{
			"bufferView":105,
			"componentType":5126,
			"count":2,
			"type":"VEC3"
		},
		{
			"bufferView":106,
			"componentType":5126,
			"count":2,
			"type":"VEC3"
		},
		{
			"bufferView":107,
			"componentType":5126,
			"count":31,
			"type":"VEC4"
		},
		{
			"bufferView":108,
			"componentType":5126,
			"count":2,
			"type":"VEC3"
		},
		{
			"bufferView":109,
			"componentType":5126,
			"count":31,
			"type":"VEC4"
		},
		{
			"bufferView":110,
			"componentType":5126,
			"count":2,
			"type":"VEC3"
		},
		{
			"bufferView":111,
			"componentType":5126,
			"count":31,
			"type":"VEC4"
		},
		{
			"bufferView":112,
			"componentType":5126,
			"count":2,
			"type":"VEC3"
		},
		{
			"bufferView":113,
			"componentType":5126,
			"count":2,
			"type":"VEC3"
		},
		{
			"bufferView":114,
			"componentType":5126,
			"count":2,
			"type":"VEC4"
		},
		{
			"bufferView":115,
			"componentType":5126,
			"count":2,
			"type":"VEC3"
		},
		{
			"bufferView":116,
			"componentType":5126,
			"count":2,
			"type":"VEC4"
		},
		{
			"bufferView":117,
			"componentType":5126,
			"count":2,
			"type":"VEC3"
		},
		{
			"bufferView":118,
			"componentType":5126,
			"count":31,
			"type":"VEC4"
		},
		{
			"bufferView":119,
			"componentType":5126,
			"count":2,
			"type":"VEC3"
		},
		{
			"bufferView":120,
			"componentType":5126,
			"count":2,
			"type":"VEC3"
		},
		{
			"bufferView":121,
			"componentType":5126,
			"count":2,
			"type":"VEC4"
		},
		{
			"bufferView":122,
			"componentType":5126,
			"count":2,
			"type":"VEC3"
		},
		{
			"bufferView":123,
			"componentType":5126,
			"count":2,
			"type":"VEC3"
		},
		{
			"bufferView":124,
			"componentType":5126,
			"count":2,
			"type":"VEC4"
		},
		{
			"bufferView":125,
			"componentType":5126,
			"count":2,
			"type":"VEC3"
		},
		{
			"bufferView":126,
			"componentType":5126,
			"count":31,
			"type":"VEC4"
		},
		{
			"bufferView":127,
			"componentType":5126,
			"count":2,
			"type":"VEC3"
		},
		{
			"bufferView":128,
			"componentType":5126,
			"count":31,
			"type":"VEC4"
		},
		{
			"bufferView":129,
			"componentType":5126,
			"count":2,
			"type":"VEC3"
		},
		{
			"bufferView":130,
			"componentType":5126,
			"count":31,
			"type":"VEC4"
		},
		{
			"bufferView":131,
			"componentType":5126,
			"count":2,
			"type":"VEC3"
		},
		{
			"bufferView":132,
			"componentType":5126,
			"count":2,
			"type":"VEC3"
		},
		{
			"bufferView":133,
			"componentType":5126,
			"count":31,
			"type":"VEC4"
		},
		{
			"bufferView":134,
			"componentType":5126,
			"count":2,
			"type":"VEC3"
		},
		{
			"bufferView":135,
			"componentType":5126,
			"count":31,
			"type":"VEC4"
		},
		{
			"bufferView":136,
			"componentType":5126,
			"count":2,
			"type":"VEC3"
		},
		{
			"bufferView":137,
			"componentType":5126,
			"count":31,
			"type":"VEC4"
		}
	],
	"bufferViews":[
		{
			"buffer":0,
			"byteLength":391848,
			"byteOffset":0,
			"target":34962
		},
		{
			"buffer":0,
			"byteLength":391848,
			"byteOffset":391848,
			"target":34962
		},
		{
			"buffer":0,
			"byteLength":391848,
			"byteOffset":783696,
			"target":34962
		},
		{
			"buffer":0,
			"byteLength":130616,
			"byteOffset":1175544,
			"target":34962
		},
		{
			"buffer":0,
			"byteLength":522464,
			"byteOffset":1306160,
			"target":34962
		},
		{
			"buffer":0,
			"byteLength":79692,
			"byteOffset":1828624,
			"target":34963
		},
		{
			"buffer":0,
			"byteLength":1152,
			"byteOffset":1908316
		},
		{
			"buffer":0,
			"byteLength":12912,
			"byteOffset":1909468,
			"target":34962
		},
		{
			"buffer":0,
			"byteLength":12912,
			"byteOffset":1922380,
			"target":34962
		},
		{
			"buffer":0,
			"byteLength":12912,
			"byteOffset":1935292,
			"target":34962
		},
		{
			"buffer":0,
			"byteLength":3120,
			"byteOffset":1948204,
			"target":34963
		},
		{
			"buffer":0,
			"byteLength":8,
			"byteOffset":1951324
		},
		{
			"buffer":0,
			"byteLength":24,
			"byteOffset":1951332
		},
		{
			"buffer":0,
			"byteLength":32,
			"byteOffset":1951356
		},
		{
			"buffer":0,
			"byteLength":24,
			"byteOffset":1951388
		},
		{
			"buffer":0,
			"byteLength":24,
			"byteOffset":1951412
		},
		{
			"buffer":0,
			"byteLength":124,
			"byteOffset":1951436
		},
		{
			"buffer":0,
			"byteLength":496,
			"byteOffset":1951560
		},
		{
			"buffer":0,
			"byteLength":24,
			"byteOffset":1952056
		},
		{
			"buffer":0,
			"byteLength":496,
			"byteOffset":1952080
		},
		{
			"buffer":0,
			"byteLength":24,
			"byteOffset":1952576
		},
		{
			"buffer":0,
			"byteLength":32,
			"byteOffset":1952600
		},
		{
			"buffer":0,
			"byteLength":24,
			"byteOffset":1952632
		},
		{
			"buffer":0,
			"byteLength":24,
			"byteOffset":1952656
		},
		{
			"buffer":0,
			"byteLength":32,
			"byteOffset":1952680
		},
		{
			"buffer":0,
			"byteLength":24,
			"byteOffset":1952712
		},
		{
			"buffer":0,
			"byteLength":32,
			"byteOffset":1952736
		},
		{
			"buffer":0,
			"byteLength":24,
			"byteOffset":1952768
		},
		{
			"buffer":0,
			"byteLength":24,
			"byteOffset":1952792
		},
		{
			"buffer":0,
			"byteLength":32,
			"byteOffset":1952816
		},
		{
			"buffer":0,
			"byteLength":24,
			"byteOffset":1952848
		},
		{
			"buffer":0,
			"byteLength":24,
			"byteOffset":1952872
		},
		{
			"buffer":0,
			"byteLength":32,
			"byteOffset":1952896
		},
		{
			"buffer":0,
			"byteLength":24,
			"byteOffset":1952928
		},
		{
			"buffer":0,
			"byteLength":24,
			"byteOffset":1952952
		},
		{
			"buffer":0,
			"byteLength":32,
			"byteOffset":1952976
		},
		{
			"buffer":0,
			"byteLength":24,
			"byteOffset":1953008
		},
		{
			"buffer":0,
			"byteLength":24,
			"byteOffset":1953032
		},
		{
			"buffer":0,
			"byteLength":496,
			"byteOffset":1953056
		},
		{
			"buffer":0,
			"byteLength":24,
			"byteOffset":1953552
		},
		{
			"buffer":0,
			"byteLength":24,
			"byteOffset":1953576
		},
		{
			"buffer":0,
			"byteLength":496,
			"byteOffset":1953600
		},
		{
			"buffer":0,
			"byteLength":24,
			"byteOffset":1954096
		},
		{
			"buffer":0,
			"byteLength":24,
			"byteOffset":1954120
		},
		{
			"buffer":0,
			"byteLength":32,
			"byteOffset":1954144
		},
		{
			"buffer":0,
			"byteLength":24,
			"byteOffset":1954176
		},
		{
			"buffer":0,
			"byteLength":24,
			"byteOffset":1954200
		},
		{
			"buffer":0,
			"byteLength":496,
			"byteOffset":1954224
		},
		{
			"buffer":0,
			"byteLength":24,
			"byteOffset":1954720
		},
		{
			"buffer":0,
			"byteLength":24,
			"byteOffset":1954744
		},
		{
			"buffer":0,
			"byteLength":496,
			"byteOffset":1954768
		},
		{
			"buffer":0,
			"byteLength":24,
			"byteOffset":1955264
		},
		{
			"buffer":0,
			"byteLength":24,
			"byteOffset":1955288
		},
		{
			"buffer":0,
			"byteLength":32,
			"byteOffset":1955312
		},
		{
			"buffer":0,
			"byteLength":24,
			"byteOffset":1955344
		},
		{
			"buffer":0,
			"byteLength":24,
			"byteOffset":1955368
		},
		{
			"buffer":0,
			"byteLength":496,
			"byteOffset":1955392
		},
		{
			"buffer":0,
			"byteLength":24,
			"byteOffset":1955888
		},
		{
			"buffer":0,
			"byteLength":24,
			"byteOffset":1955912
		},
		{
			"buffer":0,
			"byteLength":496,
			"byteOffset":1955936
		},
		{
			"buffer":0,
			"byteLength":24,
			"byteOffset":1956432
		},
		{
			"buffer":0,
			"byteLength":24,
			"byteOffset":1956456
		},
		{
			"buffer":0,
			"byteLength":32,
			"byteOffset":1956480
		},
		{
			"buffer":0,
			"byteLength":24,
			"byteOffset":1956512
		},
		{
			"buffer":0,
			"byteLength":724,
			"byteOffset":1956536
		},
		{
			"buffer":0,
			"byteLength":2172,
			"byteOffset":1957260
		},
		{
			"buffer":0,
			"byteLength":8,
			"byteOffset":1959432
		},
		{
			"buffer":0,
			"byteLength":2896,
			"byteOffset":1959440
		},
		{
			"buffer":0,
			"byteLength":2896,
			"byteOffset":1962336
		},
		{
			"buffer":0,
			"byteLength":2896,
			"byteOffset":1965232
		},
		{
			"buffer":0,
			"byteLength":24,
			"byteOffset":1968128
		},
		{
			"buffer":0,
			"byteLength":32,
			"byteOffset":1968152
		},
		{
			"buffer":0,
			"byteLength":2896,
			"byteOffset":1968184
		},
		{
			"buffer":0,
			"byteLength":24,
			"byteOffset":1971080
		},
		{
			"buffer":0,
			"byteLength":24,
			"byteOffset":1971104
		},
		{
			"buffer":0,
			"byteLength":32,
			"byteOffset":1971128
		},
		{
			"buffer":0,
			"byteLength":24,
			"byteOffset":1971160
		},
		{
			"buffer":0,
			"byteLength":32,
			"byteOffset":1971184
		},
		{
			"buffer":0,
			"byteLength":24,
			"byteOffset":1971216
		},
		{
			"buffer":0,
			"byteLength":32,
			"byteOffset":1971240
		},
		{
			"buffer":0,
			"byteLength":24,
			"byteOffset":1971272
		},
		{
			"buffer":0,
			"byteLength":32,
			"byteOffset":1971296
		},
		{
			"buffer":0,
			"byteLength":24,
			"byteOffset":1971328
		},
		{
			"buffer":0,
			"byteLength":24,
			"byteOffset":1971352
		},
		{
			"buffer":0,
			"byteLength":32,
			"byteOffset":1971376
		},
		{
			"buffer":0,
			"byteLength":32,
			"byteOffset":1971408
		},
		{
			"buffer":0,
			"byteLength":24,
			"byteOffset":1971440
		},
		{
			"buffer":0,
			"byteLength":24,
			"byteOffset":1971464
		},
		{
			"buffer":0,
			"byteLength":32,
			"byteOffset":1971488
		},
		{
			"buffer":0,
			"byteLength":24,
			"byteOffset":1971520
		},
		{
			"buffer":0,
			"byteLength":24,
			"byteOffset":1971544
		},
		{
			"buffer":0,
			"byteLength":32,
			"byteOffset":1971568
		},
		{
			"buffer":0,
			"byteLength":24,
			"byteOffset":1971600
		},
		{
			"buffer":0,
			"byteLength":32,
			"byteOffset":1971624
		},
		{
			"buffer":0,
			"byteLength":24,
			"byteOffset":1971656
		},
		{
			"buffer":0,
			"byteLength":32,
			"byteOffset":1971680
		},
		{
			"buffer":0,
			"byteLength":24,
			"byteOffset":1971712
		},
		{
			"buffer":0,
			"byteLength":24,
			"byteOffset":1971736
		},
		{
			"buffer":0,
			"byteLength":32,
			"byteOffset":1971760
		},
		{
			"buffer":0,
			"byteLength":372,
			"byteOffset":1971792
		},
		{
			"buffer":0,
			"byteLength":496,
			"byteOffset":1972164
		},
		{
			"buffer":0,
			"byteLength":32,
			"byteOffset":1972660
		},
		{
			"buffer":0,
			"byteLength":24,
			"byteOffset":1972692
		},
		{
			"buffer":0,
			"byteLength":496,
			"byteOffset":1972716
		},
		{
			"buffer":0,
			"byteLength":24,
			"byteOffset":1973212
		},
		{
			"buffer":0,
			"byteLength":24,
			"byteOffset":1973236
		},
		{
			"buffer":0,
			"byteLength":24,
			"byteOffset":1973260
		},
		{
			"buffer":0,
			"byteLength":496,
			"byteOffset":1973284
		},
		{
			"buffer":0,
			"byteLength":24,
			"byteOffset":1973780
		},
		{
			"buffer":0,
			"byteLength":496,
			"byteOffset":1973804
		},
		{
			"buffer":0,
			"byteLength":24,
			"byteOffset":1974300
		},
		{
			"buffer":0,
			"byteLength":496,
			"byteOffset":1974324
		},
		{
			"buffer":0,
			"byteLength":24,
			"byteOffset":1974820
		},
		{
			"buffer":0,
			"byteLength":24,
			"byteOffset":1974844
		},
		{
			"buffer":0,
			"byteLength":32,
			"byteOffset":1974868
		},
		{
			"buffer":0,
			"byteLength":24,
			"byteOffset":1974900
		},
		{
			"buffer":0,
			"byteLength":32,
			"byteOffset":1974924
		},
		{
			"buffer":0,
			"byteLength":24,
			"byteOffset":1974956
		},
		{
			"buffer":0,
			"byteLength":496,
			"byteOffset":1974980
		},
		{
			"buffer":0,
			"byteLength":24,
			"byteOffset":1975476
		},
		{
			"buffer":0,
			"byteLength":24,
			"byteOffset":1975500
		},
		{
			"buffer":0,
			"byteLength":32,
			"byteOffset":1975524
		},
		{
			"buffer":0,
			"byteLength":24,
			"byteOffset":1975556
		},
		{
			"buffer":0,
			"byteLength":24,
			"byteOffset":1975580
		},
		{
			"buffer":0,
			"byteLength":32,
			"byteOffset":1975604
		},
		{
			"buffer":0,
			"byteLength":24,
			"byteOffset":1975636
		},
		{
			"buffer":0,
			"byteLength":496,
			"byteOffset":1975660
		},
		{
			"buffer":0,
			"byteLength":24,
			"byteOffset":1976156
		},
		{
			"buffer":0,
			"byteLength":496,
			"byteOffset":1976180
		},
		{
			"buffer":0,
			"byteLength":24,
			"byteOffset":1976676
		},
		{
			"buffer":0,
			"byteLength":496,
			"byteOffset":1976700
		},
		{
			"buffer":0,
			"byteLength":24,
			"byteOffset":1977196
		},
		{
			"buffer":0,
			"byteLength":24,
			"byteOffset":1977220
		},
		{
			"buffer":0,
			"byteLength":496,
			"byteOffset":1977244
		},
		{
			"buffer":0,
			"byteLength":24,
			"byteOffset":1977740
		},
		{
			"buffer":0,
			"byteLength":496,
			"byteOffset":1977764
		},
		{
			"buffer":0,
			"byteLength":24,
			"byteOffset":1978260
		},
		{
			"buffer":0,
			"byteLength":496,
			"byteOffset":1978284
		}
	],
	"buffers":[
		{
			"byteLength":1978780,
			"uri":"minotaurus.bin"
		}
	]
}
