{
	"asset":{
		"generator":"Khronos glTF Blender I/O v5.2.40",
		"version":"2.0"
	},
	"scene":0,
	"scenes":[
		{
			"name":"Scene",
			"nodes":[
				20
			]
		}
	],
	"nodes":[
		{
			"name":"Hut",
			"rotation":[
				-0.49269899725914,
				1.467046502057201e-07,
				-8.306282950343302e-08,
				0.8701998591423035
			],
			"scale":[
				1,
				0.9999998807907104,
				0.9999999403953552
			],
			"translation":[
				-2.8421703501173377e-16,
				0.31999993324279785,
				-0.019999999552965164
			]
		},
		{
			"children":[
				0
			],
			"name":"Kopf",
			"rotation":[
				-0.5257313251495361,
				-1.1686417167311447e-07,
				-7.222609355039822e-08,
				0.8506506681442261
			],
			"scale":[
				1,
				0.9999998807907104,
				0.9999998807907104
			],
			"translation":[
				1.7763568394002505e-14,
				0.089442677795887,
				-2.9802322387695312e-08
			]
		},
		{
			"children":[
				1
			],
			"name":"Hals",
			"rotation":[
				0.5257313251495361,
				1.1686419298939654e-07,
				7.222607223411615e-08,
				0.8506506681442261
			],
			"translation":[
				0,
				0.30000007152557373,
				0
			]
		},
		{
			"name":"Hand.L",
			"rotation":[
				-0.03866107389330864,
				-0.006959945894777775,
				0.03019811026751995,
				0.9987717270851135
			],
			"scale":[
				1.0000001192092896,
				1,
				1.0000001192092896
			],
			"translation":[
				4.470348358154297e-08,
				0.2677684724330902,
				-3.18710746682882e-09
			]
		},
		{
			"children":[
				3
			],
			"name":"Unterarm.L",
			"rotation":[
				-0.16875113546848297,
				-0.00194977514911443,
				0.11366534978151321,
				0.9790809154510498
			],
			"scale":[
				0.9999999403953552,
				1,
				1
			],
			"translation":[
				-9.406357293073597e-08,
				0.326955646276474,
				-1.30385160446167e-08
			]
		},
		{
			"children":[
				4
			],
			"name":"Oberarm.L",
			"rotation":[
				-0.9790645837783813,
				-0.18855071067810059,
				0.014502055011689663,
				0.0753050446510315
			],
			"scale":[
				1.000001311302185,
				1.000000238418579,
				1.000000238418579
			],
			"translation":[
				0.30000001192092896,
				0.2200000286102295,
				0
			]
		},
		{
			"mesh":1,
			"name":"Streitaxt",
			"rotation":[
				-0.9902026653289795,
				0.044916749000549316,
				0.005991643760353327,
				0.13208068907260895
			],
			"scale":[
				0.9999987483024597,
				0.9999991655349731,
				0.999999463558197
			],
			"translation":[
				0.5540781021118164,
				0.9785475730895996,
				0.265779972076416
			]
		},
		{
			"children":[
				6
			],
			"name":"Hand.R",
			"rotation":[
				-0.03866107389330864,
				0.006959945894777775,
				-0.03019811026751995,
				0.9987717270851135
			],
			"scale":[
				1.0000001192092896,
				1,
				1.0000001192092896
			],
			"translation":[
				-4.470348358154297e-08,
				0.2677684724330902,
				-3.18710746682882e-09
			]
		},
		{
			"children":[
				7
			],
			"name":"Unterarm.R",
			"rotation":[
				-0.16875113546848297,
				0.00194977514911443,
				-0.11366534978151321,
				0.9790809154510498
			],
			"scale":[
				0.9999999403953552,
				1,
				1
			],
			"translation":[
				9.406357293073597e-08,
				0.326955646276474,
				-1.30385160446167e-08
			]
		},
		{
			"children":[
				8
			],
			"name":"Oberarm.R",
			"rotation":[
				-0.9790645837783813,
				0.18855071067810059,
				-0.014502055011689663,
				0.0753050446510315
			],
			"scale":[
				1.000001311302185,
				1.000000238418579,
				1.000000238418579
			],
			"translation":[
				-0.30000001192092896,
				0.2200000286102295,
				0
			]
		},
		{
			"children":[
				2,
				5,
				9
			],
			"name":"Brust",
			"translation":[
				0,
				0.2200000286102295,
				0
			]
		},
		{
			"children":[
				10
			],
			"name":"Bauch",
			"translation":[
				0,
				0.15999996662139893,
				0
			]
		},
		{
			"name":"Fuss.L",
			"rotation":[
				-7.916713684608112e-08,
				0.776370108127594,
				-0.6302773356437683,
				1.5116516749458242e-07
			],
			"scale":[
				1,
				1.000000238418579,
				1.0000001192092896
			],
			"translation":[
				-3.12014147851869e-09,
				0.4638965129852295,
				3.810896487266291e-09
			]
		},
		{
			"children":[
				12
			],
			"name":"Unterschenkel.L",
			"rotation":[
				0.09866756945848465,
				0.0007004226790741086,
				0.02269880473613739,
				0.9948613047599792
			],
			"scale":[
				0.9999998807907104,
				0.9999999403953552,
				1
			],
			"translation":[
				-8.780070892555614e-09,
				0.4414748549461365,
				1.280568540096283e-09
			]
		},
		{
			"children":[
				13
			],
			"name":"Oberschenkel.L",
			"rotation":[
				0.9991642236709595,
				0.022696511819958687,
				0.0007695072563365102,
				0.03398771211504936
			],
			"scale":[
				1.000003457069397,
				1,
				1.0000077486038208
			],
			"translation":[
				0.14000000059604645,
				-0.019999980926513672,
				0
			]
		},
		{
			"name":"Fuss.R",
			"rotation":[
				-7.264709012133608e-08,
				0.7763700485229492,
				-0.6302773356437683,
				1.5116455642782967e-07
			],
			"scale":[
				1,
				1.000000238418579,
				1.0000001192092896
			],
			"translation":[
				-3.2200158095463394e-09,
				0.4638965129852295,
				2.2947688194108196e-09
			]
		},
		{
			"children":[
				15
			],
			"name":"Unterschenkel.R",
			"rotation":[
				0.09866758435964584,
				-0.0007003490463830531,
				-0.022698797285556793,
				0.9948613047599792
			],
			"scale":[
				0.9999998807907104,
				0.9999999403953552,
				1
			],
			"translation":[
				8.780070892555614e-09,
				0.4414748549461365,
				1.280568540096283e-09
			]
		},
		{
			"children":[
				16
			],
			"name":"Oberschenkel.R",
			"rotation":[
				0.9991642236709595,
				-0.022696511819958687,
				-0.0007695072563365102,
				0.03398771211504936
			],
			"scale":[
				1.000003457069397,
				1,
				1.0000077486038208
			],
			"translation":[
				-0.14000000059604645,
				-0.019999980926513672,
				0
			]
		},
		{
			"children":[
				11,
				14,
				17
			],
			"name":"Becken",
			"translation":[
				0,
				1.0199999809265137,
				0
			]
		},
		{
			"mesh":0,
			"name":"OrkBerserker",
			"skin":0
		},
		{
			"children":[
				19,
				18
			],
			"name":"OrkBerserkerSkelett"
		}
	],
	"animations":[
		{
			"channels":[
				{
					"sampler":0,
					"target":{
						"node":18,
						"path":"translation"
					}
				},
				{
					"sampler":1,
					"target":{
						"node":18,
						"path":"rotation"
					}
				},
				{
					"sampler":2,
					"target":{
						"node":18,
						"path":"scale"
					}
				},
				{
					"sampler":3,
					"target":{
						"node":11,
						"path":"translation"
					}
				},
				{
					"sampler":4,
					"target":{
						"node":11,
						"path":"rotation"
					}
				},
				{
					"sampler":5,
					"target":{
						"node":11,
						"path":"scale"
					}
				},
				{
					"sampler":6,
					"target":{
						"node":10,
						"path":"translation"
					}
				},
				{
					"sampler":7,
					"target":{
						"node":10,
						"path":"rotation"
					}
				},
				{
					"sampler":8,
					"target":{
						"node":10,
						"path":"scale"
					}
				},
				{
					"sampler":9,
					"target":{
						"node":2,
						"path":"translation"
					}
				},
				{
					"sampler":10,
					"target":{
						"node":2,
						"path":"rotation"
					}
				},
				{
					"sampler":11,
					"target":{
						"node":2,
						"path":"scale"
					}
				},
				{
					"sampler":12,
					"target":{
						"node":1,
						"path":"translation"
					}
				},
				{
					"sampler":13,
					"target":{
						"node":1,
						"path":"rotation"
					}
				},
				{
					"sampler":14,
					"target":{
						"node":1,
						"path":"scale"
					}
				},
				{
					"sampler":15,
					"target":{
						"node":0,
						"path":"translation"
					}
				},
				{
					"sampler":16,
					"target":{
						"node":0,
						"path":"rotation"
					}
				},
				{
					"sampler":17,
					"target":{
						"node":0,
						"path":"scale"
					}
				},
				{
					"sampler":18,
					"target":{
						"node":5,
						"path":"translation"
					}
				},
				{
					"sampler":19,
					"target":{
						"node":5,
						"path":"rotation"
					}
				},
				{
					"sampler":20,
					"target":{
						"node":5,
						"path":"scale"
					}
				},
				{
					"sampler":21,
					"target":{
						"node":4,
						"path":"translation"
					}
				},
				{
					"sampler":22,
					"target":{
						"node":4,
						"path":"rotation"
					}
				},
				{
					"sampler":23,
					"target":{
						"node":4,
						"path":"scale"
					}
				},
				{
					"sampler":24,
					"target":{
						"node":3,
						"path":"translation"
					}
				},
				{
					"sampler":25,
					"target":{
						"node":3,
						"path":"rotation"
					}
				},
				{
					"sampler":26,
					"target":{
						"node":3,
						"path":"scale"
					}
				},
				{
					"sampler":27,
					"target":{
						"node":9,
						"path":"translation"
					}
				},
				{
					"sampler":28,
					"target":{
						"node":9,
						"path":"rotation"
					}
				},
				{
					"sampler":29,
					"target":{
						"node":9,
						"path":"scale"
					}
				},
				{
					"sampler":30,
					"target":{
						"node":8,
						"path":"translation"
					}
				},
				{
					"sampler":31,
					"target":{
						"node":8,
						"path":"rotation"
					}
				},
				{
					"sampler":32,
					"target":{
						"node":8,
						"path":"scale"
					}
				},
				{
					"sampler":33,
					"target":{
						"node":7,
						"path":"translation"
					}
				},
				{
					"sampler":34,
					"target":{
						"node":7,
						"path":"rotation"
					}
				},
				{
					"sampler":35,
					"target":{
						"node":7,
						"path":"scale"
					}
				},
				{
					"sampler":36,
					"target":{
						"node":14,
						"path":"translation"
					}
				},
				{
					"sampler":37,
					"target":{
						"node":14,
						"path":"rotation"
					}
				},
				{
					"sampler":38,
					"target":{
						"node":14,
						"path":"scale"
					}
				},
				{
					"sampler":39,
					"target":{
						"node":13,
						"path":"translation"
					}
				},
				{
					"sampler":40,
					"target":{
						"node":13,
						"path":"rotation"
					}
				},
				{
					"sampler":41,
					"target":{
						"node":13,
						"path":"scale"
					}
				},
				{
					"sampler":42,
					"target":{
						"node":12,
						"path":"translation"
					}
				},
				{
					"sampler":43,
					"target":{
						"node":12,
						"path":"rotation"
					}
				},
				{
					"sampler":44,
					"target":{
						"node":12,
						"path":"scale"
					}
				},
				{
					"sampler":45,
					"target":{
						"node":17,
						"path":"translation"
					}
				},
				{
					"sampler":46,
					"target":{
						"node":17,
						"path":"rotation"
					}
				},
				{
					"sampler":47,
					"target":{
						"node":17,
						"path":"scale"
					}
				},
				{
					"sampler":48,
					"target":{
						"node":16,
						"path":"translation"
					}
				},
				{
					"sampler":49,
					"target":{
						"node":16,
						"path":"rotation"
					}
				},
				{
					"sampler":50,
					"target":{
						"node":16,
						"path":"scale"
					}
				},
				{
					"sampler":51,
					"target":{
						"node":15,
						"path":"translation"
					}
				},
				{
					"sampler":52,
					"target":{
						"node":15,
						"path":"rotation"
					}
				},
				{
					"sampler":53,
					"target":{
						"node":15,
						"path":"scale"
					}
				}
			],
			"name":"Angriff",
			"samplers":[
				{
					"input":11,
					"interpolation":"STEP",
					"output":12
				},
				{
					"input":11,
					"interpolation":"STEP",
					"output":13
				},
				{
					"input":11,
					"interpolation":"STEP",
					"output":14
				},
				{
					"input":11,
					"interpolation":"STEP",
					"output":15
				},
				{
					"input":16,
					"interpolation":"LINEAR",
					"output":17
				},
				{
					"input":11,
					"interpolation":"STEP",
					"output":14
				},
				{
					"input":11,
					"interpolation":"STEP",
					"output":18
				},
				{
					"input":16,
					"interpolation":"LINEAR",
					"output":19
				},
				{
					"input":11,
					"interpolation":"STEP",
					"output":14
				},
				{
					"input":11,
					"interpolation":"STEP",
					"output":20
				},
				{
					"input":11,
					"interpolation":"STEP",
					"output":21
				},
				{
					"input":11,
					"interpolation":"STEP",
					"output":22
				},
				{
					"input":11,
					"interpolation":"STEP",
					"output":23
				},
				{
					"input":11,
					"interpolation":"STEP",
					"output":24
				},
				{
					"input":11,
					"interpolation":"STEP",
					"output":25
				},
				{
					"input":11,
					"interpolation":"STEP",
					"output":26
				},
				{
					"input":11,
					"interpolation":"STEP",
					"output":27
				},
				{
					"input":11,
					"interpolation":"STEP",
					"output":28
				},
				{
					"input":11,
					"interpolation":"STEP",
					"output":29
				},
				{
					"input":11,
					"interpolation":"STEP",
					"output":30
				},
				{
					"input":11,
					"interpolation":"STEP",
					"output":31
				},
				{
					"input":11,
					"interpolation":"STEP",
					"output":32
				},
				{
					"input":11,
					"interpolation":"STEP",
					"output":33
				},
				{
					"input":11,
					"interpolation":"STEP",
					"output":34
				},
				{
					"input":11,
					"interpolation":"STEP",
					"output":35
				},
				{
					"input":11,
					"interpolation":"STEP",
					"output":36
				},
				{
					"input":11,
					"interpolation":"STEP",
					"output":37
				},
				{
					"input":11,
					"interpolation":"STEP",
					"output":38
				},
				{
					"input":16,
					"interpolation":"LINEAR",
					"output":39
				},
				{
					"input":11,
					"interpolation":"STEP",
					"output":40
				},
				{
					"input":11,
					"interpolation":"STEP",
					"output":41
				},
				{
					"input":16,
					"interpolation":"LINEAR",
					"output":42
				},
				{
					"input":11,
					"interpolation":"STEP",
					"output":43
				},
				{
					"input":11,
					"interpolation":"STEP",
					"output":44
				},
				{
					"input":11,
					"interpolation":"STEP",
					"output":45
				},
				{
					"input":11,
					"interpolation":"STEP",
					"output":46
				},
				{
					"input":11,
					"interpolation":"STEP",
					"output":47
				},
				{
					"input":16,
					"interpolation":"LINEAR",
					"output":48
				},
				{
					"input":11,
					"interpolation":"STEP",
					"output":49
				},
				{
					"input":11,
					"interpolation":"STEP",
					"output":50
				},
				{
					"input":16,
					"interpolation":"LINEAR",
					"output":51
				},
				{
					"input":11,
					"interpolation":"STEP",
					"output":52
				},
				{
					"input":11,
					"interpolation":"STEP",
					"output":53
				},
				{
					"input":11,
					"interpolation":"STEP",
					"output":54
				},
				{
					"input":11,
					"interpolation":"STEP",
					"output":55
				},
				{
					"input":11,
					"interpolation":"STEP",
					"output":56
				},
				{
					"input":16,
					"interpolation":"LINEAR",
					"output":57
				},
				{
					"input":11,
					"interpolation":"STEP",
					"output":49
				},
				{
					"input":11,
					"interpolation":"STEP",
					"output":58
				},
				{
					"input":16,
					"interpolation":"LINEAR",
					"output":59
				},
				{
					"input":11,
					"interpolation":"STEP",
					"output":60
				},
				{
					"input":11,
					"interpolation":"STEP",
					"output":61
				},
				{
					"input":11,
					"interpolation":"STEP",
					"output":62
				},
				{
					"input":11,
					"interpolation":"STEP",
					"output":63
				}
			]
		},
		{
			"channels":[
				{
					"sampler":0,
					"target":{
						"node":18,
						"path":"translation"
					}
				},
				{
					"sampler":1,
					"target":{
						"node":18,
						"path":"rotation"
					}
				},
				{
					"sampler":2,
					"target":{
						"node":18,
						"path":"scale"
					}
				},
				{
					"sampler":3,
					"target":{
						"node":11,
						"path":"translation"
					}
				},
				{
					"sampler":4,
					"target":{
						"node":11,
						"path":"rotation"
					}
				},
				{
					"sampler":5,
					"target":{
						"node":11,
						"path":"scale"
					}
				},
				{
					"sampler":6,
					"target":{
						"node":10,
						"path":"translation"
					}
				},
				{
					"sampler":7,
					"target":{
						"node":10,
						"path":"rotation"
					}
				},
				{
					"sampler":8,
					"target":{
						"node":10,
						"path":"scale"
					}
				},
				{
					"sampler":9,
					"target":{
						"node":2,
						"path":"translation"
					}
				},
				{
					"sampler":10,
					"target":{
						"node":2,
						"path":"rotation"
					}
				},
				{
					"sampler":11,
					"target":{
						"node":2,
						"path":"scale"
					}
				},
				{
					"sampler":12,
					"target":{
						"node":1,
						"path":"translation"
					}
				},
				{
					"sampler":13,
					"target":{
						"node":1,
						"path":"rotation"
					}
				},
				{
					"sampler":14,
					"target":{
						"node":1,
						"path":"scale"
					}
				},
				{
					"sampler":15,
					"target":{
						"node":0,
						"path":"translation"
					}
				},
				{
					"sampler":16,
					"target":{
						"node":0,
						"path":"rotation"
					}
				},
				{
					"sampler":17,
					"target":{
						"node":0,
						"path":"scale"
					}
				},
				{
					"sampler":18,
					"target":{
						"node":5,
						"path":"translation"
					}
				},
				{
					"sampler":19,
					"target":{
						"node":5,
						"path":"rotation"
					}
				},
				{
					"sampler":20,
					"target":{
						"node":5,
						"path":"scale"
					}
				},
				{
					"sampler":21,
					"target":{
						"node":4,
						"path":"translation"
					}
				},
				{
					"sampler":22,
					"target":{
						"node":4,
						"path":"rotation"
					}
				},
				{
					"sampler":23,
					"target":{
						"node":4,
						"path":"scale"
					}
				},
				{
					"sampler":24,
					"target":{
						"node":3,
						"path":"translation"
					}
				},
				{
					"sampler":25,
					"target":{
						"node":3,
						"path":"rotation"
					}
				},
				{
					"sampler":26,
					"target":{
						"node":3,
						"path":"scale"
					}
				},
				{
					"sampler":27,
					"target":{
						"node":9,
						"path":"translation"
					}
				},
				{
					"sampler":28,
					"target":{
						"node":9,
						"path":"rotation"
					}
				},
				{
					"sampler":29,
					"target":{
						"node":9,
						"path":"scale"
					}
				},
				{
					"sampler":30,
					"target":{
						"node":8,
						"path":"translation"
					}
				},
				{
					"sampler":31,
					"target":{
						"node":8,
						"path":"rotation"
					}
				},
				{
					"sampler":32,
					"target":{
						"node":8,
						"path":"scale"
					}
				},
				{
					"sampler":33,
					"target":{
						"node":7,
						"path":"translation"
					}
				},
				{
					"sampler":34,
					"target":{
						"node":7,
						"path":"rotation"
					}
				},
				{
					"sampler":35,
					"target":{
						"node":7,
						"path":"scale"
					}
				},
				{
					"sampler":36,
					"target":{
						"node":14,
						"path":"translation"
					}
				},
				{
					"sampler":37,
					"target":{
						"node":14,
						"path":"rotation"
					}
				},
				{
					"sampler":38,
					"target":{
						"node":14,
						"path":"scale"
					}
				},
				{
					"sampler":39,
					"target":{
						"node":13,
						"path":"translation"
					}
				},
				{
					"sampler":40,
					"target":{
						"node":13,
						"path":"rotation"
					}
				},
				{
					"sampler":41,
					"target":{
						"node":13,
						"path":"scale"
					}
				},
				{
					"sampler":42,
					"target":{
						"node":12,
						"path":"translation"
					}
				},
				{
					"sampler":43,
					"target":{
						"node":12,
						"path":"rotation"
					}
				},
				{
					"sampler":44,
					"target":{
						"node":12,
						"path":"scale"
					}
				},
				{
					"sampler":45,
					"target":{
						"node":17,
						"path":"translation"
					}
				},
				{
					"sampler":46,
					"target":{
						"node":17,
						"path":"rotation"
					}
				},
				{
					"sampler":47,
					"target":{
						"node":17,
						"path":"scale"
					}
				},
				{
					"sampler":48,
					"target":{
						"node":16,
						"path":"translation"
					}
				},
				{
					"sampler":49,
					"target":{
						"node":16,
						"path":"rotation"
					}
				},
				{
					"sampler":50,
					"target":{
						"node":16,
						"path":"scale"
					}
				},
				{
					"sampler":51,
					"target":{
						"node":15,
						"path":"translation"
					}
				},
				{
					"sampler":52,
					"target":{
						"node":15,
						"path":"rotation"
					}
				},
				{
					"sampler":53,
					"target":{
						"node":15,
						"path":"scale"
					}
				}
			],
			"name":"Idle",
			"samplers":[
				{
					"input":64,
					"interpolation":"LINEAR",
					"output":65
				},
				{
					"input":66,
					"interpolation":"STEP",
					"output":13
				},
				{
					"input":66,
					"interpolation":"STEP",
					"output":14
				},
				{
					"input":66,
					"interpolation":"STEP",
					"output":15
				},
				{
					"input":64,
					"interpolation":"LINEAR",
					"output":67
				},
				{
					"input":66,
					"interpolation":"STEP",
					"output":14
				},
				{
					"input":66,
					"interpolation":"STEP",
					"output":18
				},
				{
					"input":64,
					"interpolation":"LINEAR",
					"output":68
				},
				{
					"input":66,
					"interpolation":"STEP",
					"output":14
				},
				{
					"input":66,
					"interpolation":"STEP",
					"output":20
				},
				{
					"input":66,
					"interpolation":"STEP",
					"output":21
				},
				{
					"input":66,
					"interpolation":"STEP",
					"output":22
				},
				{
					"input":66,
					"interpolation":"STEP",
					"output":23
				},
				{
					"input":64,
					"interpolation":"LINEAR",
					"output":69
				},
				{
					"input":66,
					"interpolation":"STEP",
					"output":25
				},
				{
					"input":66,
					"interpolation":"STEP",
					"output":70
				},
				{
					"input":66,
					"interpolation":"STEP",
					"output":71
				},
				{
					"input":66,
					"interpolation":"STEP",
					"output":28
				},
				{
					"input":66,
					"interpolation":"STEP",
					"output":29
				},
				{
					"input":64,
					"interpolation":"LINEAR",
					"output":72
				},
				{
					"input":66,
					"interpolation":"STEP",
					"output":40
				},
				{
					"input":66,
					"interpolation":"STEP",
					"output":73
				},
				{
					"input":66,
					"interpolation":"STEP",
					"output":74
				},
				{
					"input":66,
					"interpolation":"STEP",
					"output":43
				},
				{
					"input":66,
					"interpolation":"STEP",
					"output":75
				},
				{
					"input":66,
					"interpolation":"STEP",
					"output":76
				},
				{
					"input":66,
					"interpolation":"STEP",
					"output":77
				},
				{
					"input":66,
					"interpolation":"STEP",
					"output":38
				},
				{
					"input":66,
					"interpolation":"STEP",
					"output":78
				},
				{
					"input":66,
					"interpolation":"STEP",
					"output":79
				},
				{
					"input":66,
					"interpolation":"STEP",
					"output":80
				},
				{
					"input":66,
					"interpolation":"STEP",
					"output":81
				},
				{
					"input":66,
					"interpolation":"STEP",
					"output":82
				},
				{
					"input":66,
					"interpolation":"STEP",
					"output":83
				},
				{
					"input":66,
					"interpolation":"STEP",
					"output":84
				},
				{
					"input":66,
					"interpolation":"STEP",
					"output":85
				},
				{
					"input":66,
					"interpolation":"STEP",
					"output":47
				},
				{
					"input":66,
					"interpolation":"STEP",
					"output":86
				},
				{
					"input":66,
					"interpolation":"STEP",
					"output":49
				},
				{
					"input":66,
					"interpolation":"STEP",
					"output":87
				},
				{
					"input":66,
					"interpolation":"STEP",
					"output":88
				},
				{
					"input":66,
					"interpolation":"STEP",
					"output":89
				},
				{
					"input":66,
					"interpolation":"STEP",
					"output":90
				},
				{
					"input":66,
					"interpolation":"STEP",
					"output":91
				},
				{
					"input":66,
					"interpolation":"STEP",
					"output":63
				},
				{
					"input":66,
					"interpolation":"STEP",
					"output":56
				},
				{
					"input":66,
					"interpolation":"STEP",
					"output":92
				},
				{
					"input":66,
					"interpolation":"STEP",
					"output":49
				},
				{
					"input":66,
					"interpolation":"STEP",
					"output":93
				},
				{
					"input":66,
					"interpolation":"STEP",
					"output":94
				},
				{
					"input":66,
					"interpolation":"STEP",
					"output":89
				},
				{
					"input":66,
					"interpolation":"STEP",
					"output":95
				},
				{
					"input":66,
					"interpolation":"STEP",
					"output":96
				},
				{
					"input":66,
					"interpolation":"STEP",
					"output":63
				}
			]
		},
		{
			"channels":[
				{
					"sampler":0,
					"target":{
						"node":18,
						"path":"translation"
					}
				},
				{
					"sampler":1,
					"target":{
						"node":18,
						"path":"rotation"
					}
				},
				{
					"sampler":2,
					"target":{
						"node":18,
						"path":"scale"
					}
				},
				{
					"sampler":3,
					"target":{
						"node":11,
						"path":"translation"
					}
				},
				{
					"sampler":4,
					"target":{
						"node":11,
						"path":"rotation"
					}
				},
				{
					"sampler":5,
					"target":{
						"node":11,
						"path":"scale"
					}
				},
				{
					"sampler":6,
					"target":{
						"node":10,
						"path":"translation"
					}
				},
				{
					"sampler":7,
					"target":{
						"node":10,
						"path":"rotation"
					}
				},
				{
					"sampler":8,
					"target":{
						"node":10,
						"path":"scale"
					}
				},
				{
					"sampler":9,
					"target":{
						"node":2,
						"path":"translation"
					}
				},
				{
					"sampler":10,
					"target":{
						"node":2,
						"path":"rotation"
					}
				},
				{
					"sampler":11,
					"target":{
						"node":2,
						"path":"scale"
					}
				},
				{
					"sampler":12,
					"target":{
						"node":1,
						"path":"translation"
					}
				},
				{
					"sampler":13,
					"target":{
						"node":1,
						"path":"rotation"
					}
				},
				{
					"sampler":14,
					"target":{
						"node":1,
						"path":"scale"
					}
				},
				{
					"sampler":15,
					"target":{
						"node":0,
						"path":"translation"
					}
				},
				{
					"sampler":16,
					"target":{
						"node":0,
						"path":"rotation"
					}
				},
				{
					"sampler":17,
					"target":{
						"node":0,
						"path":"scale"
					}
				},
				{
					"sampler":18,
					"target":{
						"node":5,
						"path":"translation"
					}
				},
				{
					"sampler":19,
					"target":{
						"node":5,
						"path":"rotation"
					}
				},
				{
					"sampler":20,
					"target":{
						"node":5,
						"path":"scale"
					}
				},
				{
					"sampler":21,
					"target":{
						"node":4,
						"path":"translation"
					}
				},
				{
					"sampler":22,
					"target":{
						"node":4,
						"path":"rotation"
					}
				},
				{
					"sampler":23,
					"target":{
						"node":4,
						"path":"scale"
					}
				},
				{
					"sampler":24,
					"target":{
						"node":3,
						"path":"translation"
					}
				},
				{
					"sampler":25,
					"target":{
						"node":3,
						"path":"rotation"
					}
				},
				{
					"sampler":26,
					"target":{
						"node":3,
						"path":"scale"
					}
				},
				{
					"sampler":27,
					"target":{
						"node":9,
						"path":"translation"
					}
				},
				{
					"sampler":28,
					"target":{
						"node":9,
						"path":"rotation"
					}
				},
				{
					"sampler":29,
					"target":{
						"node":9,
						"path":"scale"
					}
				},
				{
					"sampler":30,
					"target":{
						"node":8,
						"path":"translation"
					}
				},
				{
					"sampler":31,
					"target":{
						"node":8,
						"path":"rotation"
					}
				},
				{
					"sampler":32,
					"target":{
						"node":8,
						"path":"scale"
					}
				},
				{
					"sampler":33,
					"target":{
						"node":7,
						"path":"translation"
					}
				},
				{
					"sampler":34,
					"target":{
						"node":7,
						"path":"rotation"
					}
				},
				{
					"sampler":35,
					"target":{
						"node":7,
						"path":"scale"
					}
				},
				{
					"sampler":36,
					"target":{
						"node":14,
						"path":"translation"
					}
				},
				{
					"sampler":37,
					"target":{
						"node":14,
						"path":"rotation"
					}
				},
				{
					"sampler":38,
					"target":{
						"node":14,
						"path":"scale"
					}
				},
				{
					"sampler":39,
					"target":{
						"node":13,
						"path":"translation"
					}
				},
				{
					"sampler":40,
					"target":{
						"node":13,
						"path":"rotation"
					}
				},
				{
					"sampler":41,
					"target":{
						"node":13,
						"path":"scale"
					}
				},
				{
					"sampler":42,
					"target":{
						"node":12,
						"path":"translation"
					}
				},
				{
					"sampler":43,
					"target":{
						"node":12,
						"path":"rotation"
					}
				},
				{
					"sampler":44,
					"target":{
						"node":12,
						"path":"scale"
					}
				},
				{
					"sampler":45,
					"target":{
						"node":17,
						"path":"translation"
					}
				},
				{
					"sampler":46,
					"target":{
						"node":17,
						"path":"rotation"
					}
				},
				{
					"sampler":47,
					"target":{
						"node":17,
						"path":"scale"
					}
				},
				{
					"sampler":48,
					"target":{
						"node":16,
						"path":"translation"
					}
				},
				{
					"sampler":49,
					"target":{
						"node":16,
						"path":"rotation"
					}
				},
				{
					"sampler":50,
					"target":{
						"node":16,
						"path":"scale"
					}
				},
				{
					"sampler":51,
					"target":{
						"node":15,
						"path":"translation"
					}
				},
				{
					"sampler":52,
					"target":{
						"node":15,
						"path":"rotation"
					}
				},
				{
					"sampler":53,
					"target":{
						"node":15,
						"path":"scale"
					}
				}
			],
			"name":"Laufen",
			"samplers":[
				{
					"input":16,
					"interpolation":"LINEAR",
					"output":97
				},
				{
					"input":16,
					"interpolation":"LINEAR",
					"output":98
				},
				{
					"input":11,
					"interpolation":"STEP",
					"output":14
				},
				{
					"input":11,
					"interpolation":"STEP",
					"output":15
				},
				{
					"input":11,
					"interpolation":"STEP",
					"output":99
				},
				{
					"input":11,
					"interpolation":"STEP",
					"output":14
				},
				{
					"input":11,
					"interpolation":"STEP",
					"output":100
				},
				{
					"input":16,
					"interpolation":"LINEAR",
					"output":101
				},
				{
					"input":11,
					"interpolation":"STEP",
					"output":14
				},
				{
					"input":11,
					"interpolation":"STEP",
					"output":102
				},
				{
					"input":11,
					"interpolation":"STEP",
					"output":21
				},
				{
					"input":11,
					"interpolation":"STEP",
					"output":60
				},
				{
					"input":11,
					"interpolation":"STEP",
					"output":103
				},
				{
					"input":16,
					"interpolation":"LINEAR",
					"output":104
				},
				{
					"input":11,
					"interpolation":"STEP",
					"output":105
				},
				{
					"input":11,
					"interpolation":"STEP",
					"output":106
				},
				{
					"input":16,
					"interpolation":"LINEAR",
					"output":107
				},
				{
					"input":11,
					"interpolation":"STEP",
					"output":22
				},
				{
					"input":11,
					"interpolation":"STEP",
					"output":108
				},
				{
					"input":16,
					"interpolation":"LINEAR",
					"output":109
				},
				{
					"input":11,
					"interpolation":"STEP",
					"output":31
				},
				{
					"input":11,
					"interpolation":"STEP",
					"output":110
				},
				{
					"input":11,
					"interpolation":"STEP",
					"output":111
				},
				{
					"input":11,
					"interpolation":"STEP",
					"output":112
				},
				{
					"input":11,
					"interpolation":"STEP",
					"output":113
				},
				{
					"input":11,
					"interpolation":"STEP",
					"output":114
				},
				{
					"input":11,
					"interpolation":"STEP",
					"output":115
				},
				{
					"input":11,
					"interpolation":"STEP",
					"output":116
				},
				{
					"input":16,
					"interpolation":"LINEAR",
					"output":117
				},
				{
					"input":11,
					"interpolation":"STEP",
					"output":118
				},
				{
					"input":11,
					"interpolation":"STEP",
					"output":119
				},
				{
					"input":11,
					"interpolation":"STEP",
					"output":120
				},
				{
					"input":11,
					"interpolation":"STEP",
					"output":121
				},
				{
					"input":11,
					"interpolation":"STEP",
					"output":122
				},
				{
					"input":11,
					"interpolation":"STEP",
					"output":123
				},
				{
					"input":11,
					"interpolation":"STEP",
					"output":124
				},
				{
					"input":11,
					"interpolation":"STEP",
					"output":125
				},
				{
					"input":16,
					"interpolation":"LINEAR",
					"output":126
				},
				{
					"input":11,
					"interpolation":"STEP",
					"output":49
				},
				{
					"input":11,
					"interpolation":"STEP",
					"output":127
				},
				{
					"input":16,
					"interpolation":"LINEAR",
					"output":128
				},
				{
					"input":11,
					"interpolation":"STEP",
					"output":129
				},
				{
					"input":11,
					"interpolation":"STEP",
					"output":130
				},
				{
					"input":16,
					"interpolation":"LINEAR",
					"output":131
				},
				{
					"input":11,
					"interpolation":"STEP",
					"output":63
				},
				{
					"input":11,
					"interpolation":"STEP",
					"output":132
				},
				{
					"input":16,
					"interpolation":"LINEAR",
					"output":133
				},
				{
					"input":11,
					"interpolation":"STEP",
					"output":49
				},
				{
					"input":11,
					"interpolation":"STEP",
					"output":134
				},
				{
					"input":16,
					"interpolation":"LINEAR",
					"output":135
				},
				{
					"input":11,
					"interpolation":"STEP",
					"output":136
				},
				{
					"input":11,
					"interpolation":"STEP",
					"output":137
				},
				{
					"input":16,
					"interpolation":"LINEAR",
					"output":138
				},
				{
					"input":11,
					"interpolation":"STEP",
					"output":139
				}
			]
		}
	],
	"materials":[
		{
			"doubleSided":true,
			"name":"OrkBerserker",
			"pbrMetallicRoughness":{
				"metallicFactor":0,
				"roughnessFactor":0.8500000238418579
			}
		}
	],
	"meshes":[
		{
			"name":"Haut",
			"primitives":[
				{
					"attributes":{
						"POSITION":0,
						"NORMAL":1,
						"COLOR_0":2,
						"JOINTS_0":3,
						"WEIGHTS_0":4
					},
					"indices":5,
					"material":0
				}
			]
		},
		{
			"name":"Streitaxt",
			"primitives":[
				{
					"attributes":{
						"POSITION":7,
						"NORMAL":8,
						"COLOR_0":9
					},
					"indices":10,
					"material":0
				}
			]
		}
	],
	"skins":[
		{
			"inverseBindMatrices":6,
			"joints":[
				18,
				11,
				10,
				2,
				1,
				0,
				5,
				4,
				3,
				9,
				8,
				7,
				14,
				13,
				12,
				17,
				16,
				15
			],
			"name":"OrkBerserkerSkelett"
		}
	],
	"accessors":[
		{
			"bufferView":0,
			"componentType":5126,
			"count":26800,
			"max":[
				0.5813637375831604,
				2.0741238594055176,
				0.29957014322280884
			],
			"min":[
				-0.5813637375831604,
				-0.009999999776482582,
				-0.2712711691856384
			],
			"type":"VEC3"
		},
		{
			"bufferView":1,
			"componentType":5126,
			"count":26800,
			"type":"VEC3"
		},
		{
			"bufferView":2,
			"componentType":5126,
			"count":26800,
			"type":"VEC3"
		},
		{
			"bufferView":3,
			"componentType":5121,
			"count":26800,
			"type":"VEC4"
		},
		{
			"bufferView":4,
			"componentType":5126,
			"count":26800,
			"type":"VEC4"
		},
		{
			"bufferView":5,
			"componentType":5123,
			"count":134184,
			"type":"SCALAR"
		},
		{
			"bufferView":6,
			"componentType":5126,
			"count":18,
			"type":"MAT4"
		},
		{
			"bufferView":7,
			"componentType":5126,
			"count":732,
			"max":[
				-0.4317130148410797,
				2.0614821910858154,
				0.5855218172073364
			],
			"min":[
				-0.49828699231147766,
				0.6624770760536194,
				-0.10985086113214493
			],
			"type":"VEC3"
		},
		{
			"bufferView":8,
			"componentType":5126,
			"count":732,
			"type":"VEC3"
		},
		{
			"bufferView":9,
			"componentType":5126,
			"count":732,
			"type":"VEC3"
		},
		{
			"bufferView":10,
			"componentType":5123,
			"count":1758,
			"type":"SCALAR"
		},
		{
			"bufferView":11,
			"componentType":5126,
			"count":2,
			"max":[
				1
			],
			"min":[
				0
			],
			"type":"SCALAR"
		},
		{
			"bufferView":12,
			"componentType":5126,
			"count":2,
			"type":"VEC3"
		},
		{
			"bufferView":13,
			"componentType":5126,
			"count":2,
			"type":"VEC4"
		},
		{
			"bufferView":14,
			"componentType":5126,
			"count":2,
			"type":"VEC3"
		},
		{
			"bufferView":15,
			"componentType":5126,
			"count":2,
			"type":"VEC3"
		},
		{
			"bufferView":16,
			"componentType":5126,
			"count":31,
			"max":[
				1
			],
			"min":[
				0
			],
			"type":"SCALAR"
		},
		{
			"bufferView":17,
			"componentType":5126,
			"count":31,
			"type":"VEC4"
		},
		{
			"bufferView":18,
			"componentType":5126,
			"count":2,
			"type":"VEC3"
		},
		{
			"bufferView":19,
			"componentType":5126,
			"count":31,
			"type":"VEC4"
		},
		{
			"bufferView":20,
			"componentType":5126,
			"count":2,
			"type":"VEC3"
		},
		{
			"bufferView":21,
			"componentType":5126,
			"count":2,
			"type":"VEC4"
		},
		{
			"bufferView":22,
			"componentType":5126,
			"count":2,
			"type":"VEC3"
		},
		{
			"bufferView":23,
			"componentType":5126,
			"count":2,
			"type":"VEC3"
		},
		{
			"bufferView":24,
			"componentType":5126,
			"count":2,
			"type":"VEC4"
		},
		{
			"bufferView":25,
			"componentType":5126,
			"count":2,
			"type":"VEC3"
		},
		{
			"bufferView":26,
			"componentType":5126,
			"count":2,
			"type":"VEC3"
		},
		{
			"bufferView":27,
			"componentType":5126,
			"count":2,
			"type":"VEC4"
		},
		{
			"bufferView":28,
			"componentType":5126,
			"count":2,
			"type":"VEC3"
		},
		{
			"bufferView":29,
			"componentType":5126,
			"count":2,
			"type":"VEC3"
		},
		{
			"bufferView":30,
			"componentType":5126,
			"count":2,
			"type":"VEC4"
		},
		{
			"bufferView":31,
			"componentType":5126,
			"count":2,
			"type":"VEC3"
		},
		{
			"bufferView":32,
			"componentType":5126,
			"count":2,
			"type":"VEC3"
		},
		{
			"bufferView":33,
			"componentType":5126,
			"count":2,
			"type":"VEC4"
		},
		{
			"bufferView":34,
			"componentType":5126,
			"count":2,
			"type":"VEC3"
		},
		{
			"bufferView":35,
			"componentType":5126,
			"count":2,
			"type":"VEC3"
		},
		{
			"bufferView":36,
			"componentType":5126,
			"count":2,
			"type":"VEC4"
		},
		{
			"bufferView":37,
			"componentType":5126,
			"count":2,
			"type":"VEC3"
		},
		{
			"bufferView":38,
			"componentType":5126,
			"count":2,
			"type":"VEC3"
		},
		{
			"bufferView":39,
			"componentType":5126,
			"count":31,
			"type":"VEC4"
		},
		{
			"bufferView":40,
			"componentType":5126,
			"count":2,
			"type":"VEC3"
		},
		{
			"bufferView":41,
			"componentType":5126,
			"count":2,
			"type":"VEC3"
		},
		{
			"bufferView":42,
			"componentType":5126,
			"count":31,
			"type":"VEC4"
		},
		{
			"bufferView":43,
			"componentType":5126,
			"count":2,
			"type":"VEC3"
		},
		{
			"bufferView":44,
			"componentType":5126,
			"count":2,
			"type":"VEC3"
		},
		{
			"bufferView":45,
			"componentType":5126,
			"count":2,
			"type":"VEC4"
		},
		{
			"bufferView":46,
			"componentType":5126,
			"count":2,
			"type":"VEC3"
		},
		{
			"bufferView":47,
			"componentType":5126,
			"count":2,
			"type":"VEC3"
		},
		{
			"bufferView":48,
			"componentType":5126,
			"count":31,
			"type":"VEC4"
		},
		{
			"bufferView":49,
			"componentType":5126,
			"count":2,
			"type":"VEC3"
		},
		{
			"bufferView":50,
			"componentType":5126,
			"count":2,
			"type":"VEC3"
		},
		{
			"bufferView":51,
			"componentType":5126,
			"count":31,
			"type":"VEC4"
		},
		{
			"bufferView":52,
			"componentType":5126,
			"count":2,
			"type":"VEC3"
		},
		{
			"bufferView":53,
			"componentType":5126,
			"count":2,
			"type":"VEC3"
		},
		{
			"bufferView":54,
			"componentType":5126,
			"count":2,
			"type":"VEC4"
		},
		{
			"bufferView":55,
			"componentType":5126,
			"count":2,
			"type":"VEC3"
		},
		{
			"bufferView":56,
			"componentType":5126,
			"count":2,
			"type":"VEC3"
		},
		{
			"bufferView":57,
			"componentType":5126,
			"count":31,
			"type":"VEC4"
		},
		{
			"bufferView":58,
			"componentType":5126,
			"count":2,
			"type":"VEC3"
		},
		{
			"bufferView":59,
			"componentType":5126,
			"count":31,
			"type":"VEC4"
		},
		{
			"bufferView":60,
			"componentType":5126,
			"count":2,
			"type":"VEC3"
		},
		{
			"bufferView":61,
			"componentType":5126,
			"count":2,
			"type":"VEC3"
		},
		{
			"bufferView":62,
			"componentType":5126,
			"count":2,
			"type":"VEC4"
		},
		{
			"bufferView":63,
			"componentType":5126,
			"count":2,
			"type":"VEC3"
		},
		{
			"bufferView":64,
			"componentType":5126,
			"count":181,
			"max":[
				6
			],
			"min":[
				0
			],
			"type":"SCALAR"
		},
		{
			"bufferView":65,
			"componentType":5126,
			"count":181,
			"type":"VEC3"
		},
		{
			"bufferView":66,
			"componentType":5126,
			"count":2,
			"max":[
				6
			],
			"min":[
				0
			],
			"type":"SCALAR"
		},
		{
			"bufferView":67,
			"componentType":5126,
			"count":181,
			"type":"VEC4"
		},
		{
			"bufferView":68,
			"componentType":5126,
			"count":181,
			"type":"VEC4"
		},
		{
			"bufferView":69,
			"componentType":5126,
			"count":181,
			"type":"VEC4"
		},
		{
			"bufferView":70,
			"componentType":5126,
			"count":2,
			"type":"VEC3"
		},
		{
			"bufferView":71,
			"componentType":5126,
			"count":2,
			"type":"VEC4"
		},
		{
			"bufferView":72,
			"componentType":5126,
			"count":181,
			"type":"VEC4"
		},
		{
			"bufferView":73,
			"componentType":5126,
			"count":2,
			"type":"VEC3"
		},
		{
			"bufferView":74,
			"componentType":5126,
			"count":2,
			"type":"VEC4"
		},
		{
			"bufferView":75,
			"componentType":5126,
			"count":2,
			"type":"VEC3"
		},
		{
			"bufferView":76,
			"componentType":5126,
			"count":2,
			"type":"VEC4"
		},
		{
			"bufferView":77,
			"componentType":5126,
			"count":2,
			"type":"VEC3"
		},
		{
			"bufferView":78,
			"componentType":5126,
			"count":2,
			"type":"VEC4"
		},
		{
			"bufferView":79,
			"componentType":5126,
			"count":2,
			"type":"VEC3"
		},
		{
			"bufferView":80,
			"componentType":5126,
			"count":2,
			"type":"VEC3"
		},
		{
			"bufferView":81,
			"componentType":5126,
			"count":2,
			"type":"VEC4"
		},
		{
			"bufferView":82,
			"componentType":5126,
			"count":2,
			"type":"VEC3"
		},
		{
			"bufferView":83,
			"componentType":5126,
			"count":2,
			"type":"VEC3"
		},
		{
			"bufferView":84,
			"componentType":5126,
			"count":2,
			"type":"VEC4"
		},
		{
			"bufferView":85,
			"componentType":5126,
			"count":2,
			"type":"VEC3"
		},
		{
			"bufferView":86,
			"componentType":5126,
			"count":2,
			"type":"VEC4"
		},
		{
			"bufferView":87,
			"componentType":5126,
			"count":2,
			"type":"VEC3"
		},
		{
			"bufferView":88,
			"componentType":5126,
			"count":2,
			"type":"VEC4"
		},
		{
			"bufferView":89,
			"componentType":5126,
			"count":2,
			"type":"VEC3"
		},
		{
			"bufferView":90,
			"componentType":5126,
			"count":2,
			"type":"VEC3"
		},
		{
			"bufferView":91,
			"componentType":5126,
			"count":2,
			"type":"VEC4"
		},
		{
			"bufferView":92,
			"componentType":5126,
			"count":2,
			"type":"VEC4"
		},
		{
			"bufferView":93,
			"componentType":5126,
			"count":2,
			"type":"VEC3"
		},
		{
			"bufferView":94,
			"componentType":5126,
			"count":2,
			"type":"VEC4"
		},
		{
			"bufferView":95,
			"componentType":5126,
			"count":2,
			"type":"VEC3"
		},
		{
			"bufferView":96,
			"componentType":5126,
			"count":2,
			"type":"VEC4"
		},
		{
			"bufferView":97,
			"componentType":5126,
			"count":31,
			"type":"VEC3"
		},
		{
			"bufferView":98,
			"componentType":5126,
			"count":31,
			"type":"VEC4"
		},
		{
			"bufferView":99,
			"componentType":5126,
			"count":2,
			"type":"VEC4"
		},
		{
			"bufferView":100,
			"componentType":5126,
			"count":2,
			"type":"VEC3"
		},
		{
			"bufferView":101,
			"componentType":5126,
			"count":31,
			"type":"VEC4"
		},
		{
			"bufferView":102,
			"componentType":5126,
			"count":2,
			"type":"VEC3"
		},
		{
			"bufferView":103,
			"componentType":5126,
			"count":2,
			"type":"VEC3"
		},
		{
			"bufferView":104,
			"componentType":5126,
			"count":31,
			"type":"VEC4"
		},
		{
			"bufferView":105,
			"componentType":5126,
			"count":2,
			"type":"VEC3"
		},
		{
			"bufferView":106,
			"componentType":5126,
			"count":2,
			"type":"VEC3"
		},
		{
			"bufferView":107,
			"componentType":5126,
			"count":31,
			"type":"VEC4"
		},
		{
			"bufferView":108,
			"componentType":5126,
			"count":2,
			"type":"VEC3"
		},
		{
			"bufferView":109,
			"componentType":5126,
			"count":31,
			"type":"VEC4"
		},
		{
			"bufferView":110,
			"componentType":5126,
			"count":2,
			"type":"VEC3"
		},
		{
			"bufferView":111,
			"componentType":5126,
			"count":2,
			"type":"VEC4"
		},
		{
			"bufferView":112,
			"componentType":5126,
			"count":2,
			"type":"VEC3"
		},
		{
			"bufferView":113,
			"componentType":5126,
			"count":2,
			"type":"VEC3"
		},
		{
			"bufferView":114,
			"componentType":5126,
			"count":2,
			"type":"VEC4"
		},
		{
			"bufferView":115,
			"componentType":5126,
			"count":2,
			"type":"VEC3"
		},
		{
			"bufferView":116,
			"componentType":5126,
			"count":2,
			"type":"VEC3"
		},
		{
			"bufferView":117,
			"componentType":5126,
			"count":31,
			"type":"VEC4"
		},
		{
			"bufferView":118,
			"componentType":5126,
			"count":2,
			"type":"VEC3"
		},
		{
			"bufferView":119,
			"componentType":5126,
			"count":2,
			"type":"VEC3"
		},
		{
			"bufferView":120,
			"componentType":5126,
			"count":2,
			"type":"VEC4"
		},
		{
			"bufferView":121,
			"componentType":5126,
			"count":2,
			"type":"VEC3"
		},
		{
			"bufferView":122,
			"componentType":5126,
			"count":2,
			"type":"VEC3"
		},
		{
			"bufferView":123,
			"componentType":5126,
			"count":2,
			"type":"VEC4"
		},
		{
			"bufferView":124,
			"componentType":5126,
			"count":2,
			"type":"VEC3"
		},
		{
			"bufferView":125,
			"componentType":5126,
			"count":2,
			"type":"VEC3"
		},
		{
			"bufferView":126,
			"componentType":5126,
			"count":31,
			"type":"VEC4"
		},
		{
			"bufferView":127,
			"componentType":5126,
			"count":2,
			"type":"VEC3"
		},
		{
			"bufferView":128,
			"componentType":5126,
			"count":31,
			"type":"VEC4"
		},
		{
			"bufferView":129,
			"componentType":5126,
			"count":2,
			"type":"VEC3"
		},
		{
			"bufferView":130,
			"componentType":5126,
			"count":2,
			"type":"VEC3"
		},
		{
			"bufferView":131,
			"componentType":5126,
			"count":31,
			"type":"VEC4"
		},
		{
			"bufferView":132,
			"componentType":5126,
			"count":2,
			"type":"VEC3"
		},
		{
			"bufferView":133,
			"componentType":5126,
			"count":31,
			"type":"VEC4"
		},
		{
			"bufferView":134,
			"componentType":5126,
			"count":2,
			"type":"VEC3"
		},
		{
			"bufferView":135,
			"componentType":5126,
			"count":31,
			"type":"VEC4"
		},
		{
			"bufferView":136,
			"componentType":5126,
			"count":2,
			"type":"VEC3"
		},
		{
			"bufferView":137,
			"componentType":5126,
			"count":2,
			"type":"VEC3"
		},
		{
			"bufferView":138,
			"componentType":5126,
			"count":31,
			"type":"VEC4"
		},
		{
			"bufferView":139,
			"componentType":5126,
			"count":2,
			"type":"VEC3"
		}
	],
	"bufferViews":[
		{
			"buffer":0,
			"byteLength":321600,
			"byteOffset":0,
			"target":34962
		},
		{
			"buffer":0,
			"byteLength":321600,
			"byteOffset":321600,
			"target":34962
		},
		{
			"buffer":0,
			"byteLength":321600,
			"byteOffset":643200,
			"target":34962
		},
		{
			"buffer":0,
			"byteLength":107200,
			"byteOffset":964800,
			"target":34962
		},
		{
			"buffer":0,
			"byteLength":428800,
			"byteOffset":1072000,
			"target":34962
		},
		{
			"buffer":0,
			"byteLength":268368,
			"byteOffset":1500800,
			"target":34963
		},
		{
			"buffer":0,
			"byteLength":1152,
			"byteOffset":1769168
		},
		{
			"buffer":0,
			"byteLength":8784,
			"byteOffset":1770320,
			"target":34962
		},
		{
			"buffer":0,
			"byteLength":8784,
			"byteOffset":1779104,
			"target":34962
		},
		{
			"buffer":0,
			"byteLength":8784,
			"byteOffset":1787888,
			"target":34962
		},
		{
			"buffer":0,
			"byteLength":3516,
			"byteOffset":1796672,
			"target":34963
		},
		{
			"buffer":0,
			"byteLength":8,
			"byteOffset":1800188
		},
		{
			"buffer":0,
			"byteLength":24,
			"byteOffset":1800196
		},
		{
			"buffer":0,
			"byteLength":32,
			"byteOffset":1800220
		},
		{
			"buffer":0,
			"byteLength":24,
			"byteOffset":1800252
		},
		{
			"buffer":0,
			"byteLength":24,
			"byteOffset":1800276
		},
		{
			"buffer":0,
			"byteLength":124,
			"byteOffset":1800300
		},
		{
			"buffer":0,
			"byteLength":496,
			"byteOffset":1800424
		},
		{
			"buffer":0,
			"byteLength":24,
			"byteOffset":1800920
		},
		{
			"buffer":0,
			"byteLength":496,
			"byteOffset":1800944
		},
		{
			"buffer":0,
			"byteLength":24,
			"byteOffset":1801440
		},
		{
			"buffer":0,
			"byteLength":32,
			"byteOffset":1801464
		},
		{
			"buffer":0,
			"byteLength":24,
			"byteOffset":1801496
		},
		{
			"buffer":0,
			"byteLength":24,
			"byteOffset":1801520
		},
		{
			"buffer":0,
			"byteLength":32,
			"byteOffset":1801544
		},
		{
			"buffer":0,
			"byteLength":24,
			"byteOffset":1801576
		},
		{
			"buffer":0,
			"byteLength":24,
			"byteOffset":1801600
		},
		{
			"buffer":0,
			"byteLength":32,
			"byteOffset":1801624
		},
		{
			"buffer":0,
			"byteLength":24,
			"byteOffset":1801656
		},
		{
			"buffer":0,
			"byteLength":24,
			"byteOffset":1801680
		},
		{
			"buffer":0,
			"byteLength":32,
			"byteOffset":1801704
		},
		{
			"buffer":0,
			"byteLength":24,
			"byteOffset":1801736
		},
		{
			"buffer":0,
			"byteLength":24,
			"byteOffset":1801760
		},
		{
			"buffer":0,
			"byteLength":32,
			"byteOffset":1801784
		},
		{
			"buffer":0,
			"byteLength":24,
			"byteOffset":1801816
		},
		{
			"buffer":0,
			"byteLength":24,
			"byteOffset":1801840
		},
		{
			"buffer":0,
			"byteLength":32,
			"byteOffset":1801864
		},
		{
			"buffer":0,
			"byteLength":24,
			"byteOffset":1801896
		},
		{
			"buffer":0,
			"byteLength":24,
			"byteOffset":1801920
		},
		{
			"buffer":0,
			"byteLength":496,
			"byteOffset":1801944
		},
		{
			"buffer":0,
			"byteLength":24,
			"byteOffset":1802440
		},
		{
			"buffer":0,
			"byteLength":24,
			"byteOffset":1802464
		},
		{
			"buffer":0,
			"byteLength":496,
			"byteOffset":1802488
		},
		{
			"buffer":0,
			"byteLength":24,
			"byteOffset":1802984
		},
		{
			"buffer":0,
			"byteLength":24,
			"byteOffset":1803008
		},
		{
			"buffer":0,
			"byteLength":32,
			"byteOffset":1803032
		},
		{
			"buffer":0,
			"byteLength":24,
			"byteOffset":1803064
		},
		{
			"buffer":0,
			"byteLength":24,
			"byteOffset":1803088
		},
		{
			"buffer":0,
			"byteLength":496,
			"byteOffset":1803112
		},
		{
			"buffer":0,
			"byteLength":24,
			"byteOffset":1803608
		},
		{
			"buffer":0,
			"byteLength":24,
			"byteOffset":1803632
		},
		{
			"buffer":0,
			"byteLength":496,
			"byteOffset":1803656
		},
		{
			"buffer":0,
			"byteLength":24,
			"byteOffset":1804152
		},
		{
			"buffer":0,
			"byteLength":24,
			"byteOffset":1804176
		},
		{
			"buffer":0,
			"byteLength":32,
			"byteOffset":1804200
		},
		{
			"buffer":0,
			"byteLength":24,
			"byteOffset":1804232
		},
		{
			"buffer":0,
			"byteLength":24,
			"byteOffset":1804256
		},
		{
			"buffer":0,
			"byteLength":496,
			"byteOffset":1804280
		},
		{
			"buffer":0,
			"byteLength":24,
			"byteOffset":1804776
		},
		{
			"buffer":0,
			"byteLength":496,
			"byteOffset":1804800
		},
		{
			"buffer":0,
			"byteLength":24,
			"byteOffset":1805296
		},
		{
			"buffer":0,
			"byteLength":24,
			"byteOffset":1805320
		},
		{
			"buffer":0,
			"byteLength":32,
			"byteOffset":1805344
		},
		{
			"buffer":0,
			"byteLength":24,
			"byteOffset":1805376
		},
		{
			"buffer":0,
			"byteLength":724,
			"byteOffset":1805400
		},
		{
			"buffer":0,
			"byteLength":2172,
			"byteOffset":1806124
		},
		{
			"buffer":0,
			"byteLength":8,
			"byteOffset":1808296
		},
		{
			"buffer":0,
			"byteLength":2896,
			"byteOffset":1808304
		},
		{
			"buffer":0,
			"byteLength":2896,
			"byteOffset":1811200
		},
		{
			"buffer":0,
			"byteLength":2896,
			"byteOffset":1814096
		},
		{
			"buffer":0,
			"byteLength":24,
			"byteOffset":1816992
		},
		{
			"buffer":0,
			"byteLength":32,
			"byteOffset":1817016
		},
		{
			"buffer":0,
			"byteLength":2896,
			"byteOffset":1817048
		},
		{
			"buffer":0,
			"byteLength":24,
			"byteOffset":1819944
		},
		{
			"buffer":0,
			"byteLength":32,
			"byteOffset":1819968
		},
		{
			"buffer":0,
			"byteLength":24,
			"byteOffset":1820000
		},
		{
			"buffer":0,
			"byteLength":32,
			"byteOffset":1820024
		},
		{
			"buffer":0,
			"byteLength":24,
			"byteOffset":1820056
		},
		{
			"buffer":0,
			"byteLength":32,
			"byteOffset":1820080
		},
		{
			"buffer":0,
			"byteLength":24,
			"byteOffset":1820112
		},
		{
			"buffer":0,
			"byteLength":24,
			"byteOffset":1820136
		},
		{
			"buffer":0,
			"byteLength":32,
			"byteOffset":1820160
		},
		{
			"buffer":0,
			"byteLength":24,
			"byteOffset":1820192
		},
		{
			"buffer":0,
			"byteLength":24,
			"byteOffset":1820216
		},
		{
			"buffer":0,
			"byteLength":32,
			"byteOffset":1820240
		},
		{
			"buffer":0,
			"byteLength":24,
			"byteOffset":1820272
		},
		{
			"buffer":0,
			"byteLength":32,
			"byteOffset":1820296
		},
		{
			"buffer":0,
			"byteLength":24,
			"byteOffset":1820328
		},
		{
			"buffer":0,
			"byteLength":32,
			"byteOffset":1820352
		},
		{
			"buffer":0,
			"byteLength":24,
			"byteOffset":1820384
		},
		{
			"buffer":0,
			"byteLength":24,
			"byteOffset":1820408
		},
		{
			"buffer":0,
			"byteLength":32,
			"byteOffset":1820432
		},
		{
			"buffer":0,
			"byteLength":32,
			"byteOffset":1820464
		},
		{
			"buffer":0,
			"byteLength":24,
			"byteOffset":1820496
		},
		{
			"buffer":0,
			"byteLength":32,
			"byteOffset":1820520
		},
		{
			"buffer":0,
			"byteLength":24,
			"byteOffset":1820552
		},
		{
			"buffer":0,
			"byteLength":32,
			"byteOffset":1820576
		},
		{
			"buffer":0,
			"byteLength":372,
			"byteOffset":1820608
		},
		{
			"buffer":0,
			"byteLength":496,
			"byteOffset":1820980
		},
		{
			"buffer":0,
			"byteLength":32,
			"byteOffset":1821476
		},
		{
			"buffer":0,
			"byteLength":24,
			"byteOffset":1821508
		},
		{
			"buffer":0,
			"byteLength":496,
			"byteOffset":1821532
		},
		{
			"buffer":0,
			"byteLength":24,
			"byteOffset":1822028
		},
		{
			"buffer":0,
			"byteLength":24,
			"byteOffset":1822052
		},
		{
			"buffer":0,
			"byteLength":496,
			"byteOffset":1822076
		},
		{
			"buffer":0,
			"byteLength":24,
			"byteOffset":1822572
		},
		{
			"buffer":0,
			"byteLength":24,
			"byteOffset":1822596
		},
		{
			"buffer":0,
			"byteLength":496,
			"byteOffset":1822620
		},
		{
			"buffer":0,
			"byteLength":24,
			"byteOffset":1823116
		},
		{
			"buffer":0,
			"byteLength":496,
			"byteOffset":1823140
		},
		{
			"buffer":0,
			"byteLength":24,
			"byteOffset":1823636
		},
		{
			"buffer":0,
			"byteLength":32,
			"byteOffset":1823660
		},
		{
			"buffer":0,
			"byteLength":24,
			"byteOffset":1823692
		},
		{
			"buffer":0,
			"byteLength":24,
			"byteOffset":1823716
		},
		{
			"buffer":0,
			"byteLength":32,
			"byteOffset":1823740
		},
		{
			"buffer":0,
			"byteLength":24,
			"byteOffset":1823772
		},
		{
			"buffer":0,
			"byteLength":24,
			"byteOffset":1823796
		},
		{
			"buffer":0,
			"byteLength":496,
			"byteOffset":1823820
		},
		{
			"buffer":0,
			"byteLength":24,
			"byteOffset":1824316
		},
		{
			"buffer":0,
			"byteLength":24,
			"byteOffset":1824340
		},
		{
			"buffer":0,
			"byteLength":32,
			"byteOffset":1824364
		},
		{
			"buffer":0,
			"byteLength":24,
			"byteOffset":1824396
		},
		{
			"buffer":0,
			"byteLength":24,
			"byteOffset":1824420
		},
		{
			"buffer":0,
			"byteLength":32,
			"byteOffset":1824444
		},
		{
			"buffer":0,
			"byteLength":24,
			"byteOffset":1824476
		},
		{
			"buffer":0,
			"byteLength":24,
			"byteOffset":1824500
		},
		{
			"buffer":0,
			"byteLength":496,
			"byteOffset":1824524
		},
		{
			"buffer":0,
			"byteLength":24,
			"byteOffset":1825020
		},
		{
			"buffer":0,
			"byteLength":496,
			"byteOffset":1825044
		},
		{
			"buffer":0,
			"byteLength":24,
			"byteOffset":1825540
		},
		{
			"buffer":0,
			"byteLength":24,
			"byteOffset":1825564
		},
		{
			"buffer":0,
			"byteLength":496,
			"byteOffset":1825588
		},
		{
			"buffer":0,
			"byteLength":24,
			"byteOffset":1826084
		},
		{
			"buffer":0,
			"byteLength":496,
			"byteOffset":1826108
		},
		{
			"buffer":0,
			"byteLength":24,
			"byteOffset":1826604
		},
		{
			"buffer":0,
			"byteLength":496,
			"byteOffset":1826628
		},
		{
			"buffer":0,
			"byteLength":24,
			"byteOffset":1827124
		},
		{
			"buffer":0,
			"byteLength":24,
			"byteOffset":1827148
		},
		{
			"buffer":0,
			"byteLength":496,
			"byteOffset":1827172
		},
		{
			"buffer":0,
			"byteLength":24,
			"byteOffset":1827668
		}
	],
	"buffers":[
		{
			"byteLength":1827692,
			"uri":"ork_berserker.bin"
		}
	]
}
