{
	"asset":{
		"generator":"Khronos glTF Blender I/O v5.2.40",
		"version":"2.0"
	},
	"scene":0,
	"scenes":[
		{
			"name":"Scene",
			"nodes":[
				20
			]
		}
	],
	"nodes":[
		{
			"name":"Hut",
			"rotation":[
				-0.49269899725914,
				1.4670467862742953e-07,
				-8.306282950343302e-08,
				0.8701998591423035
			],
			"scale":[
				1,
				0.9999998807907104,
				0.9999999403953552
			],
			"translation":[
				0,
				0.2900000810623169,
				-0.019999999552965164
			]
		},
		{
			"children":[
				0
			],
			"name":"Kopf",
			"translation":[
				0,
				0.09000003337860107,
				0
			]
		},
		{
			"children":[
				1
			],
			"name":"Hals",
			"translation":[
				0,
				0.25999999046325684,
				0
			]
		},
		{
			"name":"Hand.L",
			"rotation":[
				-0.02993539348244667,
				-0.0012853139778599143,
				0.008676200173795223,
				0.9995133876800537
			],
			"scale":[
				1,
				0.9999998807907104,
				1
			],
			"translation":[
				-2.9709189774962397e-08,
				0.2567099928855896,
				-2.7939677238464355e-09
			]
		},
		{
			"children":[
				3
			],
			"name":"Unterarm.L",
			"rotation":[
				-0.09223336726427078,
				-0.0013973830500617623,
				0.056753627955913544,
				0.9941177368164062
			],
			"scale":[
				1,
				0.9999999403953552,
				1
			],
			"translation":[
				-6.705523913907996e-10,
				0.2947879731655121,
				-4.656612873077393e-10
			]
		},
		{
			"children":[
				4
			],
			"name":"Oberarm.L",
			"rotation":[
				-0.9873651266098022,
				-0.15478397905826569,
				0.0052567459642887115,
				0.03353271260857582
			],
			"scale":[
				0.9999997615814209,
				0.9999998211860657,
				1
			],
			"translation":[
				0.20000000298023224,
				0.20000004768371582,
				0
			]
		},
		{
			"mesh":1,
			"name":"Pike",
			"rotation":[
				-0.9920610189437866,
				0.08945408463478088,
				0.007937991060316563,
				0.08803384751081467
			],
			"scale":[
				1.0000001192092896,
				1.000000238418579,
				1
			],
			"translation":[
				0.508034884929657,
				0.877810001373291,
				0.16718614101409912
			]
		},
		{
			"children":[
				6
			],
			"name":"Hand.R",
			"rotation":[
				-0.02993539348244667,
				0.0012853139778599143,
				-0.008676200173795223,
				0.9995133876800537
			],
			"scale":[
				1,
				0.9999998807907104,
				1
			],
			"translation":[
				2.9709189774962397e-08,
				0.2567099928855896,
				-2.7939677238464355e-09
			]
		},
		{
			"children":[
				7
			],
			"name":"Unterarm.R",
			"rotation":[
				-0.09223336726427078,
				0.0013973830500617623,
				-0.056753627955913544,
				0.9941177368164062
			],
			"scale":[
				1,
				0.9999999403953552,
				1
			],
			"translation":[
				6.705523913907996e-10,
				0.2947879731655121,
				-4.656612873077393e-10
			]
		},
		{
			"children":[
				8
			],
			"name":"Oberarm.R",
			"rotation":[
				-0.9873651266098022,
				0.15478397905826569,
				-0.0052567459642887115,
				0.03353271260857582
			],
			"scale":[
				0.9999997615814209,
				0.9999998211860657,
				1
			],
			"translation":[
				-0.20000000298023224,
				0.20000004768371582,
				0
			]
		},
		{
			"children":[
				2,
				5,
				9
			],
			"name":"Brust",
			"translation":[
				0,
				0.19999992847442627,
				0
			]
		},
		{
			"children":[
				10
			],
			"name":"Bauch",
			"translation":[
				0,
				0.15000003576278687,
				0
			]
		},
		{
			"name":"Fuss.L",
			"rotation":[
				1.1095015572948341e-08,
				0.8304529190063477,
				-0.5570888519287109,
				6.26974596684704e-08
			],
			"scale":[
				1,
				0.9999998807907104,
				0.9999998807907104
			],
			"translation":[
				-2.35995756270313e-09,
				0.42047592997550964,
				1.1594929461011816e-09
			]
		},
		{
			"children":[
				12
			],
			"name":"Unterschenkel.L",
			"rotation":[
				0.023789310827851295,
				9.13925006784666e-08,
				9.505255610386953e-11,
				0.9997169971466064
			],
			"scale":[
				1,
				0.9999999403953552,
				1
			],
			"translation":[
				0,
				0.4300000071525574,
				0
			]
		},
		{
			"children":[
				13
			],
			"name":"Oberschenkel.L",
			"rotation":[
				1,
				0,
				-4.371138828673793e-08,
				0
			],
			"translation":[
				0.10000000149011612,
				0,
				0
			]
		},
		{
			"name":"Fuss.R",
			"rotation":[
				1.1095015572948341e-08,
				0.8304529190063477,
				-0.5570888519287109,
				6.26974596684704e-08
			],
			"scale":[
				1,
				0.9999998807907104,
				0.9999998807907104
			],
			"translation":[
				-2.35995756270313e-09,
				0.42047592997550964,
				7.031522031297754e-10
			]
		},
		{
			"children":[
				15
			],
			"name":"Unterschenkel.R",
			"rotation":[
				0.023789310827851295,
				9.13925006784666e-08,
				9.505255610386953e-11,
				0.9997169971466064
			],
			"scale":[
				1,
				0.9999999403953552,
				1
			],
			"translation":[
				0,
				0.4300000071525574,
				0
			]
		},
		{
			"children":[
				16
			],
			"name":"Oberschenkel.R",
			"rotation":[
				1,
				0,
				-4.371138828673793e-08,
				0
			],
			"translation":[
				-0.10000000149011612,
				0,
				0
			]
		},
		{
			"children":[
				11,
				14,
				17
			],
			"name":"Becken",
			"translation":[
				0,
				0.949999988079071,
				0
			]
		},
		{
			"mesh":0,
			"name":"Pikenier",
			"skin":0
		},
		{
			"children":[
				19,
				18
			],
			"name":"PikenierSkelett"
		}
	],
	"animations":[
		{
			"channels":[
				{
					"sampler":0,
					"target":{
						"node":18,
						"path":"translation"
					}
				},
				{
					"sampler":1,
					"target":{
						"node":18,
						"path":"rotation"
					}
				},
				{
					"sampler":2,
					"target":{
						"node":18,
						"path":"scale"
					}
				},
				{
					"sampler":3,
					"target":{
						"node":11,
						"path":"translation"
					}
				},
				{
					"sampler":4,
					"target":{
						"node":11,
						"path":"rotation"
					}
				},
				{
					"sampler":5,
					"target":{
						"node":11,
						"path":"scale"
					}
				},
				{
					"sampler":6,
					"target":{
						"node":10,
						"path":"translation"
					}
				},
				{
					"sampler":7,
					"target":{
						"node":10,
						"path":"rotation"
					}
				},
				{
					"sampler":8,
					"target":{
						"node":10,
						"path":"scale"
					}
				},
				{
					"sampler":9,
					"target":{
						"node":2,
						"path":"translation"
					}
				},
				{
					"sampler":10,
					"target":{
						"node":2,
						"path":"rotation"
					}
				},
				{
					"sampler":11,
					"target":{
						"node":2,
						"path":"scale"
					}
				},
				{
					"sampler":12,
					"target":{
						"node":1,
						"path":"translation"
					}
				},
				{
					"sampler":13,
					"target":{
						"node":1,
						"path":"rotation"
					}
				},
				{
					"sampler":14,
					"target":{
						"node":1,
						"path":"scale"
					}
				},
				{
					"sampler":15,
					"target":{
						"node":0,
						"path":"translation"
					}
				},
				{
					"sampler":16,
					"target":{
						"node":0,
						"path":"rotation"
					}
				},
				{
					"sampler":17,
					"target":{
						"node":0,
						"path":"scale"
					}
				},
				{
					"sampler":18,
					"target":{
						"node":5,
						"path":"translation"
					}
				},
				{
					"sampler":19,
					"target":{
						"node":5,
						"path":"rotation"
					}
				},
				{
					"sampler":20,
					"target":{
						"node":5,
						"path":"scale"
					}
				},
				{
					"sampler":21,
					"target":{
						"node":4,
						"path":"translation"
					}
				},
				{
					"sampler":22,
					"target":{
						"node":4,
						"path":"rotation"
					}
				},
				{
					"sampler":23,
					"target":{
						"node":4,
						"path":"scale"
					}
				},
				{
					"sampler":24,
					"target":{
						"node":3,
						"path":"translation"
					}
				},
				{
					"sampler":25,
					"target":{
						"node":3,
						"path":"rotation"
					}
				},
				{
					"sampler":26,
					"target":{
						"node":3,
						"path":"scale"
					}
				},
				{
					"sampler":27,
					"target":{
						"node":9,
						"path":"translation"
					}
				},
				{
					"sampler":28,
					"target":{
						"node":9,
						"path":"rotation"
					}
				},
				{
					"sampler":29,
					"target":{
						"node":9,
						"path":"scale"
					}
				},
				{
					"sampler":30,
					"target":{
						"node":8,
						"path":"translation"
					}
				},
				{
					"sampler":31,
					"target":{
						"node":8,
						"path":"rotation"
					}
				},
				{
					"sampler":32,
					"target":{
						"node":8,
						"path":"scale"
					}
				},
				{
					"sampler":33,
					"target":{
						"node":7,
						"path":"translation"
					}
				},
				{
					"sampler":34,
					"target":{
						"node":7,
						"path":"rotation"
					}
				},
				{
					"sampler":35,
					"target":{
						"node":7,
						"path":"scale"
					}
				},
				{
					"sampler":36,
					"target":{
						"node":14,
						"path":"translation"
					}
				},
				{
					"sampler":37,
					"target":{
						"node":14,
						"path":"rotation"
					}
				},
				{
					"sampler":38,
					"target":{
						"node":14,
						"path":"scale"
					}
				},
				{
					"sampler":39,
					"target":{
						"node":13,
						"path":"translation"
					}
				},
				{
					"sampler":40,
					"target":{
						"node":13,
						"path":"rotation"
					}
				},
				{
					"sampler":41,
					"target":{
						"node":13,
						"path":"scale"
					}
				},
				{
					"sampler":42,
					"target":{
						"node":12,
						"path":"translation"
					}
				},
				{
					"sampler":43,
					"target":{
						"node":12,
						"path":"rotation"
					}
				},
				{
					"sampler":44,
					"target":{
						"node":12,
						"path":"scale"
					}
				},
				{
					"sampler":45,
					"target":{
						"node":17,
						"path":"translation"
					}
				},
				{
					"sampler":46,
					"target":{
						"node":17,
						"path":"rotation"
					}
				},
				{
					"sampler":47,
					"target":{
						"node":17,
						"path":"scale"
					}
				},
				{
					"sampler":48,
					"target":{
						"node":16,
						"path":"translation"
					}
				},
				{
					"sampler":49,
					"target":{
						"node":16,
						"path":"rotation"
					}
				},
				{
					"sampler":50,
					"target":{
						"node":16,
						"path":"scale"
					}
				},
				{
					"sampler":51,
					"target":{
						"node":15,
						"path":"translation"
					}
				},
				{
					"sampler":52,
					"target":{
						"node":15,
						"path":"rotation"
					}
				},
				{
					"sampler":53,
					"target":{
						"node":15,
						"path":"scale"
					}
				}
			],
			"name":"Angriff",
			"samplers":[
				{
					"input":11,
					"interpolation":"LINEAR",
					"output":12
				},
				{
					"input":13,
					"interpolation":"STEP",
					"output":14
				},
				{
					"input":13,
					"interpolation":"STEP",
					"output":15
				},
				{
					"input":13,
					"interpolation":"STEP",
					"output":16
				},
				{
					"input":11,
					"interpolation":"LINEAR",
					"output":17
				},
				{
					"input":13,
					"interpolation":"STEP",
					"output":15
				},
				{
					"input":13,
					"interpolation":"STEP",
					"output":18
				},
				{
					"input":11,
					"interpolation":"LINEAR",
					"output":19
				},
				{
					"input":13,
					"interpolation":"STEP",
					"output":15
				},
				{
					"input":13,
					"interpolation":"STEP",
					"output":20
				},
				{
					"input":13,
					"interpolation":"STEP",
					"output":14
				},
				{
					"input":13,
					"interpolation":"STEP",
					"output":15
				},
				{
					"input":13,
					"interpolation":"STEP",
					"output":21
				},
				{
					"input":13,
					"interpolation":"STEP",
					"output":14
				},
				{
					"input":13,
					"interpolation":"STEP",
					"output":15
				},
				{
					"input":13,
					"interpolation":"STEP",
					"output":22
				},
				{
					"input":13,
					"interpolation":"STEP",
					"output":23
				},
				{
					"input":13,
					"interpolation":"STEP",
					"output":24
				},
				{
					"input":13,
					"interpolation":"STEP",
					"output":25
				},
				{
					"input":11,
					"interpolation":"LINEAR",
					"output":26
				},
				{
					"input":13,
					"interpolation":"STEP",
					"output":27
				},
				{
					"input":13,
					"interpolation":"STEP",
					"output":28
				},
				{
					"input":13,
					"interpolation":"STEP",
					"output":29
				},
				{
					"input":13,
					"interpolation":"STEP",
					"output":15
				},
				{
					"input":13,
					"interpolation":"STEP",
					"output":30
				},
				{
					"input":13,
					"interpolation":"STEP",
					"output":31
				},
				{
					"input":13,
					"interpolation":"STEP",
					"output":32
				},
				{
					"input":13,
					"interpolation":"STEP",
					"output":33
				},
				{
					"input":11,
					"interpolation":"LINEAR",
					"output":34
				},
				{
					"input":13,
					"interpolation":"STEP",
					"output":35
				},
				{
					"input":13,
					"interpolation":"STEP",
					"output":36
				},
				{
					"input":11,
					"interpolation":"LINEAR",
					"output":37
				},
				{
					"input":13,
					"interpolation":"STEP",
					"output":38
				},
				{
					"input":13,
					"interpolation":"STEP",
					"output":39
				},
				{
					"input":13,
					"interpolation":"STEP",
					"output":40
				},
				{
					"input":13,
					"interpolation":"STEP",
					"output":41
				},
				{
					"input":13,
					"interpolation":"STEP",
					"output":42
				},
				{
					"input":11,
					"interpolation":"LINEAR",
					"output":43
				},
				{
					"input":13,
					"interpolation":"STEP",
					"output":15
				},
				{
					"input":13,
					"interpolation":"STEP",
					"output":44
				},
				{
					"input":11,
					"interpolation":"LINEAR",
					"output":45
				},
				{
					"input":13,
					"interpolation":"STEP",
					"output":46
				},
				{
					"input":13,
					"interpolation":"STEP",
					"output":47
				},
				{
					"input":13,
					"interpolation":"STEP",
					"output":48
				},
				{
					"input":13,
					"interpolation":"STEP",
					"output":49
				},
				{
					"input":13,
					"interpolation":"STEP",
					"output":50
				},
				{
					"input":11,
					"interpolation":"LINEAR",
					"output":51
				},
				{
					"input":13,
					"interpolation":"STEP",
					"output":15
				},
				{
					"input":13,
					"interpolation":"STEP",
					"output":52
				},
				{
					"input":11,
					"interpolation":"LINEAR",
					"output":53
				},
				{
					"input":13,
					"interpolation":"STEP",
					"output":46
				},
				{
					"input":13,
					"interpolation":"STEP",
					"output":54
				},
				{
					"input":13,
					"interpolation":"STEP",
					"output":48
				},
				{
					"input":13,
					"interpolation":"STEP",
					"output":49
				}
			]
		},
		{
			"channels":[
				{
					"sampler":0,
					"target":{
						"node":18,
						"path":"translation"
					}
				},
				{
					"sampler":1,
					"target":{
						"node":18,
						"path":"rotation"
					}
				},
				{
					"sampler":2,
					"target":{
						"node":18,
						"path":"scale"
					}
				},
				{
					"sampler":3,
					"target":{
						"node":11,
						"path":"translation"
					}
				},
				{
					"sampler":4,
					"target":{
						"node":11,
						"path":"rotation"
					}
				},
				{
					"sampler":5,
					"target":{
						"node":11,
						"path":"scale"
					}
				},
				{
					"sampler":6,
					"target":{
						"node":10,
						"path":"translation"
					}
				},
				{
					"sampler":7,
					"target":{
						"node":10,
						"path":"rotation"
					}
				},
				{
					"sampler":8,
					"target":{
						"node":10,
						"path":"scale"
					}
				},
				{
					"sampler":9,
					"target":{
						"node":2,
						"path":"translation"
					}
				},
				{
					"sampler":10,
					"target":{
						"node":2,
						"path":"rotation"
					}
				},
				{
					"sampler":11,
					"target":{
						"node":2,
						"path":"scale"
					}
				},
				{
					"sampler":12,
					"target":{
						"node":1,
						"path":"translation"
					}
				},
				{
					"sampler":13,
					"target":{
						"node":1,
						"path":"rotation"
					}
				},
				{
					"sampler":14,
					"target":{
						"node":1,
						"path":"scale"
					}
				},
				{
					"sampler":15,
					"target":{
						"node":0,
						"path":"translation"
					}
				},
				{
					"sampler":16,
					"target":{
						"node":0,
						"path":"rotation"
					}
				},
				{
					"sampler":17,
					"target":{
						"node":0,
						"path":"scale"
					}
				},
				{
					"sampler":18,
					"target":{
						"node":5,
						"path":"translation"
					}
				},
				{
					"sampler":19,
					"target":{
						"node":5,
						"path":"rotation"
					}
				},
				{
					"sampler":20,
					"target":{
						"node":5,
						"path":"scale"
					}
				},
				{
					"sampler":21,
					"target":{
						"node":4,
						"path":"translation"
					}
				},
				{
					"sampler":22,
					"target":{
						"node":4,
						"path":"rotation"
					}
				},
				{
					"sampler":23,
					"target":{
						"node":4,
						"path":"scale"
					}
				},
				{
					"sampler":24,
					"target":{
						"node":3,
						"path":"translation"
					}
				},
				{
					"sampler":25,
					"target":{
						"node":3,
						"path":"rotation"
					}
				},
				{
					"sampler":26,
					"target":{
						"node":3,
						"path":"scale"
					}
				},
				{
					"sampler":27,
					"target":{
						"node":9,
						"path":"translation"
					}
				},
				{
					"sampler":28,
					"target":{
						"node":9,
						"path":"rotation"
					}
				},
				{
					"sampler":29,
					"target":{
						"node":9,
						"path":"scale"
					}
				},
				{
					"sampler":30,
					"target":{
						"node":8,
						"path":"translation"
					}
				},
				{
					"sampler":31,
					"target":{
						"node":8,
						"path":"rotation"
					}
				},
				{
					"sampler":32,
					"target":{
						"node":8,
						"path":"scale"
					}
				},
				{
					"sampler":33,
					"target":{
						"node":7,
						"path":"translation"
					}
				},
				{
					"sampler":34,
					"target":{
						"node":7,
						"path":"rotation"
					}
				},
				{
					"sampler":35,
					"target":{
						"node":7,
						"path":"scale"
					}
				},
				{
					"sampler":36,
					"target":{
						"node":14,
						"path":"translation"
					}
				},
				{
					"sampler":37,
					"target":{
						"node":14,
						"path":"rotation"
					}
				},
				{
					"sampler":38,
					"target":{
						"node":14,
						"path":"scale"
					}
				},
				{
					"sampler":39,
					"target":{
						"node":13,
						"path":"translation"
					}
				},
				{
					"sampler":40,
					"target":{
						"node":13,
						"path":"rotation"
					}
				},
				{
					"sampler":41,
					"target":{
						"node":13,
						"path":"scale"
					}
				},
				{
					"sampler":42,
					"target":{
						"node":12,
						"path":"translation"
					}
				},
				{
					"sampler":43,
					"target":{
						"node":12,
						"path":"rotation"
					}
				},
				{
					"sampler":44,
					"target":{
						"node":12,
						"path":"scale"
					}
				},
				{
					"sampler":45,
					"target":{
						"node":17,
						"path":"translation"
					}
				},
				{
					"sampler":46,
					"target":{
						"node":17,
						"path":"rotation"
					}
				},
				{
					"sampler":47,
					"target":{
						"node":17,
						"path":"scale"
					}
				},
				{
					"sampler":48,
					"target":{
						"node":16,
						"path":"translation"
					}
				},
				{
					"sampler":49,
					"target":{
						"node":16,
						"path":"rotation"
					}
				},
				{
					"sampler":50,
					"target":{
						"node":16,
						"path":"scale"
					}
				},
				{
					"sampler":51,
					"target":{
						"node":15,
						"path":"translation"
					}
				},
				{
					"sampler":52,
					"target":{
						"node":15,
						"path":"rotation"
					}
				},
				{
					"sampler":53,
					"target":{
						"node":15,
						"path":"scale"
					}
				}
			],
			"name":"Idle",
			"samplers":[
				{
					"input":55,
					"interpolation":"LINEAR",
					"output":56
				},
				{
					"input":57,
					"interpolation":"STEP",
					"output":14
				},
				{
					"input":57,
					"interpolation":"STEP",
					"output":15
				},
				{
					"input":57,
					"interpolation":"STEP",
					"output":16
				},
				{
					"input":55,
					"interpolation":"LINEAR",
					"output":58
				},
				{
					"input":57,
					"interpolation":"STEP",
					"output":15
				},
				{
					"input":57,
					"interpolation":"STEP",
					"output":18
				},
				{
					"input":55,
					"interpolation":"LINEAR",
					"output":59
				},
				{
					"input":57,
					"interpolation":"STEP",
					"output":15
				},
				{
					"input":57,
					"interpolation":"STEP",
					"output":20
				},
				{
					"input":57,
					"interpolation":"STEP",
					"output":14
				},
				{
					"input":57,
					"interpolation":"STEP",
					"output":15
				},
				{
					"input":57,
					"interpolation":"STEP",
					"output":21
				},
				{
					"input":55,
					"interpolation":"LINEAR",
					"output":60
				},
				{
					"input":57,
					"interpolation":"STEP",
					"output":15
				},
				{
					"input":57,
					"interpolation":"STEP",
					"output":61
				},
				{
					"input":57,
					"interpolation":"STEP",
					"output":62
				},
				{
					"input":57,
					"interpolation":"STEP",
					"output":24
				},
				{
					"input":57,
					"interpolation":"STEP",
					"output":25
				},
				{
					"input":55,
					"interpolation":"LINEAR",
					"output":63
				},
				{
					"input":57,
					"interpolation":"STEP",
					"output":32
				},
				{
					"input":57,
					"interpolation":"STEP",
					"output":64
				},
				{
					"input":57,
					"interpolation":"STEP",
					"output":65
				},
				{
					"input":57,
					"interpolation":"STEP",
					"output":66
				},
				{
					"input":57,
					"interpolation":"STEP",
					"output":67
				},
				{
					"input":57,
					"interpolation":"STEP",
					"output":68
				},
				{
					"input":57,
					"interpolation":"STEP",
					"output":69
				},
				{
					"input":57,
					"interpolation":"STEP",
					"output":33
				},
				{
					"input":57,
					"interpolation":"STEP",
					"output":70
				},
				{
					"input":57,
					"interpolation":"STEP",
					"output":32
				},
				{
					"input":57,
					"interpolation":"STEP",
					"output":71
				},
				{
					"input":57,
					"interpolation":"STEP",
					"output":72
				},
				{
					"input":57,
					"interpolation":"STEP",
					"output":49
				},
				{
					"input":57,
					"interpolation":"STEP",
					"output":73
				},
				{
					"input":57,
					"interpolation":"STEP",
					"output":74
				},
				{
					"input":57,
					"interpolation":"STEP",
					"output":75
				},
				{
					"input":57,
					"interpolation":"STEP",
					"output":42
				},
				{
					"input":57,
					"interpolation":"STEP",
					"output":76
				},
				{
					"input":57,
					"interpolation":"STEP",
					"output":15
				},
				{
					"input":57,
					"interpolation":"STEP",
					"output":44
				},
				{
					"input":57,
					"interpolation":"STEP",
					"output":77
				},
				{
					"input":57,
					"interpolation":"STEP",
					"output":46
				},
				{
					"input":57,
					"interpolation":"STEP",
					"output":78
				},
				{
					"input":57,
					"interpolation":"STEP",
					"output":79
				},
				{
					"input":57,
					"interpolation":"STEP",
					"output":66
				},
				{
					"input":57,
					"interpolation":"STEP",
					"output":50
				},
				{
					"input":57,
					"interpolation":"STEP",
					"output":76
				},
				{
					"input":57,
					"interpolation":"STEP",
					"output":15
				},
				{
					"input":57,
					"interpolation":"STEP",
					"output":52
				},
				{
					"input":57,
					"interpolation":"STEP",
					"output":77
				},
				{
					"input":57,
					"interpolation":"STEP",
					"output":46
				},
				{
					"input":57,
					"interpolation":"STEP",
					"output":80
				},
				{
					"input":57,
					"interpolation":"STEP",
					"output":79
				},
				{
					"input":57,
					"interpolation":"STEP",
					"output":66
				}
			]
		},
		{
			"channels":[
				{
					"sampler":0,
					"target":{
						"node":18,
						"path":"translation"
					}
				},
				{
					"sampler":1,
					"target":{
						"node":18,
						"path":"rotation"
					}
				},
				{
					"sampler":2,
					"target":{
						"node":18,
						"path":"scale"
					}
				},
				{
					"sampler":3,
					"target":{
						"node":11,
						"path":"translation"
					}
				},
				{
					"sampler":4,
					"target":{
						"node":11,
						"path":"rotation"
					}
				},
				{
					"sampler":5,
					"target":{
						"node":11,
						"path":"scale"
					}
				},
				{
					"sampler":6,
					"target":{
						"node":10,
						"path":"translation"
					}
				},
				{
					"sampler":7,
					"target":{
						"node":10,
						"path":"rotation"
					}
				},
				{
					"sampler":8,
					"target":{
						"node":10,
						"path":"scale"
					}
				},
				{
					"sampler":9,
					"target":{
						"node":2,
						"path":"translation"
					}
				},
				{
					"sampler":10,
					"target":{
						"node":2,
						"path":"rotation"
					}
				},
				{
					"sampler":11,
					"target":{
						"node":2,
						"path":"scale"
					}
				},
				{
					"sampler":12,
					"target":{
						"node":1,
						"path":"translation"
					}
				},
				{
					"sampler":13,
					"target":{
						"node":1,
						"path":"rotation"
					}
				},
				{
					"sampler":14,
					"target":{
						"node":1,
						"path":"scale"
					}
				},
				{
					"sampler":15,
					"target":{
						"node":0,
						"path":"translation"
					}
				},
				{
					"sampler":16,
					"target":{
						"node":0,
						"path":"rotation"
					}
				},
				{
					"sampler":17,
					"target":{
						"node":0,
						"path":"scale"
					}
				},
				{
					"sampler":18,
					"target":{
						"node":5,
						"path":"translation"
					}
				},
				{
					"sampler":19,
					"target":{
						"node":5,
						"path":"rotation"
					}
				},
				{
					"sampler":20,
					"target":{
						"node":5,
						"path":"scale"
					}
				},
				{
					"sampler":21,
					"target":{
						"node":4,
						"path":"translation"
					}
				},
				{
					"sampler":22,
					"target":{
						"node":4,
						"path":"rotation"
					}
				},
				{
					"sampler":23,
					"target":{
						"node":4,
						"path":"scale"
					}
				},
				{
					"sampler":24,
					"target":{
						"node":3,
						"path":"translation"
					}
				},
				{
					"sampler":25,
					"target":{
						"node":3,
						"path":"rotation"
					}
				},
				{
					"sampler":26,
					"target":{
						"node":3,
						"path":"scale"
					}
				},
				{
					"sampler":27,
					"target":{
						"node":9,
						"path":"translation"
					}
				},
				{
					"sampler":28,
					"target":{
						"node":9,
						"path":"rotation"
					}
				},
				{
					"sampler":29,
					"target":{
						"node":9,
						"path":"scale"
					}
				},
				{
					"sampler":30,
					"target":{
						"node":8,
						"path":"translation"
					}
				},
				{
					"sampler":31,
					"target":{
						"node":8,
						"path":"rotation"
					}
				},
				{
					"sampler":32,
					"target":{
						"node":8,
						"path":"scale"
					}
				},
				{
					"sampler":33,
					"target":{
						"node":7,
						"path":"translation"
					}
				},
				{
					"sampler":34,
					"target":{
						"node":7,
						"path":"rotation"
					}
				},
				{
					"sampler":35,
					"target":{
						"node":7,
						"path":"scale"
					}
				},
				{
					"sampler":36,
					"target":{
						"node":14,
						"path":"translation"
					}
				},
				{
					"sampler":37,
					"target":{
						"node":14,
						"path":"rotation"
					}
				},
				{
					"sampler":38,
					"target":{
						"node":14,
						"path":"scale"
					}
				},
				{
					"sampler":39,
					"target":{
						"node":13,
						"path":"translation"
					}
				},
				{
					"sampler":40,
					"target":{
						"node":13,
						"path":"rotation"
					}
				},
				{
					"sampler":41,
					"target":{
						"node":13,
						"path":"scale"
					}
				},
				{
					"sampler":42,
					"target":{
						"node":12,
						"path":"translation"
					}
				},
				{
					"sampler":43,
					"target":{
						"node":12,
						"path":"rotation"
					}
				},
				{
					"sampler":44,
					"target":{
						"node":12,
						"path":"scale"
					}
				},
				{
					"sampler":45,
					"target":{
						"node":17,
						"path":"translation"
					}
				},
				{
					"sampler":46,
					"target":{
						"node":17,
						"path":"rotation"
					}
				},
				{
					"sampler":47,
					"target":{
						"node":17,
						"path":"scale"
					}
				},
				{
					"sampler":48,
					"target":{
						"node":16,
						"path":"translation"
					}
				},
				{
					"sampler":49,
					"target":{
						"node":16,
						"path":"rotation"
					}
				},
				{
					"sampler":50,
					"target":{
						"node":16,
						"path":"scale"
					}
				},
				{
					"sampler":51,
					"target":{
						"node":15,
						"path":"translation"
					}
				},
				{
					"sampler":52,
					"target":{
						"node":15,
						"path":"rotation"
					}
				},
				{
					"sampler":53,
					"target":{
						"node":15,
						"path":"scale"
					}
				}
			],
			"name":"Laufen",
			"samplers":[
				{
					"input":11,
					"interpolation":"LINEAR",
					"output":81
				},
				{
					"input":11,
					"interpolation":"LINEAR",
					"output":82
				},
				{
					"input":13,
					"interpolation":"STEP",
					"output":15
				},
				{
					"input":13,
					"interpolation":"STEP",
					"output":16
				},
				{
					"input":13,
					"interpolation":"STEP",
					"output":83
				},
				{
					"input":13,
					"interpolation":"STEP",
					"output":15
				},
				{
					"input":13,
					"interpolation":"STEP",
					"output":84
				},
				{
					"input":11,
					"interpolation":"LINEAR",
					"output":85
				},
				{
					"input":13,
					"interpolation":"STEP",
					"output":15
				},
				{
					"input":13,
					"interpolation":"STEP",
					"output":86
				},
				{
					"input":13,
					"interpolation":"STEP",
					"output":14
				},
				{
					"input":13,
					"interpolation":"STEP",
					"output":15
				},
				{
					"input":13,
					"interpolation":"STEP",
					"output":87
				},
				{
					"input":11,
					"interpolation":"LINEAR",
					"output":88
				},
				{
					"input":13,
					"interpolation":"STEP",
					"output":89
				},
				{
					"input":13,
					"interpolation":"STEP",
					"output":90
				},
				{
					"input":11,
					"interpolation":"LINEAR",
					"output":91
				},
				{
					"input":13,
					"interpolation":"STEP",
					"output":92
				},
				{
					"input":13,
					"interpolation":"STEP",
					"output":93
				},
				{
					"input":11,
					"interpolation":"LINEAR",
					"output":94
				},
				{
					"input":13,
					"interpolation":"STEP",
					"output":95
				},
				{
					"input":13,
					"interpolation":"STEP",
					"output":96
				},
				{
					"input":13,
					"interpolation":"STEP",
					"output":97
				},
				{
					"input":13,
					"interpolation":"STEP",
					"output":98
				},
				{
					"input":13,
					"interpolation":"STEP",
					"output":99
				},
				{
					"input":13,
					"interpolation":"STEP",
					"output":100
				},
				{
					"input":13,
					"interpolation":"STEP",
					"output":101
				},
				{
					"input":13,
					"interpolation":"STEP",
					"output":102
				},
				{
					"input":11,
					"interpolation":"LINEAR",
					"output":103
				},
				{
					"input":13,
					"interpolation":"STEP",
					"output":95
				},
				{
					"input":13,
					"interpolation":"STEP",
					"output":104
				},
				{
					"input":13,
					"interpolation":"STEP",
					"output":105
				},
				{
					"input":13,
					"interpolation":"STEP",
					"output":98
				},
				{
					"input":13,
					"interpolation":"STEP",
					"output":106
				},
				{
					"input":13,
					"interpolation":"STEP",
					"output":107
				},
				{
					"input":13,
					"interpolation":"STEP",
					"output":108
				},
				{
					"input":13,
					"interpolation":"STEP",
					"output":42
				},
				{
					"input":11,
					"interpolation":"LINEAR",
					"output":109
				},
				{
					"input":13,
					"interpolation":"STEP",
					"output":15
				},
				{
					"input":13,
					"interpolation":"STEP",
					"output":110
				},
				{
					"input":11,
					"interpolation":"LINEAR",
					"output":111
				},
				{
					"input":13,
					"interpolation":"STEP",
					"output":46
				},
				{
					"input":13,
					"interpolation":"STEP",
					"output":112
				},
				{
					"input":11,
					"interpolation":"LINEAR",
					"output":113
				},
				{
					"input":13,
					"interpolation":"STEP",
					"output":49
				},
				{
					"input":13,
					"interpolation":"STEP",
					"output":50
				},
				{
					"input":11,
					"interpolation":"LINEAR",
					"output":114
				},
				{
					"input":13,
					"interpolation":"STEP",
					"output":15
				},
				{
					"input":13,
					"interpolation":"STEP",
					"output":115
				},
				{
					"input":11,
					"interpolation":"LINEAR",
					"output":116
				},
				{
					"input":13,
					"interpolation":"STEP",
					"output":46
				},
				{
					"input":13,
					"interpolation":"STEP",
					"output":117
				},
				{
					"input":11,
					"interpolation":"LINEAR",
					"output":118
				},
				{
					"input":13,
					"interpolation":"STEP",
					"output":89
				}
			]
		}
	],
	"materials":[
		{
			"doubleSided":true,
			"name":"Pikenier",
			"pbrMetallicRoughness":{
				"metallicFactor":0,
				"roughnessFactor":0.8500000238418579
			}
		}
	],
	"meshes":[
		{
			"name":"Koerper",
			"primitives":[
				{
					"attributes":{
						"POSITION":0,
						"NORMAL":1,
						"COLOR_0":2,
						"JOINTS_0":3,
						"WEIGHTS_0":4
					},
					"indices":5,
					"material":0
				}
			]
		},
		{
			"name":"Pike",
			"primitives":[
				{
					"attributes":{
						"POSITION":7,
						"NORMAL":8,
						"COLOR_0":9
					},
					"indices":10,
					"material":0
				}
			]
		}
	],
	"skins":[
		{
			"inverseBindMatrices":6,
			"joints":[
				18,
				11,
				10,
				2,
				1,
				0,
				5,
				4,
				3,
				9,
				8,
				7,
				14,
				13,
				12,
				17,
				16,
				15
			],
			"name":"PikenierSkelett"
		}
	],
	"accessors":[
		{
			"bufferView":0,
			"componentType":5126,
			"count":11292,
			"max":[
				0.4062485992908478,
				1.8805338144302368,
				0.2150000035762787
			],
			"min":[
				-0.4045730531215668,
				-0.0017054424388334155,
				-0.2150000035762787
			],
			"type":"VEC3"
		},
		{
			"bufferView":1,
			"componentType":5126,
			"count":11292,
			"type":"VEC3"
		},
		{
			"bufferView":2,
			"componentType":5126,
			"count":11292,
			"type":"VEC3"
		},
		{
			"bufferView":3,
			"componentType":5121,
			"count":11292,
			"type":"VEC4"
		},
		{
			"bufferView":4,
			"componentType":5126,
			"count":11292,
			"type":"VEC4"
		},
		{
			"bufferView":5,
			"componentType":5123,
			"count":62652,
			"type":"SCALAR"
		},
		{
			"bufferView":6,
			"componentType":5126,
			"count":18,
			"type":"MAT4"
		},
		{
			"bufferView":7,
			"componentType":5126,
			"count":171,
			"max":[
				-0.30800002813339233,
				2.869999885559082,
				0.04800000041723251
			],
			"min":[
				-0.3920000195503235,
				0.019999999552965164,
				-0.2199999988079071
			],
			"type":"VEC3"
		},
		{
			"bufferView":8,
			"componentType":5126,
			"count":171,
			"type":"VEC3"
		},
		{
			"bufferView":9,
			"componentType":5126,
			"count":171,
			"type":"VEC3"
		},
		{
			"bufferView":10,
			"componentType":5123,
			"count":774,
			"type":"SCALAR"
		},
		{
			"bufferView":11,
			"componentType":5126,
			"count":31,
			"max":[
				1
			],
			"min":[
				0
			],
			"type":"SCALAR"
		},
		{
			"bufferView":12,
			"componentType":5126,
			"count":31,
			"type":"VEC3"
		},
		{
			"bufferView":13,
			"componentType":5126,
			"count":2,
			"max":[
				1
			],
			"min":[
				0
			],
			"type":"SCALAR"
		},
		{
			"bufferView":14,
			"componentType":5126,
			"count":2,
			"type":"VEC4"
		},
		{
			"bufferView":15,
			"componentType":5126,
			"count":2,
			"type":"VEC3"
		},
		{
			"bufferView":16,
			"componentType":5126,
			"count":2,
			"type":"VEC3"
		},
		{
			"bufferView":17,
			"componentType":5126,
			"count":31,
			"type":"VEC4"
		},
		{
			"bufferView":18,
			"componentType":5126,
			"count":2,
			"type":"VEC3"
		},
		{
			"bufferView":19,
			"componentType":5126,
			"count":31,
			"type":"VEC4"
		},
		{
			"bufferView":20,
			"componentType":5126,
			"count":2,
			"type":"VEC3"
		},
		{
			"bufferView":21,
			"componentType":5126,
			"count":2,
			"type":"VEC3"
		},
		{
			"bufferView":22,
			"componentType":5126,
			"count":2,
			"type":"VEC3"
		},
		{
			"bufferView":23,
			"componentType":5126,
			"count":2,
			"type":"VEC4"
		},
		{
			"bufferView":24,
			"componentType":5126,
			"count":2,
			"type":"VEC3"
		},
		{
			"bufferView":25,
			"componentType":5126,
			"count":2,
			"type":"VEC3"
		},
		{
			"bufferView":26,
			"componentType":5126,
			"count":31,
			"type":"VEC4"
		},
		{
			"bufferView":27,
			"componentType":5126,
			"count":2,
			"type":"VEC3"
		},
		{
			"bufferView":28,
			"componentType":5126,
			"count":2,
			"type":"VEC3"
		},
		{
			"bufferView":29,
			"componentType":5126,
			"count":2,
			"type":"VEC4"
		},
		{
			"bufferView":30,
			"componentType":5126,
			"count":2,
			"type":"VEC3"
		},
		{
			"bufferView":31,
			"componentType":5126,
			"count":2,
			"type":"VEC4"
		},
		{
			"bufferView":32,
			"componentType":5126,
			"count":2,
			"type":"VEC3"
		},
		{
			"bufferView":33,
			"componentType":5126,
			"count":2,
			"type":"VEC3"
		},
		{
			"bufferView":34,
			"componentType":5126,
			"count":31,
			"type":"VEC4"
		},
		{
			"bufferView":35,
			"componentType":5126,
			"count":2,
			"type":"VEC3"
		},
		{
			"bufferView":36,
			"componentType":5126,
			"count":2,
			"type":"VEC3"
		},
		{
			"bufferView":37,
			"componentType":5126,
			"count":31,
			"type":"VEC4"
		},
		{
			"bufferView":38,
			"componentType":5126,
			"count":2,
			"type":"VEC3"
		},
		{
			"bufferView":39,
			"componentType":5126,
			"count":2,
			"type":"VEC3"
		},
		{
			"bufferView":40,
			"componentType":5126,
			"count":2,
			"type":"VEC4"
		},
		{
			"bufferView":41,
			"componentType":5126,
			"count":2,
			"type":"VEC3"
		},
		{
			"bufferView":42,
			"componentType":5126,
			"count":2,
			"type":"VEC3"
		},
		{
			"bufferView":43,
			"componentType":5126,
			"count":31,
			"type":"VEC4"
		},
		{
			"bufferView":44,
			"componentType":5126,
			"count":2,
			"type":"VEC3"
		},
		{
			"bufferView":45,
			"componentType":5126,
			"count":31,
			"type":"VEC4"
		},
		{
			"bufferView":46,
			"componentType":5126,
			"count":2,
			"type":"VEC3"
		},
		{
			"bufferView":47,
			"componentType":5126,
			"count":2,
			"type":"VEC3"
		},
		{
			"bufferView":48,
			"componentType":5126,
			"count":2,
			"type":"VEC4"
		},
		{
			"bufferView":49,
			"componentType":5126,
			"count":2,
			"type":"VEC3"
		},
		{
			"bufferView":50,
			"componentType":5126,
			"count":2,
			"type":"VEC3"
		},
		{
			"bufferView":51,
			"componentType":5126,
			"count":31,
			"type":"VEC4"
		},
		{
			"bufferView":52,
			"componentType":5126,
			"count":2,
			"type":"VEC3"
		},
		{
			"bufferView":53,
			"componentType":5126,
			"count":31,
			"type":"VEC4"
		},
		{
			"bufferView":54,
			"componentType":5126,
			"count":2,
			"type":"VEC3"
		},
		{
			"bufferView":55,
			"componentType":5126,
			"count":181,
			"max":[
				6
			],
			"min":[
				0
			],
			"type":"SCALAR"
		},
		{
			"bufferView":56,
			"componentType":5126,
			"count":181,
			"type":"VEC3"
		},
		{
			"bufferView":57,
			"componentType":5126,
			"count":2,
			"max":[
				6
			],
			"min":[
				0
			],
			"type":"SCALAR"
		},
		{
			"bufferView":58,
			"componentType":5126,
			"count":181,
			"type":"VEC4"
		},
		{
			"bufferView":59,
			"componentType":5126,
			"count":181,
			"type":"VEC4"
		},
		{
			"bufferView":60,
			"componentType":5126,
			"count":181,
			"type":"VEC4"
		},
		{
			"bufferView":61,
			"componentType":5126,
			"count":2,
			"type":"VEC3"
		},
		{
			"bufferView":62,
			"componentType":5126,
			"count":2,
			"type":"VEC4"
		},
		{
			"bufferView":63,
			"componentType":5126,
			"count":181,
			"type":"VEC4"
		},
		{
			"bufferView":64,
			"componentType":5126,
			"count":2,
			"type":"VEC3"
		},
		{
			"bufferView":65,
			"componentType":5126,
			"count":2,
			"type":"VEC4"
		},
		{
			"bufferView":66,
			"componentType":5126,
			"count":2,
			"type":"VEC3"
		},
		{
			"bufferView":67,
			"componentType":5126,
			"count":2,
			"type":"VEC3"
		},
		{
			"bufferView":68,
			"componentType":5126,
			"count":2,
			"type":"VEC4"
		},
		{
			"bufferView":69,
			"componentType":5126,
			"count":2,
			"type":"VEC3"
		},
		{
			"bufferView":70,
			"componentType":5126,
			"count":2,
			"type":"VEC4"
		},
		{
			"bufferView":71,
			"componentType":5126,
			"count":2,
			"type":"VEC3"
		},
		{
			"bufferView":72,
			"componentType":5126,
			"count":2,
			"type":"VEC4"
		},
		{
			"bufferView":73,
			"componentType":5126,
			"count":2,
			"type":"VEC3"
		},
		{
			"bufferView":74,
			"componentType":5126,
			"count":2,
			"type":"VEC4"
		},
		{
			"bufferView":75,
			"componentType":5126,
			"count":2,
			"type":"VEC3"
		},
		{
			"bufferView":76,
			"componentType":5126,
			"count":2,
			"type":"VEC4"
		},
		{
			"bufferView":77,
			"componentType":5126,
			"count":2,
			"type":"VEC4"
		},
		{
			"bufferView":78,
			"componentType":5126,
			"count":2,
			"type":"VEC3"
		},
		{
			"bufferView":79,
			"componentType":5126,
			"count":2,
			"type":"VEC4"
		},
		{
			"bufferView":80,
			"componentType":5126,
			"count":2,
			"type":"VEC3"
		},
		{
			"bufferView":81,
			"componentType":5126,
			"count":31,
			"type":"VEC3"
		},
		{
			"bufferView":82,
			"componentType":5126,
			"count":31,
			"type":"VEC4"
		},
		{
			"bufferView":83,
			"componentType":5126,
			"count":2,
			"type":"VEC4"
		},
		{
			"bufferView":84,
			"componentType":5126,
			"count":2,
			"type":"VEC3"
		},
		{
			"bufferView":85,
			"componentType":5126,
			"count":31,
			"type":"VEC4"
		},
		{
			"bufferView":86,
			"componentType":5126,
			"count":2,
			"type":"VEC3"
		},
		{
			"bufferView":87,
			"componentType":5126,
			"count":2,
			"type":"VEC3"
		},
		{
			"bufferView":88,
			"componentType":5126,
			"count":31,
			"type":"VEC4"
		},
		{
			"bufferView":89,
			"componentType":5126,
			"count":2,
			"type":"VEC3"
		},
		{
			"bufferView":90,
			"componentType":5126,
			"count":2,
			"type":"VEC3"
		},
		{
			"bufferView":91,
			"componentType":5126,
			"count":31,
			"type":"VEC4"
		},
		{
			"bufferView":92,
			"componentType":5126,
			"count":2,
			"type":"VEC3"
		},
		{
			"bufferView":93,
			"componentType":5126,
			"count":2,
			"type":"VEC3"
		},
		{
			"bufferView":94,
			"componentType":5126,
			"count":31,
			"type":"VEC4"
		},
		{
			"bufferView":95,
			"componentType":5126,
			"count":2,
			"type":"VEC3"
		},
		{
			"bufferView":96,
			"componentType":5126,
			"count":2,
			"type":"VEC3"
		},
		{
			"bufferView":97,
			"componentType":5126,
			"count":2,
			"type":"VEC4"
		},
		{
			"bufferView":98,
			"componentType":5126,
			"count":2,
			"type":"VEC3"
		},
		{
			"bufferView":99,
			"componentType":5126,
			"count":2,
			"type":"VEC3"
		},
		{
			"bufferView":100,
			"componentType":5126,
			"count":2,
			"type":"VEC4"
		},
		{
			"bufferView":101,
			"componentType":5126,
			"count":2,
			"type":"VEC3"
		},
		{
			"bufferView":102,
			"componentType":5126,
			"count":2,
			"type":"VEC3"
		},
		{
			"bufferView":103,
			"componentType":5126,
			"count":31,
			"type":"VEC4"
		},
		{
			"bufferView":104,
			"componentType":5126,
			"count":2,
			"type":"VEC3"
		},
		{
			"bufferView":105,
			"componentType":5126,
			"count":2,
			"type":"VEC4"
		},
		{
			"bufferView":106,
			"componentType":5126,
			"count":2,
			"type":"VEC3"
		},
		{
			"bufferView":107,
			"componentType":5126,
			"count":2,
			"type":"VEC4"
		},
		{
			"bufferView":108,
			"componentType":5126,
			"count":2,
			"type":"VEC3"
		},
		{
			"bufferView":109,
			"componentType":5126,
			"count":31,
			"type":"VEC4"
		},
		{
			"bufferView":110,
			"componentType":5126,
			"count":2,
			"type":"VEC3"
		},
		{
			"bufferView":111,
			"componentType":5126,
			"count":31,
			"type":"VEC4"
		},
		{
			"bufferView":112,
			"componentType":5126,
			"count":2,
			"type":"VEC3"
		},
		{
			"bufferView":113,
			"componentType":5126,
			"count":31,
			"type":"VEC4"
		},
		{
			"bufferView":114,
			"componentType":5126,
			"count":31,
			"type":"VEC4"
		},
		{
			"bufferView":115,
			"componentType":5126,
			"count":2,
			"type":"VEC3"
		},
		{
			"bufferView":116,
			"componentType":5126,
			"count":31,
			"type":"VEC4"
		},
		{
			"bufferView":117,
			"componentType":5126,
			"count":2,
			"type":"VEC3"
		},
		{
			"bufferView":118,
			"componentType":5126,
			"count":31,
			"type":"VEC4"
		}
	],
	"bufferViews":[
		{
			"buffer":0,
			"byteLength":135504,
			"byteOffset":0,
			"target":34962
		},
		{
			"buffer":0,
			"byteLength":135504,
			"byteOffset":135504,
			"target":34962
		},
		{
			"buffer":0,
			"byteLength":135504,
			"byteOffset":271008,
			"target":34962
		},
		{
			"buffer":0,
			"byteLength":45168,
			"byteOffset":406512,
			"target":34962
		},
		{
			"buffer":0,
			"byteLength":180672,
			"byteOffset":451680,
			"target":34962
		},
		{
			"buffer":0,
			"byteLength":125304,
			"byteOffset":632352,
			"target":34963
		},
		{
			"buffer":0,
			"byteLength":1152,
			"byteOffset":757656
		},
		{
			"buffer":0,
			"byteLength":2052,
			"byteOffset":758808,
			"target":34962
		},
		{
			"buffer":0,
			"byteLength":2052,
			"byteOffset":760860,
			"target":34962
		},
		{
			"buffer":0,
			"byteLength":2052,
			"byteOffset":762912,
			"target":34962
		},
		{
			"buffer":0,
			"byteLength":1548,
			"byteOffset":764964,
			"target":34963
		},
		{
			"buffer":0,
			"byteLength":124,
			"byteOffset":766512
		},
		{
			"buffer":0,
			"byteLength":372,
			"byteOffset":766636
		},
		{
			"buffer":0,
			"byteLength":8,
			"byteOffset":767008
		},
		{
			"buffer":0,
			"byteLength":32,
			"byteOffset":767016
		},
		{
			"buffer":0,
			"byteLength":24,
			"byteOffset":767048
		},
		{
			"buffer":0,
			"byteLength":24,
			"byteOffset":767072
		},
		{
			"buffer":0,
			"byteLength":496,
			"byteOffset":767096
		},
		{
			"buffer":0,
			"byteLength":24,
			"byteOffset":767592
		},
		{
			"buffer":0,
			"byteLength":496,
			"byteOffset":767616
		},
		{
			"buffer":0,
			"byteLength":24,
			"byteOffset":768112
		},
		{
			"buffer":0,
			"byteLength":24,
			"byteOffset":768136
		},
		{
			"buffer":0,
			"byteLength":24,
			"byteOffset":768160
		},
		{
			"buffer":0,
			"byteLength":32,
			"byteOffset":768184
		},
		{
			"buffer":0,
			"byteLength":24,
			"byteOffset":768216
		},
		{
			"buffer":0,
			"byteLength":24,
			"byteOffset":768240
		},
		{
			"buffer":0,
			"byteLength":496,
			"byteOffset":768264
		},
		{
			"buffer":0,
			"byteLength":24,
			"byteOffset":768760
		},
		{
			"buffer":0,
			"byteLength":24,
			"byteOffset":768784
		},
		{
			"buffer":0,
			"byteLength":32,
			"byteOffset":768808
		},
		{
			"buffer":0,
			"byteLength":24,
			"byteOffset":768840
		},
		{
			"buffer":0,
			"byteLength":32,
			"byteOffset":768864
		},
		{
			"buffer":0,
			"byteLength":24,
			"byteOffset":768896
		},
		{
			"buffer":0,
			"byteLength":24,
			"byteOffset":768920
		},
		{
			"buffer":0,
			"byteLength":496,
			"byteOffset":768944
		},
		{
			"buffer":0,
			"byteLength":24,
			"byteOffset":769440
		},
		{
			"buffer":0,
			"byteLength":24,
			"byteOffset":769464
		},
		{
			"buffer":0,
			"byteLength":496,
			"byteOffset":769488
		},
		{
			"buffer":0,
			"byteLength":24,
			"byteOffset":769984
		},
		{
			"buffer":0,
			"byteLength":24,
			"byteOffset":770008
		},
		{
			"buffer":0,
			"byteLength":32,
			"byteOffset":770032
		},
		{
			"buffer":0,
			"byteLength":24,
			"byteOffset":770064
		},
		{
			"buffer":0,
			"byteLength":24,
			"byteOffset":770088
		},
		{
			"buffer":0,
			"byteLength":496,
			"byteOffset":770112
		},
		{
			"buffer":0,
			"byteLength":24,
			"byteOffset":770608
		},
		{
			"buffer":0,
			"byteLength":496,
			"byteOffset":770632
		},
		{
			"buffer":0,
			"byteLength":24,
			"byteOffset":771128
		},
		{
			"buffer":0,
			"byteLength":24,
			"byteOffset":771152
		},
		{
			"buffer":0,
			"byteLength":32,
			"byteOffset":771176
		},
		{
			"buffer":0,
			"byteLength":24,
			"byteOffset":771208
		},
		{
			"buffer":0,
			"byteLength":24,
			"byteOffset":771232
		},
		{
			"buffer":0,
			"byteLength":496,
			"byteOffset":771256
		},
		{
			"buffer":0,
			"byteLength":24,
			"byteOffset":771752
		},
		{
			"buffer":0,
			"byteLength":496,
			"byteOffset":771776
		},
		{
			"buffer":0,
			"byteLength":24,
			"byteOffset":772272
		},
		{
			"buffer":0,
			"byteLength":724,
			"byteOffset":772296
		},
		{
			"buffer":0,
			"byteLength":2172,
			"byteOffset":773020
		},
		{
			"buffer":0,
			"byteLength":8,
			"byteOffset":775192
		},
		{
			"buffer":0,
			"byteLength":2896,
			"byteOffset":775200
		},
		{
			"buffer":0,
			"byteLength":2896,
			"byteOffset":778096
		},
		{
			"buffer":0,
			"byteLength":2896,
			"byteOffset":780992
		},
		{
			"buffer":0,
			"byteLength":24,
			"byteOffset":783888
		},
		{
			"buffer":0,
			"byteLength":32,
			"byteOffset":783912
		},
		{
			"buffer":0,
			"byteLength":2896,
			"byteOffset":783944
		},
		{
			"buffer":0,
			"byteLength":24,
			"byteOffset":786840
		},
		{
			"buffer":0,
			"byteLength":32,
			"byteOffset":786864
		},
		{
			"buffer":0,
			"byteLength":24,
			"byteOffset":786896
		},
		{
			"buffer":0,
			"byteLength":24,
			"byteOffset":786920
		},
		{
			"buffer":0,
			"byteLength":32,
			"byteOffset":786944
		},
		{
			"buffer":0,
			"byteLength":24,
			"byteOffset":786976
		},
		{
			"buffer":0,
			"byteLength":32,
			"byteOffset":787000
		},
		{
			"buffer":0,
			"byteLength":24,
			"byteOffset":787032
		},
		{
			"buffer":0,
			"byteLength":32,
			"byteOffset":787056
		},
		{
			"buffer":0,
			"byteLength":24,
			"byteOffset":787088
		},
		{
			"buffer":0,
			"byteLength":32,
			"byteOffset":787112
		},
		{
			"buffer":0,
			"byteLength":24,
			"byteOffset":787144
		},
		{
			"buffer":0,
			"byteLength":32,
			"byteOffset":787168
		},
		{
			"buffer":0,
			"byteLength":32,
			"byteOffset":787200
		},
		{
			"buffer":0,
			"byteLength":24,
			"byteOffset":787232
		},
		{
			"buffer":0,
			"byteLength":32,
			"byteOffset":787256
		},
		{
			"buffer":0,
			"byteLength":24,
			"byteOffset":787288
		},
		{
			"buffer":0,
			"byteLength":372,
			"byteOffset":787312
		},
		{
			"buffer":0,
			"byteLength":496,
			"byteOffset":787684
		},
		{
			"buffer":0,
			"byteLength":32,
			"byteOffset":788180
		},
		{
			"buffer":0,
			"byteLength":24,
			"byteOffset":788212
		},
		{
			"buffer":0,
			"byteLength":496,
			"byteOffset":788236
		},
		{
			"buffer":0,
			"byteLength":24,
			"byteOffset":788732
		},
		{
			"buffer":0,
			"byteLength":24,
			"byteOffset":788756
		},
		{
			"buffer":0,
			"byteLength":496,
			"byteOffset":788780
		},
		{
			"buffer":0,
			"byteLength":24,
			"byteOffset":789276
		},
		{
			"buffer":0,
			"byteLength":24,
			"byteOffset":789300
		},
		{
			"buffer":0,
			"byteLength":496,
			"byteOffset":789324
		},
		{
			"buffer":0,
			"byteLength":24,
			"byteOffset":789820
		},
		{
			"buffer":0,
			"byteLength":24,
			"byteOffset":789844
		},
		{
			"buffer":0,
			"byteLength":496,
			"byteOffset":789868
		},
		{
			"buffer":0,
			"byteLength":24,
			"byteOffset":790364
		},
		{
			"buffer":0,
			"byteLength":24,
			"byteOffset":790388
		},
		{
			"buffer":0,
			"byteLength":32,
			"byteOffset":790412
		},
		{
			"buffer":0,
			"byteLength":24,
			"byteOffset":790444
		},
		{
			"buffer":0,
			"byteLength":24,
			"byteOffset":790468
		},
		{
			"buffer":0,
			"byteLength":32,
			"byteOffset":790492
		},
		{
			"buffer":0,
			"byteLength":24,
			"byteOffset":790524
		},
		{
			"buffer":0,
			"byteLength":24,
			"byteOffset":790548
		},
		{
			"buffer":0,
			"byteLength":496,
			"byteOffset":790572
		},
		{
			"buffer":0,
			"byteLength":24,
			"byteOffset":791068
		},
		{
			"buffer":0,
			"byteLength":32,
			"byteOffset":791092
		},
		{
			"buffer":0,
			"byteLength":24,
			"byteOffset":791124
		},
		{
			"buffer":0,
			"byteLength":32,
			"byteOffset":791148
		},
		{
			"buffer":0,
			"byteLength":24,
			"byteOffset":791180
		},
		{
			"buffer":0,
			"byteLength":496,
			"byteOffset":791204
		},
		{
			"buffer":0,
			"byteLength":24,
			"byteOffset":791700
		},
		{
			"buffer":0,
			"byteLength":496,
			"byteOffset":791724
		},
		{
			"buffer":0,
			"byteLength":24,
			"byteOffset":792220
		},
		{
			"buffer":0,
			"byteLength":496,
			"byteOffset":792244
		},
		{
			"buffer":0,
			"byteLength":496,
			"byteOffset":792740
		},
		{
			"buffer":0,
			"byteLength":24,
			"byteOffset":793236
		},
		{
			"buffer":0,
			"byteLength":496,
			"byteOffset":793260
		},
		{
			"buffer":0,
			"byteLength":24,
			"byteOffset":793756
		},
		{
			"buffer":0,
			"byteLength":496,
			"byteOffset":793780
		}
	],
	"buffers":[
		{
			"byteLength":794276,
			"uri":"pikenier.bin"
		}
	]
}
