{
	"asset":{
		"generator":"Khronos glTF Blender I/O v5.2.40",
		"version":"2.0"
	},
	"scene":0,
	"scenes":[
		{
			"name":"Scene",
			"nodes":[
				19
			]
		}
	],
	"nodes":[
		{
			"name":"Hut",
			"rotation":[
				-0.49269899725914,
				1.4670467862742953e-07,
				-8.306282950343302e-08,
				0.8701998591423035
			],
			"scale":[
				1,
				0.9999998807907104,
				0.9999999403953552
			],
			"translation":[
				0,
				0.3700000047683716,
				-0.019999999552965164
			]
		},
		{
			"children":[
				0
			],
			"name":"Kopf",
			"translation":[
				0,
				0.019999980926513672,
				0
			]
		},
		{
			"children":[
				1
			],
			"name":"Hals",
			"translation":[
				0,
				0.10000002384185791,
				0
			]
		},
		{
			"name":"Hand.L",
			"rotation":[
				-0.018888140097260475,
				-0.018574710935354233,
				0.06031688302755356,
				0.9978276491165161
			],
			"scale":[
				1.0000001192092896,
				1,
				1.0000001192092896
			],
			"translation":[
				-2.257525899551638e-08,
				0.10862782597541809,
				-5.587935447692871e-09
			]
		},
		{
			"children":[
				3
			],
			"name":"Unterarm.L",
			"rotation":[
				-0.21612542867660522,
				-0.006300931330770254,
				0.10356628894805908,
				0.970836877822876
			],
			"scale":[
				1.0000001192092896,
				0.9999998807907104,
				0.9999999403953552
			],
			"translation":[
				-3.7252887441496796e-09,
				0.12688575685024261,
				1.862645149230957e-09
			]
		},
		{
			"children":[
				4
			],
			"name":"Oberarm.L",
			"rotation":[
				-0.9659602046012878,
				-0.24631409347057343,
				0.019534224644303322,
				0.07660716027021408
			],
			"scale":[
				1.0000003576278687,
				1,
				0.9999999403953552
			],
			"translation":[
				0.14000000059604645,
				0,
				0
			]
		},
		{
			"name":"Hand.R",
			"rotation":[
				-0.018888140097260475,
				0.018574710935354233,
				-0.06031688302755356,
				0.9978276491165161
			],
			"scale":[
				1.0000001192092896,
				1,
				1.0000001192092896
			],
			"translation":[
				2.257525899551638e-08,
				0.10862782597541809,
				-5.587935447692871e-09
			]
		},
		{
			"children":[
				6
			],
			"name":"Unterarm.R",
			"rotation":[
				-0.21612542867660522,
				0.006300931330770254,
				-0.10356628894805908,
				0.970836877822876
			],
			"scale":[
				1.0000001192092896,
				0.9999998807907104,
				0.9999999403953552
			],
			"translation":[
				3.7252887441496796e-09,
				0.12688575685024261,
				1.862645149230957e-09
			]
		},
		{
			"children":[
				7
			],
			"name":"Oberarm.R",
			"rotation":[
				-0.9659602046012878,
				0.24631409347057343,
				-0.019534224644303322,
				0.07660716027021408
			],
			"scale":[
				1.0000003576278687,
				1,
				0.9999999403953552
			],
			"translation":[
				-0.14000000059604645,
				0,
				0
			]
		},
		{
			"children":[
				2,
				5,
				8
			],
			"name":"Brust",
			"translation":[
				0,
				0.12000000476837158,
				0
			]
		},
		{
			"children":[
				9
			],
			"name":"Bauch",
			"translation":[
				0,
				0.07999998331069946,
				0
			]
		},
		{
			"name":"Fuss.L",
			"rotation":[
				-1.0421855733966368e-07,
				0.7602526545524597,
				-0.6496275067329407,
				2.3865578668846865e-07
			],
			"scale":[
				1,
				0.9999997615814209,
				1
			],
			"translation":[
				-3.386081193212931e-09,
				0.12165524810552597,
				5.652509571518749e-10
			]
		},
		{
			"children":[
				11
			],
			"name":"Unterschenkel.L",
			"rotation":[
				0.12046416103839874,
				0.0016996171325445175,
				0.03833824396133423,
				0.9919756650924683
			],
			"scale":[
				1,
				1,
				0.9999998211860657
			],
			"translation":[
				-6.75217659562577e-10,
				0.13076695799827576,
				1.862645149230957e-09
			]
		},
		{
			"children":[
				12
			],
			"name":"Oberschenkel.L",
			"rotation":[
				0.9985315799713135,
				0.03834844008088112,
				0.0014598168199881911,
				0.0382351353764534
			],
			"scale":[
				1.0000171661376953,
				1,
				1.0000170469284058
			],
			"translation":[
				0.07999999821186066,
				0,
				0
			]
		},
		{
			"name":"Fuss.R",
			"rotation":[
				-1.0897137059373563e-07,
				0.7602526545524597,
				-0.6496275663375854,
				2.3865541720624606e-07
			],
			"scale":[
				1,
				0.9999997019767761,
				0.9999999403953552
			],
			"translation":[
				-2.366778772966427e-09,
				0.12165524065494537,
				2.3439952201442793e-09
			]
		},
		{
			"children":[
				14
			],
			"name":"Unterschenkel.R",
			"rotation":[
				0.12046416848897934,
				-0.0016994694015011191,
				-0.03833822160959244,
				0.9919756650924683
			],
			"scale":[
				1.0000001192092896,
				1,
				0.9999999403953552
			],
			"translation":[
				6.75217659562577e-10,
				0.13076695799827576,
				1.862645149230957e-09
			]
		},
		{
			"children":[
				15
			],
			"name":"Oberschenkel.R",
			"rotation":[
				0.9985315799713135,
				-0.03834844008088112,
				-0.0014598168199881911,
				0.0382351353764534
			],
			"scale":[
				1.0000171661376953,
				1,
				1.0000170469284058
			],
			"translation":[
				-0.07999999821186066,
				0,
				0
			]
		},
		{
			"children":[
				10,
				13,
				16
			],
			"name":"Becken",
			"translation":[
				0,
				0.30000001192092896,
				0
			]
		},
		{
			"mesh":0,
			"name":"Pilzling",
			"skin":0
		},
		{
			"children":[
				18,
				17
			],
			"name":"PilzlingSkelett"
		}
	],
	"animations":[
		{
			"channels":[
				{
					"sampler":0,
					"target":{
						"node":17,
						"path":"translation"
					}
				},
				{
					"sampler":1,
					"target":{
						"node":17,
						"path":"rotation"
					}
				},
				{
					"sampler":2,
					"target":{
						"node":17,
						"path":"scale"
					}
				},
				{
					"sampler":3,
					"target":{
						"node":10,
						"path":"translation"
					}
				},
				{
					"sampler":4,
					"target":{
						"node":10,
						"path":"rotation"
					}
				},
				{
					"sampler":5,
					"target":{
						"node":10,
						"path":"scale"
					}
				},
				{
					"sampler":6,
					"target":{
						"node":9,
						"path":"translation"
					}
				},
				{
					"sampler":7,
					"target":{
						"node":9,
						"path":"rotation"
					}
				},
				{
					"sampler":8,
					"target":{
						"node":9,
						"path":"scale"
					}
				},
				{
					"sampler":9,
					"target":{
						"node":2,
						"path":"translation"
					}
				},
				{
					"sampler":10,
					"target":{
						"node":2,
						"path":"rotation"
					}
				},
				{
					"sampler":11,
					"target":{
						"node":2,
						"path":"scale"
					}
				},
				{
					"sampler":12,
					"target":{
						"node":1,
						"path":"translation"
					}
				},
				{
					"sampler":13,
					"target":{
						"node":1,
						"path":"rotation"
					}
				},
				{
					"sampler":14,
					"target":{
						"node":1,
						"path":"scale"
					}
				},
				{
					"sampler":15,
					"target":{
						"node":0,
						"path":"translation"
					}
				},
				{
					"sampler":16,
					"target":{
						"node":0,
						"path":"rotation"
					}
				},
				{
					"sampler":17,
					"target":{
						"node":0,
						"path":"scale"
					}
				},
				{
					"sampler":18,
					"target":{
						"node":5,
						"path":"translation"
					}
				},
				{
					"sampler":19,
					"target":{
						"node":5,
						"path":"rotation"
					}
				},
				{
					"sampler":20,
					"target":{
						"node":5,
						"path":"scale"
					}
				},
				{
					"sampler":21,
					"target":{
						"node":4,
						"path":"translation"
					}
				},
				{
					"sampler":22,
					"target":{
						"node":4,
						"path":"rotation"
					}
				},
				{
					"sampler":23,
					"target":{
						"node":4,
						"path":"scale"
					}
				},
				{
					"sampler":24,
					"target":{
						"node":3,
						"path":"translation"
					}
				},
				{
					"sampler":25,
					"target":{
						"node":3,
						"path":"rotation"
					}
				},
				{
					"sampler":26,
					"target":{
						"node":3,
						"path":"scale"
					}
				},
				{
					"sampler":27,
					"target":{
						"node":8,
						"path":"translation"
					}
				},
				{
					"sampler":28,
					"target":{
						"node":8,
						"path":"rotation"
					}
				},
				{
					"sampler":29,
					"target":{
						"node":8,
						"path":"scale"
					}
				},
				{
					"sampler":30,
					"target":{
						"node":7,
						"path":"translation"
					}
				},
				{
					"sampler":31,
					"target":{
						"node":7,
						"path":"rotation"
					}
				},
				{
					"sampler":32,
					"target":{
						"node":7,
						"path":"scale"
					}
				},
				{
					"sampler":33,
					"target":{
						"node":6,
						"path":"translation"
					}
				},
				{
					"sampler":34,
					"target":{
						"node":6,
						"path":"rotation"
					}
				},
				{
					"sampler":35,
					"target":{
						"node":6,
						"path":"scale"
					}
				},
				{
					"sampler":36,
					"target":{
						"node":13,
						"path":"translation"
					}
				},
				{
					"sampler":37,
					"target":{
						"node":13,
						"path":"rotation"
					}
				},
				{
					"sampler":38,
					"target":{
						"node":13,
						"path":"scale"
					}
				},
				{
					"sampler":39,
					"target":{
						"node":12,
						"path":"translation"
					}
				},
				{
					"sampler":40,
					"target":{
						"node":12,
						"path":"rotation"
					}
				},
				{
					"sampler":41,
					"target":{
						"node":12,
						"path":"scale"
					}
				},
				{
					"sampler":42,
					"target":{
						"node":11,
						"path":"translation"
					}
				},
				{
					"sampler":43,
					"target":{
						"node":11,
						"path":"rotation"
					}
				},
				{
					"sampler":44,
					"target":{
						"node":11,
						"path":"scale"
					}
				},
				{
					"sampler":45,
					"target":{
						"node":16,
						"path":"translation"
					}
				},
				{
					"sampler":46,
					"target":{
						"node":16,
						"path":"rotation"
					}
				},
				{
					"sampler":47,
					"target":{
						"node":16,
						"path":"scale"
					}
				},
				{
					"sampler":48,
					"target":{
						"node":15,
						"path":"translation"
					}
				},
				{
					"sampler":49,
					"target":{
						"node":15,
						"path":"rotation"
					}
				},
				{
					"sampler":50,
					"target":{
						"node":15,
						"path":"scale"
					}
				},
				{
					"sampler":51,
					"target":{
						"node":14,
						"path":"translation"
					}
				},
				{
					"sampler":52,
					"target":{
						"node":14,
						"path":"rotation"
					}
				},
				{
					"sampler":53,
					"target":{
						"node":14,
						"path":"scale"
					}
				}
			],
			"name":"Angriff",
			"samplers":[
				{
					"input":7,
					"interpolation":"LINEAR",
					"output":8
				},
				{
					"input":9,
					"interpolation":"STEP",
					"output":10
				},
				{
					"input":9,
					"interpolation":"STEP",
					"output":11
				},
				{
					"input":9,
					"interpolation":"STEP",
					"output":12
				},
				{
					"input":7,
					"interpolation":"LINEAR",
					"output":13
				},
				{
					"input":9,
					"interpolation":"STEP",
					"output":11
				},
				{
					"input":9,
					"interpolation":"STEP",
					"output":14
				},
				{
					"input":7,
					"interpolation":"LINEAR",
					"output":15
				},
				{
					"input":9,
					"interpolation":"STEP",
					"output":11
				},
				{
					"input":9,
					"interpolation":"STEP",
					"output":16
				},
				{
					"input":9,
					"interpolation":"STEP",
					"output":10
				},
				{
					"input":9,
					"interpolation":"STEP",
					"output":11
				},
				{
					"input":9,
					"interpolation":"STEP",
					"output":17
				},
				{
					"input":7,
					"interpolation":"LINEAR",
					"output":18
				},
				{
					"input":9,
					"interpolation":"STEP",
					"output":11
				},
				{
					"input":9,
					"interpolation":"STEP",
					"output":19
				},
				{
					"input":9,
					"interpolation":"STEP",
					"output":20
				},
				{
					"input":9,
					"interpolation":"STEP",
					"output":21
				},
				{
					"input":9,
					"interpolation":"STEP",
					"output":22
				},
				{
					"input":7,
					"interpolation":"LINEAR",
					"output":23
				},
				{
					"input":9,
					"interpolation":"STEP",
					"output":24
				},
				{
					"input":9,
					"interpolation":"STEP",
					"output":25
				},
				{
					"input":7,
					"interpolation":"LINEAR",
					"output":26
				},
				{
					"input":9,
					"interpolation":"STEP",
					"output":27
				},
				{
					"input":9,
					"interpolation":"STEP",
					"output":28
				},
				{
					"input":9,
					"interpolation":"STEP",
					"output":29
				},
				{
					"input":9,
					"interpolation":"STEP",
					"output":30
				},
				{
					"input":9,
					"interpolation":"STEP",
					"output":31
				},
				{
					"input":7,
					"interpolation":"LINEAR",
					"output":32
				},
				{
					"input":9,
					"interpolation":"STEP",
					"output":24
				},
				{
					"input":9,
					"interpolation":"STEP",
					"output":33
				},
				{
					"input":7,
					"interpolation":"LINEAR",
					"output":34
				},
				{
					"input":9,
					"interpolation":"STEP",
					"output":27
				},
				{
					"input":9,
					"interpolation":"STEP",
					"output":35
				},
				{
					"input":9,
					"interpolation":"STEP",
					"output":36
				},
				{
					"input":9,
					"interpolation":"STEP",
					"output":30
				},
				{
					"input":9,
					"interpolation":"STEP",
					"output":37
				},
				{
					"input":7,
					"interpolation":"LINEAR",
					"output":38
				},
				{
					"input":9,
					"interpolation":"STEP",
					"output":39
				},
				{
					"input":9,
					"interpolation":"STEP",
					"output":40
				},
				{
					"input":7,
					"interpolation":"LINEAR",
					"output":41
				},
				{
					"input":9,
					"interpolation":"STEP",
					"output":42
				},
				{
					"input":9,
					"interpolation":"STEP",
					"output":43
				},
				{
					"input":9,
					"interpolation":"STEP",
					"output":44
				},
				{
					"input":9,
					"interpolation":"STEP",
					"output":45
				},
				{
					"input":9,
					"interpolation":"STEP",
					"output":46
				},
				{
					"input":7,
					"interpolation":"LINEAR",
					"output":47
				},
				{
					"input":9,
					"interpolation":"STEP",
					"output":39
				},
				{
					"input":9,
					"interpolation":"STEP",
					"output":48
				},
				{
					"input":7,
					"interpolation":"LINEAR",
					"output":49
				},
				{
					"input":9,
					"interpolation":"STEP",
					"output":50
				},
				{
					"input":9,
					"interpolation":"STEP",
					"output":51
				},
				{
					"input":9,
					"interpolation":"STEP",
					"output":52
				},
				{
					"input":9,
					"interpolation":"STEP",
					"output":53
				}
			]
		},
		{
			"channels":[
				{
					"sampler":0,
					"target":{
						"node":17,
						"path":"translation"
					}
				},
				{
					"sampler":1,
					"target":{
						"node":17,
						"path":"rotation"
					}
				},
				{
					"sampler":2,
					"target":{
						"node":17,
						"path":"scale"
					}
				},
				{
					"sampler":3,
					"target":{
						"node":10,
						"path":"translation"
					}
				},
				{
					"sampler":4,
					"target":{
						"node":10,
						"path":"rotation"
					}
				},
				{
					"sampler":5,
					"target":{
						"node":10,
						"path":"scale"
					}
				},
				{
					"sampler":6,
					"target":{
						"node":9,
						"path":"translation"
					}
				},
				{
					"sampler":7,
					"target":{
						"node":9,
						"path":"rotation"
					}
				},
				{
					"sampler":8,
					"target":{
						"node":9,
						"path":"scale"
					}
				},
				{
					"sampler":9,
					"target":{
						"node":2,
						"path":"translation"
					}
				},
				{
					"sampler":10,
					"target":{
						"node":2,
						"path":"rotation"
					}
				},
				{
					"sampler":11,
					"target":{
						"node":2,
						"path":"scale"
					}
				},
				{
					"sampler":12,
					"target":{
						"node":1,
						"path":"translation"
					}
				},
				{
					"sampler":13,
					"target":{
						"node":1,
						"path":"rotation"
					}
				},
				{
					"sampler":14,
					"target":{
						"node":1,
						"path":"scale"
					}
				},
				{
					"sampler":15,
					"target":{
						"node":0,
						"path":"translation"
					}
				},
				{
					"sampler":16,
					"target":{
						"node":0,
						"path":"rotation"
					}
				},
				{
					"sampler":17,
					"target":{
						"node":0,
						"path":"scale"
					}
				},
				{
					"sampler":18,
					"target":{
						"node":5,
						"path":"translation"
					}
				},
				{
					"sampler":19,
					"target":{
						"node":5,
						"path":"rotation"
					}
				},
				{
					"sampler":20,
					"target":{
						"node":5,
						"path":"scale"
					}
				},
				{
					"sampler":21,
					"target":{
						"node":4,
						"path":"translation"
					}
				},
				{
					"sampler":22,
					"target":{
						"node":4,
						"path":"rotation"
					}
				},
				{
					"sampler":23,
					"target":{
						"node":4,
						"path":"scale"
					}
				},
				{
					"sampler":24,
					"target":{
						"node":3,
						"path":"translation"
					}
				},
				{
					"sampler":25,
					"target":{
						"node":3,
						"path":"rotation"
					}
				},
				{
					"sampler":26,
					"target":{
						"node":3,
						"path":"scale"
					}
				},
				{
					"sampler":27,
					"target":{
						"node":8,
						"path":"translation"
					}
				},
				{
					"sampler":28,
					"target":{
						"node":8,
						"path":"rotation"
					}
				},
				{
					"sampler":29,
					"target":{
						"node":8,
						"path":"scale"
					}
				},
				{
					"sampler":30,
					"target":{
						"node":7,
						"path":"translation"
					}
				},
				{
					"sampler":31,
					"target":{
						"node":7,
						"path":"rotation"
					}
				},
				{
					"sampler":32,
					"target":{
						"node":7,
						"path":"scale"
					}
				},
				{
					"sampler":33,
					"target":{
						"node":6,
						"path":"translation"
					}
				},
				{
					"sampler":34,
					"target":{
						"node":6,
						"path":"rotation"
					}
				},
				{
					"sampler":35,
					"target":{
						"node":6,
						"path":"scale"
					}
				},
				{
					"sampler":36,
					"target":{
						"node":13,
						"path":"translation"
					}
				},
				{
					"sampler":37,
					"target":{
						"node":13,
						"path":"rotation"
					}
				},
				{
					"sampler":38,
					"target":{
						"node":13,
						"path":"scale"
					}
				},
				{
					"sampler":39,
					"target":{
						"node":12,
						"path":"translation"
					}
				},
				{
					"sampler":40,
					"target":{
						"node":12,
						"path":"rotation"
					}
				},
				{
					"sampler":41,
					"target":{
						"node":12,
						"path":"scale"
					}
				},
				{
					"sampler":42,
					"target":{
						"node":11,
						"path":"translation"
					}
				},
				{
					"sampler":43,
					"target":{
						"node":11,
						"path":"rotation"
					}
				},
				{
					"sampler":44,
					"target":{
						"node":11,
						"path":"scale"
					}
				},
				{
					"sampler":45,
					"target":{
						"node":16,
						"path":"translation"
					}
				},
				{
					"sampler":46,
					"target":{
						"node":16,
						"path":"rotation"
					}
				},
				{
					"sampler":47,
					"target":{
						"node":16,
						"path":"scale"
					}
				},
				{
					"sampler":48,
					"target":{
						"node":15,
						"path":"translation"
					}
				},
				{
					"sampler":49,
					"target":{
						"node":15,
						"path":"rotation"
					}
				},
				{
					"sampler":50,
					"target":{
						"node":15,
						"path":"scale"
					}
				},
				{
					"sampler":51,
					"target":{
						"node":14,
						"path":"translation"
					}
				},
				{
					"sampler":52,
					"target":{
						"node":14,
						"path":"rotation"
					}
				},
				{
					"sampler":53,
					"target":{
						"node":14,
						"path":"scale"
					}
				}
			],
			"name":"Idle",
			"samplers":[
				{
					"input":54,
					"interpolation":"LINEAR",
					"output":55
				},
				{
					"input":56,
					"interpolation":"STEP",
					"output":10
				},
				{
					"input":56,
					"interpolation":"STEP",
					"output":11
				},
				{
					"input":56,
					"interpolation":"STEP",
					"output":12
				},
				{
					"input":54,
					"interpolation":"LINEAR",
					"output":57
				},
				{
					"input":56,
					"interpolation":"STEP",
					"output":11
				},
				{
					"input":56,
					"interpolation":"STEP",
					"output":14
				},
				{
					"input":54,
					"interpolation":"LINEAR",
					"output":58
				},
				{
					"input":56,
					"interpolation":"STEP",
					"output":11
				},
				{
					"input":56,
					"interpolation":"STEP",
					"output":16
				},
				{
					"input":56,
					"interpolation":"STEP",
					"output":10
				},
				{
					"input":56,
					"interpolation":"STEP",
					"output":11
				},
				{
					"input":56,
					"interpolation":"STEP",
					"output":17
				},
				{
					"input":54,
					"interpolation":"LINEAR",
					"output":59
				},
				{
					"input":56,
					"interpolation":"STEP",
					"output":11
				},
				{
					"input":56,
					"interpolation":"STEP",
					"output":60
				},
				{
					"input":56,
					"interpolation":"STEP",
					"output":61
				},
				{
					"input":56,
					"interpolation":"STEP",
					"output":21
				},
				{
					"input":56,
					"interpolation":"STEP",
					"output":22
				},
				{
					"input":54,
					"interpolation":"LINEAR",
					"output":62
				},
				{
					"input":56,
					"interpolation":"STEP",
					"output":63
				},
				{
					"input":56,
					"interpolation":"STEP",
					"output":64
				},
				{
					"input":56,
					"interpolation":"STEP",
					"output":65
				},
				{
					"input":56,
					"interpolation":"STEP",
					"output":66
				},
				{
					"input":56,
					"interpolation":"STEP",
					"output":67
				},
				{
					"input":56,
					"interpolation":"STEP",
					"output":68
				},
				{
					"input":56,
					"interpolation":"STEP",
					"output":69
				},
				{
					"input":56,
					"interpolation":"STEP",
					"output":31
				},
				{
					"input":56,
					"interpolation":"STEP",
					"output":70
				},
				{
					"input":56,
					"interpolation":"STEP",
					"output":63
				},
				{
					"input":56,
					"interpolation":"STEP",
					"output":71
				},
				{
					"input":56,
					"interpolation":"STEP",
					"output":72
				},
				{
					"input":56,
					"interpolation":"STEP",
					"output":66
				},
				{
					"input":56,
					"interpolation":"STEP",
					"output":73
				},
				{
					"input":56,
					"interpolation":"STEP",
					"output":74
				},
				{
					"input":56,
					"interpolation":"STEP",
					"output":69
				},
				{
					"input":56,
					"interpolation":"STEP",
					"output":37
				},
				{
					"input":56,
					"interpolation":"STEP",
					"output":75
				},
				{
					"input":56,
					"interpolation":"STEP",
					"output":39
				},
				{
					"input":56,
					"interpolation":"STEP",
					"output":40
				},
				{
					"input":56,
					"interpolation":"STEP",
					"output":76
				},
				{
					"input":56,
					"interpolation":"STEP",
					"output":42
				},
				{
					"input":56,
					"interpolation":"STEP",
					"output":43
				},
				{
					"input":56,
					"interpolation":"STEP",
					"output":44
				},
				{
					"input":56,
					"interpolation":"STEP",
					"output":45
				},
				{
					"input":56,
					"interpolation":"STEP",
					"output":46
				},
				{
					"input":56,
					"interpolation":"STEP",
					"output":77
				},
				{
					"input":56,
					"interpolation":"STEP",
					"output":39
				},
				{
					"input":56,
					"interpolation":"STEP",
					"output":48
				},
				{
					"input":56,
					"interpolation":"STEP",
					"output":78
				},
				{
					"input":56,
					"interpolation":"STEP",
					"output":50
				},
				{
					"input":56,
					"interpolation":"STEP",
					"output":51
				},
				{
					"input":56,
					"interpolation":"STEP",
					"output":52
				},
				{
					"input":56,
					"interpolation":"STEP",
					"output":53
				}
			]
		},
		{
			"channels":[
				{
					"sampler":0,
					"target":{
						"node":17,
						"path":"translation"
					}
				},
				{
					"sampler":1,
					"target":{
						"node":17,
						"path":"rotation"
					}
				},
				{
					"sampler":2,
					"target":{
						"node":17,
						"path":"scale"
					}
				},
				{
					"sampler":3,
					"target":{
						"node":10,
						"path":"translation"
					}
				},
				{
					"sampler":4,
					"target":{
						"node":10,
						"path":"rotation"
					}
				},
				{
					"sampler":5,
					"target":{
						"node":10,
						"path":"scale"
					}
				},
				{
					"sampler":6,
					"target":{
						"node":9,
						"path":"translation"
					}
				},
				{
					"sampler":7,
					"target":{
						"node":9,
						"path":"rotation"
					}
				},
				{
					"sampler":8,
					"target":{
						"node":9,
						"path":"scale"
					}
				},
				{
					"sampler":9,
					"target":{
						"node":2,
						"path":"translation"
					}
				},
				{
					"sampler":10,
					"target":{
						"node":2,
						"path":"rotation"
					}
				},
				{
					"sampler":11,
					"target":{
						"node":2,
						"path":"scale"
					}
				},
				{
					"sampler":12,
					"target":{
						"node":1,
						"path":"translation"
					}
				},
				{
					"sampler":13,
					"target":{
						"node":1,
						"path":"rotation"
					}
				},
				{
					"sampler":14,
					"target":{
						"node":1,
						"path":"scale"
					}
				},
				{
					"sampler":15,
					"target":{
						"node":0,
						"path":"translation"
					}
				},
				{
					"sampler":16,
					"target":{
						"node":0,
						"path":"rotation"
					}
				},
				{
					"sampler":17,
					"target":{
						"node":0,
						"path":"scale"
					}
				},
				{
					"sampler":18,
					"target":{
						"node":5,
						"path":"translation"
					}
				},
				{
					"sampler":19,
					"target":{
						"node":5,
						"path":"rotation"
					}
				},
				{
					"sampler":20,
					"target":{
						"node":5,
						"path":"scale"
					}
				},
				{
					"sampler":21,
					"target":{
						"node":4,
						"path":"translation"
					}
				},
				{
					"sampler":22,
					"target":{
						"node":4,
						"path":"rotation"
					}
				},
				{
					"sampler":23,
					"target":{
						"node":4,
						"path":"scale"
					}
				},
				{
					"sampler":24,
					"target":{
						"node":3,
						"path":"translation"
					}
				},
				{
					"sampler":25,
					"target":{
						"node":3,
						"path":"rotation"
					}
				},
				{
					"sampler":26,
					"target":{
						"node":3,
						"path":"scale"
					}
				},
				{
					"sampler":27,
					"target":{
						"node":8,
						"path":"translation"
					}
				},
				{
					"sampler":28,
					"target":{
						"node":8,
						"path":"rotation"
					}
				},
				{
					"sampler":29,
					"target":{
						"node":8,
						"path":"scale"
					}
				},
				{
					"sampler":30,
					"target":{
						"node":7,
						"path":"translation"
					}
				},
				{
					"sampler":31,
					"target":{
						"node":7,
						"path":"rotation"
					}
				},
				{
					"sampler":32,
					"target":{
						"node":7,
						"path":"scale"
					}
				},
				{
					"sampler":33,
					"target":{
						"node":6,
						"path":"translation"
					}
				},
				{
					"sampler":34,
					"target":{
						"node":6,
						"path":"rotation"
					}
				},
				{
					"sampler":35,
					"target":{
						"node":6,
						"path":"scale"
					}
				},
				{
					"sampler":36,
					"target":{
						"node":13,
						"path":"translation"
					}
				},
				{
					"sampler":37,
					"target":{
						"node":13,
						"path":"rotation"
					}
				},
				{
					"sampler":38,
					"target":{
						"node":13,
						"path":"scale"
					}
				},
				{
					"sampler":39,
					"target":{
						"node":12,
						"path":"translation"
					}
				},
				{
					"sampler":40,
					"target":{
						"node":12,
						"path":"rotation"
					}
				},
				{
					"sampler":41,
					"target":{
						"node":12,
						"path":"scale"
					}
				},
				{
					"sampler":42,
					"target":{
						"node":11,
						"path":"translation"
					}
				},
				{
					"sampler":43,
					"target":{
						"node":11,
						"path":"rotation"
					}
				},
				{
					"sampler":44,
					"target":{
						"node":11,
						"path":"scale"
					}
				},
				{
					"sampler":45,
					"target":{
						"node":16,
						"path":"translation"
					}
				},
				{
					"sampler":46,
					"target":{
						"node":16,
						"path":"rotation"
					}
				},
				{
					"sampler":47,
					"target":{
						"node":16,
						"path":"scale"
					}
				},
				{
					"sampler":48,
					"target":{
						"node":15,
						"path":"translation"
					}
				},
				{
					"sampler":49,
					"target":{
						"node":15,
						"path":"rotation"
					}
				},
				{
					"sampler":50,
					"target":{
						"node":15,
						"path":"scale"
					}
				},
				{
					"sampler":51,
					"target":{
						"node":14,
						"path":"translation"
					}
				},
				{
					"sampler":52,
					"target":{
						"node":14,
						"path":"rotation"
					}
				},
				{
					"sampler":53,
					"target":{
						"node":14,
						"path":"scale"
					}
				}
			],
			"name":"Laufen",
			"samplers":[
				{
					"input":79,
					"interpolation":"LINEAR",
					"output":80
				},
				{
					"input":79,
					"interpolation":"LINEAR",
					"output":81
				},
				{
					"input":82,
					"interpolation":"STEP",
					"output":11
				},
				{
					"input":82,
					"interpolation":"STEP",
					"output":12
				},
				{
					"input":82,
					"interpolation":"STEP",
					"output":83
				},
				{
					"input":82,
					"interpolation":"STEP",
					"output":11
				},
				{
					"input":82,
					"interpolation":"STEP",
					"output":84
				},
				{
					"input":79,
					"interpolation":"LINEAR",
					"output":85
				},
				{
					"input":82,
					"interpolation":"STEP",
					"output":11
				},
				{
					"input":82,
					"interpolation":"STEP",
					"output":16
				},
				{
					"input":82,
					"interpolation":"STEP",
					"output":86
				},
				{
					"input":82,
					"interpolation":"STEP",
					"output":87
				},
				{
					"input":82,
					"interpolation":"STEP",
					"output":88
				},
				{
					"input":79,
					"interpolation":"LINEAR",
					"output":89
				},
				{
					"input":82,
					"interpolation":"STEP",
					"output":87
				},
				{
					"input":82,
					"interpolation":"STEP",
					"output":90
				},
				{
					"input":79,
					"interpolation":"LINEAR",
					"output":91
				},
				{
					"input":82,
					"interpolation":"STEP",
					"output":21
				},
				{
					"input":82,
					"interpolation":"STEP",
					"output":92
				},
				{
					"input":79,
					"interpolation":"LINEAR",
					"output":93
				},
				{
					"input":82,
					"interpolation":"STEP",
					"output":94
				},
				{
					"input":82,
					"interpolation":"STEP",
					"output":95
				},
				{
					"input":82,
					"interpolation":"STEP",
					"output":96
				},
				{
					"input":82,
					"interpolation":"STEP",
					"output":97
				},
				{
					"input":82,
					"interpolation":"STEP",
					"output":98
				},
				{
					"input":82,
					"interpolation":"STEP",
					"output":99
				},
				{
					"input":82,
					"interpolation":"STEP",
					"output":69
				},
				{
					"input":82,
					"interpolation":"STEP",
					"output":100
				},
				{
					"input":79,
					"interpolation":"LINEAR",
					"output":101
				},
				{
					"input":82,
					"interpolation":"STEP",
					"output":94
				},
				{
					"input":82,
					"interpolation":"STEP",
					"output":102
				},
				{
					"input":82,
					"interpolation":"STEP",
					"output":103
				},
				{
					"input":82,
					"interpolation":"STEP",
					"output":97
				},
				{
					"input":82,
					"interpolation":"STEP",
					"output":104
				},
				{
					"input":82,
					"interpolation":"STEP",
					"output":105
				},
				{
					"input":82,
					"interpolation":"STEP",
					"output":69
				},
				{
					"input":82,
					"interpolation":"STEP",
					"output":106
				},
				{
					"input":79,
					"interpolation":"LINEAR",
					"output":107
				},
				{
					"input":82,
					"interpolation":"STEP",
					"output":39
				},
				{
					"input":82,
					"interpolation":"STEP",
					"output":108
				},
				{
					"input":79,
					"interpolation":"LINEAR",
					"output":109
				},
				{
					"input":82,
					"interpolation":"STEP",
					"output":97
				},
				{
					"input":82,
					"interpolation":"STEP",
					"output":110
				},
				{
					"input":79,
					"interpolation":"LINEAR",
					"output":111
				},
				{
					"input":82,
					"interpolation":"STEP",
					"output":112
				},
				{
					"input":82,
					"interpolation":"STEP",
					"output":113
				},
				{
					"input":79,
					"interpolation":"LINEAR",
					"output":114
				},
				{
					"input":82,
					"interpolation":"STEP",
					"output":39
				},
				{
					"input":82,
					"interpolation":"STEP",
					"output":115
				},
				{
					"input":79,
					"interpolation":"LINEAR",
					"output":116
				},
				{
					"input":82,
					"interpolation":"STEP",
					"output":117
				},
				{
					"input":82,
					"interpolation":"STEP",
					"output":118
				},
				{
					"input":79,
					"interpolation":"LINEAR",
					"output":119
				},
				{
					"input":82,
					"interpolation":"STEP",
					"output":120
				}
			]
		}
	],
	"materials":[
		{
			"doubleSided":true,
			"name":"Pilzling",
			"pbrMetallicRoughness":{
				"metallicFactor":0,
				"roughnessFactor":0.8500000238418579
			}
		}
	],
	"meshes":[
		{
			"name":"Stiel",
			"primitives":[
				{
					"attributes":{
						"POSITION":0,
						"NORMAL":1,
						"COLOR_0":2,
						"JOINTS_0":3,
						"WEIGHTS_0":4
					},
					"indices":5,
					"material":0
				}
			]
		}
	],
	"skins":[
		{
			"inverseBindMatrices":6,
			"joints":[
				17,
				10,
				9,
				2,
				1,
				0,
				5,
				4,
				3,
				8,
				7,
				6,
				13,
				12,
				11,
				16,
				15,
				14
			],
			"name":"PilzlingSkelett"
		}
	],
	"accessors":[
		{
			"bufferView":0,
			"componentType":5126,
			"count":16192,
			"max":[
				0.34268370270729065,
				0.9945142269134521,
				0.3331020772457123
			],
			"min":[
				-0.3433658480644226,
				-0.024918803945183754,
				-0.35398879647254944
			],
			"type":"VEC3"
		},
		{
			"bufferView":1,
			"componentType":5126,
			"count":16192,
			"type":"VEC3"
		},
		{
			"bufferView":2,
			"componentType":5126,
			"count":16192,
			"type":"VEC3"
		},
		{
			"bufferView":3,
			"componentType":5121,
			"count":16192,
			"type":"VEC4"
		},
		{
			"bufferView":4,
			"componentType":5126,
			"count":16192,
			"type":"VEC4"
		},
		{
			"bufferView":5,
			"componentType":5123,
			"count":77280,
			"type":"SCALAR"
		},
		{
			"bufferView":6,
			"componentType":5126,
			"count":18,
			"type":"MAT4"
		},
		{
			"bufferView":7,
			"componentType":5126,
			"count":37,
			"max":[
				1.2
			],
			"min":[
				0
			],
			"type":"SCALAR"
		},
		{
			"bufferView":8,
			"componentType":5126,
			"count":37,
			"type":"VEC3"
		},
		{
			"bufferView":9,
			"componentType":5126,
			"count":2,
			"max":[
				1.2
			],
			"min":[
				0
			],
			"type":"SCALAR"
		},
		{
			"bufferView":10,
			"componentType":5126,
			"count":2,
			"type":"VEC4"
		},
		{
			"bufferView":11,
			"componentType":5126,
			"count":2,
			"type":"VEC3"
		},
		{
			"bufferView":12,
			"componentType":5126,
			"count":2,
			"type":"VEC3"
		},
		{
			"bufferView":13,
			"componentType":5126,
			"count":37,
			"type":"VEC4"
		},
		{
			"bufferView":14,
			"componentType":5126,
			"count":2,
			"type":"VEC3"
		},
		{
			"bufferView":15,
			"componentType":5126,
			"count":37,
			"type":"VEC4"
		},
		{
			"bufferView":16,
			"componentType":5126,
			"count":2,
			"type":"VEC3"
		},
		{
			"bufferView":17,
			"componentType":5126,
			"count":2,
			"type":"VEC3"
		},
		{
			"bufferView":18,
			"componentType":5126,
			"count":37,
			"type":"VEC4"
		},
		{
			"bufferView":19,
			"componentType":5126,
			"count":2,
			"type":"VEC3"
		},
		{
			"bufferView":20,
			"componentType":5126,
			"count":2,
			"type":"VEC4"
		},
		{
			"bufferView":21,
			"componentType":5126,
			"count":2,
			"type":"VEC3"
		},
		{
			"bufferView":22,
			"componentType":5126,
			"count":2,
			"type":"VEC3"
		},
		{
			"bufferView":23,
			"componentType":5126,
			"count":37,
			"type":"VEC4"
		},
		{
			"bufferView":24,
			"componentType":5126,
			"count":2,
			"type":"VEC3"
		},
		{
			"bufferView":25,
			"componentType":5126,
			"count":2,
			"type":"VEC3"
		},
		{
			"bufferView":26,
			"componentType":5126,
			"count":37,
			"type":"VEC4"
		},
		{
			"bufferView":27,
			"componentType":5126,
			"count":2,
			"type":"VEC3"
		},
		{
			"bufferView":28,
			"componentType":5126,
			"count":2,
			"type":"VEC3"
		},
		{
			"bufferView":29,
			"componentType":5126,
			"count":2,
			"type":"VEC4"
		},
		{
			"bufferView":30,
			"componentType":5126,
			"count":2,
			"type":"VEC3"
		},
		{
			"bufferView":31,
			"componentType":5126,
			"count":2,
			"type":"VEC3"
		},
		{
			"bufferView":32,
			"componentType":5126,
			"count":37,
			"type":"VEC4"
		},
		{
			"bufferView":33,
			"componentType":5126,
			"count":2,
			"type":"VEC3"
		},
		{
			"bufferView":34,
			"componentType":5126,
			"count":37,
			"type":"VEC4"
		},
		{
			"bufferView":35,
			"componentType":5126,
			"count":2,
			"type":"VEC3"
		},
		{
			"bufferView":36,
			"componentType":5126,
			"count":2,
			"type":"VEC4"
		},
		{
			"bufferView":37,
			"componentType":5126,
			"count":2,
			"type":"VEC3"
		},
		{
			"bufferView":38,
			"componentType":5126,
			"count":37,
			"type":"VEC4"
		},
		{
			"bufferView":39,
			"componentType":5126,
			"count":2,
			"type":"VEC3"
		},
		{
			"bufferView":40,
			"componentType":5126,
			"count":2,
			"type":"VEC3"
		},
		{
			"bufferView":41,
			"componentType":5126,
			"count":37,
			"type":"VEC4"
		},
		{
			"bufferView":42,
			"componentType":5126,
			"count":2,
			"type":"VEC3"
		},
		{
			"bufferView":43,
			"componentType":5126,
			"count":2,
			"type":"VEC3"
		},
		{
			"bufferView":44,
			"componentType":5126,
			"count":2,
			"type":"VEC4"
		},
		{
			"bufferView":45,
			"componentType":5126,
			"count":2,
			"type":"VEC3"
		},
		{
			"bufferView":46,
			"componentType":5126,
			"count":2,
			"type":"VEC3"
		},
		{
			"bufferView":47,
			"componentType":5126,
			"count":37,
			"type":"VEC4"
		},
		{
			"bufferView":48,
			"componentType":5126,
			"count":2,
			"type":"VEC3"
		},
		{
			"bufferView":49,
			"componentType":5126,
			"count":37,
			"type":"VEC4"
		},
		{
			"bufferView":50,
			"componentType":5126,
			"count":2,
			"type":"VEC3"
		},
		{
			"bufferView":51,
			"componentType":5126,
			"count":2,
			"type":"VEC3"
		},
		{
			"bufferView":52,
			"componentType":5126,
			"count":2,
			"type":"VEC4"
		},
		{
			"bufferView":53,
			"componentType":5126,
			"count":2,
			"type":"VEC3"
		},
		{
			"bufferView":54,
			"componentType":5126,
			"count":181,
			"max":[
				6
			],
			"min":[
				0
			],
			"type":"SCALAR"
		},
		{
			"bufferView":55,
			"componentType":5126,
			"count":181,
			"type":"VEC3"
		},
		{
			"bufferView":56,
			"componentType":5126,
			"count":2,
			"max":[
				6
			],
			"min":[
				0
			],
			"type":"SCALAR"
		},
		{
			"bufferView":57,
			"componentType":5126,
			"count":181,
			"type":"VEC4"
		},
		{
			"bufferView":58,
			"componentType":5126,
			"count":181,
			"type":"VEC4"
		},
		{
			"bufferView":59,
			"componentType":5126,
			"count":181,
			"type":"VEC4"
		},
		{
			"bufferView":60,
			"componentType":5126,
			"count":2,
			"type":"VEC3"
		},
		{
			"bufferView":61,
			"componentType":5126,
			"count":2,
			"type":"VEC4"
		},
		{
			"bufferView":62,
			"componentType":5126,
			"count":181,
			"type":"VEC4"
		},
		{
			"bufferView":63,
			"componentType":5126,
			"count":2,
			"type":"VEC3"
		},
		{
			"bufferView":64,
			"componentType":5126,
			"count":2,
			"type":"VEC3"
		},
		{
			"bufferView":65,
			"componentType":5126,
			"count":2,
			"type":"VEC4"
		},
		{
			"bufferView":66,
			"componentType":5126,
			"count":2,
			"type":"VEC3"
		},
		{
			"bufferView":67,
			"componentType":5126,
			"count":2,
			"type":"VEC3"
		},
		{
			"bufferView":68,
			"componentType":5126,
			"count":2,
			"type":"VEC4"
		},
		{
			"bufferView":69,
			"componentType":5126,
			"count":2,
			"type":"VEC3"
		},
		{
			"bufferView":70,
			"componentType":5126,
			"count":2,
			"type":"VEC4"
		},
		{
			"bufferView":71,
			"componentType":5126,
			"count":2,
			"type":"VEC3"
		},
		{
			"bufferView":72,
			"componentType":5126,
			"count":2,
			"type":"VEC4"
		},
		{
			"bufferView":73,
			"componentType":5126,
			"count":2,
			"type":"VEC3"
		},
		{
			"bufferView":74,
			"componentType":5126,
			"count":2,
			"type":"VEC4"
		},
		{
			"bufferView":75,
			"componentType":5126,
			"count":2,
			"type":"VEC4"
		},
		{
			"bufferView":76,
			"componentType":5126,
			"count":2,
			"type":"VEC4"
		},
		{
			"bufferView":77,
			"componentType":5126,
			"count":2,
			"type":"VEC4"
		},
		{
			"bufferView":78,
			"componentType":5126,
			"count":2,
			"type":"VEC4"
		},
		{
			"bufferView":79,
			"componentType":5126,
			"count":31,
			"max":[
				1
			],
			"min":[
				0
			],
			"type":"SCALAR"
		},
		{
			"bufferView":80,
			"componentType":5126,
			"count":31,
			"type":"VEC3"
		},
		{
			"bufferView":81,
			"componentType":5126,
			"count":31,
			"type":"VEC4"
		},
		{
			"bufferView":82,
			"componentType":5126,
			"count":2,
			"max":[
				1
			],
			"min":[
				0
			],
			"type":"SCALAR"
		},
		{
			"bufferView":83,
			"componentType":5126,
			"count":2,
			"type":"VEC4"
		},
		{
			"bufferView":84,
			"componentType":5126,
			"count":2,
			"type":"VEC3"
		},
		{
			"bufferView":85,
			"componentType":5126,
			"count":31,
			"type":"VEC4"
		},
		{
			"bufferView":86,
			"componentType":5126,
			"count":2,
			"type":"VEC4"
		},
		{
			"bufferView":87,
			"componentType":5126,
			"count":2,
			"type":"VEC3"
		},
		{
			"bufferView":88,
			"componentType":5126,
			"count":2,
			"type":"VEC3"
		},
		{
			"bufferView":89,
			"componentType":5126,
			"count":31,
			"type":"VEC4"
		},
		{
			"bufferView":90,
			"componentType":5126,
			"count":2,
			"type":"VEC3"
		},
		{
			"bufferView":91,
			"componentType":5126,
			"count":31,
			"type":"VEC4"
		},
		{
			"bufferView":92,
			"componentType":5126,
			"count":2,
			"type":"VEC3"
		},
		{
			"bufferView":93,
			"componentType":5126,
			"count":31,
			"type":"VEC4"
		},
		{
			"bufferView":94,
			"componentType":5126,
			"count":2,
			"type":"VEC3"
		},
		{
			"bufferView":95,
			"componentType":5126,
			"count":2,
			"type":"VEC3"
		},
		{
			"bufferView":96,
			"componentType":5126,
			"count":2,
			"type":"VEC4"
		},
		{
			"bufferView":97,
			"componentType":5126,
			"count":2,
			"type":"VEC3"
		},
		{
			"bufferView":98,
			"componentType":5126,
			"count":2,
			"type":"VEC3"
		},
		{
			"bufferView":99,
			"componentType":5126,
			"count":2,
			"type":"VEC4"
		},
		{
			"bufferView":100,
			"componentType":5126,
			"count":2,
			"type":"VEC3"
		},
		{
			"bufferView":101,
			"componentType":5126,
			"count":31,
			"type":"VEC4"
		},
		{
			"bufferView":102,
			"componentType":5126,
			"count":2,
			"type":"VEC3"
		},
		{
			"bufferView":103,
			"componentType":5126,
			"count":2,
			"type":"VEC4"
		},
		{
			"bufferView":104,
			"componentType":5126,
			"count":2,
			"type":"VEC3"
		},
		{
			"bufferView":105,
			"componentType":5126,
			"count":2,
			"type":"VEC4"
		},
		{
			"bufferView":106,
			"componentType":5126,
			"count":2,
			"type":"VEC3"
		},
		{
			"bufferView":107,
			"componentType":5126,
			"count":31,
			"type":"VEC4"
		},
		{
			"bufferView":108,
			"componentType":5126,
			"count":2,
			"type":"VEC3"
		},
		{
			"bufferView":109,
			"componentType":5126,
			"count":31,
			"type":"VEC4"
		},
		{
			"bufferView":110,
			"componentType":5126,
			"count":2,
			"type":"VEC3"
		},
		{
			"bufferView":111,
			"componentType":5126,
			"count":31,
			"type":"VEC4"
		},
		{
			"bufferView":112,
			"componentType":5126,
			"count":2,
			"type":"VEC3"
		},
		{
			"bufferView":113,
			"componentType":5126,
			"count":2,
			"type":"VEC3"
		},
		{
			"bufferView":114,
			"componentType":5126,
			"count":31,
			"type":"VEC4"
		},
		{
			"bufferView":115,
			"componentType":5126,
			"count":2,
			"type":"VEC3"
		},
		{
			"bufferView":116,
			"componentType":5126,
			"count":31,
			"type":"VEC4"
		},
		{
			"bufferView":117,
			"componentType":5126,
			"count":2,
			"type":"VEC3"
		},
		{
			"bufferView":118,
			"componentType":5126,
			"count":2,
			"type":"VEC3"
		},
		{
			"bufferView":119,
			"componentType":5126,
			"count":31,
			"type":"VEC4"
		},
		{
			"bufferView":120,
			"componentType":5126,
			"count":2,
			"type":"VEC3"
		}
	],
	"bufferViews":[
		{
			"buffer":0,
			"byteLength":194304,
			"byteOffset":0,
			"target":34962
		},
		{
			"buffer":0,
			"byteLength":194304,
			"byteOffset":194304,
			"target":34962
		},
		{
			"buffer":0,
			"byteLength":194304,
			"byteOffset":388608,
			"target":34962
		},
		{
			"buffer":0,
			"byteLength":64768,
			"byteOffset":582912,
			"target":34962
		},
		{
			"buffer":0,
			"byteLength":259072,
			"byteOffset":647680,
			"target":34962
		},
		{
			"buffer":0,
			"byteLength":154560,
			"byteOffset":906752,
			"target":34963
		},
		{
			"buffer":0,
			"byteLength":1152,
			"byteOffset":1061312
		},
		{
			"buffer":0,
			"byteLength":148,
			"byteOffset":1062464
		},
		{
			"buffer":0,
			"byteLength":444,
			"byteOffset":1062612
		},
		{
			"buffer":0,
			"byteLength":8,
			"byteOffset":1063056
		},
		{
			"buffer":0,
			"byteLength":32,
			"byteOffset":1063064
		},
		{
			"buffer":0,
			"byteLength":24,
			"byteOffset":1063096
		},
		{
			"buffer":0,
			"byteLength":24,
			"byteOffset":1063120
		},
		{
			"buffer":0,
			"byteLength":592,
			"byteOffset":1063144
		},
		{
			"buffer":0,
			"byteLength":24,
			"byteOffset":1063736
		},
		{
			"buffer":0,
			"byteLength":592,
			"byteOffset":1063760
		},
		{
			"buffer":0,
			"byteLength":24,
			"byteOffset":1064352
		},
		{
			"buffer":0,
			"byteLength":24,
			"byteOffset":1064376
		},
		{
			"buffer":0,
			"byteLength":592,
			"byteOffset":1064400
		},
		{
			"buffer":0,
			"byteLength":24,
			"byteOffset":1064992
		},
		{
			"buffer":0,
			"byteLength":32,
			"byteOffset":1065016
		},
		{
			"buffer":0,
			"byteLength":24,
			"byteOffset":1065048
		},
		{
			"buffer":0,
			"byteLength":24,
			"byteOffset":1065072
		},
		{
			"buffer":0,
			"byteLength":592,
			"byteOffset":1065096
		},
		{
			"buffer":0,
			"byteLength":24,
			"byteOffset":1065688
		},
		{
			"buffer":0,
			"byteLength":24,
			"byteOffset":1065712
		},
		{
			"buffer":0,
			"byteLength":592,
			"byteOffset":1065736
		},
		{
			"buffer":0,
			"byteLength":24,
			"byteOffset":1066328
		},
		{
			"buffer":0,
			"byteLength":24,
			"byteOffset":1066352
		},
		{
			"buffer":0,
			"byteLength":32,
			"byteOffset":1066376
		},
		{
			"buffer":0,
			"byteLength":24,
			"byteOffset":1066408
		},
		{
			"buffer":0,
			"byteLength":24,
			"byteOffset":1066432
		},
		{
			"buffer":0,
			"byteLength":592,
			"byteOffset":1066456
		},
		{
			"buffer":0,
			"byteLength":24,
			"byteOffset":1067048
		},
		{
			"buffer":0,
			"byteLength":592,
			"byteOffset":1067072
		},
		{
			"buffer":0,
			"byteLength":24,
			"byteOffset":1067664
		},
		{
			"buffer":0,
			"byteLength":32,
			"byteOffset":1067688
		},
		{
			"buffer":0,
			"byteLength":24,
			"byteOffset":1067720
		},
		{
			"buffer":0,
			"byteLength":592,
			"byteOffset":1067744
		},
		{
			"buffer":0,
			"byteLength":24,
			"byteOffset":1068336
		},
		{
			"buffer":0,
			"byteLength":24,
			"byteOffset":1068360
		},
		{
			"buffer":0,
			"byteLength":592,
			"byteOffset":1068384
		},
		{
			"buffer":0,
			"byteLength":24,
			"byteOffset":1068976
		},
		{
			"buffer":0,
			"byteLength":24,
			"byteOffset":1069000
		},
		{
			"buffer":0,
			"byteLength":32,
			"byteOffset":1069024
		},
		{
			"buffer":0,
			"byteLength":24,
			"byteOffset":1069056
		},
		{
			"buffer":0,
			"byteLength":24,
			"byteOffset":1069080
		},
		{
			"buffer":0,
			"byteLength":592,
			"byteOffset":1069104
		},
		{
			"buffer":0,
			"byteLength":24,
			"byteOffset":1069696
		},
		{
			"buffer":0,
			"byteLength":592,
			"byteOffset":1069720
		},
		{
			"buffer":0,
			"byteLength":24,
			"byteOffset":1070312
		},
		{
			"buffer":0,
			"byteLength":24,
			"byteOffset":1070336
		},
		{
			"buffer":0,
			"byteLength":32,
			"byteOffset":1070360
		},
		{
			"buffer":0,
			"byteLength":24,
			"byteOffset":1070392
		},
		{
			"buffer":0,
			"byteLength":724,
			"byteOffset":1070416
		},
		{
			"buffer":0,
			"byteLength":2172,
			"byteOffset":1071140
		},
		{
			"buffer":0,
			"byteLength":8,
			"byteOffset":1073312
		},
		{
			"buffer":0,
			"byteLength":2896,
			"byteOffset":1073320
		},
		{
			"buffer":0,
			"byteLength":2896,
			"byteOffset":1076216
		},
		{
			"buffer":0,
			"byteLength":2896,
			"byteOffset":1079112
		},
		{
			"buffer":0,
			"byteLength":24,
			"byteOffset":1082008
		},
		{
			"buffer":0,
			"byteLength":32,
			"byteOffset":1082032
		},
		{
			"buffer":0,
			"byteLength":2896,
			"byteOffset":1082064
		},
		{
			"buffer":0,
			"byteLength":24,
			"byteOffset":1084960
		},
		{
			"buffer":0,
			"byteLength":24,
			"byteOffset":1084984
		},
		{
			"buffer":0,
			"byteLength":32,
			"byteOffset":1085008
		},
		{
			"buffer":0,
			"byteLength":24,
			"byteOffset":1085040
		},
		{
			"buffer":0,
			"byteLength":24,
			"byteOffset":1085064
		},
		{
			"buffer":0,
			"byteLength":32,
			"byteOffset":1085088
		},
		{
			"buffer":0,
			"byteLength":24,
			"byteOffset":1085120
		},
		{
			"buffer":0,
			"byteLength":32,
			"byteOffset":1085144
		},
		{
			"buffer":0,
			"byteLength":24,
			"byteOffset":1085176
		},
		{
			"buffer":0,
			"byteLength":32,
			"byteOffset":1085200
		},
		{
			"buffer":0,
			"byteLength":24,
			"byteOffset":1085232
		},
		{
			"buffer":0,
			"byteLength":32,
			"byteOffset":1085256
		},
		{
			"buffer":0,
			"byteLength":32,
			"byteOffset":1085288
		},
		{
			"buffer":0,
			"byteLength":32,
			"byteOffset":1085320
		},
		{
			"buffer":0,
			"byteLength":32,
			"byteOffset":1085352
		},
		{
			"buffer":0,
			"byteLength":32,
			"byteOffset":1085384
		},
		{
			"buffer":0,
			"byteLength":124,
			"byteOffset":1085416
		},
		{
			"buffer":0,
			"byteLength":372,
			"byteOffset":1085540
		},
		{
			"buffer":0,
			"byteLength":496,
			"byteOffset":1085912
		},
		{
			"buffer":0,
			"byteLength":8,
			"byteOffset":1086408
		},
		{
			"buffer":0,
			"byteLength":32,
			"byteOffset":1086416
		},
		{
			"buffer":0,
			"byteLength":24,
			"byteOffset":1086448
		},
		{
			"buffer":0,
			"byteLength":496,
			"byteOffset":1086472
		},
		{
			"buffer":0,
			"byteLength":32,
			"byteOffset":1086968
		},
		{
			"buffer":0,
			"byteLength":24,
			"byteOffset":1087000
		},
		{
			"buffer":0,
			"byteLength":24,
			"byteOffset":1087024
		},
		{
			"buffer":0,
			"byteLength":496,
			"byteOffset":1087048
		},
		{
			"buffer":0,
			"byteLength":24,
			"byteOffset":1087544
		},
		{
			"buffer":0,
			"byteLength":496,
			"byteOffset":1087568
		},
		{
			"buffer":0,
			"byteLength":24,
			"byteOffset":1088064
		},
		{
			"buffer":0,
			"byteLength":496,
			"byteOffset":1088088
		},
		{
			"buffer":0,
			"byteLength":24,
			"byteOffset":1088584
		},
		{
			"buffer":0,
			"byteLength":24,
			"byteOffset":1088608
		},
		{
			"buffer":0,
			"byteLength":32,
			"byteOffset":1088632
		},
		{
			"buffer":0,
			"byteLength":24,
			"byteOffset":1088664
		},
		{
			"buffer":0,
			"byteLength":24,
			"byteOffset":1088688
		},
		{
			"buffer":0,
			"byteLength":32,
			"byteOffset":1088712
		},
		{
			"buffer":0,
			"byteLength":24,
			"byteOffset":1088744
		},
		{
			"buffer":0,
			"byteLength":496,
			"byteOffset":1088768
		},
		{
			"buffer":0,
			"byteLength":24,
			"byteOffset":1089264
		},
		{
			"buffer":0,
			"byteLength":32,
			"byteOffset":1089288
		},
		{
			"buffer":0,
			"byteLength":24,
			"byteOffset":1089320
		},
		{
			"buffer":0,
			"byteLength":32,
			"byteOffset":1089344
		},
		{
			"buffer":0,
			"byteLength":24,
			"byteOffset":1089376
		},
		{
			"buffer":0,
			"byteLength":496,
			"byteOffset":1089400
		},
		{
			"buffer":0,
			"byteLength":24,
			"byteOffset":1089896
		},
		{
			"buffer":0,
			"byteLength":496,
			"byteOffset":1089920
		},
		{
			"buffer":0,
			"byteLength":24,
			"byteOffset":1090416
		},
		{
			"buffer":0,
			"byteLength":496,
			"byteOffset":1090440
		},
		{
			"buffer":0,
			"byteLength":24,
			"byteOffset":1090936
		},
		{
			"buffer":0,
			"byteLength":24,
			"byteOffset":1090960
		},
		{
			"buffer":0,
			"byteLength":496,
			"byteOffset":1090984
		},
		{
			"buffer":0,
			"byteLength":24,
			"byteOffset":1091480
		},
		{
			"buffer":0,
			"byteLength":496,
			"byteOffset":1091504
		},
		{
			"buffer":0,
			"byteLength":24,
			"byteOffset":1092000
		},
		{
			"buffer":0,
			"byteLength":24,
			"byteOffset":1092024
		},
		{
			"buffer":0,
			"byteLength":496,
			"byteOffset":1092048
		},
		{
			"buffer":0,
			"byteLength":24,
			"byteOffset":1092544
		}
	],
	"buffers":[
		{
			"byteLength":1092568,
			"uri":"pilzling.bin"
		}
	]
}
