{
	"asset":{
		"generator":"Khronos glTF Blender I/O v5.2.40",
		"version":"2.0"
	},
	"scene":0,
	"scenes":[
		{
			"name":"Scene",
			"nodes":[
				16
			]
		}
	],
	"nodes":[
		{
			"name":"Bein.HL.unten",
			"rotation":[
				0.3406601846218109,
				0.0026718126609921455,
				0.03791876509785652,
				0.9394177794456482
			],
			"scale":[
				0.9999999403953552,
				0.9999998807907104,
				0.9999999403953552
			],
			"translation":[
				-1.862598253410397e-08,
				1.0949387550354004,
				1.1548399925231934e-07
			]
		},
		{
			"children":[
				0
			],
			"name":"Bein.HL.oben",
			"rotation":[
				0.021944858133792877,
				-0.7783664464950562,
				0.6266584396362305,
				0.031038664281368256
			],
			"scale":[
				0.9999999403953552,
				0.9999997019767761,
				0.9999998211860657
			],
			"translation":[
				-0.8000000715255737,
				0.09356842935085297,
				-0.10604260116815567
			]
		},
		{
			"name":"Bein.HR.unten",
			"rotation":[
				0.34066012501716614,
				-0.002671696711331606,
				-0.037918757647275925,
				0.9394177198410034
			],
			"scale":[
				0.9999999403953552,
				1,
				1
			],
			"translation":[
				-2.9057659389764012e-08,
				1.0949387550354004,
				-9.499490261077881e-08
			]
		},
		{
			"children":[
				2
			],
			"name":"Bein.HR.oben",
			"rotation":[
				0.021944792941212654,
				0.7783664464950562,
				-0.6266584396362305,
				0.031038565561175346
			],
			"scale":[
				0.9999999403953552,
				0.9999995827674866,
				0.9999998211860657
			],
			"translation":[
				0.7999999523162842,
				0.09356842935085297,
				-0.10604283958673477
			]
		},
		{
			"name":"Bein.VL.unten",
			"rotation":[
				-0.2582688629627228,
				-0.005741964094340801,
				0.03631630167365074,
				0.965373158454895
			],
			"scale":[
				1,
				0.9999999403953552,
				1.0000001192092896
			],
			"translation":[
				-2.0116708299156016e-08,
				0.9578065872192383,
				-5.122274160385132e-09
			]
		},
		{
			"children":[
				4
			],
			"name":"Bein.VL.oben",
			"rotation":[
				0.026541033759713173,
				-0.645226001739502,
				0.7631065249443054,
				0.025444576516747475
			],
			"scale":[
				1,
				0.9999997615814209,
				0.9999998807907104
			],
			"translation":[
				-0.7500000596046448,
				2.8818769454956055,
				-0.38050591945648193
			]
		},
		{
			"name":"Bein.VR.unten",
			"rotation":[
				-0.25826892256736755,
				0.005742224864661694,
				-0.0363163948059082,
				0.965373158454895
			],
			"scale":[
				1,
				1.0000001192092896,
				1
			],
			"translation":[
				-5.66240530019968e-08,
				0.9578063488006592,
				9.499490261077881e-08
			]
		},
		{
			"children":[
				6
			],
			"name":"Bein.VR.oben",
			"rotation":[
				0.02654092200100422,
				0.645226001739502,
				-0.7631065249443054,
				0.025444503873586655
			],
			"scale":[
				0.9999999403953552,
				1.0000003576278687,
				1
			],
			"translation":[
				0.7499999403953552,
				2.8818767070770264,
				-0.38050615787506104
			]
		},
		{
			"name":"Fluegel.L",
			"rotation":[
				0.0876770168542862,
				0.1499093770980835,
				0.7467011213302612,
				0.6420882940292358
			],
			"scale":[
				0.9999999403953552,
				1,
				0.9999999403953552
			],
			"translation":[
				-0.5499998927116394,
				2.647958755493164,
				0.6861585378646851
			]
		},
		{
			"name":"Fluegel.R",
			"rotation":[
				0.08767688274383545,
				-0.14990931749343872,
				-0.7467011213302612,
				0.6420882940292358
			],
			"scale":[
				0.9999998807907104,
				1,
				1
			],
			"translation":[
				0.5500001311302185,
				2.647958755493164,
				0.6861584186553955
			]
		},
		{
			"name":"Kopf",
			"rotation":[
				-0.3826824426651001,
				6.975091082495055e-08,
				2.889189332222486e-08,
				0.9238799214363098
			],
			"scale":[
				1,
				1,
				0.9999999403953552
			],
			"translation":[
				4.4856554180707636e-14,
				2.6870009899139404,
				-8.940696716308594e-08
			]
		},
		{
			"children":[
				10
			],
			"name":"Hals",
			"rotation":[
				0.35366711020469666,
				9.875281338110262e-14,
				-5.340240605278268e-08,
				0.9353713393211365
			],
			"scale":[
				1,
				0.9999999403953552,
				1
			],
			"translation":[
				1.7763568394002505e-15,
				3.2062437534332275,
				-5.21540641784668e-08
			]
		},
		{
			"name":"Schwanz2",
			"rotation":[
				-0.01984190195798874,
				2.9796451528341095e-08,
				-5.913379785837947e-10,
				0.9998031854629517
			],
			"translation":[
				0,
				2.074246406555176,
				0
			]
		},
		{
			"children":[
				12
			],
			"name":"Schwanz1",
			"rotation":[
				7.509852650855464e-08,
				-0.10279161483049393,
				0.9947028756141663,
				7.760479370233497e-09
			],
			"scale":[
				1,
				1.0000001192092896,
				1.000003695487976
			],
			"translation":[
				-1.1302597080486976e-08,
				-0.40545785427093506,
				-0.07485344260931015
			]
		},
		{
			"children":[
				1,
				3,
				5,
				7,
				8,
				9,
				11,
				13
			],
			"name":"Koerper",
			"rotation":[
				5.1693234581762226e-08,
				0.7288272976875305,
				0.6846976280212402,
				5.502493394260455e-08
			],
			"scale":[
				1,
				1.0000001192092896,
				1.000003695487976
			],
			"translation":[
				0,
				2.0999999046325684,
				-1.600000023841858
			]
		},
		{
			"mesh":0,
			"name":"Schattendrache",
			"skin":0
		},
		{
			"children":[
				15,
				14
			],
			"name":"SchattendracheSkelett"
		}
	],
	"animations":[
		{
			"channels":[
				{
					"sampler":0,
					"target":{
						"node":14,
						"path":"translation"
					}
				},
				{
					"sampler":1,
					"target":{
						"node":14,
						"path":"rotation"
					}
				},
				{
					"sampler":2,
					"target":{
						"node":14,
						"path":"scale"
					}
				},
				{
					"sampler":3,
					"target":{
						"node":1,
						"path":"translation"
					}
				},
				{
					"sampler":4,
					"target":{
						"node":1,
						"path":"rotation"
					}
				},
				{
					"sampler":5,
					"target":{
						"node":1,
						"path":"scale"
					}
				},
				{
					"sampler":6,
					"target":{
						"node":0,
						"path":"translation"
					}
				},
				{
					"sampler":7,
					"target":{
						"node":0,
						"path":"rotation"
					}
				},
				{
					"sampler":8,
					"target":{
						"node":0,
						"path":"scale"
					}
				},
				{
					"sampler":9,
					"target":{
						"node":3,
						"path":"translation"
					}
				},
				{
					"sampler":10,
					"target":{
						"node":3,
						"path":"rotation"
					}
				},
				{
					"sampler":11,
					"target":{
						"node":3,
						"path":"scale"
					}
				},
				{
					"sampler":12,
					"target":{
						"node":2,
						"path":"translation"
					}
				},
				{
					"sampler":13,
					"target":{
						"node":2,
						"path":"rotation"
					}
				},
				{
					"sampler":14,
					"target":{
						"node":2,
						"path":"scale"
					}
				},
				{
					"sampler":15,
					"target":{
						"node":5,
						"path":"translation"
					}
				},
				{
					"sampler":16,
					"target":{
						"node":5,
						"path":"rotation"
					}
				},
				{
					"sampler":17,
					"target":{
						"node":5,
						"path":"scale"
					}
				},
				{
					"sampler":18,
					"target":{
						"node":4,
						"path":"translation"
					}
				},
				{
					"sampler":19,
					"target":{
						"node":4,
						"path":"rotation"
					}
				},
				{
					"sampler":20,
					"target":{
						"node":4,
						"path":"scale"
					}
				},
				{
					"sampler":21,
					"target":{
						"node":7,
						"path":"translation"
					}
				},
				{
					"sampler":22,
					"target":{
						"node":7,
						"path":"rotation"
					}
				},
				{
					"sampler":23,
					"target":{
						"node":7,
						"path":"scale"
					}
				},
				{
					"sampler":24,
					"target":{
						"node":6,
						"path":"translation"
					}
				},
				{
					"sampler":25,
					"target":{
						"node":6,
						"path":"rotation"
					}
				},
				{
					"sampler":26,
					"target":{
						"node":6,
						"path":"scale"
					}
				},
				{
					"sampler":27,
					"target":{
						"node":8,
						"path":"translation"
					}
				},
				{
					"sampler":28,
					"target":{
						"node":8,
						"path":"rotation"
					}
				},
				{
					"sampler":29,
					"target":{
						"node":8,
						"path":"scale"
					}
				},
				{
					"sampler":30,
					"target":{
						"node":9,
						"path":"translation"
					}
				},
				{
					"sampler":31,
					"target":{
						"node":9,
						"path":"rotation"
					}
				},
				{
					"sampler":32,
					"target":{
						"node":9,
						"path":"scale"
					}
				},
				{
					"sampler":33,
					"target":{
						"node":11,
						"path":"translation"
					}
				},
				{
					"sampler":34,
					"target":{
						"node":11,
						"path":"rotation"
					}
				},
				{
					"sampler":35,
					"target":{
						"node":11,
						"path":"scale"
					}
				},
				{
					"sampler":36,
					"target":{
						"node":10,
						"path":"translation"
					}
				},
				{
					"sampler":37,
					"target":{
						"node":10,
						"path":"rotation"
					}
				},
				{
					"sampler":38,
					"target":{
						"node":10,
						"path":"scale"
					}
				},
				{
					"sampler":39,
					"target":{
						"node":13,
						"path":"translation"
					}
				},
				{
					"sampler":40,
					"target":{
						"node":13,
						"path":"rotation"
					}
				},
				{
					"sampler":41,
					"target":{
						"node":13,
						"path":"scale"
					}
				},
				{
					"sampler":42,
					"target":{
						"node":12,
						"path":"translation"
					}
				},
				{
					"sampler":43,
					"target":{
						"node":12,
						"path":"rotation"
					}
				},
				{
					"sampler":44,
					"target":{
						"node":12,
						"path":"scale"
					}
				}
			],
			"name":"Angriff",
			"samplers":[
				{
					"input":7,
					"interpolation":"LINEAR",
					"output":8
				},
				{
					"input":9,
					"interpolation":"STEP",
					"output":10
				},
				{
					"input":9,
					"interpolation":"STEP",
					"output":11
				},
				{
					"input":9,
					"interpolation":"STEP",
					"output":12
				},
				{
					"input":9,
					"interpolation":"STEP",
					"output":13
				},
				{
					"input":9,
					"interpolation":"STEP",
					"output":14
				},
				{
					"input":9,
					"interpolation":"STEP",
					"output":15
				},
				{
					"input":9,
					"interpolation":"STEP",
					"output":16
				},
				{
					"input":9,
					"interpolation":"STEP",
					"output":17
				},
				{
					"input":9,
					"interpolation":"STEP",
					"output":18
				},
				{
					"input":9,
					"interpolation":"STEP",
					"output":19
				},
				{
					"input":9,
					"interpolation":"STEP",
					"output":20
				},
				{
					"input":9,
					"interpolation":"STEP",
					"output":21
				},
				{
					"input":9,
					"interpolation":"STEP",
					"output":22
				},
				{
					"input":9,
					"interpolation":"STEP",
					"output":23
				},
				{
					"input":9,
					"interpolation":"STEP",
					"output":24
				},
				{
					"input":9,
					"interpolation":"STEP",
					"output":25
				},
				{
					"input":9,
					"interpolation":"STEP",
					"output":26
				},
				{
					"input":9,
					"interpolation":"STEP",
					"output":27
				},
				{
					"input":9,
					"interpolation":"STEP",
					"output":28
				},
				{
					"input":9,
					"interpolation":"STEP",
					"output":29
				},
				{
					"input":9,
					"interpolation":"STEP",
					"output":30
				},
				{
					"input":9,
					"interpolation":"STEP",
					"output":31
				},
				{
					"input":9,
					"interpolation":"STEP",
					"output":32
				},
				{
					"input":9,
					"interpolation":"STEP",
					"output":33
				},
				{
					"input":9,
					"interpolation":"STEP",
					"output":34
				},
				{
					"input":9,
					"interpolation":"STEP",
					"output":35
				},
				{
					"input":9,
					"interpolation":"STEP",
					"output":36
				},
				{
					"input":7,
					"interpolation":"LINEAR",
					"output":37
				},
				{
					"input":9,
					"interpolation":"STEP",
					"output":38
				},
				{
					"input":9,
					"interpolation":"STEP",
					"output":39
				},
				{
					"input":7,
					"interpolation":"LINEAR",
					"output":40
				},
				{
					"input":9,
					"interpolation":"STEP",
					"output":38
				},
				{
					"input":9,
					"interpolation":"STEP",
					"output":41
				},
				{
					"input":7,
					"interpolation":"LINEAR",
					"output":42
				},
				{
					"input":9,
					"interpolation":"STEP",
					"output":43
				},
				{
					"input":9,
					"interpolation":"STEP",
					"output":44
				},
				{
					"input":7,
					"interpolation":"LINEAR",
					"output":45
				},
				{
					"input":9,
					"interpolation":"STEP",
					"output":46
				},
				{
					"input":9,
					"interpolation":"STEP",
					"output":47
				},
				{
					"input":9,
					"interpolation":"STEP",
					"output":48
				},
				{
					"input":9,
					"interpolation":"STEP",
					"output":49
				},
				{
					"input":9,
					"interpolation":"STEP",
					"output":50
				},
				{
					"input":9,
					"interpolation":"STEP",
					"output":51
				},
				{
					"input":9,
					"interpolation":"STEP",
					"output":35
				}
			]
		},
		{
			"channels":[
				{
					"sampler":0,
					"target":{
						"node":14,
						"path":"translation"
					}
				},
				{
					"sampler":1,
					"target":{
						"node":14,
						"path":"rotation"
					}
				},
				{
					"sampler":2,
					"target":{
						"node":14,
						"path":"scale"
					}
				},
				{
					"sampler":3,
					"target":{
						"node":1,
						"path":"translation"
					}
				},
				{
					"sampler":4,
					"target":{
						"node":1,
						"path":"rotation"
					}
				},
				{
					"sampler":5,
					"target":{
						"node":1,
						"path":"scale"
					}
				},
				{
					"sampler":6,
					"target":{
						"node":0,
						"path":"translation"
					}
				},
				{
					"sampler":7,
					"target":{
						"node":0,
						"path":"rotation"
					}
				},
				{
					"sampler":8,
					"target":{
						"node":0,
						"path":"scale"
					}
				},
				{
					"sampler":9,
					"target":{
						"node":3,
						"path":"translation"
					}
				},
				{
					"sampler":10,
					"target":{
						"node":3,
						"path":"rotation"
					}
				},
				{
					"sampler":11,
					"target":{
						"node":3,
						"path":"scale"
					}
				},
				{
					"sampler":12,
					"target":{
						"node":2,
						"path":"translation"
					}
				},
				{
					"sampler":13,
					"target":{
						"node":2,
						"path":"rotation"
					}
				},
				{
					"sampler":14,
					"target":{
						"node":2,
						"path":"scale"
					}
				},
				{
					"sampler":15,
					"target":{
						"node":5,
						"path":"translation"
					}
				},
				{
					"sampler":16,
					"target":{
						"node":5,
						"path":"rotation"
					}
				},
				{
					"sampler":17,
					"target":{
						"node":5,
						"path":"scale"
					}
				},
				{
					"sampler":18,
					"target":{
						"node":4,
						"path":"translation"
					}
				},
				{
					"sampler":19,
					"target":{
						"node":4,
						"path":"rotation"
					}
				},
				{
					"sampler":20,
					"target":{
						"node":4,
						"path":"scale"
					}
				},
				{
					"sampler":21,
					"target":{
						"node":7,
						"path":"translation"
					}
				},
				{
					"sampler":22,
					"target":{
						"node":7,
						"path":"rotation"
					}
				},
				{
					"sampler":23,
					"target":{
						"node":7,
						"path":"scale"
					}
				},
				{
					"sampler":24,
					"target":{
						"node":6,
						"path":"translation"
					}
				},
				{
					"sampler":25,
					"target":{
						"node":6,
						"path":"rotation"
					}
				},
				{
					"sampler":26,
					"target":{
						"node":6,
						"path":"scale"
					}
				},
				{
					"sampler":27,
					"target":{
						"node":8,
						"path":"translation"
					}
				},
				{
					"sampler":28,
					"target":{
						"node":8,
						"path":"rotation"
					}
				},
				{
					"sampler":29,
					"target":{
						"node":8,
						"path":"scale"
					}
				},
				{
					"sampler":30,
					"target":{
						"node":9,
						"path":"translation"
					}
				},
				{
					"sampler":31,
					"target":{
						"node":9,
						"path":"rotation"
					}
				},
				{
					"sampler":32,
					"target":{
						"node":9,
						"path":"scale"
					}
				},
				{
					"sampler":33,
					"target":{
						"node":11,
						"path":"translation"
					}
				},
				{
					"sampler":34,
					"target":{
						"node":11,
						"path":"rotation"
					}
				},
				{
					"sampler":35,
					"target":{
						"node":11,
						"path":"scale"
					}
				},
				{
					"sampler":36,
					"target":{
						"node":10,
						"path":"translation"
					}
				},
				{
					"sampler":37,
					"target":{
						"node":10,
						"path":"rotation"
					}
				},
				{
					"sampler":38,
					"target":{
						"node":10,
						"path":"scale"
					}
				},
				{
					"sampler":39,
					"target":{
						"node":13,
						"path":"translation"
					}
				},
				{
					"sampler":40,
					"target":{
						"node":13,
						"path":"rotation"
					}
				},
				{
					"sampler":41,
					"target":{
						"node":13,
						"path":"scale"
					}
				},
				{
					"sampler":42,
					"target":{
						"node":12,
						"path":"translation"
					}
				},
				{
					"sampler":43,
					"target":{
						"node":12,
						"path":"rotation"
					}
				},
				{
					"sampler":44,
					"target":{
						"node":12,
						"path":"scale"
					}
				}
			],
			"name":"Idle",
			"samplers":[
				{
					"input":52,
					"interpolation":"LINEAR",
					"output":53
				},
				{
					"input":54,
					"interpolation":"STEP",
					"output":10
				},
				{
					"input":54,
					"interpolation":"STEP",
					"output":11
				},
				{
					"input":54,
					"interpolation":"STEP",
					"output":12
				},
				{
					"input":54,
					"interpolation":"STEP",
					"output":13
				},
				{
					"input":54,
					"interpolation":"STEP",
					"output":14
				},
				{
					"input":54,
					"interpolation":"STEP",
					"output":15
				},
				{
					"input":54,
					"interpolation":"STEP",
					"output":16
				},
				{
					"input":54,
					"interpolation":"STEP",
					"output":17
				},
				{
					"input":54,
					"interpolation":"STEP",
					"output":18
				},
				{
					"input":54,
					"interpolation":"STEP",
					"output":19
				},
				{
					"input":54,
					"interpolation":"STEP",
					"output":20
				},
				{
					"input":54,
					"interpolation":"STEP",
					"output":21
				},
				{
					"input":54,
					"interpolation":"STEP",
					"output":22
				},
				{
					"input":54,
					"interpolation":"STEP",
					"output":23
				},
				{
					"input":54,
					"interpolation":"STEP",
					"output":24
				},
				{
					"input":54,
					"interpolation":"STEP",
					"output":25
				},
				{
					"input":54,
					"interpolation":"STEP",
					"output":26
				},
				{
					"input":54,
					"interpolation":"STEP",
					"output":27
				},
				{
					"input":54,
					"interpolation":"STEP",
					"output":28
				},
				{
					"input":54,
					"interpolation":"STEP",
					"output":29
				},
				{
					"input":54,
					"interpolation":"STEP",
					"output":30
				},
				{
					"input":54,
					"interpolation":"STEP",
					"output":31
				},
				{
					"input":54,
					"interpolation":"STEP",
					"output":32
				},
				{
					"input":54,
					"interpolation":"STEP",
					"output":33
				},
				{
					"input":54,
					"interpolation":"STEP",
					"output":34
				},
				{
					"input":54,
					"interpolation":"STEP",
					"output":35
				},
				{
					"input":54,
					"interpolation":"STEP",
					"output":36
				},
				{
					"input":52,
					"interpolation":"LINEAR",
					"output":55
				},
				{
					"input":54,
					"interpolation":"STEP",
					"output":38
				},
				{
					"input":54,
					"interpolation":"STEP",
					"output":39
				},
				{
					"input":52,
					"interpolation":"LINEAR",
					"output":56
				},
				{
					"input":54,
					"interpolation":"STEP",
					"output":57
				},
				{
					"input":54,
					"interpolation":"STEP",
					"output":41
				},
				{
					"input":52,
					"interpolation":"LINEAR",
					"output":58
				},
				{
					"input":54,
					"interpolation":"STEP",
					"output":59
				},
				{
					"input":54,
					"interpolation":"STEP",
					"output":60
				},
				{
					"input":52,
					"interpolation":"LINEAR",
					"output":61
				},
				{
					"input":54,
					"interpolation":"STEP",
					"output":46
				},
				{
					"input":54,
					"interpolation":"STEP",
					"output":47
				},
				{
					"input":52,
					"interpolation":"LINEAR",
					"output":62
				},
				{
					"input":54,
					"interpolation":"STEP",
					"output":49
				},
				{
					"input":54,
					"interpolation":"STEP",
					"output":63
				},
				{
					"input":52,
					"interpolation":"LINEAR",
					"output":64
				},
				{
					"input":54,
					"interpolation":"STEP",
					"output":35
				}
			]
		},
		{
			"channels":[
				{
					"sampler":0,
					"target":{
						"node":14,
						"path":"translation"
					}
				},
				{
					"sampler":1,
					"target":{
						"node":14,
						"path":"rotation"
					}
				},
				{
					"sampler":2,
					"target":{
						"node":14,
						"path":"scale"
					}
				},
				{
					"sampler":3,
					"target":{
						"node":1,
						"path":"translation"
					}
				},
				{
					"sampler":4,
					"target":{
						"node":1,
						"path":"rotation"
					}
				},
				{
					"sampler":5,
					"target":{
						"node":1,
						"path":"scale"
					}
				},
				{
					"sampler":6,
					"target":{
						"node":0,
						"path":"translation"
					}
				},
				{
					"sampler":7,
					"target":{
						"node":0,
						"path":"rotation"
					}
				},
				{
					"sampler":8,
					"target":{
						"node":0,
						"path":"scale"
					}
				},
				{
					"sampler":9,
					"target":{
						"node":3,
						"path":"translation"
					}
				},
				{
					"sampler":10,
					"target":{
						"node":3,
						"path":"rotation"
					}
				},
				{
					"sampler":11,
					"target":{
						"node":3,
						"path":"scale"
					}
				},
				{
					"sampler":12,
					"target":{
						"node":2,
						"path":"translation"
					}
				},
				{
					"sampler":13,
					"target":{
						"node":2,
						"path":"rotation"
					}
				},
				{
					"sampler":14,
					"target":{
						"node":2,
						"path":"scale"
					}
				},
				{
					"sampler":15,
					"target":{
						"node":5,
						"path":"translation"
					}
				},
				{
					"sampler":16,
					"target":{
						"node":5,
						"path":"rotation"
					}
				},
				{
					"sampler":17,
					"target":{
						"node":5,
						"path":"scale"
					}
				},
				{
					"sampler":18,
					"target":{
						"node":4,
						"path":"translation"
					}
				},
				{
					"sampler":19,
					"target":{
						"node":4,
						"path":"rotation"
					}
				},
				{
					"sampler":20,
					"target":{
						"node":4,
						"path":"scale"
					}
				},
				{
					"sampler":21,
					"target":{
						"node":7,
						"path":"translation"
					}
				},
				{
					"sampler":22,
					"target":{
						"node":7,
						"path":"rotation"
					}
				},
				{
					"sampler":23,
					"target":{
						"node":7,
						"path":"scale"
					}
				},
				{
					"sampler":24,
					"target":{
						"node":6,
						"path":"translation"
					}
				},
				{
					"sampler":25,
					"target":{
						"node":6,
						"path":"rotation"
					}
				},
				{
					"sampler":26,
					"target":{
						"node":6,
						"path":"scale"
					}
				},
				{
					"sampler":27,
					"target":{
						"node":8,
						"path":"translation"
					}
				},
				{
					"sampler":28,
					"target":{
						"node":8,
						"path":"rotation"
					}
				},
				{
					"sampler":29,
					"target":{
						"node":8,
						"path":"scale"
					}
				},
				{
					"sampler":30,
					"target":{
						"node":9,
						"path":"translation"
					}
				},
				{
					"sampler":31,
					"target":{
						"node":9,
						"path":"rotation"
					}
				},
				{
					"sampler":32,
					"target":{
						"node":9,
						"path":"scale"
					}
				},
				{
					"sampler":33,
					"target":{
						"node":11,
						"path":"translation"
					}
				},
				{
					"sampler":34,
					"target":{
						"node":11,
						"path":"rotation"
					}
				},
				{
					"sampler":35,
					"target":{
						"node":11,
						"path":"scale"
					}
				},
				{
					"sampler":36,
					"target":{
						"node":10,
						"path":"translation"
					}
				},
				{
					"sampler":37,
					"target":{
						"node":10,
						"path":"rotation"
					}
				},
				{
					"sampler":38,
					"target":{
						"node":10,
						"path":"scale"
					}
				},
				{
					"sampler":39,
					"target":{
						"node":13,
						"path":"translation"
					}
				},
				{
					"sampler":40,
					"target":{
						"node":13,
						"path":"rotation"
					}
				},
				{
					"sampler":41,
					"target":{
						"node":13,
						"path":"scale"
					}
				},
				{
					"sampler":42,
					"target":{
						"node":12,
						"path":"translation"
					}
				},
				{
					"sampler":43,
					"target":{
						"node":12,
						"path":"rotation"
					}
				},
				{
					"sampler":44,
					"target":{
						"node":12,
						"path":"scale"
					}
				}
			],
			"name":"Laufen",
			"samplers":[
				{
					"input":7,
					"interpolation":"LINEAR",
					"output":65
				},
				{
					"input":9,
					"interpolation":"STEP",
					"output":10
				},
				{
					"input":9,
					"interpolation":"STEP",
					"output":11
				},
				{
					"input":9,
					"interpolation":"STEP",
					"output":12
				},
				{
					"input":7,
					"interpolation":"LINEAR",
					"output":66
				},
				{
					"input":9,
					"interpolation":"STEP",
					"output":67
				},
				{
					"input":9,
					"interpolation":"STEP",
					"output":68
				},
				{
					"input":7,
					"interpolation":"LINEAR",
					"output":69
				},
				{
					"input":9,
					"interpolation":"STEP",
					"output":70
				},
				{
					"input":9,
					"interpolation":"STEP",
					"output":18
				},
				{
					"input":7,
					"interpolation":"LINEAR",
					"output":71
				},
				{
					"input":9,
					"interpolation":"STEP",
					"output":20
				},
				{
					"input":9,
					"interpolation":"STEP",
					"output":72
				},
				{
					"input":7,
					"interpolation":"LINEAR",
					"output":73
				},
				{
					"input":9,
					"interpolation":"STEP",
					"output":74
				},
				{
					"input":9,
					"interpolation":"STEP",
					"output":24
				},
				{
					"input":7,
					"interpolation":"LINEAR",
					"output":75
				},
				{
					"input":9,
					"interpolation":"STEP",
					"output":26
				},
				{
					"input":9,
					"interpolation":"STEP",
					"output":76
				},
				{
					"input":7,
					"interpolation":"LINEAR",
					"output":77
				},
				{
					"input":9,
					"interpolation":"STEP",
					"output":78
				},
				{
					"input":9,
					"interpolation":"STEP",
					"output":30
				},
				{
					"input":7,
					"interpolation":"LINEAR",
					"output":79
				},
				{
					"input":9,
					"interpolation":"STEP",
					"output":80
				},
				{
					"input":9,
					"interpolation":"STEP",
					"output":81
				},
				{
					"input":7,
					"interpolation":"LINEAR",
					"output":82
				},
				{
					"input":9,
					"interpolation":"STEP",
					"output":70
				},
				{
					"input":9,
					"interpolation":"STEP",
					"output":36
				},
				{
					"input":7,
					"interpolation":"LINEAR",
					"output":83
				},
				{
					"input":9,
					"interpolation":"STEP",
					"output":84
				},
				{
					"input":9,
					"interpolation":"STEP",
					"output":39
				},
				{
					"input":7,
					"interpolation":"LINEAR",
					"output":85
				},
				{
					"input":9,
					"interpolation":"STEP",
					"output":86
				},
				{
					"input":9,
					"interpolation":"STEP",
					"output":41
				},
				{
					"input":7,
					"interpolation":"LINEAR",
					"output":87
				},
				{
					"input":9,
					"interpolation":"STEP",
					"output":43
				},
				{
					"input":9,
					"interpolation":"STEP",
					"output":44
				},
				{
					"input":7,
					"interpolation":"LINEAR",
					"output":88
				},
				{
					"input":9,
					"interpolation":"STEP",
					"output":46
				},
				{
					"input":9,
					"interpolation":"STEP",
					"output":47
				},
				{
					"input":7,
					"interpolation":"LINEAR",
					"output":89
				},
				{
					"input":9,
					"interpolation":"STEP",
					"output":49
				},
				{
					"input":9,
					"interpolation":"STEP",
					"output":90
				},
				{
					"input":7,
					"interpolation":"LINEAR",
					"output":91
				},
				{
					"input":9,
					"interpolation":"STEP",
					"output":92
				}
			]
		}
	],
	"materials":[
		{
			"doubleSided":true,
			"name":"Schattendrache",
			"pbrMetallicRoughness":{
				"metallicFactor":0,
				"roughnessFactor":0.8999999761581421
			}
		}
	],
	"meshes":[
		{
			"name":"Schattendrache",
			"primitives":[
				{
					"attributes":{
						"POSITION":0,
						"NORMAL":1,
						"COLOR_0":2,
						"JOINTS_0":3,
						"WEIGHTS_0":4
					},
					"indices":5,
					"material":0
				}
			]
		}
	],
	"skins":[
		{
			"inverseBindMatrices":6,
			"joints":[
				14,
				1,
				0,
				3,
				2,
				5,
				4,
				7,
				6,
				8,
				9,
				11,
				10,
				13,
				12
			],
			"name":"SchattendracheSkelett"
		}
	],
	"accessors":[
		{
			"bufferView":0,
			"componentType":5126,
			"count":8042,
			"max":[
				5.360838413238525,
				5.063047885894775,
				5.098598480224609
			],
			"min":[
				-5.360838413238525,
				0,
				-6.4230570793151855
			],
			"type":"VEC3"
		},
		{
			"bufferView":1,
			"componentType":5126,
			"count":8042,
			"type":"VEC3"
		},
		{
			"bufferView":2,
			"componentType":5126,
			"count":8042,
			"type":"VEC3"
		},
		{
			"bufferView":3,
			"componentType":5121,
			"count":8042,
			"type":"VEC4"
		},
		{
			"bufferView":4,
			"componentType":5126,
			"count":8042,
			"type":"VEC4"
		},
		{
			"bufferView":5,
			"componentType":5123,
			"count":43368,
			"type":"SCALAR"
		},
		{
			"bufferView":6,
			"componentType":5126,
			"count":15,
			"type":"MAT4"
		},
		{
			"bufferView":7,
			"componentType":5126,
			"count":41,
			"max":[
				1.3333333333333333
			],
			"min":[
				0
			],
			"type":"SCALAR"
		},
		{
			"bufferView":8,
			"componentType":5126,
			"count":41,
			"type":"VEC3"
		},
		{
			"bufferView":9,
			"componentType":5126,
			"count":2,
			"max":[
				1.3333333333333333
			],
			"min":[
				0
			],
			"type":"SCALAR"
		},
		{
			"bufferView":10,
			"componentType":5126,
			"count":2,
			"type":"VEC4"
		},
		{
			"bufferView":11,
			"componentType":5126,
			"count":2,
			"type":"VEC3"
		},
		{
			"bufferView":12,
			"componentType":5126,
			"count":2,
			"type":"VEC3"
		},
		{
			"bufferView":13,
			"componentType":5126,
			"count":2,
			"type":"VEC4"
		},
		{
			"bufferView":14,
			"componentType":5126,
			"count":2,
			"type":"VEC3"
		},
		{
			"bufferView":15,
			"componentType":5126,
			"count":2,
			"type":"VEC3"
		},
		{
			"bufferView":16,
			"componentType":5126,
			"count":2,
			"type":"VEC4"
		},
		{
			"bufferView":17,
			"componentType":5126,
			"count":2,
			"type":"VEC3"
		},
		{
			"bufferView":18,
			"componentType":5126,
			"count":2,
			"type":"VEC3"
		},
		{
			"bufferView":19,
			"componentType":5126,
			"count":2,
			"type":"VEC4"
		},
		{
			"bufferView":20,
			"componentType":5126,
			"count":2,
			"type":"VEC3"
		},
		{
			"bufferView":21,
			"componentType":5126,
			"count":2,
			"type":"VEC3"
		},
		{
			"bufferView":22,
			"componentType":5126,
			"count":2,
			"type":"VEC4"
		},
		{
			"bufferView":23,
			"componentType":5126,
			"count":2,
			"type":"VEC3"
		},
		{
			"bufferView":24,
			"componentType":5126,
			"count":2,
			"type":"VEC3"
		},
		{
			"bufferView":25,
			"componentType":5126,
			"count":2,
			"type":"VEC4"
		},
		{
			"bufferView":26,
			"componentType":5126,
			"count":2,
			"type":"VEC3"
		},
		{
			"bufferView":27,
			"componentType":5126,
			"count":2,
			"type":"VEC3"
		},
		{
			"bufferView":28,
			"componentType":5126,
			"count":2,
			"type":"VEC4"
		},
		{
			"bufferView":29,
			"componentType":5126,
			"count":2,
			"type":"VEC3"
		},
		{
			"bufferView":30,
			"componentType":5126,
			"count":2,
			"type":"VEC3"
		},
		{
			"bufferView":31,
			"componentType":5126,
			"count":2,
			"type":"VEC4"
		},
		{
			"bufferView":32,
			"componentType":5126,
			"count":2,
			"type":"VEC3"
		},
		{
			"bufferView":33,
			"componentType":5126,
			"count":2,
			"type":"VEC3"
		},
		{
			"bufferView":34,
			"componentType":5126,
			"count":2,
			"type":"VEC4"
		},
		{
			"bufferView":35,
			"componentType":5126,
			"count":2,
			"type":"VEC3"
		},
		{
			"bufferView":36,
			"componentType":5126,
			"count":2,
			"type":"VEC3"
		},
		{
			"bufferView":37,
			"componentType":5126,
			"count":41,
			"type":"VEC4"
		},
		{
			"bufferView":38,
			"componentType":5126,
			"count":2,
			"type":"VEC3"
		},
		{
			"bufferView":39,
			"componentType":5126,
			"count":2,
			"type":"VEC3"
		},
		{
			"bufferView":40,
			"componentType":5126,
			"count":41,
			"type":"VEC4"
		},
		{
			"bufferView":41,
			"componentType":5126,
			"count":2,
			"type":"VEC3"
		},
		{
			"bufferView":42,
			"componentType":5126,
			"count":41,
			"type":"VEC4"
		},
		{
			"bufferView":43,
			"componentType":5126,
			"count":2,
			"type":"VEC3"
		},
		{
			"bufferView":44,
			"componentType":5126,
			"count":2,
			"type":"VEC3"
		},
		{
			"bufferView":45,
			"componentType":5126,
			"count":41,
			"type":"VEC4"
		},
		{
			"bufferView":46,
			"componentType":5126,
			"count":2,
			"type":"VEC3"
		},
		{
			"bufferView":47,
			"componentType":5126,
			"count":2,
			"type":"VEC3"
		},
		{
			"bufferView":48,
			"componentType":5126,
			"count":2,
			"type":"VEC4"
		},
		{
			"bufferView":49,
			"componentType":5126,
			"count":2,
			"type":"VEC3"
		},
		{
			"bufferView":50,
			"componentType":5126,
			"count":2,
			"type":"VEC3"
		},
		{
			"bufferView":51,
			"componentType":5126,
			"count":2,
			"type":"VEC4"
		},
		{
			"bufferView":52,
			"componentType":5126,
			"count":181,
			"max":[
				6
			],
			"min":[
				0
			],
			"type":"SCALAR"
		},
		{
			"bufferView":53,
			"componentType":5126,
			"count":181,
			"type":"VEC3"
		},
		{
			"bufferView":54,
			"componentType":5126,
			"count":2,
			"max":[
				6
			],
			"min":[
				0
			],
			"type":"SCALAR"
		},
		{
			"bufferView":55,
			"componentType":5126,
			"count":181,
			"type":"VEC4"
		},
		{
			"bufferView":56,
			"componentType":5126,
			"count":181,
			"type":"VEC4"
		},
		{
			"bufferView":57,
			"componentType":5126,
			"count":2,
			"type":"VEC3"
		},
		{
			"bufferView":58,
			"componentType":5126,
			"count":181,
			"type":"VEC4"
		},
		{
			"bufferView":59,
			"componentType":5126,
			"count":2,
			"type":"VEC3"
		},
		{
			"bufferView":60,
			"componentType":5126,
			"count":2,
			"type":"VEC3"
		},
		{
			"bufferView":61,
			"componentType":5126,
			"count":181,
			"type":"VEC4"
		},
		{
			"bufferView":62,
			"componentType":5126,
			"count":181,
			"type":"VEC4"
		},
		{
			"bufferView":63,
			"componentType":5126,
			"count":2,
			"type":"VEC3"
		},
		{
			"bufferView":64,
			"componentType":5126,
			"count":181,
			"type":"VEC4"
		},
		{
			"bufferView":65,
			"componentType":5126,
			"count":41,
			"type":"VEC3"
		},
		{
			"bufferView":66,
			"componentType":5126,
			"count":41,
			"type":"VEC4"
		},
		{
			"bufferView":67,
			"componentType":5126,
			"count":2,
			"type":"VEC3"
		},
		{
			"bufferView":68,
			"componentType":5126,
			"count":2,
			"type":"VEC3"
		},
		{
			"bufferView":69,
			"componentType":5126,
			"count":41,
			"type":"VEC4"
		},
		{
			"bufferView":70,
			"componentType":5126,
			"count":2,
			"type":"VEC3"
		},
		{
			"bufferView":71,
			"componentType":5126,
			"count":41,
			"type":"VEC4"
		},
		{
			"bufferView":72,
			"componentType":5126,
			"count":2,
			"type":"VEC3"
		},
		{
			"bufferView":73,
			"componentType":5126,
			"count":41,
			"type":"VEC4"
		},
		{
			"bufferView":74,
			"componentType":5126,
			"count":2,
			"type":"VEC3"
		},
		{
			"bufferView":75,
			"componentType":5126,
			"count":41,
			"type":"VEC4"
		},
		{
			"bufferView":76,
			"componentType":5126,
			"count":2,
			"type":"VEC3"
		},
		{
			"bufferView":77,
			"componentType":5126,
			"count":41,
			"type":"VEC4"
		},
		{
			"bufferView":78,
			"componentType":5126,
			"count":2,
			"type":"VEC3"
		},
		{
			"bufferView":79,
			"componentType":5126,
			"count":41,
			"type":"VEC4"
		},
		{
			"bufferView":80,
			"componentType":5126,
			"count":2,
			"type":"VEC3"
		},
		{
			"bufferView":81,
			"componentType":5126,
			"count":2,
			"type":"VEC3"
		},
		{
			"bufferView":82,
			"componentType":5126,
			"count":41,
			"type":"VEC4"
		},
		{
			"bufferView":83,
			"componentType":5126,
			"count":41,
			"type":"VEC4"
		},
		{
			"bufferView":84,
			"componentType":5126,
			"count":2,
			"type":"VEC3"
		},
		{
			"bufferView":85,
			"componentType":5126,
			"count":41,
			"type":"VEC4"
		},
		{
			"bufferView":86,
			"componentType":5126,
			"count":2,
			"type":"VEC3"
		},
		{
			"bufferView":87,
			"componentType":5126,
			"count":41,
			"type":"VEC4"
		},
		{
			"bufferView":88,
			"componentType":5126,
			"count":41,
			"type":"VEC4"
		},
		{
			"bufferView":89,
			"componentType":5126,
			"count":41,
			"type":"VEC4"
		},
		{
			"bufferView":90,
			"componentType":5126,
			"count":2,
			"type":"VEC3"
		},
		{
			"bufferView":91,
			"componentType":5126,
			"count":41,
			"type":"VEC4"
		},
		{
			"bufferView":92,
			"componentType":5126,
			"count":2,
			"type":"VEC3"
		}
	],
	"bufferViews":[
		{
			"buffer":0,
			"byteLength":96504,
			"byteOffset":0,
			"target":34962
		},
		{
			"buffer":0,
			"byteLength":96504,
			"byteOffset":96504,
			"target":34962
		},
		{
			"buffer":0,
			"byteLength":96504,
			"byteOffset":193008,
			"target":34962
		},
		{
			"buffer":0,
			"byteLength":32168,
			"byteOffset":289512,
			"target":34962
		},
		{
			"buffer":0,
			"byteLength":128672,
			"byteOffset":321680,
			"target":34962
		},
		{
			"buffer":0,
			"byteLength":86736,
			"byteOffset":450352,
			"target":34963
		},
		{
			"buffer":0,
			"byteLength":960,
			"byteOffset":537088
		},
		{
			"buffer":0,
			"byteLength":164,
			"byteOffset":538048
		},
		{
			"buffer":0,
			"byteLength":492,
			"byteOffset":538212
		},
		{
			"buffer":0,
			"byteLength":8,
			"byteOffset":538704
		},
		{
			"buffer":0,
			"byteLength":32,
			"byteOffset":538712
		},
		{
			"buffer":0,
			"byteLength":24,
			"byteOffset":538744
		},
		{
			"buffer":0,
			"byteLength":24,
			"byteOffset":538768
		},
		{
			"buffer":0,
			"byteLength":32,
			"byteOffset":538792
		},
		{
			"buffer":0,
			"byteLength":24,
			"byteOffset":538824
		},
		{
			"buffer":0,
			"byteLength":24,
			"byteOffset":538848
		},
		{
			"buffer":0,
			"byteLength":32,
			"byteOffset":538872
		},
		{
			"buffer":0,
			"byteLength":24,
			"byteOffset":538904
		},
		{
			"buffer":0,
			"byteLength":24,
			"byteOffset":538928
		},
		{
			"buffer":0,
			"byteLength":32,
			"byteOffset":538952
		},
		{
			"buffer":0,
			"byteLength":24,
			"byteOffset":538984
		},
		{
			"buffer":0,
			"byteLength":24,
			"byteOffset":539008
		},
		{
			"buffer":0,
			"byteLength":32,
			"byteOffset":539032
		},
		{
			"buffer":0,
			"byteLength":24,
			"byteOffset":539064
		},
		{
			"buffer":0,
			"byteLength":24,
			"byteOffset":539088
		},
		{
			"buffer":0,
			"byteLength":32,
			"byteOffset":539112
		},
		{
			"buffer":0,
			"byteLength":24,
			"byteOffset":539144
		},
		{
			"buffer":0,
			"byteLength":24,
			"byteOffset":539168
		},
		{
			"buffer":0,
			"byteLength":32,
			"byteOffset":539192
		},
		{
			"buffer":0,
			"byteLength":24,
			"byteOffset":539224
		},
		{
			"buffer":0,
			"byteLength":24,
			"byteOffset":539248
		},
		{
			"buffer":0,
			"byteLength":32,
			"byteOffset":539272
		},
		{
			"buffer":0,
			"byteLength":24,
			"byteOffset":539304
		},
		{
			"buffer":0,
			"byteLength":24,
			"byteOffset":539328
		},
		{
			"buffer":0,
			"byteLength":32,
			"byteOffset":539352
		},
		{
			"buffer":0,
			"byteLength":24,
			"byteOffset":539384
		},
		{
			"buffer":0,
			"byteLength":24,
			"byteOffset":539408
		},
		{
			"buffer":0,
			"byteLength":656,
			"byteOffset":539432
		},
		{
			"buffer":0,
			"byteLength":24,
			"byteOffset":540088
		},
		{
			"buffer":0,
			"byteLength":24,
			"byteOffset":540112
		},
		{
			"buffer":0,
			"byteLength":656,
			"byteOffset":540136
		},
		{
			"buffer":0,
			"byteLength":24,
			"byteOffset":540792
		},
		{
			"buffer":0,
			"byteLength":656,
			"byteOffset":540816
		},
		{
			"buffer":0,
			"byteLength":24,
			"byteOffset":541472
		},
		{
			"buffer":0,
			"byteLength":24,
			"byteOffset":541496
		},
		{
			"buffer":0,
			"byteLength":656,
			"byteOffset":541520
		},
		{
			"buffer":0,
			"byteLength":24,
			"byteOffset":542176
		},
		{
			"buffer":0,
			"byteLength":24,
			"byteOffset":542200
		},
		{
			"buffer":0,
			"byteLength":32,
			"byteOffset":542224
		},
		{
			"buffer":0,
			"byteLength":24,
			"byteOffset":542256
		},
		{
			"buffer":0,
			"byteLength":24,
			"byteOffset":542280
		},
		{
			"buffer":0,
			"byteLength":32,
			"byteOffset":542304
		},
		{
			"buffer":0,
			"byteLength":724,
			"byteOffset":542336
		},
		{
			"buffer":0,
			"byteLength":2172,
			"byteOffset":543060
		},
		{
			"buffer":0,
			"byteLength":8,
			"byteOffset":545232
		},
		{
			"buffer":0,
			"byteLength":2896,
			"byteOffset":545240
		},
		{
			"buffer":0,
			"byteLength":2896,
			"byteOffset":548136
		},
		{
			"buffer":0,
			"byteLength":24,
			"byteOffset":551032
		},
		{
			"buffer":0,
			"byteLength":2896,
			"byteOffset":551056
		},
		{
			"buffer":0,
			"byteLength":24,
			"byteOffset":553952
		},
		{
			"buffer":0,
			"byteLength":24,
			"byteOffset":553976
		},
		{
			"buffer":0,
			"byteLength":2896,
			"byteOffset":554000
		},
		{
			"buffer":0,
			"byteLength":2896,
			"byteOffset":556896
		},
		{
			"buffer":0,
			"byteLength":24,
			"byteOffset":559792
		},
		{
			"buffer":0,
			"byteLength":2896,
			"byteOffset":559816
		},
		{
			"buffer":0,
			"byteLength":492,
			"byteOffset":562712
		},
		{
			"buffer":0,
			"byteLength":656,
			"byteOffset":563204
		},
		{
			"buffer":0,
			"byteLength":24,
			"byteOffset":563860
		},
		{
			"buffer":0,
			"byteLength":24,
			"byteOffset":563884
		},
		{
			"buffer":0,
			"byteLength":656,
			"byteOffset":563908
		},
		{
			"buffer":0,
			"byteLength":24,
			"byteOffset":564564
		},
		{
			"buffer":0,
			"byteLength":656,
			"byteOffset":564588
		},
		{
			"buffer":0,
			"byteLength":24,
			"byteOffset":565244
		},
		{
			"buffer":0,
			"byteLength":656,
			"byteOffset":565268
		},
		{
			"buffer":0,
			"byteLength":24,
			"byteOffset":565924
		},
		{
			"buffer":0,
			"byteLength":656,
			"byteOffset":565948
		},
		{
			"buffer":0,
			"byteLength":24,
			"byteOffset":566604
		},
		{
			"buffer":0,
			"byteLength":656,
			"byteOffset":566628
		},
		{
			"buffer":0,
			"byteLength":24,
			"byteOffset":567284
		},
		{
			"buffer":0,
			"byteLength":656,
			"byteOffset":567308
		},
		{
			"buffer":0,
			"byteLength":24,
			"byteOffset":567964
		},
		{
			"buffer":0,
			"byteLength":24,
			"byteOffset":567988
		},
		{
			"buffer":0,
			"byteLength":656,
			"byteOffset":568012
		},
		{
			"buffer":0,
			"byteLength":656,
			"byteOffset":568668
		},
		{
			"buffer":0,
			"byteLength":24,
			"byteOffset":569324
		},
		{
			"buffer":0,
			"byteLength":656,
			"byteOffset":569348
		},
		{
			"buffer":0,
			"byteLength":24,
			"byteOffset":570004
		},
		{
			"buffer":0,
			"byteLength":656,
			"byteOffset":570028
		},
		{
			"buffer":0,
			"byteLength":656,
			"byteOffset":570684
		},
		{
			"buffer":0,
			"byteLength":656,
			"byteOffset":571340
		},
		{
			"buffer":0,
			"byteLength":24,
			"byteOffset":571996
		},
		{
			"buffer":0,
			"byteLength":656,
			"byteOffset":572020
		},
		{
			"buffer":0,
			"byteLength":24,
			"byteOffset":572676
		}
	],
	"buffers":[
		{
			"byteLength":572700,
			"uri":"schattendrache.bin"
		}
	]
}
