{
	"asset":{
		"generator":"Khronos glTF Blender I/O v5.2.40",
		"version":"2.0"
	},
	"scene":0,
	"scenes":[
		{
			"name":"Scene",
			"nodes":[
				21
			]
		}
	],
	"nodes":[
		{
			"name":"Hut",
			"rotation":[
				-0.5646035075187683,
				2.0283800949982833e-07,
				-1.3875485649350594e-07,
				0.8253622651100159
			],
			"scale":[
				1,
				1.0000001192092896,
				1
			],
			"translation":[
				0,
				0.33000004291534424,
				-0.019999999552965164
			]
		},
		{
			"children":[
				0
			],
			"name":"Kopf",
			"translation":[
				0,
				0.09000003337860107,
				0
			]
		},
		{
			"children":[
				1
			],
			"name":"Hals",
			"translation":[
				0,
				0.25999999046325684,
				0
			]
		},
		{
			"mesh":1,
			"name":"DolchL",
			"rotation":[
				-0.9920610189437866,
				-0.08945408463478088,
				-0.007937991060316563,
				0.08803384751081467
			],
			"scale":[
				1.0000001192092896,
				1.000000238418579,
				1
			],
			"translation":[
				-0.508034884929657,
				0.877810001373291,
				0.16718614101409912
			]
		},
		{
			"children":[
				3
			],
			"name":"Hand.L",
			"rotation":[
				-0.02993539348244667,
				-0.0012853139778599143,
				0.008676200173795223,
				0.9995133876800537
			],
			"scale":[
				1,
				0.9999998807907104,
				1
			],
			"translation":[
				-2.9709189774962397e-08,
				0.2567099928855896,
				-2.7939677238464355e-09
			]
		},
		{
			"children":[
				4
			],
			"name":"Unterarm.L",
			"rotation":[
				-0.09223336726427078,
				-0.0013973830500617623,
				0.056753627955913544,
				0.9941177368164062
			],
			"scale":[
				1,
				0.9999999403953552,
				1
			],
			"translation":[
				-6.705523913907996e-10,
				0.2947879731655121,
				-4.656612873077393e-10
			]
		},
		{
			"children":[
				5
			],
			"name":"Oberarm.L",
			"rotation":[
				-0.9873651266098022,
				-0.15478397905826569,
				0.0052567459642887115,
				0.03353271260857582
			],
			"scale":[
				0.9999997615814209,
				0.9999998211860657,
				1
			],
			"translation":[
				0.20000000298023224,
				0.20000004768371582,
				0
			]
		},
		{
			"mesh":2,
			"name":"DolchR",
			"rotation":[
				-0.9920610189437866,
				0.08945408463478088,
				0.007937991060316563,
				0.08803384751081467
			],
			"scale":[
				1.0000001192092896,
				1.000000238418579,
				1
			],
			"translation":[
				0.508034884929657,
				0.877810001373291,
				0.16718614101409912
			]
		},
		{
			"children":[
				7
			],
			"name":"Hand.R",
			"rotation":[
				-0.02993539348244667,
				0.0012853139778599143,
				-0.008676200173795223,
				0.9995133876800537
			],
			"scale":[
				1,
				0.9999998807907104,
				1
			],
			"translation":[
				2.9709189774962397e-08,
				0.2567099928855896,
				-2.7939677238464355e-09
			]
		},
		{
			"children":[
				8
			],
			"name":"Unterarm.R",
			"rotation":[
				-0.09223336726427078,
				0.0013973830500617623,
				-0.056753627955913544,
				0.9941177368164062
			],
			"scale":[
				1,
				0.9999999403953552,
				1
			],
			"translation":[
				6.705523913907996e-10,
				0.2947879731655121,
				-4.656612873077393e-10
			]
		},
		{
			"children":[
				9
			],
			"name":"Oberarm.R",
			"rotation":[
				-0.9873651266098022,
				0.15478397905826569,
				-0.0052567459642887115,
				0.03353271260857582
			],
			"scale":[
				0.9999997615814209,
				0.9999998211860657,
				1
			],
			"translation":[
				-0.20000000298023224,
				0.20000004768371582,
				0
			]
		},
		{
			"children":[
				2,
				6,
				10
			],
			"name":"Brust",
			"translation":[
				0,
				0.19999992847442627,
				0
			]
		},
		{
			"children":[
				11
			],
			"name":"Bauch",
			"translation":[
				0,
				0.15000003576278687,
				0
			]
		},
		{
			"name":"Fuss.L",
			"rotation":[
				1.1095015572948341e-08,
				0.8304529190063477,
				-0.5570888519287109,
				6.26974596684704e-08
			],
			"scale":[
				1,
				0.9999998807907104,
				0.9999998807907104
			],
			"translation":[
				-2.35995756270313e-09,
				0.42047592997550964,
				1.1594929461011816e-09
			]
		},
		{
			"children":[
				13
			],
			"name":"Unterschenkel.L",
			"rotation":[
				0.023789310827851295,
				9.13925006784666e-08,
				9.505255610386953e-11,
				0.9997169971466064
			],
			"scale":[
				1,
				0.9999999403953552,
				1
			],
			"translation":[
				0,
				0.4300000071525574,
				0
			]
		},
		{
			"children":[
				14
			],
			"name":"Oberschenkel.L",
			"rotation":[
				1,
				0,
				-4.371138828673793e-08,
				0
			],
			"translation":[
				0.10000000149011612,
				0,
				0
			]
		},
		{
			"name":"Fuss.R",
			"rotation":[
				1.1095015572948341e-08,
				0.8304529190063477,
				-0.5570888519287109,
				6.26974596684704e-08
			],
			"scale":[
				1,
				0.9999998807907104,
				0.9999998807907104
			],
			"translation":[
				-2.35995756270313e-09,
				0.42047592997550964,
				7.031522031297754e-10
			]
		},
		{
			"children":[
				16
			],
			"name":"Unterschenkel.R",
			"rotation":[
				0.023789310827851295,
				9.13925006784666e-08,
				9.505255610386953e-11,
				0.9997169971466064
			],
			"scale":[
				1,
				0.9999999403953552,
				1
			],
			"translation":[
				0,
				0.4300000071525574,
				0
			]
		},
		{
			"children":[
				17
			],
			"name":"Oberschenkel.R",
			"rotation":[
				1,
				0,
				-4.371138828673793e-08,
				0
			],
			"translation":[
				-0.10000000149011612,
				0,
				0
			]
		},
		{
			"children":[
				12,
				15,
				18
			],
			"name":"Becken",
			"translation":[
				0,
				0.949999988079071,
				0
			]
		},
		{
			"mesh":0,
			"name":"Schattenmeuchler",
			"skin":0
		},
		{
			"children":[
				20,
				19
			],
			"name":"SchattenmeuchlerSkelett"
		}
	],
	"animations":[
		{
			"channels":[
				{
					"sampler":0,
					"target":{
						"node":19,
						"path":"translation"
					}
				},
				{
					"sampler":1,
					"target":{
						"node":19,
						"path":"rotation"
					}
				},
				{
					"sampler":2,
					"target":{
						"node":19,
						"path":"scale"
					}
				},
				{
					"sampler":3,
					"target":{
						"node":12,
						"path":"translation"
					}
				},
				{
					"sampler":4,
					"target":{
						"node":12,
						"path":"rotation"
					}
				},
				{
					"sampler":5,
					"target":{
						"node":12,
						"path":"scale"
					}
				},
				{
					"sampler":6,
					"target":{
						"node":11,
						"path":"translation"
					}
				},
				{
					"sampler":7,
					"target":{
						"node":11,
						"path":"rotation"
					}
				},
				{
					"sampler":8,
					"target":{
						"node":11,
						"path":"scale"
					}
				},
				{
					"sampler":9,
					"target":{
						"node":2,
						"path":"translation"
					}
				},
				{
					"sampler":10,
					"target":{
						"node":2,
						"path":"rotation"
					}
				},
				{
					"sampler":11,
					"target":{
						"node":2,
						"path":"scale"
					}
				},
				{
					"sampler":12,
					"target":{
						"node":1,
						"path":"translation"
					}
				},
				{
					"sampler":13,
					"target":{
						"node":1,
						"path":"rotation"
					}
				},
				{
					"sampler":14,
					"target":{
						"node":1,
						"path":"scale"
					}
				},
				{
					"sampler":15,
					"target":{
						"node":0,
						"path":"translation"
					}
				},
				{
					"sampler":16,
					"target":{
						"node":0,
						"path":"rotation"
					}
				},
				{
					"sampler":17,
					"target":{
						"node":0,
						"path":"scale"
					}
				},
				{
					"sampler":18,
					"target":{
						"node":6,
						"path":"translation"
					}
				},
				{
					"sampler":19,
					"target":{
						"node":6,
						"path":"rotation"
					}
				},
				{
					"sampler":20,
					"target":{
						"node":6,
						"path":"scale"
					}
				},
				{
					"sampler":21,
					"target":{
						"node":5,
						"path":"translation"
					}
				},
				{
					"sampler":22,
					"target":{
						"node":5,
						"path":"rotation"
					}
				},
				{
					"sampler":23,
					"target":{
						"node":5,
						"path":"scale"
					}
				},
				{
					"sampler":24,
					"target":{
						"node":4,
						"path":"translation"
					}
				},
				{
					"sampler":25,
					"target":{
						"node":4,
						"path":"rotation"
					}
				},
				{
					"sampler":26,
					"target":{
						"node":4,
						"path":"scale"
					}
				},
				{
					"sampler":27,
					"target":{
						"node":10,
						"path":"translation"
					}
				},
				{
					"sampler":28,
					"target":{
						"node":10,
						"path":"rotation"
					}
				},
				{
					"sampler":29,
					"target":{
						"node":10,
						"path":"scale"
					}
				},
				{
					"sampler":30,
					"target":{
						"node":9,
						"path":"translation"
					}
				},
				{
					"sampler":31,
					"target":{
						"node":9,
						"path":"rotation"
					}
				},
				{
					"sampler":32,
					"target":{
						"node":9,
						"path":"scale"
					}
				},
				{
					"sampler":33,
					"target":{
						"node":8,
						"path":"translation"
					}
				},
				{
					"sampler":34,
					"target":{
						"node":8,
						"path":"rotation"
					}
				},
				{
					"sampler":35,
					"target":{
						"node":8,
						"path":"scale"
					}
				},
				{
					"sampler":36,
					"target":{
						"node":15,
						"path":"translation"
					}
				},
				{
					"sampler":37,
					"target":{
						"node":15,
						"path":"rotation"
					}
				},
				{
					"sampler":38,
					"target":{
						"node":15,
						"path":"scale"
					}
				},
				{
					"sampler":39,
					"target":{
						"node":14,
						"path":"translation"
					}
				},
				{
					"sampler":40,
					"target":{
						"node":14,
						"path":"rotation"
					}
				},
				{
					"sampler":41,
					"target":{
						"node":14,
						"path":"scale"
					}
				},
				{
					"sampler":42,
					"target":{
						"node":13,
						"path":"translation"
					}
				},
				{
					"sampler":43,
					"target":{
						"node":13,
						"path":"rotation"
					}
				},
				{
					"sampler":44,
					"target":{
						"node":13,
						"path":"scale"
					}
				},
				{
					"sampler":45,
					"target":{
						"node":18,
						"path":"translation"
					}
				},
				{
					"sampler":46,
					"target":{
						"node":18,
						"path":"rotation"
					}
				},
				{
					"sampler":47,
					"target":{
						"node":18,
						"path":"scale"
					}
				},
				{
					"sampler":48,
					"target":{
						"node":17,
						"path":"translation"
					}
				},
				{
					"sampler":49,
					"target":{
						"node":17,
						"path":"rotation"
					}
				},
				{
					"sampler":50,
					"target":{
						"node":17,
						"path":"scale"
					}
				},
				{
					"sampler":51,
					"target":{
						"node":16,
						"path":"translation"
					}
				},
				{
					"sampler":52,
					"target":{
						"node":16,
						"path":"rotation"
					}
				},
				{
					"sampler":53,
					"target":{
						"node":16,
						"path":"scale"
					}
				}
			],
			"name":"Angriff",
			"samplers":[
				{
					"input":15,
					"interpolation":"STEP",
					"output":16
				},
				{
					"input":15,
					"interpolation":"STEP",
					"output":17
				},
				{
					"input":15,
					"interpolation":"STEP",
					"output":18
				},
				{
					"input":15,
					"interpolation":"STEP",
					"output":19
				},
				{
					"input":20,
					"interpolation":"LINEAR",
					"output":21
				},
				{
					"input":15,
					"interpolation":"STEP",
					"output":18
				},
				{
					"input":15,
					"interpolation":"STEP",
					"output":22
				},
				{
					"input":20,
					"interpolation":"LINEAR",
					"output":23
				},
				{
					"input":15,
					"interpolation":"STEP",
					"output":18
				},
				{
					"input":15,
					"interpolation":"STEP",
					"output":24
				},
				{
					"input":15,
					"interpolation":"STEP",
					"output":17
				},
				{
					"input":15,
					"interpolation":"STEP",
					"output":18
				},
				{
					"input":15,
					"interpolation":"STEP",
					"output":25
				},
				{
					"input":15,
					"interpolation":"STEP",
					"output":17
				},
				{
					"input":15,
					"interpolation":"STEP",
					"output":18
				},
				{
					"input":15,
					"interpolation":"STEP",
					"output":26
				},
				{
					"input":15,
					"interpolation":"STEP",
					"output":27
				},
				{
					"input":15,
					"interpolation":"STEP",
					"output":28
				},
				{
					"input":15,
					"interpolation":"STEP",
					"output":29
				},
				{
					"input":15,
					"interpolation":"STEP",
					"output":30
				},
				{
					"input":15,
					"interpolation":"STEP",
					"output":31
				},
				{
					"input":15,
					"interpolation":"STEP",
					"output":32
				},
				{
					"input":15,
					"interpolation":"STEP",
					"output":33
				},
				{
					"input":15,
					"interpolation":"STEP",
					"output":18
				},
				{
					"input":15,
					"interpolation":"STEP",
					"output":34
				},
				{
					"input":15,
					"interpolation":"STEP",
					"output":35
				},
				{
					"input":15,
					"interpolation":"STEP",
					"output":36
				},
				{
					"input":15,
					"interpolation":"STEP",
					"output":37
				},
				{
					"input":20,
					"interpolation":"LINEAR",
					"output":38
				},
				{
					"input":15,
					"interpolation":"STEP",
					"output":31
				},
				{
					"input":15,
					"interpolation":"STEP",
					"output":39
				},
				{
					"input":20,
					"interpolation":"LINEAR",
					"output":40
				},
				{
					"input":15,
					"interpolation":"STEP",
					"output":41
				},
				{
					"input":15,
					"interpolation":"STEP",
					"output":42
				},
				{
					"input":15,
					"interpolation":"STEP",
					"output":43
				},
				{
					"input":15,
					"interpolation":"STEP",
					"output":44
				},
				{
					"input":15,
					"interpolation":"STEP",
					"output":45
				},
				{
					"input":20,
					"interpolation":"LINEAR",
					"output":46
				},
				{
					"input":15,
					"interpolation":"STEP",
					"output":18
				},
				{
					"input":15,
					"interpolation":"STEP",
					"output":47
				},
				{
					"input":20,
					"interpolation":"LINEAR",
					"output":48
				},
				{
					"input":15,
					"interpolation":"STEP",
					"output":36
				},
				{
					"input":15,
					"interpolation":"STEP",
					"output":49
				},
				{
					"input":15,
					"interpolation":"STEP",
					"output":50
				},
				{
					"input":15,
					"interpolation":"STEP",
					"output":18
				},
				{
					"input":15,
					"interpolation":"STEP",
					"output":51
				},
				{
					"input":20,
					"interpolation":"LINEAR",
					"output":52
				},
				{
					"input":15,
					"interpolation":"STEP",
					"output":53
				},
				{
					"input":15,
					"interpolation":"STEP",
					"output":54
				},
				{
					"input":20,
					"interpolation":"LINEAR",
					"output":55
				},
				{
					"input":15,
					"interpolation":"STEP",
					"output":56
				},
				{
					"input":15,
					"interpolation":"STEP",
					"output":57
				},
				{
					"input":15,
					"interpolation":"STEP",
					"output":58
				},
				{
					"input":15,
					"interpolation":"STEP",
					"output":59
				}
			]
		},
		{
			"channels":[
				{
					"sampler":0,
					"target":{
						"node":19,
						"path":"translation"
					}
				},
				{
					"sampler":1,
					"target":{
						"node":19,
						"path":"rotation"
					}
				},
				{
					"sampler":2,
					"target":{
						"node":19,
						"path":"scale"
					}
				},
				{
					"sampler":3,
					"target":{
						"node":12,
						"path":"translation"
					}
				},
				{
					"sampler":4,
					"target":{
						"node":12,
						"path":"rotation"
					}
				},
				{
					"sampler":5,
					"target":{
						"node":12,
						"path":"scale"
					}
				},
				{
					"sampler":6,
					"target":{
						"node":11,
						"path":"translation"
					}
				},
				{
					"sampler":7,
					"target":{
						"node":11,
						"path":"rotation"
					}
				},
				{
					"sampler":8,
					"target":{
						"node":11,
						"path":"scale"
					}
				},
				{
					"sampler":9,
					"target":{
						"node":2,
						"path":"translation"
					}
				},
				{
					"sampler":10,
					"target":{
						"node":2,
						"path":"rotation"
					}
				},
				{
					"sampler":11,
					"target":{
						"node":2,
						"path":"scale"
					}
				},
				{
					"sampler":12,
					"target":{
						"node":1,
						"path":"translation"
					}
				},
				{
					"sampler":13,
					"target":{
						"node":1,
						"path":"rotation"
					}
				},
				{
					"sampler":14,
					"target":{
						"node":1,
						"path":"scale"
					}
				},
				{
					"sampler":15,
					"target":{
						"node":0,
						"path":"translation"
					}
				},
				{
					"sampler":16,
					"target":{
						"node":0,
						"path":"rotation"
					}
				},
				{
					"sampler":17,
					"target":{
						"node":0,
						"path":"scale"
					}
				},
				{
					"sampler":18,
					"target":{
						"node":6,
						"path":"translation"
					}
				},
				{
					"sampler":19,
					"target":{
						"node":6,
						"path":"rotation"
					}
				},
				{
					"sampler":20,
					"target":{
						"node":6,
						"path":"scale"
					}
				},
				{
					"sampler":21,
					"target":{
						"node":5,
						"path":"translation"
					}
				},
				{
					"sampler":22,
					"target":{
						"node":5,
						"path":"rotation"
					}
				},
				{
					"sampler":23,
					"target":{
						"node":5,
						"path":"scale"
					}
				},
				{
					"sampler":24,
					"target":{
						"node":4,
						"path":"translation"
					}
				},
				{
					"sampler":25,
					"target":{
						"node":4,
						"path":"rotation"
					}
				},
				{
					"sampler":26,
					"target":{
						"node":4,
						"path":"scale"
					}
				},
				{
					"sampler":27,
					"target":{
						"node":10,
						"path":"translation"
					}
				},
				{
					"sampler":28,
					"target":{
						"node":10,
						"path":"rotation"
					}
				},
				{
					"sampler":29,
					"target":{
						"node":10,
						"path":"scale"
					}
				},
				{
					"sampler":30,
					"target":{
						"node":9,
						"path":"translation"
					}
				},
				{
					"sampler":31,
					"target":{
						"node":9,
						"path":"rotation"
					}
				},
				{
					"sampler":32,
					"target":{
						"node":9,
						"path":"scale"
					}
				},
				{
					"sampler":33,
					"target":{
						"node":8,
						"path":"translation"
					}
				},
				{
					"sampler":34,
					"target":{
						"node":8,
						"path":"rotation"
					}
				},
				{
					"sampler":35,
					"target":{
						"node":8,
						"path":"scale"
					}
				},
				{
					"sampler":36,
					"target":{
						"node":15,
						"path":"translation"
					}
				},
				{
					"sampler":37,
					"target":{
						"node":15,
						"path":"rotation"
					}
				},
				{
					"sampler":38,
					"target":{
						"node":15,
						"path":"scale"
					}
				},
				{
					"sampler":39,
					"target":{
						"node":14,
						"path":"translation"
					}
				},
				{
					"sampler":40,
					"target":{
						"node":14,
						"path":"rotation"
					}
				},
				{
					"sampler":41,
					"target":{
						"node":14,
						"path":"scale"
					}
				},
				{
					"sampler":42,
					"target":{
						"node":13,
						"path":"translation"
					}
				},
				{
					"sampler":43,
					"target":{
						"node":13,
						"path":"rotation"
					}
				},
				{
					"sampler":44,
					"target":{
						"node":13,
						"path":"scale"
					}
				},
				{
					"sampler":45,
					"target":{
						"node":18,
						"path":"translation"
					}
				},
				{
					"sampler":46,
					"target":{
						"node":18,
						"path":"rotation"
					}
				},
				{
					"sampler":47,
					"target":{
						"node":18,
						"path":"scale"
					}
				},
				{
					"sampler":48,
					"target":{
						"node":17,
						"path":"translation"
					}
				},
				{
					"sampler":49,
					"target":{
						"node":17,
						"path":"rotation"
					}
				},
				{
					"sampler":50,
					"target":{
						"node":17,
						"path":"scale"
					}
				},
				{
					"sampler":51,
					"target":{
						"node":16,
						"path":"translation"
					}
				},
				{
					"sampler":52,
					"target":{
						"node":16,
						"path":"rotation"
					}
				},
				{
					"sampler":53,
					"target":{
						"node":16,
						"path":"scale"
					}
				}
			],
			"name":"Idle",
			"samplers":[
				{
					"input":60,
					"interpolation":"LINEAR",
					"output":61
				},
				{
					"input":62,
					"interpolation":"STEP",
					"output":17
				},
				{
					"input":62,
					"interpolation":"STEP",
					"output":18
				},
				{
					"input":62,
					"interpolation":"STEP",
					"output":19
				},
				{
					"input":60,
					"interpolation":"LINEAR",
					"output":63
				},
				{
					"input":62,
					"interpolation":"STEP",
					"output":18
				},
				{
					"input":62,
					"interpolation":"STEP",
					"output":22
				},
				{
					"input":60,
					"interpolation":"LINEAR",
					"output":64
				},
				{
					"input":62,
					"interpolation":"STEP",
					"output":18
				},
				{
					"input":62,
					"interpolation":"STEP",
					"output":24
				},
				{
					"input":62,
					"interpolation":"STEP",
					"output":17
				},
				{
					"input":62,
					"interpolation":"STEP",
					"output":18
				},
				{
					"input":62,
					"interpolation":"STEP",
					"output":25
				},
				{
					"input":60,
					"interpolation":"LINEAR",
					"output":65
				},
				{
					"input":62,
					"interpolation":"STEP",
					"output":18
				},
				{
					"input":62,
					"interpolation":"STEP",
					"output":66
				},
				{
					"input":62,
					"interpolation":"STEP",
					"output":67
				},
				{
					"input":62,
					"interpolation":"STEP",
					"output":68
				},
				{
					"input":62,
					"interpolation":"STEP",
					"output":29
				},
				{
					"input":60,
					"interpolation":"LINEAR",
					"output":69
				},
				{
					"input":62,
					"interpolation":"STEP",
					"output":70
				},
				{
					"input":62,
					"interpolation":"STEP",
					"output":71
				},
				{
					"input":62,
					"interpolation":"STEP",
					"output":72
				},
				{
					"input":62,
					"interpolation":"STEP",
					"output":68
				},
				{
					"input":62,
					"interpolation":"STEP",
					"output":73
				},
				{
					"input":62,
					"interpolation":"STEP",
					"output":74
				},
				{
					"input":62,
					"interpolation":"STEP",
					"output":75
				},
				{
					"input":62,
					"interpolation":"STEP",
					"output":37
				},
				{
					"input":62,
					"interpolation":"STEP",
					"output":76
				},
				{
					"input":62,
					"interpolation":"STEP",
					"output":70
				},
				{
					"input":62,
					"interpolation":"STEP",
					"output":77
				},
				{
					"input":62,
					"interpolation":"STEP",
					"output":78
				},
				{
					"input":62,
					"interpolation":"STEP",
					"output":68
				},
				{
					"input":62,
					"interpolation":"STEP",
					"output":79
				},
				{
					"input":62,
					"interpolation":"STEP",
					"output":80
				},
				{
					"input":62,
					"interpolation":"STEP",
					"output":75
				},
				{
					"input":62,
					"interpolation":"STEP",
					"output":45
				},
				{
					"input":62,
					"interpolation":"STEP",
					"output":81
				},
				{
					"input":62,
					"interpolation":"STEP",
					"output":18
				},
				{
					"input":62,
					"interpolation":"STEP",
					"output":82
				},
				{
					"input":62,
					"interpolation":"STEP",
					"output":83
				},
				{
					"input":62,
					"interpolation":"STEP",
					"output":36
				},
				{
					"input":62,
					"interpolation":"STEP",
					"output":84
				},
				{
					"input":62,
					"interpolation":"STEP",
					"output":85
				},
				{
					"input":62,
					"interpolation":"STEP",
					"output":86
				},
				{
					"input":62,
					"interpolation":"STEP",
					"output":51
				},
				{
					"input":62,
					"interpolation":"STEP",
					"output":81
				},
				{
					"input":62,
					"interpolation":"STEP",
					"output":18
				},
				{
					"input":62,
					"interpolation":"STEP",
					"output":87
				},
				{
					"input":62,
					"interpolation":"STEP",
					"output":83
				},
				{
					"input":62,
					"interpolation":"STEP",
					"output":36
				},
				{
					"input":62,
					"interpolation":"STEP",
					"output":88
				},
				{
					"input":62,
					"interpolation":"STEP",
					"output":85
				},
				{
					"input":62,
					"interpolation":"STEP",
					"output":86
				}
			]
		},
		{
			"channels":[
				{
					"sampler":0,
					"target":{
						"node":19,
						"path":"translation"
					}
				},
				{
					"sampler":1,
					"target":{
						"node":19,
						"path":"rotation"
					}
				},
				{
					"sampler":2,
					"target":{
						"node":19,
						"path":"scale"
					}
				},
				{
					"sampler":3,
					"target":{
						"node":12,
						"path":"translation"
					}
				},
				{
					"sampler":4,
					"target":{
						"node":12,
						"path":"rotation"
					}
				},
				{
					"sampler":5,
					"target":{
						"node":12,
						"path":"scale"
					}
				},
				{
					"sampler":6,
					"target":{
						"node":11,
						"path":"translation"
					}
				},
				{
					"sampler":7,
					"target":{
						"node":11,
						"path":"rotation"
					}
				},
				{
					"sampler":8,
					"target":{
						"node":11,
						"path":"scale"
					}
				},
				{
					"sampler":9,
					"target":{
						"node":2,
						"path":"translation"
					}
				},
				{
					"sampler":10,
					"target":{
						"node":2,
						"path":"rotation"
					}
				},
				{
					"sampler":11,
					"target":{
						"node":2,
						"path":"scale"
					}
				},
				{
					"sampler":12,
					"target":{
						"node":1,
						"path":"translation"
					}
				},
				{
					"sampler":13,
					"target":{
						"node":1,
						"path":"rotation"
					}
				},
				{
					"sampler":14,
					"target":{
						"node":1,
						"path":"scale"
					}
				},
				{
					"sampler":15,
					"target":{
						"node":0,
						"path":"translation"
					}
				},
				{
					"sampler":16,
					"target":{
						"node":0,
						"path":"rotation"
					}
				},
				{
					"sampler":17,
					"target":{
						"node":0,
						"path":"scale"
					}
				},
				{
					"sampler":18,
					"target":{
						"node":6,
						"path":"translation"
					}
				},
				{
					"sampler":19,
					"target":{
						"node":6,
						"path":"rotation"
					}
				},
				{
					"sampler":20,
					"target":{
						"node":6,
						"path":"scale"
					}
				},
				{
					"sampler":21,
					"target":{
						"node":5,
						"path":"translation"
					}
				},
				{
					"sampler":22,
					"target":{
						"node":5,
						"path":"rotation"
					}
				},
				{
					"sampler":23,
					"target":{
						"node":5,
						"path":"scale"
					}
				},
				{
					"sampler":24,
					"target":{
						"node":4,
						"path":"translation"
					}
				},
				{
					"sampler":25,
					"target":{
						"node":4,
						"path":"rotation"
					}
				},
				{
					"sampler":26,
					"target":{
						"node":4,
						"path":"scale"
					}
				},
				{
					"sampler":27,
					"target":{
						"node":10,
						"path":"translation"
					}
				},
				{
					"sampler":28,
					"target":{
						"node":10,
						"path":"rotation"
					}
				},
				{
					"sampler":29,
					"target":{
						"node":10,
						"path":"scale"
					}
				},
				{
					"sampler":30,
					"target":{
						"node":9,
						"path":"translation"
					}
				},
				{
					"sampler":31,
					"target":{
						"node":9,
						"path":"rotation"
					}
				},
				{
					"sampler":32,
					"target":{
						"node":9,
						"path":"scale"
					}
				},
				{
					"sampler":33,
					"target":{
						"node":8,
						"path":"translation"
					}
				},
				{
					"sampler":34,
					"target":{
						"node":8,
						"path":"rotation"
					}
				},
				{
					"sampler":35,
					"target":{
						"node":8,
						"path":"scale"
					}
				},
				{
					"sampler":36,
					"target":{
						"node":15,
						"path":"translation"
					}
				},
				{
					"sampler":37,
					"target":{
						"node":15,
						"path":"rotation"
					}
				},
				{
					"sampler":38,
					"target":{
						"node":15,
						"path":"scale"
					}
				},
				{
					"sampler":39,
					"target":{
						"node":14,
						"path":"translation"
					}
				},
				{
					"sampler":40,
					"target":{
						"node":14,
						"path":"rotation"
					}
				},
				{
					"sampler":41,
					"target":{
						"node":14,
						"path":"scale"
					}
				},
				{
					"sampler":42,
					"target":{
						"node":13,
						"path":"translation"
					}
				},
				{
					"sampler":43,
					"target":{
						"node":13,
						"path":"rotation"
					}
				},
				{
					"sampler":44,
					"target":{
						"node":13,
						"path":"scale"
					}
				},
				{
					"sampler":45,
					"target":{
						"node":18,
						"path":"translation"
					}
				},
				{
					"sampler":46,
					"target":{
						"node":18,
						"path":"rotation"
					}
				},
				{
					"sampler":47,
					"target":{
						"node":18,
						"path":"scale"
					}
				},
				{
					"sampler":48,
					"target":{
						"node":17,
						"path":"translation"
					}
				},
				{
					"sampler":49,
					"target":{
						"node":17,
						"path":"rotation"
					}
				},
				{
					"sampler":50,
					"target":{
						"node":17,
						"path":"scale"
					}
				},
				{
					"sampler":51,
					"target":{
						"node":16,
						"path":"translation"
					}
				},
				{
					"sampler":52,
					"target":{
						"node":16,
						"path":"rotation"
					}
				},
				{
					"sampler":53,
					"target":{
						"node":16,
						"path":"scale"
					}
				}
			],
			"name":"Laufen",
			"samplers":[
				{
					"input":20,
					"interpolation":"LINEAR",
					"output":89
				},
				{
					"input":20,
					"interpolation":"LINEAR",
					"output":90
				},
				{
					"input":15,
					"interpolation":"STEP",
					"output":18
				},
				{
					"input":15,
					"interpolation":"STEP",
					"output":19
				},
				{
					"input":15,
					"interpolation":"STEP",
					"output":91
				},
				{
					"input":15,
					"interpolation":"STEP",
					"output":18
				},
				{
					"input":15,
					"interpolation":"STEP",
					"output":92
				},
				{
					"input":20,
					"interpolation":"LINEAR",
					"output":93
				},
				{
					"input":15,
					"interpolation":"STEP",
					"output":18
				},
				{
					"input":15,
					"interpolation":"STEP",
					"output":94
				},
				{
					"input":15,
					"interpolation":"STEP",
					"output":17
				},
				{
					"input":15,
					"interpolation":"STEP",
					"output":53
				},
				{
					"input":15,
					"interpolation":"STEP",
					"output":95
				},
				{
					"input":20,
					"interpolation":"LINEAR",
					"output":96
				},
				{
					"input":15,
					"interpolation":"STEP",
					"output":53
				},
				{
					"input":15,
					"interpolation":"STEP",
					"output":97
				},
				{
					"input":20,
					"interpolation":"LINEAR",
					"output":98
				},
				{
					"input":15,
					"interpolation":"STEP",
					"output":28
				},
				{
					"input":15,
					"interpolation":"STEP",
					"output":99
				},
				{
					"input":20,
					"interpolation":"LINEAR",
					"output":100
				},
				{
					"input":15,
					"interpolation":"STEP",
					"output":101
				},
				{
					"input":15,
					"interpolation":"STEP",
					"output":102
				},
				{
					"input":15,
					"interpolation":"STEP",
					"output":103
				},
				{
					"input":15,
					"interpolation":"STEP",
					"output":59
				},
				{
					"input":15,
					"interpolation":"STEP",
					"output":104
				},
				{
					"input":15,
					"interpolation":"STEP",
					"output":105
				},
				{
					"input":15,
					"interpolation":"STEP",
					"output":106
				},
				{
					"input":15,
					"interpolation":"STEP",
					"output":107
				},
				{
					"input":20,
					"interpolation":"LINEAR",
					"output":108
				},
				{
					"input":15,
					"interpolation":"STEP",
					"output":101
				},
				{
					"input":15,
					"interpolation":"STEP",
					"output":109
				},
				{
					"input":15,
					"interpolation":"STEP",
					"output":110
				},
				{
					"input":15,
					"interpolation":"STEP",
					"output":59
				},
				{
					"input":15,
					"interpolation":"STEP",
					"output":111
				},
				{
					"input":15,
					"interpolation":"STEP",
					"output":112
				},
				{
					"input":15,
					"interpolation":"STEP",
					"output":106
				},
				{
					"input":15,
					"interpolation":"STEP",
					"output":113
				},
				{
					"input":20,
					"interpolation":"LINEAR",
					"output":114
				},
				{
					"input":15,
					"interpolation":"STEP",
					"output":18
				},
				{
					"input":15,
					"interpolation":"STEP",
					"output":115
				},
				{
					"input":20,
					"interpolation":"LINEAR",
					"output":116
				},
				{
					"input":15,
					"interpolation":"STEP",
					"output":36
				},
				{
					"input":15,
					"interpolation":"STEP",
					"output":117
				},
				{
					"input":20,
					"interpolation":"LINEAR",
					"output":118
				},
				{
					"input":15,
					"interpolation":"STEP",
					"output":59
				},
				{
					"input":15,
					"interpolation":"STEP",
					"output":119
				},
				{
					"input":20,
					"interpolation":"LINEAR",
					"output":120
				},
				{
					"input":15,
					"interpolation":"STEP",
					"output":18
				},
				{
					"input":15,
					"interpolation":"STEP",
					"output":121
				},
				{
					"input":20,
					"interpolation":"LINEAR",
					"output":122
				},
				{
					"input":15,
					"interpolation":"STEP",
					"output":56
				},
				{
					"input":15,
					"interpolation":"STEP",
					"output":123
				},
				{
					"input":20,
					"interpolation":"LINEAR",
					"output":124
				},
				{
					"input":15,
					"interpolation":"STEP",
					"output":86
				}
			]
		}
	],
	"materials":[
		{
			"doubleSided":true,
			"name":"Schattenmeuchler",
			"pbrMetallicRoughness":{
				"metallicFactor":0,
				"roughnessFactor":0.8500000238418579
			}
		}
	],
	"meshes":[
		{
			"name":"Bein",
			"primitives":[
				{
					"attributes":{
						"POSITION":0,
						"NORMAL":1,
						"COLOR_0":2,
						"JOINTS_0":3,
						"WEIGHTS_0":4
					},
					"indices":5,
					"material":0
				}
			]
		},
		{
			"name":"DolchL",
			"primitives":[
				{
					"attributes":{
						"POSITION":7,
						"NORMAL":8,
						"COLOR_0":9
					},
					"indices":10,
					"material":0
				}
			]
		},
		{
			"name":"DolchR",
			"primitives":[
				{
					"attributes":{
						"POSITION":11,
						"NORMAL":12,
						"COLOR_0":13
					},
					"indices":14,
					"material":0
				}
			]
		}
	],
	"skins":[
		{
			"inverseBindMatrices":6,
			"joints":[
				19,
				12,
				11,
				2,
				1,
				0,
				6,
				5,
				4,
				10,
				9,
				8,
				15,
				14,
				13,
				18,
				17,
				16
			],
			"name":"SchattenmeuchlerSkelett"
		}
	],
	"accessors":[
		{
			"bufferView":0,
			"componentType":5126,
			"count":7188,
			"max":[
				0.39397117495536804,
				2.004000425338745,
				0.17100000381469727
			],
			"min":[
				-0.39397117495536804,
				-0.009999999776482582,
				-0.245876744389534
			],
			"type":"VEC3"
		},
		{
			"bufferView":1,
			"componentType":5126,
			"count":7188,
			"type":"VEC3"
		},
		{
			"bufferView":2,
			"componentType":5126,
			"count":7188,
			"type":"VEC3"
		},
		{
			"bufferView":3,
			"componentType":5121,
			"count":7188,
			"type":"VEC4"
		},
		{
			"bufferView":4,
			"componentType":5126,
			"count":7188,
			"type":"VEC4"
		},
		{
			"bufferView":5,
			"componentType":5123,
			"count":10542,
			"type":"SCALAR"
		},
		{
			"bufferView":6,
			"componentType":5126,
			"count":18,
			"type":"MAT4"
		},
		{
			"bufferView":7,
			"componentType":5126,
			"count":102,
			"max":[
				0.4150000214576721,
				0.9699999690055847,
				0.09700000286102295
			],
			"min":[
				0.32499998807907104,
				0.5299999713897705,
				0.05300000309944153
			],
			"type":"VEC3"
		},
		{
			"bufferView":8,
			"componentType":5126,
			"count":102,
			"type":"VEC3"
		},
		{
			"bufferView":9,
			"componentType":5126,
			"count":102,
			"type":"VEC3"
		},
		{
			"bufferView":10,
			"componentType":5123,
			"count":150,
			"type":"SCALAR"
		},
		{
			"bufferView":11,
			"componentType":5126,
			"count":102,
			"max":[
				-0.32499998807907104,
				0.9699999690055847,
				0.09700000286102295
			],
			"min":[
				-0.4150000214576721,
				0.5299999713897705,
				0.05300000309944153
			],
			"type":"VEC3"
		},
		{
			"bufferView":12,
			"componentType":5126,
			"count":102,
			"type":"VEC3"
		},
		{
			"bufferView":13,
			"componentType":5126,
			"count":102,
			"type":"VEC3"
		},
		{
			"bufferView":14,
			"componentType":5123,
			"count":150,
			"type":"SCALAR"
		},
		{
			"bufferView":15,
			"componentType":5126,
			"count":2,
			"max":[
				1
			],
			"min":[
				0
			],
			"type":"SCALAR"
		},
		{
			"bufferView":16,
			"componentType":5126,
			"count":2,
			"type":"VEC3"
		},
		{
			"bufferView":17,
			"componentType":5126,
			"count":2,
			"type":"VEC4"
		},
		{
			"bufferView":18,
			"componentType":5126,
			"count":2,
			"type":"VEC3"
		},
		{
			"bufferView":19,
			"componentType":5126,
			"count":2,
			"type":"VEC3"
		},
		{
			"bufferView":20,
			"componentType":5126,
			"count":31,
			"max":[
				1
			],
			"min":[
				0
			],
			"type":"SCALAR"
		},
		{
			"bufferView":21,
			"componentType":5126,
			"count":31,
			"type":"VEC4"
		},
		{
			"bufferView":22,
			"componentType":5126,
			"count":2,
			"type":"VEC3"
		},
		{
			"bufferView":23,
			"componentType":5126,
			"count":31,
			"type":"VEC4"
		},
		{
			"bufferView":24,
			"componentType":5126,
			"count":2,
			"type":"VEC3"
		},
		{
			"bufferView":25,
			"componentType":5126,
			"count":2,
			"type":"VEC3"
		},
		{
			"bufferView":26,
			"componentType":5126,
			"count":2,
			"type":"VEC3"
		},
		{
			"bufferView":27,
			"componentType":5126,
			"count":2,
			"type":"VEC4"
		},
		{
			"bufferView":28,
			"componentType":5126,
			"count":2,
			"type":"VEC3"
		},
		{
			"bufferView":29,
			"componentType":5126,
			"count":2,
			"type":"VEC3"
		},
		{
			"bufferView":30,
			"componentType":5126,
			"count":2,
			"type":"VEC4"
		},
		{
			"bufferView":31,
			"componentType":5126,
			"count":2,
			"type":"VEC3"
		},
		{
			"bufferView":32,
			"componentType":5126,
			"count":2,
			"type":"VEC3"
		},
		{
			"bufferView":33,
			"componentType":5126,
			"count":2,
			"type":"VEC4"
		},
		{
			"bufferView":34,
			"componentType":5126,
			"count":2,
			"type":"VEC3"
		},
		{
			"bufferView":35,
			"componentType":5126,
			"count":2,
			"type":"VEC4"
		},
		{
			"bufferView":36,
			"componentType":5126,
			"count":2,
			"type":"VEC3"
		},
		{
			"bufferView":37,
			"componentType":5126,
			"count":2,
			"type":"VEC3"
		},
		{
			"bufferView":38,
			"componentType":5126,
			"count":31,
			"type":"VEC4"
		},
		{
			"bufferView":39,
			"componentType":5126,
			"count":2,
			"type":"VEC3"
		},
		{
			"bufferView":40,
			"componentType":5126,
			"count":31,
			"type":"VEC4"
		},
		{
			"bufferView":41,
			"componentType":5126,
			"count":2,
			"type":"VEC3"
		},
		{
			"bufferView":42,
			"componentType":5126,
			"count":2,
			"type":"VEC3"
		},
		{
			"bufferView":43,
			"componentType":5126,
			"count":2,
			"type":"VEC4"
		},
		{
			"bufferView":44,
			"componentType":5126,
			"count":2,
			"type":"VEC3"
		},
		{
			"bufferView":45,
			"componentType":5126,
			"count":2,
			"type":"VEC3"
		},
		{
			"bufferView":46,
			"componentType":5126,
			"count":31,
			"type":"VEC4"
		},
		{
			"bufferView":47,
			"componentType":5126,
			"count":2,
			"type":"VEC3"
		},
		{
			"bufferView":48,
			"componentType":5126,
			"count":31,
			"type":"VEC4"
		},
		{
			"bufferView":49,
			"componentType":5126,
			"count":2,
			"type":"VEC3"
		},
		{
			"bufferView":50,
			"componentType":5126,
			"count":2,
			"type":"VEC4"
		},
		{
			"bufferView":51,
			"componentType":5126,
			"count":2,
			"type":"VEC3"
		},
		{
			"bufferView":52,
			"componentType":5126,
			"count":31,
			"type":"VEC4"
		},
		{
			"bufferView":53,
			"componentType":5126,
			"count":2,
			"type":"VEC3"
		},
		{
			"bufferView":54,
			"componentType":5126,
			"count":2,
			"type":"VEC3"
		},
		{
			"bufferView":55,
			"componentType":5126,
			"count":31,
			"type":"VEC4"
		},
		{
			"bufferView":56,
			"componentType":5126,
			"count":2,
			"type":"VEC3"
		},
		{
			"bufferView":57,
			"componentType":5126,
			"count":2,
			"type":"VEC3"
		},
		{
			"bufferView":58,
			"componentType":5126,
			"count":2,
			"type":"VEC4"
		},
		{
			"bufferView":59,
			"componentType":5126,
			"count":2,
			"type":"VEC3"
		},
		{
			"bufferView":60,
			"componentType":5126,
			"count":181,
			"max":[
				6
			],
			"min":[
				0
			],
			"type":"SCALAR"
		},
		{
			"bufferView":61,
			"componentType":5126,
			"count":181,
			"type":"VEC3"
		},
		{
			"bufferView":62,
			"componentType":5126,
			"count":2,
			"max":[
				6
			],
			"min":[
				0
			],
			"type":"SCALAR"
		},
		{
			"bufferView":63,
			"componentType":5126,
			"count":181,
			"type":"VEC4"
		},
		{
			"bufferView":64,
			"componentType":5126,
			"count":181,
			"type":"VEC4"
		},
		{
			"bufferView":65,
			"componentType":5126,
			"count":181,
			"type":"VEC4"
		},
		{
			"bufferView":66,
			"componentType":5126,
			"count":2,
			"type":"VEC3"
		},
		{
			"bufferView":67,
			"componentType":5126,
			"count":2,
			"type":"VEC4"
		},
		{
			"bufferView":68,
			"componentType":5126,
			"count":2,
			"type":"VEC3"
		},
		{
			"bufferView":69,
			"componentType":5126,
			"count":181,
			"type":"VEC4"
		},
		{
			"bufferView":70,
			"componentType":5126,
			"count":2,
			"type":"VEC3"
		},
		{
			"bufferView":71,
			"componentType":5126,
			"count":2,
			"type":"VEC3"
		},
		{
			"bufferView":72,
			"componentType":5126,
			"count":2,
			"type":"VEC4"
		},
		{
			"bufferView":73,
			"componentType":5126,
			"count":2,
			"type":"VEC3"
		},
		{
			"bufferView":74,
			"componentType":5126,
			"count":2,
			"type":"VEC4"
		},
		{
			"bufferView":75,
			"componentType":5126,
			"count":2,
			"type":"VEC3"
		},
		{
			"bufferView":76,
			"componentType":5126,
			"count":2,
			"type":"VEC4"
		},
		{
			"bufferView":77,
			"componentType":5126,
			"count":2,
			"type":"VEC3"
		},
		{
			"bufferView":78,
			"componentType":5126,
			"count":2,
			"type":"VEC4"
		},
		{
			"bufferView":79,
			"componentType":5126,
			"count":2,
			"type":"VEC3"
		},
		{
			"bufferView":80,
			"componentType":5126,
			"count":2,
			"type":"VEC4"
		},
		{
			"bufferView":81,
			"componentType":5126,
			"count":2,
			"type":"VEC4"
		},
		{
			"bufferView":82,
			"componentType":5126,
			"count":2,
			"type":"VEC3"
		},
		{
			"bufferView":83,
			"componentType":5126,
			"count":2,
			"type":"VEC4"
		},
		{
			"bufferView":84,
			"componentType":5126,
			"count":2,
			"type":"VEC3"
		},
		{
			"bufferView":85,
			"componentType":5126,
			"count":2,
			"type":"VEC4"
		},
		{
			"bufferView":86,
			"componentType":5126,
			"count":2,
			"type":"VEC3"
		},
		{
			"bufferView":87,
			"componentType":5126,
			"count":2,
			"type":"VEC3"
		},
		{
			"bufferView":88,
			"componentType":5126,
			"count":2,
			"type":"VEC3"
		},
		{
			"bufferView":89,
			"componentType":5126,
			"count":31,
			"type":"VEC3"
		},
		{
			"bufferView":90,
			"componentType":5126,
			"count":31,
			"type":"VEC4"
		},
		{
			"bufferView":91,
			"componentType":5126,
			"count":2,
			"type":"VEC4"
		},
		{
			"bufferView":92,
			"componentType":5126,
			"count":2,
			"type":"VEC3"
		},
		{
			"bufferView":93,
			"componentType":5126,
			"count":31,
			"type":"VEC4"
		},
		{
			"bufferView":94,
			"componentType":5126,
			"count":2,
			"type":"VEC3"
		},
		{
			"bufferView":95,
			"componentType":5126,
			"count":2,
			"type":"VEC3"
		},
		{
			"bufferView":96,
			"componentType":5126,
			"count":31,
			"type":"VEC4"
		},
		{
			"bufferView":97,
			"componentType":5126,
			"count":2,
			"type":"VEC3"
		},
		{
			"bufferView":98,
			"componentType":5126,
			"count":31,
			"type":"VEC4"
		},
		{
			"bufferView":99,
			"componentType":5126,
			"count":2,
			"type":"VEC3"
		},
		{
			"bufferView":100,
			"componentType":5126,
			"count":31,
			"type":"VEC4"
		},
		{
			"bufferView":101,
			"componentType":5126,
			"count":2,
			"type":"VEC3"
		},
		{
			"bufferView":102,
			"componentType":5126,
			"count":2,
			"type":"VEC3"
		},
		{
			"bufferView":103,
			"componentType":5126,
			"count":2,
			"type":"VEC4"
		},
		{
			"bufferView":104,
			"componentType":5126,
			"count":2,
			"type":"VEC3"
		},
		{
			"bufferView":105,
			"componentType":5126,
			"count":2,
			"type":"VEC4"
		},
		{
			"bufferView":106,
			"componentType":5126,
			"count":2,
			"type":"VEC3"
		},
		{
			"bufferView":107,
			"componentType":5126,
			"count":2,
			"type":"VEC3"
		},
		{
			"bufferView":108,
			"componentType":5126,
			"count":31,
			"type":"VEC4"
		},
		{
			"bufferView":109,
			"componentType":5126,
			"count":2,
			"type":"VEC3"
		},
		{
			"bufferView":110,
			"componentType":5126,
			"count":2,
			"type":"VEC4"
		},
		{
			"bufferView":111,
			"componentType":5126,
			"count":2,
			"type":"VEC3"
		},
		{
			"bufferView":112,
			"componentType":5126,
			"count":2,
			"type":"VEC4"
		},
		{
			"bufferView":113,
			"componentType":5126,
			"count":2,
			"type":"VEC3"
		},
		{
			"bufferView":114,
			"componentType":5126,
			"count":31,
			"type":"VEC4"
		},
		{
			"bufferView":115,
			"componentType":5126,
			"count":2,
			"type":"VEC3"
		},
		{
			"bufferView":116,
			"componentType":5126,
			"count":31,
			"type":"VEC4"
		},
		{
			"bufferView":117,
			"componentType":5126,
			"count":2,
			"type":"VEC3"
		},
		{
			"bufferView":118,
			"componentType":5126,
			"count":31,
			"type":"VEC4"
		},
		{
			"bufferView":119,
			"componentType":5126,
			"count":2,
			"type":"VEC3"
		},
		{
			"bufferView":120,
			"componentType":5126,
			"count":31,
			"type":"VEC4"
		},
		{
			"bufferView":121,
			"componentType":5126,
			"count":2,
			"type":"VEC3"
		},
		{
			"bufferView":122,
			"componentType":5126,
			"count":31,
			"type":"VEC4"
		},
		{
			"bufferView":123,
			"componentType":5126,
			"count":2,
			"type":"VEC3"
		},
		{
			"bufferView":124,
			"componentType":5126,
			"count":31,
			"type":"VEC4"
		}
	],
	"bufferViews":[
		{
			"buffer":0,
			"byteLength":86256,
			"byteOffset":0,
			"target":34962
		},
		{
			"buffer":0,
			"byteLength":86256,
			"byteOffset":86256,
			"target":34962
		},
		{
			"buffer":0,
			"byteLength":86256,
			"byteOffset":172512,
			"target":34962
		},
		{
			"buffer":0,
			"byteLength":28752,
			"byteOffset":258768,
			"target":34962
		},
		{
			"buffer":0,
			"byteLength":115008,
			"byteOffset":287520,
			"target":34962
		},
		{
			"buffer":0,
			"byteLength":21084,
			"byteOffset":402528,
			"target":34963
		},
		{
			"buffer":0,
			"byteLength":1152,
			"byteOffset":423612
		},
		{
			"buffer":0,
			"byteLength":1224,
			"byteOffset":424764,
			"target":34962
		},
		{
			"buffer":0,
			"byteLength":1224,
			"byteOffset":425988,
			"target":34962
		},
		{
			"buffer":0,
			"byteLength":1224,
			"byteOffset":427212,
			"target":34962
		},
		{
			"buffer":0,
			"byteLength":300,
			"byteOffset":428436,
			"target":34963
		},
		{
			"buffer":0,
			"byteLength":1224,
			"byteOffset":428736,
			"target":34962
		},
		{
			"buffer":0,
			"byteLength":1224,
			"byteOffset":429960,
			"target":34962
		},
		{
			"buffer":0,
			"byteLength":1224,
			"byteOffset":431184,
			"target":34962
		},
		{
			"buffer":0,
			"byteLength":300,
			"byteOffset":432408,
			"target":34963
		},
		{
			"buffer":0,
			"byteLength":8,
			"byteOffset":432708
		},
		{
			"buffer":0,
			"byteLength":24,
			"byteOffset":432716
		},
		{
			"buffer":0,
			"byteLength":32,
			"byteOffset":432740
		},
		{
			"buffer":0,
			"byteLength":24,
			"byteOffset":432772
		},
		{
			"buffer":0,
			"byteLength":24,
			"byteOffset":432796
		},
		{
			"buffer":0,
			"byteLength":124,
			"byteOffset":432820
		},
		{
			"buffer":0,
			"byteLength":496,
			"byteOffset":432944
		},
		{
			"buffer":0,
			"byteLength":24,
			"byteOffset":433440
		},
		{
			"buffer":0,
			"byteLength":496,
			"byteOffset":433464
		},
		{
			"buffer":0,
			"byteLength":24,
			"byteOffset":433960
		},
		{
			"buffer":0,
			"byteLength":24,
			"byteOffset":433984
		},
		{
			"buffer":0,
			"byteLength":24,
			"byteOffset":434008
		},
		{
			"buffer":0,
			"byteLength":32,
			"byteOffset":434032
		},
		{
			"buffer":0,
			"byteLength":24,
			"byteOffset":434064
		},
		{
			"buffer":0,
			"byteLength":24,
			"byteOffset":434088
		},
		{
			"buffer":0,
			"byteLength":32,
			"byteOffset":434112
		},
		{
			"buffer":0,
			"byteLength":24,
			"byteOffset":434144
		},
		{
			"buffer":0,
			"byteLength":24,
			"byteOffset":434168
		},
		{
			"buffer":0,
			"byteLength":32,
			"byteOffset":434192
		},
		{
			"buffer":0,
			"byteLength":24,
			"byteOffset":434224
		},
		{
			"buffer":0,
			"byteLength":32,
			"byteOffset":434248
		},
		{
			"buffer":0,
			"byteLength":24,
			"byteOffset":434280
		},
		{
			"buffer":0,
			"byteLength":24,
			"byteOffset":434304
		},
		{
			"buffer":0,
			"byteLength":496,
			"byteOffset":434328
		},
		{
			"buffer":0,
			"byteLength":24,
			"byteOffset":434824
		},
		{
			"buffer":0,
			"byteLength":496,
			"byteOffset":434848
		},
		{
			"buffer":0,
			"byteLength":24,
			"byteOffset":435344
		},
		{
			"buffer":0,
			"byteLength":24,
			"byteOffset":435368
		},
		{
			"buffer":0,
			"byteLength":32,
			"byteOffset":435392
		},
		{
			"buffer":0,
			"byteLength":24,
			"byteOffset":435424
		},
		{
			"buffer":0,
			"byteLength":24,
			"byteOffset":435448
		},
		{
			"buffer":0,
			"byteLength":496,
			"byteOffset":435472
		},
		{
			"buffer":0,
			"byteLength":24,
			"byteOffset":435968
		},
		{
			"buffer":0,
			"byteLength":496,
			"byteOffset":435992
		},
		{
			"buffer":0,
			"byteLength":24,
			"byteOffset":436488
		},
		{
			"buffer":0,
			"byteLength":32,
			"byteOffset":436512
		},
		{
			"buffer":0,
			"byteLength":24,
			"byteOffset":436544
		},
		{
			"buffer":0,
			"byteLength":496,
			"byteOffset":436568
		},
		{
			"buffer":0,
			"byteLength":24,
			"byteOffset":437064
		},
		{
			"buffer":0,
			"byteLength":24,
			"byteOffset":437088
		},
		{
			"buffer":0,
			"byteLength":496,
			"byteOffset":437112
		},
		{
			"buffer":0,
			"byteLength":24,
			"byteOffset":437608
		},
		{
			"buffer":0,
			"byteLength":24,
			"byteOffset":437632
		},
		{
			"buffer":0,
			"byteLength":32,
			"byteOffset":437656
		},
		{
			"buffer":0,
			"byteLength":24,
			"byteOffset":437688
		},
		{
			"buffer":0,
			"byteLength":724,
			"byteOffset":437712
		},
		{
			"buffer":0,
			"byteLength":2172,
			"byteOffset":438436
		},
		{
			"buffer":0,
			"byteLength":8,
			"byteOffset":440608
		},
		{
			"buffer":0,
			"byteLength":2896,
			"byteOffset":440616
		},
		{
			"buffer":0,
			"byteLength":2896,
			"byteOffset":443512
		},
		{
			"buffer":0,
			"byteLength":2896,
			"byteOffset":446408
		},
		{
			"buffer":0,
			"byteLength":24,
			"byteOffset":449304
		},
		{
			"buffer":0,
			"byteLength":32,
			"byteOffset":449328
		},
		{
			"buffer":0,
			"byteLength":24,
			"byteOffset":449360
		},
		{
			"buffer":0,
			"byteLength":2896,
			"byteOffset":449384
		},
		{
			"buffer":0,
			"byteLength":24,
			"byteOffset":452280
		},
		{
			"buffer":0,
			"byteLength":24,
			"byteOffset":452304
		},
		{
			"buffer":0,
			"byteLength":32,
			"byteOffset":452328
		},
		{
			"buffer":0,
			"byteLength":24,
			"byteOffset":452360
		},
		{
			"buffer":0,
			"byteLength":32,
			"byteOffset":452384
		},
		{
			"buffer":0,
			"byteLength":24,
			"byteOffset":452416
		},
		{
			"buffer":0,
			"byteLength":32,
			"byteOffset":452440
		},
		{
			"buffer":0,
			"byteLength":24,
			"byteOffset":452472
		},
		{
			"buffer":0,
			"byteLength":32,
			"byteOffset":452496
		},
		{
			"buffer":0,
			"byteLength":24,
			"byteOffset":452528
		},
		{
			"buffer":0,
			"byteLength":32,
			"byteOffset":452552
		},
		{
			"buffer":0,
			"byteLength":32,
			"byteOffset":452584
		},
		{
			"buffer":0,
			"byteLength":24,
			"byteOffset":452616
		},
		{
			"buffer":0,
			"byteLength":32,
			"byteOffset":452640
		},
		{
			"buffer":0,
			"byteLength":24,
			"byteOffset":452672
		},
		{
			"buffer":0,
			"byteLength":32,
			"byteOffset":452696
		},
		{
			"buffer":0,
			"byteLength":24,
			"byteOffset":452728
		},
		{
			"buffer":0,
			"byteLength":24,
			"byteOffset":452752
		},
		{
			"buffer":0,
			"byteLength":24,
			"byteOffset":452776
		},
		{
			"buffer":0,
			"byteLength":372,
			"byteOffset":452800
		},
		{
			"buffer":0,
			"byteLength":496,
			"byteOffset":453172
		},
		{
			"buffer":0,
			"byteLength":32,
			"byteOffset":453668
		},
		{
			"buffer":0,
			"byteLength":24,
			"byteOffset":453700
		},
		{
			"buffer":0,
			"byteLength":496,
			"byteOffset":453724
		},
		{
			"buffer":0,
			"byteLength":24,
			"byteOffset":454220
		},
		{
			"buffer":0,
			"byteLength":24,
			"byteOffset":454244
		},
		{
			"buffer":0,
			"byteLength":496,
			"byteOffset":454268
		},
		{
			"buffer":0,
			"byteLength":24,
			"byteOffset":454764
		},
		{
			"buffer":0,
			"byteLength":496,
			"byteOffset":454788
		},
		{
			"buffer":0,
			"byteLength":24,
			"byteOffset":455284
		},
		{
			"buffer":0,
			"byteLength":496,
			"byteOffset":455308
		},
		{
			"buffer":0,
			"byteLength":24,
			"byteOffset":455804
		},
		{
			"buffer":0,
			"byteLength":24,
			"byteOffset":455828
		},
		{
			"buffer":0,
			"byteLength":32,
			"byteOffset":455852
		},
		{
			"buffer":0,
			"byteLength":24,
			"byteOffset":455884
		},
		{
			"buffer":0,
			"byteLength":32,
			"byteOffset":455908
		},
		{
			"buffer":0,
			"byteLength":24,
			"byteOffset":455940
		},
		{
			"buffer":0,
			"byteLength":24,
			"byteOffset":455964
		},
		{
			"buffer":0,
			"byteLength":496,
			"byteOffset":455988
		},
		{
			"buffer":0,
			"byteLength":24,
			"byteOffset":456484
		},
		{
			"buffer":0,
			"byteLength":32,
			"byteOffset":456508
		},
		{
			"buffer":0,
			"byteLength":24,
			"byteOffset":456540
		},
		{
			"buffer":0,
			"byteLength":32,
			"byteOffset":456564
		},
		{
			"buffer":0,
			"byteLength":24,
			"byteOffset":456596
		},
		{
			"buffer":0,
			"byteLength":496,
			"byteOffset":456620
		},
		{
			"buffer":0,
			"byteLength":24,
			"byteOffset":457116
		},
		{
			"buffer":0,
			"byteLength":496,
			"byteOffset":457140
		},
		{
			"buffer":0,
			"byteLength":24,
			"byteOffset":457636
		},
		{
			"buffer":0,
			"byteLength":496,
			"byteOffset":457660
		},
		{
			"buffer":0,
			"byteLength":24,
			"byteOffset":458156
		},
		{
			"buffer":0,
			"byteLength":496,
			"byteOffset":458180
		},
		{
			"buffer":0,
			"byteLength":24,
			"byteOffset":458676
		},
		{
			"buffer":0,
			"byteLength":496,
			"byteOffset":458700
		},
		{
			"buffer":0,
			"byteLength":24,
			"byteOffset":459196
		},
		{
			"buffer":0,
			"byteLength":496,
			"byteOffset":459220
		}
	],
	"buffers":[
		{
			"byteLength":459716,
			"uri":"schattenmeuchler.bin"
		}
	]
}
