{
	"asset":{
		"generator":"Khronos glTF Blender I/O v5.2.40",
		"version":"2.0"
	},
	"scene":0,
	"scenes":[
		{
			"name":"Scene",
			"nodes":[
				14
			]
		}
	],
	"nodes":[
		{
			"name":"Bein.HL.unten",
			"rotation":[
				0.2872413098812103,
				0.0006264254916459322,
				0.013495374470949173,
				0.9577630162239075
			],
			"scale":[
				1,
				0.9999998807907104,
				1.0000001192092896
			],
			"translation":[
				1.5170721567869805e-08,
				0.3339696228504181,
				-3.580522189849944e-08
			]
		},
		{
			"children":[
				0
			],
			"name":"Bein.HL.oben",
			"rotation":[
				3.1223787999579145e-08,
				-0.7664021253585815,
				0.6423611044883728,
				2.405862176146911e-07
			],
			"scale":[
				1,
				1.0000004768371582,
				1
			],
			"translation":[
				-0.14850002527236938,
				0.03479142114520073,
				-0.08361053466796875
			]
		},
		{
			"name":"Bein.HR.unten",
			"rotation":[
				0.2872413098812103,
				-0.0006266819545999169,
				-0.013495326042175293,
				0.9577630162239075
			],
			"scale":[
				1,
				0.9999998807907104,
				1
			],
			"translation":[
				2.695461631674334e-10,
				0.3339696228504181,
				6.00289240537677e-09
			]
		},
		{
			"children":[
				2
			],
			"name":"Bein.HR.oben",
			"rotation":[
				3.1223787999579145e-08,
				-0.7664021253585815,
				0.6423611044883728,
				2.405862176146911e-07
			],
			"scale":[
				1,
				1.0000004768371582,
				1
			],
			"translation":[
				0.1484999656677246,
				0.03479139134287834,
				-0.0836106464266777
			]
		},
		{
			"name":"Bein.VL.unten",
			"rotation":[
				-0.08073461800813675,
				7.396495504963241e-08,
				-1.7471352364850645e-08,
				0.996735692024231
			],
			"translation":[
				-2.974543278355668e-08,
				0.40522265434265137,
				-1.475711641774069e-08
			]
		},
		{
			"children":[
				4
			],
			"name":"Bein.VL.oben",
			"rotation":[
				1.2990460618311772e-07,
				-0.6698973774909973,
				0.7424536943435669,
				1.3043384683442127e-07
			],
			"scale":[
				1,
				1.0000003576278687,
				1
			],
			"translation":[
				-0.1350000649690628,
				0.9371179938316345,
				-0.14627183973789215
			]
		},
		{
			"name":"Bein.VR.unten",
			"rotation":[
				-0.08073461800813675,
				7.396495504963241e-08,
				-1.7471352364850645e-08,
				0.996735692024231
			],
			"translation":[
				5.688871596021272e-11,
				0.40522268414497375,
				-2.0633141417647494e-08
			]
		},
		{
			"children":[
				6
			],
			"name":"Bein.VR.oben",
			"rotation":[
				1.2990460618311772e-07,
				-0.6698973774909973,
				0.7424536943435669,
				1.3043384683442127e-07
			],
			"scale":[
				1,
				1.0000003576278687,
				1
			],
			"translation":[
				0.13499994575977325,
				0.9371180534362793,
				-0.1462719589471817
			]
		},
		{
			"name":"Kopf",
			"rotation":[
				-0.25379639863967896,
				1.1530665489090097e-07,
				8.067669199363081e-09,
				0.9672576785087585
			],
			"translation":[
				0,
				0.5193548202514648,
				2.9802322387695312e-08
			]
		},
		{
			"children":[
				8
			],
			"name":"Hals",
			"rotation":[
				0.20726852118968964,
				1.166206828884242e-07,
				-5.6005454496244056e-08,
				0.9782841205596924
			],
			"translation":[
				-3.907985046680551e-14,
				0.9743409752845764,
				1.1175870895385742e-08
			]
		},
		{
			"name":"Schwanz2",
			"rotation":[
				0.09727498143911362,
				1.117327801461454e-12,
				-1.0920694822622382e-13,
				0.995257556438446
			],
			"scale":[
				1,
				1.0000001192092896,
				1
			],
			"translation":[
				0,
				0.37241309881210327,
				1.1920928955078125e-07
			]
		},
		{
			"children":[
				10
			],
			"name":"Schwanz1",
			"rotation":[
				1.832222835673747e-07,
				-0.3383975327014923,
				0.9410032629966736,
				6.588839340793129e-08
			],
			"scale":[
				1,
				1.0000001192092896,
				1.0000001192092896
			],
			"translation":[
				8.886427593779445e-09,
				-0.13374029099941254,
				0.022819887846708298
			]
		},
		{
			"children":[
				1,
				3,
				5,
				7,
				9,
				11
			],
			"name":"Koerper",
			"rotation":[
				1.328241552300824e-07,
				0.731190025806427,
				0.6821738481521606,
				1.4236795209399133e-07
			],
			"scale":[
				1,
				1.000000238418579,
				1.000005841255188
			],
			"translation":[
				0,
				0.9449999928474426,
				-0.48600003123283386
			]
		},
		{
			"mesh":0,
			"name":"Schattenwolf",
			"skin":0
		},
		{
			"children":[
				13,
				12
			],
			"name":"SchattenwolfSkelett"
		}
	],
	"animations":[
		{
			"channels":[
				{
					"sampler":0,
					"target":{
						"node":12,
						"path":"translation"
					}
				},
				{
					"sampler":1,
					"target":{
						"node":12,
						"path":"rotation"
					}
				},
				{
					"sampler":2,
					"target":{
						"node":12,
						"path":"scale"
					}
				},
				{
					"sampler":3,
					"target":{
						"node":1,
						"path":"translation"
					}
				},
				{
					"sampler":4,
					"target":{
						"node":1,
						"path":"rotation"
					}
				},
				{
					"sampler":5,
					"target":{
						"node":1,
						"path":"scale"
					}
				},
				{
					"sampler":6,
					"target":{
						"node":0,
						"path":"translation"
					}
				},
				{
					"sampler":7,
					"target":{
						"node":0,
						"path":"rotation"
					}
				},
				{
					"sampler":8,
					"target":{
						"node":0,
						"path":"scale"
					}
				},
				{
					"sampler":9,
					"target":{
						"node":3,
						"path":"translation"
					}
				},
				{
					"sampler":10,
					"target":{
						"node":3,
						"path":"rotation"
					}
				},
				{
					"sampler":11,
					"target":{
						"node":3,
						"path":"scale"
					}
				},
				{
					"sampler":12,
					"target":{
						"node":2,
						"path":"translation"
					}
				},
				{
					"sampler":13,
					"target":{
						"node":2,
						"path":"rotation"
					}
				},
				{
					"sampler":14,
					"target":{
						"node":2,
						"path":"scale"
					}
				},
				{
					"sampler":15,
					"target":{
						"node":5,
						"path":"translation"
					}
				},
				{
					"sampler":16,
					"target":{
						"node":5,
						"path":"rotation"
					}
				},
				{
					"sampler":17,
					"target":{
						"node":5,
						"path":"scale"
					}
				},
				{
					"sampler":18,
					"target":{
						"node":4,
						"path":"translation"
					}
				},
				{
					"sampler":19,
					"target":{
						"node":4,
						"path":"rotation"
					}
				},
				{
					"sampler":20,
					"target":{
						"node":4,
						"path":"scale"
					}
				},
				{
					"sampler":21,
					"target":{
						"node":7,
						"path":"translation"
					}
				},
				{
					"sampler":22,
					"target":{
						"node":7,
						"path":"rotation"
					}
				},
				{
					"sampler":23,
					"target":{
						"node":7,
						"path":"scale"
					}
				},
				{
					"sampler":24,
					"target":{
						"node":6,
						"path":"translation"
					}
				},
				{
					"sampler":25,
					"target":{
						"node":6,
						"path":"rotation"
					}
				},
				{
					"sampler":26,
					"target":{
						"node":6,
						"path":"scale"
					}
				},
				{
					"sampler":27,
					"target":{
						"node":9,
						"path":"translation"
					}
				},
				{
					"sampler":28,
					"target":{
						"node":9,
						"path":"rotation"
					}
				},
				{
					"sampler":29,
					"target":{
						"node":9,
						"path":"scale"
					}
				},
				{
					"sampler":30,
					"target":{
						"node":8,
						"path":"translation"
					}
				},
				{
					"sampler":31,
					"target":{
						"node":8,
						"path":"rotation"
					}
				},
				{
					"sampler":32,
					"target":{
						"node":8,
						"path":"scale"
					}
				},
				{
					"sampler":33,
					"target":{
						"node":11,
						"path":"translation"
					}
				},
				{
					"sampler":34,
					"target":{
						"node":11,
						"path":"rotation"
					}
				},
				{
					"sampler":35,
					"target":{
						"node":11,
						"path":"scale"
					}
				},
				{
					"sampler":36,
					"target":{
						"node":10,
						"path":"translation"
					}
				},
				{
					"sampler":37,
					"target":{
						"node":10,
						"path":"rotation"
					}
				},
				{
					"sampler":38,
					"target":{
						"node":10,
						"path":"scale"
					}
				}
			],
			"name":"Angriff",
			"samplers":[
				{
					"input":7,
					"interpolation":"LINEAR",
					"output":8
				},
				{
					"input":7,
					"interpolation":"LINEAR",
					"output":9
				},
				{
					"input":10,
					"interpolation":"STEP",
					"output":11
				},
				{
					"input":10,
					"interpolation":"STEP",
					"output":12
				},
				{
					"input":7,
					"interpolation":"LINEAR",
					"output":13
				},
				{
					"input":10,
					"interpolation":"STEP",
					"output":14
				},
				{
					"input":10,
					"interpolation":"STEP",
					"output":15
				},
				{
					"input":7,
					"interpolation":"LINEAR",
					"output":16
				},
				{
					"input":10,
					"interpolation":"STEP",
					"output":17
				},
				{
					"input":10,
					"interpolation":"STEP",
					"output":18
				},
				{
					"input":7,
					"interpolation":"LINEAR",
					"output":13
				},
				{
					"input":10,
					"interpolation":"STEP",
					"output":14
				},
				{
					"input":10,
					"interpolation":"STEP",
					"output":19
				},
				{
					"input":7,
					"interpolation":"LINEAR",
					"output":20
				},
				{
					"input":10,
					"interpolation":"STEP",
					"output":17
				},
				{
					"input":10,
					"interpolation":"STEP",
					"output":21
				},
				{
					"input":7,
					"interpolation":"LINEAR",
					"output":22
				},
				{
					"input":10,
					"interpolation":"STEP",
					"output":23
				},
				{
					"input":10,
					"interpolation":"STEP",
					"output":24
				},
				{
					"input":7,
					"interpolation":"LINEAR",
					"output":25
				},
				{
					"input":10,
					"interpolation":"STEP",
					"output":17
				},
				{
					"input":10,
					"interpolation":"STEP",
					"output":26
				},
				{
					"input":7,
					"interpolation":"LINEAR",
					"output":22
				},
				{
					"input":10,
					"interpolation":"STEP",
					"output":23
				},
				{
					"input":10,
					"interpolation":"STEP",
					"output":27
				},
				{
					"input":7,
					"interpolation":"LINEAR",
					"output":25
				},
				{
					"input":10,
					"interpolation":"STEP",
					"output":17
				},
				{
					"input":10,
					"interpolation":"STEP",
					"output":28
				},
				{
					"input":7,
					"interpolation":"LINEAR",
					"output":29
				},
				{
					"input":10,
					"interpolation":"STEP",
					"output":17
				},
				{
					"input":10,
					"interpolation":"STEP",
					"output":30
				},
				{
					"input":7,
					"interpolation":"LINEAR",
					"output":31
				},
				{
					"input":10,
					"interpolation":"STEP",
					"output":32
				},
				{
					"input":10,
					"interpolation":"STEP",
					"output":33
				},
				{
					"input":10,
					"interpolation":"STEP",
					"output":34
				},
				{
					"input":10,
					"interpolation":"STEP",
					"output":35
				},
				{
					"input":10,
					"interpolation":"STEP",
					"output":36
				},
				{
					"input":10,
					"interpolation":"STEP",
					"output":37
				},
				{
					"input":10,
					"interpolation":"STEP",
					"output":35
				}
			]
		},
		{
			"channels":[
				{
					"sampler":0,
					"target":{
						"node":12,
						"path":"translation"
					}
				},
				{
					"sampler":1,
					"target":{
						"node":12,
						"path":"rotation"
					}
				},
				{
					"sampler":2,
					"target":{
						"node":12,
						"path":"scale"
					}
				},
				{
					"sampler":3,
					"target":{
						"node":1,
						"path":"translation"
					}
				},
				{
					"sampler":4,
					"target":{
						"node":1,
						"path":"rotation"
					}
				},
				{
					"sampler":5,
					"target":{
						"node":1,
						"path":"scale"
					}
				},
				{
					"sampler":6,
					"target":{
						"node":0,
						"path":"translation"
					}
				},
				{
					"sampler":7,
					"target":{
						"node":0,
						"path":"rotation"
					}
				},
				{
					"sampler":8,
					"target":{
						"node":0,
						"path":"scale"
					}
				},
				{
					"sampler":9,
					"target":{
						"node":3,
						"path":"translation"
					}
				},
				{
					"sampler":10,
					"target":{
						"node":3,
						"path":"rotation"
					}
				},
				{
					"sampler":11,
					"target":{
						"node":3,
						"path":"scale"
					}
				},
				{
					"sampler":12,
					"target":{
						"node":2,
						"path":"translation"
					}
				},
				{
					"sampler":13,
					"target":{
						"node":2,
						"path":"rotation"
					}
				},
				{
					"sampler":14,
					"target":{
						"node":2,
						"path":"scale"
					}
				},
				{
					"sampler":15,
					"target":{
						"node":5,
						"path":"translation"
					}
				},
				{
					"sampler":16,
					"target":{
						"node":5,
						"path":"rotation"
					}
				},
				{
					"sampler":17,
					"target":{
						"node":5,
						"path":"scale"
					}
				},
				{
					"sampler":18,
					"target":{
						"node":4,
						"path":"translation"
					}
				},
				{
					"sampler":19,
					"target":{
						"node":4,
						"path":"rotation"
					}
				},
				{
					"sampler":20,
					"target":{
						"node":4,
						"path":"scale"
					}
				},
				{
					"sampler":21,
					"target":{
						"node":7,
						"path":"translation"
					}
				},
				{
					"sampler":22,
					"target":{
						"node":7,
						"path":"rotation"
					}
				},
				{
					"sampler":23,
					"target":{
						"node":7,
						"path":"scale"
					}
				},
				{
					"sampler":24,
					"target":{
						"node":6,
						"path":"translation"
					}
				},
				{
					"sampler":25,
					"target":{
						"node":6,
						"path":"rotation"
					}
				},
				{
					"sampler":26,
					"target":{
						"node":6,
						"path":"scale"
					}
				},
				{
					"sampler":27,
					"target":{
						"node":9,
						"path":"translation"
					}
				},
				{
					"sampler":28,
					"target":{
						"node":9,
						"path":"rotation"
					}
				},
				{
					"sampler":29,
					"target":{
						"node":9,
						"path":"scale"
					}
				},
				{
					"sampler":30,
					"target":{
						"node":8,
						"path":"translation"
					}
				},
				{
					"sampler":31,
					"target":{
						"node":8,
						"path":"rotation"
					}
				},
				{
					"sampler":32,
					"target":{
						"node":8,
						"path":"scale"
					}
				},
				{
					"sampler":33,
					"target":{
						"node":11,
						"path":"translation"
					}
				},
				{
					"sampler":34,
					"target":{
						"node":11,
						"path":"rotation"
					}
				},
				{
					"sampler":35,
					"target":{
						"node":11,
						"path":"scale"
					}
				},
				{
					"sampler":36,
					"target":{
						"node":10,
						"path":"translation"
					}
				},
				{
					"sampler":37,
					"target":{
						"node":10,
						"path":"rotation"
					}
				},
				{
					"sampler":38,
					"target":{
						"node":10,
						"path":"scale"
					}
				}
			],
			"name":"Idle",
			"samplers":[
				{
					"input":38,
					"interpolation":"LINEAR",
					"output":39
				},
				{
					"input":40,
					"interpolation":"STEP",
					"output":41
				},
				{
					"input":40,
					"interpolation":"STEP",
					"output":11
				},
				{
					"input":40,
					"interpolation":"STEP",
					"output":12
				},
				{
					"input":40,
					"interpolation":"STEP",
					"output":42
				},
				{
					"input":40,
					"interpolation":"STEP",
					"output":14
				},
				{
					"input":40,
					"interpolation":"STEP",
					"output":15
				},
				{
					"input":40,
					"interpolation":"STEP",
					"output":43
				},
				{
					"input":40,
					"interpolation":"STEP",
					"output":17
				},
				{
					"input":40,
					"interpolation":"STEP",
					"output":18
				},
				{
					"input":40,
					"interpolation":"STEP",
					"output":42
				},
				{
					"input":40,
					"interpolation":"STEP",
					"output":14
				},
				{
					"input":40,
					"interpolation":"STEP",
					"output":19
				},
				{
					"input":40,
					"interpolation":"STEP",
					"output":44
				},
				{
					"input":40,
					"interpolation":"STEP",
					"output":17
				},
				{
					"input":40,
					"interpolation":"STEP",
					"output":21
				},
				{
					"input":40,
					"interpolation":"STEP",
					"output":45
				},
				{
					"input":40,
					"interpolation":"STEP",
					"output":23
				},
				{
					"input":40,
					"interpolation":"STEP",
					"output":24
				},
				{
					"input":40,
					"interpolation":"STEP",
					"output":46
				},
				{
					"input":40,
					"interpolation":"STEP",
					"output":17
				},
				{
					"input":40,
					"interpolation":"STEP",
					"output":26
				},
				{
					"input":40,
					"interpolation":"STEP",
					"output":45
				},
				{
					"input":40,
					"interpolation":"STEP",
					"output":23
				},
				{
					"input":40,
					"interpolation":"STEP",
					"output":27
				},
				{
					"input":40,
					"interpolation":"STEP",
					"output":46
				},
				{
					"input":40,
					"interpolation":"STEP",
					"output":17
				},
				{
					"input":40,
					"interpolation":"STEP",
					"output":28
				},
				{
					"input":38,
					"interpolation":"LINEAR",
					"output":47
				},
				{
					"input":40,
					"interpolation":"STEP",
					"output":17
				},
				{
					"input":40,
					"interpolation":"STEP",
					"output":48
				},
				{
					"input":38,
					"interpolation":"LINEAR",
					"output":49
				},
				{
					"input":40,
					"interpolation":"STEP",
					"output":35
				},
				{
					"input":40,
					"interpolation":"STEP",
					"output":33
				},
				{
					"input":38,
					"interpolation":"LINEAR",
					"output":50
				},
				{
					"input":40,
					"interpolation":"STEP",
					"output":35
				},
				{
					"input":40,
					"interpolation":"STEP",
					"output":36
				},
				{
					"input":38,
					"interpolation":"LINEAR",
					"output":51
				},
				{
					"input":40,
					"interpolation":"STEP",
					"output":35
				}
			]
		},
		{
			"channels":[
				{
					"sampler":0,
					"target":{
						"node":12,
						"path":"translation"
					}
				},
				{
					"sampler":1,
					"target":{
						"node":12,
						"path":"rotation"
					}
				},
				{
					"sampler":2,
					"target":{
						"node":12,
						"path":"scale"
					}
				},
				{
					"sampler":3,
					"target":{
						"node":1,
						"path":"translation"
					}
				},
				{
					"sampler":4,
					"target":{
						"node":1,
						"path":"rotation"
					}
				},
				{
					"sampler":5,
					"target":{
						"node":1,
						"path":"scale"
					}
				},
				{
					"sampler":6,
					"target":{
						"node":0,
						"path":"translation"
					}
				},
				{
					"sampler":7,
					"target":{
						"node":0,
						"path":"rotation"
					}
				},
				{
					"sampler":8,
					"target":{
						"node":0,
						"path":"scale"
					}
				},
				{
					"sampler":9,
					"target":{
						"node":3,
						"path":"translation"
					}
				},
				{
					"sampler":10,
					"target":{
						"node":3,
						"path":"rotation"
					}
				},
				{
					"sampler":11,
					"target":{
						"node":3,
						"path":"scale"
					}
				},
				{
					"sampler":12,
					"target":{
						"node":2,
						"path":"translation"
					}
				},
				{
					"sampler":13,
					"target":{
						"node":2,
						"path":"rotation"
					}
				},
				{
					"sampler":14,
					"target":{
						"node":2,
						"path":"scale"
					}
				},
				{
					"sampler":15,
					"target":{
						"node":5,
						"path":"translation"
					}
				},
				{
					"sampler":16,
					"target":{
						"node":5,
						"path":"rotation"
					}
				},
				{
					"sampler":17,
					"target":{
						"node":5,
						"path":"scale"
					}
				},
				{
					"sampler":18,
					"target":{
						"node":4,
						"path":"translation"
					}
				},
				{
					"sampler":19,
					"target":{
						"node":4,
						"path":"rotation"
					}
				},
				{
					"sampler":20,
					"target":{
						"node":4,
						"path":"scale"
					}
				},
				{
					"sampler":21,
					"target":{
						"node":7,
						"path":"translation"
					}
				},
				{
					"sampler":22,
					"target":{
						"node":7,
						"path":"rotation"
					}
				},
				{
					"sampler":23,
					"target":{
						"node":7,
						"path":"scale"
					}
				},
				{
					"sampler":24,
					"target":{
						"node":6,
						"path":"translation"
					}
				},
				{
					"sampler":25,
					"target":{
						"node":6,
						"path":"rotation"
					}
				},
				{
					"sampler":26,
					"target":{
						"node":6,
						"path":"scale"
					}
				},
				{
					"sampler":27,
					"target":{
						"node":9,
						"path":"translation"
					}
				},
				{
					"sampler":28,
					"target":{
						"node":9,
						"path":"rotation"
					}
				},
				{
					"sampler":29,
					"target":{
						"node":9,
						"path":"scale"
					}
				},
				{
					"sampler":30,
					"target":{
						"node":8,
						"path":"translation"
					}
				},
				{
					"sampler":31,
					"target":{
						"node":8,
						"path":"rotation"
					}
				},
				{
					"sampler":32,
					"target":{
						"node":8,
						"path":"scale"
					}
				},
				{
					"sampler":33,
					"target":{
						"node":11,
						"path":"translation"
					}
				},
				{
					"sampler":34,
					"target":{
						"node":11,
						"path":"rotation"
					}
				},
				{
					"sampler":35,
					"target":{
						"node":11,
						"path":"scale"
					}
				},
				{
					"sampler":36,
					"target":{
						"node":10,
						"path":"translation"
					}
				},
				{
					"sampler":37,
					"target":{
						"node":10,
						"path":"rotation"
					}
				},
				{
					"sampler":38,
					"target":{
						"node":10,
						"path":"scale"
					}
				}
			],
			"name":"Laufen",
			"samplers":[
				{
					"input":52,
					"interpolation":"LINEAR",
					"output":53
				},
				{
					"input":54,
					"interpolation":"STEP",
					"output":41
				},
				{
					"input":54,
					"interpolation":"STEP",
					"output":11
				},
				{
					"input":54,
					"interpolation":"STEP",
					"output":12
				},
				{
					"input":52,
					"interpolation":"LINEAR",
					"output":55
				},
				{
					"input":54,
					"interpolation":"STEP",
					"output":14
				},
				{
					"input":54,
					"interpolation":"STEP",
					"output":56
				},
				{
					"input":52,
					"interpolation":"LINEAR",
					"output":57
				},
				{
					"input":54,
					"interpolation":"STEP",
					"output":58
				},
				{
					"input":54,
					"interpolation":"STEP",
					"output":18
				},
				{
					"input":52,
					"interpolation":"LINEAR",
					"output":59
				},
				{
					"input":54,
					"interpolation":"STEP",
					"output":14
				},
				{
					"input":54,
					"interpolation":"STEP",
					"output":60
				},
				{
					"input":52,
					"interpolation":"LINEAR",
					"output":61
				},
				{
					"input":54,
					"interpolation":"STEP",
					"output":62
				},
				{
					"input":54,
					"interpolation":"STEP",
					"output":21
				},
				{
					"input":52,
					"interpolation":"LINEAR",
					"output":63
				},
				{
					"input":54,
					"interpolation":"STEP",
					"output":23
				},
				{
					"input":54,
					"interpolation":"STEP",
					"output":64
				},
				{
					"input":52,
					"interpolation":"LINEAR",
					"output":65
				},
				{
					"input":54,
					"interpolation":"STEP",
					"output":66
				},
				{
					"input":54,
					"interpolation":"STEP",
					"output":26
				},
				{
					"input":52,
					"interpolation":"LINEAR",
					"output":67
				},
				{
					"input":54,
					"interpolation":"STEP",
					"output":68
				},
				{
					"input":54,
					"interpolation":"STEP",
					"output":69
				},
				{
					"input":52,
					"interpolation":"LINEAR",
					"output":70
				},
				{
					"input":54,
					"interpolation":"STEP",
					"output":17
				},
				{
					"input":54,
					"interpolation":"STEP",
					"output":28
				},
				{
					"input":54,
					"interpolation":"STEP",
					"output":71
				},
				{
					"input":54,
					"interpolation":"STEP",
					"output":17
				},
				{
					"input":54,
					"interpolation":"STEP",
					"output":30
				},
				{
					"input":52,
					"interpolation":"LINEAR",
					"output":72
				},
				{
					"input":54,
					"interpolation":"STEP",
					"output":35
				},
				{
					"input":54,
					"interpolation":"STEP",
					"output":33
				},
				{
					"input":52,
					"interpolation":"LINEAR",
					"output":73
				},
				{
					"input":54,
					"interpolation":"STEP",
					"output":35
				},
				{
					"input":54,
					"interpolation":"STEP",
					"output":36
				},
				{
					"input":52,
					"interpolation":"LINEAR",
					"output":74
				},
				{
					"input":54,
					"interpolation":"STEP",
					"output":35
				}
			]
		},
		{
			"channels":[
				{
					"sampler":0,
					"target":{
						"node":12,
						"path":"translation"
					}
				},
				{
					"sampler":1,
					"target":{
						"node":12,
						"path":"rotation"
					}
				},
				{
					"sampler":2,
					"target":{
						"node":12,
						"path":"scale"
					}
				},
				{
					"sampler":3,
					"target":{
						"node":1,
						"path":"translation"
					}
				},
				{
					"sampler":4,
					"target":{
						"node":1,
						"path":"rotation"
					}
				},
				{
					"sampler":5,
					"target":{
						"node":1,
						"path":"scale"
					}
				},
				{
					"sampler":6,
					"target":{
						"node":0,
						"path":"translation"
					}
				},
				{
					"sampler":7,
					"target":{
						"node":0,
						"path":"rotation"
					}
				},
				{
					"sampler":8,
					"target":{
						"node":0,
						"path":"scale"
					}
				},
				{
					"sampler":9,
					"target":{
						"node":3,
						"path":"translation"
					}
				},
				{
					"sampler":10,
					"target":{
						"node":3,
						"path":"rotation"
					}
				},
				{
					"sampler":11,
					"target":{
						"node":3,
						"path":"scale"
					}
				},
				{
					"sampler":12,
					"target":{
						"node":2,
						"path":"translation"
					}
				},
				{
					"sampler":13,
					"target":{
						"node":2,
						"path":"rotation"
					}
				},
				{
					"sampler":14,
					"target":{
						"node":2,
						"path":"scale"
					}
				},
				{
					"sampler":15,
					"target":{
						"node":5,
						"path":"translation"
					}
				},
				{
					"sampler":16,
					"target":{
						"node":5,
						"path":"rotation"
					}
				},
				{
					"sampler":17,
					"target":{
						"node":5,
						"path":"scale"
					}
				},
				{
					"sampler":18,
					"target":{
						"node":4,
						"path":"translation"
					}
				},
				{
					"sampler":19,
					"target":{
						"node":4,
						"path":"rotation"
					}
				},
				{
					"sampler":20,
					"target":{
						"node":4,
						"path":"scale"
					}
				},
				{
					"sampler":21,
					"target":{
						"node":7,
						"path":"translation"
					}
				},
				{
					"sampler":22,
					"target":{
						"node":7,
						"path":"rotation"
					}
				},
				{
					"sampler":23,
					"target":{
						"node":7,
						"path":"scale"
					}
				},
				{
					"sampler":24,
					"target":{
						"node":6,
						"path":"translation"
					}
				},
				{
					"sampler":25,
					"target":{
						"node":6,
						"path":"rotation"
					}
				},
				{
					"sampler":26,
					"target":{
						"node":6,
						"path":"scale"
					}
				},
				{
					"sampler":27,
					"target":{
						"node":9,
						"path":"translation"
					}
				},
				{
					"sampler":28,
					"target":{
						"node":9,
						"path":"rotation"
					}
				},
				{
					"sampler":29,
					"target":{
						"node":9,
						"path":"scale"
					}
				},
				{
					"sampler":30,
					"target":{
						"node":8,
						"path":"translation"
					}
				},
				{
					"sampler":31,
					"target":{
						"node":8,
						"path":"rotation"
					}
				},
				{
					"sampler":32,
					"target":{
						"node":8,
						"path":"scale"
					}
				},
				{
					"sampler":33,
					"target":{
						"node":11,
						"path":"translation"
					}
				},
				{
					"sampler":34,
					"target":{
						"node":11,
						"path":"rotation"
					}
				},
				{
					"sampler":35,
					"target":{
						"node":11,
						"path":"scale"
					}
				},
				{
					"sampler":36,
					"target":{
						"node":10,
						"path":"translation"
					}
				},
				{
					"sampler":37,
					"target":{
						"node":10,
						"path":"rotation"
					}
				},
				{
					"sampler":38,
					"target":{
						"node":10,
						"path":"scale"
					}
				}
			],
			"name":"Rennen",
			"samplers":[
				{
					"input":75,
					"interpolation":"LINEAR",
					"output":76
				},
				{
					"input":75,
					"interpolation":"LINEAR",
					"output":77
				},
				{
					"input":78,
					"interpolation":"STEP",
					"output":79
				},
				{
					"input":78,
					"interpolation":"STEP",
					"output":80
				},
				{
					"input":75,
					"interpolation":"LINEAR",
					"output":81
				},
				{
					"input":78,
					"interpolation":"STEP",
					"output":14
				},
				{
					"input":78,
					"interpolation":"STEP",
					"output":82
				},
				{
					"input":75,
					"interpolation":"LINEAR",
					"output":83
				},
				{
					"input":78,
					"interpolation":"STEP",
					"output":17
				},
				{
					"input":78,
					"interpolation":"STEP",
					"output":84
				},
				{
					"input":75,
					"interpolation":"LINEAR",
					"output":85
				},
				{
					"input":78,
					"interpolation":"STEP",
					"output":14
				},
				{
					"input":78,
					"interpolation":"STEP",
					"output":86
				},
				{
					"input":75,
					"interpolation":"LINEAR",
					"output":87
				},
				{
					"input":78,
					"interpolation":"STEP",
					"output":17
				},
				{
					"input":78,
					"interpolation":"STEP",
					"output":88
				},
				{
					"input":75,
					"interpolation":"LINEAR",
					"output":89
				},
				{
					"input":78,
					"interpolation":"STEP",
					"output":90
				},
				{
					"input":78,
					"interpolation":"STEP",
					"output":91
				},
				{
					"input":75,
					"interpolation":"LINEAR",
					"output":92
				},
				{
					"input":78,
					"interpolation":"STEP",
					"output":93
				},
				{
					"input":78,
					"interpolation":"STEP",
					"output":94
				},
				{
					"input":75,
					"interpolation":"LINEAR",
					"output":95
				},
				{
					"input":78,
					"interpolation":"STEP",
					"output":96
				},
				{
					"input":78,
					"interpolation":"STEP",
					"output":97
				},
				{
					"input":75,
					"interpolation":"LINEAR",
					"output":98
				},
				{
					"input":78,
					"interpolation":"STEP",
					"output":93
				},
				{
					"input":78,
					"interpolation":"STEP",
					"output":99
				},
				{
					"input":78,
					"interpolation":"STEP",
					"output":100
				},
				{
					"input":78,
					"interpolation":"STEP",
					"output":35
				},
				{
					"input":78,
					"interpolation":"STEP",
					"output":101
				},
				{
					"input":75,
					"interpolation":"LINEAR",
					"output":102
				},
				{
					"input":78,
					"interpolation":"STEP",
					"output":32
				},
				{
					"input":78,
					"interpolation":"STEP",
					"output":103
				},
				{
					"input":75,
					"interpolation":"LINEAR",
					"output":104
				},
				{
					"input":78,
					"interpolation":"STEP",
					"output":96
				},
				{
					"input":78,
					"interpolation":"STEP",
					"output":105
				},
				{
					"input":75,
					"interpolation":"LINEAR",
					"output":106
				},
				{
					"input":78,
					"interpolation":"STEP",
					"output":17
				}
			]
		}
	],
	"materials":[
		{
			"doubleSided":true,
			"name":"Schattenwolf",
			"pbrMetallicRoughness":{
				"metallicFactor":0,
				"roughnessFactor":0.8999999761581421
			}
		}
	],
	"meshes":[
		{
			"name":"Schattenwolf",
			"primitives":[
				{
					"attributes":{
						"POSITION":0,
						"NORMAL":1,
						"COLOR_0":2,
						"JOINTS_0":3,
						"WEIGHTS_0":4
					},
					"indices":5,
					"material":0
				}
			]
		}
	],
	"skins":[
		{
			"inverseBindMatrices":6,
			"joints":[
				12,
				1,
				0,
				3,
				2,
				5,
				4,
				7,
				6,
				9,
				8,
				11,
				10
			],
			"name":"SchattenwolfSkelett"
		}
	],
	"accessors":[
		{
			"bufferView":0,
			"componentType":5126,
			"count":5374,
			"max":[
				0.28699561953544617,
				1.5255000591278076,
				1.616399884223938
			],
			"min":[
				-0.288790225982666,
				0,
				-1.2954967021942139
			],
			"type":"VEC3"
		},
		{
			"bufferView":1,
			"componentType":5126,
			"count":5374,
			"type":"VEC3"
		},
		{
			"bufferView":2,
			"componentType":5126,
			"count":5374,
			"type":"VEC3"
		},
		{
			"bufferView":3,
			"componentType":5121,
			"count":5374,
			"type":"VEC4"
		},
		{
			"bufferView":4,
			"componentType":5126,
			"count":5374,
			"type":"VEC4"
		},
		{
			"bufferView":5,
			"componentType":5123,
			"count":28158,
			"type":"SCALAR"
		},
		{
			"bufferView":6,
			"componentType":5126,
			"count":13,
			"type":"MAT4"
		},
		{
			"bufferView":7,
			"componentType":5126,
			"count":29,
			"max":[
				0.9333333333333333
			],
			"min":[
				0
			],
			"type":"SCALAR"
		},
		{
			"bufferView":8,
			"componentType":5126,
			"count":29,
			"type":"VEC3"
		},
		{
			"bufferView":9,
			"componentType":5126,
			"count":29,
			"type":"VEC4"
		},
		{
			"bufferView":10,
			"componentType":5126,
			"count":2,
			"max":[
				0.9333333333333333
			],
			"min":[
				0
			],
			"type":"SCALAR"
		},
		{
			"bufferView":11,
			"componentType":5126,
			"count":2,
			"type":"VEC3"
		},
		{
			"bufferView":12,
			"componentType":5126,
			"count":2,
			"type":"VEC3"
		},
		{
			"bufferView":13,
			"componentType":5126,
			"count":29,
			"type":"VEC4"
		},
		{
			"bufferView":14,
			"componentType":5126,
			"count":2,
			"type":"VEC3"
		},
		{
			"bufferView":15,
			"componentType":5126,
			"count":2,
			"type":"VEC3"
		},
		{
			"bufferView":16,
			"componentType":5126,
			"count":29,
			"type":"VEC4"
		},
		{
			"bufferView":17,
			"componentType":5126,
			"count":2,
			"type":"VEC3"
		},
		{
			"bufferView":18,
			"componentType":5126,
			"count":2,
			"type":"VEC3"
		},
		{
			"bufferView":19,
			"componentType":5126,
			"count":2,
			"type":"VEC3"
		},
		{
			"bufferView":20,
			"componentType":5126,
			"count":29,
			"type":"VEC4"
		},
		{
			"bufferView":21,
			"componentType":5126,
			"count":2,
			"type":"VEC3"
		},
		{
			"bufferView":22,
			"componentType":5126,
			"count":29,
			"type":"VEC4"
		},
		{
			"bufferView":23,
			"componentType":5126,
			"count":2,
			"type":"VEC3"
		},
		{
			"bufferView":24,
			"componentType":5126,
			"count":2,
			"type":"VEC3"
		},
		{
			"bufferView":25,
			"componentType":5126,
			"count":29,
			"type":"VEC4"
		},
		{
			"bufferView":26,
			"componentType":5126,
			"count":2,
			"type":"VEC3"
		},
		{
			"bufferView":27,
			"componentType":5126,
			"count":2,
			"type":"VEC3"
		},
		{
			"bufferView":28,
			"componentType":5126,
			"count":2,
			"type":"VEC3"
		},
		{
			"bufferView":29,
			"componentType":5126,
			"count":29,
			"type":"VEC4"
		},
		{
			"bufferView":30,
			"componentType":5126,
			"count":2,
			"type":"VEC3"
		},
		{
			"bufferView":31,
			"componentType":5126,
			"count":29,
			"type":"VEC4"
		},
		{
			"bufferView":32,
			"componentType":5126,
			"count":2,
			"type":"VEC3"
		},
		{
			"bufferView":33,
			"componentType":5126,
			"count":2,
			"type":"VEC3"
		},
		{
			"bufferView":34,
			"componentType":5126,
			"count":2,
			"type":"VEC4"
		},
		{
			"bufferView":35,
			"componentType":5126,
			"count":2,
			"type":"VEC3"
		},
		{
			"bufferView":36,
			"componentType":5126,
			"count":2,
			"type":"VEC3"
		},
		{
			"bufferView":37,
			"componentType":5126,
			"count":2,
			"type":"VEC4"
		},
		{
			"bufferView":38,
			"componentType":5126,
			"count":181,
			"max":[
				6
			],
			"min":[
				0
			],
			"type":"SCALAR"
		},
		{
			"bufferView":39,
			"componentType":5126,
			"count":181,
			"type":"VEC3"
		},
		{
			"bufferView":40,
			"componentType":5126,
			"count":2,
			"max":[
				6
			],
			"min":[
				0
			],
			"type":"SCALAR"
		},
		{
			"bufferView":41,
			"componentType":5126,
			"count":2,
			"type":"VEC4"
		},
		{
			"bufferView":42,
			"componentType":5126,
			"count":2,
			"type":"VEC4"
		},
		{
			"bufferView":43,
			"componentType":5126,
			"count":2,
			"type":"VEC4"
		},
		{
			"bufferView":44,
			"componentType":5126,
			"count":2,
			"type":"VEC4"
		},
		{
			"bufferView":45,
			"componentType":5126,
			"count":2,
			"type":"VEC4"
		},
		{
			"bufferView":46,
			"componentType":5126,
			"count":2,
			"type":"VEC4"
		},
		{
			"bufferView":47,
			"componentType":5126,
			"count":181,
			"type":"VEC4"
		},
		{
			"bufferView":48,
			"componentType":5126,
			"count":2,
			"type":"VEC3"
		},
		{
			"bufferView":49,
			"componentType":5126,
			"count":181,
			"type":"VEC4"
		},
		{
			"bufferView":50,
			"componentType":5126,
			"count":181,
			"type":"VEC4"
		},
		{
			"bufferView":51,
			"componentType":5126,
			"count":181,
			"type":"VEC4"
		},
		{
			"bufferView":52,
			"componentType":5126,
			"count":23,
			"max":[
				0.7333333333333333
			],
			"min":[
				0
			],
			"type":"SCALAR"
		},
		{
			"bufferView":53,
			"componentType":5126,
			"count":23,
			"type":"VEC3"
		},
		{
			"bufferView":54,
			"componentType":5126,
			"count":2,
			"max":[
				0.7333333333333333
			],
			"min":[
				0
			],
			"type":"SCALAR"
		},
		{
			"bufferView":55,
			"componentType":5126,
			"count":23,
			"type":"VEC4"
		},
		{
			"bufferView":56,
			"componentType":5126,
			"count":2,
			"type":"VEC3"
		},
		{
			"bufferView":57,
			"componentType":5126,
			"count":23,
			"type":"VEC4"
		},
		{
			"bufferView":58,
			"componentType":5126,
			"count":2,
			"type":"VEC3"
		},
		{
			"bufferView":59,
			"componentType":5126,
			"count":23,
			"type":"VEC4"
		},
		{
			"bufferView":60,
			"componentType":5126,
			"count":2,
			"type":"VEC3"
		},
		{
			"bufferView":61,
			"componentType":5126,
			"count":23,
			"type":"VEC4"
		},
		{
			"bufferView":62,
			"componentType":5126,
			"count":2,
			"type":"VEC3"
		},
		{
			"bufferView":63,
			"componentType":5126,
			"count":23,
			"type":"VEC4"
		},
		{
			"bufferView":64,
			"componentType":5126,
			"count":2,
			"type":"VEC3"
		},
		{
			"bufferView":65,
			"componentType":5126,
			"count":23,
			"type":"VEC4"
		},
		{
			"bufferView":66,
			"componentType":5126,
			"count":2,
			"type":"VEC3"
		},
		{
			"bufferView":67,
			"componentType":5126,
			"count":23,
			"type":"VEC4"
		},
		{
			"bufferView":68,
			"componentType":5126,
			"count":2,
			"type":"VEC3"
		},
		{
			"bufferView":69,
			"componentType":5126,
			"count":2,
			"type":"VEC3"
		},
		{
			"bufferView":70,
			"componentType":5126,
			"count":23,
			"type":"VEC4"
		},
		{
			"bufferView":71,
			"componentType":5126,
			"count":2,
			"type":"VEC4"
		},
		{
			"bufferView":72,
			"componentType":5126,
			"count":23,
			"type":"VEC4"
		},
		{
			"bufferView":73,
			"componentType":5126,
			"count":23,
			"type":"VEC4"
		},
		{
			"bufferView":74,
			"componentType":5126,
			"count":23,
			"type":"VEC4"
		},
		{
			"bufferView":75,
			"componentType":5126,
			"count":15,
			"max":[
				0.4666666666666667
			],
			"min":[
				0
			],
			"type":"SCALAR"
		},
		{
			"bufferView":76,
			"componentType":5126,
			"count":15,
			"type":"VEC3"
		},
		{
			"bufferView":77,
			"componentType":5126,
			"count":15,
			"type":"VEC4"
		},
		{
			"bufferView":78,
			"componentType":5126,
			"count":2,
			"max":[
				0.4666666666666667
			],
			"min":[
				0
			],
			"type":"SCALAR"
		},
		{
			"bufferView":79,
			"componentType":5126,
			"count":2,
			"type":"VEC3"
		},
		{
			"bufferView":80,
			"componentType":5126,
			"count":2,
			"type":"VEC3"
		},
		{
			"bufferView":81,
			"componentType":5126,
			"count":15,
			"type":"VEC4"
		},
		{
			"bufferView":82,
			"componentType":5126,
			"count":2,
			"type":"VEC3"
		},
		{
			"bufferView":83,
			"componentType":5126,
			"count":15,
			"type":"VEC4"
		},
		{
			"bufferView":84,
			"componentType":5126,
			"count":2,
			"type":"VEC3"
		},
		{
			"bufferView":85,
			"componentType":5126,
			"count":15,
			"type":"VEC4"
		},
		{
			"bufferView":86,
			"componentType":5126,
			"count":2,
			"type":"VEC3"
		},
		{
			"bufferView":87,
			"componentType":5126,
			"count":15,
			"type":"VEC4"
		},
		{
			"bufferView":88,
			"componentType":5126,
			"count":2,
			"type":"VEC3"
		},
		{
			"bufferView":89,
			"componentType":5126,
			"count":15,
			"type":"VEC4"
		},
		{
			"bufferView":90,
			"componentType":5126,
			"count":2,
			"type":"VEC3"
		},
		{
			"bufferView":91,
			"componentType":5126,
			"count":2,
			"type":"VEC3"
		},
		{
			"bufferView":92,
			"componentType":5126,
			"count":15,
			"type":"VEC4"
		},
		{
			"bufferView":93,
			"componentType":5126,
			"count":2,
			"type":"VEC3"
		},
		{
			"bufferView":94,
			"componentType":5126,
			"count":2,
			"type":"VEC3"
		},
		{
			"bufferView":95,
			"componentType":5126,
			"count":15,
			"type":"VEC4"
		},
		{
			"bufferView":96,
			"componentType":5126,
			"count":2,
			"type":"VEC3"
		},
		{
			"bufferView":97,
			"componentType":5126,
			"count":2,
			"type":"VEC3"
		},
		{
			"bufferView":98,
			"componentType":5126,
			"count":15,
			"type":"VEC4"
		},
		{
			"bufferView":99,
			"componentType":5126,
			"count":2,
			"type":"VEC3"
		},
		{
			"bufferView":100,
			"componentType":5126,
			"count":2,
			"type":"VEC4"
		},
		{
			"bufferView":101,
			"componentType":5126,
			"count":2,
			"type":"VEC3"
		},
		{
			"bufferView":102,
			"componentType":5126,
			"count":15,
			"type":"VEC4"
		},
		{
			"bufferView":103,
			"componentType":5126,
			"count":2,
			"type":"VEC3"
		},
		{
			"bufferView":104,
			"componentType":5126,
			"count":15,
			"type":"VEC4"
		},
		{
			"bufferView":105,
			"componentType":5126,
			"count":2,
			"type":"VEC3"
		},
		{
			"bufferView":106,
			"componentType":5126,
			"count":15,
			"type":"VEC4"
		}
	],
	"bufferViews":[
		{
			"buffer":0,
			"byteLength":64488,
			"byteOffset":0,
			"target":34962
		},
		{
			"buffer":0,
			"byteLength":64488,
			"byteOffset":64488,
			"target":34962
		},
		{
			"buffer":0,
			"byteLength":64488,
			"byteOffset":128976,
			"target":34962
		},
		{
			"buffer":0,
			"byteLength":21496,
			"byteOffset":193464,
			"target":34962
		},
		{
			"buffer":0,
			"byteLength":85984,
			"byteOffset":214960,
			"target":34962
		},
		{
			"buffer":0,
			"byteLength":56316,
			"byteOffset":300944,
			"target":34963
		},
		{
			"buffer":0,
			"byteLength":832,
			"byteOffset":357260
		},
		{
			"buffer":0,
			"byteLength":116,
			"byteOffset":358092
		},
		{
			"buffer":0,
			"byteLength":348,
			"byteOffset":358208
		},
		{
			"buffer":0,
			"byteLength":464,
			"byteOffset":358556
		},
		{
			"buffer":0,
			"byteLength":8,
			"byteOffset":359020
		},
		{
			"buffer":0,
			"byteLength":24,
			"byteOffset":359028
		},
		{
			"buffer":0,
			"byteLength":24,
			"byteOffset":359052
		},
		{
			"buffer":0,
			"byteLength":464,
			"byteOffset":359076
		},
		{
			"buffer":0,
			"byteLength":24,
			"byteOffset":359540
		},
		{
			"buffer":0,
			"byteLength":24,
			"byteOffset":359564
		},
		{
			"buffer":0,
			"byteLength":464,
			"byteOffset":359588
		},
		{
			"buffer":0,
			"byteLength":24,
			"byteOffset":360052
		},
		{
			"buffer":0,
			"byteLength":24,
			"byteOffset":360076
		},
		{
			"buffer":0,
			"byteLength":24,
			"byteOffset":360100
		},
		{
			"buffer":0,
			"byteLength":464,
			"byteOffset":360124
		},
		{
			"buffer":0,
			"byteLength":24,
			"byteOffset":360588
		},
		{
			"buffer":0,
			"byteLength":464,
			"byteOffset":360612
		},
		{
			"buffer":0,
			"byteLength":24,
			"byteOffset":361076
		},
		{
			"buffer":0,
			"byteLength":24,
			"byteOffset":361100
		},
		{
			"buffer":0,
			"byteLength":464,
			"byteOffset":361124
		},
		{
			"buffer":0,
			"byteLength":24,
			"byteOffset":361588
		},
		{
			"buffer":0,
			"byteLength":24,
			"byteOffset":361612
		},
		{
			"buffer":0,
			"byteLength":24,
			"byteOffset":361636
		},
		{
			"buffer":0,
			"byteLength":464,
			"byteOffset":361660
		},
		{
			"buffer":0,
			"byteLength":24,
			"byteOffset":362124
		},
		{
			"buffer":0,
			"byteLength":464,
			"byteOffset":362148
		},
		{
			"buffer":0,
			"byteLength":24,
			"byteOffset":362612
		},
		{
			"buffer":0,
			"byteLength":24,
			"byteOffset":362636
		},
		{
			"buffer":0,
			"byteLength":32,
			"byteOffset":362660
		},
		{
			"buffer":0,
			"byteLength":24,
			"byteOffset":362692
		},
		{
			"buffer":0,
			"byteLength":24,
			"byteOffset":362716
		},
		{
			"buffer":0,
			"byteLength":32,
			"byteOffset":362740
		},
		{
			"buffer":0,
			"byteLength":724,
			"byteOffset":362772
		},
		{
			"buffer":0,
			"byteLength":2172,
			"byteOffset":363496
		},
		{
			"buffer":0,
			"byteLength":8,
			"byteOffset":365668
		},
		{
			"buffer":0,
			"byteLength":32,
			"byteOffset":365676
		},
		{
			"buffer":0,
			"byteLength":32,
			"byteOffset":365708
		},
		{
			"buffer":0,
			"byteLength":32,
			"byteOffset":365740
		},
		{
			"buffer":0,
			"byteLength":32,
			"byteOffset":365772
		},
		{
			"buffer":0,
			"byteLength":32,
			"byteOffset":365804
		},
		{
			"buffer":0,
			"byteLength":32,
			"byteOffset":365836
		},
		{
			"buffer":0,
			"byteLength":2896,
			"byteOffset":365868
		},
		{
			"buffer":0,
			"byteLength":24,
			"byteOffset":368764
		},
		{
			"buffer":0,
			"byteLength":2896,
			"byteOffset":368788
		},
		{
			"buffer":0,
			"byteLength":2896,
			"byteOffset":371684
		},
		{
			"buffer":0,
			"byteLength":2896,
			"byteOffset":374580
		},
		{
			"buffer":0,
			"byteLength":92,
			"byteOffset":377476
		},
		{
			"buffer":0,
			"byteLength":276,
			"byteOffset":377568
		},
		{
			"buffer":0,
			"byteLength":8,
			"byteOffset":377844
		},
		{
			"buffer":0,
			"byteLength":368,
			"byteOffset":377852
		},
		{
			"buffer":0,
			"byteLength":24,
			"byteOffset":378220
		},
		{
			"buffer":0,
			"byteLength":368,
			"byteOffset":378244
		},
		{
			"buffer":0,
			"byteLength":24,
			"byteOffset":378612
		},
		{
			"buffer":0,
			"byteLength":368,
			"byteOffset":378636
		},
		{
			"buffer":0,
			"byteLength":24,
			"byteOffset":379004
		},
		{
			"buffer":0,
			"byteLength":368,
			"byteOffset":379028
		},
		{
			"buffer":0,
			"byteLength":24,
			"byteOffset":379396
		},
		{
			"buffer":0,
			"byteLength":368,
			"byteOffset":379420
		},
		{
			"buffer":0,
			"byteLength":24,
			"byteOffset":379788
		},
		{
			"buffer":0,
			"byteLength":368,
			"byteOffset":379812
		},
		{
			"buffer":0,
			"byteLength":24,
			"byteOffset":380180
		},
		{
			"buffer":0,
			"byteLength":368,
			"byteOffset":380204
		},
		{
			"buffer":0,
			"byteLength":24,
			"byteOffset":380572
		},
		{
			"buffer":0,
			"byteLength":24,
			"byteOffset":380596
		},
		{
			"buffer":0,
			"byteLength":368,
			"byteOffset":380620
		},
		{
			"buffer":0,
			"byteLength":32,
			"byteOffset":380988
		},
		{
			"buffer":0,
			"byteLength":368,
			"byteOffset":381020
		},
		{
			"buffer":0,
			"byteLength":368,
			"byteOffset":381388
		},
		{
			"buffer":0,
			"byteLength":368,
			"byteOffset":381756
		},
		{
			"buffer":0,
			"byteLength":60,
			"byteOffset":382124
		},
		{
			"buffer":0,
			"byteLength":180,
			"byteOffset":382184
		},
		{
			"buffer":0,
			"byteLength":240,
			"byteOffset":382364
		},
		{
			"buffer":0,
			"byteLength":8,
			"byteOffset":382604
		},
		{
			"buffer":0,
			"byteLength":24,
			"byteOffset":382612
		},
		{
			"buffer":0,
			"byteLength":24,
			"byteOffset":382636
		},
		{
			"buffer":0,
			"byteLength":240,
			"byteOffset":382660
		},
		{
			"buffer":0,
			"byteLength":24,
			"byteOffset":382900
		},
		{
			"buffer":0,
			"byteLength":240,
			"byteOffset":382924
		},
		{
			"buffer":0,
			"byteLength":24,
			"byteOffset":383164
		},
		{
			"buffer":0,
			"byteLength":240,
			"byteOffset":383188
		},
		{
			"buffer":0,
			"byteLength":24,
			"byteOffset":383428
		},
		{
			"buffer":0,
			"byteLength":240,
			"byteOffset":383452
		},
		{
			"buffer":0,
			"byteLength":24,
			"byteOffset":383692
		},
		{
			"buffer":0,
			"byteLength":240,
			"byteOffset":383716
		},
		{
			"buffer":0,
			"byteLength":24,
			"byteOffset":383956
		},
		{
			"buffer":0,
			"byteLength":24,
			"byteOffset":383980
		},
		{
			"buffer":0,
			"byteLength":240,
			"byteOffset":384004
		},
		{
			"buffer":0,
			"byteLength":24,
			"byteOffset":384244
		},
		{
			"buffer":0,
			"byteLength":24,
			"byteOffset":384268
		},
		{
			"buffer":0,
			"byteLength":240,
			"byteOffset":384292
		},
		{
			"buffer":0,
			"byteLength":24,
			"byteOffset":384532
		},
		{
			"buffer":0,
			"byteLength":24,
			"byteOffset":384556
		},
		{
			"buffer":0,
			"byteLength":240,
			"byteOffset":384580
		},
		{
			"buffer":0,
			"byteLength":24,
			"byteOffset":384820
		},
		{
			"buffer":0,
			"byteLength":32,
			"byteOffset":384844
		},
		{
			"buffer":0,
			"byteLength":24,
			"byteOffset":384876
		},
		{
			"buffer":0,
			"byteLength":240,
			"byteOffset":384900
		},
		{
			"buffer":0,
			"byteLength":24,
			"byteOffset":385140
		},
		{
			"buffer":0,
			"byteLength":240,
			"byteOffset":385164
		},
		{
			"buffer":0,
			"byteLength":24,
			"byteOffset":385404
		},
		{
			"buffer":0,
			"byteLength":240,
			"byteOffset":385428
		}
	],
	"buffers":[
		{
			"byteLength":385668,
			"uri":"schattenwolf.bin"
		}
	]
}
