{
	"asset":{
		"generator":"Khronos glTF Blender I/O v5.2.40",
		"version":"2.0"
	},
	"scene":0,
	"scenes":[
		{
			"name":"Scene",
			"nodes":[
				21
			]
		}
	],
	"nodes":[
		{
			"name":"Hut",
			"rotation":[
				-0.5646035075187683,
				2.0283800949982833e-07,
				-1.3875485649350594e-07,
				0.8253622651100159
			],
			"scale":[
				1,
				1.0000001192092896,
				1
			],
			"translation":[
				0,
				0.33000004291534424,
				-0.019999999552965164
			]
		},
		{
			"children":[
				0
			],
			"name":"Kopf",
			"translation":[
				0,
				0.09000003337860107,
				0
			]
		},
		{
			"children":[
				1
			],
			"name":"Hals",
			"translation":[
				0,
				0.25999999046325684,
				0
			]
		},
		{
			"name":"Hand.L",
			"rotation":[
				-0.02993539348244667,
				-0.0012853139778599143,
				0.008676200173795223,
				0.9995133876800537
			],
			"scale":[
				1,
				0.9999998807907104,
				1
			],
			"translation":[
				-2.9709189774962397e-08,
				0.2567099928855896,
				-2.7939677238464355e-09
			]
		},
		{
			"mesh":1,
			"name":"Schild",
			"rotation":[
				-0.9934272170066833,
				-0.09836863726377487,
				-0.005767595488578081,
				0.05824718251824379
			],
			"scale":[
				1.0000001192092896,
				1,
				0.9999999403953552
			],
			"translation":[
				-0.5236302018165588,
				1.1339648962020874,
				0.1132953092455864
			]
		},
		{
			"children":[
				3,
				4
			],
			"name":"Unterarm.L",
			"rotation":[
				-0.09223336726427078,
				-0.0013973830500617623,
				0.056753627955913544,
				0.9941177368164062
			],
			"scale":[
				1,
				0.9999999403953552,
				1
			],
			"translation":[
				-6.705523913907996e-10,
				0.2947879731655121,
				-4.656612873077393e-10
			]
		},
		{
			"children":[
				5
			],
			"name":"Oberarm.L",
			"rotation":[
				-0.9873651266098022,
				-0.15478397905826569,
				0.0052567459642887115,
				0.03353271260857582
			],
			"scale":[
				0.9999997615814209,
				0.9999998211860657,
				1
			],
			"translation":[
				0.20000000298023224,
				0.20000004768371582,
				0
			]
		},
		{
			"mesh":2,
			"name":"Schwert",
			"rotation":[
				-0.9920610189437866,
				0.08945408463478088,
				0.007937991060316563,
				0.08803384751081467
			],
			"scale":[
				1.0000001192092896,
				1.000000238418579,
				1
			],
			"translation":[
				0.508034884929657,
				0.877810001373291,
				0.16718614101409912
			]
		},
		{
			"children":[
				7
			],
			"name":"Hand.R",
			"rotation":[
				-0.02993539348244667,
				0.0012853139778599143,
				-0.008676200173795223,
				0.9995133876800537
			],
			"scale":[
				1,
				0.9999998807907104,
				1
			],
			"translation":[
				2.9709189774962397e-08,
				0.2567099928855896,
				-2.7939677238464355e-09
			]
		},
		{
			"children":[
				8
			],
			"name":"Unterarm.R",
			"rotation":[
				-0.09223336726427078,
				0.0013973830500617623,
				-0.056753627955913544,
				0.9941177368164062
			],
			"scale":[
				1,
				0.9999999403953552,
				1
			],
			"translation":[
				6.705523913907996e-10,
				0.2947879731655121,
				-4.656612873077393e-10
			]
		},
		{
			"children":[
				9
			],
			"name":"Oberarm.R",
			"rotation":[
				-0.9873651266098022,
				0.15478397905826569,
				-0.0052567459642887115,
				0.03353271260857582
			],
			"scale":[
				0.9999997615814209,
				0.9999998211860657,
				1
			],
			"translation":[
				-0.20000000298023224,
				0.20000004768371582,
				0
			]
		},
		{
			"children":[
				2,
				6,
				10
			],
			"name":"Brust",
			"translation":[
				0,
				0.19999992847442627,
				0
			]
		},
		{
			"children":[
				11
			],
			"name":"Bauch",
			"translation":[
				0,
				0.15000003576278687,
				0
			]
		},
		{
			"name":"Fuss.L",
			"rotation":[
				1.1095015572948341e-08,
				0.8304529190063477,
				-0.5570888519287109,
				6.26974596684704e-08
			],
			"scale":[
				1,
				0.9999998807907104,
				0.9999998807907104
			],
			"translation":[
				-2.35995756270313e-09,
				0.42047592997550964,
				1.1594929461011816e-09
			]
		},
		{
			"children":[
				13
			],
			"name":"Unterschenkel.L",
			"rotation":[
				0.023789310827851295,
				9.13925006784666e-08,
				9.505255610386953e-11,
				0.9997169971466064
			],
			"scale":[
				1,
				0.9999999403953552,
				1
			],
			"translation":[
				0,
				0.4300000071525574,
				0
			]
		},
		{
			"children":[
				14
			],
			"name":"Oberschenkel.L",
			"rotation":[
				1,
				0,
				-4.371138828673793e-08,
				0
			],
			"translation":[
				0.10000000149011612,
				0,
				0
			]
		},
		{
			"name":"Fuss.R",
			"rotation":[
				1.1095015572948341e-08,
				0.8304529190063477,
				-0.5570888519287109,
				6.26974596684704e-08
			],
			"scale":[
				1,
				0.9999998807907104,
				0.9999998807907104
			],
			"translation":[
				-2.35995756270313e-09,
				0.42047592997550964,
				7.031522031297754e-10
			]
		},
		{
			"children":[
				16
			],
			"name":"Unterschenkel.R",
			"rotation":[
				0.023789310827851295,
				9.13925006784666e-08,
				9.505255610386953e-11,
				0.9997169971466064
			],
			"scale":[
				1,
				0.9999999403953552,
				1
			],
			"translation":[
				0,
				0.4300000071525574,
				0
			]
		},
		{
			"children":[
				17
			],
			"name":"Oberschenkel.R",
			"rotation":[
				1,
				0,
				-4.371138828673793e-08,
				0
			],
			"translation":[
				-0.10000000149011612,
				0,
				0
			]
		},
		{
			"children":[
				12,
				15,
				18
			],
			"name":"Becken",
			"translation":[
				0,
				0.949999988079071,
				0
			]
		},
		{
			"mesh":0,
			"name":"Skelettkrieger",
			"skin":0
		},
		{
			"children":[
				20,
				19
			],
			"name":"SkelettkriegerSkelett"
		}
	],
	"animations":[
		{
			"channels":[
				{
					"sampler":0,
					"target":{
						"node":19,
						"path":"translation"
					}
				},
				{
					"sampler":1,
					"target":{
						"node":19,
						"path":"rotation"
					}
				},
				{
					"sampler":2,
					"target":{
						"node":19,
						"path":"scale"
					}
				},
				{
					"sampler":3,
					"target":{
						"node":12,
						"path":"translation"
					}
				},
				{
					"sampler":4,
					"target":{
						"node":12,
						"path":"rotation"
					}
				},
				{
					"sampler":5,
					"target":{
						"node":12,
						"path":"scale"
					}
				},
				{
					"sampler":6,
					"target":{
						"node":11,
						"path":"translation"
					}
				},
				{
					"sampler":7,
					"target":{
						"node":11,
						"path":"rotation"
					}
				},
				{
					"sampler":8,
					"target":{
						"node":11,
						"path":"scale"
					}
				},
				{
					"sampler":9,
					"target":{
						"node":2,
						"path":"translation"
					}
				},
				{
					"sampler":10,
					"target":{
						"node":2,
						"path":"rotation"
					}
				},
				{
					"sampler":11,
					"target":{
						"node":2,
						"path":"scale"
					}
				},
				{
					"sampler":12,
					"target":{
						"node":1,
						"path":"translation"
					}
				},
				{
					"sampler":13,
					"target":{
						"node":1,
						"path":"rotation"
					}
				},
				{
					"sampler":14,
					"target":{
						"node":1,
						"path":"scale"
					}
				},
				{
					"sampler":15,
					"target":{
						"node":0,
						"path":"translation"
					}
				},
				{
					"sampler":16,
					"target":{
						"node":0,
						"path":"rotation"
					}
				},
				{
					"sampler":17,
					"target":{
						"node":0,
						"path":"scale"
					}
				},
				{
					"sampler":18,
					"target":{
						"node":6,
						"path":"translation"
					}
				},
				{
					"sampler":19,
					"target":{
						"node":6,
						"path":"rotation"
					}
				},
				{
					"sampler":20,
					"target":{
						"node":6,
						"path":"scale"
					}
				},
				{
					"sampler":21,
					"target":{
						"node":5,
						"path":"translation"
					}
				},
				{
					"sampler":22,
					"target":{
						"node":5,
						"path":"rotation"
					}
				},
				{
					"sampler":23,
					"target":{
						"node":5,
						"path":"scale"
					}
				},
				{
					"sampler":24,
					"target":{
						"node":3,
						"path":"translation"
					}
				},
				{
					"sampler":25,
					"target":{
						"node":3,
						"path":"rotation"
					}
				},
				{
					"sampler":26,
					"target":{
						"node":3,
						"path":"scale"
					}
				},
				{
					"sampler":27,
					"target":{
						"node":10,
						"path":"translation"
					}
				},
				{
					"sampler":28,
					"target":{
						"node":10,
						"path":"rotation"
					}
				},
				{
					"sampler":29,
					"target":{
						"node":10,
						"path":"scale"
					}
				},
				{
					"sampler":30,
					"target":{
						"node":9,
						"path":"translation"
					}
				},
				{
					"sampler":31,
					"target":{
						"node":9,
						"path":"rotation"
					}
				},
				{
					"sampler":32,
					"target":{
						"node":9,
						"path":"scale"
					}
				},
				{
					"sampler":33,
					"target":{
						"node":8,
						"path":"translation"
					}
				},
				{
					"sampler":34,
					"target":{
						"node":8,
						"path":"rotation"
					}
				},
				{
					"sampler":35,
					"target":{
						"node":8,
						"path":"scale"
					}
				},
				{
					"sampler":36,
					"target":{
						"node":15,
						"path":"translation"
					}
				},
				{
					"sampler":37,
					"target":{
						"node":15,
						"path":"rotation"
					}
				},
				{
					"sampler":38,
					"target":{
						"node":15,
						"path":"scale"
					}
				},
				{
					"sampler":39,
					"target":{
						"node":14,
						"path":"translation"
					}
				},
				{
					"sampler":40,
					"target":{
						"node":14,
						"path":"rotation"
					}
				},
				{
					"sampler":41,
					"target":{
						"node":14,
						"path":"scale"
					}
				},
				{
					"sampler":42,
					"target":{
						"node":13,
						"path":"translation"
					}
				},
				{
					"sampler":43,
					"target":{
						"node":13,
						"path":"rotation"
					}
				},
				{
					"sampler":44,
					"target":{
						"node":13,
						"path":"scale"
					}
				},
				{
					"sampler":45,
					"target":{
						"node":18,
						"path":"translation"
					}
				},
				{
					"sampler":46,
					"target":{
						"node":18,
						"path":"rotation"
					}
				},
				{
					"sampler":47,
					"target":{
						"node":18,
						"path":"scale"
					}
				},
				{
					"sampler":48,
					"target":{
						"node":17,
						"path":"translation"
					}
				},
				{
					"sampler":49,
					"target":{
						"node":17,
						"path":"rotation"
					}
				},
				{
					"sampler":50,
					"target":{
						"node":17,
						"path":"scale"
					}
				},
				{
					"sampler":51,
					"target":{
						"node":16,
						"path":"translation"
					}
				},
				{
					"sampler":52,
					"target":{
						"node":16,
						"path":"rotation"
					}
				},
				{
					"sampler":53,
					"target":{
						"node":16,
						"path":"scale"
					}
				}
			],
			"name":"Angriff",
			"samplers":[
				{
					"input":15,
					"interpolation":"STEP",
					"output":16
				},
				{
					"input":15,
					"interpolation":"STEP",
					"output":17
				},
				{
					"input":15,
					"interpolation":"STEP",
					"output":18
				},
				{
					"input":15,
					"interpolation":"STEP",
					"output":19
				},
				{
					"input":20,
					"interpolation":"LINEAR",
					"output":21
				},
				{
					"input":15,
					"interpolation":"STEP",
					"output":18
				},
				{
					"input":15,
					"interpolation":"STEP",
					"output":22
				},
				{
					"input":20,
					"interpolation":"LINEAR",
					"output":23
				},
				{
					"input":15,
					"interpolation":"STEP",
					"output":18
				},
				{
					"input":15,
					"interpolation":"STEP",
					"output":24
				},
				{
					"input":15,
					"interpolation":"STEP",
					"output":17
				},
				{
					"input":15,
					"interpolation":"STEP",
					"output":18
				},
				{
					"input":15,
					"interpolation":"STEP",
					"output":25
				},
				{
					"input":15,
					"interpolation":"STEP",
					"output":17
				},
				{
					"input":15,
					"interpolation":"STEP",
					"output":18
				},
				{
					"input":15,
					"interpolation":"STEP",
					"output":26
				},
				{
					"input":15,
					"interpolation":"STEP",
					"output":27
				},
				{
					"input":15,
					"interpolation":"STEP",
					"output":28
				},
				{
					"input":15,
					"interpolation":"STEP",
					"output":29
				},
				{
					"input":15,
					"interpolation":"STEP",
					"output":30
				},
				{
					"input":15,
					"interpolation":"STEP",
					"output":31
				},
				{
					"input":15,
					"interpolation":"STEP",
					"output":32
				},
				{
					"input":15,
					"interpolation":"STEP",
					"output":33
				},
				{
					"input":15,
					"interpolation":"STEP",
					"output":18
				},
				{
					"input":15,
					"interpolation":"STEP",
					"output":34
				},
				{
					"input":15,
					"interpolation":"STEP",
					"output":35
				},
				{
					"input":15,
					"interpolation":"STEP",
					"output":36
				},
				{
					"input":15,
					"interpolation":"STEP",
					"output":37
				},
				{
					"input":20,
					"interpolation":"LINEAR",
					"output":38
				},
				{
					"input":15,
					"interpolation":"STEP",
					"output":31
				},
				{
					"input":15,
					"interpolation":"STEP",
					"output":39
				},
				{
					"input":20,
					"interpolation":"LINEAR",
					"output":40
				},
				{
					"input":15,
					"interpolation":"STEP",
					"output":41
				},
				{
					"input":15,
					"interpolation":"STEP",
					"output":42
				},
				{
					"input":15,
					"interpolation":"STEP",
					"output":43
				},
				{
					"input":15,
					"interpolation":"STEP",
					"output":44
				},
				{
					"input":15,
					"interpolation":"STEP",
					"output":45
				},
				{
					"input":20,
					"interpolation":"LINEAR",
					"output":46
				},
				{
					"input":15,
					"interpolation":"STEP",
					"output":18
				},
				{
					"input":15,
					"interpolation":"STEP",
					"output":47
				},
				{
					"input":20,
					"interpolation":"LINEAR",
					"output":48
				},
				{
					"input":15,
					"interpolation":"STEP",
					"output":36
				},
				{
					"input":15,
					"interpolation":"STEP",
					"output":49
				},
				{
					"input":15,
					"interpolation":"STEP",
					"output":50
				},
				{
					"input":15,
					"interpolation":"STEP",
					"output":18
				},
				{
					"input":15,
					"interpolation":"STEP",
					"output":51
				},
				{
					"input":20,
					"interpolation":"LINEAR",
					"output":52
				},
				{
					"input":15,
					"interpolation":"STEP",
					"output":53
				},
				{
					"input":15,
					"interpolation":"STEP",
					"output":54
				},
				{
					"input":20,
					"interpolation":"LINEAR",
					"output":55
				},
				{
					"input":15,
					"interpolation":"STEP",
					"output":56
				},
				{
					"input":15,
					"interpolation":"STEP",
					"output":57
				},
				{
					"input":15,
					"interpolation":"STEP",
					"output":58
				},
				{
					"input":15,
					"interpolation":"STEP",
					"output":59
				}
			]
		},
		{
			"channels":[
				{
					"sampler":0,
					"target":{
						"node":19,
						"path":"translation"
					}
				},
				{
					"sampler":1,
					"target":{
						"node":19,
						"path":"rotation"
					}
				},
				{
					"sampler":2,
					"target":{
						"node":19,
						"path":"scale"
					}
				},
				{
					"sampler":3,
					"target":{
						"node":12,
						"path":"translation"
					}
				},
				{
					"sampler":4,
					"target":{
						"node":12,
						"path":"rotation"
					}
				},
				{
					"sampler":5,
					"target":{
						"node":12,
						"path":"scale"
					}
				},
				{
					"sampler":6,
					"target":{
						"node":11,
						"path":"translation"
					}
				},
				{
					"sampler":7,
					"target":{
						"node":11,
						"path":"rotation"
					}
				},
				{
					"sampler":8,
					"target":{
						"node":11,
						"path":"scale"
					}
				},
				{
					"sampler":9,
					"target":{
						"node":2,
						"path":"translation"
					}
				},
				{
					"sampler":10,
					"target":{
						"node":2,
						"path":"rotation"
					}
				},
				{
					"sampler":11,
					"target":{
						"node":2,
						"path":"scale"
					}
				},
				{
					"sampler":12,
					"target":{
						"node":1,
						"path":"translation"
					}
				},
				{
					"sampler":13,
					"target":{
						"node":1,
						"path":"rotation"
					}
				},
				{
					"sampler":14,
					"target":{
						"node":1,
						"path":"scale"
					}
				},
				{
					"sampler":15,
					"target":{
						"node":0,
						"path":"translation"
					}
				},
				{
					"sampler":16,
					"target":{
						"node":0,
						"path":"rotation"
					}
				},
				{
					"sampler":17,
					"target":{
						"node":0,
						"path":"scale"
					}
				},
				{
					"sampler":18,
					"target":{
						"node":6,
						"path":"translation"
					}
				},
				{
					"sampler":19,
					"target":{
						"node":6,
						"path":"rotation"
					}
				},
				{
					"sampler":20,
					"target":{
						"node":6,
						"path":"scale"
					}
				},
				{
					"sampler":21,
					"target":{
						"node":5,
						"path":"translation"
					}
				},
				{
					"sampler":22,
					"target":{
						"node":5,
						"path":"rotation"
					}
				},
				{
					"sampler":23,
					"target":{
						"node":5,
						"path":"scale"
					}
				},
				{
					"sampler":24,
					"target":{
						"node":3,
						"path":"translation"
					}
				},
				{
					"sampler":25,
					"target":{
						"node":3,
						"path":"rotation"
					}
				},
				{
					"sampler":26,
					"target":{
						"node":3,
						"path":"scale"
					}
				},
				{
					"sampler":27,
					"target":{
						"node":10,
						"path":"translation"
					}
				},
				{
					"sampler":28,
					"target":{
						"node":10,
						"path":"rotation"
					}
				},
				{
					"sampler":29,
					"target":{
						"node":10,
						"path":"scale"
					}
				},
				{
					"sampler":30,
					"target":{
						"node":9,
						"path":"translation"
					}
				},
				{
					"sampler":31,
					"target":{
						"node":9,
						"path":"rotation"
					}
				},
				{
					"sampler":32,
					"target":{
						"node":9,
						"path":"scale"
					}
				},
				{
					"sampler":33,
					"target":{
						"node":8,
						"path":"translation"
					}
				},
				{
					"sampler":34,
					"target":{
						"node":8,
						"path":"rotation"
					}
				},
				{
					"sampler":35,
					"target":{
						"node":8,
						"path":"scale"
					}
				},
				{
					"sampler":36,
					"target":{
						"node":15,
						"path":"translation"
					}
				},
				{
					"sampler":37,
					"target":{
						"node":15,
						"path":"rotation"
					}
				},
				{
					"sampler":38,
					"target":{
						"node":15,
						"path":"scale"
					}
				},
				{
					"sampler":39,
					"target":{
						"node":14,
						"path":"translation"
					}
				},
				{
					"sampler":40,
					"target":{
						"node":14,
						"path":"rotation"
					}
				},
				{
					"sampler":41,
					"target":{
						"node":14,
						"path":"scale"
					}
				},
				{
					"sampler":42,
					"target":{
						"node":13,
						"path":"translation"
					}
				},
				{
					"sampler":43,
					"target":{
						"node":13,
						"path":"rotation"
					}
				},
				{
					"sampler":44,
					"target":{
						"node":13,
						"path":"scale"
					}
				},
				{
					"sampler":45,
					"target":{
						"node":18,
						"path":"translation"
					}
				},
				{
					"sampler":46,
					"target":{
						"node":18,
						"path":"rotation"
					}
				},
				{
					"sampler":47,
					"target":{
						"node":18,
						"path":"scale"
					}
				},
				{
					"sampler":48,
					"target":{
						"node":17,
						"path":"translation"
					}
				},
				{
					"sampler":49,
					"target":{
						"node":17,
						"path":"rotation"
					}
				},
				{
					"sampler":50,
					"target":{
						"node":17,
						"path":"scale"
					}
				},
				{
					"sampler":51,
					"target":{
						"node":16,
						"path":"translation"
					}
				},
				{
					"sampler":52,
					"target":{
						"node":16,
						"path":"rotation"
					}
				},
				{
					"sampler":53,
					"target":{
						"node":16,
						"path":"scale"
					}
				}
			],
			"name":"Idle",
			"samplers":[
				{
					"input":60,
					"interpolation":"LINEAR",
					"output":61
				},
				{
					"input":62,
					"interpolation":"STEP",
					"output":17
				},
				{
					"input":62,
					"interpolation":"STEP",
					"output":18
				},
				{
					"input":62,
					"interpolation":"STEP",
					"output":19
				},
				{
					"input":60,
					"interpolation":"LINEAR",
					"output":63
				},
				{
					"input":62,
					"interpolation":"STEP",
					"output":18
				},
				{
					"input":62,
					"interpolation":"STEP",
					"output":22
				},
				{
					"input":60,
					"interpolation":"LINEAR",
					"output":64
				},
				{
					"input":62,
					"interpolation":"STEP",
					"output":18
				},
				{
					"input":62,
					"interpolation":"STEP",
					"output":24
				},
				{
					"input":62,
					"interpolation":"STEP",
					"output":17
				},
				{
					"input":62,
					"interpolation":"STEP",
					"output":18
				},
				{
					"input":62,
					"interpolation":"STEP",
					"output":25
				},
				{
					"input":60,
					"interpolation":"LINEAR",
					"output":65
				},
				{
					"input":62,
					"interpolation":"STEP",
					"output":18
				},
				{
					"input":62,
					"interpolation":"STEP",
					"output":66
				},
				{
					"input":62,
					"interpolation":"STEP",
					"output":67
				},
				{
					"input":62,
					"interpolation":"STEP",
					"output":68
				},
				{
					"input":62,
					"interpolation":"STEP",
					"output":29
				},
				{
					"input":60,
					"interpolation":"LINEAR",
					"output":69
				},
				{
					"input":62,
					"interpolation":"STEP",
					"output":70
				},
				{
					"input":62,
					"interpolation":"STEP",
					"output":71
				},
				{
					"input":62,
					"interpolation":"STEP",
					"output":72
				},
				{
					"input":62,
					"interpolation":"STEP",
					"output":68
				},
				{
					"input":62,
					"interpolation":"STEP",
					"output":73
				},
				{
					"input":62,
					"interpolation":"STEP",
					"output":74
				},
				{
					"input":62,
					"interpolation":"STEP",
					"output":75
				},
				{
					"input":62,
					"interpolation":"STEP",
					"output":37
				},
				{
					"input":62,
					"interpolation":"STEP",
					"output":76
				},
				{
					"input":62,
					"interpolation":"STEP",
					"output":77
				},
				{
					"input":62,
					"interpolation":"STEP",
					"output":78
				},
				{
					"input":62,
					"interpolation":"STEP",
					"output":79
				},
				{
					"input":62,
					"interpolation":"STEP",
					"output":80
				},
				{
					"input":62,
					"interpolation":"STEP",
					"output":81
				},
				{
					"input":62,
					"interpolation":"STEP",
					"output":82
				},
				{
					"input":62,
					"interpolation":"STEP",
					"output":83
				},
				{
					"input":62,
					"interpolation":"STEP",
					"output":45
				},
				{
					"input":62,
					"interpolation":"STEP",
					"output":84
				},
				{
					"input":62,
					"interpolation":"STEP",
					"output":18
				},
				{
					"input":62,
					"interpolation":"STEP",
					"output":85
				},
				{
					"input":62,
					"interpolation":"STEP",
					"output":86
				},
				{
					"input":62,
					"interpolation":"STEP",
					"output":36
				},
				{
					"input":62,
					"interpolation":"STEP",
					"output":87
				},
				{
					"input":62,
					"interpolation":"STEP",
					"output":88
				},
				{
					"input":62,
					"interpolation":"STEP",
					"output":89
				},
				{
					"input":62,
					"interpolation":"STEP",
					"output":51
				},
				{
					"input":62,
					"interpolation":"STEP",
					"output":84
				},
				{
					"input":62,
					"interpolation":"STEP",
					"output":18
				},
				{
					"input":62,
					"interpolation":"STEP",
					"output":90
				},
				{
					"input":62,
					"interpolation":"STEP",
					"output":86
				},
				{
					"input":62,
					"interpolation":"STEP",
					"output":36
				},
				{
					"input":62,
					"interpolation":"STEP",
					"output":91
				},
				{
					"input":62,
					"interpolation":"STEP",
					"output":88
				},
				{
					"input":62,
					"interpolation":"STEP",
					"output":89
				}
			]
		},
		{
			"channels":[
				{
					"sampler":0,
					"target":{
						"node":19,
						"path":"translation"
					}
				},
				{
					"sampler":1,
					"target":{
						"node":19,
						"path":"rotation"
					}
				},
				{
					"sampler":2,
					"target":{
						"node":19,
						"path":"scale"
					}
				},
				{
					"sampler":3,
					"target":{
						"node":12,
						"path":"translation"
					}
				},
				{
					"sampler":4,
					"target":{
						"node":12,
						"path":"rotation"
					}
				},
				{
					"sampler":5,
					"target":{
						"node":12,
						"path":"scale"
					}
				},
				{
					"sampler":6,
					"target":{
						"node":11,
						"path":"translation"
					}
				},
				{
					"sampler":7,
					"target":{
						"node":11,
						"path":"rotation"
					}
				},
				{
					"sampler":8,
					"target":{
						"node":11,
						"path":"scale"
					}
				},
				{
					"sampler":9,
					"target":{
						"node":2,
						"path":"translation"
					}
				},
				{
					"sampler":10,
					"target":{
						"node":2,
						"path":"rotation"
					}
				},
				{
					"sampler":11,
					"target":{
						"node":2,
						"path":"scale"
					}
				},
				{
					"sampler":12,
					"target":{
						"node":1,
						"path":"translation"
					}
				},
				{
					"sampler":13,
					"target":{
						"node":1,
						"path":"rotation"
					}
				},
				{
					"sampler":14,
					"target":{
						"node":1,
						"path":"scale"
					}
				},
				{
					"sampler":15,
					"target":{
						"node":0,
						"path":"translation"
					}
				},
				{
					"sampler":16,
					"target":{
						"node":0,
						"path":"rotation"
					}
				},
				{
					"sampler":17,
					"target":{
						"node":0,
						"path":"scale"
					}
				},
				{
					"sampler":18,
					"target":{
						"node":6,
						"path":"translation"
					}
				},
				{
					"sampler":19,
					"target":{
						"node":6,
						"path":"rotation"
					}
				},
				{
					"sampler":20,
					"target":{
						"node":6,
						"path":"scale"
					}
				},
				{
					"sampler":21,
					"target":{
						"node":5,
						"path":"translation"
					}
				},
				{
					"sampler":22,
					"target":{
						"node":5,
						"path":"rotation"
					}
				},
				{
					"sampler":23,
					"target":{
						"node":5,
						"path":"scale"
					}
				},
				{
					"sampler":24,
					"target":{
						"node":3,
						"path":"translation"
					}
				},
				{
					"sampler":25,
					"target":{
						"node":3,
						"path":"rotation"
					}
				},
				{
					"sampler":26,
					"target":{
						"node":3,
						"path":"scale"
					}
				},
				{
					"sampler":27,
					"target":{
						"node":10,
						"path":"translation"
					}
				},
				{
					"sampler":28,
					"target":{
						"node":10,
						"path":"rotation"
					}
				},
				{
					"sampler":29,
					"target":{
						"node":10,
						"path":"scale"
					}
				},
				{
					"sampler":30,
					"target":{
						"node":9,
						"path":"translation"
					}
				},
				{
					"sampler":31,
					"target":{
						"node":9,
						"path":"rotation"
					}
				},
				{
					"sampler":32,
					"target":{
						"node":9,
						"path":"scale"
					}
				},
				{
					"sampler":33,
					"target":{
						"node":8,
						"path":"translation"
					}
				},
				{
					"sampler":34,
					"target":{
						"node":8,
						"path":"rotation"
					}
				},
				{
					"sampler":35,
					"target":{
						"node":8,
						"path":"scale"
					}
				},
				{
					"sampler":36,
					"target":{
						"node":15,
						"path":"translation"
					}
				},
				{
					"sampler":37,
					"target":{
						"node":15,
						"path":"rotation"
					}
				},
				{
					"sampler":38,
					"target":{
						"node":15,
						"path":"scale"
					}
				},
				{
					"sampler":39,
					"target":{
						"node":14,
						"path":"translation"
					}
				},
				{
					"sampler":40,
					"target":{
						"node":14,
						"path":"rotation"
					}
				},
				{
					"sampler":41,
					"target":{
						"node":14,
						"path":"scale"
					}
				},
				{
					"sampler":42,
					"target":{
						"node":13,
						"path":"translation"
					}
				},
				{
					"sampler":43,
					"target":{
						"node":13,
						"path":"rotation"
					}
				},
				{
					"sampler":44,
					"target":{
						"node":13,
						"path":"scale"
					}
				},
				{
					"sampler":45,
					"target":{
						"node":18,
						"path":"translation"
					}
				},
				{
					"sampler":46,
					"target":{
						"node":18,
						"path":"rotation"
					}
				},
				{
					"sampler":47,
					"target":{
						"node":18,
						"path":"scale"
					}
				},
				{
					"sampler":48,
					"target":{
						"node":17,
						"path":"translation"
					}
				},
				{
					"sampler":49,
					"target":{
						"node":17,
						"path":"rotation"
					}
				},
				{
					"sampler":50,
					"target":{
						"node":17,
						"path":"scale"
					}
				},
				{
					"sampler":51,
					"target":{
						"node":16,
						"path":"translation"
					}
				},
				{
					"sampler":52,
					"target":{
						"node":16,
						"path":"rotation"
					}
				},
				{
					"sampler":53,
					"target":{
						"node":16,
						"path":"scale"
					}
				}
			],
			"name":"Laufen",
			"samplers":[
				{
					"input":20,
					"interpolation":"LINEAR",
					"output":92
				},
				{
					"input":20,
					"interpolation":"LINEAR",
					"output":93
				},
				{
					"input":15,
					"interpolation":"STEP",
					"output":18
				},
				{
					"input":15,
					"interpolation":"STEP",
					"output":19
				},
				{
					"input":15,
					"interpolation":"STEP",
					"output":94
				},
				{
					"input":15,
					"interpolation":"STEP",
					"output":18
				},
				{
					"input":15,
					"interpolation":"STEP",
					"output":95
				},
				{
					"input":20,
					"interpolation":"LINEAR",
					"output":96
				},
				{
					"input":15,
					"interpolation":"STEP",
					"output":18
				},
				{
					"input":15,
					"interpolation":"STEP",
					"output":97
				},
				{
					"input":15,
					"interpolation":"STEP",
					"output":17
				},
				{
					"input":15,
					"interpolation":"STEP",
					"output":53
				},
				{
					"input":15,
					"interpolation":"STEP",
					"output":98
				},
				{
					"input":20,
					"interpolation":"LINEAR",
					"output":99
				},
				{
					"input":15,
					"interpolation":"STEP",
					"output":18
				},
				{
					"input":15,
					"interpolation":"STEP",
					"output":100
				},
				{
					"input":20,
					"interpolation":"LINEAR",
					"output":101
				},
				{
					"input":15,
					"interpolation":"STEP",
					"output":28
				},
				{
					"input":15,
					"interpolation":"STEP",
					"output":102
				},
				{
					"input":20,
					"interpolation":"LINEAR",
					"output":103
				},
				{
					"input":15,
					"interpolation":"STEP",
					"output":104
				},
				{
					"input":15,
					"interpolation":"STEP",
					"output":105
				},
				{
					"input":15,
					"interpolation":"STEP",
					"output":106
				},
				{
					"input":15,
					"interpolation":"STEP",
					"output":18
				},
				{
					"input":15,
					"interpolation":"STEP",
					"output":107
				},
				{
					"input":15,
					"interpolation":"STEP",
					"output":108
				},
				{
					"input":15,
					"interpolation":"STEP",
					"output":104
				},
				{
					"input":15,
					"interpolation":"STEP",
					"output":109
				},
				{
					"input":20,
					"interpolation":"LINEAR",
					"output":110
				},
				{
					"input":15,
					"interpolation":"STEP",
					"output":77
				},
				{
					"input":15,
					"interpolation":"STEP",
					"output":111
				},
				{
					"input":15,
					"interpolation":"STEP",
					"output":112
				},
				{
					"input":15,
					"interpolation":"STEP",
					"output":18
				},
				{
					"input":15,
					"interpolation":"STEP",
					"output":113
				},
				{
					"input":15,
					"interpolation":"STEP",
					"output":114
				},
				{
					"input":15,
					"interpolation":"STEP",
					"output":115
				},
				{
					"input":15,
					"interpolation":"STEP",
					"output":116
				},
				{
					"input":20,
					"interpolation":"LINEAR",
					"output":117
				},
				{
					"input":15,
					"interpolation":"STEP",
					"output":18
				},
				{
					"input":15,
					"interpolation":"STEP",
					"output":118
				},
				{
					"input":20,
					"interpolation":"LINEAR",
					"output":119
				},
				{
					"input":15,
					"interpolation":"STEP",
					"output":36
				},
				{
					"input":15,
					"interpolation":"STEP",
					"output":120
				},
				{
					"input":20,
					"interpolation":"LINEAR",
					"output":121
				},
				{
					"input":15,
					"interpolation":"STEP",
					"output":59
				},
				{
					"input":15,
					"interpolation":"STEP",
					"output":122
				},
				{
					"input":20,
					"interpolation":"LINEAR",
					"output":123
				},
				{
					"input":15,
					"interpolation":"STEP",
					"output":18
				},
				{
					"input":15,
					"interpolation":"STEP",
					"output":124
				},
				{
					"input":20,
					"interpolation":"LINEAR",
					"output":125
				},
				{
					"input":15,
					"interpolation":"STEP",
					"output":36
				},
				{
					"input":15,
					"interpolation":"STEP",
					"output":126
				},
				{
					"input":20,
					"interpolation":"LINEAR",
					"output":127
				},
				{
					"input":15,
					"interpolation":"STEP",
					"output":59
				}
			]
		}
	],
	"materials":[
		{
			"doubleSided":true,
			"name":"Skelettkrieger",
			"pbrMetallicRoughness":{
				"metallicFactor":0,
				"roughnessFactor":0.8500000238418579
			}
		}
	],
	"meshes":[
		{
			"name":"Oberschenkelknochen",
			"primitives":[
				{
					"attributes":{
						"POSITION":0,
						"NORMAL":1,
						"COLOR_0":2,
						"JOINTS_0":3,
						"WEIGHTS_0":4
					},
					"indices":5,
					"material":0
				}
			]
		},
		{
			"name":"Schild",
			"primitives":[
				{
					"attributes":{
						"POSITION":7,
						"NORMAL":8,
						"COLOR_0":9
					},
					"indices":10,
					"material":0
				}
			]
		},
		{
			"name":"Schwert",
			"primitives":[
				{
					"attributes":{
						"POSITION":11,
						"NORMAL":12,
						"COLOR_0":13
					},
					"indices":14,
					"material":0
				}
			]
		}
	],
	"skins":[
		{
			"inverseBindMatrices":6,
			"joints":[
				19,
				12,
				11,
				2,
				1,
				0,
				6,
				5,
				3,
				10,
				9,
				8,
				15,
				14,
				13,
				18,
				17,
				16
			],
			"name":"SkelettkriegerSkelett"
		}
	],
	"accessors":[
		{
			"bufferView":0,
			"componentType":5126,
			"count":5032,
			"max":[
				0.3869999945163727,
				1.950000286102295,
				0.14499999582767487
			],
			"min":[
				-0.38999998569488525,
				0.007999999448657036,
				-0.17499999701976776
			],
			"type":"VEC3"
		},
		{
			"bufferView":1,
			"componentType":5126,
			"count":5032,
			"type":"VEC3"
		},
		{
			"bufferView":2,
			"componentType":5126,
			"count":5032,
			"type":"VEC3"
		},
		{
			"bufferView":3,
			"componentType":5121,
			"count":5032,
			"type":"VEC4"
		},
		{
			"bufferView":4,
			"componentType":5126,
			"count":5032,
			"type":"VEC4"
		},
		{
			"bufferView":5,
			"componentType":5123,
			"count":7164,
			"type":"SCALAR"
		},
		{
			"bufferView":6,
			"componentType":5126,
			"count":18,
			"type":"MAT4"
		},
		{
			"bufferView":7,
			"componentType":5126,
			"count":78,
			"max":[
				0.45250001549720764,
				1.2734812498092651,
				0.28999999165534973
			],
			"min":[
				0.4074999988079071,
				0.7665187120437622,
				-0.22999998927116394
			],
			"type":"VEC3"
		},
		{
			"bufferView":8,
			"componentType":5126,
			"count":78,
			"type":"VEC3"
		},
		{
			"bufferView":9,
			"componentType":5126,
			"count":78,
			"type":"VEC3"
		},
		{
			"bufferView":10,
			"componentType":5123,
			"count":144,
			"type":"SCALAR"
		},
		{
			"bufferView":11,
			"componentType":5126,
			"count":312,
			"max":[
				-0.27000001072883606,
				1.0267670154571533,
				0.5339351892471313
			],
			"min":[
				-0.4699999988079071,
				0.3248055577278137,
				-0.03089173324406147
			],
			"type":"VEC3"
		},
		{
			"bufferView":12,
			"componentType":5126,
			"count":312,
			"type":"VEC3"
		},
		{
			"bufferView":13,
			"componentType":5126,
			"count":312,
			"type":"VEC3"
		},
		{
			"bufferView":14,
			"componentType":5123,
			"count":450,
			"type":"SCALAR"
		},
		{
			"bufferView":15,
			"componentType":5126,
			"count":2,
			"max":[
				1
			],
			"min":[
				0
			],
			"type":"SCALAR"
		},
		{
			"bufferView":16,
			"componentType":5126,
			"count":2,
			"type":"VEC3"
		},
		{
			"bufferView":17,
			"componentType":5126,
			"count":2,
			"type":"VEC4"
		},
		{
			"bufferView":18,
			"componentType":5126,
			"count":2,
			"type":"VEC3"
		},
		{
			"bufferView":19,
			"componentType":5126,
			"count":2,
			"type":"VEC3"
		},
		{
			"bufferView":20,
			"componentType":5126,
			"count":31,
			"max":[
				1
			],
			"min":[
				0
			],
			"type":"SCALAR"
		},
		{
			"bufferView":21,
			"componentType":5126,
			"count":31,
			"type":"VEC4"
		},
		{
			"bufferView":22,
			"componentType":5126,
			"count":2,
			"type":"VEC3"
		},
		{
			"bufferView":23,
			"componentType":5126,
			"count":31,
			"type":"VEC4"
		},
		{
			"bufferView":24,
			"componentType":5126,
			"count":2,
			"type":"VEC3"
		},
		{
			"bufferView":25,
			"componentType":5126,
			"count":2,
			"type":"VEC3"
		},
		{
			"bufferView":26,
			"componentType":5126,
			"count":2,
			"type":"VEC3"
		},
		{
			"bufferView":27,
			"componentType":5126,
			"count":2,
			"type":"VEC4"
		},
		{
			"bufferView":28,
			"componentType":5126,
			"count":2,
			"type":"VEC3"
		},
		{
			"bufferView":29,
			"componentType":5126,
			"count":2,
			"type":"VEC3"
		},
		{
			"bufferView":30,
			"componentType":5126,
			"count":2,
			"type":"VEC4"
		},
		{
			"bufferView":31,
			"componentType":5126,
			"count":2,
			"type":"VEC3"
		},
		{
			"bufferView":32,
			"componentType":5126,
			"count":2,
			"type":"VEC3"
		},
		{
			"bufferView":33,
			"componentType":5126,
			"count":2,
			"type":"VEC4"
		},
		{
			"bufferView":34,
			"componentType":5126,
			"count":2,
			"type":"VEC3"
		},
		{
			"bufferView":35,
			"componentType":5126,
			"count":2,
			"type":"VEC4"
		},
		{
			"bufferView":36,
			"componentType":5126,
			"count":2,
			"type":"VEC3"
		},
		{
			"bufferView":37,
			"componentType":5126,
			"count":2,
			"type":"VEC3"
		},
		{
			"bufferView":38,
			"componentType":5126,
			"count":31,
			"type":"VEC4"
		},
		{
			"bufferView":39,
			"componentType":5126,
			"count":2,
			"type":"VEC3"
		},
		{
			"bufferView":40,
			"componentType":5126,
			"count":31,
			"type":"VEC4"
		},
		{
			"bufferView":41,
			"componentType":5126,
			"count":2,
			"type":"VEC3"
		},
		{
			"bufferView":42,
			"componentType":5126,
			"count":2,
			"type":"VEC3"
		},
		{
			"bufferView":43,
			"componentType":5126,
			"count":2,
			"type":"VEC4"
		},
		{
			"bufferView":44,
			"componentType":5126,
			"count":2,
			"type":"VEC3"
		},
		{
			"bufferView":45,
			"componentType":5126,
			"count":2,
			"type":"VEC3"
		},
		{
			"bufferView":46,
			"componentType":5126,
			"count":31,
			"type":"VEC4"
		},
		{
			"bufferView":47,
			"componentType":5126,
			"count":2,
			"type":"VEC3"
		},
		{
			"bufferView":48,
			"componentType":5126,
			"count":31,
			"type":"VEC4"
		},
		{
			"bufferView":49,
			"componentType":5126,
			"count":2,
			"type":"VEC3"
		},
		{
			"bufferView":50,
			"componentType":5126,
			"count":2,
			"type":"VEC4"
		},
		{
			"bufferView":51,
			"componentType":5126,
			"count":2,
			"type":"VEC3"
		},
		{
			"bufferView":52,
			"componentType":5126,
			"count":31,
			"type":"VEC4"
		},
		{
			"bufferView":53,
			"componentType":5126,
			"count":2,
			"type":"VEC3"
		},
		{
			"bufferView":54,
			"componentType":5126,
			"count":2,
			"type":"VEC3"
		},
		{
			"bufferView":55,
			"componentType":5126,
			"count":31,
			"type":"VEC4"
		},
		{
			"bufferView":56,
			"componentType":5126,
			"count":2,
			"type":"VEC3"
		},
		{
			"bufferView":57,
			"componentType":5126,
			"count":2,
			"type":"VEC3"
		},
		{
			"bufferView":58,
			"componentType":5126,
			"count":2,
			"type":"VEC4"
		},
		{
			"bufferView":59,
			"componentType":5126,
			"count":2,
			"type":"VEC3"
		},
		{
			"bufferView":60,
			"componentType":5126,
			"count":181,
			"max":[
				6
			],
			"min":[
				0
			],
			"type":"SCALAR"
		},
		{
			"bufferView":61,
			"componentType":5126,
			"count":181,
			"type":"VEC3"
		},
		{
			"bufferView":62,
			"componentType":5126,
			"count":2,
			"max":[
				6
			],
			"min":[
				0
			],
			"type":"SCALAR"
		},
		{
			"bufferView":63,
			"componentType":5126,
			"count":181,
			"type":"VEC4"
		},
		{
			"bufferView":64,
			"componentType":5126,
			"count":181,
			"type":"VEC4"
		},
		{
			"bufferView":65,
			"componentType":5126,
			"count":181,
			"type":"VEC4"
		},
		{
			"bufferView":66,
			"componentType":5126,
			"count":2,
			"type":"VEC3"
		},
		{
			"bufferView":67,
			"componentType":5126,
			"count":2,
			"type":"VEC4"
		},
		{
			"bufferView":68,
			"componentType":5126,
			"count":2,
			"type":"VEC3"
		},
		{
			"bufferView":69,
			"componentType":5126,
			"count":181,
			"type":"VEC4"
		},
		{
			"bufferView":70,
			"componentType":5126,
			"count":2,
			"type":"VEC3"
		},
		{
			"bufferView":71,
			"componentType":5126,
			"count":2,
			"type":"VEC3"
		},
		{
			"bufferView":72,
			"componentType":5126,
			"count":2,
			"type":"VEC4"
		},
		{
			"bufferView":73,
			"componentType":5126,
			"count":2,
			"type":"VEC3"
		},
		{
			"bufferView":74,
			"componentType":5126,
			"count":2,
			"type":"VEC4"
		},
		{
			"bufferView":75,
			"componentType":5126,
			"count":2,
			"type":"VEC3"
		},
		{
			"bufferView":76,
			"componentType":5126,
			"count":2,
			"type":"VEC4"
		},
		{
			"bufferView":77,
			"componentType":5126,
			"count":2,
			"type":"VEC3"
		},
		{
			"bufferView":78,
			"componentType":5126,
			"count":2,
			"type":"VEC3"
		},
		{
			"bufferView":79,
			"componentType":5126,
			"count":2,
			"type":"VEC4"
		},
		{
			"bufferView":80,
			"componentType":5126,
			"count":2,
			"type":"VEC3"
		},
		{
			"bufferView":81,
			"componentType":5126,
			"count":2,
			"type":"VEC3"
		},
		{
			"bufferView":82,
			"componentType":5126,
			"count":2,
			"type":"VEC4"
		},
		{
			"bufferView":83,
			"componentType":5126,
			"count":2,
			"type":"VEC3"
		},
		{
			"bufferView":84,
			"componentType":5126,
			"count":2,
			"type":"VEC4"
		},
		{
			"bufferView":85,
			"componentType":5126,
			"count":2,
			"type":"VEC3"
		},
		{
			"bufferView":86,
			"componentType":5126,
			"count":2,
			"type":"VEC4"
		},
		{
			"bufferView":87,
			"componentType":5126,
			"count":2,
			"type":"VEC3"
		},
		{
			"bufferView":88,
			"componentType":5126,
			"count":2,
			"type":"VEC4"
		},
		{
			"bufferView":89,
			"componentType":5126,
			"count":2,
			"type":"VEC3"
		},
		{
			"bufferView":90,
			"componentType":5126,
			"count":2,
			"type":"VEC3"
		},
		{
			"bufferView":91,
			"componentType":5126,
			"count":2,
			"type":"VEC3"
		},
		{
			"bufferView":92,
			"componentType":5126,
			"count":31,
			"type":"VEC3"
		},
		{
			"bufferView":93,
			"componentType":5126,
			"count":31,
			"type":"VEC4"
		},
		{
			"bufferView":94,
			"componentType":5126,
			"count":2,
			"type":"VEC4"
		},
		{
			"bufferView":95,
			"componentType":5126,
			"count":2,
			"type":"VEC3"
		},
		{
			"bufferView":96,
			"componentType":5126,
			"count":31,
			"type":"VEC4"
		},
		{
			"bufferView":97,
			"componentType":5126,
			"count":2,
			"type":"VEC3"
		},
		{
			"bufferView":98,
			"componentType":5126,
			"count":2,
			"type":"VEC3"
		},
		{
			"bufferView":99,
			"componentType":5126,
			"count":31,
			"type":"VEC4"
		},
		{
			"bufferView":100,
			"componentType":5126,
			"count":2,
			"type":"VEC3"
		},
		{
			"bufferView":101,
			"componentType":5126,
			"count":31,
			"type":"VEC4"
		},
		{
			"bufferView":102,
			"componentType":5126,
			"count":2,
			"type":"VEC3"
		},
		{
			"bufferView":103,
			"componentType":5126,
			"count":31,
			"type":"VEC4"
		},
		{
			"bufferView":104,
			"componentType":5126,
			"count":2,
			"type":"VEC3"
		},
		{
			"bufferView":105,
			"componentType":5126,
			"count":2,
			"type":"VEC3"
		},
		{
			"bufferView":106,
			"componentType":5126,
			"count":2,
			"type":"VEC4"
		},
		{
			"bufferView":107,
			"componentType":5126,
			"count":2,
			"type":"VEC3"
		},
		{
			"bufferView":108,
			"componentType":5126,
			"count":2,
			"type":"VEC4"
		},
		{
			"bufferView":109,
			"componentType":5126,
			"count":2,
			"type":"VEC3"
		},
		{
			"bufferView":110,
			"componentType":5126,
			"count":31,
			"type":"VEC4"
		},
		{
			"bufferView":111,
			"componentType":5126,
			"count":2,
			"type":"VEC3"
		},
		{
			"bufferView":112,
			"componentType":5126,
			"count":2,
			"type":"VEC4"
		},
		{
			"bufferView":113,
			"componentType":5126,
			"count":2,
			"type":"VEC3"
		},
		{
			"bufferView":114,
			"componentType":5126,
			"count":2,
			"type":"VEC4"
		},
		{
			"bufferView":115,
			"componentType":5126,
			"count":2,
			"type":"VEC3"
		},
		{
			"bufferView":116,
			"componentType":5126,
			"count":2,
			"type":"VEC3"
		},
		{
			"bufferView":117,
			"componentType":5126,
			"count":31,
			"type":"VEC4"
		},
		{
			"bufferView":118,
			"componentType":5126,
			"count":2,
			"type":"VEC3"
		},
		{
			"bufferView":119,
			"componentType":5126,
			"count":31,
			"type":"VEC4"
		},
		{
			"bufferView":120,
			"componentType":5126,
			"count":2,
			"type":"VEC3"
		},
		{
			"bufferView":121,
			"componentType":5126,
			"count":31,
			"type":"VEC4"
		},
		{
			"bufferView":122,
			"componentType":5126,
			"count":2,
			"type":"VEC3"
		},
		{
			"bufferView":123,
			"componentType":5126,
			"count":31,
			"type":"VEC4"
		},
		{
			"bufferView":124,
			"componentType":5126,
			"count":2,
			"type":"VEC3"
		},
		{
			"bufferView":125,
			"componentType":5126,
			"count":31,
			"type":"VEC4"
		},
		{
			"bufferView":126,
			"componentType":5126,
			"count":2,
			"type":"VEC3"
		},
		{
			"bufferView":127,
			"componentType":5126,
			"count":31,
			"type":"VEC4"
		}
	],
	"bufferViews":[
		{
			"buffer":0,
			"byteLength":60384,
			"byteOffset":0,
			"target":34962
		},
		{
			"buffer":0,
			"byteLength":60384,
			"byteOffset":60384,
			"target":34962
		},
		{
			"buffer":0,
			"byteLength":60384,
			"byteOffset":120768,
			"target":34962
		},
		{
			"buffer":0,
			"byteLength":20128,
			"byteOffset":181152,
			"target":34962
		},
		{
			"buffer":0,
			"byteLength":80512,
			"byteOffset":201280,
			"target":34962
		},
		{
			"buffer":0,
			"byteLength":14328,
			"byteOffset":281792,
			"target":34963
		},
		{
			"buffer":0,
			"byteLength":1152,
			"byteOffset":296120
		},
		{
			"buffer":0,
			"byteLength":936,
			"byteOffset":297272,
			"target":34962
		},
		{
			"buffer":0,
			"byteLength":936,
			"byteOffset":298208,
			"target":34962
		},
		{
			"buffer":0,
			"byteLength":936,
			"byteOffset":299144,
			"target":34962
		},
		{
			"buffer":0,
			"byteLength":288,
			"byteOffset":300080,
			"target":34963
		},
		{
			"buffer":0,
			"byteLength":3744,
			"byteOffset":300368,
			"target":34962
		},
		{
			"buffer":0,
			"byteLength":3744,
			"byteOffset":304112,
			"target":34962
		},
		{
			"buffer":0,
			"byteLength":3744,
			"byteOffset":307856,
			"target":34962
		},
		{
			"buffer":0,
			"byteLength":900,
			"byteOffset":311600,
			"target":34963
		},
		{
			"buffer":0,
			"byteLength":8,
			"byteOffset":312500
		},
		{
			"buffer":0,
			"byteLength":24,
			"byteOffset":312508
		},
		{
			"buffer":0,
			"byteLength":32,
			"byteOffset":312532
		},
		{
			"buffer":0,
			"byteLength":24,
			"byteOffset":312564
		},
		{
			"buffer":0,
			"byteLength":24,
			"byteOffset":312588
		},
		{
			"buffer":0,
			"byteLength":124,
			"byteOffset":312612
		},
		{
			"buffer":0,
			"byteLength":496,
			"byteOffset":312736
		},
		{
			"buffer":0,
			"byteLength":24,
			"byteOffset":313232
		},
		{
			"buffer":0,
			"byteLength":496,
			"byteOffset":313256
		},
		{
			"buffer":0,
			"byteLength":24,
			"byteOffset":313752
		},
		{
			"buffer":0,
			"byteLength":24,
			"byteOffset":313776
		},
		{
			"buffer":0,
			"byteLength":24,
			"byteOffset":313800
		},
		{
			"buffer":0,
			"byteLength":32,
			"byteOffset":313824
		},
		{
			"buffer":0,
			"byteLength":24,
			"byteOffset":313856
		},
		{
			"buffer":0,
			"byteLength":24,
			"byteOffset":313880
		},
		{
			"buffer":0,
			"byteLength":32,
			"byteOffset":313904
		},
		{
			"buffer":0,
			"byteLength":24,
			"byteOffset":313936
		},
		{
			"buffer":0,
			"byteLength":24,
			"byteOffset":313960
		},
		{
			"buffer":0,
			"byteLength":32,
			"byteOffset":313984
		},
		{
			"buffer":0,
			"byteLength":24,
			"byteOffset":314016
		},
		{
			"buffer":0,
			"byteLength":32,
			"byteOffset":314040
		},
		{
			"buffer":0,
			"byteLength":24,
			"byteOffset":314072
		},
		{
			"buffer":0,
			"byteLength":24,
			"byteOffset":314096
		},
		{
			"buffer":0,
			"byteLength":496,
			"byteOffset":314120
		},
		{
			"buffer":0,
			"byteLength":24,
			"byteOffset":314616
		},
		{
			"buffer":0,
			"byteLength":496,
			"byteOffset":314640
		},
		{
			"buffer":0,
			"byteLength":24,
			"byteOffset":315136
		},
		{
			"buffer":0,
			"byteLength":24,
			"byteOffset":315160
		},
		{
			"buffer":0,
			"byteLength":32,
			"byteOffset":315184
		},
		{
			"buffer":0,
			"byteLength":24,
			"byteOffset":315216
		},
		{
			"buffer":0,
			"byteLength":24,
			"byteOffset":315240
		},
		{
			"buffer":0,
			"byteLength":496,
			"byteOffset":315264
		},
		{
			"buffer":0,
			"byteLength":24,
			"byteOffset":315760
		},
		{
			"buffer":0,
			"byteLength":496,
			"byteOffset":315784
		},
		{
			"buffer":0,
			"byteLength":24,
			"byteOffset":316280
		},
		{
			"buffer":0,
			"byteLength":32,
			"byteOffset":316304
		},
		{
			"buffer":0,
			"byteLength":24,
			"byteOffset":316336
		},
		{
			"buffer":0,
			"byteLength":496,
			"byteOffset":316360
		},
		{
			"buffer":0,
			"byteLength":24,
			"byteOffset":316856
		},
		{
			"buffer":0,
			"byteLength":24,
			"byteOffset":316880
		},
		{
			"buffer":0,
			"byteLength":496,
			"byteOffset":316904
		},
		{
			"buffer":0,
			"byteLength":24,
			"byteOffset":317400
		},
		{
			"buffer":0,
			"byteLength":24,
			"byteOffset":317424
		},
		{
			"buffer":0,
			"byteLength":32,
			"byteOffset":317448
		},
		{
			"buffer":0,
			"byteLength":24,
			"byteOffset":317480
		},
		{
			"buffer":0,
			"byteLength":724,
			"byteOffset":317504
		},
		{
			"buffer":0,
			"byteLength":2172,
			"byteOffset":318228
		},
		{
			"buffer":0,
			"byteLength":8,
			"byteOffset":320400
		},
		{
			"buffer":0,
			"byteLength":2896,
			"byteOffset":320408
		},
		{
			"buffer":0,
			"byteLength":2896,
			"byteOffset":323304
		},
		{
			"buffer":0,
			"byteLength":2896,
			"byteOffset":326200
		},
		{
			"buffer":0,
			"byteLength":24,
			"byteOffset":329096
		},
		{
			"buffer":0,
			"byteLength":32,
			"byteOffset":329120
		},
		{
			"buffer":0,
			"byteLength":24,
			"byteOffset":329152
		},
		{
			"buffer":0,
			"byteLength":2896,
			"byteOffset":329176
		},
		{
			"buffer":0,
			"byteLength":24,
			"byteOffset":332072
		},
		{
			"buffer":0,
			"byteLength":24,
			"byteOffset":332096
		},
		{
			"buffer":0,
			"byteLength":32,
			"byteOffset":332120
		},
		{
			"buffer":0,
			"byteLength":24,
			"byteOffset":332152
		},
		{
			"buffer":0,
			"byteLength":32,
			"byteOffset":332176
		},
		{
			"buffer":0,
			"byteLength":24,
			"byteOffset":332208
		},
		{
			"buffer":0,
			"byteLength":32,
			"byteOffset":332232
		},
		{
			"buffer":0,
			"byteLength":24,
			"byteOffset":332264
		},
		{
			"buffer":0,
			"byteLength":24,
			"byteOffset":332288
		},
		{
			"buffer":0,
			"byteLength":32,
			"byteOffset":332312
		},
		{
			"buffer":0,
			"byteLength":24,
			"byteOffset":332344
		},
		{
			"buffer":0,
			"byteLength":24,
			"byteOffset":332368
		},
		{
			"buffer":0,
			"byteLength":32,
			"byteOffset":332392
		},
		{
			"buffer":0,
			"byteLength":24,
			"byteOffset":332424
		},
		{
			"buffer":0,
			"byteLength":32,
			"byteOffset":332448
		},
		{
			"buffer":0,
			"byteLength":24,
			"byteOffset":332480
		},
		{
			"buffer":0,
			"byteLength":32,
			"byteOffset":332504
		},
		{
			"buffer":0,
			"byteLength":24,
			"byteOffset":332536
		},
		{
			"buffer":0,
			"byteLength":32,
			"byteOffset":332560
		},
		{
			"buffer":0,
			"byteLength":24,
			"byteOffset":332592
		},
		{
			"buffer":0,
			"byteLength":24,
			"byteOffset":332616
		},
		{
			"buffer":0,
			"byteLength":24,
			"byteOffset":332640
		},
		{
			"buffer":0,
			"byteLength":372,
			"byteOffset":332664
		},
		{
			"buffer":0,
			"byteLength":496,
			"byteOffset":333036
		},
		{
			"buffer":0,
			"byteLength":32,
			"byteOffset":333532
		},
		{
			"buffer":0,
			"byteLength":24,
			"byteOffset":333564
		},
		{
			"buffer":0,
			"byteLength":496,
			"byteOffset":333588
		},
		{
			"buffer":0,
			"byteLength":24,
			"byteOffset":334084
		},
		{
			"buffer":0,
			"byteLength":24,
			"byteOffset":334108
		},
		{
			"buffer":0,
			"byteLength":496,
			"byteOffset":334132
		},
		{
			"buffer":0,
			"byteLength":24,
			"byteOffset":334628
		},
		{
			"buffer":0,
			"byteLength":496,
			"byteOffset":334652
		},
		{
			"buffer":0,
			"byteLength":24,
			"byteOffset":335148
		},
		{
			"buffer":0,
			"byteLength":496,
			"byteOffset":335172
		},
		{
			"buffer":0,
			"byteLength":24,
			"byteOffset":335668
		},
		{
			"buffer":0,
			"byteLength":24,
			"byteOffset":335692
		},
		{
			"buffer":0,
			"byteLength":32,
			"byteOffset":335716
		},
		{
			"buffer":0,
			"byteLength":24,
			"byteOffset":335748
		},
		{
			"buffer":0,
			"byteLength":32,
			"byteOffset":335772
		},
		{
			"buffer":0,
			"byteLength":24,
			"byteOffset":335804
		},
		{
			"buffer":0,
			"byteLength":496,
			"byteOffset":335828
		},
		{
			"buffer":0,
			"byteLength":24,
			"byteOffset":336324
		},
		{
			"buffer":0,
			"byteLength":32,
			"byteOffset":336348
		},
		{
			"buffer":0,
			"byteLength":24,
			"byteOffset":336380
		},
		{
			"buffer":0,
			"byteLength":32,
			"byteOffset":336404
		},
		{
			"buffer":0,
			"byteLength":24,
			"byteOffset":336436
		},
		{
			"buffer":0,
			"byteLength":24,
			"byteOffset":336460
		},
		{
			"buffer":0,
			"byteLength":496,
			"byteOffset":336484
		},
		{
			"buffer":0,
			"byteLength":24,
			"byteOffset":336980
		},
		{
			"buffer":0,
			"byteLength":496,
			"byteOffset":337004
		},
		{
			"buffer":0,
			"byteLength":24,
			"byteOffset":337500
		},
		{
			"buffer":0,
			"byteLength":496,
			"byteOffset":337524
		},
		{
			"buffer":0,
			"byteLength":24,
			"byteOffset":338020
		},
		{
			"buffer":0,
			"byteLength":496,
			"byteOffset":338044
		},
		{
			"buffer":0,
			"byteLength":24,
			"byteOffset":338540
		},
		{
			"buffer":0,
			"byteLength":496,
			"byteOffset":338564
		},
		{
			"buffer":0,
			"byteLength":24,
			"byteOffset":339060
		},
		{
			"buffer":0,
			"byteLength":496,
			"byteOffset":339084
		}
	],
	"buffers":[
		{
			"byteLength":339580,
			"uri":"skelettkrieger.bin"
		}
	]
}
