{
	"asset":{
		"generator":"Khronos glTF Blender I/O v5.2.40",
		"version":"2.0"
	},
	"scene":0,
	"scenes":[
		{
			"name":"Scene",
			"nodes":[
				21
			]
		}
	],
	"nodes":[
		{
			"name":"Hut",
			"rotation":[
				-0.5646035075187683,
				2.0283800949982833e-07,
				-1.3875485649350594e-07,
				0.8253622651100159
			],
			"scale":[
				1,
				1.0000001192092896,
				1
			],
			"translation":[
				0,
				0.33000004291534424,
				-0.019999999552965164
			]
		},
		{
			"children":[
				0
			],
			"name":"Kopf",
			"translation":[
				0,
				0.09000003337860107,
				0
			]
		},
		{
			"children":[
				1
			],
			"name":"Hals",
			"translation":[
				0,
				0.25999999046325684,
				0
			]
		},
		{
			"name":"Hand.L",
			"rotation":[
				-0.02993539348244667,
				-0.0012853139778599143,
				0.008676200173795223,
				0.9995133876800537
			],
			"scale":[
				1,
				0.9999998807907104,
				1
			],
			"translation":[
				-2.9709189774962397e-08,
				0.2567099928855896,
				-2.7939677238464355e-09
			]
		},
		{
			"mesh":1,
			"name":"Schild",
			"rotation":[
				-0.9934272170066833,
				-0.09836863726377487,
				-0.005767595488578081,
				0.05824718251824379
			],
			"scale":[
				1.0000001192092896,
				1,
				0.9999999403953552
			],
			"translation":[
				-0.5236302018165588,
				1.1339648962020874,
				0.1132953092455864
			]
		},
		{
			"children":[
				3,
				4
			],
			"name":"Unterarm.L",
			"rotation":[
				-0.09223336726427078,
				-0.0013973830500617623,
				0.056753627955913544,
				0.9941177368164062
			],
			"scale":[
				1,
				0.9999999403953552,
				1
			],
			"translation":[
				-6.705523913907996e-10,
				0.2947879731655121,
				-4.656612873077393e-10
			]
		},
		{
			"children":[
				5
			],
			"name":"Oberarm.L",
			"rotation":[
				-0.9873651266098022,
				-0.15478397905826569,
				0.0052567459642887115,
				0.03353271260857582
			],
			"scale":[
				0.9999997615814209,
				0.9999998211860657,
				1
			],
			"translation":[
				0.20000000298023224,
				0.20000004768371582,
				0
			]
		},
		{
			"mesh":2,
			"name":"Speer",
			"rotation":[
				-0.9920610189437866,
				0.08945408463478088,
				0.007937991060316563,
				0.08803384751081467
			],
			"scale":[
				1.0000001192092896,
				1.000000238418579,
				1
			],
			"translation":[
				0.508034884929657,
				0.877810001373291,
				0.16718614101409912
			]
		},
		{
			"children":[
				7
			],
			"name":"Hand.R",
			"rotation":[
				-0.02993539348244667,
				0.0012853139778599143,
				-0.008676200173795223,
				0.9995133876800537
			],
			"scale":[
				1,
				0.9999998807907104,
				1
			],
			"translation":[
				2.9709189774962397e-08,
				0.2567099928855896,
				-2.7939677238464355e-09
			]
		},
		{
			"children":[
				8
			],
			"name":"Unterarm.R",
			"rotation":[
				-0.09223336726427078,
				0.0013973830500617623,
				-0.056753627955913544,
				0.9941177368164062
			],
			"scale":[
				1,
				0.9999999403953552,
				1
			],
			"translation":[
				6.705523913907996e-10,
				0.2947879731655121,
				-4.656612873077393e-10
			]
		},
		{
			"children":[
				9
			],
			"name":"Oberarm.R",
			"rotation":[
				-0.9873651266098022,
				0.15478397905826569,
				-0.0052567459642887115,
				0.03353271260857582
			],
			"scale":[
				0.9999997615814209,
				0.9999998211860657,
				1
			],
			"translation":[
				-0.20000000298023224,
				0.20000004768371582,
				0
			]
		},
		{
			"children":[
				2,
				6,
				10
			],
			"name":"Brust",
			"translation":[
				0,
				0.19999992847442627,
				0
			]
		},
		{
			"children":[
				11
			],
			"name":"Bauch",
			"translation":[
				0,
				0.15000003576278687,
				0
			]
		},
		{
			"name":"Fuss.L",
			"rotation":[
				1.1095015572948341e-08,
				0.8304529190063477,
				-0.5570888519287109,
				6.26974596684704e-08
			],
			"scale":[
				1,
				0.9999998807907104,
				0.9999998807907104
			],
			"translation":[
				-2.35995756270313e-09,
				0.42047592997550964,
				1.1594929461011816e-09
			]
		},
		{
			"children":[
				13
			],
			"name":"Unterschenkel.L",
			"rotation":[
				0.023789310827851295,
				9.13925006784666e-08,
				9.505255610386953e-11,
				0.9997169971466064
			],
			"scale":[
				1,
				0.9999999403953552,
				1
			],
			"translation":[
				0,
				0.4300000071525574,
				0
			]
		},
		{
			"children":[
				14
			],
			"name":"Oberschenkel.L",
			"rotation":[
				1,
				0,
				-4.371138828673793e-08,
				0
			],
			"translation":[
				0.10000000149011612,
				0,
				0
			]
		},
		{
			"name":"Fuss.R",
			"rotation":[
				1.1095015572948341e-08,
				0.8304529190063477,
				-0.5570888519287109,
				6.26974596684704e-08
			],
			"scale":[
				1,
				0.9999998807907104,
				0.9999998807907104
			],
			"translation":[
				-2.35995756270313e-09,
				0.42047592997550964,
				7.031522031297754e-10
			]
		},
		{
			"children":[
				16
			],
			"name":"Unterschenkel.R",
			"rotation":[
				0.023789310827851295,
				9.13925006784666e-08,
				9.505255610386953e-11,
				0.9997169971466064
			],
			"scale":[
				1,
				0.9999999403953552,
				1
			],
			"translation":[
				0,
				0.4300000071525574,
				0
			]
		},
		{
			"children":[
				17
			],
			"name":"Oberschenkel.R",
			"rotation":[
				1,
				0,
				-4.371138828673793e-08,
				0
			],
			"translation":[
				-0.10000000149011612,
				0,
				0
			]
		},
		{
			"children":[
				12,
				15,
				18
			],
			"name":"Becken",
			"translation":[
				0,
				0.949999988079071,
				0
			]
		},
		{
			"mesh":0,
			"name":"Soldat",
			"skin":0
		},
		{
			"children":[
				20,
				19
			],
			"name":"SoldatSkelett"
		}
	],
	"animations":[
		{
			"channels":[
				{
					"sampler":0,
					"target":{
						"node":19,
						"path":"translation"
					}
				},
				{
					"sampler":1,
					"target":{
						"node":19,
						"path":"rotation"
					}
				},
				{
					"sampler":2,
					"target":{
						"node":19,
						"path":"scale"
					}
				},
				{
					"sampler":3,
					"target":{
						"node":12,
						"path":"translation"
					}
				},
				{
					"sampler":4,
					"target":{
						"node":12,
						"path":"rotation"
					}
				},
				{
					"sampler":5,
					"target":{
						"node":12,
						"path":"scale"
					}
				},
				{
					"sampler":6,
					"target":{
						"node":11,
						"path":"translation"
					}
				},
				{
					"sampler":7,
					"target":{
						"node":11,
						"path":"rotation"
					}
				},
				{
					"sampler":8,
					"target":{
						"node":11,
						"path":"scale"
					}
				},
				{
					"sampler":9,
					"target":{
						"node":2,
						"path":"translation"
					}
				},
				{
					"sampler":10,
					"target":{
						"node":2,
						"path":"rotation"
					}
				},
				{
					"sampler":11,
					"target":{
						"node":2,
						"path":"scale"
					}
				},
				{
					"sampler":12,
					"target":{
						"node":1,
						"path":"translation"
					}
				},
				{
					"sampler":13,
					"target":{
						"node":1,
						"path":"rotation"
					}
				},
				{
					"sampler":14,
					"target":{
						"node":1,
						"path":"scale"
					}
				},
				{
					"sampler":15,
					"target":{
						"node":0,
						"path":"translation"
					}
				},
				{
					"sampler":16,
					"target":{
						"node":0,
						"path":"rotation"
					}
				},
				{
					"sampler":17,
					"target":{
						"node":0,
						"path":"scale"
					}
				},
				{
					"sampler":18,
					"target":{
						"node":6,
						"path":"translation"
					}
				},
				{
					"sampler":19,
					"target":{
						"node":6,
						"path":"rotation"
					}
				},
				{
					"sampler":20,
					"target":{
						"node":6,
						"path":"scale"
					}
				},
				{
					"sampler":21,
					"target":{
						"node":5,
						"path":"translation"
					}
				},
				{
					"sampler":22,
					"target":{
						"node":5,
						"path":"rotation"
					}
				},
				{
					"sampler":23,
					"target":{
						"node":5,
						"path":"scale"
					}
				},
				{
					"sampler":24,
					"target":{
						"node":3,
						"path":"translation"
					}
				},
				{
					"sampler":25,
					"target":{
						"node":3,
						"path":"rotation"
					}
				},
				{
					"sampler":26,
					"target":{
						"node":3,
						"path":"scale"
					}
				},
				{
					"sampler":27,
					"target":{
						"node":10,
						"path":"translation"
					}
				},
				{
					"sampler":28,
					"target":{
						"node":10,
						"path":"rotation"
					}
				},
				{
					"sampler":29,
					"target":{
						"node":10,
						"path":"scale"
					}
				},
				{
					"sampler":30,
					"target":{
						"node":9,
						"path":"translation"
					}
				},
				{
					"sampler":31,
					"target":{
						"node":9,
						"path":"rotation"
					}
				},
				{
					"sampler":32,
					"target":{
						"node":9,
						"path":"scale"
					}
				},
				{
					"sampler":33,
					"target":{
						"node":8,
						"path":"translation"
					}
				},
				{
					"sampler":34,
					"target":{
						"node":8,
						"path":"rotation"
					}
				},
				{
					"sampler":35,
					"target":{
						"node":8,
						"path":"scale"
					}
				},
				{
					"sampler":36,
					"target":{
						"node":15,
						"path":"translation"
					}
				},
				{
					"sampler":37,
					"target":{
						"node":15,
						"path":"rotation"
					}
				},
				{
					"sampler":38,
					"target":{
						"node":15,
						"path":"scale"
					}
				},
				{
					"sampler":39,
					"target":{
						"node":14,
						"path":"translation"
					}
				},
				{
					"sampler":40,
					"target":{
						"node":14,
						"path":"rotation"
					}
				},
				{
					"sampler":41,
					"target":{
						"node":14,
						"path":"scale"
					}
				},
				{
					"sampler":42,
					"target":{
						"node":13,
						"path":"translation"
					}
				},
				{
					"sampler":43,
					"target":{
						"node":13,
						"path":"rotation"
					}
				},
				{
					"sampler":44,
					"target":{
						"node":13,
						"path":"scale"
					}
				},
				{
					"sampler":45,
					"target":{
						"node":18,
						"path":"translation"
					}
				},
				{
					"sampler":46,
					"target":{
						"node":18,
						"path":"rotation"
					}
				},
				{
					"sampler":47,
					"target":{
						"node":18,
						"path":"scale"
					}
				},
				{
					"sampler":48,
					"target":{
						"node":17,
						"path":"translation"
					}
				},
				{
					"sampler":49,
					"target":{
						"node":17,
						"path":"rotation"
					}
				},
				{
					"sampler":50,
					"target":{
						"node":17,
						"path":"scale"
					}
				},
				{
					"sampler":51,
					"target":{
						"node":16,
						"path":"translation"
					}
				},
				{
					"sampler":52,
					"target":{
						"node":16,
						"path":"rotation"
					}
				},
				{
					"sampler":53,
					"target":{
						"node":16,
						"path":"scale"
					}
				}
			],
			"name":"Angriff",
			"samplers":[
				{
					"input":15,
					"interpolation":"LINEAR",
					"output":16
				},
				{
					"input":17,
					"interpolation":"STEP",
					"output":18
				},
				{
					"input":17,
					"interpolation":"STEP",
					"output":19
				},
				{
					"input":17,
					"interpolation":"STEP",
					"output":20
				},
				{
					"input":15,
					"interpolation":"LINEAR",
					"output":21
				},
				{
					"input":17,
					"interpolation":"STEP",
					"output":19
				},
				{
					"input":17,
					"interpolation":"STEP",
					"output":22
				},
				{
					"input":15,
					"interpolation":"LINEAR",
					"output":23
				},
				{
					"input":17,
					"interpolation":"STEP",
					"output":19
				},
				{
					"input":17,
					"interpolation":"STEP",
					"output":24
				},
				{
					"input":17,
					"interpolation":"STEP",
					"output":18
				},
				{
					"input":17,
					"interpolation":"STEP",
					"output":19
				},
				{
					"input":17,
					"interpolation":"STEP",
					"output":25
				},
				{
					"input":17,
					"interpolation":"STEP",
					"output":18
				},
				{
					"input":17,
					"interpolation":"STEP",
					"output":19
				},
				{
					"input":17,
					"interpolation":"STEP",
					"output":26
				},
				{
					"input":17,
					"interpolation":"STEP",
					"output":27
				},
				{
					"input":17,
					"interpolation":"STEP",
					"output":28
				},
				{
					"input":17,
					"interpolation":"STEP",
					"output":29
				},
				{
					"input":15,
					"interpolation":"LINEAR",
					"output":30
				},
				{
					"input":17,
					"interpolation":"STEP",
					"output":31
				},
				{
					"input":17,
					"interpolation":"STEP",
					"output":32
				},
				{
					"input":17,
					"interpolation":"STEP",
					"output":33
				},
				{
					"input":17,
					"interpolation":"STEP",
					"output":19
				},
				{
					"input":17,
					"interpolation":"STEP",
					"output":34
				},
				{
					"input":17,
					"interpolation":"STEP",
					"output":35
				},
				{
					"input":17,
					"interpolation":"STEP",
					"output":36
				},
				{
					"input":17,
					"interpolation":"STEP",
					"output":37
				},
				{
					"input":15,
					"interpolation":"LINEAR",
					"output":38
				},
				{
					"input":17,
					"interpolation":"STEP",
					"output":39
				},
				{
					"input":17,
					"interpolation":"STEP",
					"output":40
				},
				{
					"input":15,
					"interpolation":"LINEAR",
					"output":41
				},
				{
					"input":17,
					"interpolation":"STEP",
					"output":42
				},
				{
					"input":17,
					"interpolation":"STEP",
					"output":43
				},
				{
					"input":17,
					"interpolation":"STEP",
					"output":44
				},
				{
					"input":17,
					"interpolation":"STEP",
					"output":45
				},
				{
					"input":17,
					"interpolation":"STEP",
					"output":46
				},
				{
					"input":15,
					"interpolation":"LINEAR",
					"output":47
				},
				{
					"input":17,
					"interpolation":"STEP",
					"output":19
				},
				{
					"input":17,
					"interpolation":"STEP",
					"output":48
				},
				{
					"input":15,
					"interpolation":"LINEAR",
					"output":49
				},
				{
					"input":17,
					"interpolation":"STEP",
					"output":50
				},
				{
					"input":17,
					"interpolation":"STEP",
					"output":51
				},
				{
					"input":17,
					"interpolation":"STEP",
					"output":52
				},
				{
					"input":17,
					"interpolation":"STEP",
					"output":53
				},
				{
					"input":17,
					"interpolation":"STEP",
					"output":54
				},
				{
					"input":15,
					"interpolation":"LINEAR",
					"output":55
				},
				{
					"input":17,
					"interpolation":"STEP",
					"output":19
				},
				{
					"input":17,
					"interpolation":"STEP",
					"output":56
				},
				{
					"input":15,
					"interpolation":"LINEAR",
					"output":57
				},
				{
					"input":17,
					"interpolation":"STEP",
					"output":50
				},
				{
					"input":17,
					"interpolation":"STEP",
					"output":58
				},
				{
					"input":17,
					"interpolation":"STEP",
					"output":52
				},
				{
					"input":17,
					"interpolation":"STEP",
					"output":53
				}
			]
		},
		{
			"channels":[
				{
					"sampler":0,
					"target":{
						"node":19,
						"path":"translation"
					}
				},
				{
					"sampler":1,
					"target":{
						"node":19,
						"path":"rotation"
					}
				},
				{
					"sampler":2,
					"target":{
						"node":19,
						"path":"scale"
					}
				},
				{
					"sampler":3,
					"target":{
						"node":12,
						"path":"translation"
					}
				},
				{
					"sampler":4,
					"target":{
						"node":12,
						"path":"rotation"
					}
				},
				{
					"sampler":5,
					"target":{
						"node":12,
						"path":"scale"
					}
				},
				{
					"sampler":6,
					"target":{
						"node":11,
						"path":"translation"
					}
				},
				{
					"sampler":7,
					"target":{
						"node":11,
						"path":"rotation"
					}
				},
				{
					"sampler":8,
					"target":{
						"node":11,
						"path":"scale"
					}
				},
				{
					"sampler":9,
					"target":{
						"node":2,
						"path":"translation"
					}
				},
				{
					"sampler":10,
					"target":{
						"node":2,
						"path":"rotation"
					}
				},
				{
					"sampler":11,
					"target":{
						"node":2,
						"path":"scale"
					}
				},
				{
					"sampler":12,
					"target":{
						"node":1,
						"path":"translation"
					}
				},
				{
					"sampler":13,
					"target":{
						"node":1,
						"path":"rotation"
					}
				},
				{
					"sampler":14,
					"target":{
						"node":1,
						"path":"scale"
					}
				},
				{
					"sampler":15,
					"target":{
						"node":0,
						"path":"translation"
					}
				},
				{
					"sampler":16,
					"target":{
						"node":0,
						"path":"rotation"
					}
				},
				{
					"sampler":17,
					"target":{
						"node":0,
						"path":"scale"
					}
				},
				{
					"sampler":18,
					"target":{
						"node":6,
						"path":"translation"
					}
				},
				{
					"sampler":19,
					"target":{
						"node":6,
						"path":"rotation"
					}
				},
				{
					"sampler":20,
					"target":{
						"node":6,
						"path":"scale"
					}
				},
				{
					"sampler":21,
					"target":{
						"node":5,
						"path":"translation"
					}
				},
				{
					"sampler":22,
					"target":{
						"node":5,
						"path":"rotation"
					}
				},
				{
					"sampler":23,
					"target":{
						"node":5,
						"path":"scale"
					}
				},
				{
					"sampler":24,
					"target":{
						"node":3,
						"path":"translation"
					}
				},
				{
					"sampler":25,
					"target":{
						"node":3,
						"path":"rotation"
					}
				},
				{
					"sampler":26,
					"target":{
						"node":3,
						"path":"scale"
					}
				},
				{
					"sampler":27,
					"target":{
						"node":10,
						"path":"translation"
					}
				},
				{
					"sampler":28,
					"target":{
						"node":10,
						"path":"rotation"
					}
				},
				{
					"sampler":29,
					"target":{
						"node":10,
						"path":"scale"
					}
				},
				{
					"sampler":30,
					"target":{
						"node":9,
						"path":"translation"
					}
				},
				{
					"sampler":31,
					"target":{
						"node":9,
						"path":"rotation"
					}
				},
				{
					"sampler":32,
					"target":{
						"node":9,
						"path":"scale"
					}
				},
				{
					"sampler":33,
					"target":{
						"node":8,
						"path":"translation"
					}
				},
				{
					"sampler":34,
					"target":{
						"node":8,
						"path":"rotation"
					}
				},
				{
					"sampler":35,
					"target":{
						"node":8,
						"path":"scale"
					}
				},
				{
					"sampler":36,
					"target":{
						"node":15,
						"path":"translation"
					}
				},
				{
					"sampler":37,
					"target":{
						"node":15,
						"path":"rotation"
					}
				},
				{
					"sampler":38,
					"target":{
						"node":15,
						"path":"scale"
					}
				},
				{
					"sampler":39,
					"target":{
						"node":14,
						"path":"translation"
					}
				},
				{
					"sampler":40,
					"target":{
						"node":14,
						"path":"rotation"
					}
				},
				{
					"sampler":41,
					"target":{
						"node":14,
						"path":"scale"
					}
				},
				{
					"sampler":42,
					"target":{
						"node":13,
						"path":"translation"
					}
				},
				{
					"sampler":43,
					"target":{
						"node":13,
						"path":"rotation"
					}
				},
				{
					"sampler":44,
					"target":{
						"node":13,
						"path":"scale"
					}
				},
				{
					"sampler":45,
					"target":{
						"node":18,
						"path":"translation"
					}
				},
				{
					"sampler":46,
					"target":{
						"node":18,
						"path":"rotation"
					}
				},
				{
					"sampler":47,
					"target":{
						"node":18,
						"path":"scale"
					}
				},
				{
					"sampler":48,
					"target":{
						"node":17,
						"path":"translation"
					}
				},
				{
					"sampler":49,
					"target":{
						"node":17,
						"path":"rotation"
					}
				},
				{
					"sampler":50,
					"target":{
						"node":17,
						"path":"scale"
					}
				},
				{
					"sampler":51,
					"target":{
						"node":16,
						"path":"translation"
					}
				},
				{
					"sampler":52,
					"target":{
						"node":16,
						"path":"rotation"
					}
				},
				{
					"sampler":53,
					"target":{
						"node":16,
						"path":"scale"
					}
				}
			],
			"name":"Idle",
			"samplers":[
				{
					"input":59,
					"interpolation":"LINEAR",
					"output":60
				},
				{
					"input":61,
					"interpolation":"STEP",
					"output":18
				},
				{
					"input":61,
					"interpolation":"STEP",
					"output":19
				},
				{
					"input":61,
					"interpolation":"STEP",
					"output":20
				},
				{
					"input":59,
					"interpolation":"LINEAR",
					"output":62
				},
				{
					"input":61,
					"interpolation":"STEP",
					"output":19
				},
				{
					"input":61,
					"interpolation":"STEP",
					"output":22
				},
				{
					"input":59,
					"interpolation":"LINEAR",
					"output":63
				},
				{
					"input":61,
					"interpolation":"STEP",
					"output":19
				},
				{
					"input":61,
					"interpolation":"STEP",
					"output":24
				},
				{
					"input":61,
					"interpolation":"STEP",
					"output":18
				},
				{
					"input":61,
					"interpolation":"STEP",
					"output":19
				},
				{
					"input":61,
					"interpolation":"STEP",
					"output":25
				},
				{
					"input":59,
					"interpolation":"LINEAR",
					"output":64
				},
				{
					"input":61,
					"interpolation":"STEP",
					"output":19
				},
				{
					"input":61,
					"interpolation":"STEP",
					"output":65
				},
				{
					"input":61,
					"interpolation":"STEP",
					"output":66
				},
				{
					"input":61,
					"interpolation":"STEP",
					"output":67
				},
				{
					"input":61,
					"interpolation":"STEP",
					"output":29
				},
				{
					"input":59,
					"interpolation":"LINEAR",
					"output":68
				},
				{
					"input":61,
					"interpolation":"STEP",
					"output":36
				},
				{
					"input":61,
					"interpolation":"STEP",
					"output":69
				},
				{
					"input":61,
					"interpolation":"STEP",
					"output":70
				},
				{
					"input":61,
					"interpolation":"STEP",
					"output":71
				},
				{
					"input":61,
					"interpolation":"STEP",
					"output":72
				},
				{
					"input":61,
					"interpolation":"STEP",
					"output":73
				},
				{
					"input":61,
					"interpolation":"STEP",
					"output":74
				},
				{
					"input":61,
					"interpolation":"STEP",
					"output":37
				},
				{
					"input":61,
					"interpolation":"STEP",
					"output":75
				},
				{
					"input":61,
					"interpolation":"STEP",
					"output":36
				},
				{
					"input":61,
					"interpolation":"STEP",
					"output":76
				},
				{
					"input":61,
					"interpolation":"STEP",
					"output":77
				},
				{
					"input":61,
					"interpolation":"STEP",
					"output":53
				},
				{
					"input":61,
					"interpolation":"STEP",
					"output":78
				},
				{
					"input":61,
					"interpolation":"STEP",
					"output":79
				},
				{
					"input":61,
					"interpolation":"STEP",
					"output":80
				},
				{
					"input":61,
					"interpolation":"STEP",
					"output":46
				},
				{
					"input":61,
					"interpolation":"STEP",
					"output":81
				},
				{
					"input":61,
					"interpolation":"STEP",
					"output":19
				},
				{
					"input":61,
					"interpolation":"STEP",
					"output":48
				},
				{
					"input":61,
					"interpolation":"STEP",
					"output":82
				},
				{
					"input":61,
					"interpolation":"STEP",
					"output":50
				},
				{
					"input":61,
					"interpolation":"STEP",
					"output":83
				},
				{
					"input":61,
					"interpolation":"STEP",
					"output":84
				},
				{
					"input":61,
					"interpolation":"STEP",
					"output":85
				},
				{
					"input":61,
					"interpolation":"STEP",
					"output":54
				},
				{
					"input":61,
					"interpolation":"STEP",
					"output":81
				},
				{
					"input":61,
					"interpolation":"STEP",
					"output":19
				},
				{
					"input":61,
					"interpolation":"STEP",
					"output":56
				},
				{
					"input":61,
					"interpolation":"STEP",
					"output":82
				},
				{
					"input":61,
					"interpolation":"STEP",
					"output":50
				},
				{
					"input":61,
					"interpolation":"STEP",
					"output":86
				},
				{
					"input":61,
					"interpolation":"STEP",
					"output":84
				},
				{
					"input":61,
					"interpolation":"STEP",
					"output":85
				}
			]
		},
		{
			"channels":[
				{
					"sampler":0,
					"target":{
						"node":19,
						"path":"translation"
					}
				},
				{
					"sampler":1,
					"target":{
						"node":19,
						"path":"rotation"
					}
				},
				{
					"sampler":2,
					"target":{
						"node":19,
						"path":"scale"
					}
				},
				{
					"sampler":3,
					"target":{
						"node":12,
						"path":"translation"
					}
				},
				{
					"sampler":4,
					"target":{
						"node":12,
						"path":"rotation"
					}
				},
				{
					"sampler":5,
					"target":{
						"node":12,
						"path":"scale"
					}
				},
				{
					"sampler":6,
					"target":{
						"node":11,
						"path":"translation"
					}
				},
				{
					"sampler":7,
					"target":{
						"node":11,
						"path":"rotation"
					}
				},
				{
					"sampler":8,
					"target":{
						"node":11,
						"path":"scale"
					}
				},
				{
					"sampler":9,
					"target":{
						"node":2,
						"path":"translation"
					}
				},
				{
					"sampler":10,
					"target":{
						"node":2,
						"path":"rotation"
					}
				},
				{
					"sampler":11,
					"target":{
						"node":2,
						"path":"scale"
					}
				},
				{
					"sampler":12,
					"target":{
						"node":1,
						"path":"translation"
					}
				},
				{
					"sampler":13,
					"target":{
						"node":1,
						"path":"rotation"
					}
				},
				{
					"sampler":14,
					"target":{
						"node":1,
						"path":"scale"
					}
				},
				{
					"sampler":15,
					"target":{
						"node":0,
						"path":"translation"
					}
				},
				{
					"sampler":16,
					"target":{
						"node":0,
						"path":"rotation"
					}
				},
				{
					"sampler":17,
					"target":{
						"node":0,
						"path":"scale"
					}
				},
				{
					"sampler":18,
					"target":{
						"node":6,
						"path":"translation"
					}
				},
				{
					"sampler":19,
					"target":{
						"node":6,
						"path":"rotation"
					}
				},
				{
					"sampler":20,
					"target":{
						"node":6,
						"path":"scale"
					}
				},
				{
					"sampler":21,
					"target":{
						"node":5,
						"path":"translation"
					}
				},
				{
					"sampler":22,
					"target":{
						"node":5,
						"path":"rotation"
					}
				},
				{
					"sampler":23,
					"target":{
						"node":5,
						"path":"scale"
					}
				},
				{
					"sampler":24,
					"target":{
						"node":3,
						"path":"translation"
					}
				},
				{
					"sampler":25,
					"target":{
						"node":3,
						"path":"rotation"
					}
				},
				{
					"sampler":26,
					"target":{
						"node":3,
						"path":"scale"
					}
				},
				{
					"sampler":27,
					"target":{
						"node":10,
						"path":"translation"
					}
				},
				{
					"sampler":28,
					"target":{
						"node":10,
						"path":"rotation"
					}
				},
				{
					"sampler":29,
					"target":{
						"node":10,
						"path":"scale"
					}
				},
				{
					"sampler":30,
					"target":{
						"node":9,
						"path":"translation"
					}
				},
				{
					"sampler":31,
					"target":{
						"node":9,
						"path":"rotation"
					}
				},
				{
					"sampler":32,
					"target":{
						"node":9,
						"path":"scale"
					}
				},
				{
					"sampler":33,
					"target":{
						"node":8,
						"path":"translation"
					}
				},
				{
					"sampler":34,
					"target":{
						"node":8,
						"path":"rotation"
					}
				},
				{
					"sampler":35,
					"target":{
						"node":8,
						"path":"scale"
					}
				},
				{
					"sampler":36,
					"target":{
						"node":15,
						"path":"translation"
					}
				},
				{
					"sampler":37,
					"target":{
						"node":15,
						"path":"rotation"
					}
				},
				{
					"sampler":38,
					"target":{
						"node":15,
						"path":"scale"
					}
				},
				{
					"sampler":39,
					"target":{
						"node":14,
						"path":"translation"
					}
				},
				{
					"sampler":40,
					"target":{
						"node":14,
						"path":"rotation"
					}
				},
				{
					"sampler":41,
					"target":{
						"node":14,
						"path":"scale"
					}
				},
				{
					"sampler":42,
					"target":{
						"node":13,
						"path":"translation"
					}
				},
				{
					"sampler":43,
					"target":{
						"node":13,
						"path":"rotation"
					}
				},
				{
					"sampler":44,
					"target":{
						"node":13,
						"path":"scale"
					}
				},
				{
					"sampler":45,
					"target":{
						"node":18,
						"path":"translation"
					}
				},
				{
					"sampler":46,
					"target":{
						"node":18,
						"path":"rotation"
					}
				},
				{
					"sampler":47,
					"target":{
						"node":18,
						"path":"scale"
					}
				},
				{
					"sampler":48,
					"target":{
						"node":17,
						"path":"translation"
					}
				},
				{
					"sampler":49,
					"target":{
						"node":17,
						"path":"rotation"
					}
				},
				{
					"sampler":50,
					"target":{
						"node":17,
						"path":"scale"
					}
				},
				{
					"sampler":51,
					"target":{
						"node":16,
						"path":"translation"
					}
				},
				{
					"sampler":52,
					"target":{
						"node":16,
						"path":"rotation"
					}
				},
				{
					"sampler":53,
					"target":{
						"node":16,
						"path":"scale"
					}
				}
			],
			"name":"Laufen",
			"samplers":[
				{
					"input":15,
					"interpolation":"LINEAR",
					"output":87
				},
				{
					"input":15,
					"interpolation":"LINEAR",
					"output":88
				},
				{
					"input":17,
					"interpolation":"STEP",
					"output":19
				},
				{
					"input":17,
					"interpolation":"STEP",
					"output":20
				},
				{
					"input":17,
					"interpolation":"STEP",
					"output":89
				},
				{
					"input":17,
					"interpolation":"STEP",
					"output":19
				},
				{
					"input":17,
					"interpolation":"STEP",
					"output":90
				},
				{
					"input":15,
					"interpolation":"LINEAR",
					"output":91
				},
				{
					"input":17,
					"interpolation":"STEP",
					"output":19
				},
				{
					"input":17,
					"interpolation":"STEP",
					"output":92
				},
				{
					"input":17,
					"interpolation":"STEP",
					"output":18
				},
				{
					"input":17,
					"interpolation":"STEP",
					"output":19
				},
				{
					"input":17,
					"interpolation":"STEP",
					"output":93
				},
				{
					"input":15,
					"interpolation":"LINEAR",
					"output":94
				},
				{
					"input":17,
					"interpolation":"STEP",
					"output":95
				},
				{
					"input":17,
					"interpolation":"STEP",
					"output":96
				},
				{
					"input":15,
					"interpolation":"LINEAR",
					"output":97
				},
				{
					"input":17,
					"interpolation":"STEP",
					"output":19
				},
				{
					"input":17,
					"interpolation":"STEP",
					"output":98
				},
				{
					"input":15,
					"interpolation":"LINEAR",
					"output":99
				},
				{
					"input":17,
					"interpolation":"STEP",
					"output":100
				},
				{
					"input":17,
					"interpolation":"STEP",
					"output":101
				},
				{
					"input":17,
					"interpolation":"STEP",
					"output":102
				},
				{
					"input":17,
					"interpolation":"STEP",
					"output":103
				},
				{
					"input":17,
					"interpolation":"STEP",
					"output":104
				},
				{
					"input":17,
					"interpolation":"STEP",
					"output":105
				},
				{
					"input":17,
					"interpolation":"STEP",
					"output":106
				},
				{
					"input":17,
					"interpolation":"STEP",
					"output":107
				},
				{
					"input":15,
					"interpolation":"LINEAR",
					"output":108
				},
				{
					"input":17,
					"interpolation":"STEP",
					"output":109
				},
				{
					"input":17,
					"interpolation":"STEP",
					"output":110
				},
				{
					"input":17,
					"interpolation":"STEP",
					"output":111
				},
				{
					"input":17,
					"interpolation":"STEP",
					"output":67
				},
				{
					"input":17,
					"interpolation":"STEP",
					"output":112
				},
				{
					"input":17,
					"interpolation":"STEP",
					"output":113
				},
				{
					"input":17,
					"interpolation":"STEP",
					"output":114
				},
				{
					"input":17,
					"interpolation":"STEP",
					"output":115
				},
				{
					"input":15,
					"interpolation":"LINEAR",
					"output":116
				},
				{
					"input":17,
					"interpolation":"STEP",
					"output":19
				},
				{
					"input":17,
					"interpolation":"STEP",
					"output":117
				},
				{
					"input":15,
					"interpolation":"LINEAR",
					"output":118
				},
				{
					"input":17,
					"interpolation":"STEP",
					"output":50
				},
				{
					"input":17,
					"interpolation":"STEP",
					"output":119
				},
				{
					"input":15,
					"interpolation":"LINEAR",
					"output":120
				},
				{
					"input":17,
					"interpolation":"STEP",
					"output":53
				},
				{
					"input":17,
					"interpolation":"STEP",
					"output":121
				},
				{
					"input":15,
					"interpolation":"LINEAR",
					"output":122
				},
				{
					"input":17,
					"interpolation":"STEP",
					"output":19
				},
				{
					"input":17,
					"interpolation":"STEP",
					"output":123
				},
				{
					"input":15,
					"interpolation":"LINEAR",
					"output":124
				},
				{
					"input":17,
					"interpolation":"STEP",
					"output":50
				},
				{
					"input":17,
					"interpolation":"STEP",
					"output":125
				},
				{
					"input":15,
					"interpolation":"LINEAR",
					"output":126
				},
				{
					"input":17,
					"interpolation":"STEP",
					"output":95
				}
			]
		}
	],
	"materials":[
		{
			"doubleSided":true,
			"name":"Soldat",
			"pbrMetallicRoughness":{
				"metallicFactor":0,
				"roughnessFactor":0.8500000238418579
			}
		}
	],
	"meshes":[
		{
			"name":"Bein",
			"primitives":[
				{
					"attributes":{
						"POSITION":0,
						"NORMAL":1,
						"COLOR_0":2,
						"JOINTS_0":3,
						"WEIGHTS_0":4
					},
					"indices":5,
					"material":0
				}
			]
		},
		{
			"name":"Schild",
			"primitives":[
				{
					"attributes":{
						"POSITION":7,
						"NORMAL":8,
						"COLOR_0":9
					},
					"indices":10,
					"material":0
				}
			]
		},
		{
			"name":"Speer",
			"primitives":[
				{
					"attributes":{
						"POSITION":11,
						"NORMAL":12,
						"COLOR_0":13
					},
					"indices":14,
					"material":0
				}
			]
		}
	],
	"skins":[
		{
			"inverseBindMatrices":6,
			"joints":[
				19,
				12,
				11,
				2,
				1,
				0,
				6,
				5,
				3,
				10,
				9,
				8,
				15,
				14,
				13,
				18,
				17,
				16
			],
			"name":"SoldatSkelett"
		}
	],
	"accessors":[
		{
			"bufferView":0,
			"componentType":5126,
			"count":8966,
			"max":[
				0.4027571678161621,
				2.066660165786743,
				0.19300000369548798
			],
			"min":[
				-0.4027571678161621,
				-0.009999999776482582,
				-0.32281678915023804
			],
			"type":"VEC3"
		},
		{
			"bufferView":1,
			"componentType":5126,
			"count":8966,
			"type":"VEC3"
		},
		{
			"bufferView":2,
			"componentType":5126,
			"count":8966,
			"type":"VEC3"
		},
		{
			"bufferView":3,
			"componentType":5121,
			"count":8966,
			"type":"VEC4"
		},
		{
			"bufferView":4,
			"componentType":5126,
			"count":8966,
			"type":"VEC4"
		},
		{
			"bufferView":5,
			"componentType":5123,
			"count":13014,
			"type":"SCALAR"
		},
		{
			"bufferView":6,
			"componentType":5126,
			"count":18,
			"type":"MAT4"
		},
		{
			"bufferView":7,
			"componentType":5126,
			"count":72,
			"max":[
				0.46299999952316284,
				1.3399999141693115,
				0.23999999463558197
			],
			"min":[
				0.4074999988079071,
				0.6399999856948853,
				-0.17999999225139618
			],
			"type":"VEC3"
		},
		{
			"bufferView":8,
			"componentType":5126,
			"count":72,
			"type":"VEC3"
		},
		{
			"bufferView":9,
			"componentType":5126,
			"count":72,
			"type":"VEC3"
		},
		{
			"bufferView":10,
			"componentType":5123,
			"count":120,
			"type":"SCALAR"
		},
		{
			"bufferView":11,
			"componentType":5126,
			"count":142,
			"max":[
				-0.33500000834465027,
				2.5,
				0.0949999988079071
			],
			"min":[
				-0.4050000011920929,
				0.019999999552965164,
				-0.11500000208616257
			],
			"type":"VEC3"
		},
		{
			"bufferView":12,
			"componentType":5126,
			"count":142,
			"type":"VEC3"
		},
		{
			"bufferView":13,
			"componentType":5126,
			"count":142,
			"type":"VEC3"
		},
		{
			"bufferView":14,
			"componentType":5123,
			"count":210,
			"type":"SCALAR"
		},
		{
			"bufferView":15,
			"componentType":5126,
			"count":31,
			"max":[
				1
			],
			"min":[
				0
			],
			"type":"SCALAR"
		},
		{
			"bufferView":16,
			"componentType":5126,
			"count":31,
			"type":"VEC3"
		},
		{
			"bufferView":17,
			"componentType":5126,
			"count":2,
			"max":[
				1
			],
			"min":[
				0
			],
			"type":"SCALAR"
		},
		{
			"bufferView":18,
			"componentType":5126,
			"count":2,
			"type":"VEC4"
		},
		{
			"bufferView":19,
			"componentType":5126,
			"count":2,
			"type":"VEC3"
		},
		{
			"bufferView":20,
			"componentType":5126,
			"count":2,
			"type":"VEC3"
		},
		{
			"bufferView":21,
			"componentType":5126,
			"count":31,
			"type":"VEC4"
		},
		{
			"bufferView":22,
			"componentType":5126,
			"count":2,
			"type":"VEC3"
		},
		{
			"bufferView":23,
			"componentType":5126,
			"count":31,
			"type":"VEC4"
		},
		{
			"bufferView":24,
			"componentType":5126,
			"count":2,
			"type":"VEC3"
		},
		{
			"bufferView":25,
			"componentType":5126,
			"count":2,
			"type":"VEC3"
		},
		{
			"bufferView":26,
			"componentType":5126,
			"count":2,
			"type":"VEC3"
		},
		{
			"bufferView":27,
			"componentType":5126,
			"count":2,
			"type":"VEC4"
		},
		{
			"bufferView":28,
			"componentType":5126,
			"count":2,
			"type":"VEC3"
		},
		{
			"bufferView":29,
			"componentType":5126,
			"count":2,
			"type":"VEC3"
		},
		{
			"bufferView":30,
			"componentType":5126,
			"count":31,
			"type":"VEC4"
		},
		{
			"bufferView":31,
			"componentType":5126,
			"count":2,
			"type":"VEC3"
		},
		{
			"bufferView":32,
			"componentType":5126,
			"count":2,
			"type":"VEC3"
		},
		{
			"bufferView":33,
			"componentType":5126,
			"count":2,
			"type":"VEC4"
		},
		{
			"bufferView":34,
			"componentType":5126,
			"count":2,
			"type":"VEC3"
		},
		{
			"bufferView":35,
			"componentType":5126,
			"count":2,
			"type":"VEC4"
		},
		{
			"bufferView":36,
			"componentType":5126,
			"count":2,
			"type":"VEC3"
		},
		{
			"bufferView":37,
			"componentType":5126,
			"count":2,
			"type":"VEC3"
		},
		{
			"bufferView":38,
			"componentType":5126,
			"count":31,
			"type":"VEC4"
		},
		{
			"bufferView":39,
			"componentType":5126,
			"count":2,
			"type":"VEC3"
		},
		{
			"bufferView":40,
			"componentType":5126,
			"count":2,
			"type":"VEC3"
		},
		{
			"bufferView":41,
			"componentType":5126,
			"count":31,
			"type":"VEC4"
		},
		{
			"bufferView":42,
			"componentType":5126,
			"count":2,
			"type":"VEC3"
		},
		{
			"bufferView":43,
			"componentType":5126,
			"count":2,
			"type":"VEC3"
		},
		{
			"bufferView":44,
			"componentType":5126,
			"count":2,
			"type":"VEC4"
		},
		{
			"bufferView":45,
			"componentType":5126,
			"count":2,
			"type":"VEC3"
		},
		{
			"bufferView":46,
			"componentType":5126,
			"count":2,
			"type":"VEC3"
		},
		{
			"bufferView":47,
			"componentType":5126,
			"count":31,
			"type":"VEC4"
		},
		{
			"bufferView":48,
			"componentType":5126,
			"count":2,
			"type":"VEC3"
		},
		{
			"bufferView":49,
			"componentType":5126,
			"count":31,
			"type":"VEC4"
		},
		{
			"bufferView":50,
			"componentType":5126,
			"count":2,
			"type":"VEC3"
		},
		{
			"bufferView":51,
			"componentType":5126,
			"count":2,
			"type":"VEC3"
		},
		{
			"bufferView":52,
			"componentType":5126,
			"count":2,
			"type":"VEC4"
		},
		{
			"bufferView":53,
			"componentType":5126,
			"count":2,
			"type":"VEC3"
		},
		{
			"bufferView":54,
			"componentType":5126,
			"count":2,
			"type":"VEC3"
		},
		{
			"bufferView":55,
			"componentType":5126,
			"count":31,
			"type":"VEC4"
		},
		{
			"bufferView":56,
			"componentType":5126,
			"count":2,
			"type":"VEC3"
		},
		{
			"bufferView":57,
			"componentType":5126,
			"count":31,
			"type":"VEC4"
		},
		{
			"bufferView":58,
			"componentType":5126,
			"count":2,
			"type":"VEC3"
		},
		{
			"bufferView":59,
			"componentType":5126,
			"count":181,
			"max":[
				6
			],
			"min":[
				0
			],
			"type":"SCALAR"
		},
		{
			"bufferView":60,
			"componentType":5126,
			"count":181,
			"type":"VEC3"
		},
		{
			"bufferView":61,
			"componentType":5126,
			"count":2,
			"max":[
				6
			],
			"min":[
				0
			],
			"type":"SCALAR"
		},
		{
			"bufferView":62,
			"componentType":5126,
			"count":181,
			"type":"VEC4"
		},
		{
			"bufferView":63,
			"componentType":5126,
			"count":181,
			"type":"VEC4"
		},
		{
			"bufferView":64,
			"componentType":5126,
			"count":181,
			"type":"VEC4"
		},
		{
			"bufferView":65,
			"componentType":5126,
			"count":2,
			"type":"VEC3"
		},
		{
			"bufferView":66,
			"componentType":5126,
			"count":2,
			"type":"VEC4"
		},
		{
			"bufferView":67,
			"componentType":5126,
			"count":2,
			"type":"VEC3"
		},
		{
			"bufferView":68,
			"componentType":5126,
			"count":181,
			"type":"VEC4"
		},
		{
			"bufferView":69,
			"componentType":5126,
			"count":2,
			"type":"VEC3"
		},
		{
			"bufferView":70,
			"componentType":5126,
			"count":2,
			"type":"VEC4"
		},
		{
			"bufferView":71,
			"componentType":5126,
			"count":2,
			"type":"VEC3"
		},
		{
			"bufferView":72,
			"componentType":5126,
			"count":2,
			"type":"VEC3"
		},
		{
			"bufferView":73,
			"componentType":5126,
			"count":2,
			"type":"VEC4"
		},
		{
			"bufferView":74,
			"componentType":5126,
			"count":2,
			"type":"VEC3"
		},
		{
			"bufferView":75,
			"componentType":5126,
			"count":2,
			"type":"VEC4"
		},
		{
			"bufferView":76,
			"componentType":5126,
			"count":2,
			"type":"VEC3"
		},
		{
			"bufferView":77,
			"componentType":5126,
			"count":2,
			"type":"VEC4"
		},
		{
			"bufferView":78,
			"componentType":5126,
			"count":2,
			"type":"VEC3"
		},
		{
			"bufferView":79,
			"componentType":5126,
			"count":2,
			"type":"VEC4"
		},
		{
			"bufferView":80,
			"componentType":5126,
			"count":2,
			"type":"VEC3"
		},
		{
			"bufferView":81,
			"componentType":5126,
			"count":2,
			"type":"VEC4"
		},
		{
			"bufferView":82,
			"componentType":5126,
			"count":2,
			"type":"VEC4"
		},
		{
			"bufferView":83,
			"componentType":5126,
			"count":2,
			"type":"VEC3"
		},
		{
			"bufferView":84,
			"componentType":5126,
			"count":2,
			"type":"VEC4"
		},
		{
			"bufferView":85,
			"componentType":5126,
			"count":2,
			"type":"VEC3"
		},
		{
			"bufferView":86,
			"componentType":5126,
			"count":2,
			"type":"VEC3"
		},
		{
			"bufferView":87,
			"componentType":5126,
			"count":31,
			"type":"VEC3"
		},
		{
			"bufferView":88,
			"componentType":5126,
			"count":31,
			"type":"VEC4"
		},
		{
			"bufferView":89,
			"componentType":5126,
			"count":2,
			"type":"VEC4"
		},
		{
			"bufferView":90,
			"componentType":5126,
			"count":2,
			"type":"VEC3"
		},
		{
			"bufferView":91,
			"componentType":5126,
			"count":31,
			"type":"VEC4"
		},
		{
			"bufferView":92,
			"componentType":5126,
			"count":2,
			"type":"VEC3"
		},
		{
			"bufferView":93,
			"componentType":5126,
			"count":2,
			"type":"VEC3"
		},
		{
			"bufferView":94,
			"componentType":5126,
			"count":31,
			"type":"VEC4"
		},
		{
			"bufferView":95,
			"componentType":5126,
			"count":2,
			"type":"VEC3"
		},
		{
			"bufferView":96,
			"componentType":5126,
			"count":2,
			"type":"VEC3"
		},
		{
			"bufferView":97,
			"componentType":5126,
			"count":31,
			"type":"VEC4"
		},
		{
			"bufferView":98,
			"componentType":5126,
			"count":2,
			"type":"VEC3"
		},
		{
			"bufferView":99,
			"componentType":5126,
			"count":31,
			"type":"VEC4"
		},
		{
			"bufferView":100,
			"componentType":5126,
			"count":2,
			"type":"VEC3"
		},
		{
			"bufferView":101,
			"componentType":5126,
			"count":2,
			"type":"VEC3"
		},
		{
			"bufferView":102,
			"componentType":5126,
			"count":2,
			"type":"VEC4"
		},
		{
			"bufferView":103,
			"componentType":5126,
			"count":2,
			"type":"VEC3"
		},
		{
			"bufferView":104,
			"componentType":5126,
			"count":2,
			"type":"VEC3"
		},
		{
			"bufferView":105,
			"componentType":5126,
			"count":2,
			"type":"VEC4"
		},
		{
			"bufferView":106,
			"componentType":5126,
			"count":2,
			"type":"VEC3"
		},
		{
			"bufferView":107,
			"componentType":5126,
			"count":2,
			"type":"VEC3"
		},
		{
			"bufferView":108,
			"componentType":5126,
			"count":31,
			"type":"VEC4"
		},
		{
			"bufferView":109,
			"componentType":5126,
			"count":2,
			"type":"VEC3"
		},
		{
			"bufferView":110,
			"componentType":5126,
			"count":2,
			"type":"VEC3"
		},
		{
			"bufferView":111,
			"componentType":5126,
			"count":2,
			"type":"VEC4"
		},
		{
			"bufferView":112,
			"componentType":5126,
			"count":2,
			"type":"VEC3"
		},
		{
			"bufferView":113,
			"componentType":5126,
			"count":2,
			"type":"VEC4"
		},
		{
			"bufferView":114,
			"componentType":5126,
			"count":2,
			"type":"VEC3"
		},
		{
			"bufferView":115,
			"componentType":5126,
			"count":2,
			"type":"VEC3"
		},
		{
			"bufferView":116,
			"componentType":5126,
			"count":31,
			"type":"VEC4"
		},
		{
			"bufferView":117,
			"componentType":5126,
			"count":2,
			"type":"VEC3"
		},
		{
			"bufferView":118,
			"componentType":5126,
			"count":31,
			"type":"VEC4"
		},
		{
			"bufferView":119,
			"componentType":5126,
			"count":2,
			"type":"VEC3"
		},
		{
			"bufferView":120,
			"componentType":5126,
			"count":31,
			"type":"VEC4"
		},
		{
			"bufferView":121,
			"componentType":5126,
			"count":2,
			"type":"VEC3"
		},
		{
			"bufferView":122,
			"componentType":5126,
			"count":31,
			"type":"VEC4"
		},
		{
			"bufferView":123,
			"componentType":5126,
			"count":2,
			"type":"VEC3"
		},
		{
			"bufferView":124,
			"componentType":5126,
			"count":31,
			"type":"VEC4"
		},
		{
			"bufferView":125,
			"componentType":5126,
			"count":2,
			"type":"VEC3"
		},
		{
			"bufferView":126,
			"componentType":5126,
			"count":31,
			"type":"VEC4"
		}
	],
	"bufferViews":[
		{
			"buffer":0,
			"byteLength":107592,
			"byteOffset":0,
			"target":34962
		},
		{
			"buffer":0,
			"byteLength":107592,
			"byteOffset":107592,
			"target":34962
		},
		{
			"buffer":0,
			"byteLength":107592,
			"byteOffset":215184,
			"target":34962
		},
		{
			"buffer":0,
			"byteLength":35864,
			"byteOffset":322776,
			"target":34962
		},
		{
			"buffer":0,
			"byteLength":143456,
			"byteOffset":358640,
			"target":34962
		},
		{
			"buffer":0,
			"byteLength":26028,
			"byteOffset":502096,
			"target":34963
		},
		{
			"buffer":0,
			"byteLength":1152,
			"byteOffset":528124
		},
		{
			"buffer":0,
			"byteLength":864,
			"byteOffset":529276,
			"target":34962
		},
		{
			"buffer":0,
			"byteLength":864,
			"byteOffset":530140,
			"target":34962
		},
		{
			"buffer":0,
			"byteLength":864,
			"byteOffset":531004,
			"target":34962
		},
		{
			"buffer":0,
			"byteLength":240,
			"byteOffset":531868,
			"target":34963
		},
		{
			"buffer":0,
			"byteLength":1704,
			"byteOffset":532108,
			"target":34962
		},
		{
			"buffer":0,
			"byteLength":1704,
			"byteOffset":533812,
			"target":34962
		},
		{
			"buffer":0,
			"byteLength":1704,
			"byteOffset":535516,
			"target":34962
		},
		{
			"buffer":0,
			"byteLength":420,
			"byteOffset":537220,
			"target":34963
		},
		{
			"buffer":0,
			"byteLength":124,
			"byteOffset":537640
		},
		{
			"buffer":0,
			"byteLength":372,
			"byteOffset":537764
		},
		{
			"buffer":0,
			"byteLength":8,
			"byteOffset":538136
		},
		{
			"buffer":0,
			"byteLength":32,
			"byteOffset":538144
		},
		{
			"buffer":0,
			"byteLength":24,
			"byteOffset":538176
		},
		{
			"buffer":0,
			"byteLength":24,
			"byteOffset":538200
		},
		{
			"buffer":0,
			"byteLength":496,
			"byteOffset":538224
		},
		{
			"buffer":0,
			"byteLength":24,
			"byteOffset":538720
		},
		{
			"buffer":0,
			"byteLength":496,
			"byteOffset":538744
		},
		{
			"buffer":0,
			"byteLength":24,
			"byteOffset":539240
		},
		{
			"buffer":0,
			"byteLength":24,
			"byteOffset":539264
		},
		{
			"buffer":0,
			"byteLength":24,
			"byteOffset":539288
		},
		{
			"buffer":0,
			"byteLength":32,
			"byteOffset":539312
		},
		{
			"buffer":0,
			"byteLength":24,
			"byteOffset":539344
		},
		{
			"buffer":0,
			"byteLength":24,
			"byteOffset":539368
		},
		{
			"buffer":0,
			"byteLength":496,
			"byteOffset":539392
		},
		{
			"buffer":0,
			"byteLength":24,
			"byteOffset":539888
		},
		{
			"buffer":0,
			"byteLength":24,
			"byteOffset":539912
		},
		{
			"buffer":0,
			"byteLength":32,
			"byteOffset":539936
		},
		{
			"buffer":0,
			"byteLength":24,
			"byteOffset":539968
		},
		{
			"buffer":0,
			"byteLength":32,
			"byteOffset":539992
		},
		{
			"buffer":0,
			"byteLength":24,
			"byteOffset":540024
		},
		{
			"buffer":0,
			"byteLength":24,
			"byteOffset":540048
		},
		{
			"buffer":0,
			"byteLength":496,
			"byteOffset":540072
		},
		{
			"buffer":0,
			"byteLength":24,
			"byteOffset":540568
		},
		{
			"buffer":0,
			"byteLength":24,
			"byteOffset":540592
		},
		{
			"buffer":0,
			"byteLength":496,
			"byteOffset":540616
		},
		{
			"buffer":0,
			"byteLength":24,
			"byteOffset":541112
		},
		{
			"buffer":0,
			"byteLength":24,
			"byteOffset":541136
		},
		{
			"buffer":0,
			"byteLength":32,
			"byteOffset":541160
		},
		{
			"buffer":0,
			"byteLength":24,
			"byteOffset":541192
		},
		{
			"buffer":0,
			"byteLength":24,
			"byteOffset":541216
		},
		{
			"buffer":0,
			"byteLength":496,
			"byteOffset":541240
		},
		{
			"buffer":0,
			"byteLength":24,
			"byteOffset":541736
		},
		{
			"buffer":0,
			"byteLength":496,
			"byteOffset":541760
		},
		{
			"buffer":0,
			"byteLength":24,
			"byteOffset":542256
		},
		{
			"buffer":0,
			"byteLength":24,
			"byteOffset":542280
		},
		{
			"buffer":0,
			"byteLength":32,
			"byteOffset":542304
		},
		{
			"buffer":0,
			"byteLength":24,
			"byteOffset":542336
		},
		{
			"buffer":0,
			"byteLength":24,
			"byteOffset":542360
		},
		{
			"buffer":0,
			"byteLength":496,
			"byteOffset":542384
		},
		{
			"buffer":0,
			"byteLength":24,
			"byteOffset":542880
		},
		{
			"buffer":0,
			"byteLength":496,
			"byteOffset":542904
		},
		{
			"buffer":0,
			"byteLength":24,
			"byteOffset":543400
		},
		{
			"buffer":0,
			"byteLength":724,
			"byteOffset":543424
		},
		{
			"buffer":0,
			"byteLength":2172,
			"byteOffset":544148
		},
		{
			"buffer":0,
			"byteLength":8,
			"byteOffset":546320
		},
		{
			"buffer":0,
			"byteLength":2896,
			"byteOffset":546328
		},
		{
			"buffer":0,
			"byteLength":2896,
			"byteOffset":549224
		},
		{
			"buffer":0,
			"byteLength":2896,
			"byteOffset":552120
		},
		{
			"buffer":0,
			"byteLength":24,
			"byteOffset":555016
		},
		{
			"buffer":0,
			"byteLength":32,
			"byteOffset":555040
		},
		{
			"buffer":0,
			"byteLength":24,
			"byteOffset":555072
		},
		{
			"buffer":0,
			"byteLength":2896,
			"byteOffset":555096
		},
		{
			"buffer":0,
			"byteLength":24,
			"byteOffset":557992
		},
		{
			"buffer":0,
			"byteLength":32,
			"byteOffset":558016
		},
		{
			"buffer":0,
			"byteLength":24,
			"byteOffset":558048
		},
		{
			"buffer":0,
			"byteLength":24,
			"byteOffset":558072
		},
		{
			"buffer":0,
			"byteLength":32,
			"byteOffset":558096
		},
		{
			"buffer":0,
			"byteLength":24,
			"byteOffset":558128
		},
		{
			"buffer":0,
			"byteLength":32,
			"byteOffset":558152
		},
		{
			"buffer":0,
			"byteLength":24,
			"byteOffset":558184
		},
		{
			"buffer":0,
			"byteLength":32,
			"byteOffset":558208
		},
		{
			"buffer":0,
			"byteLength":24,
			"byteOffset":558240
		},
		{
			"buffer":0,
			"byteLength":32,
			"byteOffset":558264
		},
		{
			"buffer":0,
			"byteLength":24,
			"byteOffset":558296
		},
		{
			"buffer":0,
			"byteLength":32,
			"byteOffset":558320
		},
		{
			"buffer":0,
			"byteLength":32,
			"byteOffset":558352
		},
		{
			"buffer":0,
			"byteLength":24,
			"byteOffset":558384
		},
		{
			"buffer":0,
			"byteLength":32,
			"byteOffset":558408
		},
		{
			"buffer":0,
			"byteLength":24,
			"byteOffset":558440
		},
		{
			"buffer":0,
			"byteLength":24,
			"byteOffset":558464
		},
		{
			"buffer":0,
			"byteLength":372,
			"byteOffset":558488
		},
		{
			"buffer":0,
			"byteLength":496,
			"byteOffset":558860
		},
		{
			"buffer":0,
			"byteLength":32,
			"byteOffset":559356
		},
		{
			"buffer":0,
			"byteLength":24,
			"byteOffset":559388
		},
		{
			"buffer":0,
			"byteLength":496,
			"byteOffset":559412
		},
		{
			"buffer":0,
			"byteLength":24,
			"byteOffset":559908
		},
		{
			"buffer":0,
			"byteLength":24,
			"byteOffset":559932
		},
		{
			"buffer":0,
			"byteLength":496,
			"byteOffset":559956
		},
		{
			"buffer":0,
			"byteLength":24,
			"byteOffset":560452
		},
		{
			"buffer":0,
			"byteLength":24,
			"byteOffset":560476
		},
		{
			"buffer":0,
			"byteLength":496,
			"byteOffset":560500
		},
		{
			"buffer":0,
			"byteLength":24,
			"byteOffset":560996
		},
		{
			"buffer":0,
			"byteLength":496,
			"byteOffset":561020
		},
		{
			"buffer":0,
			"byteLength":24,
			"byteOffset":561516
		},
		{
			"buffer":0,
			"byteLength":24,
			"byteOffset":561540
		},
		{
			"buffer":0,
			"byteLength":32,
			"byteOffset":561564
		},
		{
			"buffer":0,
			"byteLength":24,
			"byteOffset":561596
		},
		{
			"buffer":0,
			"byteLength":24,
			"byteOffset":561620
		},
		{
			"buffer":0,
			"byteLength":32,
			"byteOffset":561644
		},
		{
			"buffer":0,
			"byteLength":24,
			"byteOffset":561676
		},
		{
			"buffer":0,
			"byteLength":24,
			"byteOffset":561700
		},
		{
			"buffer":0,
			"byteLength":496,
			"byteOffset":561724
		},
		{
			"buffer":0,
			"byteLength":24,
			"byteOffset":562220
		},
		{
			"buffer":0,
			"byteLength":24,
			"byteOffset":562244
		},
		{
			"buffer":0,
			"byteLength":32,
			"byteOffset":562268
		},
		{
			"buffer":0,
			"byteLength":24,
			"byteOffset":562300
		},
		{
			"buffer":0,
			"byteLength":32,
			"byteOffset":562324
		},
		{
			"buffer":0,
			"byteLength":24,
			"byteOffset":562356
		},
		{
			"buffer":0,
			"byteLength":24,
			"byteOffset":562380
		},
		{
			"buffer":0,
			"byteLength":496,
			"byteOffset":562404
		},
		{
			"buffer":0,
			"byteLength":24,
			"byteOffset":562900
		},
		{
			"buffer":0,
			"byteLength":496,
			"byteOffset":562924
		},
		{
			"buffer":0,
			"byteLength":24,
			"byteOffset":563420
		},
		{
			"buffer":0,
			"byteLength":496,
			"byteOffset":563444
		},
		{
			"buffer":0,
			"byteLength":24,
			"byteOffset":563940
		},
		{
			"buffer":0,
			"byteLength":496,
			"byteOffset":563964
		},
		{
			"buffer":0,
			"byteLength":24,
			"byteOffset":564460
		},
		{
			"buffer":0,
			"byteLength":496,
			"byteOffset":564484
		},
		{
			"buffer":0,
			"byteLength":24,
			"byteOffset":564980
		},
		{
			"buffer":0,
			"byteLength":496,
			"byteOffset":565004
		}
	],
	"buffers":[
		{
			"byteLength":565500,
			"uri":"soldat.bin"
		}
	]
}
