{
	"asset":{
		"generator":"Khronos glTF Blender I/O v5.2.40",
		"version":"2.0"
	},
	"scene":0,
	"scenes":[
		{
			"name":"Scene",
			"nodes":[
				20
			]
		}
	],
	"nodes":[
		{
			"name":"Bein0L.unten",
			"rotation":[
				-0.7509468793869019,
				1.3974781332137809e-08,
				1.2802412641121919e-07,
				0.6603626608848572
			],
			"scale":[
				1.0000001192092896,
				0.9999999403953552,
				0.9999999403953552
			],
			"translation":[
				1.2516977676568786e-07,
				1.9209372997283936,
				1.7881393432617188e-07
			]
		},
		{
			"children":[
				0
			],
			"name":"Bein0L.oben",
			"rotation":[
				0.31568700075149536,
				0.09953562170267105,
				0.28375446796417236,
				0.8999543190002441
			],
			"translation":[
				-0.550000011920929,
				1.25,
				0
			]
		},
		{
			"name":"Bein0R.unten",
			"rotation":[
				-0.7509468793869019,
				-1.3974781332137809e-08,
				-1.2802412641121919e-07,
				0.6603626608848572
			],
			"scale":[
				1.0000001192092896,
				0.9999999403953552,
				0.9999999403953552
			],
			"translation":[
				-1.2516977676568786e-07,
				1.9209372997283936,
				1.7881393432617188e-07
			]
		},
		{
			"children":[
				2
			],
			"name":"Bein0R.oben",
			"rotation":[
				0.31568700075149536,
				-0.09953562170267105,
				-0.28375446796417236,
				0.8999543190002441
			],
			"translation":[
				0.550000011920929,
				1.25,
				0
			]
		},
		{
			"name":"Bein1L.unten",
			"rotation":[
				-0.7509469389915466,
				7.157421322290247e-08,
				3.681630289520399e-08,
				0.6603626012802124
			],
			"scale":[
				1.0000001192092896,
				1,
				1
			],
			"translation":[
				4.544855869426101e-08,
				1.9209372997283936,
				-8.940696716308594e-08
			]
		},
		{
			"children":[
				4
			],
			"name":"Bein1L.oben",
			"rotation":[
				0.2711450457572937,
				0.18985772132873535,
				0.5412429571151733,
				0.7729750871658325
			],
			"scale":[
				0.9999999403953552,
				1,
				1
			],
			"translation":[
				-0.550000011920929,
				0.7999999523162842,
				0
			]
		},
		{
			"name":"Bein1R.unten",
			"rotation":[
				-0.7509469389915466,
				-7.157421322290247e-08,
				-3.681630289520399e-08,
				0.6603626012802124
			],
			"scale":[
				1.0000001192092896,
				1,
				1
			],
			"translation":[
				-4.544855869426101e-08,
				1.9209372997283936,
				-8.940696716308594e-08
			]
		},
		{
			"children":[
				6
			],
			"name":"Bein1R.oben",
			"rotation":[
				0.2711450457572937,
				-0.18985772132873535,
				-0.5412429571151733,
				0.7729750871658325
			],
			"scale":[
				0.9999999403953552,
				1,
				1
			],
			"translation":[
				0.550000011920929,
				0.7999999523162842,
				0
			]
		},
		{
			"name":"Bein2L.unten",
			"rotation":[
				-0.7509469389915466,
				-4.099269812485318e-09,
				6.432698285152583e-08,
				0.6603626012802124
			],
			"scale":[
				1,
				0.9999999403953552,
				0.9999999403953552
			],
			"translation":[
				-3.3527612686157227e-08,
				1.920937418937683,
				-5.21540641784668e-08
			]
		},
		{
			"children":[
				8
			],
			"name":"Bein2L.oben",
			"rotation":[
				0.19456098973751068,
				0.2677902281284332,
				0.7634114027023315,
				0.5546507835388184
			],
			"scale":[
				0.9999999403953552,
				0.9999999403953552,
				0.9999999403953552
			],
			"translation":[
				-0.550000011920929,
				0.34999990463256836,
				0
			]
		},
		{
			"name":"Bein2R.unten",
			"rotation":[
				-0.7509469389915466,
				4.099269812485318e-09,
				-6.432698285152583e-08,
				0.6603626012802124
			],
			"scale":[
				1,
				0.9999999403953552,
				0.9999999403953552
			],
			"translation":[
				3.3527612686157227e-08,
				1.920937418937683,
				-5.21540641784668e-08
			]
		},
		{
			"children":[
				10
			],
			"name":"Bein2R.oben",
			"rotation":[
				0.19456098973751068,
				-0.2677902281284332,
				-0.7634114027023315,
				0.5546507835388184
			],
			"scale":[
				0.9999999403953552,
				0.9999999403953552,
				0.9999999403953552
			],
			"translation":[
				0.550000011920929,
				0.34999990463256836,
				0
			]
		},
		{
			"name":"Bein3L.unten",
			"rotation":[
				-0.7509469389915466,
				-9.724626437446204e-09,
				-8.805802309552746e-09,
				0.6603625416755676
			],
			"scale":[
				1.0000001192092896,
				1.0000001192092896,
				1.0000001192092896
			],
			"translation":[
				8.49366159627607e-08,
				1.9209370613098145,
				5.960464477539063e-08
			]
		},
		{
			"children":[
				12
			],
			"name":"Bein3L.oben",
			"rotation":[
				0.10776528716087341,
				0.3129732012748718,
				0.8922181129455566,
				0.3072153627872467
			],
			"translation":[
				-0.550000011920929,
				-0.05000007152557373,
				0
			]
		},
		{
			"name":"Bein3R.unten",
			"rotation":[
				-0.7509469389915466,
				9.724626437446204e-09,
				8.805802309552746e-09,
				0.6603625416755676
			],
			"scale":[
				1.0000001192092896,
				1.0000001192092896,
				1.0000001192092896
			],
			"translation":[
				-8.49366159627607e-08,
				1.9209370613098145,
				5.960464477539063e-08
			]
		},
		{
			"children":[
				14
			],
			"name":"Bein3R.oben",
			"rotation":[
				0.10776528716087341,
				-0.3129732012748718,
				-0.8922181129455566,
				0.3072153627872467
			],
			"translation":[
				0.550000011920929,
				-0.05000007152557373,
				0
			]
		},
		{
			"name":"Hinterleib",
			"rotation":[
				7.535783197454293e-08,
				-0.06088290736079216,
				-0.9981449246406555,
				4.596578673243812e-09
			],
			"scale":[
				1,
				0.9999995827674866,
				0.9999793767929077
			],
			"translation":[
				0,
				0.04999995231628418,
				0.1499999761581421
			]
		},
		{
			"name":"Kopf",
			"rotation":[
				-0.062137458473443985,
				-6.702549057990836e-07,
				4.1728569044607866e-08,
				0.9980676174163818
			],
			"scale":[
				1,
				1,
				0.9999999403953552
			],
			"translation":[
				0,
				1.2999999523162842,
				0
			]
		},
		{
			"children":[
				1,
				3,
				5,
				7,
				9,
				11,
				13,
				15,
				16,
				17
			],
			"name":"Koerper",
			"rotation":[
				0,
				0.7071067690849304,
				0.7071067690849304,
				0
			],
			"translation":[
				0,
				1.4500000476837158,
				-0.5
			]
		},
		{
			"mesh":0,
			"name":"Spinnenkoenigin",
			"skin":0
		},
		{
			"children":[
				19,
				18
			],
			"name":"SpinnenkoeniginSkelett"
		}
	],
	"animations":[
		{
			"channels":[
				{
					"sampler":0,
					"target":{
						"node":18,
						"path":"translation"
					}
				},
				{
					"sampler":1,
					"target":{
						"node":18,
						"path":"rotation"
					}
				},
				{
					"sampler":2,
					"target":{
						"node":18,
						"path":"scale"
					}
				},
				{
					"sampler":3,
					"target":{
						"node":1,
						"path":"translation"
					}
				},
				{
					"sampler":4,
					"target":{
						"node":1,
						"path":"rotation"
					}
				},
				{
					"sampler":5,
					"target":{
						"node":1,
						"path":"scale"
					}
				},
				{
					"sampler":6,
					"target":{
						"node":0,
						"path":"translation"
					}
				},
				{
					"sampler":7,
					"target":{
						"node":0,
						"path":"rotation"
					}
				},
				{
					"sampler":8,
					"target":{
						"node":0,
						"path":"scale"
					}
				},
				{
					"sampler":9,
					"target":{
						"node":3,
						"path":"translation"
					}
				},
				{
					"sampler":10,
					"target":{
						"node":3,
						"path":"rotation"
					}
				},
				{
					"sampler":11,
					"target":{
						"node":3,
						"path":"scale"
					}
				},
				{
					"sampler":12,
					"target":{
						"node":2,
						"path":"translation"
					}
				},
				{
					"sampler":13,
					"target":{
						"node":2,
						"path":"rotation"
					}
				},
				{
					"sampler":14,
					"target":{
						"node":2,
						"path":"scale"
					}
				},
				{
					"sampler":15,
					"target":{
						"node":5,
						"path":"translation"
					}
				},
				{
					"sampler":16,
					"target":{
						"node":5,
						"path":"rotation"
					}
				},
				{
					"sampler":17,
					"target":{
						"node":5,
						"path":"scale"
					}
				},
				{
					"sampler":18,
					"target":{
						"node":4,
						"path":"translation"
					}
				},
				{
					"sampler":19,
					"target":{
						"node":4,
						"path":"rotation"
					}
				},
				{
					"sampler":20,
					"target":{
						"node":4,
						"path":"scale"
					}
				},
				{
					"sampler":21,
					"target":{
						"node":7,
						"path":"translation"
					}
				},
				{
					"sampler":22,
					"target":{
						"node":7,
						"path":"rotation"
					}
				},
				{
					"sampler":23,
					"target":{
						"node":7,
						"path":"scale"
					}
				},
				{
					"sampler":24,
					"target":{
						"node":6,
						"path":"translation"
					}
				},
				{
					"sampler":25,
					"target":{
						"node":6,
						"path":"rotation"
					}
				},
				{
					"sampler":26,
					"target":{
						"node":6,
						"path":"scale"
					}
				},
				{
					"sampler":27,
					"target":{
						"node":9,
						"path":"translation"
					}
				},
				{
					"sampler":28,
					"target":{
						"node":9,
						"path":"rotation"
					}
				},
				{
					"sampler":29,
					"target":{
						"node":9,
						"path":"scale"
					}
				},
				{
					"sampler":30,
					"target":{
						"node":8,
						"path":"translation"
					}
				},
				{
					"sampler":31,
					"target":{
						"node":8,
						"path":"rotation"
					}
				},
				{
					"sampler":32,
					"target":{
						"node":8,
						"path":"scale"
					}
				},
				{
					"sampler":33,
					"target":{
						"node":11,
						"path":"translation"
					}
				},
				{
					"sampler":34,
					"target":{
						"node":11,
						"path":"rotation"
					}
				},
				{
					"sampler":35,
					"target":{
						"node":11,
						"path":"scale"
					}
				},
				{
					"sampler":36,
					"target":{
						"node":10,
						"path":"translation"
					}
				},
				{
					"sampler":37,
					"target":{
						"node":10,
						"path":"rotation"
					}
				},
				{
					"sampler":38,
					"target":{
						"node":10,
						"path":"scale"
					}
				},
				{
					"sampler":39,
					"target":{
						"node":13,
						"path":"translation"
					}
				},
				{
					"sampler":40,
					"target":{
						"node":13,
						"path":"rotation"
					}
				},
				{
					"sampler":41,
					"target":{
						"node":13,
						"path":"scale"
					}
				},
				{
					"sampler":42,
					"target":{
						"node":12,
						"path":"translation"
					}
				},
				{
					"sampler":43,
					"target":{
						"node":12,
						"path":"rotation"
					}
				},
				{
					"sampler":44,
					"target":{
						"node":12,
						"path":"scale"
					}
				},
				{
					"sampler":45,
					"target":{
						"node":15,
						"path":"translation"
					}
				},
				{
					"sampler":46,
					"target":{
						"node":15,
						"path":"rotation"
					}
				},
				{
					"sampler":47,
					"target":{
						"node":15,
						"path":"scale"
					}
				},
				{
					"sampler":48,
					"target":{
						"node":14,
						"path":"translation"
					}
				},
				{
					"sampler":49,
					"target":{
						"node":14,
						"path":"rotation"
					}
				},
				{
					"sampler":50,
					"target":{
						"node":14,
						"path":"scale"
					}
				},
				{
					"sampler":51,
					"target":{
						"node":16,
						"path":"translation"
					}
				},
				{
					"sampler":52,
					"target":{
						"node":16,
						"path":"rotation"
					}
				},
				{
					"sampler":53,
					"target":{
						"node":16,
						"path":"scale"
					}
				},
				{
					"sampler":54,
					"target":{
						"node":17,
						"path":"translation"
					}
				},
				{
					"sampler":55,
					"target":{
						"node":17,
						"path":"rotation"
					}
				},
				{
					"sampler":56,
					"target":{
						"node":17,
						"path":"scale"
					}
				}
			],
			"name":"Angriff",
			"samplers":[
				{
					"input":7,
					"interpolation":"STEP",
					"output":8
				},
				{
					"input":9,
					"interpolation":"LINEAR",
					"output":10
				},
				{
					"input":7,
					"interpolation":"STEP",
					"output":11
				},
				{
					"input":7,
					"interpolation":"STEP",
					"output":12
				},
				{
					"input":9,
					"interpolation":"LINEAR",
					"output":13
				},
				{
					"input":7,
					"interpolation":"STEP",
					"output":14
				},
				{
					"input":7,
					"interpolation":"STEP",
					"output":15
				},
				{
					"input":9,
					"interpolation":"LINEAR",
					"output":16
				},
				{
					"input":7,
					"interpolation":"STEP",
					"output":17
				},
				{
					"input":7,
					"interpolation":"STEP",
					"output":18
				},
				{
					"input":9,
					"interpolation":"LINEAR",
					"output":19
				},
				{
					"input":7,
					"interpolation":"STEP",
					"output":14
				},
				{
					"input":7,
					"interpolation":"STEP",
					"output":20
				},
				{
					"input":9,
					"interpolation":"LINEAR",
					"output":21
				},
				{
					"input":7,
					"interpolation":"STEP",
					"output":17
				},
				{
					"input":7,
					"interpolation":"STEP",
					"output":22
				},
				{
					"input":9,
					"interpolation":"LINEAR",
					"output":23
				},
				{
					"input":7,
					"interpolation":"STEP",
					"output":24
				},
				{
					"input":7,
					"interpolation":"STEP",
					"output":25
				},
				{
					"input":7,
					"interpolation":"STEP",
					"output":26
				},
				{
					"input":7,
					"interpolation":"STEP",
					"output":11
				},
				{
					"input":7,
					"interpolation":"STEP",
					"output":27
				},
				{
					"input":9,
					"interpolation":"LINEAR",
					"output":28
				},
				{
					"input":7,
					"interpolation":"STEP",
					"output":24
				},
				{
					"input":7,
					"interpolation":"STEP",
					"output":29
				},
				{
					"input":7,
					"interpolation":"STEP",
					"output":30
				},
				{
					"input":7,
					"interpolation":"STEP",
					"output":11
				},
				{
					"input":7,
					"interpolation":"STEP",
					"output":31
				},
				{
					"input":7,
					"interpolation":"STEP",
					"output":32
				},
				{
					"input":7,
					"interpolation":"STEP",
					"output":33
				},
				{
					"input":7,
					"interpolation":"STEP",
					"output":34
				},
				{
					"input":7,
					"interpolation":"STEP",
					"output":35
				},
				{
					"input":7,
					"interpolation":"STEP",
					"output":36
				},
				{
					"input":7,
					"interpolation":"STEP",
					"output":37
				},
				{
					"input":7,
					"interpolation":"STEP",
					"output":38
				},
				{
					"input":7,
					"interpolation":"STEP",
					"output":33
				},
				{
					"input":7,
					"interpolation":"STEP",
					"output":39
				},
				{
					"input":7,
					"interpolation":"STEP",
					"output":40
				},
				{
					"input":7,
					"interpolation":"STEP",
					"output":36
				},
				{
					"input":7,
					"interpolation":"STEP",
					"output":41
				},
				{
					"input":7,
					"interpolation":"STEP",
					"output":42
				},
				{
					"input":7,
					"interpolation":"STEP",
					"output":14
				},
				{
					"input":7,
					"interpolation":"STEP",
					"output":43
				},
				{
					"input":7,
					"interpolation":"STEP",
					"output":44
				},
				{
					"input":7,
					"interpolation":"STEP",
					"output":45
				},
				{
					"input":7,
					"interpolation":"STEP",
					"output":46
				},
				{
					"input":7,
					"interpolation":"STEP",
					"output":47
				},
				{
					"input":7,
					"interpolation":"STEP",
					"output":14
				},
				{
					"input":7,
					"interpolation":"STEP",
					"output":48
				},
				{
					"input":7,
					"interpolation":"STEP",
					"output":49
				},
				{
					"input":7,
					"interpolation":"STEP",
					"output":45
				},
				{
					"input":7,
					"interpolation":"STEP",
					"output":50
				},
				{
					"input":7,
					"interpolation":"STEP",
					"output":51
				},
				{
					"input":7,
					"interpolation":"STEP",
					"output":52
				},
				{
					"input":7,
					"interpolation":"STEP",
					"output":53
				},
				{
					"input":9,
					"interpolation":"LINEAR",
					"output":54
				},
				{
					"input":7,
					"interpolation":"STEP",
					"output":55
				}
			]
		},
		{
			"channels":[
				{
					"sampler":0,
					"target":{
						"node":18,
						"path":"translation"
					}
				},
				{
					"sampler":1,
					"target":{
						"node":18,
						"path":"rotation"
					}
				},
				{
					"sampler":2,
					"target":{
						"node":18,
						"path":"scale"
					}
				},
				{
					"sampler":3,
					"target":{
						"node":1,
						"path":"translation"
					}
				},
				{
					"sampler":4,
					"target":{
						"node":1,
						"path":"rotation"
					}
				},
				{
					"sampler":5,
					"target":{
						"node":1,
						"path":"scale"
					}
				},
				{
					"sampler":6,
					"target":{
						"node":0,
						"path":"translation"
					}
				},
				{
					"sampler":7,
					"target":{
						"node":0,
						"path":"rotation"
					}
				},
				{
					"sampler":8,
					"target":{
						"node":0,
						"path":"scale"
					}
				},
				{
					"sampler":9,
					"target":{
						"node":3,
						"path":"translation"
					}
				},
				{
					"sampler":10,
					"target":{
						"node":3,
						"path":"rotation"
					}
				},
				{
					"sampler":11,
					"target":{
						"node":3,
						"path":"scale"
					}
				},
				{
					"sampler":12,
					"target":{
						"node":2,
						"path":"translation"
					}
				},
				{
					"sampler":13,
					"target":{
						"node":2,
						"path":"rotation"
					}
				},
				{
					"sampler":14,
					"target":{
						"node":2,
						"path":"scale"
					}
				},
				{
					"sampler":15,
					"target":{
						"node":5,
						"path":"translation"
					}
				},
				{
					"sampler":16,
					"target":{
						"node":5,
						"path":"rotation"
					}
				},
				{
					"sampler":17,
					"target":{
						"node":5,
						"path":"scale"
					}
				},
				{
					"sampler":18,
					"target":{
						"node":4,
						"path":"translation"
					}
				},
				{
					"sampler":19,
					"target":{
						"node":4,
						"path":"rotation"
					}
				},
				{
					"sampler":20,
					"target":{
						"node":4,
						"path":"scale"
					}
				},
				{
					"sampler":21,
					"target":{
						"node":7,
						"path":"translation"
					}
				},
				{
					"sampler":22,
					"target":{
						"node":7,
						"path":"rotation"
					}
				},
				{
					"sampler":23,
					"target":{
						"node":7,
						"path":"scale"
					}
				},
				{
					"sampler":24,
					"target":{
						"node":6,
						"path":"translation"
					}
				},
				{
					"sampler":25,
					"target":{
						"node":6,
						"path":"rotation"
					}
				},
				{
					"sampler":26,
					"target":{
						"node":6,
						"path":"scale"
					}
				},
				{
					"sampler":27,
					"target":{
						"node":9,
						"path":"translation"
					}
				},
				{
					"sampler":28,
					"target":{
						"node":9,
						"path":"rotation"
					}
				},
				{
					"sampler":29,
					"target":{
						"node":9,
						"path":"scale"
					}
				},
				{
					"sampler":30,
					"target":{
						"node":8,
						"path":"translation"
					}
				},
				{
					"sampler":31,
					"target":{
						"node":8,
						"path":"rotation"
					}
				},
				{
					"sampler":32,
					"target":{
						"node":8,
						"path":"scale"
					}
				},
				{
					"sampler":33,
					"target":{
						"node":11,
						"path":"translation"
					}
				},
				{
					"sampler":34,
					"target":{
						"node":11,
						"path":"rotation"
					}
				},
				{
					"sampler":35,
					"target":{
						"node":11,
						"path":"scale"
					}
				},
				{
					"sampler":36,
					"target":{
						"node":10,
						"path":"translation"
					}
				},
				{
					"sampler":37,
					"target":{
						"node":10,
						"path":"rotation"
					}
				},
				{
					"sampler":38,
					"target":{
						"node":10,
						"path":"scale"
					}
				},
				{
					"sampler":39,
					"target":{
						"node":13,
						"path":"translation"
					}
				},
				{
					"sampler":40,
					"target":{
						"node":13,
						"path":"rotation"
					}
				},
				{
					"sampler":41,
					"target":{
						"node":13,
						"path":"scale"
					}
				},
				{
					"sampler":42,
					"target":{
						"node":12,
						"path":"translation"
					}
				},
				{
					"sampler":43,
					"target":{
						"node":12,
						"path":"rotation"
					}
				},
				{
					"sampler":44,
					"target":{
						"node":12,
						"path":"scale"
					}
				},
				{
					"sampler":45,
					"target":{
						"node":15,
						"path":"translation"
					}
				},
				{
					"sampler":46,
					"target":{
						"node":15,
						"path":"rotation"
					}
				},
				{
					"sampler":47,
					"target":{
						"node":15,
						"path":"scale"
					}
				},
				{
					"sampler":48,
					"target":{
						"node":14,
						"path":"translation"
					}
				},
				{
					"sampler":49,
					"target":{
						"node":14,
						"path":"rotation"
					}
				},
				{
					"sampler":50,
					"target":{
						"node":14,
						"path":"scale"
					}
				},
				{
					"sampler":51,
					"target":{
						"node":16,
						"path":"translation"
					}
				},
				{
					"sampler":52,
					"target":{
						"node":16,
						"path":"rotation"
					}
				},
				{
					"sampler":53,
					"target":{
						"node":16,
						"path":"scale"
					}
				},
				{
					"sampler":54,
					"target":{
						"node":17,
						"path":"translation"
					}
				},
				{
					"sampler":55,
					"target":{
						"node":17,
						"path":"rotation"
					}
				},
				{
					"sampler":56,
					"target":{
						"node":17,
						"path":"scale"
					}
				}
			],
			"name":"Idle",
			"samplers":[
				{
					"input":56,
					"interpolation":"LINEAR",
					"output":57
				},
				{
					"input":58,
					"interpolation":"STEP",
					"output":59
				},
				{
					"input":58,
					"interpolation":"STEP",
					"output":11
				},
				{
					"input":58,
					"interpolation":"STEP",
					"output":12
				},
				{
					"input":56,
					"interpolation":"LINEAR",
					"output":60
				},
				{
					"input":58,
					"interpolation":"STEP",
					"output":14
				},
				{
					"input":58,
					"interpolation":"STEP",
					"output":15
				},
				{
					"input":56,
					"interpolation":"LINEAR",
					"output":61
				},
				{
					"input":58,
					"interpolation":"STEP",
					"output":17
				},
				{
					"input":58,
					"interpolation":"STEP",
					"output":18
				},
				{
					"input":56,
					"interpolation":"LINEAR",
					"output":62
				},
				{
					"input":58,
					"interpolation":"STEP",
					"output":14
				},
				{
					"input":58,
					"interpolation":"STEP",
					"output":20
				},
				{
					"input":56,
					"interpolation":"LINEAR",
					"output":63
				},
				{
					"input":58,
					"interpolation":"STEP",
					"output":17
				},
				{
					"input":58,
					"interpolation":"STEP",
					"output":22
				},
				{
					"input":56,
					"interpolation":"LINEAR",
					"output":64
				},
				{
					"input":58,
					"interpolation":"STEP",
					"output":24
				},
				{
					"input":58,
					"interpolation":"STEP",
					"output":65
				},
				{
					"input":56,
					"interpolation":"LINEAR",
					"output":66
				},
				{
					"input":58,
					"interpolation":"STEP",
					"output":67
				},
				{
					"input":58,
					"interpolation":"STEP",
					"output":27
				},
				{
					"input":56,
					"interpolation":"LINEAR",
					"output":68
				},
				{
					"input":58,
					"interpolation":"STEP",
					"output":24
				},
				{
					"input":58,
					"interpolation":"STEP",
					"output":69
				},
				{
					"input":56,
					"interpolation":"LINEAR",
					"output":70
				},
				{
					"input":58,
					"interpolation":"STEP",
					"output":67
				},
				{
					"input":58,
					"interpolation":"STEP",
					"output":31
				},
				{
					"input":56,
					"interpolation":"LINEAR",
					"output":71
				},
				{
					"input":58,
					"interpolation":"STEP",
					"output":33
				},
				{
					"input":58,
					"interpolation":"STEP",
					"output":72
				},
				{
					"input":56,
					"interpolation":"LINEAR",
					"output":73
				},
				{
					"input":58,
					"interpolation":"STEP",
					"output":74
				},
				{
					"input":58,
					"interpolation":"STEP",
					"output":37
				},
				{
					"input":56,
					"interpolation":"LINEAR",
					"output":75
				},
				{
					"input":58,
					"interpolation":"STEP",
					"output":33
				},
				{
					"input":58,
					"interpolation":"STEP",
					"output":76
				},
				{
					"input":56,
					"interpolation":"LINEAR",
					"output":77
				},
				{
					"input":58,
					"interpolation":"STEP",
					"output":74
				},
				{
					"input":58,
					"interpolation":"STEP",
					"output":41
				},
				{
					"input":56,
					"interpolation":"LINEAR",
					"output":78
				},
				{
					"input":58,
					"interpolation":"STEP",
					"output":79
				},
				{
					"input":58,
					"interpolation":"STEP",
					"output":80
				},
				{
					"input":56,
					"interpolation":"LINEAR",
					"output":81
				},
				{
					"input":58,
					"interpolation":"STEP",
					"output":11
				},
				{
					"input":58,
					"interpolation":"STEP",
					"output":46
				},
				{
					"input":56,
					"interpolation":"LINEAR",
					"output":82
				},
				{
					"input":58,
					"interpolation":"STEP",
					"output":79
				},
				{
					"input":58,
					"interpolation":"STEP",
					"output":83
				},
				{
					"input":56,
					"interpolation":"LINEAR",
					"output":84
				},
				{
					"input":58,
					"interpolation":"STEP",
					"output":11
				},
				{
					"input":58,
					"interpolation":"STEP",
					"output":50
				},
				{
					"input":56,
					"interpolation":"LINEAR",
					"output":85
				},
				{
					"input":58,
					"interpolation":"STEP",
					"output":52
				},
				{
					"input":58,
					"interpolation":"STEP",
					"output":53
				},
				{
					"input":56,
					"interpolation":"LINEAR",
					"output":86
				},
				{
					"input":58,
					"interpolation":"STEP",
					"output":55
				}
			]
		},
		{
			"channels":[
				{
					"sampler":0,
					"target":{
						"node":18,
						"path":"translation"
					}
				},
				{
					"sampler":1,
					"target":{
						"node":18,
						"path":"rotation"
					}
				},
				{
					"sampler":2,
					"target":{
						"node":18,
						"path":"scale"
					}
				},
				{
					"sampler":3,
					"target":{
						"node":1,
						"path":"translation"
					}
				},
				{
					"sampler":4,
					"target":{
						"node":1,
						"path":"rotation"
					}
				},
				{
					"sampler":5,
					"target":{
						"node":1,
						"path":"scale"
					}
				},
				{
					"sampler":6,
					"target":{
						"node":0,
						"path":"translation"
					}
				},
				{
					"sampler":7,
					"target":{
						"node":0,
						"path":"rotation"
					}
				},
				{
					"sampler":8,
					"target":{
						"node":0,
						"path":"scale"
					}
				},
				{
					"sampler":9,
					"target":{
						"node":3,
						"path":"translation"
					}
				},
				{
					"sampler":10,
					"target":{
						"node":3,
						"path":"rotation"
					}
				},
				{
					"sampler":11,
					"target":{
						"node":3,
						"path":"scale"
					}
				},
				{
					"sampler":12,
					"target":{
						"node":2,
						"path":"translation"
					}
				},
				{
					"sampler":13,
					"target":{
						"node":2,
						"path":"rotation"
					}
				},
				{
					"sampler":14,
					"target":{
						"node":2,
						"path":"scale"
					}
				},
				{
					"sampler":15,
					"target":{
						"node":5,
						"path":"translation"
					}
				},
				{
					"sampler":16,
					"target":{
						"node":5,
						"path":"rotation"
					}
				},
				{
					"sampler":17,
					"target":{
						"node":5,
						"path":"scale"
					}
				},
				{
					"sampler":18,
					"target":{
						"node":4,
						"path":"translation"
					}
				},
				{
					"sampler":19,
					"target":{
						"node":4,
						"path":"rotation"
					}
				},
				{
					"sampler":20,
					"target":{
						"node":4,
						"path":"scale"
					}
				},
				{
					"sampler":21,
					"target":{
						"node":7,
						"path":"translation"
					}
				},
				{
					"sampler":22,
					"target":{
						"node":7,
						"path":"rotation"
					}
				},
				{
					"sampler":23,
					"target":{
						"node":7,
						"path":"scale"
					}
				},
				{
					"sampler":24,
					"target":{
						"node":6,
						"path":"translation"
					}
				},
				{
					"sampler":25,
					"target":{
						"node":6,
						"path":"rotation"
					}
				},
				{
					"sampler":26,
					"target":{
						"node":6,
						"path":"scale"
					}
				},
				{
					"sampler":27,
					"target":{
						"node":9,
						"path":"translation"
					}
				},
				{
					"sampler":28,
					"target":{
						"node":9,
						"path":"rotation"
					}
				},
				{
					"sampler":29,
					"target":{
						"node":9,
						"path":"scale"
					}
				},
				{
					"sampler":30,
					"target":{
						"node":8,
						"path":"translation"
					}
				},
				{
					"sampler":31,
					"target":{
						"node":8,
						"path":"rotation"
					}
				},
				{
					"sampler":32,
					"target":{
						"node":8,
						"path":"scale"
					}
				},
				{
					"sampler":33,
					"target":{
						"node":11,
						"path":"translation"
					}
				},
				{
					"sampler":34,
					"target":{
						"node":11,
						"path":"rotation"
					}
				},
				{
					"sampler":35,
					"target":{
						"node":11,
						"path":"scale"
					}
				},
				{
					"sampler":36,
					"target":{
						"node":10,
						"path":"translation"
					}
				},
				{
					"sampler":37,
					"target":{
						"node":10,
						"path":"rotation"
					}
				},
				{
					"sampler":38,
					"target":{
						"node":10,
						"path":"scale"
					}
				},
				{
					"sampler":39,
					"target":{
						"node":13,
						"path":"translation"
					}
				},
				{
					"sampler":40,
					"target":{
						"node":13,
						"path":"rotation"
					}
				},
				{
					"sampler":41,
					"target":{
						"node":13,
						"path":"scale"
					}
				},
				{
					"sampler":42,
					"target":{
						"node":12,
						"path":"translation"
					}
				},
				{
					"sampler":43,
					"target":{
						"node":12,
						"path":"rotation"
					}
				},
				{
					"sampler":44,
					"target":{
						"node":12,
						"path":"scale"
					}
				},
				{
					"sampler":45,
					"target":{
						"node":15,
						"path":"translation"
					}
				},
				{
					"sampler":46,
					"target":{
						"node":15,
						"path":"rotation"
					}
				},
				{
					"sampler":47,
					"target":{
						"node":15,
						"path":"scale"
					}
				},
				{
					"sampler":48,
					"target":{
						"node":14,
						"path":"translation"
					}
				},
				{
					"sampler":49,
					"target":{
						"node":14,
						"path":"rotation"
					}
				},
				{
					"sampler":50,
					"target":{
						"node":14,
						"path":"scale"
					}
				},
				{
					"sampler":51,
					"target":{
						"node":16,
						"path":"translation"
					}
				},
				{
					"sampler":52,
					"target":{
						"node":16,
						"path":"rotation"
					}
				},
				{
					"sampler":53,
					"target":{
						"node":16,
						"path":"scale"
					}
				},
				{
					"sampler":54,
					"target":{
						"node":17,
						"path":"translation"
					}
				},
				{
					"sampler":55,
					"target":{
						"node":17,
						"path":"rotation"
					}
				},
				{
					"sampler":56,
					"target":{
						"node":17,
						"path":"scale"
					}
				}
			],
			"name":"Laufen",
			"samplers":[
				{
					"input":87,
					"interpolation":"LINEAR",
					"output":88
				},
				{
					"input":89,
					"interpolation":"STEP",
					"output":59
				},
				{
					"input":89,
					"interpolation":"STEP",
					"output":11
				},
				{
					"input":89,
					"interpolation":"STEP",
					"output":12
				},
				{
					"input":87,
					"interpolation":"LINEAR",
					"output":90
				},
				{
					"input":89,
					"interpolation":"STEP",
					"output":11
				},
				{
					"input":89,
					"interpolation":"STEP",
					"output":91
				},
				{
					"input":87,
					"interpolation":"LINEAR",
					"output":92
				},
				{
					"input":89,
					"interpolation":"STEP",
					"output":93
				},
				{
					"input":89,
					"interpolation":"STEP",
					"output":18
				},
				{
					"input":87,
					"interpolation":"LINEAR",
					"output":94
				},
				{
					"input":89,
					"interpolation":"STEP",
					"output":14
				},
				{
					"input":89,
					"interpolation":"STEP",
					"output":95
				},
				{
					"input":87,
					"interpolation":"LINEAR",
					"output":96
				},
				{
					"input":89,
					"interpolation":"STEP",
					"output":97
				},
				{
					"input":89,
					"interpolation":"STEP",
					"output":22
				},
				{
					"input":87,
					"interpolation":"LINEAR",
					"output":98
				},
				{
					"input":89,
					"interpolation":"STEP",
					"output":33
				},
				{
					"input":89,
					"interpolation":"STEP",
					"output":99
				},
				{
					"input":87,
					"interpolation":"LINEAR",
					"output":100
				},
				{
					"input":89,
					"interpolation":"STEP",
					"output":79
				},
				{
					"input":89,
					"interpolation":"STEP",
					"output":27
				},
				{
					"input":87,
					"interpolation":"LINEAR",
					"output":101
				},
				{
					"input":89,
					"interpolation":"STEP",
					"output":33
				},
				{
					"input":89,
					"interpolation":"STEP",
					"output":102
				},
				{
					"input":87,
					"interpolation":"LINEAR",
					"output":103
				},
				{
					"input":89,
					"interpolation":"STEP",
					"output":55
				},
				{
					"input":89,
					"interpolation":"STEP",
					"output":31
				},
				{
					"input":87,
					"interpolation":"LINEAR",
					"output":104
				},
				{
					"input":89,
					"interpolation":"STEP",
					"output":33
				},
				{
					"input":89,
					"interpolation":"STEP",
					"output":105
				},
				{
					"input":87,
					"interpolation":"LINEAR",
					"output":106
				},
				{
					"input":89,
					"interpolation":"STEP",
					"output":74
				},
				{
					"input":89,
					"interpolation":"STEP",
					"output":37
				},
				{
					"input":87,
					"interpolation":"LINEAR",
					"output":107
				},
				{
					"input":89,
					"interpolation":"STEP",
					"output":33
				},
				{
					"input":89,
					"interpolation":"STEP",
					"output":108
				},
				{
					"input":87,
					"interpolation":"LINEAR",
					"output":109
				},
				{
					"input":89,
					"interpolation":"STEP",
					"output":93
				},
				{
					"input":89,
					"interpolation":"STEP",
					"output":41
				},
				{
					"input":87,
					"interpolation":"LINEAR",
					"output":110
				},
				{
					"input":89,
					"interpolation":"STEP",
					"output":11
				},
				{
					"input":89,
					"interpolation":"STEP",
					"output":111
				},
				{
					"input":87,
					"interpolation":"LINEAR",
					"output":112
				},
				{
					"input":89,
					"interpolation":"STEP",
					"output":33
				},
				{
					"input":89,
					"interpolation":"STEP",
					"output":46
				},
				{
					"input":87,
					"interpolation":"LINEAR",
					"output":113
				},
				{
					"input":89,
					"interpolation":"STEP",
					"output":11
				},
				{
					"input":89,
					"interpolation":"STEP",
					"output":114
				},
				{
					"input":87,
					"interpolation":"LINEAR",
					"output":115
				},
				{
					"input":89,
					"interpolation":"STEP",
					"output":116
				},
				{
					"input":89,
					"interpolation":"STEP",
					"output":50
				},
				{
					"input":87,
					"interpolation":"LINEAR",
					"output":117
				},
				{
					"input":89,
					"interpolation":"STEP",
					"output":52
				},
				{
					"input":89,
					"interpolation":"STEP",
					"output":53
				},
				{
					"input":89,
					"interpolation":"STEP",
					"output":118
				},
				{
					"input":89,
					"interpolation":"STEP",
					"output":55
				}
			]
		}
	],
	"materials":[
		{
			"doubleSided":true,
			"name":"Spinnenkoenigin",
			"pbrMetallicRoughness":{
				"metallicFactor":0,
				"roughnessFactor":0.8500000238418579
			}
		}
	],
	"meshes":[
		{
			"name":"Vorderkoerper",
			"primitives":[
				{
					"attributes":{
						"POSITION":0,
						"NORMAL":1,
						"COLOR_0":2,
						"JOINTS_0":3,
						"WEIGHTS_0":4
					},
					"indices":5,
					"material":0
				}
			]
		}
	],
	"skins":[
		{
			"inverseBindMatrices":6,
			"joints":[
				18,
				1,
				0,
				3,
				2,
				5,
				4,
				7,
				6,
				9,
				8,
				11,
				10,
				13,
				12,
				15,
				14,
				16,
				17
			],
			"name":"SpinnenkoeniginSkelett"
		}
	],
	"accessors":[
		{
			"bufferView":0,
			"componentType":5126,
			"count":6668,
			"max":[
				3.5267128944396973,
				2.9967193603515625,
				3.3208861351013184
			],
			"min":[
				-3.5267128944396973,
				0.0018090680241584778,
				-3.024731397628784
			],
			"type":"VEC3"
		},
		{
			"bufferView":1,
			"componentType":5126,
			"count":6668,
			"type":"VEC3"
		},
		{
			"bufferView":2,
			"componentType":5126,
			"count":6668,
			"type":"VEC3"
		},
		{
			"bufferView":3,
			"componentType":5121,
			"count":6668,
			"type":"VEC4"
		},
		{
			"bufferView":4,
			"componentType":5126,
			"count":6668,
			"type":"VEC4"
		},
		{
			"bufferView":5,
			"componentType":5123,
			"count":9228,
			"type":"SCALAR"
		},
		{
			"bufferView":6,
			"componentType":5126,
			"count":19,
			"type":"MAT4"
		},
		{
			"bufferView":7,
			"componentType":5126,
			"count":2,
			"max":[
				1.0666666666666667
			],
			"min":[
				0
			],
			"type":"SCALAR"
		},
		{
			"bufferView":8,
			"componentType":5126,
			"count":2,
			"type":"VEC3"
		},
		{
			"bufferView":9,
			"componentType":5126,
			"count":33,
			"max":[
				1.0666666666666667
			],
			"min":[
				0
			],
			"type":"SCALAR"
		},
		{
			"bufferView":10,
			"componentType":5126,
			"count":33,
			"type":"VEC4"
		},
		{
			"bufferView":11,
			"componentType":5126,
			"count":2,
			"type":"VEC3"
		},
		{
			"bufferView":12,
			"componentType":5126,
			"count":2,
			"type":"VEC3"
		},
		{
			"bufferView":13,
			"componentType":5126,
			"count":33,
			"type":"VEC4"
		},
		{
			"bufferView":14,
			"componentType":5126,
			"count":2,
			"type":"VEC3"
		},
		{
			"bufferView":15,
			"componentType":5126,
			"count":2,
			"type":"VEC3"
		},
		{
			"bufferView":16,
			"componentType":5126,
			"count":33,
			"type":"VEC4"
		},
		{
			"bufferView":17,
			"componentType":5126,
			"count":2,
			"type":"VEC3"
		},
		{
			"bufferView":18,
			"componentType":5126,
			"count":2,
			"type":"VEC3"
		},
		{
			"bufferView":19,
			"componentType":5126,
			"count":33,
			"type":"VEC4"
		},
		{
			"bufferView":20,
			"componentType":5126,
			"count":2,
			"type":"VEC3"
		},
		{
			"bufferView":21,
			"componentType":5126,
			"count":33,
			"type":"VEC4"
		},
		{
			"bufferView":22,
			"componentType":5126,
			"count":2,
			"type":"VEC3"
		},
		{
			"bufferView":23,
			"componentType":5126,
			"count":33,
			"type":"VEC4"
		},
		{
			"bufferView":24,
			"componentType":5126,
			"count":2,
			"type":"VEC3"
		},
		{
			"bufferView":25,
			"componentType":5126,
			"count":2,
			"type":"VEC3"
		},
		{
			"bufferView":26,
			"componentType":5126,
			"count":2,
			"type":"VEC4"
		},
		{
			"bufferView":27,
			"componentType":5126,
			"count":2,
			"type":"VEC3"
		},
		{
			"bufferView":28,
			"componentType":5126,
			"count":33,
			"type":"VEC4"
		},
		{
			"bufferView":29,
			"componentType":5126,
			"count":2,
			"type":"VEC3"
		},
		{
			"bufferView":30,
			"componentType":5126,
			"count":2,
			"type":"VEC4"
		},
		{
			"bufferView":31,
			"componentType":5126,
			"count":2,
			"type":"VEC3"
		},
		{
			"bufferView":32,
			"componentType":5126,
			"count":2,
			"type":"VEC4"
		},
		{
			"bufferView":33,
			"componentType":5126,
			"count":2,
			"type":"VEC3"
		},
		{
			"bufferView":34,
			"componentType":5126,
			"count":2,
			"type":"VEC3"
		},
		{
			"bufferView":35,
			"componentType":5126,
			"count":2,
			"type":"VEC4"
		},
		{
			"bufferView":36,
			"componentType":5126,
			"count":2,
			"type":"VEC3"
		},
		{
			"bufferView":37,
			"componentType":5126,
			"count":2,
			"type":"VEC3"
		},
		{
			"bufferView":38,
			"componentType":5126,
			"count":2,
			"type":"VEC4"
		},
		{
			"bufferView":39,
			"componentType":5126,
			"count":2,
			"type":"VEC3"
		},
		{
			"bufferView":40,
			"componentType":5126,
			"count":2,
			"type":"VEC4"
		},
		{
			"bufferView":41,
			"componentType":5126,
			"count":2,
			"type":"VEC3"
		},
		{
			"bufferView":42,
			"componentType":5126,
			"count":2,
			"type":"VEC4"
		},
		{
			"bufferView":43,
			"componentType":5126,
			"count":2,
			"type":"VEC3"
		},
		{
			"bufferView":44,
			"componentType":5126,
			"count":2,
			"type":"VEC4"
		},
		{
			"bufferView":45,
			"componentType":5126,
			"count":2,
			"type":"VEC3"
		},
		{
			"bufferView":46,
			"componentType":5126,
			"count":2,
			"type":"VEC3"
		},
		{
			"bufferView":47,
			"componentType":5126,
			"count":2,
			"type":"VEC4"
		},
		{
			"bufferView":48,
			"componentType":5126,
			"count":2,
			"type":"VEC3"
		},
		{
			"bufferView":49,
			"componentType":5126,
			"count":2,
			"type":"VEC4"
		},
		{
			"bufferView":50,
			"componentType":5126,
			"count":2,
			"type":"VEC3"
		},
		{
			"bufferView":51,
			"componentType":5126,
			"count":2,
			"type":"VEC4"
		},
		{
			"bufferView":52,
			"componentType":5126,
			"count":2,
			"type":"VEC3"
		},
		{
			"bufferView":53,
			"componentType":5126,
			"count":2,
			"type":"VEC3"
		},
		{
			"bufferView":54,
			"componentType":5126,
			"count":33,
			"type":"VEC4"
		},
		{
			"bufferView":55,
			"componentType":5126,
			"count":2,
			"type":"VEC3"
		},
		{
			"bufferView":56,
			"componentType":5126,
			"count":91,
			"max":[
				3
			],
			"min":[
				0
			],
			"type":"SCALAR"
		},
		{
			"bufferView":57,
			"componentType":5126,
			"count":91,
			"type":"VEC3"
		},
		{
			"bufferView":58,
			"componentType":5126,
			"count":2,
			"max":[
				3
			],
			"min":[
				0
			],
			"type":"SCALAR"
		},
		{
			"bufferView":59,
			"componentType":5126,
			"count":2,
			"type":"VEC4"
		},
		{
			"bufferView":60,
			"componentType":5126,
			"count":91,
			"type":"VEC4"
		},
		{
			"bufferView":61,
			"componentType":5126,
			"count":91,
			"type":"VEC4"
		},
		{
			"bufferView":62,
			"componentType":5126,
			"count":91,
			"type":"VEC4"
		},
		{
			"bufferView":63,
			"componentType":5126,
			"count":91,
			"type":"VEC4"
		},
		{
			"bufferView":64,
			"componentType":5126,
			"count":91,
			"type":"VEC4"
		},
		{
			"bufferView":65,
			"componentType":5126,
			"count":2,
			"type":"VEC3"
		},
		{
			"bufferView":66,
			"componentType":5126,
			"count":91,
			"type":"VEC4"
		},
		{
			"bufferView":67,
			"componentType":5126,
			"count":2,
			"type":"VEC3"
		},
		{
			"bufferView":68,
			"componentType":5126,
			"count":91,
			"type":"VEC4"
		},
		{
			"bufferView":69,
			"componentType":5126,
			"count":2,
			"type":"VEC3"
		},
		{
			"bufferView":70,
			"componentType":5126,
			"count":91,
			"type":"VEC4"
		},
		{
			"bufferView":71,
			"componentType":5126,
			"count":91,
			"type":"VEC4"
		},
		{
			"bufferView":72,
			"componentType":5126,
			"count":2,
			"type":"VEC3"
		},
		{
			"bufferView":73,
			"componentType":5126,
			"count":91,
			"type":"VEC4"
		},
		{
			"bufferView":74,
			"componentType":5126,
			"count":2,
			"type":"VEC3"
		},
		{
			"bufferView":75,
			"componentType":5126,
			"count":91,
			"type":"VEC4"
		},
		{
			"bufferView":76,
			"componentType":5126,
			"count":2,
			"type":"VEC3"
		},
		{
			"bufferView":77,
			"componentType":5126,
			"count":91,
			"type":"VEC4"
		},
		{
			"bufferView":78,
			"componentType":5126,
			"count":91,
			"type":"VEC4"
		},
		{
			"bufferView":79,
			"componentType":5126,
			"count":2,
			"type":"VEC3"
		},
		{
			"bufferView":80,
			"componentType":5126,
			"count":2,
			"type":"VEC3"
		},
		{
			"bufferView":81,
			"componentType":5126,
			"count":91,
			"type":"VEC4"
		},
		{
			"bufferView":82,
			"componentType":5126,
			"count":91,
			"type":"VEC4"
		},
		{
			"bufferView":83,
			"componentType":5126,
			"count":2,
			"type":"VEC3"
		},
		{
			"bufferView":84,
			"componentType":5126,
			"count":91,
			"type":"VEC4"
		},
		{
			"bufferView":85,
			"componentType":5126,
			"count":91,
			"type":"VEC4"
		},
		{
			"bufferView":86,
			"componentType":5126,
			"count":91,
			"type":"VEC4"
		},
		{
			"bufferView":87,
			"componentType":5126,
			"count":25,
			"max":[
				0.8
			],
			"min":[
				0
			],
			"type":"SCALAR"
		},
		{
			"bufferView":88,
			"componentType":5126,
			"count":25,
			"type":"VEC3"
		},
		{
			"bufferView":89,
			"componentType":5126,
			"count":2,
			"max":[
				0.8
			],
			"min":[
				0
			],
			"type":"SCALAR"
		},
		{
			"bufferView":90,
			"componentType":5126,
			"count":25,
			"type":"VEC4"
		},
		{
			"bufferView":91,
			"componentType":5126,
			"count":2,
			"type":"VEC3"
		},
		{
			"bufferView":92,
			"componentType":5126,
			"count":25,
			"type":"VEC4"
		},
		{
			"bufferView":93,
			"componentType":5126,
			"count":2,
			"type":"VEC3"
		},
		{
			"bufferView":94,
			"componentType":5126,
			"count":25,
			"type":"VEC4"
		},
		{
			"bufferView":95,
			"componentType":5126,
			"count":2,
			"type":"VEC3"
		},
		{
			"bufferView":96,
			"componentType":5126,
			"count":25,
			"type":"VEC4"
		},
		{
			"bufferView":97,
			"componentType":5126,
			"count":2,
			"type":"VEC3"
		},
		{
			"bufferView":98,
			"componentType":5126,
			"count":25,
			"type":"VEC4"
		},
		{
			"bufferView":99,
			"componentType":5126,
			"count":2,
			"type":"VEC3"
		},
		{
			"bufferView":100,
			"componentType":5126,
			"count":25,
			"type":"VEC4"
		},
		{
			"bufferView":101,
			"componentType":5126,
			"count":25,
			"type":"VEC4"
		},
		{
			"bufferView":102,
			"componentType":5126,
			"count":2,
			"type":"VEC3"
		},
		{
			"bufferView":103,
			"componentType":5126,
			"count":25,
			"type":"VEC4"
		},
		{
			"bufferView":104,
			"componentType":5126,
			"count":25,
			"type":"VEC4"
		},
		{
			"bufferView":105,
			"componentType":5126,
			"count":2,
			"type":"VEC3"
		},
		{
			"bufferView":106,
			"componentType":5126,
			"count":25,
			"type":"VEC4"
		},
		{
			"bufferView":107,
			"componentType":5126,
			"count":25,
			"type":"VEC4"
		},
		{
			"bufferView":108,
			"componentType":5126,
			"count":2,
			"type":"VEC3"
		},
		{
			"bufferView":109,
			"componentType":5126,
			"count":25,
			"type":"VEC4"
		},
		{
			"bufferView":110,
			"componentType":5126,
			"count":25,
			"type":"VEC4"
		},
		{
			"bufferView":111,
			"componentType":5126,
			"count":2,
			"type":"VEC3"
		},
		{
			"bufferView":112,
			"componentType":5126,
			"count":25,
			"type":"VEC4"
		},
		{
			"bufferView":113,
			"componentType":5126,
			"count":25,
			"type":"VEC4"
		},
		{
			"bufferView":114,
			"componentType":5126,
			"count":2,
			"type":"VEC3"
		},
		{
			"bufferView":115,
			"componentType":5126,
			"count":25,
			"type":"VEC4"
		},
		{
			"bufferView":116,
			"componentType":5126,
			"count":2,
			"type":"VEC3"
		},
		{
			"bufferView":117,
			"componentType":5126,
			"count":25,
			"type":"VEC4"
		},
		{
			"bufferView":118,
			"componentType":5126,
			"count":2,
			"type":"VEC4"
		}
	],
	"bufferViews":[
		{
			"buffer":0,
			"byteLength":80016,
			"byteOffset":0,
			"target":34962
		},
		{
			"buffer":0,
			"byteLength":80016,
			"byteOffset":80016,
			"target":34962
		},
		{
			"buffer":0,
			"byteLength":80016,
			"byteOffset":160032,
			"target":34962
		},
		{
			"buffer":0,
			"byteLength":26672,
			"byteOffset":240048,
			"target":34962
		},
		{
			"buffer":0,
			"byteLength":106688,
			"byteOffset":266720,
			"target":34962
		},
		{
			"buffer":0,
			"byteLength":18456,
			"byteOffset":373408,
			"target":34963
		},
		{
			"buffer":0,
			"byteLength":1216,
			"byteOffset":391864
		},
		{
			"buffer":0,
			"byteLength":8,
			"byteOffset":393080
		},
		{
			"buffer":0,
			"byteLength":24,
			"byteOffset":393088
		},
		{
			"buffer":0,
			"byteLength":132,
			"byteOffset":393112
		},
		{
			"buffer":0,
			"byteLength":528,
			"byteOffset":393244
		},
		{
			"buffer":0,
			"byteLength":24,
			"byteOffset":393772
		},
		{
			"buffer":0,
			"byteLength":24,
			"byteOffset":393796
		},
		{
			"buffer":0,
			"byteLength":528,
			"byteOffset":393820
		},
		{
			"buffer":0,
			"byteLength":24,
			"byteOffset":394348
		},
		{
			"buffer":0,
			"byteLength":24,
			"byteOffset":394372
		},
		{
			"buffer":0,
			"byteLength":528,
			"byteOffset":394396
		},
		{
			"buffer":0,
			"byteLength":24,
			"byteOffset":394924
		},
		{
			"buffer":0,
			"byteLength":24,
			"byteOffset":394948
		},
		{
			"buffer":0,
			"byteLength":528,
			"byteOffset":394972
		},
		{
			"buffer":0,
			"byteLength":24,
			"byteOffset":395500
		},
		{
			"buffer":0,
			"byteLength":528,
			"byteOffset":395524
		},
		{
			"buffer":0,
			"byteLength":24,
			"byteOffset":396052
		},
		{
			"buffer":0,
			"byteLength":528,
			"byteOffset":396076
		},
		{
			"buffer":0,
			"byteLength":24,
			"byteOffset":396604
		},
		{
			"buffer":0,
			"byteLength":24,
			"byteOffset":396628
		},
		{
			"buffer":0,
			"byteLength":32,
			"byteOffset":396652
		},
		{
			"buffer":0,
			"byteLength":24,
			"byteOffset":396684
		},
		{
			"buffer":0,
			"byteLength":528,
			"byteOffset":396708
		},
		{
			"buffer":0,
			"byteLength":24,
			"byteOffset":397236
		},
		{
			"buffer":0,
			"byteLength":32,
			"byteOffset":397260
		},
		{
			"buffer":0,
			"byteLength":24,
			"byteOffset":397292
		},
		{
			"buffer":0,
			"byteLength":32,
			"byteOffset":397316
		},
		{
			"buffer":0,
			"byteLength":24,
			"byteOffset":397348
		},
		{
			"buffer":0,
			"byteLength":24,
			"byteOffset":397372
		},
		{
			"buffer":0,
			"byteLength":32,
			"byteOffset":397396
		},
		{
			"buffer":0,
			"byteLength":24,
			"byteOffset":397428
		},
		{
			"buffer":0,
			"byteLength":24,
			"byteOffset":397452
		},
		{
			"buffer":0,
			"byteLength":32,
			"byteOffset":397476
		},
		{
			"buffer":0,
			"byteLength":24,
			"byteOffset":397508
		},
		{
			"buffer":0,
			"byteLength":32,
			"byteOffset":397532
		},
		{
			"buffer":0,
			"byteLength":24,
			"byteOffset":397564
		},
		{
			"buffer":0,
			"byteLength":32,
			"byteOffset":397588
		},
		{
			"buffer":0,
			"byteLength":24,
			"byteOffset":397620
		},
		{
			"buffer":0,
			"byteLength":32,
			"byteOffset":397644
		},
		{
			"buffer":0,
			"byteLength":24,
			"byteOffset":397676
		},
		{
			"buffer":0,
			"byteLength":24,
			"byteOffset":397700
		},
		{
			"buffer":0,
			"byteLength":32,
			"byteOffset":397724
		},
		{
			"buffer":0,
			"byteLength":24,
			"byteOffset":397756
		},
		{
			"buffer":0,
			"byteLength":32,
			"byteOffset":397780
		},
		{
			"buffer":0,
			"byteLength":24,
			"byteOffset":397812
		},
		{
			"buffer":0,
			"byteLength":32,
			"byteOffset":397836
		},
		{
			"buffer":0,
			"byteLength":24,
			"byteOffset":397868
		},
		{
			"buffer":0,
			"byteLength":24,
			"byteOffset":397892
		},
		{
			"buffer":0,
			"byteLength":528,
			"byteOffset":397916
		},
		{
			"buffer":0,
			"byteLength":24,
			"byteOffset":398444
		},
		{
			"buffer":0,
			"byteLength":364,
			"byteOffset":398468
		},
		{
			"buffer":0,
			"byteLength":1092,
			"byteOffset":398832
		},
		{
			"buffer":0,
			"byteLength":8,
			"byteOffset":399924
		},
		{
			"buffer":0,
			"byteLength":32,
			"byteOffset":399932
		},
		{
			"buffer":0,
			"byteLength":1456,
			"byteOffset":399964
		},
		{
			"buffer":0,
			"byteLength":1456,
			"byteOffset":401420
		},
		{
			"buffer":0,
			"byteLength":1456,
			"byteOffset":402876
		},
		{
			"buffer":0,
			"byteLength":1456,
			"byteOffset":404332
		},
		{
			"buffer":0,
			"byteLength":1456,
			"byteOffset":405788
		},
		{
			"buffer":0,
			"byteLength":24,
			"byteOffset":407244
		},
		{
			"buffer":0,
			"byteLength":1456,
			"byteOffset":407268
		},
		{
			"buffer":0,
			"byteLength":24,
			"byteOffset":408724
		},
		{
			"buffer":0,
			"byteLength":1456,
			"byteOffset":408748
		},
		{
			"buffer":0,
			"byteLength":24,
			"byteOffset":410204
		},
		{
			"buffer":0,
			"byteLength":1456,
			"byteOffset":410228
		},
		{
			"buffer":0,
			"byteLength":1456,
			"byteOffset":411684
		},
		{
			"buffer":0,
			"byteLength":24,
			"byteOffset":413140
		},
		{
			"buffer":0,
			"byteLength":1456,
			"byteOffset":413164
		},
		{
			"buffer":0,
			"byteLength":24,
			"byteOffset":414620
		},
		{
			"buffer":0,
			"byteLength":1456,
			"byteOffset":414644
		},
		{
			"buffer":0,
			"byteLength":24,
			"byteOffset":416100
		},
		{
			"buffer":0,
			"byteLength":1456,
			"byteOffset":416124
		},
		{
			"buffer":0,
			"byteLength":1456,
			"byteOffset":417580
		},
		{
			"buffer":0,
			"byteLength":24,
			"byteOffset":419036
		},
		{
			"buffer":0,
			"byteLength":24,
			"byteOffset":419060
		},
		{
			"buffer":0,
			"byteLength":1456,
			"byteOffset":419084
		},
		{
			"buffer":0,
			"byteLength":1456,
			"byteOffset":420540
		},
		{
			"buffer":0,
			"byteLength":24,
			"byteOffset":421996
		},
		{
			"buffer":0,
			"byteLength":1456,
			"byteOffset":422020
		},
		{
			"buffer":0,
			"byteLength":1456,
			"byteOffset":423476
		},
		{
			"buffer":0,
			"byteLength":1456,
			"byteOffset":424932
		},
		{
			"buffer":0,
			"byteLength":100,
			"byteOffset":426388
		},
		{
			"buffer":0,
			"byteLength":300,
			"byteOffset":426488
		},
		{
			"buffer":0,
			"byteLength":8,
			"byteOffset":426788
		},
		{
			"buffer":0,
			"byteLength":400,
			"byteOffset":426796
		},
		{
			"buffer":0,
			"byteLength":24,
			"byteOffset":427196
		},
		{
			"buffer":0,
			"byteLength":400,
			"byteOffset":427220
		},
		{
			"buffer":0,
			"byteLength":24,
			"byteOffset":427620
		},
		{
			"buffer":0,
			"byteLength":400,
			"byteOffset":427644
		},
		{
			"buffer":0,
			"byteLength":24,
			"byteOffset":428044
		},
		{
			"buffer":0,
			"byteLength":400,
			"byteOffset":428068
		},
		{
			"buffer":0,
			"byteLength":24,
			"byteOffset":428468
		},
		{
			"buffer":0,
			"byteLength":400,
			"byteOffset":428492
		},
		{
			"buffer":0,
			"byteLength":24,
			"byteOffset":428892
		},
		{
			"buffer":0,
			"byteLength":400,
			"byteOffset":428916
		},
		{
			"buffer":0,
			"byteLength":400,
			"byteOffset":429316
		},
		{
			"buffer":0,
			"byteLength":24,
			"byteOffset":429716
		},
		{
			"buffer":0,
			"byteLength":400,
			"byteOffset":429740
		},
		{
			"buffer":0,
			"byteLength":400,
			"byteOffset":430140
		},
		{
			"buffer":0,
			"byteLength":24,
			"byteOffset":430540
		},
		{
			"buffer":0,
			"byteLength":400,
			"byteOffset":430564
		},
		{
			"buffer":0,
			"byteLength":400,
			"byteOffset":430964
		},
		{
			"buffer":0,
			"byteLength":24,
			"byteOffset":431364
		},
		{
			"buffer":0,
			"byteLength":400,
			"byteOffset":431388
		},
		{
			"buffer":0,
			"byteLength":400,
			"byteOffset":431788
		},
		{
			"buffer":0,
			"byteLength":24,
			"byteOffset":432188
		},
		{
			"buffer":0,
			"byteLength":400,
			"byteOffset":432212
		},
		{
			"buffer":0,
			"byteLength":400,
			"byteOffset":432612
		},
		{
			"buffer":0,
			"byteLength":24,
			"byteOffset":433012
		},
		{
			"buffer":0,
			"byteLength":400,
			"byteOffset":433036
		},
		{
			"buffer":0,
			"byteLength":24,
			"byteOffset":433436
		},
		{
			"buffer":0,
			"byteLength":400,
			"byteOffset":433460
		},
		{
			"buffer":0,
			"byteLength":32,
			"byteOffset":433860
		}
	],
	"buffers":[
		{
			"byteLength":433892,
			"uri":"spinnenkoenigin.bin"
		}
	]
}
