{
	"asset":{
		"generator":"Khronos glTF Blender I/O v5.2.40",
		"version":"2.0"
	},
	"scene":0,
	"scenes":[
		{
			"name":"Scene",
			"nodes":[
				19
			]
		}
	],
	"nodes":[
		{
			"name":"Hut",
			"rotation":[
				-0.564603328704834,
				6.957284170994171e-08,
				-4.7592493501724675e-08,
				0.8253624439239502
			],
			"translation":[
				0,
				0.5610003471374512,
				-0.03400000184774399
			]
		},
		{
			"children":[
				0
			],
			"name":"Kopf",
			"translation":[
				0,
				0.1530001163482666,
				0
			]
		},
		{
			"children":[
				1
			],
			"name":"Hals",
			"rotation":[
				0,
				-5.9604641222676946e-08,
				0,
				1
			],
			"translation":[
				0,
				0.4419999122619629,
				0
			]
		},
		{
			"name":"Hand.L",
			"rotation":[
				-0.029935400933027267,
				-0.0012852952349931002,
				0.008676120080053806,
				0.9995133876800537
			],
			"scale":[
				0.9999999403953552,
				0.9999999403953552,
				1
			],
			"translation":[
				-1.5832457567199754e-10,
				0.4364069998264313,
				-9.313225746154785e-10
			]
		},
		{
			"children":[
				3
			],
			"name":"Unterarm.L",
			"rotation":[
				-0.09223339706659317,
				-0.001397312036715448,
				0.05675356835126877,
				0.9941177368164062
			],
			"scale":[
				0.9999999403953552,
				0.9999998211860657,
				0.9999999403953552
			],
			"translation":[
				-2.0380318233037542e-07,
				0.5011398196220398,
				0
			]
		},
		{
			"children":[
				4
			],
			"name":"Oberarm.L",
			"rotation":[
				-0.9873651266098022,
				-0.15478406846523285,
				0.005256587639451027,
				0.033532653003931046
			],
			"scale":[
				1.000001311302185,
				1.0000001192092896,
				1
			],
			"translation":[
				0.3400000035762787,
				0.3400001525878906,
				4.0531158873591266e-08
			]
		},
		{
			"name":"Hand.R",
			"rotation":[
				-0.029935400933027267,
				0.0012852965155616403,
				-0.008676148019731045,
				0.9995133876800537
			],
			"scale":[
				1,
				0.9999999403953552,
				1
			],
			"translation":[
				2.2165447255417803e-10,
				0.4364071488380432,
				5.587935447692871e-09
			]
		},
		{
			"children":[
				6
			],
			"name":"Unterarm.R",
			"rotation":[
				-0.09223341196775436,
				0.0013973441673442721,
				-0.056753531098365784,
				0.9941177368164062
			],
			"scale":[
				1,
				0.9999998807907104,
				1
			],
			"translation":[
				2.6762489113707488e-08,
				0.5011398196220398,
				-6.51925802230835e-09
			]
		},
		{
			"children":[
				7
			],
			"name":"Oberarm.R",
			"rotation":[
				-0.9873651266098022,
				0.15478406846523285,
				-0.005256663076579571,
				0.03353266790509224
			],
			"scale":[
				1.0000014305114746,
				1.0000001192092896,
				1
			],
			"translation":[
				-0.3400000035762787,
				0.3400001525878906,
				-4.0531158873591266e-08
			]
		},
		{
			"children":[
				2,
				5,
				8
			],
			"name":"Brust",
			"rotation":[
				0,
				5.9604641222676946e-08,
				0,
				1
			],
			"scale":[
				1,
				0.9999999403953552,
				1
			],
			"translation":[
				0,
				0.3399999141693115,
				0
			]
		},
		{
			"children":[
				9
			],
			"name":"Bauch",
			"translation":[
				0,
				0.25500011444091797,
				0
			]
		},
		{
			"name":"Fuss.L",
			"rotation":[
				-1.3431495915483538e-07,
				0.8304529190063477,
				-0.5570888519287109,
				3.596905742142553e-07
			],
			"scale":[
				1,
				1.0000001192092896,
				1
			],
			"translation":[
				6.827003407039456e-09,
				0.7148090600967407,
				-8.834888376441086e-10
			]
		},
		{
			"children":[
				11
			],
			"name":"Unterschenkel.L",
			"rotation":[
				0.023789314553141594,
				1.3968397638564056e-07,
				1.2441985219879825e-09,
				0.9997169971466064
			],
			"scale":[
				1,
				1,
				0.9999999403953552
			],
			"translation":[
				0,
				0.7310000061988831,
				0
			]
		},
		{
			"children":[
				12
			],
			"name":"Oberschenkel.L",
			"rotation":[
				1,
				0,
				-4.371138828673793e-08,
				0
			],
			"translation":[
				0.17000000178813934,
				0,
				0
			]
		},
		{
			"name":"Fuss.R",
			"rotation":[
				-1.3431495915483538e-07,
				0.8304529190063477,
				-0.5570888519287109,
				3.596905742142553e-07
			],
			"scale":[
				1,
				1.0000001192092896,
				1
			],
			"translation":[
				6.827003407039456e-09,
				0.7148090600967407,
				8.834888376441086e-10
			]
		},
		{
			"children":[
				14
			],
			"name":"Unterschenkel.R",
			"rotation":[
				0.023789314553141594,
				1.3968397638564056e-07,
				1.2441985219879825e-09,
				0.9997169971466064
			],
			"scale":[
				1,
				1,
				0.9999999403953552
			],
			"translation":[
				0,
				0.7310000061988831,
				0
			]
		},
		{
			"children":[
				15
			],
			"name":"Oberschenkel.R",
			"rotation":[
				1,
				0,
				-4.371138828673793e-08,
				0
			],
			"translation":[
				-0.17000000178813934,
				0,
				0
			]
		},
		{
			"children":[
				10,
				13,
				16
			],
			"name":"Becken",
			"translation":[
				0,
				1.6150000095367432,
				0
			]
		},
		{
			"mesh":0,
			"name":"Steingolem",
			"skin":0
		},
		{
			"children":[
				18,
				17
			],
			"name":"SteingolemSkelett"
		}
	],
	"animations":[
		{
			"channels":[
				{
					"sampler":0,
					"target":{
						"node":17,
						"path":"translation"
					}
				},
				{
					"sampler":1,
					"target":{
						"node":17,
						"path":"rotation"
					}
				},
				{
					"sampler":2,
					"target":{
						"node":17,
						"path":"scale"
					}
				},
				{
					"sampler":3,
					"target":{
						"node":10,
						"path":"translation"
					}
				},
				{
					"sampler":4,
					"target":{
						"node":10,
						"path":"rotation"
					}
				},
				{
					"sampler":5,
					"target":{
						"node":10,
						"path":"scale"
					}
				},
				{
					"sampler":6,
					"target":{
						"node":9,
						"path":"translation"
					}
				},
				{
					"sampler":7,
					"target":{
						"node":9,
						"path":"rotation"
					}
				},
				{
					"sampler":8,
					"target":{
						"node":9,
						"path":"scale"
					}
				},
				{
					"sampler":9,
					"target":{
						"node":2,
						"path":"translation"
					}
				},
				{
					"sampler":10,
					"target":{
						"node":2,
						"path":"rotation"
					}
				},
				{
					"sampler":11,
					"target":{
						"node":2,
						"path":"scale"
					}
				},
				{
					"sampler":12,
					"target":{
						"node":1,
						"path":"translation"
					}
				},
				{
					"sampler":13,
					"target":{
						"node":1,
						"path":"rotation"
					}
				},
				{
					"sampler":14,
					"target":{
						"node":1,
						"path":"scale"
					}
				},
				{
					"sampler":15,
					"target":{
						"node":0,
						"path":"translation"
					}
				},
				{
					"sampler":16,
					"target":{
						"node":0,
						"path":"rotation"
					}
				},
				{
					"sampler":17,
					"target":{
						"node":0,
						"path":"scale"
					}
				},
				{
					"sampler":18,
					"target":{
						"node":5,
						"path":"translation"
					}
				},
				{
					"sampler":19,
					"target":{
						"node":5,
						"path":"rotation"
					}
				},
				{
					"sampler":20,
					"target":{
						"node":5,
						"path":"scale"
					}
				},
				{
					"sampler":21,
					"target":{
						"node":4,
						"path":"translation"
					}
				},
				{
					"sampler":22,
					"target":{
						"node":4,
						"path":"rotation"
					}
				},
				{
					"sampler":23,
					"target":{
						"node":4,
						"path":"scale"
					}
				},
				{
					"sampler":24,
					"target":{
						"node":3,
						"path":"translation"
					}
				},
				{
					"sampler":25,
					"target":{
						"node":3,
						"path":"rotation"
					}
				},
				{
					"sampler":26,
					"target":{
						"node":3,
						"path":"scale"
					}
				},
				{
					"sampler":27,
					"target":{
						"node":8,
						"path":"translation"
					}
				},
				{
					"sampler":28,
					"target":{
						"node":8,
						"path":"rotation"
					}
				},
				{
					"sampler":29,
					"target":{
						"node":8,
						"path":"scale"
					}
				},
				{
					"sampler":30,
					"target":{
						"node":7,
						"path":"translation"
					}
				},
				{
					"sampler":31,
					"target":{
						"node":7,
						"path":"rotation"
					}
				},
				{
					"sampler":32,
					"target":{
						"node":7,
						"path":"scale"
					}
				},
				{
					"sampler":33,
					"target":{
						"node":6,
						"path":"translation"
					}
				},
				{
					"sampler":34,
					"target":{
						"node":6,
						"path":"rotation"
					}
				},
				{
					"sampler":35,
					"target":{
						"node":6,
						"path":"scale"
					}
				},
				{
					"sampler":36,
					"target":{
						"node":13,
						"path":"translation"
					}
				},
				{
					"sampler":37,
					"target":{
						"node":13,
						"path":"rotation"
					}
				},
				{
					"sampler":38,
					"target":{
						"node":13,
						"path":"scale"
					}
				},
				{
					"sampler":39,
					"target":{
						"node":12,
						"path":"translation"
					}
				},
				{
					"sampler":40,
					"target":{
						"node":12,
						"path":"rotation"
					}
				},
				{
					"sampler":41,
					"target":{
						"node":12,
						"path":"scale"
					}
				},
				{
					"sampler":42,
					"target":{
						"node":11,
						"path":"translation"
					}
				},
				{
					"sampler":43,
					"target":{
						"node":11,
						"path":"rotation"
					}
				},
				{
					"sampler":44,
					"target":{
						"node":11,
						"path":"scale"
					}
				},
				{
					"sampler":45,
					"target":{
						"node":16,
						"path":"translation"
					}
				},
				{
					"sampler":46,
					"target":{
						"node":16,
						"path":"rotation"
					}
				},
				{
					"sampler":47,
					"target":{
						"node":16,
						"path":"scale"
					}
				},
				{
					"sampler":48,
					"target":{
						"node":15,
						"path":"translation"
					}
				},
				{
					"sampler":49,
					"target":{
						"node":15,
						"path":"rotation"
					}
				},
				{
					"sampler":50,
					"target":{
						"node":15,
						"path":"scale"
					}
				},
				{
					"sampler":51,
					"target":{
						"node":14,
						"path":"translation"
					}
				},
				{
					"sampler":52,
					"target":{
						"node":14,
						"path":"rotation"
					}
				},
				{
					"sampler":53,
					"target":{
						"node":14,
						"path":"scale"
					}
				}
			],
			"name":"Angriff",
			"samplers":[
				{
					"input":7,
					"interpolation":"LINEAR",
					"output":8
				},
				{
					"input":9,
					"interpolation":"STEP",
					"output":10
				},
				{
					"input":9,
					"interpolation":"STEP",
					"output":11
				},
				{
					"input":9,
					"interpolation":"STEP",
					"output":12
				},
				{
					"input":7,
					"interpolation":"LINEAR",
					"output":13
				},
				{
					"input":9,
					"interpolation":"STEP",
					"output":11
				},
				{
					"input":9,
					"interpolation":"STEP",
					"output":14
				},
				{
					"input":7,
					"interpolation":"LINEAR",
					"output":15
				},
				{
					"input":9,
					"interpolation":"STEP",
					"output":16
				},
				{
					"input":9,
					"interpolation":"STEP",
					"output":17
				},
				{
					"input":9,
					"interpolation":"STEP",
					"output":18
				},
				{
					"input":9,
					"interpolation":"STEP",
					"output":11
				},
				{
					"input":9,
					"interpolation":"STEP",
					"output":19
				},
				{
					"input":7,
					"interpolation":"LINEAR",
					"output":20
				},
				{
					"input":9,
					"interpolation":"STEP",
					"output":11
				},
				{
					"input":9,
					"interpolation":"STEP",
					"output":21
				},
				{
					"input":9,
					"interpolation":"STEP",
					"output":22
				},
				{
					"input":9,
					"interpolation":"STEP",
					"output":11
				},
				{
					"input":9,
					"interpolation":"STEP",
					"output":23
				},
				{
					"input":7,
					"interpolation":"LINEAR",
					"output":24
				},
				{
					"input":9,
					"interpolation":"STEP",
					"output":25
				},
				{
					"input":9,
					"interpolation":"STEP",
					"output":26
				},
				{
					"input":7,
					"interpolation":"LINEAR",
					"output":27
				},
				{
					"input":9,
					"interpolation":"STEP",
					"output":28
				},
				{
					"input":9,
					"interpolation":"STEP",
					"output":29
				},
				{
					"input":9,
					"interpolation":"STEP",
					"output":30
				},
				{
					"input":9,
					"interpolation":"STEP",
					"output":31
				},
				{
					"input":9,
					"interpolation":"STEP",
					"output":32
				},
				{
					"input":7,
					"interpolation":"LINEAR",
					"output":33
				},
				{
					"input":9,
					"interpolation":"STEP",
					"output":34
				},
				{
					"input":9,
					"interpolation":"STEP",
					"output":35
				},
				{
					"input":7,
					"interpolation":"LINEAR",
					"output":36
				},
				{
					"input":9,
					"interpolation":"STEP",
					"output":37
				},
				{
					"input":9,
					"interpolation":"STEP",
					"output":38
				},
				{
					"input":9,
					"interpolation":"STEP",
					"output":39
				},
				{
					"input":9,
					"interpolation":"STEP",
					"output":40
				},
				{
					"input":9,
					"interpolation":"STEP",
					"output":41
				},
				{
					"input":7,
					"interpolation":"LINEAR",
					"output":42
				},
				{
					"input":9,
					"interpolation":"STEP",
					"output":11
				},
				{
					"input":9,
					"interpolation":"STEP",
					"output":43
				},
				{
					"input":7,
					"interpolation":"LINEAR",
					"output":44
				},
				{
					"input":9,
					"interpolation":"STEP",
					"output":45
				},
				{
					"input":9,
					"interpolation":"STEP",
					"output":46
				},
				{
					"input":9,
					"interpolation":"STEP",
					"output":47
				},
				{
					"input":9,
					"interpolation":"STEP",
					"output":48
				},
				{
					"input":9,
					"interpolation":"STEP",
					"output":49
				},
				{
					"input":7,
					"interpolation":"LINEAR",
					"output":42
				},
				{
					"input":9,
					"interpolation":"STEP",
					"output":11
				},
				{
					"input":9,
					"interpolation":"STEP",
					"output":50
				},
				{
					"input":7,
					"interpolation":"LINEAR",
					"output":44
				},
				{
					"input":9,
					"interpolation":"STEP",
					"output":45
				},
				{
					"input":9,
					"interpolation":"STEP",
					"output":51
				},
				{
					"input":9,
					"interpolation":"STEP",
					"output":47
				},
				{
					"input":9,
					"interpolation":"STEP",
					"output":48
				}
			]
		},
		{
			"channels":[
				{
					"sampler":0,
					"target":{
						"node":17,
						"path":"translation"
					}
				},
				{
					"sampler":1,
					"target":{
						"node":17,
						"path":"rotation"
					}
				},
				{
					"sampler":2,
					"target":{
						"node":17,
						"path":"scale"
					}
				},
				{
					"sampler":3,
					"target":{
						"node":10,
						"path":"translation"
					}
				},
				{
					"sampler":4,
					"target":{
						"node":10,
						"path":"rotation"
					}
				},
				{
					"sampler":5,
					"target":{
						"node":10,
						"path":"scale"
					}
				},
				{
					"sampler":6,
					"target":{
						"node":9,
						"path":"translation"
					}
				},
				{
					"sampler":7,
					"target":{
						"node":9,
						"path":"rotation"
					}
				},
				{
					"sampler":8,
					"target":{
						"node":9,
						"path":"scale"
					}
				},
				{
					"sampler":9,
					"target":{
						"node":2,
						"path":"translation"
					}
				},
				{
					"sampler":10,
					"target":{
						"node":2,
						"path":"rotation"
					}
				},
				{
					"sampler":11,
					"target":{
						"node":2,
						"path":"scale"
					}
				},
				{
					"sampler":12,
					"target":{
						"node":1,
						"path":"translation"
					}
				},
				{
					"sampler":13,
					"target":{
						"node":1,
						"path":"rotation"
					}
				},
				{
					"sampler":14,
					"target":{
						"node":1,
						"path":"scale"
					}
				},
				{
					"sampler":15,
					"target":{
						"node":0,
						"path":"translation"
					}
				},
				{
					"sampler":16,
					"target":{
						"node":0,
						"path":"rotation"
					}
				},
				{
					"sampler":17,
					"target":{
						"node":0,
						"path":"scale"
					}
				},
				{
					"sampler":18,
					"target":{
						"node":5,
						"path":"translation"
					}
				},
				{
					"sampler":19,
					"target":{
						"node":5,
						"path":"rotation"
					}
				},
				{
					"sampler":20,
					"target":{
						"node":5,
						"path":"scale"
					}
				},
				{
					"sampler":21,
					"target":{
						"node":4,
						"path":"translation"
					}
				},
				{
					"sampler":22,
					"target":{
						"node":4,
						"path":"rotation"
					}
				},
				{
					"sampler":23,
					"target":{
						"node":4,
						"path":"scale"
					}
				},
				{
					"sampler":24,
					"target":{
						"node":3,
						"path":"translation"
					}
				},
				{
					"sampler":25,
					"target":{
						"node":3,
						"path":"rotation"
					}
				},
				{
					"sampler":26,
					"target":{
						"node":3,
						"path":"scale"
					}
				},
				{
					"sampler":27,
					"target":{
						"node":8,
						"path":"translation"
					}
				},
				{
					"sampler":28,
					"target":{
						"node":8,
						"path":"rotation"
					}
				},
				{
					"sampler":29,
					"target":{
						"node":8,
						"path":"scale"
					}
				},
				{
					"sampler":30,
					"target":{
						"node":7,
						"path":"translation"
					}
				},
				{
					"sampler":31,
					"target":{
						"node":7,
						"path":"rotation"
					}
				},
				{
					"sampler":32,
					"target":{
						"node":7,
						"path":"scale"
					}
				},
				{
					"sampler":33,
					"target":{
						"node":6,
						"path":"translation"
					}
				},
				{
					"sampler":34,
					"target":{
						"node":6,
						"path":"rotation"
					}
				},
				{
					"sampler":35,
					"target":{
						"node":6,
						"path":"scale"
					}
				},
				{
					"sampler":36,
					"target":{
						"node":13,
						"path":"translation"
					}
				},
				{
					"sampler":37,
					"target":{
						"node":13,
						"path":"rotation"
					}
				},
				{
					"sampler":38,
					"target":{
						"node":13,
						"path":"scale"
					}
				},
				{
					"sampler":39,
					"target":{
						"node":12,
						"path":"translation"
					}
				},
				{
					"sampler":40,
					"target":{
						"node":12,
						"path":"rotation"
					}
				},
				{
					"sampler":41,
					"target":{
						"node":12,
						"path":"scale"
					}
				},
				{
					"sampler":42,
					"target":{
						"node":11,
						"path":"translation"
					}
				},
				{
					"sampler":43,
					"target":{
						"node":11,
						"path":"rotation"
					}
				},
				{
					"sampler":44,
					"target":{
						"node":11,
						"path":"scale"
					}
				},
				{
					"sampler":45,
					"target":{
						"node":16,
						"path":"translation"
					}
				},
				{
					"sampler":46,
					"target":{
						"node":16,
						"path":"rotation"
					}
				},
				{
					"sampler":47,
					"target":{
						"node":16,
						"path":"scale"
					}
				},
				{
					"sampler":48,
					"target":{
						"node":15,
						"path":"translation"
					}
				},
				{
					"sampler":49,
					"target":{
						"node":15,
						"path":"rotation"
					}
				},
				{
					"sampler":50,
					"target":{
						"node":15,
						"path":"scale"
					}
				},
				{
					"sampler":51,
					"target":{
						"node":14,
						"path":"translation"
					}
				},
				{
					"sampler":52,
					"target":{
						"node":14,
						"path":"rotation"
					}
				},
				{
					"sampler":53,
					"target":{
						"node":14,
						"path":"scale"
					}
				}
			],
			"name":"Idle",
			"samplers":[
				{
					"input":52,
					"interpolation":"LINEAR",
					"output":53
				},
				{
					"input":54,
					"interpolation":"STEP",
					"output":10
				},
				{
					"input":54,
					"interpolation":"STEP",
					"output":11
				},
				{
					"input":54,
					"interpolation":"STEP",
					"output":12
				},
				{
					"input":52,
					"interpolation":"LINEAR",
					"output":55
				},
				{
					"input":54,
					"interpolation":"STEP",
					"output":11
				},
				{
					"input":54,
					"interpolation":"STEP",
					"output":14
				},
				{
					"input":52,
					"interpolation":"LINEAR",
					"output":56
				},
				{
					"input":54,
					"interpolation":"STEP",
					"output":16
				},
				{
					"input":54,
					"interpolation":"STEP",
					"output":17
				},
				{
					"input":54,
					"interpolation":"STEP",
					"output":18
				},
				{
					"input":54,
					"interpolation":"STEP",
					"output":11
				},
				{
					"input":54,
					"interpolation":"STEP",
					"output":19
				},
				{
					"input":52,
					"interpolation":"LINEAR",
					"output":57
				},
				{
					"input":54,
					"interpolation":"STEP",
					"output":11
				},
				{
					"input":54,
					"interpolation":"STEP",
					"output":58
				},
				{
					"input":54,
					"interpolation":"STEP",
					"output":59
				},
				{
					"input":54,
					"interpolation":"STEP",
					"output":11
				},
				{
					"input":54,
					"interpolation":"STEP",
					"output":23
				},
				{
					"input":52,
					"interpolation":"LINEAR",
					"output":60
				},
				{
					"input":54,
					"interpolation":"STEP",
					"output":61
				},
				{
					"input":54,
					"interpolation":"STEP",
					"output":62
				},
				{
					"input":54,
					"interpolation":"STEP",
					"output":63
				},
				{
					"input":54,
					"interpolation":"STEP",
					"output":16
				},
				{
					"input":54,
					"interpolation":"STEP",
					"output":64
				},
				{
					"input":54,
					"interpolation":"STEP",
					"output":65
				},
				{
					"input":54,
					"interpolation":"STEP",
					"output":16
				},
				{
					"input":54,
					"interpolation":"STEP",
					"output":32
				},
				{
					"input":54,
					"interpolation":"STEP",
					"output":66
				},
				{
					"input":54,
					"interpolation":"STEP",
					"output":67
				},
				{
					"input":54,
					"interpolation":"STEP",
					"output":68
				},
				{
					"input":54,
					"interpolation":"STEP",
					"output":69
				},
				{
					"input":54,
					"interpolation":"STEP",
					"output":70
				},
				{
					"input":54,
					"interpolation":"STEP",
					"output":71
				},
				{
					"input":54,
					"interpolation":"STEP",
					"output":72
				},
				{
					"input":54,
					"interpolation":"STEP",
					"output":73
				},
				{
					"input":54,
					"interpolation":"STEP",
					"output":41
				},
				{
					"input":54,
					"interpolation":"STEP",
					"output":74
				},
				{
					"input":54,
					"interpolation":"STEP",
					"output":11
				},
				{
					"input":54,
					"interpolation":"STEP",
					"output":43
				},
				{
					"input":54,
					"interpolation":"STEP",
					"output":75
				},
				{
					"input":54,
					"interpolation":"STEP",
					"output":45
				},
				{
					"input":54,
					"interpolation":"STEP",
					"output":46
				},
				{
					"input":54,
					"interpolation":"STEP",
					"output":47
				},
				{
					"input":54,
					"interpolation":"STEP",
					"output":48
				},
				{
					"input":54,
					"interpolation":"STEP",
					"output":49
				},
				{
					"input":54,
					"interpolation":"STEP",
					"output":74
				},
				{
					"input":54,
					"interpolation":"STEP",
					"output":11
				},
				{
					"input":54,
					"interpolation":"STEP",
					"output":50
				},
				{
					"input":54,
					"interpolation":"STEP",
					"output":75
				},
				{
					"input":54,
					"interpolation":"STEP",
					"output":45
				},
				{
					"input":54,
					"interpolation":"STEP",
					"output":51
				},
				{
					"input":54,
					"interpolation":"STEP",
					"output":47
				},
				{
					"input":54,
					"interpolation":"STEP",
					"output":48
				}
			]
		},
		{
			"channels":[
				{
					"sampler":0,
					"target":{
						"node":17,
						"path":"translation"
					}
				},
				{
					"sampler":1,
					"target":{
						"node":17,
						"path":"rotation"
					}
				},
				{
					"sampler":2,
					"target":{
						"node":17,
						"path":"scale"
					}
				},
				{
					"sampler":3,
					"target":{
						"node":10,
						"path":"translation"
					}
				},
				{
					"sampler":4,
					"target":{
						"node":10,
						"path":"rotation"
					}
				},
				{
					"sampler":5,
					"target":{
						"node":10,
						"path":"scale"
					}
				},
				{
					"sampler":6,
					"target":{
						"node":9,
						"path":"translation"
					}
				},
				{
					"sampler":7,
					"target":{
						"node":9,
						"path":"rotation"
					}
				},
				{
					"sampler":8,
					"target":{
						"node":9,
						"path":"scale"
					}
				},
				{
					"sampler":9,
					"target":{
						"node":2,
						"path":"translation"
					}
				},
				{
					"sampler":10,
					"target":{
						"node":2,
						"path":"rotation"
					}
				},
				{
					"sampler":11,
					"target":{
						"node":2,
						"path":"scale"
					}
				},
				{
					"sampler":12,
					"target":{
						"node":1,
						"path":"translation"
					}
				},
				{
					"sampler":13,
					"target":{
						"node":1,
						"path":"rotation"
					}
				},
				{
					"sampler":14,
					"target":{
						"node":1,
						"path":"scale"
					}
				},
				{
					"sampler":15,
					"target":{
						"node":0,
						"path":"translation"
					}
				},
				{
					"sampler":16,
					"target":{
						"node":0,
						"path":"rotation"
					}
				},
				{
					"sampler":17,
					"target":{
						"node":0,
						"path":"scale"
					}
				},
				{
					"sampler":18,
					"target":{
						"node":5,
						"path":"translation"
					}
				},
				{
					"sampler":19,
					"target":{
						"node":5,
						"path":"rotation"
					}
				},
				{
					"sampler":20,
					"target":{
						"node":5,
						"path":"scale"
					}
				},
				{
					"sampler":21,
					"target":{
						"node":4,
						"path":"translation"
					}
				},
				{
					"sampler":22,
					"target":{
						"node":4,
						"path":"rotation"
					}
				},
				{
					"sampler":23,
					"target":{
						"node":4,
						"path":"scale"
					}
				},
				{
					"sampler":24,
					"target":{
						"node":3,
						"path":"translation"
					}
				},
				{
					"sampler":25,
					"target":{
						"node":3,
						"path":"rotation"
					}
				},
				{
					"sampler":26,
					"target":{
						"node":3,
						"path":"scale"
					}
				},
				{
					"sampler":27,
					"target":{
						"node":8,
						"path":"translation"
					}
				},
				{
					"sampler":28,
					"target":{
						"node":8,
						"path":"rotation"
					}
				},
				{
					"sampler":29,
					"target":{
						"node":8,
						"path":"scale"
					}
				},
				{
					"sampler":30,
					"target":{
						"node":7,
						"path":"translation"
					}
				},
				{
					"sampler":31,
					"target":{
						"node":7,
						"path":"rotation"
					}
				},
				{
					"sampler":32,
					"target":{
						"node":7,
						"path":"scale"
					}
				},
				{
					"sampler":33,
					"target":{
						"node":6,
						"path":"translation"
					}
				},
				{
					"sampler":34,
					"target":{
						"node":6,
						"path":"rotation"
					}
				},
				{
					"sampler":35,
					"target":{
						"node":6,
						"path":"scale"
					}
				},
				{
					"sampler":36,
					"target":{
						"node":13,
						"path":"translation"
					}
				},
				{
					"sampler":37,
					"target":{
						"node":13,
						"path":"rotation"
					}
				},
				{
					"sampler":38,
					"target":{
						"node":13,
						"path":"scale"
					}
				},
				{
					"sampler":39,
					"target":{
						"node":12,
						"path":"translation"
					}
				},
				{
					"sampler":40,
					"target":{
						"node":12,
						"path":"rotation"
					}
				},
				{
					"sampler":41,
					"target":{
						"node":12,
						"path":"scale"
					}
				},
				{
					"sampler":42,
					"target":{
						"node":11,
						"path":"translation"
					}
				},
				{
					"sampler":43,
					"target":{
						"node":11,
						"path":"rotation"
					}
				},
				{
					"sampler":44,
					"target":{
						"node":11,
						"path":"scale"
					}
				},
				{
					"sampler":45,
					"target":{
						"node":16,
						"path":"translation"
					}
				},
				{
					"sampler":46,
					"target":{
						"node":16,
						"path":"rotation"
					}
				},
				{
					"sampler":47,
					"target":{
						"node":16,
						"path":"scale"
					}
				},
				{
					"sampler":48,
					"target":{
						"node":15,
						"path":"translation"
					}
				},
				{
					"sampler":49,
					"target":{
						"node":15,
						"path":"rotation"
					}
				},
				{
					"sampler":50,
					"target":{
						"node":15,
						"path":"scale"
					}
				},
				{
					"sampler":51,
					"target":{
						"node":14,
						"path":"translation"
					}
				},
				{
					"sampler":52,
					"target":{
						"node":14,
						"path":"rotation"
					}
				},
				{
					"sampler":53,
					"target":{
						"node":14,
						"path":"scale"
					}
				}
			],
			"name":"Laufen",
			"samplers":[
				{
					"input":76,
					"interpolation":"LINEAR",
					"output":77
				},
				{
					"input":76,
					"interpolation":"LINEAR",
					"output":78
				},
				{
					"input":79,
					"interpolation":"STEP",
					"output":11
				},
				{
					"input":79,
					"interpolation":"STEP",
					"output":12
				},
				{
					"input":79,
					"interpolation":"STEP",
					"output":80
				},
				{
					"input":79,
					"interpolation":"STEP",
					"output":11
				},
				{
					"input":79,
					"interpolation":"STEP",
					"output":81
				},
				{
					"input":76,
					"interpolation":"LINEAR",
					"output":82
				},
				{
					"input":79,
					"interpolation":"STEP",
					"output":83
				},
				{
					"input":79,
					"interpolation":"STEP",
					"output":84
				},
				{
					"input":79,
					"interpolation":"STEP",
					"output":85
				},
				{
					"input":79,
					"interpolation":"STEP",
					"output":11
				},
				{
					"input":79,
					"interpolation":"STEP",
					"output":86
				},
				{
					"input":76,
					"interpolation":"LINEAR",
					"output":87
				},
				{
					"input":79,
					"interpolation":"STEP",
					"output":11
				},
				{
					"input":79,
					"interpolation":"STEP",
					"output":88
				},
				{
					"input":76,
					"interpolation":"LINEAR",
					"output":89
				},
				{
					"input":79,
					"interpolation":"STEP",
					"output":11
				},
				{
					"input":79,
					"interpolation":"STEP",
					"output":90
				},
				{
					"input":76,
					"interpolation":"LINEAR",
					"output":91
				},
				{
					"input":79,
					"interpolation":"STEP",
					"output":92
				},
				{
					"input":79,
					"interpolation":"STEP",
					"output":93
				},
				{
					"input":79,
					"interpolation":"STEP",
					"output":94
				},
				{
					"input":79,
					"interpolation":"STEP",
					"output":73
				},
				{
					"input":79,
					"interpolation":"STEP",
					"output":95
				},
				{
					"input":79,
					"interpolation":"STEP",
					"output":96
				},
				{
					"input":79,
					"interpolation":"STEP",
					"output":73
				},
				{
					"input":79,
					"interpolation":"STEP",
					"output":97
				},
				{
					"input":76,
					"interpolation":"LINEAR",
					"output":98
				},
				{
					"input":79,
					"interpolation":"STEP",
					"output":99
				},
				{
					"input":79,
					"interpolation":"STEP",
					"output":100
				},
				{
					"input":79,
					"interpolation":"STEP",
					"output":101
				},
				{
					"input":79,
					"interpolation":"STEP",
					"output":73
				},
				{
					"input":79,
					"interpolation":"STEP",
					"output":102
				},
				{
					"input":79,
					"interpolation":"STEP",
					"output":103
				},
				{
					"input":79,
					"interpolation":"STEP",
					"output":104
				},
				{
					"input":79,
					"interpolation":"STEP",
					"output":105
				},
				{
					"input":76,
					"interpolation":"LINEAR",
					"output":106
				},
				{
					"input":79,
					"interpolation":"STEP",
					"output":11
				},
				{
					"input":79,
					"interpolation":"STEP",
					"output":107
				},
				{
					"input":76,
					"interpolation":"LINEAR",
					"output":108
				},
				{
					"input":79,
					"interpolation":"STEP",
					"output":45
				},
				{
					"input":79,
					"interpolation":"STEP",
					"output":109
				},
				{
					"input":76,
					"interpolation":"LINEAR",
					"output":110
				},
				{
					"input":79,
					"interpolation":"STEP",
					"output":48
				},
				{
					"input":79,
					"interpolation":"STEP",
					"output":111
				},
				{
					"input":76,
					"interpolation":"LINEAR",
					"output":112
				},
				{
					"input":79,
					"interpolation":"STEP",
					"output":11
				},
				{
					"input":79,
					"interpolation":"STEP",
					"output":113
				},
				{
					"input":76,
					"interpolation":"LINEAR",
					"output":114
				},
				{
					"input":79,
					"interpolation":"STEP",
					"output":45
				},
				{
					"input":79,
					"interpolation":"STEP",
					"output":115
				},
				{
					"input":76,
					"interpolation":"LINEAR",
					"output":116
				},
				{
					"input":79,
					"interpolation":"STEP",
					"output":117
				}
			]
		}
	],
	"materials":[
		{
			"doubleSided":true,
			"name":"Steingolem",
			"pbrMetallicRoughness":{
				"metallicFactor":0,
				"roughnessFactor":0.8500000238418579
			}
		}
	],
	"meshes":[
		{
			"name":"Schenkel",
			"primitives":[
				{
					"attributes":{
						"POSITION":0,
						"NORMAL":1,
						"COLOR_0":2,
						"JOINTS_0":3,
						"WEIGHTS_0":4
					},
					"indices":5,
					"material":0
				}
			]
		}
	],
	"skins":[
		{
			"inverseBindMatrices":6,
			"joints":[
				17,
				10,
				9,
				2,
				1,
				0,
				5,
				4,
				3,
				8,
				7,
				6,
				13,
				12,
				11,
				16,
				15,
				14
			],
			"name":"SteingolemSkelett"
		}
	],
	"accessors":[
		{
			"bufferView":0,
			"componentType":5126,
			"count":6080,
			"max":[
				0.8146045804023743,
				2.959022283554077,
				0.388964980840683
			],
			"min":[
				-0.8152382969856262,
				-0.012656348757445812,
				-0.4266167879104614
			],
			"type":"VEC3"
		},
		{
			"bufferView":1,
			"componentType":5126,
			"count":6080,
			"type":"VEC3"
		},
		{
			"bufferView":2,
			"componentType":5126,
			"count":6080,
			"type":"VEC3"
		},
		{
			"bufferView":3,
			"componentType":5121,
			"count":6080,
			"type":"VEC4"
		},
		{
			"bufferView":4,
			"componentType":5126,
			"count":6080,
			"type":"VEC4"
		},
		{
			"bufferView":5,
			"componentType":5123,
			"count":6288,
			"type":"SCALAR"
		},
		{
			"bufferView":6,
			"componentType":5126,
			"count":18,
			"type":"MAT4"
		},
		{
			"bufferView":7,
			"componentType":5126,
			"count":37,
			"max":[
				1.2
			],
			"min":[
				0
			],
			"type":"SCALAR"
		},
		{
			"bufferView":8,
			"componentType":5126,
			"count":37,
			"type":"VEC3"
		},
		{
			"bufferView":9,
			"componentType":5126,
			"count":2,
			"max":[
				1.2
			],
			"min":[
				0
			],
			"type":"SCALAR"
		},
		{
			"bufferView":10,
			"componentType":5126,
			"count":2,
			"type":"VEC4"
		},
		{
			"bufferView":11,
			"componentType":5126,
			"count":2,
			"type":"VEC3"
		},
		{
			"bufferView":12,
			"componentType":5126,
			"count":2,
			"type":"VEC3"
		},
		{
			"bufferView":13,
			"componentType":5126,
			"count":37,
			"type":"VEC4"
		},
		{
			"bufferView":14,
			"componentType":5126,
			"count":2,
			"type":"VEC3"
		},
		{
			"bufferView":15,
			"componentType":5126,
			"count":37,
			"type":"VEC4"
		},
		{
			"bufferView":16,
			"componentType":5126,
			"count":2,
			"type":"VEC3"
		},
		{
			"bufferView":17,
			"componentType":5126,
			"count":2,
			"type":"VEC3"
		},
		{
			"bufferView":18,
			"componentType":5126,
			"count":2,
			"type":"VEC4"
		},
		{
			"bufferView":19,
			"componentType":5126,
			"count":2,
			"type":"VEC3"
		},
		{
			"bufferView":20,
			"componentType":5126,
			"count":37,
			"type":"VEC4"
		},
		{
			"bufferView":21,
			"componentType":5126,
			"count":2,
			"type":"VEC3"
		},
		{
			"bufferView":22,
			"componentType":5126,
			"count":2,
			"type":"VEC4"
		},
		{
			"bufferView":23,
			"componentType":5126,
			"count":2,
			"type":"VEC3"
		},
		{
			"bufferView":24,
			"componentType":5126,
			"count":37,
			"type":"VEC4"
		},
		{
			"bufferView":25,
			"componentType":5126,
			"count":2,
			"type":"VEC3"
		},
		{
			"bufferView":26,
			"componentType":5126,
			"count":2,
			"type":"VEC3"
		},
		{
			"bufferView":27,
			"componentType":5126,
			"count":37,
			"type":"VEC4"
		},
		{
			"bufferView":28,
			"componentType":5126,
			"count":2,
			"type":"VEC3"
		},
		{
			"bufferView":29,
			"componentType":5126,
			"count":2,
			"type":"VEC3"
		},
		{
			"bufferView":30,
			"componentType":5126,
			"count":2,
			"type":"VEC4"
		},
		{
			"bufferView":31,
			"componentType":5126,
			"count":2,
			"type":"VEC3"
		},
		{
			"bufferView":32,
			"componentType":5126,
			"count":2,
			"type":"VEC3"
		},
		{
			"bufferView":33,
			"componentType":5126,
			"count":37,
			"type":"VEC4"
		},
		{
			"bufferView":34,
			"componentType":5126,
			"count":2,
			"type":"VEC3"
		},
		{
			"bufferView":35,
			"componentType":5126,
			"count":2,
			"type":"VEC3"
		},
		{
			"bufferView":36,
			"componentType":5126,
			"count":37,
			"type":"VEC4"
		},
		{
			"bufferView":37,
			"componentType":5126,
			"count":2,
			"type":"VEC3"
		},
		{
			"bufferView":38,
			"componentType":5126,
			"count":2,
			"type":"VEC3"
		},
		{
			"bufferView":39,
			"componentType":5126,
			"count":2,
			"type":"VEC4"
		},
		{
			"bufferView":40,
			"componentType":5126,
			"count":2,
			"type":"VEC3"
		},
		{
			"bufferView":41,
			"componentType":5126,
			"count":2,
			"type":"VEC3"
		},
		{
			"bufferView":42,
			"componentType":5126,
			"count":37,
			"type":"VEC4"
		},
		{
			"bufferView":43,
			"componentType":5126,
			"count":2,
			"type":"VEC3"
		},
		{
			"bufferView":44,
			"componentType":5126,
			"count":37,
			"type":"VEC4"
		},
		{
			"bufferView":45,
			"componentType":5126,
			"count":2,
			"type":"VEC3"
		},
		{
			"bufferView":46,
			"componentType":5126,
			"count":2,
			"type":"VEC3"
		},
		{
			"bufferView":47,
			"componentType":5126,
			"count":2,
			"type":"VEC4"
		},
		{
			"bufferView":48,
			"componentType":5126,
			"count":2,
			"type":"VEC3"
		},
		{
			"bufferView":49,
			"componentType":5126,
			"count":2,
			"type":"VEC3"
		},
		{
			"bufferView":50,
			"componentType":5126,
			"count":2,
			"type":"VEC3"
		},
		{
			"bufferView":51,
			"componentType":5126,
			"count":2,
			"type":"VEC3"
		},
		{
			"bufferView":52,
			"componentType":5126,
			"count":181,
			"max":[
				6
			],
			"min":[
				0
			],
			"type":"SCALAR"
		},
		{
			"bufferView":53,
			"componentType":5126,
			"count":181,
			"type":"VEC3"
		},
		{
			"bufferView":54,
			"componentType":5126,
			"count":2,
			"max":[
				6
			],
			"min":[
				0
			],
			"type":"SCALAR"
		},
		{
			"bufferView":55,
			"componentType":5126,
			"count":181,
			"type":"VEC4"
		},
		{
			"bufferView":56,
			"componentType":5126,
			"count":181,
			"type":"VEC4"
		},
		{
			"bufferView":57,
			"componentType":5126,
			"count":181,
			"type":"VEC4"
		},
		{
			"bufferView":58,
			"componentType":5126,
			"count":2,
			"type":"VEC3"
		},
		{
			"bufferView":59,
			"componentType":5126,
			"count":2,
			"type":"VEC4"
		},
		{
			"bufferView":60,
			"componentType":5126,
			"count":181,
			"type":"VEC4"
		},
		{
			"bufferView":61,
			"componentType":5126,
			"count":2,
			"type":"VEC3"
		},
		{
			"bufferView":62,
			"componentType":5126,
			"count":2,
			"type":"VEC3"
		},
		{
			"bufferView":63,
			"componentType":5126,
			"count":2,
			"type":"VEC4"
		},
		{
			"bufferView":64,
			"componentType":5126,
			"count":2,
			"type":"VEC3"
		},
		{
			"bufferView":65,
			"componentType":5126,
			"count":2,
			"type":"VEC4"
		},
		{
			"bufferView":66,
			"componentType":5126,
			"count":2,
			"type":"VEC4"
		},
		{
			"bufferView":67,
			"componentType":5126,
			"count":2,
			"type":"VEC3"
		},
		{
			"bufferView":68,
			"componentType":5126,
			"count":2,
			"type":"VEC3"
		},
		{
			"bufferView":69,
			"componentType":5126,
			"count":2,
			"type":"VEC4"
		},
		{
			"bufferView":70,
			"componentType":5126,
			"count":2,
			"type":"VEC3"
		},
		{
			"bufferView":71,
			"componentType":5126,
			"count":2,
			"type":"VEC3"
		},
		{
			"bufferView":72,
			"componentType":5126,
			"count":2,
			"type":"VEC4"
		},
		{
			"bufferView":73,
			"componentType":5126,
			"count":2,
			"type":"VEC3"
		},
		{
			"bufferView":74,
			"componentType":5126,
			"count":2,
			"type":"VEC4"
		},
		{
			"bufferView":75,
			"componentType":5126,
			"count":2,
			"type":"VEC4"
		},
		{
			"bufferView":76,
			"componentType":5126,
			"count":31,
			"max":[
				1
			],
			"min":[
				0
			],
			"type":"SCALAR"
		},
		{
			"bufferView":77,
			"componentType":5126,
			"count":31,
			"type":"VEC3"
		},
		{
			"bufferView":78,
			"componentType":5126,
			"count":31,
			"type":"VEC4"
		},
		{
			"bufferView":79,
			"componentType":5126,
			"count":2,
			"max":[
				1
			],
			"min":[
				0
			],
			"type":"SCALAR"
		},
		{
			"bufferView":80,
			"componentType":5126,
			"count":2,
			"type":"VEC4"
		},
		{
			"bufferView":81,
			"componentType":5126,
			"count":2,
			"type":"VEC3"
		},
		{
			"bufferView":82,
			"componentType":5126,
			"count":31,
			"type":"VEC4"
		},
		{
			"bufferView":83,
			"componentType":5126,
			"count":2,
			"type":"VEC3"
		},
		{
			"bufferView":84,
			"componentType":5126,
			"count":2,
			"type":"VEC3"
		},
		{
			"bufferView":85,
			"componentType":5126,
			"count":2,
			"type":"VEC4"
		},
		{
			"bufferView":86,
			"componentType":5126,
			"count":2,
			"type":"VEC3"
		},
		{
			"bufferView":87,
			"componentType":5126,
			"count":31,
			"type":"VEC4"
		},
		{
			"bufferView":88,
			"componentType":5126,
			"count":2,
			"type":"VEC3"
		},
		{
			"bufferView":89,
			"componentType":5126,
			"count":31,
			"type":"VEC4"
		},
		{
			"bufferView":90,
			"componentType":5126,
			"count":2,
			"type":"VEC3"
		},
		{
			"bufferView":91,
			"componentType":5126,
			"count":31,
			"type":"VEC4"
		},
		{
			"bufferView":92,
			"componentType":5126,
			"count":2,
			"type":"VEC3"
		},
		{
			"bufferView":93,
			"componentType":5126,
			"count":2,
			"type":"VEC3"
		},
		{
			"bufferView":94,
			"componentType":5126,
			"count":2,
			"type":"VEC4"
		},
		{
			"bufferView":95,
			"componentType":5126,
			"count":2,
			"type":"VEC3"
		},
		{
			"bufferView":96,
			"componentType":5126,
			"count":2,
			"type":"VEC4"
		},
		{
			"bufferView":97,
			"componentType":5126,
			"count":2,
			"type":"VEC3"
		},
		{
			"bufferView":98,
			"componentType":5126,
			"count":31,
			"type":"VEC4"
		},
		{
			"bufferView":99,
			"componentType":5126,
			"count":2,
			"type":"VEC3"
		},
		{
			"bufferView":100,
			"componentType":5126,
			"count":2,
			"type":"VEC3"
		},
		{
			"bufferView":101,
			"componentType":5126,
			"count":2,
			"type":"VEC4"
		},
		{
			"bufferView":102,
			"componentType":5126,
			"count":2,
			"type":"VEC3"
		},
		{
			"bufferView":103,
			"componentType":5126,
			"count":2,
			"type":"VEC4"
		},
		{
			"bufferView":104,
			"componentType":5126,
			"count":2,
			"type":"VEC3"
		},
		{
			"bufferView":105,
			"componentType":5126,
			"count":2,
			"type":"VEC3"
		},
		{
			"bufferView":106,
			"componentType":5126,
			"count":31,
			"type":"VEC4"
		},
		{
			"bufferView":107,
			"componentType":5126,
			"count":2,
			"type":"VEC3"
		},
		{
			"bufferView":108,
			"componentType":5126,
			"count":31,
			"type":"VEC4"
		},
		{
			"bufferView":109,
			"componentType":5126,
			"count":2,
			"type":"VEC3"
		},
		{
			"bufferView":110,
			"componentType":5126,
			"count":31,
			"type":"VEC4"
		},
		{
			"bufferView":111,
			"componentType":5126,
			"count":2,
			"type":"VEC3"
		},
		{
			"bufferView":112,
			"componentType":5126,
			"count":31,
			"type":"VEC4"
		},
		{
			"bufferView":113,
			"componentType":5126,
			"count":2,
			"type":"VEC3"
		},
		{
			"bufferView":114,
			"componentType":5126,
			"count":31,
			"type":"VEC4"
		},
		{
			"bufferView":115,
			"componentType":5126,
			"count":2,
			"type":"VEC3"
		},
		{
			"bufferView":116,
			"componentType":5126,
			"count":31,
			"type":"VEC4"
		},
		{
			"bufferView":117,
			"componentType":5126,
			"count":2,
			"type":"VEC3"
		}
	],
	"bufferViews":[
		{
			"buffer":0,
			"byteLength":72960,
			"byteOffset":0,
			"target":34962
		},
		{
			"buffer":0,
			"byteLength":72960,
			"byteOffset":72960,
			"target":34962
		},
		{
			"buffer":0,
			"byteLength":72960,
			"byteOffset":145920,
			"target":34962
		},
		{
			"buffer":0,
			"byteLength":24320,
			"byteOffset":218880,
			"target":34962
		},
		{
			"buffer":0,
			"byteLength":97280,
			"byteOffset":243200,
			"target":34962
		},
		{
			"buffer":0,
			"byteLength":12576,
			"byteOffset":340480,
			"target":34963
		},
		{
			"buffer":0,
			"byteLength":1152,
			"byteOffset":353056
		},
		{
			"buffer":0,
			"byteLength":148,
			"byteOffset":354208
		},
		{
			"buffer":0,
			"byteLength":444,
			"byteOffset":354356
		},
		{
			"buffer":0,
			"byteLength":8,
			"byteOffset":354800
		},
		{
			"buffer":0,
			"byteLength":32,
			"byteOffset":354808
		},
		{
			"buffer":0,
			"byteLength":24,
			"byteOffset":354840
		},
		{
			"buffer":0,
			"byteLength":24,
			"byteOffset":354864
		},
		{
			"buffer":0,
			"byteLength":592,
			"byteOffset":354888
		},
		{
			"buffer":0,
			"byteLength":24,
			"byteOffset":355480
		},
		{
			"buffer":0,
			"byteLength":592,
			"byteOffset":355504
		},
		{
			"buffer":0,
			"byteLength":24,
			"byteOffset":356096
		},
		{
			"buffer":0,
			"byteLength":24,
			"byteOffset":356120
		},
		{
			"buffer":0,
			"byteLength":32,
			"byteOffset":356144
		},
		{
			"buffer":0,
			"byteLength":24,
			"byteOffset":356176
		},
		{
			"buffer":0,
			"byteLength":592,
			"byteOffset":356200
		},
		{
			"buffer":0,
			"byteLength":24,
			"byteOffset":356792
		},
		{
			"buffer":0,
			"byteLength":32,
			"byteOffset":356816
		},
		{
			"buffer":0,
			"byteLength":24,
			"byteOffset":356848
		},
		{
			"buffer":0,
			"byteLength":592,
			"byteOffset":356872
		},
		{
			"buffer":0,
			"byteLength":24,
			"byteOffset":357464
		},
		{
			"buffer":0,
			"byteLength":24,
			"byteOffset":357488
		},
		{
			"buffer":0,
			"byteLength":592,
			"byteOffset":357512
		},
		{
			"buffer":0,
			"byteLength":24,
			"byteOffset":358104
		},
		{
			"buffer":0,
			"byteLength":24,
			"byteOffset":358128
		},
		{
			"buffer":0,
			"byteLength":32,
			"byteOffset":358152
		},
		{
			"buffer":0,
			"byteLength":24,
			"byteOffset":358184
		},
		{
			"buffer":0,
			"byteLength":24,
			"byteOffset":358208
		},
		{
			"buffer":0,
			"byteLength":592,
			"byteOffset":358232
		},
		{
			"buffer":0,
			"byteLength":24,
			"byteOffset":358824
		},
		{
			"buffer":0,
			"byteLength":24,
			"byteOffset":358848
		},
		{
			"buffer":0,
			"byteLength":592,
			"byteOffset":358872
		},
		{
			"buffer":0,
			"byteLength":24,
			"byteOffset":359464
		},
		{
			"buffer":0,
			"byteLength":24,
			"byteOffset":359488
		},
		{
			"buffer":0,
			"byteLength":32,
			"byteOffset":359512
		},
		{
			"buffer":0,
			"byteLength":24,
			"byteOffset":359544
		},
		{
			"buffer":0,
			"byteLength":24,
			"byteOffset":359568
		},
		{
			"buffer":0,
			"byteLength":592,
			"byteOffset":359592
		},
		{
			"buffer":0,
			"byteLength":24,
			"byteOffset":360184
		},
		{
			"buffer":0,
			"byteLength":592,
			"byteOffset":360208
		},
		{
			"buffer":0,
			"byteLength":24,
			"byteOffset":360800
		},
		{
			"buffer":0,
			"byteLength":24,
			"byteOffset":360824
		},
		{
			"buffer":0,
			"byteLength":32,
			"byteOffset":360848
		},
		{
			"buffer":0,
			"byteLength":24,
			"byteOffset":360880
		},
		{
			"buffer":0,
			"byteLength":24,
			"byteOffset":360904
		},
		{
			"buffer":0,
			"byteLength":24,
			"byteOffset":360928
		},
		{
			"buffer":0,
			"byteLength":24,
			"byteOffset":360952
		},
		{
			"buffer":0,
			"byteLength":724,
			"byteOffset":360976
		},
		{
			"buffer":0,
			"byteLength":2172,
			"byteOffset":361700
		},
		{
			"buffer":0,
			"byteLength":8,
			"byteOffset":363872
		},
		{
			"buffer":0,
			"byteLength":2896,
			"byteOffset":363880
		},
		{
			"buffer":0,
			"byteLength":2896,
			"byteOffset":366776
		},
		{
			"buffer":0,
			"byteLength":2896,
			"byteOffset":369672
		},
		{
			"buffer":0,
			"byteLength":24,
			"byteOffset":372568
		},
		{
			"buffer":0,
			"byteLength":32,
			"byteOffset":372592
		},
		{
			"buffer":0,
			"byteLength":2896,
			"byteOffset":372624
		},
		{
			"buffer":0,
			"byteLength":24,
			"byteOffset":375520
		},
		{
			"buffer":0,
			"byteLength":24,
			"byteOffset":375544
		},
		{
			"buffer":0,
			"byteLength":32,
			"byteOffset":375568
		},
		{
			"buffer":0,
			"byteLength":24,
			"byteOffset":375600
		},
		{
			"buffer":0,
			"byteLength":32,
			"byteOffset":375624
		},
		{
			"buffer":0,
			"byteLength":32,
			"byteOffset":375656
		},
		{
			"buffer":0,
			"byteLength":24,
			"byteOffset":375688
		},
		{
			"buffer":0,
			"byteLength":24,
			"byteOffset":375712
		},
		{
			"buffer":0,
			"byteLength":32,
			"byteOffset":375736
		},
		{
			"buffer":0,
			"byteLength":24,
			"byteOffset":375768
		},
		{
			"buffer":0,
			"byteLength":24,
			"byteOffset":375792
		},
		{
			"buffer":0,
			"byteLength":32,
			"byteOffset":375816
		},
		{
			"buffer":0,
			"byteLength":24,
			"byteOffset":375848
		},
		{
			"buffer":0,
			"byteLength":32,
			"byteOffset":375872
		},
		{
			"buffer":0,
			"byteLength":32,
			"byteOffset":375904
		},
		{
			"buffer":0,
			"byteLength":124,
			"byteOffset":375936
		},
		{
			"buffer":0,
			"byteLength":372,
			"byteOffset":376060
		},
		{
			"buffer":0,
			"byteLength":496,
			"byteOffset":376432
		},
		{
			"buffer":0,
			"byteLength":8,
			"byteOffset":376928
		},
		{
			"buffer":0,
			"byteLength":32,
			"byteOffset":376936
		},
		{
			"buffer":0,
			"byteLength":24,
			"byteOffset":376968
		},
		{
			"buffer":0,
			"byteLength":496,
			"byteOffset":376992
		},
		{
			"buffer":0,
			"byteLength":24,
			"byteOffset":377488
		},
		{
			"buffer":0,
			"byteLength":24,
			"byteOffset":377512
		},
		{
			"buffer":0,
			"byteLength":32,
			"byteOffset":377536
		},
		{
			"buffer":0,
			"byteLength":24,
			"byteOffset":377568
		},
		{
			"buffer":0,
			"byteLength":496,
			"byteOffset":377592
		},
		{
			"buffer":0,
			"byteLength":24,
			"byteOffset":378088
		},
		{
			"buffer":0,
			"byteLength":496,
			"byteOffset":378112
		},
		{
			"buffer":0,
			"byteLength":24,
			"byteOffset":378608
		},
		{
			"buffer":0,
			"byteLength":496,
			"byteOffset":378632
		},
		{
			"buffer":0,
			"byteLength":24,
			"byteOffset":379128
		},
		{
			"buffer":0,
			"byteLength":24,
			"byteOffset":379152
		},
		{
			"buffer":0,
			"byteLength":32,
			"byteOffset":379176
		},
		{
			"buffer":0,
			"byteLength":24,
			"byteOffset":379208
		},
		{
			"buffer":0,
			"byteLength":32,
			"byteOffset":379232
		},
		{
			"buffer":0,
			"byteLength":24,
			"byteOffset":379264
		},
		{
			"buffer":0,
			"byteLength":496,
			"byteOffset":379288
		},
		{
			"buffer":0,
			"byteLength":24,
			"byteOffset":379784
		},
		{
			"buffer":0,
			"byteLength":24,
			"byteOffset":379808
		},
		{
			"buffer":0,
			"byteLength":32,
			"byteOffset":379832
		},
		{
			"buffer":0,
			"byteLength":24,
			"byteOffset":379864
		},
		{
			"buffer":0,
			"byteLength":32,
			"byteOffset":379888
		},
		{
			"buffer":0,
			"byteLength":24,
			"byteOffset":379920
		},
		{
			"buffer":0,
			"byteLength":24,
			"byteOffset":379944
		},
		{
			"buffer":0,
			"byteLength":496,
			"byteOffset":379968
		},
		{
			"buffer":0,
			"byteLength":24,
			"byteOffset":380464
		},
		{
			"buffer":0,
			"byteLength":496,
			"byteOffset":380488
		},
		{
			"buffer":0,
			"byteLength":24,
			"byteOffset":380984
		},
		{
			"buffer":0,
			"byteLength":496,
			"byteOffset":381008
		},
		{
			"buffer":0,
			"byteLength":24,
			"byteOffset":381504
		},
		{
			"buffer":0,
			"byteLength":496,
			"byteOffset":381528
		},
		{
			"buffer":0,
			"byteLength":24,
			"byteOffset":382024
		},
		{
			"buffer":0,
			"byteLength":496,
			"byteOffset":382048
		},
		{
			"buffer":0,
			"byteLength":24,
			"byteOffset":382544
		},
		{
			"buffer":0,
			"byteLength":496,
			"byteOffset":382568
		},
		{
			"buffer":0,
			"byteLength":24,
			"byteOffset":383064
		}
	],
	"buffers":[
		{
			"byteLength":383088,
			"uri":"steingolem.bin"
		}
	]
}
