{
	"asset":{
		"generator":"Khronos glTF Blender I/O v5.2.40",
		"version":"2.0"
	},
	"scene":0,
	"scenes":[
		{
			"name":"Scene",
			"nodes":[
				20
			]
		}
	],
	"nodes":[
		{
			"name":"Bein0L.unten",
			"rotation":[
				-0.7509469389915466,
				-5.651763501646201e-08,
				1.0961642260554072e-07,
				0.6603625416755676
			],
			"scale":[
				1,
				0.9999998807907104,
				0.9999998211860657
			],
			"translation":[
				-1.2736765420129359e-08,
				0.4610249400138855,
				1.4901161193847656e-08
			]
		},
		{
			"children":[
				0
			],
			"name":"Bein0L.oben",
			"rotation":[
				0.31568700075149536,
				0.09953572601079941,
				0.28375449776649475,
				0.8999543190002441
			],
			"scale":[
				1,
				1.0000001192092896,
				1
			],
			"translation":[
				-0.13199999928474426,
				0.30000001192092896,
				0
			]
		},
		{
			"name":"Bein0R.unten",
			"rotation":[
				-0.7509469389915466,
				5.651763501646201e-08,
				-1.0961642260554072e-07,
				0.6603625416755676
			],
			"scale":[
				1,
				0.9999998807907104,
				0.9999998211860657
			],
			"translation":[
				1.2736765420129359e-08,
				0.4610249400138855,
				1.4901161193847656e-08
			]
		},
		{
			"children":[
				2
			],
			"name":"Bein0R.oben",
			"rotation":[
				0.31568700075149536,
				-0.09953572601079941,
				-0.28375449776649475,
				0.8999543190002441
			],
			"scale":[
				1,
				1.0000001192092896,
				1
			],
			"translation":[
				0.13199999928474426,
				0.30000001192092896,
				0
			]
		},
		{
			"name":"Bein1L.unten",
			"rotation":[
				-0.7509469389915466,
				7.464591789130282e-08,
				-5.632173127878559e-08,
				0.6603625416755676
			],
			"translation":[
				-2.2515656894483982e-08,
				0.4610249996185303,
				-1.4901161193847656e-08
			]
		},
		{
			"children":[
				4
			],
			"name":"Bein1L.oben",
			"rotation":[
				0.2711450457572937,
				0.18985781073570251,
				0.5412430167198181,
				0.7729750275611877
			],
			"scale":[
				0.9999999403953552,
				1,
				1
			],
			"translation":[
				-0.13199999928474426,
				0.19200000166893005,
				0
			]
		},
		{
			"name":"Bein1R.unten",
			"rotation":[
				-0.7509469389915466,
				-7.464591789130282e-08,
				5.632173127878559e-08,
				0.6603625416755676
			],
			"translation":[
				2.2515656894483982e-08,
				0.4610249996185303,
				-1.4901161193847656e-08
			]
		},
		{
			"children":[
				6
			],
			"name":"Bein1R.oben",
			"rotation":[
				0.2711450457572937,
				-0.18985781073570251,
				-0.5412430167198181,
				0.7729750275611877
			],
			"scale":[
				0.9999999403953552,
				1,
				1
			],
			"translation":[
				0.13199999928474426,
				0.19200000166893005,
				0
			]
		},
		{
			"name":"Bein2L.unten",
			"rotation":[
				-0.7509469389915466,
				-5.007632530862338e-09,
				-2.845473012769162e-08,
				0.6603626012802124
			],
			"scale":[
				1,
				0.9999999403953552,
				1
			],
			"translation":[
				2.74179612347325e-09,
				0.46102508902549744,
				2.9802322387695312e-08
			]
		},
		{
			"children":[
				8
			],
			"name":"Bein2L.oben",
			"rotation":[
				0.1945609748363495,
				0.2677902579307556,
				0.7634113430976868,
				0.5546508431434631
			],
			"scale":[
				0.9999999403953552,
				0.9999999403953552,
				0.9999999403953552
			],
			"translation":[
				-0.13199999928474426,
				0.08400000631809235,
				0
			]
		},
		{
			"name":"Bein2R.unten",
			"rotation":[
				-0.7509469389915466,
				5.007632530862338e-09,
				2.845473012769162e-08,
				0.6603626012802124
			],
			"scale":[
				1,
				0.9999999403953552,
				1
			],
			"translation":[
				-2.74179612347325e-09,
				0.46102508902549744,
				2.9802322387695312e-08
			]
		},
		{
			"children":[
				10
			],
			"name":"Bein2R.oben",
			"rotation":[
				0.1945609748363495,
				-0.2677902579307556,
				-0.7634113430976868,
				0.5546508431434631
			],
			"scale":[
				0.9999999403953552,
				0.9999999403953552,
				0.9999999403953552
			],
			"translation":[
				0.13199999928474426,
				0.08400000631809235,
				0
			]
		},
		{
			"name":"Bein3L.unten",
			"rotation":[
				-0.7509469389915466,
				5.381921752700691e-08,
				6.510004624260546e-08,
				0.6603626012802124
			],
			"scale":[
				1,
				0.9999999403953552,
				0.9999999403953552
			],
			"translation":[
				-2.525746367609827e-08,
				0.4610249996185303,
				-1.4901161193847656e-08
			]
		},
		{
			"children":[
				12
			],
			"name":"Bein3L.oben",
			"rotation":[
				0.107765331864357,
				0.3129732012748718,
				0.8922181129455566,
				0.3072153329849243
			],
			"scale":[
				0.9999999403953552,
				0.9999999403953552,
				1.0000001192092896
			],
			"translation":[
				-0.13199999928474426,
				-0.012000001966953278,
				0
			]
		},
		{
			"name":"Bein3R.unten",
			"rotation":[
				-0.7509469389915466,
				-5.381921752700691e-08,
				-6.510004624260546e-08,
				0.6603626012802124
			],
			"scale":[
				1,
				0.9999999403953552,
				0.9999999403953552
			],
			"translation":[
				2.525746367609827e-08,
				0.4610249996185303,
				-1.4901161193847656e-08
			]
		},
		{
			"children":[
				14
			],
			"name":"Bein3R.oben",
			"rotation":[
				0.107765331864357,
				-0.3129732012748718,
				-0.8922181129455566,
				0.3072153329849243
			],
			"scale":[
				0.9999999403953552,
				0.9999999403953552,
				1.0000001192092896
			],
			"translation":[
				0.13199999928474426,
				-0.012000001966953278,
				0
			]
		},
		{
			"name":"Hinterleib",
			"rotation":[
				4.3668453741929625e-08,
				0.04431374371051788,
				0.9990176558494568,
				1.9370003379037826e-09
			],
			"scale":[
				1,
				1,
				1.000015139579773
			],
			"translation":[
				0,
				0.01199999451637268,
				0.03600001335144043
			]
		},
		{
			"name":"Kopf",
			"rotation":[
				-0.0621374137699604,
				-3.1330790761785465e-07,
				1.9505838722011504e-08,
				0.9980676770210266
			],
			"scale":[
				1,
				0.9999999403953552,
				0.9999999403953552
			],
			"translation":[
				0,
				0.31200000643730164,
				0
			]
		},
		{
			"children":[
				1,
				3,
				5,
				7,
				9,
				11,
				13,
				15,
				16,
				17
			],
			"name":"Koerper",
			"rotation":[
				0,
				0.7071067690849304,
				0.7071067690849304,
				0
			],
			"translation":[
				0,
				0.3479999899864197,
				-0.11999999731779099
			]
		},
		{
			"mesh":0,
			"name":"Waldspinne",
			"skin":0
		},
		{
			"children":[
				19,
				18
			],
			"name":"WaldspinneSkelett"
		}
	],
	"animations":[
		{
			"channels":[
				{
					"sampler":0,
					"target":{
						"node":18,
						"path":"translation"
					}
				},
				{
					"sampler":1,
					"target":{
						"node":18,
						"path":"rotation"
					}
				},
				{
					"sampler":2,
					"target":{
						"node":18,
						"path":"scale"
					}
				},
				{
					"sampler":3,
					"target":{
						"node":1,
						"path":"translation"
					}
				},
				{
					"sampler":4,
					"target":{
						"node":1,
						"path":"rotation"
					}
				},
				{
					"sampler":5,
					"target":{
						"node":1,
						"path":"scale"
					}
				},
				{
					"sampler":6,
					"target":{
						"node":0,
						"path":"translation"
					}
				},
				{
					"sampler":7,
					"target":{
						"node":0,
						"path":"rotation"
					}
				},
				{
					"sampler":8,
					"target":{
						"node":0,
						"path":"scale"
					}
				},
				{
					"sampler":9,
					"target":{
						"node":3,
						"path":"translation"
					}
				},
				{
					"sampler":10,
					"target":{
						"node":3,
						"path":"rotation"
					}
				},
				{
					"sampler":11,
					"target":{
						"node":3,
						"path":"scale"
					}
				},
				{
					"sampler":12,
					"target":{
						"node":2,
						"path":"translation"
					}
				},
				{
					"sampler":13,
					"target":{
						"node":2,
						"path":"rotation"
					}
				},
				{
					"sampler":14,
					"target":{
						"node":2,
						"path":"scale"
					}
				},
				{
					"sampler":15,
					"target":{
						"node":5,
						"path":"translation"
					}
				},
				{
					"sampler":16,
					"target":{
						"node":5,
						"path":"rotation"
					}
				},
				{
					"sampler":17,
					"target":{
						"node":5,
						"path":"scale"
					}
				},
				{
					"sampler":18,
					"target":{
						"node":4,
						"path":"translation"
					}
				},
				{
					"sampler":19,
					"target":{
						"node":4,
						"path":"rotation"
					}
				},
				{
					"sampler":20,
					"target":{
						"node":4,
						"path":"scale"
					}
				},
				{
					"sampler":21,
					"target":{
						"node":7,
						"path":"translation"
					}
				},
				{
					"sampler":22,
					"target":{
						"node":7,
						"path":"rotation"
					}
				},
				{
					"sampler":23,
					"target":{
						"node":7,
						"path":"scale"
					}
				},
				{
					"sampler":24,
					"target":{
						"node":6,
						"path":"translation"
					}
				},
				{
					"sampler":25,
					"target":{
						"node":6,
						"path":"rotation"
					}
				},
				{
					"sampler":26,
					"target":{
						"node":6,
						"path":"scale"
					}
				},
				{
					"sampler":27,
					"target":{
						"node":9,
						"path":"translation"
					}
				},
				{
					"sampler":28,
					"target":{
						"node":9,
						"path":"rotation"
					}
				},
				{
					"sampler":29,
					"target":{
						"node":9,
						"path":"scale"
					}
				},
				{
					"sampler":30,
					"target":{
						"node":8,
						"path":"translation"
					}
				},
				{
					"sampler":31,
					"target":{
						"node":8,
						"path":"rotation"
					}
				},
				{
					"sampler":32,
					"target":{
						"node":8,
						"path":"scale"
					}
				},
				{
					"sampler":33,
					"target":{
						"node":11,
						"path":"translation"
					}
				},
				{
					"sampler":34,
					"target":{
						"node":11,
						"path":"rotation"
					}
				},
				{
					"sampler":35,
					"target":{
						"node":11,
						"path":"scale"
					}
				},
				{
					"sampler":36,
					"target":{
						"node":10,
						"path":"translation"
					}
				},
				{
					"sampler":37,
					"target":{
						"node":10,
						"path":"rotation"
					}
				},
				{
					"sampler":38,
					"target":{
						"node":10,
						"path":"scale"
					}
				},
				{
					"sampler":39,
					"target":{
						"node":13,
						"path":"translation"
					}
				},
				{
					"sampler":40,
					"target":{
						"node":13,
						"path":"rotation"
					}
				},
				{
					"sampler":41,
					"target":{
						"node":13,
						"path":"scale"
					}
				},
				{
					"sampler":42,
					"target":{
						"node":12,
						"path":"translation"
					}
				},
				{
					"sampler":43,
					"target":{
						"node":12,
						"path":"rotation"
					}
				},
				{
					"sampler":44,
					"target":{
						"node":12,
						"path":"scale"
					}
				},
				{
					"sampler":45,
					"target":{
						"node":15,
						"path":"translation"
					}
				},
				{
					"sampler":46,
					"target":{
						"node":15,
						"path":"rotation"
					}
				},
				{
					"sampler":47,
					"target":{
						"node":15,
						"path":"scale"
					}
				},
				{
					"sampler":48,
					"target":{
						"node":14,
						"path":"translation"
					}
				},
				{
					"sampler":49,
					"target":{
						"node":14,
						"path":"rotation"
					}
				},
				{
					"sampler":50,
					"target":{
						"node":14,
						"path":"scale"
					}
				},
				{
					"sampler":51,
					"target":{
						"node":16,
						"path":"translation"
					}
				},
				{
					"sampler":52,
					"target":{
						"node":16,
						"path":"rotation"
					}
				},
				{
					"sampler":53,
					"target":{
						"node":16,
						"path":"scale"
					}
				},
				{
					"sampler":54,
					"target":{
						"node":17,
						"path":"translation"
					}
				},
				{
					"sampler":55,
					"target":{
						"node":17,
						"path":"rotation"
					}
				},
				{
					"sampler":56,
					"target":{
						"node":17,
						"path":"scale"
					}
				}
			],
			"name":"Angriff",
			"samplers":[
				{
					"input":7,
					"interpolation":"STEP",
					"output":8
				},
				{
					"input":9,
					"interpolation":"LINEAR",
					"output":10
				},
				{
					"input":7,
					"interpolation":"STEP",
					"output":11
				},
				{
					"input":7,
					"interpolation":"STEP",
					"output":12
				},
				{
					"input":9,
					"interpolation":"LINEAR",
					"output":13
				},
				{
					"input":7,
					"interpolation":"STEP",
					"output":14
				},
				{
					"input":7,
					"interpolation":"STEP",
					"output":15
				},
				{
					"input":9,
					"interpolation":"LINEAR",
					"output":16
				},
				{
					"input":7,
					"interpolation":"STEP",
					"output":17
				},
				{
					"input":7,
					"interpolation":"STEP",
					"output":18
				},
				{
					"input":9,
					"interpolation":"LINEAR",
					"output":19
				},
				{
					"input":7,
					"interpolation":"STEP",
					"output":14
				},
				{
					"input":7,
					"interpolation":"STEP",
					"output":20
				},
				{
					"input":9,
					"interpolation":"LINEAR",
					"output":21
				},
				{
					"input":7,
					"interpolation":"STEP",
					"output":17
				},
				{
					"input":7,
					"interpolation":"STEP",
					"output":22
				},
				{
					"input":9,
					"interpolation":"LINEAR",
					"output":23
				},
				{
					"input":7,
					"interpolation":"STEP",
					"output":24
				},
				{
					"input":7,
					"interpolation":"STEP",
					"output":25
				},
				{
					"input":7,
					"interpolation":"STEP",
					"output":26
				},
				{
					"input":7,
					"interpolation":"STEP",
					"output":11
				},
				{
					"input":7,
					"interpolation":"STEP",
					"output":27
				},
				{
					"input":9,
					"interpolation":"LINEAR",
					"output":28
				},
				{
					"input":7,
					"interpolation":"STEP",
					"output":24
				},
				{
					"input":7,
					"interpolation":"STEP",
					"output":29
				},
				{
					"input":7,
					"interpolation":"STEP",
					"output":30
				},
				{
					"input":7,
					"interpolation":"STEP",
					"output":11
				},
				{
					"input":7,
					"interpolation":"STEP",
					"output":31
				},
				{
					"input":7,
					"interpolation":"STEP",
					"output":32
				},
				{
					"input":7,
					"interpolation":"STEP",
					"output":33
				},
				{
					"input":7,
					"interpolation":"STEP",
					"output":34
				},
				{
					"input":7,
					"interpolation":"STEP",
					"output":35
				},
				{
					"input":7,
					"interpolation":"STEP",
					"output":36
				},
				{
					"input":7,
					"interpolation":"STEP",
					"output":37
				},
				{
					"input":7,
					"interpolation":"STEP",
					"output":38
				},
				{
					"input":7,
					"interpolation":"STEP",
					"output":33
				},
				{
					"input":7,
					"interpolation":"STEP",
					"output":39
				},
				{
					"input":7,
					"interpolation":"STEP",
					"output":40
				},
				{
					"input":7,
					"interpolation":"STEP",
					"output":36
				},
				{
					"input":7,
					"interpolation":"STEP",
					"output":41
				},
				{
					"input":7,
					"interpolation":"STEP",
					"output":42
				},
				{
					"input":7,
					"interpolation":"STEP",
					"output":43
				},
				{
					"input":7,
					"interpolation":"STEP",
					"output":44
				},
				{
					"input":7,
					"interpolation":"STEP",
					"output":45
				},
				{
					"input":7,
					"interpolation":"STEP",
					"output":46
				},
				{
					"input":7,
					"interpolation":"STEP",
					"output":47
				},
				{
					"input":7,
					"interpolation":"STEP",
					"output":48
				},
				{
					"input":7,
					"interpolation":"STEP",
					"output":43
				},
				{
					"input":7,
					"interpolation":"STEP",
					"output":49
				},
				{
					"input":7,
					"interpolation":"STEP",
					"output":50
				},
				{
					"input":7,
					"interpolation":"STEP",
					"output":46
				},
				{
					"input":7,
					"interpolation":"STEP",
					"output":51
				},
				{
					"input":7,
					"interpolation":"STEP",
					"output":52
				},
				{
					"input":7,
					"interpolation":"STEP",
					"output":53
				},
				{
					"input":7,
					"interpolation":"STEP",
					"output":54
				},
				{
					"input":9,
					"interpolation":"LINEAR",
					"output":55
				},
				{
					"input":7,
					"interpolation":"STEP",
					"output":46
				}
			]
		},
		{
			"channels":[
				{
					"sampler":0,
					"target":{
						"node":18,
						"path":"translation"
					}
				},
				{
					"sampler":1,
					"target":{
						"node":18,
						"path":"rotation"
					}
				},
				{
					"sampler":2,
					"target":{
						"node":18,
						"path":"scale"
					}
				},
				{
					"sampler":3,
					"target":{
						"node":1,
						"path":"translation"
					}
				},
				{
					"sampler":4,
					"target":{
						"node":1,
						"path":"rotation"
					}
				},
				{
					"sampler":5,
					"target":{
						"node":1,
						"path":"scale"
					}
				},
				{
					"sampler":6,
					"target":{
						"node":0,
						"path":"translation"
					}
				},
				{
					"sampler":7,
					"target":{
						"node":0,
						"path":"rotation"
					}
				},
				{
					"sampler":8,
					"target":{
						"node":0,
						"path":"scale"
					}
				},
				{
					"sampler":9,
					"target":{
						"node":3,
						"path":"translation"
					}
				},
				{
					"sampler":10,
					"target":{
						"node":3,
						"path":"rotation"
					}
				},
				{
					"sampler":11,
					"target":{
						"node":3,
						"path":"scale"
					}
				},
				{
					"sampler":12,
					"target":{
						"node":2,
						"path":"translation"
					}
				},
				{
					"sampler":13,
					"target":{
						"node":2,
						"path":"rotation"
					}
				},
				{
					"sampler":14,
					"target":{
						"node":2,
						"path":"scale"
					}
				},
				{
					"sampler":15,
					"target":{
						"node":5,
						"path":"translation"
					}
				},
				{
					"sampler":16,
					"target":{
						"node":5,
						"path":"rotation"
					}
				},
				{
					"sampler":17,
					"target":{
						"node":5,
						"path":"scale"
					}
				},
				{
					"sampler":18,
					"target":{
						"node":4,
						"path":"translation"
					}
				},
				{
					"sampler":19,
					"target":{
						"node":4,
						"path":"rotation"
					}
				},
				{
					"sampler":20,
					"target":{
						"node":4,
						"path":"scale"
					}
				},
				{
					"sampler":21,
					"target":{
						"node":7,
						"path":"translation"
					}
				},
				{
					"sampler":22,
					"target":{
						"node":7,
						"path":"rotation"
					}
				},
				{
					"sampler":23,
					"target":{
						"node":7,
						"path":"scale"
					}
				},
				{
					"sampler":24,
					"target":{
						"node":6,
						"path":"translation"
					}
				},
				{
					"sampler":25,
					"target":{
						"node":6,
						"path":"rotation"
					}
				},
				{
					"sampler":26,
					"target":{
						"node":6,
						"path":"scale"
					}
				},
				{
					"sampler":27,
					"target":{
						"node":9,
						"path":"translation"
					}
				},
				{
					"sampler":28,
					"target":{
						"node":9,
						"path":"rotation"
					}
				},
				{
					"sampler":29,
					"target":{
						"node":9,
						"path":"scale"
					}
				},
				{
					"sampler":30,
					"target":{
						"node":8,
						"path":"translation"
					}
				},
				{
					"sampler":31,
					"target":{
						"node":8,
						"path":"rotation"
					}
				},
				{
					"sampler":32,
					"target":{
						"node":8,
						"path":"scale"
					}
				},
				{
					"sampler":33,
					"target":{
						"node":11,
						"path":"translation"
					}
				},
				{
					"sampler":34,
					"target":{
						"node":11,
						"path":"rotation"
					}
				},
				{
					"sampler":35,
					"target":{
						"node":11,
						"path":"scale"
					}
				},
				{
					"sampler":36,
					"target":{
						"node":10,
						"path":"translation"
					}
				},
				{
					"sampler":37,
					"target":{
						"node":10,
						"path":"rotation"
					}
				},
				{
					"sampler":38,
					"target":{
						"node":10,
						"path":"scale"
					}
				},
				{
					"sampler":39,
					"target":{
						"node":13,
						"path":"translation"
					}
				},
				{
					"sampler":40,
					"target":{
						"node":13,
						"path":"rotation"
					}
				},
				{
					"sampler":41,
					"target":{
						"node":13,
						"path":"scale"
					}
				},
				{
					"sampler":42,
					"target":{
						"node":12,
						"path":"translation"
					}
				},
				{
					"sampler":43,
					"target":{
						"node":12,
						"path":"rotation"
					}
				},
				{
					"sampler":44,
					"target":{
						"node":12,
						"path":"scale"
					}
				},
				{
					"sampler":45,
					"target":{
						"node":15,
						"path":"translation"
					}
				},
				{
					"sampler":46,
					"target":{
						"node":15,
						"path":"rotation"
					}
				},
				{
					"sampler":47,
					"target":{
						"node":15,
						"path":"scale"
					}
				},
				{
					"sampler":48,
					"target":{
						"node":14,
						"path":"translation"
					}
				},
				{
					"sampler":49,
					"target":{
						"node":14,
						"path":"rotation"
					}
				},
				{
					"sampler":50,
					"target":{
						"node":14,
						"path":"scale"
					}
				},
				{
					"sampler":51,
					"target":{
						"node":16,
						"path":"translation"
					}
				},
				{
					"sampler":52,
					"target":{
						"node":16,
						"path":"rotation"
					}
				},
				{
					"sampler":53,
					"target":{
						"node":16,
						"path":"scale"
					}
				},
				{
					"sampler":54,
					"target":{
						"node":17,
						"path":"translation"
					}
				},
				{
					"sampler":55,
					"target":{
						"node":17,
						"path":"rotation"
					}
				},
				{
					"sampler":56,
					"target":{
						"node":17,
						"path":"scale"
					}
				}
			],
			"name":"Idle",
			"samplers":[
				{
					"input":56,
					"interpolation":"LINEAR",
					"output":57
				},
				{
					"input":58,
					"interpolation":"STEP",
					"output":59
				},
				{
					"input":58,
					"interpolation":"STEP",
					"output":11
				},
				{
					"input":58,
					"interpolation":"STEP",
					"output":12
				},
				{
					"input":56,
					"interpolation":"LINEAR",
					"output":60
				},
				{
					"input":58,
					"interpolation":"STEP",
					"output":14
				},
				{
					"input":58,
					"interpolation":"STEP",
					"output":15
				},
				{
					"input":56,
					"interpolation":"LINEAR",
					"output":61
				},
				{
					"input":58,
					"interpolation":"STEP",
					"output":17
				},
				{
					"input":58,
					"interpolation":"STEP",
					"output":18
				},
				{
					"input":56,
					"interpolation":"LINEAR",
					"output":62
				},
				{
					"input":58,
					"interpolation":"STEP",
					"output":14
				},
				{
					"input":58,
					"interpolation":"STEP",
					"output":20
				},
				{
					"input":56,
					"interpolation":"LINEAR",
					"output":63
				},
				{
					"input":58,
					"interpolation":"STEP",
					"output":17
				},
				{
					"input":58,
					"interpolation":"STEP",
					"output":22
				},
				{
					"input":56,
					"interpolation":"LINEAR",
					"output":64
				},
				{
					"input":58,
					"interpolation":"STEP",
					"output":65
				},
				{
					"input":58,
					"interpolation":"STEP",
					"output":66
				},
				{
					"input":56,
					"interpolation":"LINEAR",
					"output":67
				},
				{
					"input":58,
					"interpolation":"STEP",
					"output":68
				},
				{
					"input":58,
					"interpolation":"STEP",
					"output":27
				},
				{
					"input":56,
					"interpolation":"LINEAR",
					"output":69
				},
				{
					"input":58,
					"interpolation":"STEP",
					"output":65
				},
				{
					"input":58,
					"interpolation":"STEP",
					"output":70
				},
				{
					"input":56,
					"interpolation":"LINEAR",
					"output":71
				},
				{
					"input":58,
					"interpolation":"STEP",
					"output":68
				},
				{
					"input":58,
					"interpolation":"STEP",
					"output":31
				},
				{
					"input":56,
					"interpolation":"LINEAR",
					"output":72
				},
				{
					"input":58,
					"interpolation":"STEP",
					"output":33
				},
				{
					"input":58,
					"interpolation":"STEP",
					"output":73
				},
				{
					"input":56,
					"interpolation":"LINEAR",
					"output":74
				},
				{
					"input":58,
					"interpolation":"STEP",
					"output":14
				},
				{
					"input":58,
					"interpolation":"STEP",
					"output":37
				},
				{
					"input":56,
					"interpolation":"LINEAR",
					"output":75
				},
				{
					"input":58,
					"interpolation":"STEP",
					"output":33
				},
				{
					"input":58,
					"interpolation":"STEP",
					"output":76
				},
				{
					"input":56,
					"interpolation":"LINEAR",
					"output":77
				},
				{
					"input":58,
					"interpolation":"STEP",
					"output":14
				},
				{
					"input":58,
					"interpolation":"STEP",
					"output":41
				},
				{
					"input":56,
					"interpolation":"LINEAR",
					"output":78
				},
				{
					"input":58,
					"interpolation":"STEP",
					"output":79
				},
				{
					"input":58,
					"interpolation":"STEP",
					"output":80
				},
				{
					"input":56,
					"interpolation":"LINEAR",
					"output":81
				},
				{
					"input":58,
					"interpolation":"STEP",
					"output":82
				},
				{
					"input":58,
					"interpolation":"STEP",
					"output":47
				},
				{
					"input":56,
					"interpolation":"LINEAR",
					"output":83
				},
				{
					"input":58,
					"interpolation":"STEP",
					"output":79
				},
				{
					"input":58,
					"interpolation":"STEP",
					"output":84
				},
				{
					"input":56,
					"interpolation":"LINEAR",
					"output":85
				},
				{
					"input":58,
					"interpolation":"STEP",
					"output":82
				},
				{
					"input":58,
					"interpolation":"STEP",
					"output":51
				},
				{
					"input":56,
					"interpolation":"LINEAR",
					"output":86
				},
				{
					"input":58,
					"interpolation":"STEP",
					"output":53
				},
				{
					"input":58,
					"interpolation":"STEP",
					"output":54
				},
				{
					"input":56,
					"interpolation":"LINEAR",
					"output":87
				},
				{
					"input":58,
					"interpolation":"STEP",
					"output":46
				}
			]
		},
		{
			"channels":[
				{
					"sampler":0,
					"target":{
						"node":18,
						"path":"translation"
					}
				},
				{
					"sampler":1,
					"target":{
						"node":18,
						"path":"rotation"
					}
				},
				{
					"sampler":2,
					"target":{
						"node":18,
						"path":"scale"
					}
				},
				{
					"sampler":3,
					"target":{
						"node":1,
						"path":"translation"
					}
				},
				{
					"sampler":4,
					"target":{
						"node":1,
						"path":"rotation"
					}
				},
				{
					"sampler":5,
					"target":{
						"node":1,
						"path":"scale"
					}
				},
				{
					"sampler":6,
					"target":{
						"node":0,
						"path":"translation"
					}
				},
				{
					"sampler":7,
					"target":{
						"node":0,
						"path":"rotation"
					}
				},
				{
					"sampler":8,
					"target":{
						"node":0,
						"path":"scale"
					}
				},
				{
					"sampler":9,
					"target":{
						"node":3,
						"path":"translation"
					}
				},
				{
					"sampler":10,
					"target":{
						"node":3,
						"path":"rotation"
					}
				},
				{
					"sampler":11,
					"target":{
						"node":3,
						"path":"scale"
					}
				},
				{
					"sampler":12,
					"target":{
						"node":2,
						"path":"translation"
					}
				},
				{
					"sampler":13,
					"target":{
						"node":2,
						"path":"rotation"
					}
				},
				{
					"sampler":14,
					"target":{
						"node":2,
						"path":"scale"
					}
				},
				{
					"sampler":15,
					"target":{
						"node":5,
						"path":"translation"
					}
				},
				{
					"sampler":16,
					"target":{
						"node":5,
						"path":"rotation"
					}
				},
				{
					"sampler":17,
					"target":{
						"node":5,
						"path":"scale"
					}
				},
				{
					"sampler":18,
					"target":{
						"node":4,
						"path":"translation"
					}
				},
				{
					"sampler":19,
					"target":{
						"node":4,
						"path":"rotation"
					}
				},
				{
					"sampler":20,
					"target":{
						"node":4,
						"path":"scale"
					}
				},
				{
					"sampler":21,
					"target":{
						"node":7,
						"path":"translation"
					}
				},
				{
					"sampler":22,
					"target":{
						"node":7,
						"path":"rotation"
					}
				},
				{
					"sampler":23,
					"target":{
						"node":7,
						"path":"scale"
					}
				},
				{
					"sampler":24,
					"target":{
						"node":6,
						"path":"translation"
					}
				},
				{
					"sampler":25,
					"target":{
						"node":6,
						"path":"rotation"
					}
				},
				{
					"sampler":26,
					"target":{
						"node":6,
						"path":"scale"
					}
				},
				{
					"sampler":27,
					"target":{
						"node":9,
						"path":"translation"
					}
				},
				{
					"sampler":28,
					"target":{
						"node":9,
						"path":"rotation"
					}
				},
				{
					"sampler":29,
					"target":{
						"node":9,
						"path":"scale"
					}
				},
				{
					"sampler":30,
					"target":{
						"node":8,
						"path":"translation"
					}
				},
				{
					"sampler":31,
					"target":{
						"node":8,
						"path":"rotation"
					}
				},
				{
					"sampler":32,
					"target":{
						"node":8,
						"path":"scale"
					}
				},
				{
					"sampler":33,
					"target":{
						"node":11,
						"path":"translation"
					}
				},
				{
					"sampler":34,
					"target":{
						"node":11,
						"path":"rotation"
					}
				},
				{
					"sampler":35,
					"target":{
						"node":11,
						"path":"scale"
					}
				},
				{
					"sampler":36,
					"target":{
						"node":10,
						"path":"translation"
					}
				},
				{
					"sampler":37,
					"target":{
						"node":10,
						"path":"rotation"
					}
				},
				{
					"sampler":38,
					"target":{
						"node":10,
						"path":"scale"
					}
				},
				{
					"sampler":39,
					"target":{
						"node":13,
						"path":"translation"
					}
				},
				{
					"sampler":40,
					"target":{
						"node":13,
						"path":"rotation"
					}
				},
				{
					"sampler":41,
					"target":{
						"node":13,
						"path":"scale"
					}
				},
				{
					"sampler":42,
					"target":{
						"node":12,
						"path":"translation"
					}
				},
				{
					"sampler":43,
					"target":{
						"node":12,
						"path":"rotation"
					}
				},
				{
					"sampler":44,
					"target":{
						"node":12,
						"path":"scale"
					}
				},
				{
					"sampler":45,
					"target":{
						"node":15,
						"path":"translation"
					}
				},
				{
					"sampler":46,
					"target":{
						"node":15,
						"path":"rotation"
					}
				},
				{
					"sampler":47,
					"target":{
						"node":15,
						"path":"scale"
					}
				},
				{
					"sampler":48,
					"target":{
						"node":14,
						"path":"translation"
					}
				},
				{
					"sampler":49,
					"target":{
						"node":14,
						"path":"rotation"
					}
				},
				{
					"sampler":50,
					"target":{
						"node":14,
						"path":"scale"
					}
				},
				{
					"sampler":51,
					"target":{
						"node":16,
						"path":"translation"
					}
				},
				{
					"sampler":52,
					"target":{
						"node":16,
						"path":"rotation"
					}
				},
				{
					"sampler":53,
					"target":{
						"node":16,
						"path":"scale"
					}
				},
				{
					"sampler":54,
					"target":{
						"node":17,
						"path":"translation"
					}
				},
				{
					"sampler":55,
					"target":{
						"node":17,
						"path":"rotation"
					}
				},
				{
					"sampler":56,
					"target":{
						"node":17,
						"path":"scale"
					}
				}
			],
			"name":"Laufen",
			"samplers":[
				{
					"input":88,
					"interpolation":"LINEAR",
					"output":89
				},
				{
					"input":90,
					"interpolation":"STEP",
					"output":59
				},
				{
					"input":90,
					"interpolation":"STEP",
					"output":11
				},
				{
					"input":90,
					"interpolation":"STEP",
					"output":12
				},
				{
					"input":88,
					"interpolation":"LINEAR",
					"output":91
				},
				{
					"input":90,
					"interpolation":"STEP",
					"output":46
				},
				{
					"input":90,
					"interpolation":"STEP",
					"output":92
				},
				{
					"input":88,
					"interpolation":"LINEAR",
					"output":93
				},
				{
					"input":90,
					"interpolation":"STEP",
					"output":94
				},
				{
					"input":90,
					"interpolation":"STEP",
					"output":18
				},
				{
					"input":88,
					"interpolation":"LINEAR",
					"output":95
				},
				{
					"input":90,
					"interpolation":"STEP",
					"output":14
				},
				{
					"input":90,
					"interpolation":"STEP",
					"output":96
				},
				{
					"input":88,
					"interpolation":"LINEAR",
					"output":97
				},
				{
					"input":90,
					"interpolation":"STEP",
					"output":98
				},
				{
					"input":90,
					"interpolation":"STEP",
					"output":22
				},
				{
					"input":88,
					"interpolation":"LINEAR",
					"output":99
				},
				{
					"input":90,
					"interpolation":"STEP",
					"output":100
				},
				{
					"input":90,
					"interpolation":"STEP",
					"output":101
				},
				{
					"input":88,
					"interpolation":"LINEAR",
					"output":102
				},
				{
					"input":90,
					"interpolation":"STEP",
					"output":103
				},
				{
					"input":90,
					"interpolation":"STEP",
					"output":27
				},
				{
					"input":88,
					"interpolation":"LINEAR",
					"output":104
				},
				{
					"input":90,
					"interpolation":"STEP",
					"output":100
				},
				{
					"input":90,
					"interpolation":"STEP",
					"output":105
				},
				{
					"input":88,
					"interpolation":"LINEAR",
					"output":106
				},
				{
					"input":90,
					"interpolation":"STEP",
					"output":11
				},
				{
					"input":90,
					"interpolation":"STEP",
					"output":31
				},
				{
					"input":88,
					"interpolation":"LINEAR",
					"output":107
				},
				{
					"input":90,
					"interpolation":"STEP",
					"output":14
				},
				{
					"input":90,
					"interpolation":"STEP",
					"output":108
				},
				{
					"input":88,
					"interpolation":"LINEAR",
					"output":109
				},
				{
					"input":90,
					"interpolation":"STEP",
					"output":82
				},
				{
					"input":90,
					"interpolation":"STEP",
					"output":37
				},
				{
					"input":88,
					"interpolation":"LINEAR",
					"output":110
				},
				{
					"input":90,
					"interpolation":"STEP",
					"output":33
				},
				{
					"input":90,
					"interpolation":"STEP",
					"output":111
				},
				{
					"input":88,
					"interpolation":"LINEAR",
					"output":112
				},
				{
					"input":90,
					"interpolation":"STEP",
					"output":36
				},
				{
					"input":90,
					"interpolation":"STEP",
					"output":41
				},
				{
					"input":88,
					"interpolation":"LINEAR",
					"output":113
				},
				{
					"input":90,
					"interpolation":"STEP",
					"output":43
				},
				{
					"input":90,
					"interpolation":"STEP",
					"output":114
				},
				{
					"input":88,
					"interpolation":"LINEAR",
					"output":115
				},
				{
					"input":90,
					"interpolation":"STEP",
					"output":33
				},
				{
					"input":90,
					"interpolation":"STEP",
					"output":47
				},
				{
					"input":88,
					"interpolation":"LINEAR",
					"output":116
				},
				{
					"input":90,
					"interpolation":"STEP",
					"output":117
				},
				{
					"input":90,
					"interpolation":"STEP",
					"output":118
				},
				{
					"input":88,
					"interpolation":"LINEAR",
					"output":119
				},
				{
					"input":90,
					"interpolation":"STEP",
					"output":120
				},
				{
					"input":90,
					"interpolation":"STEP",
					"output":51
				},
				{
					"input":88,
					"interpolation":"LINEAR",
					"output":121
				},
				{
					"input":90,
					"interpolation":"STEP",
					"output":53
				},
				{
					"input":90,
					"interpolation":"STEP",
					"output":54
				},
				{
					"input":90,
					"interpolation":"STEP",
					"output":122
				},
				{
					"input":90,
					"interpolation":"STEP",
					"output":46
				}
			]
		}
	],
	"materials":[
		{
			"doubleSided":true,
			"name":"Waldspinne",
			"pbrMetallicRoughness":{
				"metallicFactor":0,
				"roughnessFactor":0.8500000238418579
			}
		}
	],
	"meshes":[
		{
			"name":"Vorderkoerper",
			"primitives":[
				{
					"attributes":{
						"POSITION":0,
						"NORMAL":1,
						"COLOR_0":2,
						"JOINTS_0":3,
						"WEIGHTS_0":4
					},
					"indices":5,
					"material":0
				}
			]
		}
	],
	"skins":[
		{
			"inverseBindMatrices":6,
			"joints":[
				18,
				1,
				0,
				3,
				2,
				5,
				4,
				7,
				6,
				9,
				8,
				11,
				10,
				13,
				12,
				15,
				14,
				16,
				17
			],
			"name":"WaldspinneSkelett"
		}
	],
	"accessors":[
		{
			"bufferView":0,
			"componentType":5126,
			"count":4716,
			"max":[
				0.8465404510498047,
				0.6672000288963318,
				0.7970491051673889
			],
			"min":[
				-0.8468175530433655,
				0.0005436367937363684,
				-0.7259256839752197
			],
			"type":"VEC3"
		},
		{
			"bufferView":1,
			"componentType":5126,
			"count":4716,
			"type":"VEC3"
		},
		{
			"bufferView":2,
			"componentType":5126,
			"count":4716,
			"type":"VEC3"
		},
		{
			"bufferView":3,
			"componentType":5121,
			"count":4716,
			"type":"VEC4"
		},
		{
			"bufferView":4,
			"componentType":5126,
			"count":4716,
			"type":"VEC4"
		},
		{
			"bufferView":5,
			"componentType":5123,
			"count":6504,
			"type":"SCALAR"
		},
		{
			"bufferView":6,
			"componentType":5126,
			"count":19,
			"type":"MAT4"
		},
		{
			"bufferView":7,
			"componentType":5126,
			"count":2,
			"max":[
				1.0666666666666667
			],
			"min":[
				0
			],
			"type":"SCALAR"
		},
		{
			"bufferView":8,
			"componentType":5126,
			"count":2,
			"type":"VEC3"
		},
		{
			"bufferView":9,
			"componentType":5126,
			"count":33,
			"max":[
				1.0666666666666667
			],
			"min":[
				0
			],
			"type":"SCALAR"
		},
		{
			"bufferView":10,
			"componentType":5126,
			"count":33,
			"type":"VEC4"
		},
		{
			"bufferView":11,
			"componentType":5126,
			"count":2,
			"type":"VEC3"
		},
		{
			"bufferView":12,
			"componentType":5126,
			"count":2,
			"type":"VEC3"
		},
		{
			"bufferView":13,
			"componentType":5126,
			"count":33,
			"type":"VEC4"
		},
		{
			"bufferView":14,
			"componentType":5126,
			"count":2,
			"type":"VEC3"
		},
		{
			"bufferView":15,
			"componentType":5126,
			"count":2,
			"type":"VEC3"
		},
		{
			"bufferView":16,
			"componentType":5126,
			"count":33,
			"type":"VEC4"
		},
		{
			"bufferView":17,
			"componentType":5126,
			"count":2,
			"type":"VEC3"
		},
		{
			"bufferView":18,
			"componentType":5126,
			"count":2,
			"type":"VEC3"
		},
		{
			"bufferView":19,
			"componentType":5126,
			"count":33,
			"type":"VEC4"
		},
		{
			"bufferView":20,
			"componentType":5126,
			"count":2,
			"type":"VEC3"
		},
		{
			"bufferView":21,
			"componentType":5126,
			"count":33,
			"type":"VEC4"
		},
		{
			"bufferView":22,
			"componentType":5126,
			"count":2,
			"type":"VEC3"
		},
		{
			"bufferView":23,
			"componentType":5126,
			"count":33,
			"type":"VEC4"
		},
		{
			"bufferView":24,
			"componentType":5126,
			"count":2,
			"type":"VEC3"
		},
		{
			"bufferView":25,
			"componentType":5126,
			"count":2,
			"type":"VEC3"
		},
		{
			"bufferView":26,
			"componentType":5126,
			"count":2,
			"type":"VEC4"
		},
		{
			"bufferView":27,
			"componentType":5126,
			"count":2,
			"type":"VEC3"
		},
		{
			"bufferView":28,
			"componentType":5126,
			"count":33,
			"type":"VEC4"
		},
		{
			"bufferView":29,
			"componentType":5126,
			"count":2,
			"type":"VEC3"
		},
		{
			"bufferView":30,
			"componentType":5126,
			"count":2,
			"type":"VEC4"
		},
		{
			"bufferView":31,
			"componentType":5126,
			"count":2,
			"type":"VEC3"
		},
		{
			"bufferView":32,
			"componentType":5126,
			"count":2,
			"type":"VEC4"
		},
		{
			"bufferView":33,
			"componentType":5126,
			"count":2,
			"type":"VEC3"
		},
		{
			"bufferView":34,
			"componentType":5126,
			"count":2,
			"type":"VEC3"
		},
		{
			"bufferView":35,
			"componentType":5126,
			"count":2,
			"type":"VEC4"
		},
		{
			"bufferView":36,
			"componentType":5126,
			"count":2,
			"type":"VEC3"
		},
		{
			"bufferView":37,
			"componentType":5126,
			"count":2,
			"type":"VEC3"
		},
		{
			"bufferView":38,
			"componentType":5126,
			"count":2,
			"type":"VEC4"
		},
		{
			"bufferView":39,
			"componentType":5126,
			"count":2,
			"type":"VEC3"
		},
		{
			"bufferView":40,
			"componentType":5126,
			"count":2,
			"type":"VEC4"
		},
		{
			"bufferView":41,
			"componentType":5126,
			"count":2,
			"type":"VEC3"
		},
		{
			"bufferView":42,
			"componentType":5126,
			"count":2,
			"type":"VEC4"
		},
		{
			"bufferView":43,
			"componentType":5126,
			"count":2,
			"type":"VEC3"
		},
		{
			"bufferView":44,
			"componentType":5126,
			"count":2,
			"type":"VEC3"
		},
		{
			"bufferView":45,
			"componentType":5126,
			"count":2,
			"type":"VEC4"
		},
		{
			"bufferView":46,
			"componentType":5126,
			"count":2,
			"type":"VEC3"
		},
		{
			"bufferView":47,
			"componentType":5126,
			"count":2,
			"type":"VEC3"
		},
		{
			"bufferView":48,
			"componentType":5126,
			"count":2,
			"type":"VEC4"
		},
		{
			"bufferView":49,
			"componentType":5126,
			"count":2,
			"type":"VEC3"
		},
		{
			"bufferView":50,
			"componentType":5126,
			"count":2,
			"type":"VEC4"
		},
		{
			"bufferView":51,
			"componentType":5126,
			"count":2,
			"type":"VEC3"
		},
		{
			"bufferView":52,
			"componentType":5126,
			"count":2,
			"type":"VEC4"
		},
		{
			"bufferView":53,
			"componentType":5126,
			"count":2,
			"type":"VEC3"
		},
		{
			"bufferView":54,
			"componentType":5126,
			"count":2,
			"type":"VEC3"
		},
		{
			"bufferView":55,
			"componentType":5126,
			"count":33,
			"type":"VEC4"
		},
		{
			"bufferView":56,
			"componentType":5126,
			"count":91,
			"max":[
				3
			],
			"min":[
				0
			],
			"type":"SCALAR"
		},
		{
			"bufferView":57,
			"componentType":5126,
			"count":91,
			"type":"VEC3"
		},
		{
			"bufferView":58,
			"componentType":5126,
			"count":2,
			"max":[
				3
			],
			"min":[
				0
			],
			"type":"SCALAR"
		},
		{
			"bufferView":59,
			"componentType":5126,
			"count":2,
			"type":"VEC4"
		},
		{
			"bufferView":60,
			"componentType":5126,
			"count":91,
			"type":"VEC4"
		},
		{
			"bufferView":61,
			"componentType":5126,
			"count":91,
			"type":"VEC4"
		},
		{
			"bufferView":62,
			"componentType":5126,
			"count":91,
			"type":"VEC4"
		},
		{
			"bufferView":63,
			"componentType":5126,
			"count":91,
			"type":"VEC4"
		},
		{
			"bufferView":64,
			"componentType":5126,
			"count":91,
			"type":"VEC4"
		},
		{
			"bufferView":65,
			"componentType":5126,
			"count":2,
			"type":"VEC3"
		},
		{
			"bufferView":66,
			"componentType":5126,
			"count":2,
			"type":"VEC3"
		},
		{
			"bufferView":67,
			"componentType":5126,
			"count":91,
			"type":"VEC4"
		},
		{
			"bufferView":68,
			"componentType":5126,
			"count":2,
			"type":"VEC3"
		},
		{
			"bufferView":69,
			"componentType":5126,
			"count":91,
			"type":"VEC4"
		},
		{
			"bufferView":70,
			"componentType":5126,
			"count":2,
			"type":"VEC3"
		},
		{
			"bufferView":71,
			"componentType":5126,
			"count":91,
			"type":"VEC4"
		},
		{
			"bufferView":72,
			"componentType":5126,
			"count":91,
			"type":"VEC4"
		},
		{
			"bufferView":73,
			"componentType":5126,
			"count":2,
			"type":"VEC3"
		},
		{
			"bufferView":74,
			"componentType":5126,
			"count":91,
			"type":"VEC4"
		},
		{
			"bufferView":75,
			"componentType":5126,
			"count":91,
			"type":"VEC4"
		},
		{
			"bufferView":76,
			"componentType":5126,
			"count":2,
			"type":"VEC3"
		},
		{
			"bufferView":77,
			"componentType":5126,
			"count":91,
			"type":"VEC4"
		},
		{
			"bufferView":78,
			"componentType":5126,
			"count":91,
			"type":"VEC4"
		},
		{
			"bufferView":79,
			"componentType":5126,
			"count":2,
			"type":"VEC3"
		},
		{
			"bufferView":80,
			"componentType":5126,
			"count":2,
			"type":"VEC3"
		},
		{
			"bufferView":81,
			"componentType":5126,
			"count":91,
			"type":"VEC4"
		},
		{
			"bufferView":82,
			"componentType":5126,
			"count":2,
			"type":"VEC3"
		},
		{
			"bufferView":83,
			"componentType":5126,
			"count":91,
			"type":"VEC4"
		},
		{
			"bufferView":84,
			"componentType":5126,
			"count":2,
			"type":"VEC3"
		},
		{
			"bufferView":85,
			"componentType":5126,
			"count":91,
			"type":"VEC4"
		},
		{
			"bufferView":86,
			"componentType":5126,
			"count":91,
			"type":"VEC4"
		},
		{
			"bufferView":87,
			"componentType":5126,
			"count":91,
			"type":"VEC4"
		},
		{
			"bufferView":88,
			"componentType":5126,
			"count":25,
			"max":[
				0.8
			],
			"min":[
				0
			],
			"type":"SCALAR"
		},
		{
			"bufferView":89,
			"componentType":5126,
			"count":25,
			"type":"VEC3"
		},
		{
			"bufferView":90,
			"componentType":5126,
			"count":2,
			"max":[
				0.8
			],
			"min":[
				0
			],
			"type":"SCALAR"
		},
		{
			"bufferView":91,
			"componentType":5126,
			"count":25,
			"type":"VEC4"
		},
		{
			"bufferView":92,
			"componentType":5126,
			"count":2,
			"type":"VEC3"
		},
		{
			"bufferView":93,
			"componentType":5126,
			"count":25,
			"type":"VEC4"
		},
		{
			"bufferView":94,
			"componentType":5126,
			"count":2,
			"type":"VEC3"
		},
		{
			"bufferView":95,
			"componentType":5126,
			"count":25,
			"type":"VEC4"
		},
		{
			"bufferView":96,
			"componentType":5126,
			"count":2,
			"type":"VEC3"
		},
		{
			"bufferView":97,
			"componentType":5126,
			"count":25,
			"type":"VEC4"
		},
		{
			"bufferView":98,
			"componentType":5126,
			"count":2,
			"type":"VEC3"
		},
		{
			"bufferView":99,
			"componentType":5126,
			"count":25,
			"type":"VEC4"
		},
		{
			"bufferView":100,
			"componentType":5126,
			"count":2,
			"type":"VEC3"
		},
		{
			"bufferView":101,
			"componentType":5126,
			"count":2,
			"type":"VEC3"
		},
		{
			"bufferView":102,
			"componentType":5126,
			"count":25,
			"type":"VEC4"
		},
		{
			"bufferView":103,
			"componentType":5126,
			"count":2,
			"type":"VEC3"
		},
		{
			"bufferView":104,
			"componentType":5126,
			"count":25,
			"type":"VEC4"
		},
		{
			"bufferView":105,
			"componentType":5126,
			"count":2,
			"type":"VEC3"
		},
		{
			"bufferView":106,
			"componentType":5126,
			"count":25,
			"type":"VEC4"
		},
		{
			"bufferView":107,
			"componentType":5126,
			"count":25,
			"type":"VEC4"
		},
		{
			"bufferView":108,
			"componentType":5126,
			"count":2,
			"type":"VEC3"
		},
		{
			"bufferView":109,
			"componentType":5126,
			"count":25,
			"type":"VEC4"
		},
		{
			"bufferView":110,
			"componentType":5126,
			"count":25,
			"type":"VEC4"
		},
		{
			"bufferView":111,
			"componentType":5126,
			"count":2,
			"type":"VEC3"
		},
		{
			"bufferView":112,
			"componentType":5126,
			"count":25,
			"type":"VEC4"
		},
		{
			"bufferView":113,
			"componentType":5126,
			"count":25,
			"type":"VEC4"
		},
		{
			"bufferView":114,
			"componentType":5126,
			"count":2,
			"type":"VEC3"
		},
		{
			"bufferView":115,
			"componentType":5126,
			"count":25,
			"type":"VEC4"
		},
		{
			"bufferView":116,
			"componentType":5126,
			"count":25,
			"type":"VEC4"
		},
		{
			"bufferView":117,
			"componentType":5126,
			"count":2,
			"type":"VEC3"
		},
		{
			"bufferView":118,
			"componentType":5126,
			"count":2,
			"type":"VEC3"
		},
		{
			"bufferView":119,
			"componentType":5126,
			"count":25,
			"type":"VEC4"
		},
		{
			"bufferView":120,
			"componentType":5126,
			"count":2,
			"type":"VEC3"
		},
		{
			"bufferView":121,
			"componentType":5126,
			"count":25,
			"type":"VEC4"
		},
		{
			"bufferView":122,
			"componentType":5126,
			"count":2,
			"type":"VEC4"
		}
	],
	"bufferViews":[
		{
			"buffer":0,
			"byteLength":56592,
			"byteOffset":0,
			"target":34962
		},
		{
			"buffer":0,
			"byteLength":56592,
			"byteOffset":56592,
			"target":34962
		},
		{
			"buffer":0,
			"byteLength":56592,
			"byteOffset":113184,
			"target":34962
		},
		{
			"buffer":0,
			"byteLength":18864,
			"byteOffset":169776,
			"target":34962
		},
		{
			"buffer":0,
			"byteLength":75456,
			"byteOffset":188640,
			"target":34962
		},
		{
			"buffer":0,
			"byteLength":13008,
			"byteOffset":264096,
			"target":34963
		},
		{
			"buffer":0,
			"byteLength":1216,
			"byteOffset":277104
		},
		{
			"buffer":0,
			"byteLength":8,
			"byteOffset":278320
		},
		{
			"buffer":0,
			"byteLength":24,
			"byteOffset":278328
		},
		{
			"buffer":0,
			"byteLength":132,
			"byteOffset":278352
		},
		{
			"buffer":0,
			"byteLength":528,
			"byteOffset":278484
		},
		{
			"buffer":0,
			"byteLength":24,
			"byteOffset":279012
		},
		{
			"buffer":0,
			"byteLength":24,
			"byteOffset":279036
		},
		{
			"buffer":0,
			"byteLength":528,
			"byteOffset":279060
		},
		{
			"buffer":0,
			"byteLength":24,
			"byteOffset":279588
		},
		{
			"buffer":0,
			"byteLength":24,
			"byteOffset":279612
		},
		{
			"buffer":0,
			"byteLength":528,
			"byteOffset":279636
		},
		{
			"buffer":0,
			"byteLength":24,
			"byteOffset":280164
		},
		{
			"buffer":0,
			"byteLength":24,
			"byteOffset":280188
		},
		{
			"buffer":0,
			"byteLength":528,
			"byteOffset":280212
		},
		{
			"buffer":0,
			"byteLength":24,
			"byteOffset":280740
		},
		{
			"buffer":0,
			"byteLength":528,
			"byteOffset":280764
		},
		{
			"buffer":0,
			"byteLength":24,
			"byteOffset":281292
		},
		{
			"buffer":0,
			"byteLength":528,
			"byteOffset":281316
		},
		{
			"buffer":0,
			"byteLength":24,
			"byteOffset":281844
		},
		{
			"buffer":0,
			"byteLength":24,
			"byteOffset":281868
		},
		{
			"buffer":0,
			"byteLength":32,
			"byteOffset":281892
		},
		{
			"buffer":0,
			"byteLength":24,
			"byteOffset":281924
		},
		{
			"buffer":0,
			"byteLength":528,
			"byteOffset":281948
		},
		{
			"buffer":0,
			"byteLength":24,
			"byteOffset":282476
		},
		{
			"buffer":0,
			"byteLength":32,
			"byteOffset":282500
		},
		{
			"buffer":0,
			"byteLength":24,
			"byteOffset":282532
		},
		{
			"buffer":0,
			"byteLength":32,
			"byteOffset":282556
		},
		{
			"buffer":0,
			"byteLength":24,
			"byteOffset":282588
		},
		{
			"buffer":0,
			"byteLength":24,
			"byteOffset":282612
		},
		{
			"buffer":0,
			"byteLength":32,
			"byteOffset":282636
		},
		{
			"buffer":0,
			"byteLength":24,
			"byteOffset":282668
		},
		{
			"buffer":0,
			"byteLength":24,
			"byteOffset":282692
		},
		{
			"buffer":0,
			"byteLength":32,
			"byteOffset":282716
		},
		{
			"buffer":0,
			"byteLength":24,
			"byteOffset":282748
		},
		{
			"buffer":0,
			"byteLength":32,
			"byteOffset":282772
		},
		{
			"buffer":0,
			"byteLength":24,
			"byteOffset":282804
		},
		{
			"buffer":0,
			"byteLength":32,
			"byteOffset":282828
		},
		{
			"buffer":0,
			"byteLength":24,
			"byteOffset":282860
		},
		{
			"buffer":0,
			"byteLength":24,
			"byteOffset":282884
		},
		{
			"buffer":0,
			"byteLength":32,
			"byteOffset":282908
		},
		{
			"buffer":0,
			"byteLength":24,
			"byteOffset":282940
		},
		{
			"buffer":0,
			"byteLength":24,
			"byteOffset":282964
		},
		{
			"buffer":0,
			"byteLength":32,
			"byteOffset":282988
		},
		{
			"buffer":0,
			"byteLength":24,
			"byteOffset":283020
		},
		{
			"buffer":0,
			"byteLength":32,
			"byteOffset":283044
		},
		{
			"buffer":0,
			"byteLength":24,
			"byteOffset":283076
		},
		{
			"buffer":0,
			"byteLength":32,
			"byteOffset":283100
		},
		{
			"buffer":0,
			"byteLength":24,
			"byteOffset":283132
		},
		{
			"buffer":0,
			"byteLength":24,
			"byteOffset":283156
		},
		{
			"buffer":0,
			"byteLength":528,
			"byteOffset":283180
		},
		{
			"buffer":0,
			"byteLength":364,
			"byteOffset":283708
		},
		{
			"buffer":0,
			"byteLength":1092,
			"byteOffset":284072
		},
		{
			"buffer":0,
			"byteLength":8,
			"byteOffset":285164
		},
		{
			"buffer":0,
			"byteLength":32,
			"byteOffset":285172
		},
		{
			"buffer":0,
			"byteLength":1456,
			"byteOffset":285204
		},
		{
			"buffer":0,
			"byteLength":1456,
			"byteOffset":286660
		},
		{
			"buffer":0,
			"byteLength":1456,
			"byteOffset":288116
		},
		{
			"buffer":0,
			"byteLength":1456,
			"byteOffset":289572
		},
		{
			"buffer":0,
			"byteLength":1456,
			"byteOffset":291028
		},
		{
			"buffer":0,
			"byteLength":24,
			"byteOffset":292484
		},
		{
			"buffer":0,
			"byteLength":24,
			"byteOffset":292508
		},
		{
			"buffer":0,
			"byteLength":1456,
			"byteOffset":292532
		},
		{
			"buffer":0,
			"byteLength":24,
			"byteOffset":293988
		},
		{
			"buffer":0,
			"byteLength":1456,
			"byteOffset":294012
		},
		{
			"buffer":0,
			"byteLength":24,
			"byteOffset":295468
		},
		{
			"buffer":0,
			"byteLength":1456,
			"byteOffset":295492
		},
		{
			"buffer":0,
			"byteLength":1456,
			"byteOffset":296948
		},
		{
			"buffer":0,
			"byteLength":24,
			"byteOffset":298404
		},
		{
			"buffer":0,
			"byteLength":1456,
			"byteOffset":298428
		},
		{
			"buffer":0,
			"byteLength":1456,
			"byteOffset":299884
		},
		{
			"buffer":0,
			"byteLength":24,
			"byteOffset":301340
		},
		{
			"buffer":0,
			"byteLength":1456,
			"byteOffset":301364
		},
		{
			"buffer":0,
			"byteLength":1456,
			"byteOffset":302820
		},
		{
			"buffer":0,
			"byteLength":24,
			"byteOffset":304276
		},
		{
			"buffer":0,
			"byteLength":24,
			"byteOffset":304300
		},
		{
			"buffer":0,
			"byteLength":1456,
			"byteOffset":304324
		},
		{
			"buffer":0,
			"byteLength":24,
			"byteOffset":305780
		},
		{
			"buffer":0,
			"byteLength":1456,
			"byteOffset":305804
		},
		{
			"buffer":0,
			"byteLength":24,
			"byteOffset":307260
		},
		{
			"buffer":0,
			"byteLength":1456,
			"byteOffset":307284
		},
		{
			"buffer":0,
			"byteLength":1456,
			"byteOffset":308740
		},
		{
			"buffer":0,
			"byteLength":1456,
			"byteOffset":310196
		},
		{
			"buffer":0,
			"byteLength":100,
			"byteOffset":311652
		},
		{
			"buffer":0,
			"byteLength":300,
			"byteOffset":311752
		},
		{
			"buffer":0,
			"byteLength":8,
			"byteOffset":312052
		},
		{
			"buffer":0,
			"byteLength":400,
			"byteOffset":312060
		},
		{
			"buffer":0,
			"byteLength":24,
			"byteOffset":312460
		},
		{
			"buffer":0,
			"byteLength":400,
			"byteOffset":312484
		},
		{
			"buffer":0,
			"byteLength":24,
			"byteOffset":312884
		},
		{
			"buffer":0,
			"byteLength":400,
			"byteOffset":312908
		},
		{
			"buffer":0,
			"byteLength":24,
			"byteOffset":313308
		},
		{
			"buffer":0,
			"byteLength":400,
			"byteOffset":313332
		},
		{
			"buffer":0,
			"byteLength":24,
			"byteOffset":313732
		},
		{
			"buffer":0,
			"byteLength":400,
			"byteOffset":313756
		},
		{
			"buffer":0,
			"byteLength":24,
			"byteOffset":314156
		},
		{
			"buffer":0,
			"byteLength":24,
			"byteOffset":314180
		},
		{
			"buffer":0,
			"byteLength":400,
			"byteOffset":314204
		},
		{
			"buffer":0,
			"byteLength":24,
			"byteOffset":314604
		},
		{
			"buffer":0,
			"byteLength":400,
			"byteOffset":314628
		},
		{
			"buffer":0,
			"byteLength":24,
			"byteOffset":315028
		},
		{
			"buffer":0,
			"byteLength":400,
			"byteOffset":315052
		},
		{
			"buffer":0,
			"byteLength":400,
			"byteOffset":315452
		},
		{
			"buffer":0,
			"byteLength":24,
			"byteOffset":315852
		},
		{
			"buffer":0,
			"byteLength":400,
			"byteOffset":315876
		},
		{
			"buffer":0,
			"byteLength":400,
			"byteOffset":316276
		},
		{
			"buffer":0,
			"byteLength":24,
			"byteOffset":316676
		},
		{
			"buffer":0,
			"byteLength":400,
			"byteOffset":316700
		},
		{
			"buffer":0,
			"byteLength":400,
			"byteOffset":317100
		},
		{
			"buffer":0,
			"byteLength":24,
			"byteOffset":317500
		},
		{
			"buffer":0,
			"byteLength":400,
			"byteOffset":317524
		},
		{
			"buffer":0,
			"byteLength":400,
			"byteOffset":317924
		},
		{
			"buffer":0,
			"byteLength":24,
			"byteOffset":318324
		},
		{
			"buffer":0,
			"byteLength":24,
			"byteOffset":318348
		},
		{
			"buffer":0,
			"byteLength":400,
			"byteOffset":318372
		},
		{
			"buffer":0,
			"byteLength":24,
			"byteOffset":318772
		},
		{
			"buffer":0,
			"byteLength":400,
			"byteOffset":318796
		},
		{
			"buffer":0,
			"byteLength":32,
			"byteOffset":319196
		}
	],
	"buffers":[
		{
			"byteLength":319228,
			"uri":"waldspinne.bin"
		}
	]
}
