{
	"asset":{
		"generator":"Khronos glTF Blender I/O v5.2.40",
		"version":"2.0"
	},
	"scene":0,
	"scenes":[
		{
			"name":"Scene",
			"nodes":[
				19
			]
		}
	],
	"nodes":[
		{
			"name":"Hut",
			"rotation":[
				-0.4926990270614624,
				1.4670469283828425e-07,
				-8.306282239800566e-08,
				0.8701997995376587
			],
			"scale":[
				1,
				0.9999998807907104,
				0.9999999403953552
			],
			"translation":[
				-2.8421711442107257e-16,
				0.440000057220459,
				-0.020000001415610313
			]
		},
		{
			"children":[
				0
			],
			"name":"Kopf",
			"rotation":[
				-0.3826836049556732,
				-8.260128936399269e-08,
				-3.421459027208584e-08,
				0.9238795042037964
			],
			"scale":[
				1,
				1.0000001192092896,
				1
			],
			"translation":[
				2.220446049250313e-14,
				0.05656847730278969,
				-5.21540641784668e-08
			]
		},
		{
			"children":[
				1
			],
			"name":"Hals",
			"rotation":[
				0.3826836347579956,
				8.260127515313798e-08,
				3.421459027208584e-08,
				0.9238795042037964
			],
			"translation":[
				0,
				0.3700000047683716,
				0
			]
		},
		{
			"name":"Hand.L",
			"rotation":[
				-0.02533137798309326,
				-0.010340514592826366,
				0.046899497509002686,
				0.9985248446464539
			],
			"scale":[
				1.0000001192092896,
				0.9999999403953552,
				1.0000001192092896
			],
			"translation":[
				-5.960464477539063e-08,
				0.42000001668930054,
				-3.725290298461914e-08
			]
		},
		{
			"children":[
				3
			],
			"name":"Unterarm.L",
			"rotation":[
				-0.18089208006858826,
				-0.0007319155847653747,
				0.07986809313297272,
				0.9802543520927429
			],
			"scale":[
				0.9999998211860657,
				0.9999998807907104,
				0.9999998807907104
			],
			"translation":[
				1.242756866304262e-07,
				0.4638963043689728,
				-3.725290298461914e-09
			]
		},
		{
			"children":[
				4
			],
			"name":"Oberarm.L",
			"rotation":[
				-0.9759017825126648,
				-0.20031142234802246,
				0.01740243472158909,
				0.08478336036205292
			],
			"scale":[
				1.0000001192092896,
				1.0000001192092896,
				1.0000001192092896
			],
			"translation":[
				0.4399999976158142,
				0.2699998617172241,
				0
			]
		},
		{
			"name":"Hand.R",
			"rotation":[
				-0.02533137798309326,
				0.010340514592826366,
				-0.046899497509002686,
				0.9985248446464539
			],
			"scale":[
				1.0000001192092896,
				0.9999999403953552,
				1.0000001192092896
			],
			"translation":[
				5.960464477539063e-08,
				0.42000001668930054,
				-3.725290298461914e-08
			]
		},
		{
			"children":[
				6
			],
			"name":"Unterarm.R",
			"rotation":[
				-0.18089208006858826,
				0.0007319155847653747,
				-0.07986809313297272,
				0.9802543520927429
			],
			"scale":[
				0.9999998211860657,
				0.9999998807907104,
				0.9999998807907104
			],
			"translation":[
				-1.242756866304262e-07,
				0.4638963043689728,
				-3.725290298461914e-09
			]
		},
		{
			"children":[
				7
			],
			"name":"Oberarm.R",
			"rotation":[
				-0.9759017825126648,
				0.20031142234802246,
				-0.01740243472158909,
				0.08478336036205292
			],
			"scale":[
				1.0000001192092896,
				1.0000001192092896,
				1.0000001192092896
			],
			"translation":[
				-0.4399999976158142,
				0.2699998617172241,
				0
			]
		},
		{
			"children":[
				2,
				5,
				8
			],
			"name":"Brust",
			"translation":[
				0,
				0.30000007152557373,
				0
			]
		},
		{
			"children":[
				9
			],
			"name":"Bauch",
			"translation":[
				0,
				0.25,
				0
			]
		},
		{
			"name":"Fuss.L",
			"rotation":[
				0.0008619551081210375,
				0.8245270252227783,
				-0.5653989911079407,
				0.021872738376259804
			],
			"scale":[
				1,
				1.0000001192092896,
				1
			],
			"translation":[
				-3.529715186800786e-09,
				0.5657736659049988,
				5.471520125865936e-09
			]
		},
		{
			"children":[
				11
			],
			"name":"Unterschenkel.L",
			"rotation":[
				0.11505229026079178,
				0.000708735198713839,
				0.02671338990330696,
				0.9929999709129333
			],
			"scale":[
				1,
				0.9999999403953552,
				1
			],
			"translation":[
				1.862645149230957e-08,
				0.5636487603187561,
				1.862645149230957e-09
			]
		},
		{
			"children":[
				12
			],
			"name":"Oberschenkel.L",
			"rotation":[
				0.9983790516853333,
				0.03561098501086235,
				0.0015794893261045218,
				0.04436914995312691
			],
			"scale":[
				1.0000050067901611,
				1.0000001192092896,
				1.0000078678131104
			],
			"translation":[
				0.20000000298023224,
				0,
				0
			]
		},
		{
			"name":"Fuss.R",
			"rotation":[
				0.0008619551081210375,
				-0.8245270252227783,
				0.5653989911079407,
				0.021872738376259804
			],
			"scale":[
				1,
				1.0000001192092896,
				1
			],
			"translation":[
				3.529715186800786e-09,
				0.5657736659049988,
				5.471520125865936e-09
			]
		},
		{
			"children":[
				14
			],
			"name":"Unterschenkel.R",
			"rotation":[
				0.11505229026079178,
				-0.000708735198713839,
				-0.02671338990330696,
				0.9929999709129333
			],
			"scale":[
				1,
				0.9999999403953552,
				1
			],
			"translation":[
				-1.862645149230957e-08,
				0.5636487603187561,
				1.862645149230957e-09
			]
		},
		{
			"children":[
				15
			],
			"name":"Oberschenkel.R",
			"rotation":[
				0.9983790516853333,
				-0.03561098501086235,
				-0.0015794893261045218,
				0.04436914995312691
			],
			"scale":[
				1.0000050067901611,
				1.0000001192092896,
				1.0000078678131104
			],
			"translation":[
				-0.20000000298023224,
				0,
				0
			]
		},
		{
			"children":[
				10,
				13,
				16
			],
			"name":"Becken",
			"translation":[
				0,
				1.2999999523162842,
				0
			]
		},
		{
			"mesh":0,
			"name":"Waldschrat",
			"skin":0
		},
		{
			"children":[
				18,
				17
			],
			"name":"WaldschratSkelett"
		}
	],
	"animations":[
		{
			"channels":[
				{
					"sampler":0,
					"target":{
						"node":17,
						"path":"translation"
					}
				},
				{
					"sampler":1,
					"target":{
						"node":17,
						"path":"rotation"
					}
				},
				{
					"sampler":2,
					"target":{
						"node":17,
						"path":"scale"
					}
				},
				{
					"sampler":3,
					"target":{
						"node":10,
						"path":"translation"
					}
				},
				{
					"sampler":4,
					"target":{
						"node":10,
						"path":"rotation"
					}
				},
				{
					"sampler":5,
					"target":{
						"node":10,
						"path":"scale"
					}
				},
				{
					"sampler":6,
					"target":{
						"node":9,
						"path":"translation"
					}
				},
				{
					"sampler":7,
					"target":{
						"node":9,
						"path":"rotation"
					}
				},
				{
					"sampler":8,
					"target":{
						"node":9,
						"path":"scale"
					}
				},
				{
					"sampler":9,
					"target":{
						"node":2,
						"path":"translation"
					}
				},
				{
					"sampler":10,
					"target":{
						"node":2,
						"path":"rotation"
					}
				},
				{
					"sampler":11,
					"target":{
						"node":2,
						"path":"scale"
					}
				},
				{
					"sampler":12,
					"target":{
						"node":1,
						"path":"translation"
					}
				},
				{
					"sampler":13,
					"target":{
						"node":1,
						"path":"rotation"
					}
				},
				{
					"sampler":14,
					"target":{
						"node":1,
						"path":"scale"
					}
				},
				{
					"sampler":15,
					"target":{
						"node":0,
						"path":"translation"
					}
				},
				{
					"sampler":16,
					"target":{
						"node":0,
						"path":"rotation"
					}
				},
				{
					"sampler":17,
					"target":{
						"node":0,
						"path":"scale"
					}
				},
				{
					"sampler":18,
					"target":{
						"node":5,
						"path":"translation"
					}
				},
				{
					"sampler":19,
					"target":{
						"node":5,
						"path":"rotation"
					}
				},
				{
					"sampler":20,
					"target":{
						"node":5,
						"path":"scale"
					}
				},
				{
					"sampler":21,
					"target":{
						"node":4,
						"path":"translation"
					}
				},
				{
					"sampler":22,
					"target":{
						"node":4,
						"path":"rotation"
					}
				},
				{
					"sampler":23,
					"target":{
						"node":4,
						"path":"scale"
					}
				},
				{
					"sampler":24,
					"target":{
						"node":3,
						"path":"translation"
					}
				},
				{
					"sampler":25,
					"target":{
						"node":3,
						"path":"rotation"
					}
				},
				{
					"sampler":26,
					"target":{
						"node":3,
						"path":"scale"
					}
				},
				{
					"sampler":27,
					"target":{
						"node":8,
						"path":"translation"
					}
				},
				{
					"sampler":28,
					"target":{
						"node":8,
						"path":"rotation"
					}
				},
				{
					"sampler":29,
					"target":{
						"node":8,
						"path":"scale"
					}
				},
				{
					"sampler":30,
					"target":{
						"node":7,
						"path":"translation"
					}
				},
				{
					"sampler":31,
					"target":{
						"node":7,
						"path":"rotation"
					}
				},
				{
					"sampler":32,
					"target":{
						"node":7,
						"path":"scale"
					}
				},
				{
					"sampler":33,
					"target":{
						"node":6,
						"path":"translation"
					}
				},
				{
					"sampler":34,
					"target":{
						"node":6,
						"path":"rotation"
					}
				},
				{
					"sampler":35,
					"target":{
						"node":6,
						"path":"scale"
					}
				},
				{
					"sampler":36,
					"target":{
						"node":13,
						"path":"translation"
					}
				},
				{
					"sampler":37,
					"target":{
						"node":13,
						"path":"rotation"
					}
				},
				{
					"sampler":38,
					"target":{
						"node":13,
						"path":"scale"
					}
				},
				{
					"sampler":39,
					"target":{
						"node":12,
						"path":"translation"
					}
				},
				{
					"sampler":40,
					"target":{
						"node":12,
						"path":"rotation"
					}
				},
				{
					"sampler":41,
					"target":{
						"node":12,
						"path":"scale"
					}
				},
				{
					"sampler":42,
					"target":{
						"node":11,
						"path":"translation"
					}
				},
				{
					"sampler":43,
					"target":{
						"node":11,
						"path":"rotation"
					}
				},
				{
					"sampler":44,
					"target":{
						"node":11,
						"path":"scale"
					}
				},
				{
					"sampler":45,
					"target":{
						"node":16,
						"path":"translation"
					}
				},
				{
					"sampler":46,
					"target":{
						"node":16,
						"path":"rotation"
					}
				},
				{
					"sampler":47,
					"target":{
						"node":16,
						"path":"scale"
					}
				},
				{
					"sampler":48,
					"target":{
						"node":15,
						"path":"translation"
					}
				},
				{
					"sampler":49,
					"target":{
						"node":15,
						"path":"rotation"
					}
				},
				{
					"sampler":50,
					"target":{
						"node":15,
						"path":"scale"
					}
				},
				{
					"sampler":51,
					"target":{
						"node":14,
						"path":"translation"
					}
				},
				{
					"sampler":52,
					"target":{
						"node":14,
						"path":"rotation"
					}
				},
				{
					"sampler":53,
					"target":{
						"node":14,
						"path":"scale"
					}
				}
			],
			"name":"Angriff",
			"samplers":[
				{
					"input":7,
					"interpolation":"LINEAR",
					"output":8
				},
				{
					"input":9,
					"interpolation":"STEP",
					"output":10
				},
				{
					"input":9,
					"interpolation":"STEP",
					"output":11
				},
				{
					"input":9,
					"interpolation":"STEP",
					"output":12
				},
				{
					"input":7,
					"interpolation":"LINEAR",
					"output":13
				},
				{
					"input":9,
					"interpolation":"STEP",
					"output":11
				},
				{
					"input":9,
					"interpolation":"STEP",
					"output":14
				},
				{
					"input":7,
					"interpolation":"LINEAR",
					"output":15
				},
				{
					"input":9,
					"interpolation":"STEP",
					"output":11
				},
				{
					"input":9,
					"interpolation":"STEP",
					"output":16
				},
				{
					"input":9,
					"interpolation":"STEP",
					"output":17
				},
				{
					"input":9,
					"interpolation":"STEP",
					"output":11
				},
				{
					"input":9,
					"interpolation":"STEP",
					"output":18
				},
				{
					"input":7,
					"interpolation":"LINEAR",
					"output":19
				},
				{
					"input":9,
					"interpolation":"STEP",
					"output":20
				},
				{
					"input":9,
					"interpolation":"STEP",
					"output":21
				},
				{
					"input":9,
					"interpolation":"STEP",
					"output":22
				},
				{
					"input":9,
					"interpolation":"STEP",
					"output":23
				},
				{
					"input":9,
					"interpolation":"STEP",
					"output":24
				},
				{
					"input":7,
					"interpolation":"LINEAR",
					"output":25
				},
				{
					"input":9,
					"interpolation":"STEP",
					"output":26
				},
				{
					"input":9,
					"interpolation":"STEP",
					"output":27
				},
				{
					"input":7,
					"interpolation":"LINEAR",
					"output":28
				},
				{
					"input":9,
					"interpolation":"STEP",
					"output":29
				},
				{
					"input":9,
					"interpolation":"STEP",
					"output":30
				},
				{
					"input":9,
					"interpolation":"STEP",
					"output":31
				},
				{
					"input":9,
					"interpolation":"STEP",
					"output":32
				},
				{
					"input":9,
					"interpolation":"STEP",
					"output":33
				},
				{
					"input":7,
					"interpolation":"LINEAR",
					"output":34
				},
				{
					"input":9,
					"interpolation":"STEP",
					"output":26
				},
				{
					"input":9,
					"interpolation":"STEP",
					"output":35
				},
				{
					"input":7,
					"interpolation":"LINEAR",
					"output":36
				},
				{
					"input":9,
					"interpolation":"STEP",
					"output":29
				},
				{
					"input":9,
					"interpolation":"STEP",
					"output":37
				},
				{
					"input":9,
					"interpolation":"STEP",
					"output":38
				},
				{
					"input":9,
					"interpolation":"STEP",
					"output":32
				},
				{
					"input":9,
					"interpolation":"STEP",
					"output":39
				},
				{
					"input":7,
					"interpolation":"LINEAR",
					"output":40
				},
				{
					"input":9,
					"interpolation":"STEP",
					"output":41
				},
				{
					"input":9,
					"interpolation":"STEP",
					"output":42
				},
				{
					"input":7,
					"interpolation":"LINEAR",
					"output":43
				},
				{
					"input":9,
					"interpolation":"STEP",
					"output":44
				},
				{
					"input":9,
					"interpolation":"STEP",
					"output":45
				},
				{
					"input":9,
					"interpolation":"STEP",
					"output":46
				},
				{
					"input":9,
					"interpolation":"STEP",
					"output":47
				},
				{
					"input":9,
					"interpolation":"STEP",
					"output":48
				},
				{
					"input":7,
					"interpolation":"LINEAR",
					"output":49
				},
				{
					"input":9,
					"interpolation":"STEP",
					"output":41
				},
				{
					"input":9,
					"interpolation":"STEP",
					"output":50
				},
				{
					"input":7,
					"interpolation":"LINEAR",
					"output":51
				},
				{
					"input":9,
					"interpolation":"STEP",
					"output":44
				},
				{
					"input":9,
					"interpolation":"STEP",
					"output":52
				},
				{
					"input":9,
					"interpolation":"STEP",
					"output":53
				},
				{
					"input":9,
					"interpolation":"STEP",
					"output":47
				}
			]
		},
		{
			"channels":[
				{
					"sampler":0,
					"target":{
						"node":17,
						"path":"translation"
					}
				},
				{
					"sampler":1,
					"target":{
						"node":17,
						"path":"rotation"
					}
				},
				{
					"sampler":2,
					"target":{
						"node":17,
						"path":"scale"
					}
				},
				{
					"sampler":3,
					"target":{
						"node":10,
						"path":"translation"
					}
				},
				{
					"sampler":4,
					"target":{
						"node":10,
						"path":"rotation"
					}
				},
				{
					"sampler":5,
					"target":{
						"node":10,
						"path":"scale"
					}
				},
				{
					"sampler":6,
					"target":{
						"node":9,
						"path":"translation"
					}
				},
				{
					"sampler":7,
					"target":{
						"node":9,
						"path":"rotation"
					}
				},
				{
					"sampler":8,
					"target":{
						"node":9,
						"path":"scale"
					}
				},
				{
					"sampler":9,
					"target":{
						"node":2,
						"path":"translation"
					}
				},
				{
					"sampler":10,
					"target":{
						"node":2,
						"path":"rotation"
					}
				},
				{
					"sampler":11,
					"target":{
						"node":2,
						"path":"scale"
					}
				},
				{
					"sampler":12,
					"target":{
						"node":1,
						"path":"translation"
					}
				},
				{
					"sampler":13,
					"target":{
						"node":1,
						"path":"rotation"
					}
				},
				{
					"sampler":14,
					"target":{
						"node":1,
						"path":"scale"
					}
				},
				{
					"sampler":15,
					"target":{
						"node":0,
						"path":"translation"
					}
				},
				{
					"sampler":16,
					"target":{
						"node":0,
						"path":"rotation"
					}
				},
				{
					"sampler":17,
					"target":{
						"node":0,
						"path":"scale"
					}
				},
				{
					"sampler":18,
					"target":{
						"node":5,
						"path":"translation"
					}
				},
				{
					"sampler":19,
					"target":{
						"node":5,
						"path":"rotation"
					}
				},
				{
					"sampler":20,
					"target":{
						"node":5,
						"path":"scale"
					}
				},
				{
					"sampler":21,
					"target":{
						"node":4,
						"path":"translation"
					}
				},
				{
					"sampler":22,
					"target":{
						"node":4,
						"path":"rotation"
					}
				},
				{
					"sampler":23,
					"target":{
						"node":4,
						"path":"scale"
					}
				},
				{
					"sampler":24,
					"target":{
						"node":3,
						"path":"translation"
					}
				},
				{
					"sampler":25,
					"target":{
						"node":3,
						"path":"rotation"
					}
				},
				{
					"sampler":26,
					"target":{
						"node":3,
						"path":"scale"
					}
				},
				{
					"sampler":27,
					"target":{
						"node":8,
						"path":"translation"
					}
				},
				{
					"sampler":28,
					"target":{
						"node":8,
						"path":"rotation"
					}
				},
				{
					"sampler":29,
					"target":{
						"node":8,
						"path":"scale"
					}
				},
				{
					"sampler":30,
					"target":{
						"node":7,
						"path":"translation"
					}
				},
				{
					"sampler":31,
					"target":{
						"node":7,
						"path":"rotation"
					}
				},
				{
					"sampler":32,
					"target":{
						"node":7,
						"path":"scale"
					}
				},
				{
					"sampler":33,
					"target":{
						"node":6,
						"path":"translation"
					}
				},
				{
					"sampler":34,
					"target":{
						"node":6,
						"path":"rotation"
					}
				},
				{
					"sampler":35,
					"target":{
						"node":6,
						"path":"scale"
					}
				},
				{
					"sampler":36,
					"target":{
						"node":13,
						"path":"translation"
					}
				},
				{
					"sampler":37,
					"target":{
						"node":13,
						"path":"rotation"
					}
				},
				{
					"sampler":38,
					"target":{
						"node":13,
						"path":"scale"
					}
				},
				{
					"sampler":39,
					"target":{
						"node":12,
						"path":"translation"
					}
				},
				{
					"sampler":40,
					"target":{
						"node":12,
						"path":"rotation"
					}
				},
				{
					"sampler":41,
					"target":{
						"node":12,
						"path":"scale"
					}
				},
				{
					"sampler":42,
					"target":{
						"node":11,
						"path":"translation"
					}
				},
				{
					"sampler":43,
					"target":{
						"node":11,
						"path":"rotation"
					}
				},
				{
					"sampler":44,
					"target":{
						"node":11,
						"path":"scale"
					}
				},
				{
					"sampler":45,
					"target":{
						"node":16,
						"path":"translation"
					}
				},
				{
					"sampler":46,
					"target":{
						"node":16,
						"path":"rotation"
					}
				},
				{
					"sampler":47,
					"target":{
						"node":16,
						"path":"scale"
					}
				},
				{
					"sampler":48,
					"target":{
						"node":15,
						"path":"translation"
					}
				},
				{
					"sampler":49,
					"target":{
						"node":15,
						"path":"rotation"
					}
				},
				{
					"sampler":50,
					"target":{
						"node":15,
						"path":"scale"
					}
				},
				{
					"sampler":51,
					"target":{
						"node":14,
						"path":"translation"
					}
				},
				{
					"sampler":52,
					"target":{
						"node":14,
						"path":"rotation"
					}
				},
				{
					"sampler":53,
					"target":{
						"node":14,
						"path":"scale"
					}
				}
			],
			"name":"Idle",
			"samplers":[
				{
					"input":54,
					"interpolation":"LINEAR",
					"output":55
				},
				{
					"input":56,
					"interpolation":"STEP",
					"output":10
				},
				{
					"input":56,
					"interpolation":"STEP",
					"output":11
				},
				{
					"input":56,
					"interpolation":"STEP",
					"output":12
				},
				{
					"input":54,
					"interpolation":"LINEAR",
					"output":57
				},
				{
					"input":56,
					"interpolation":"STEP",
					"output":11
				},
				{
					"input":56,
					"interpolation":"STEP",
					"output":14
				},
				{
					"input":54,
					"interpolation":"LINEAR",
					"output":58
				},
				{
					"input":56,
					"interpolation":"STEP",
					"output":11
				},
				{
					"input":56,
					"interpolation":"STEP",
					"output":16
				},
				{
					"input":56,
					"interpolation":"STEP",
					"output":17
				},
				{
					"input":56,
					"interpolation":"STEP",
					"output":11
				},
				{
					"input":56,
					"interpolation":"STEP",
					"output":18
				},
				{
					"input":54,
					"interpolation":"LINEAR",
					"output":59
				},
				{
					"input":56,
					"interpolation":"STEP",
					"output":20
				},
				{
					"input":56,
					"interpolation":"STEP",
					"output":60
				},
				{
					"input":56,
					"interpolation":"STEP",
					"output":61
				},
				{
					"input":56,
					"interpolation":"STEP",
					"output":23
				},
				{
					"input":56,
					"interpolation":"STEP",
					"output":24
				},
				{
					"input":54,
					"interpolation":"LINEAR",
					"output":62
				},
				{
					"input":56,
					"interpolation":"STEP",
					"output":63
				},
				{
					"input":56,
					"interpolation":"STEP",
					"output":64
				},
				{
					"input":56,
					"interpolation":"STEP",
					"output":65
				},
				{
					"input":56,
					"interpolation":"STEP",
					"output":66
				},
				{
					"input":56,
					"interpolation":"STEP",
					"output":67
				},
				{
					"input":56,
					"interpolation":"STEP",
					"output":68
				},
				{
					"input":56,
					"interpolation":"STEP",
					"output":26
				},
				{
					"input":56,
					"interpolation":"STEP",
					"output":33
				},
				{
					"input":56,
					"interpolation":"STEP",
					"output":69
				},
				{
					"input":56,
					"interpolation":"STEP",
					"output":63
				},
				{
					"input":56,
					"interpolation":"STEP",
					"output":70
				},
				{
					"input":56,
					"interpolation":"STEP",
					"output":71
				},
				{
					"input":56,
					"interpolation":"STEP",
					"output":66
				},
				{
					"input":56,
					"interpolation":"STEP",
					"output":72
				},
				{
					"input":56,
					"interpolation":"STEP",
					"output":73
				},
				{
					"input":56,
					"interpolation":"STEP",
					"output":26
				},
				{
					"input":56,
					"interpolation":"STEP",
					"output":39
				},
				{
					"input":56,
					"interpolation":"STEP",
					"output":74
				},
				{
					"input":56,
					"interpolation":"STEP",
					"output":41
				},
				{
					"input":56,
					"interpolation":"STEP",
					"output":42
				},
				{
					"input":56,
					"interpolation":"STEP",
					"output":75
				},
				{
					"input":56,
					"interpolation":"STEP",
					"output":44
				},
				{
					"input":56,
					"interpolation":"STEP",
					"output":45
				},
				{
					"input":56,
					"interpolation":"STEP",
					"output":46
				},
				{
					"input":56,
					"interpolation":"STEP",
					"output":47
				},
				{
					"input":56,
					"interpolation":"STEP",
					"output":48
				},
				{
					"input":56,
					"interpolation":"STEP",
					"output":76
				},
				{
					"input":56,
					"interpolation":"STEP",
					"output":41
				},
				{
					"input":56,
					"interpolation":"STEP",
					"output":50
				},
				{
					"input":56,
					"interpolation":"STEP",
					"output":77
				},
				{
					"input":56,
					"interpolation":"STEP",
					"output":44
				},
				{
					"input":56,
					"interpolation":"STEP",
					"output":52
				},
				{
					"input":56,
					"interpolation":"STEP",
					"output":53
				},
				{
					"input":56,
					"interpolation":"STEP",
					"output":47
				}
			]
		},
		{
			"channels":[
				{
					"sampler":0,
					"target":{
						"node":17,
						"path":"translation"
					}
				},
				{
					"sampler":1,
					"target":{
						"node":17,
						"path":"rotation"
					}
				},
				{
					"sampler":2,
					"target":{
						"node":17,
						"path":"scale"
					}
				},
				{
					"sampler":3,
					"target":{
						"node":10,
						"path":"translation"
					}
				},
				{
					"sampler":4,
					"target":{
						"node":10,
						"path":"rotation"
					}
				},
				{
					"sampler":5,
					"target":{
						"node":10,
						"path":"scale"
					}
				},
				{
					"sampler":6,
					"target":{
						"node":9,
						"path":"translation"
					}
				},
				{
					"sampler":7,
					"target":{
						"node":9,
						"path":"rotation"
					}
				},
				{
					"sampler":8,
					"target":{
						"node":9,
						"path":"scale"
					}
				},
				{
					"sampler":9,
					"target":{
						"node":2,
						"path":"translation"
					}
				},
				{
					"sampler":10,
					"target":{
						"node":2,
						"path":"rotation"
					}
				},
				{
					"sampler":11,
					"target":{
						"node":2,
						"path":"scale"
					}
				},
				{
					"sampler":12,
					"target":{
						"node":1,
						"path":"translation"
					}
				},
				{
					"sampler":13,
					"target":{
						"node":1,
						"path":"rotation"
					}
				},
				{
					"sampler":14,
					"target":{
						"node":1,
						"path":"scale"
					}
				},
				{
					"sampler":15,
					"target":{
						"node":0,
						"path":"translation"
					}
				},
				{
					"sampler":16,
					"target":{
						"node":0,
						"path":"rotation"
					}
				},
				{
					"sampler":17,
					"target":{
						"node":0,
						"path":"scale"
					}
				},
				{
					"sampler":18,
					"target":{
						"node":5,
						"path":"translation"
					}
				},
				{
					"sampler":19,
					"target":{
						"node":5,
						"path":"rotation"
					}
				},
				{
					"sampler":20,
					"target":{
						"node":5,
						"path":"scale"
					}
				},
				{
					"sampler":21,
					"target":{
						"node":4,
						"path":"translation"
					}
				},
				{
					"sampler":22,
					"target":{
						"node":4,
						"path":"rotation"
					}
				},
				{
					"sampler":23,
					"target":{
						"node":4,
						"path":"scale"
					}
				},
				{
					"sampler":24,
					"target":{
						"node":3,
						"path":"translation"
					}
				},
				{
					"sampler":25,
					"target":{
						"node":3,
						"path":"rotation"
					}
				},
				{
					"sampler":26,
					"target":{
						"node":3,
						"path":"scale"
					}
				},
				{
					"sampler":27,
					"target":{
						"node":8,
						"path":"translation"
					}
				},
				{
					"sampler":28,
					"target":{
						"node":8,
						"path":"rotation"
					}
				},
				{
					"sampler":29,
					"target":{
						"node":8,
						"path":"scale"
					}
				},
				{
					"sampler":30,
					"target":{
						"node":7,
						"path":"translation"
					}
				},
				{
					"sampler":31,
					"target":{
						"node":7,
						"path":"rotation"
					}
				},
				{
					"sampler":32,
					"target":{
						"node":7,
						"path":"scale"
					}
				},
				{
					"sampler":33,
					"target":{
						"node":6,
						"path":"translation"
					}
				},
				{
					"sampler":34,
					"target":{
						"node":6,
						"path":"rotation"
					}
				},
				{
					"sampler":35,
					"target":{
						"node":6,
						"path":"scale"
					}
				},
				{
					"sampler":36,
					"target":{
						"node":13,
						"path":"translation"
					}
				},
				{
					"sampler":37,
					"target":{
						"node":13,
						"path":"rotation"
					}
				},
				{
					"sampler":38,
					"target":{
						"node":13,
						"path":"scale"
					}
				},
				{
					"sampler":39,
					"target":{
						"node":12,
						"path":"translation"
					}
				},
				{
					"sampler":40,
					"target":{
						"node":12,
						"path":"rotation"
					}
				},
				{
					"sampler":41,
					"target":{
						"node":12,
						"path":"scale"
					}
				},
				{
					"sampler":42,
					"target":{
						"node":11,
						"path":"translation"
					}
				},
				{
					"sampler":43,
					"target":{
						"node":11,
						"path":"rotation"
					}
				},
				{
					"sampler":44,
					"target":{
						"node":11,
						"path":"scale"
					}
				},
				{
					"sampler":45,
					"target":{
						"node":16,
						"path":"translation"
					}
				},
				{
					"sampler":46,
					"target":{
						"node":16,
						"path":"rotation"
					}
				},
				{
					"sampler":47,
					"target":{
						"node":16,
						"path":"scale"
					}
				},
				{
					"sampler":48,
					"target":{
						"node":15,
						"path":"translation"
					}
				},
				{
					"sampler":49,
					"target":{
						"node":15,
						"path":"rotation"
					}
				},
				{
					"sampler":50,
					"target":{
						"node":15,
						"path":"scale"
					}
				},
				{
					"sampler":51,
					"target":{
						"node":14,
						"path":"translation"
					}
				},
				{
					"sampler":52,
					"target":{
						"node":14,
						"path":"rotation"
					}
				},
				{
					"sampler":53,
					"target":{
						"node":14,
						"path":"scale"
					}
				}
			],
			"name":"Laufen",
			"samplers":[
				{
					"input":78,
					"interpolation":"LINEAR",
					"output":79
				},
				{
					"input":78,
					"interpolation":"LINEAR",
					"output":80
				},
				{
					"input":81,
					"interpolation":"STEP",
					"output":11
				},
				{
					"input":81,
					"interpolation":"STEP",
					"output":12
				},
				{
					"input":81,
					"interpolation":"STEP",
					"output":82
				},
				{
					"input":81,
					"interpolation":"STEP",
					"output":11
				},
				{
					"input":81,
					"interpolation":"STEP",
					"output":83
				},
				{
					"input":78,
					"interpolation":"LINEAR",
					"output":84
				},
				{
					"input":81,
					"interpolation":"STEP",
					"output":85
				},
				{
					"input":81,
					"interpolation":"STEP",
					"output":86
				},
				{
					"input":81,
					"interpolation":"STEP",
					"output":87
				},
				{
					"input":81,
					"interpolation":"STEP",
					"output":88
				},
				{
					"input":81,
					"interpolation":"STEP",
					"output":89
				},
				{
					"input":78,
					"interpolation":"LINEAR",
					"output":90
				},
				{
					"input":81,
					"interpolation":"STEP",
					"output":91
				},
				{
					"input":81,
					"interpolation":"STEP",
					"output":92
				},
				{
					"input":78,
					"interpolation":"LINEAR",
					"output":93
				},
				{
					"input":81,
					"interpolation":"STEP",
					"output":23
				},
				{
					"input":81,
					"interpolation":"STEP",
					"output":94
				},
				{
					"input":78,
					"interpolation":"LINEAR",
					"output":95
				},
				{
					"input":81,
					"interpolation":"STEP",
					"output":32
				},
				{
					"input":81,
					"interpolation":"STEP",
					"output":96
				},
				{
					"input":81,
					"interpolation":"STEP",
					"output":97
				},
				{
					"input":81,
					"interpolation":"STEP",
					"output":98
				},
				{
					"input":81,
					"interpolation":"STEP",
					"output":99
				},
				{
					"input":81,
					"interpolation":"STEP",
					"output":100
				},
				{
					"input":81,
					"interpolation":"STEP",
					"output":101
				},
				{
					"input":81,
					"interpolation":"STEP",
					"output":102
				},
				{
					"input":78,
					"interpolation":"LINEAR",
					"output":103
				},
				{
					"input":81,
					"interpolation":"STEP",
					"output":32
				},
				{
					"input":81,
					"interpolation":"STEP",
					"output":104
				},
				{
					"input":81,
					"interpolation":"STEP",
					"output":105
				},
				{
					"input":81,
					"interpolation":"STEP",
					"output":98
				},
				{
					"input":81,
					"interpolation":"STEP",
					"output":106
				},
				{
					"input":81,
					"interpolation":"STEP",
					"output":107
				},
				{
					"input":81,
					"interpolation":"STEP",
					"output":101
				},
				{
					"input":81,
					"interpolation":"STEP",
					"output":108
				},
				{
					"input":78,
					"interpolation":"LINEAR",
					"output":109
				},
				{
					"input":81,
					"interpolation":"STEP",
					"output":41
				},
				{
					"input":81,
					"interpolation":"STEP",
					"output":110
				},
				{
					"input":78,
					"interpolation":"LINEAR",
					"output":111
				},
				{
					"input":81,
					"interpolation":"STEP",
					"output":44
				},
				{
					"input":81,
					"interpolation":"STEP",
					"output":112
				},
				{
					"input":78,
					"interpolation":"LINEAR",
					"output":113
				},
				{
					"input":81,
					"interpolation":"STEP",
					"output":114
				},
				{
					"input":81,
					"interpolation":"STEP",
					"output":115
				},
				{
					"input":78,
					"interpolation":"LINEAR",
					"output":116
				},
				{
					"input":81,
					"interpolation":"STEP",
					"output":41
				},
				{
					"input":81,
					"interpolation":"STEP",
					"output":117
				},
				{
					"input":78,
					"interpolation":"LINEAR",
					"output":118
				},
				{
					"input":81,
					"interpolation":"STEP",
					"output":119
				},
				{
					"input":81,
					"interpolation":"STEP",
					"output":120
				},
				{
					"input":78,
					"interpolation":"LINEAR",
					"output":121
				},
				{
					"input":81,
					"interpolation":"STEP",
					"output":11
				}
			]
		}
	],
	"materials":[
		{
			"doubleSided":true,
			"name":"Waldschrat",
			"pbrMetallicRoughness":{
				"metallicFactor":0,
				"roughnessFactor":0.8500000238418579
			}
		}
	],
	"meshes":[
		{
			"name":"Rinde",
			"primitives":[
				{
					"attributes":{
						"POSITION":0,
						"NORMAL":1,
						"COLOR_0":2,
						"JOINTS_0":3,
						"WEIGHTS_0":4
					},
					"indices":5,
					"material":0
				}
			]
		}
	],
	"skins":[
		{
			"inverseBindMatrices":6,
			"joints":[
				17,
				10,
				9,
				2,
				1,
				0,
				5,
				4,
				3,
				8,
				7,
				6,
				13,
				12,
				11,
				16,
				15,
				14
			],
			"name":"WaldschratSkelett"
		}
	],
	"accessors":[
		{
			"bufferView":0,
			"componentType":5126,
			"count":17723,
			"max":[
				0.9566066265106201,
				3.338310480117798,
				0.42496976256370544
			],
			"min":[
				-1.01714289188385,
				-0.021408678963780403,
				-0.8986584544181824
			],
			"type":"VEC3"
		},
		{
			"bufferView":1,
			"componentType":5126,
			"count":17723,
			"type":"VEC3"
		},
		{
			"bufferView":2,
			"componentType":5126,
			"count":17723,
			"type":"VEC3"
		},
		{
			"bufferView":3,
			"componentType":5121,
			"count":17723,
			"type":"VEC4"
		},
		{
			"bufferView":4,
			"componentType":5126,
			"count":17723,
			"type":"VEC4"
		},
		{
			"bufferView":5,
			"componentType":5123,
			"count":84882,
			"type":"SCALAR"
		},
		{
			"bufferView":6,
			"componentType":5126,
			"count":18,
			"type":"MAT4"
		},
		{
			"bufferView":7,
			"componentType":5126,
			"count":37,
			"max":[
				1.2
			],
			"min":[
				0
			],
			"type":"SCALAR"
		},
		{
			"bufferView":8,
			"componentType":5126,
			"count":37,
			"type":"VEC3"
		},
		{
			"bufferView":9,
			"componentType":5126,
			"count":2,
			"max":[
				1.2
			],
			"min":[
				0
			],
			"type":"SCALAR"
		},
		{
			"bufferView":10,
			"componentType":5126,
			"count":2,
			"type":"VEC4"
		},
		{
			"bufferView":11,
			"componentType":5126,
			"count":2,
			"type":"VEC3"
		},
		{
			"bufferView":12,
			"componentType":5126,
			"count":2,
			"type":"VEC3"
		},
		{
			"bufferView":13,
			"componentType":5126,
			"count":37,
			"type":"VEC4"
		},
		{
			"bufferView":14,
			"componentType":5126,
			"count":2,
			"type":"VEC3"
		},
		{
			"bufferView":15,
			"componentType":5126,
			"count":37,
			"type":"VEC4"
		},
		{
			"bufferView":16,
			"componentType":5126,
			"count":2,
			"type":"VEC3"
		},
		{
			"bufferView":17,
			"componentType":5126,
			"count":2,
			"type":"VEC4"
		},
		{
			"bufferView":18,
			"componentType":5126,
			"count":2,
			"type":"VEC3"
		},
		{
			"bufferView":19,
			"componentType":5126,
			"count":37,
			"type":"VEC4"
		},
		{
			"bufferView":20,
			"componentType":5126,
			"count":2,
			"type":"VEC3"
		},
		{
			"bufferView":21,
			"componentType":5126,
			"count":2,
			"type":"VEC3"
		},
		{
			"bufferView":22,
			"componentType":5126,
			"count":2,
			"type":"VEC4"
		},
		{
			"bufferView":23,
			"componentType":5126,
			"count":2,
			"type":"VEC3"
		},
		{
			"bufferView":24,
			"componentType":5126,
			"count":2,
			"type":"VEC3"
		},
		{
			"bufferView":25,
			"componentType":5126,
			"count":37,
			"type":"VEC4"
		},
		{
			"bufferView":26,
			"componentType":5126,
			"count":2,
			"type":"VEC3"
		},
		{
			"bufferView":27,
			"componentType":5126,
			"count":2,
			"type":"VEC3"
		},
		{
			"bufferView":28,
			"componentType":5126,
			"count":37,
			"type":"VEC4"
		},
		{
			"bufferView":29,
			"componentType":5126,
			"count":2,
			"type":"VEC3"
		},
		{
			"bufferView":30,
			"componentType":5126,
			"count":2,
			"type":"VEC3"
		},
		{
			"bufferView":31,
			"componentType":5126,
			"count":2,
			"type":"VEC4"
		},
		{
			"bufferView":32,
			"componentType":5126,
			"count":2,
			"type":"VEC3"
		},
		{
			"bufferView":33,
			"componentType":5126,
			"count":2,
			"type":"VEC3"
		},
		{
			"bufferView":34,
			"componentType":5126,
			"count":37,
			"type":"VEC4"
		},
		{
			"bufferView":35,
			"componentType":5126,
			"count":2,
			"type":"VEC3"
		},
		{
			"bufferView":36,
			"componentType":5126,
			"count":37,
			"type":"VEC4"
		},
		{
			"bufferView":37,
			"componentType":5126,
			"count":2,
			"type":"VEC3"
		},
		{
			"bufferView":38,
			"componentType":5126,
			"count":2,
			"type":"VEC4"
		},
		{
			"bufferView":39,
			"componentType":5126,
			"count":2,
			"type":"VEC3"
		},
		{
			"bufferView":40,
			"componentType":5126,
			"count":37,
			"type":"VEC4"
		},
		{
			"bufferView":41,
			"componentType":5126,
			"count":2,
			"type":"VEC3"
		},
		{
			"bufferView":42,
			"componentType":5126,
			"count":2,
			"type":"VEC3"
		},
		{
			"bufferView":43,
			"componentType":5126,
			"count":37,
			"type":"VEC4"
		},
		{
			"bufferView":44,
			"componentType":5126,
			"count":2,
			"type":"VEC3"
		},
		{
			"bufferView":45,
			"componentType":5126,
			"count":2,
			"type":"VEC3"
		},
		{
			"bufferView":46,
			"componentType":5126,
			"count":2,
			"type":"VEC4"
		},
		{
			"bufferView":47,
			"componentType":5126,
			"count":2,
			"type":"VEC3"
		},
		{
			"bufferView":48,
			"componentType":5126,
			"count":2,
			"type":"VEC3"
		},
		{
			"bufferView":49,
			"componentType":5126,
			"count":37,
			"type":"VEC4"
		},
		{
			"bufferView":50,
			"componentType":5126,
			"count":2,
			"type":"VEC3"
		},
		{
			"bufferView":51,
			"componentType":5126,
			"count":37,
			"type":"VEC4"
		},
		{
			"bufferView":52,
			"componentType":5126,
			"count":2,
			"type":"VEC3"
		},
		{
			"bufferView":53,
			"componentType":5126,
			"count":2,
			"type":"VEC4"
		},
		{
			"bufferView":54,
			"componentType":5126,
			"count":181,
			"max":[
				6
			],
			"min":[
				0
			],
			"type":"SCALAR"
		},
		{
			"bufferView":55,
			"componentType":5126,
			"count":181,
			"type":"VEC3"
		},
		{
			"bufferView":56,
			"componentType":5126,
			"count":2,
			"max":[
				6
			],
			"min":[
				0
			],
			"type":"SCALAR"
		},
		{
			"bufferView":57,
			"componentType":5126,
			"count":181,
			"type":"VEC4"
		},
		{
			"bufferView":58,
			"componentType":5126,
			"count":181,
			"type":"VEC4"
		},
		{
			"bufferView":59,
			"componentType":5126,
			"count":181,
			"type":"VEC4"
		},
		{
			"bufferView":60,
			"componentType":5126,
			"count":2,
			"type":"VEC3"
		},
		{
			"bufferView":61,
			"componentType":5126,
			"count":2,
			"type":"VEC4"
		},
		{
			"bufferView":62,
			"componentType":5126,
			"count":181,
			"type":"VEC4"
		},
		{
			"bufferView":63,
			"componentType":5126,
			"count":2,
			"type":"VEC3"
		},
		{
			"bufferView":64,
			"componentType":5126,
			"count":2,
			"type":"VEC3"
		},
		{
			"bufferView":65,
			"componentType":5126,
			"count":2,
			"type":"VEC4"
		},
		{
			"bufferView":66,
			"componentType":5126,
			"count":2,
			"type":"VEC3"
		},
		{
			"bufferView":67,
			"componentType":5126,
			"count":2,
			"type":"VEC3"
		},
		{
			"bufferView":68,
			"componentType":5126,
			"count":2,
			"type":"VEC4"
		},
		{
			"bufferView":69,
			"componentType":5126,
			"count":2,
			"type":"VEC4"
		},
		{
			"bufferView":70,
			"componentType":5126,
			"count":2,
			"type":"VEC3"
		},
		{
			"bufferView":71,
			"componentType":5126,
			"count":2,
			"type":"VEC4"
		},
		{
			"bufferView":72,
			"componentType":5126,
			"count":2,
			"type":"VEC3"
		},
		{
			"bufferView":73,
			"componentType":5126,
			"count":2,
			"type":"VEC4"
		},
		{
			"bufferView":74,
			"componentType":5126,
			"count":2,
			"type":"VEC4"
		},
		{
			"bufferView":75,
			"componentType":5126,
			"count":2,
			"type":"VEC4"
		},
		{
			"bufferView":76,
			"componentType":5126,
			"count":2,
			"type":"VEC4"
		},
		{
			"bufferView":77,
			"componentType":5126,
			"count":2,
			"type":"VEC4"
		},
		{
			"bufferView":78,
			"componentType":5126,
			"count":31,
			"max":[
				1
			],
			"min":[
				0
			],
			"type":"SCALAR"
		},
		{
			"bufferView":79,
			"componentType":5126,
			"count":31,
			"type":"VEC3"
		},
		{
			"bufferView":80,
			"componentType":5126,
			"count":31,
			"type":"VEC4"
		},
		{
			"bufferView":81,
			"componentType":5126,
			"count":2,
			"max":[
				1
			],
			"min":[
				0
			],
			"type":"SCALAR"
		},
		{
			"bufferView":82,
			"componentType":5126,
			"count":2,
			"type":"VEC4"
		},
		{
			"bufferView":83,
			"componentType":5126,
			"count":2,
			"type":"VEC3"
		},
		{
			"bufferView":84,
			"componentType":5126,
			"count":31,
			"type":"VEC4"
		},
		{
			"bufferView":85,
			"componentType":5126,
			"count":2,
			"type":"VEC3"
		},
		{
			"bufferView":86,
			"componentType":5126,
			"count":2,
			"type":"VEC3"
		},
		{
			"bufferView":87,
			"componentType":5126,
			"count":2,
			"type":"VEC4"
		},
		{
			"bufferView":88,
			"componentType":5126,
			"count":2,
			"type":"VEC3"
		},
		{
			"bufferView":89,
			"componentType":5126,
			"count":2,
			"type":"VEC3"
		},
		{
			"bufferView":90,
			"componentType":5126,
			"count":31,
			"type":"VEC4"
		},
		{
			"bufferView":91,
			"componentType":5126,
			"count":2,
			"type":"VEC3"
		},
		{
			"bufferView":92,
			"componentType":5126,
			"count":2,
			"type":"VEC3"
		},
		{
			"bufferView":93,
			"componentType":5126,
			"count":31,
			"type":"VEC4"
		},
		{
			"bufferView":94,
			"componentType":5126,
			"count":2,
			"type":"VEC3"
		},
		{
			"bufferView":95,
			"componentType":5126,
			"count":31,
			"type":"VEC4"
		},
		{
			"bufferView":96,
			"componentType":5126,
			"count":2,
			"type":"VEC3"
		},
		{
			"bufferView":97,
			"componentType":5126,
			"count":2,
			"type":"VEC4"
		},
		{
			"bufferView":98,
			"componentType":5126,
			"count":2,
			"type":"VEC3"
		},
		{
			"bufferView":99,
			"componentType":5126,
			"count":2,
			"type":"VEC3"
		},
		{
			"bufferView":100,
			"componentType":5126,
			"count":2,
			"type":"VEC4"
		},
		{
			"bufferView":101,
			"componentType":5126,
			"count":2,
			"type":"VEC3"
		},
		{
			"bufferView":102,
			"componentType":5126,
			"count":2,
			"type":"VEC3"
		},
		{
			"bufferView":103,
			"componentType":5126,
			"count":31,
			"type":"VEC4"
		},
		{
			"bufferView":104,
			"componentType":5126,
			"count":2,
			"type":"VEC3"
		},
		{
			"bufferView":105,
			"componentType":5126,
			"count":2,
			"type":"VEC4"
		},
		{
			"bufferView":106,
			"componentType":5126,
			"count":2,
			"type":"VEC3"
		},
		{
			"bufferView":107,
			"componentType":5126,
			"count":2,
			"type":"VEC4"
		},
		{
			"bufferView":108,
			"componentType":5126,
			"count":2,
			"type":"VEC3"
		},
		{
			"bufferView":109,
			"componentType":5126,
			"count":31,
			"type":"VEC4"
		},
		{
			"bufferView":110,
			"componentType":5126,
			"count":2,
			"type":"VEC3"
		},
		{
			"bufferView":111,
			"componentType":5126,
			"count":31,
			"type":"VEC4"
		},
		{
			"bufferView":112,
			"componentType":5126,
			"count":2,
			"type":"VEC3"
		},
		{
			"bufferView":113,
			"componentType":5126,
			"count":31,
			"type":"VEC4"
		},
		{
			"bufferView":114,
			"componentType":5126,
			"count":2,
			"type":"VEC3"
		},
		{
			"bufferView":115,
			"componentType":5126,
			"count":2,
			"type":"VEC3"
		},
		{
			"bufferView":116,
			"componentType":5126,
			"count":31,
			"type":"VEC4"
		},
		{
			"bufferView":117,
			"componentType":5126,
			"count":2,
			"type":"VEC3"
		},
		{
			"bufferView":118,
			"componentType":5126,
			"count":31,
			"type":"VEC4"
		},
		{
			"bufferView":119,
			"componentType":5126,
			"count":2,
			"type":"VEC3"
		},
		{
			"bufferView":120,
			"componentType":5126,
			"count":2,
			"type":"VEC3"
		},
		{
			"bufferView":121,
			"componentType":5126,
			"count":31,
			"type":"VEC4"
		}
	],
	"bufferViews":[
		{
			"buffer":0,
			"byteLength":212676,
			"byteOffset":0,
			"target":34962
		},
		{
			"buffer":0,
			"byteLength":212676,
			"byteOffset":212676,
			"target":34962
		},
		{
			"buffer":0,
			"byteLength":212676,
			"byteOffset":425352,
			"target":34962
		},
		{
			"buffer":0,
			"byteLength":70892,
			"byteOffset":638028,
			"target":34962
		},
		{
			"buffer":0,
			"byteLength":283568,
			"byteOffset":708920,
			"target":34962
		},
		{
			"buffer":0,
			"byteLength":169764,
			"byteOffset":992488,
			"target":34963
		},
		{
			"buffer":0,
			"byteLength":1152,
			"byteOffset":1162252
		},
		{
			"buffer":0,
			"byteLength":148,
			"byteOffset":1163404
		},
		{
			"buffer":0,
			"byteLength":444,
			"byteOffset":1163552
		},
		{
			"buffer":0,
			"byteLength":8,
			"byteOffset":1163996
		},
		{
			"buffer":0,
			"byteLength":32,
			"byteOffset":1164004
		},
		{
			"buffer":0,
			"byteLength":24,
			"byteOffset":1164036
		},
		{
			"buffer":0,
			"byteLength":24,
			"byteOffset":1164060
		},
		{
			"buffer":0,
			"byteLength":592,
			"byteOffset":1164084
		},
		{
			"buffer":0,
			"byteLength":24,
			"byteOffset":1164676
		},
		{
			"buffer":0,
			"byteLength":592,
			"byteOffset":1164700
		},
		{
			"buffer":0,
			"byteLength":24,
			"byteOffset":1165292
		},
		{
			"buffer":0,
			"byteLength":32,
			"byteOffset":1165316
		},
		{
			"buffer":0,
			"byteLength":24,
			"byteOffset":1165348
		},
		{
			"buffer":0,
			"byteLength":592,
			"byteOffset":1165372
		},
		{
			"buffer":0,
			"byteLength":24,
			"byteOffset":1165964
		},
		{
			"buffer":0,
			"byteLength":24,
			"byteOffset":1165988
		},
		{
			"buffer":0,
			"byteLength":32,
			"byteOffset":1166012
		},
		{
			"buffer":0,
			"byteLength":24,
			"byteOffset":1166044
		},
		{
			"buffer":0,
			"byteLength":24,
			"byteOffset":1166068
		},
		{
			"buffer":0,
			"byteLength":592,
			"byteOffset":1166092
		},
		{
			"buffer":0,
			"byteLength":24,
			"byteOffset":1166684
		},
		{
			"buffer":0,
			"byteLength":24,
			"byteOffset":1166708
		},
		{
			"buffer":0,
			"byteLength":592,
			"byteOffset":1166732
		},
		{
			"buffer":0,
			"byteLength":24,
			"byteOffset":1167324
		},
		{
			"buffer":0,
			"byteLength":24,
			"byteOffset":1167348
		},
		{
			"buffer":0,
			"byteLength":32,
			"byteOffset":1167372
		},
		{
			"buffer":0,
			"byteLength":24,
			"byteOffset":1167404
		},
		{
			"buffer":0,
			"byteLength":24,
			"byteOffset":1167428
		},
		{
			"buffer":0,
			"byteLength":592,
			"byteOffset":1167452
		},
		{
			"buffer":0,
			"byteLength":24,
			"byteOffset":1168044
		},
		{
			"buffer":0,
			"byteLength":592,
			"byteOffset":1168068
		},
		{
			"buffer":0,
			"byteLength":24,
			"byteOffset":1168660
		},
		{
			"buffer":0,
			"byteLength":32,
			"byteOffset":1168684
		},
		{
			"buffer":0,
			"byteLength":24,
			"byteOffset":1168716
		},
		{
			"buffer":0,
			"byteLength":592,
			"byteOffset":1168740
		},
		{
			"buffer":0,
			"byteLength":24,
			"byteOffset":1169332
		},
		{
			"buffer":0,
			"byteLength":24,
			"byteOffset":1169356
		},
		{
			"buffer":0,
			"byteLength":592,
			"byteOffset":1169380
		},
		{
			"buffer":0,
			"byteLength":24,
			"byteOffset":1169972
		},
		{
			"buffer":0,
			"byteLength":24,
			"byteOffset":1169996
		},
		{
			"buffer":0,
			"byteLength":32,
			"byteOffset":1170020
		},
		{
			"buffer":0,
			"byteLength":24,
			"byteOffset":1170052
		},
		{
			"buffer":0,
			"byteLength":24,
			"byteOffset":1170076
		},
		{
			"buffer":0,
			"byteLength":592,
			"byteOffset":1170100
		},
		{
			"buffer":0,
			"byteLength":24,
			"byteOffset":1170692
		},
		{
			"buffer":0,
			"byteLength":592,
			"byteOffset":1170716
		},
		{
			"buffer":0,
			"byteLength":24,
			"byteOffset":1171308
		},
		{
			"buffer":0,
			"byteLength":32,
			"byteOffset":1171332
		},
		{
			"buffer":0,
			"byteLength":724,
			"byteOffset":1171364
		},
		{
			"buffer":0,
			"byteLength":2172,
			"byteOffset":1172088
		},
		{
			"buffer":0,
			"byteLength":8,
			"byteOffset":1174260
		},
		{
			"buffer":0,
			"byteLength":2896,
			"byteOffset":1174268
		},
		{
			"buffer":0,
			"byteLength":2896,
			"byteOffset":1177164
		},
		{
			"buffer":0,
			"byteLength":2896,
			"byteOffset":1180060
		},
		{
			"buffer":0,
			"byteLength":24,
			"byteOffset":1182956
		},
		{
			"buffer":0,
			"byteLength":32,
			"byteOffset":1182980
		},
		{
			"buffer":0,
			"byteLength":2896,
			"byteOffset":1183012
		},
		{
			"buffer":0,
			"byteLength":24,
			"byteOffset":1185908
		},
		{
			"buffer":0,
			"byteLength":24,
			"byteOffset":1185932
		},
		{
			"buffer":0,
			"byteLength":32,
			"byteOffset":1185956
		},
		{
			"buffer":0,
			"byteLength":24,
			"byteOffset":1185988
		},
		{
			"buffer":0,
			"byteLength":24,
			"byteOffset":1186012
		},
		{
			"buffer":0,
			"byteLength":32,
			"byteOffset":1186036
		},
		{
			"buffer":0,
			"byteLength":32,
			"byteOffset":1186068
		},
		{
			"buffer":0,
			"byteLength":24,
			"byteOffset":1186100
		},
		{
			"buffer":0,
			"byteLength":32,
			"byteOffset":1186124
		},
		{
			"buffer":0,
			"byteLength":24,
			"byteOffset":1186156
		},
		{
			"buffer":0,
			"byteLength":32,
			"byteOffset":1186180
		},
		{
			"buffer":0,
			"byteLength":32,
			"byteOffset":1186212
		},
		{
			"buffer":0,
			"byteLength":32,
			"byteOffset":1186244
		},
		{
			"buffer":0,
			"byteLength":32,
			"byteOffset":1186276
		},
		{
			"buffer":0,
			"byteLength":32,
			"byteOffset":1186308
		},
		{
			"buffer":0,
			"byteLength":124,
			"byteOffset":1186340
		},
		{
			"buffer":0,
			"byteLength":372,
			"byteOffset":1186464
		},
		{
			"buffer":0,
			"byteLength":496,
			"byteOffset":1186836
		},
		{
			"buffer":0,
			"byteLength":8,
			"byteOffset":1187332
		},
		{
			"buffer":0,
			"byteLength":32,
			"byteOffset":1187340
		},
		{
			"buffer":0,
			"byteLength":24,
			"byteOffset":1187372
		},
		{
			"buffer":0,
			"byteLength":496,
			"byteOffset":1187396
		},
		{
			"buffer":0,
			"byteLength":24,
			"byteOffset":1187892
		},
		{
			"buffer":0,
			"byteLength":24,
			"byteOffset":1187916
		},
		{
			"buffer":0,
			"byteLength":32,
			"byteOffset":1187940
		},
		{
			"buffer":0,
			"byteLength":24,
			"byteOffset":1187972
		},
		{
			"buffer":0,
			"byteLength":24,
			"byteOffset":1187996
		},
		{
			"buffer":0,
			"byteLength":496,
			"byteOffset":1188020
		},
		{
			"buffer":0,
			"byteLength":24,
			"byteOffset":1188516
		},
		{
			"buffer":0,
			"byteLength":24,
			"byteOffset":1188540
		},
		{
			"buffer":0,
			"byteLength":496,
			"byteOffset":1188564
		},
		{
			"buffer":0,
			"byteLength":24,
			"byteOffset":1189060
		},
		{
			"buffer":0,
			"byteLength":496,
			"byteOffset":1189084
		},
		{
			"buffer":0,
			"byteLength":24,
			"byteOffset":1189580
		},
		{
			"buffer":0,
			"byteLength":32,
			"byteOffset":1189604
		},
		{
			"buffer":0,
			"byteLength":24,
			"byteOffset":1189636
		},
		{
			"buffer":0,
			"byteLength":24,
			"byteOffset":1189660
		},
		{
			"buffer":0,
			"byteLength":32,
			"byteOffset":1189684
		},
		{
			"buffer":0,
			"byteLength":24,
			"byteOffset":1189716
		},
		{
			"buffer":0,
			"byteLength":24,
			"byteOffset":1189740
		},
		{
			"buffer":0,
			"byteLength":496,
			"byteOffset":1189764
		},
		{
			"buffer":0,
			"byteLength":24,
			"byteOffset":1190260
		},
		{
			"buffer":0,
			"byteLength":32,
			"byteOffset":1190284
		},
		{
			"buffer":0,
			"byteLength":24,
			"byteOffset":1190316
		},
		{
			"buffer":0,
			"byteLength":32,
			"byteOffset":1190340
		},
		{
			"buffer":0,
			"byteLength":24,
			"byteOffset":1190372
		},
		{
			"buffer":0,
			"byteLength":496,
			"byteOffset":1190396
		},
		{
			"buffer":0,
			"byteLength":24,
			"byteOffset":1190892
		},
		{
			"buffer":0,
			"byteLength":496,
			"byteOffset":1190916
		},
		{
			"buffer":0,
			"byteLength":24,
			"byteOffset":1191412
		},
		{
			"buffer":0,
			"byteLength":496,
			"byteOffset":1191436
		},
		{
			"buffer":0,
			"byteLength":24,
			"byteOffset":1191932
		},
		{
			"buffer":0,
			"byteLength":24,
			"byteOffset":1191956
		},
		{
			"buffer":0,
			"byteLength":496,
			"byteOffset":1191980
		},
		{
			"buffer":0,
			"byteLength":24,
			"byteOffset":1192476
		},
		{
			"buffer":0,
			"byteLength":496,
			"byteOffset":1192500
		},
		{
			"buffer":0,
			"byteLength":24,
			"byteOffset":1192996
		},
		{
			"buffer":0,
			"byteLength":24,
			"byteOffset":1193020
		},
		{
			"buffer":0,
			"byteLength":496,
			"byteOffset":1193044
		}
	],
	"buffers":[
		{
			"byteLength":1193540,
			"uri":"waldschrat.bin"
		}
	]
}
