{
	"asset":{
		"generator":"Khronos glTF Blender I/O v5.2.40",
		"version":"2.0"
	},
	"scene":0,
	"scenes":[
		{
			"name":"Scene",
			"nodes":[
				0
			]
		}
	],
	"nodes":[
		{
			"mesh":0,
			"name":"Baumstumpf"
		}
	],
	"materials":[
		{
			"alphaMode":"MASK",
			"doubleSided":true,
			"name":"Baum",
			"pbrMetallicRoughness":{
				"baseColorTexture":{
					"index":0
				},
				"metallicFactor":0,
				"roughnessFactor":0.8500000238418579
			}
		}
	],
	"meshes":[
		{
			"name":"Baumstumpf",
			"primitives":[
				{
					"attributes":{
						"POSITION":0,
						"NORMAL":1,
						"TEXCOORD_0":2,
						"COLOR_0":3
					},
					"indices":4,
					"material":0
				}
			]
		}
	],
	"textures":[
		{
			"sampler":0,
			"source":0
		}
	],
	"images":[
		{
			"mimeType":"image/png",
			"name":"Laub_Textur",
			"uri":"Laub_Textur.png"
		}
	],
	"accessors":[
		{
			"bufferView":0,
			"componentType":5126,
			"count":1145,
			"max":[
				0.747550368309021,
				0.7030542492866516,
				0.6992326378822327
			],
			"min":[
				-0.8116273283958435,
				0,
				-0.712469756603241
			],
			"type":"VEC3"
		},
		{
			"bufferView":1,
			"componentType":5126,
			"count":1145,
			"type":"VEC3"
		},
		{
			"bufferView":2,
			"componentType":5126,
			"count":1145,
			"type":"VEC2"
		},
		{
			"bufferView":3,
			"componentType":5126,
			"count":1145,
			"type":"VEC3"
		},
		{
			"bufferView":4,
			"componentType":5123,
			"count":1809,
			"type":"SCALAR"
		}
	],
	"bufferViews":[
		{
			"buffer":0,
			"byteLength":13740,
			"byteOffset":0,
			"target":34962
		},
		{
			"buffer":0,
			"byteLength":13740,
			"byteOffset":13740,
			"target":34962
		},
		{
			"buffer":0,
			"byteLength":9160,
			"byteOffset":27480,
			"target":34962
		},
		{
			"buffer":0,
			"byteLength":13740,
			"byteOffset":36640,
			"target":34962
		},
		{
			"buffer":0,
			"byteLength":3618,
			"byteOffset":50380,
			"target":34963
		}
	],
	"samplers":[
		{
			"magFilter":9729,
			"minFilter":9987
		}
	],
	"buffers":[
		{
			"byteLength":54000,
			"uri":"baumstumpf_1.bin"
		}
	]
}
