{
	"asset":{
		"generator":"Khronos glTF Blender I/O v5.2.40",
		"version":"2.0"
	},
	"scene":0,
	"scenes":[
		{
			"name":"Scene",
			"nodes":[
				0
			]
		}
	],
	"nodes":[
		{
			"mesh":0,
			"name":"Baumstamm"
		}
	],
	"materials":[
		{
			"alphaMode":"MASK",
			"doubleSided":true,
			"name":"Baum",
			"pbrMetallicRoughness":{
				"baseColorTexture":{
					"index":0
				},
				"metallicFactor":0,
				"roughnessFactor":0.8500000238418579
			}
		}
	],
	"meshes":[
		{
			"name":"Baumstamm",
			"primitives":[
				{
					"attributes":{
						"POSITION":0,
						"NORMAL":1,
						"TEXCOORD_0":2,
						"COLOR_0":3
					},
					"indices":4,
					"material":0
				}
			]
		}
	],
	"textures":[
		{
			"sampler":0,
			"source":0
		}
	],
	"images":[
		{
			"mimeType":"image/png",
			"name":"Laub_Textur",
			"uri":"Laub_Textur.png"
		}
	],
	"accessors":[
		{
			"bufferView":0,
			"componentType":5126,
			"count":2398,
			"max":[
				2.2852511405944824,
				1.2397037744522095,
				1.0611653327941895
			],
			"min":[
				-2.4325528144836426,
				0,
				-0.9665569067001343
			],
			"type":"VEC3"
		},
		{
			"bufferView":1,
			"componentType":5126,
			"count":2398,
			"type":"VEC3"
		},
		{
			"bufferView":2,
			"componentType":5126,
			"count":2398,
			"type":"VEC2"
		},
		{
			"bufferView":3,
			"componentType":5126,
			"count":2398,
			"type":"VEC3"
		},
		{
			"bufferView":4,
			"componentType":5123,
			"count":3564,
			"type":"SCALAR"
		}
	],
	"bufferViews":[
		{
			"buffer":0,
			"byteLength":28776,
			"byteOffset":0,
			"target":34962
		},
		{
			"buffer":0,
			"byteLength":28776,
			"byteOffset":28776,
			"target":34962
		},
		{
			"buffer":0,
			"byteLength":19184,
			"byteOffset":57552,
			"target":34962
		},
		{
			"buffer":0,
			"byteLength":28776,
			"byteOffset":76736,
			"target":34962
		},
		{
			"buffer":0,
			"byteLength":7128,
			"byteOffset":105512,
			"target":34963
		}
	],
	"samplers":[
		{
			"magFilter":9729,
			"minFilter":9987
		}
	],
	"buffers":[
		{
			"byteLength":112640,
			"uri":"baumstamm_2.bin"
		}
	]
}
