{
	"asset":{
		"generator":"Khronos glTF Blender I/O v5.2.40",
		"version":"2.0"
	},
	"scene":0,
	"scenes":[
		{
			"name":"Scene",
			"nodes":[
				0
			]
		}
	],
	"nodes":[
		{
			"mesh":0,
			"name":"Birke"
		}
	],
	"materials":[
		{
			"alphaMode":"MASK",
			"doubleSided":true,
			"name":"Baum",
			"pbrMetallicRoughness":{
				"baseColorTexture":{
					"index":0
				},
				"metallicFactor":0,
				"roughnessFactor":0.8500000238418579
			}
		}
	],
	"meshes":[
		{
			"name":"Birke",
			"primitives":[
				{
					"attributes":{
						"POSITION":0,
						"NORMAL":1,
						"TEXCOORD_0":2,
						"COLOR_0":3
					},
					"indices":4,
					"material":0
				}
			]
		}
	],
	"textures":[
		{
			"sampler":0,
			"source":0
		}
	],
	"images":[
		{
			"mimeType":"image/png",
			"name":"Laub_Textur",
			"uri":"Laub_Textur.png"
		}
	],
	"accessors":[
		{
			"bufferView":0,
			"componentType":5126,
			"count":9057,
			"max":[
				3.061708688735962,
				10.66177749633789,
				1.9613213539123535
			],
			"min":[
				-2.7233152389526367,
				0,
				-2.2804527282714844
			],
			"type":"VEC3"
		},
		{
			"bufferView":1,
			"componentType":5126,
			"count":9057,
			"type":"VEC3"
		},
		{
			"bufferView":2,
			"componentType":5126,
			"count":9057,
			"type":"VEC2"
		},
		{
			"bufferView":3,
			"componentType":5126,
			"count":9057,
			"type":"VEC3"
		},
		{
			"bufferView":4,
			"componentType":5123,
			"count":13818,
			"type":"SCALAR"
		}
	],
	"bufferViews":[
		{
			"buffer":0,
			"byteLength":108684,
			"byteOffset":0,
			"target":34962
		},
		{
			"buffer":0,
			"byteLength":108684,
			"byteOffset":108684,
			"target":34962
		},
		{
			"buffer":0,
			"byteLength":72456,
			"byteOffset":217368,
			"target":34962
		},
		{
			"buffer":0,
			"byteLength":108684,
			"byteOffset":289824,
			"target":34962
		},
		{
			"buffer":0,
			"byteLength":27636,
			"byteOffset":398508,
			"target":34963
		}
	],
	"samplers":[
		{
			"magFilter":9729,
			"minFilter":9987
		}
	],
	"buffers":[
		{
			"byteLength":426144,
			"uri":"birke_1.bin"
		}
	]
}
