{
	"asset":{
		"generator":"Khronos glTF Blender I/O v5.2.40",
		"version":"2.0"
	},
	"scene":0,
	"scenes":[
		{
			"name":"Scene",
			"nodes":[
				0
			]
		}
	],
	"nodes":[
		{
			"mesh":0,
			"name":"Birke"
		}
	],
	"materials":[
		{
			"alphaMode":"MASK",
			"doubleSided":true,
			"name":"Baum",
			"pbrMetallicRoughness":{
				"baseColorTexture":{
					"index":0
				},
				"metallicFactor":0,
				"roughnessFactor":0.8500000238418579
			}
		}
	],
	"meshes":[
		{
			"name":"Birke",
			"primitives":[
				{
					"attributes":{
						"POSITION":0,
						"NORMAL":1,
						"TEXCOORD_0":2,
						"COLOR_0":3
					},
					"indices":4,
					"material":0
				}
			]
		}
	],
	"textures":[
		{
			"sampler":0,
			"source":0
		}
	],
	"images":[
		{
			"mimeType":"image/png",
			"name":"Laub_Textur",
			"uri":"Laub_Textur.png"
		}
	],
	"accessors":[
		{
			"bufferView":0,
			"componentType":5126,
			"count":2550,
			"max":[
				1.1150360107421875,
				9.76124382019043,
				1.908753514289856
			],
			"min":[
				-2.528644323348999,
				0,
				-1.9339230060577393
			],
			"type":"VEC3"
		},
		{
			"bufferView":1,
			"componentType":5126,
			"count":2550,
			"type":"VEC3"
		},
		{
			"bufferView":2,
			"componentType":5126,
			"count":2550,
			"type":"VEC2"
		},
		{
			"bufferView":3,
			"componentType":5126,
			"count":2550,
			"type":"VEC3"
		},
		{
			"bufferView":4,
			"componentType":5123,
			"count":3996,
			"type":"SCALAR"
		}
	],
	"bufferViews":[
		{
			"buffer":0,
			"byteLength":30600,
			"byteOffset":0,
			"target":34962
		},
		{
			"buffer":0,
			"byteLength":30600,
			"byteOffset":30600,
			"target":34962
		},
		{
			"buffer":0,
			"byteLength":20400,
			"byteOffset":61200,
			"target":34962
		},
		{
			"buffer":0,
			"byteLength":30600,
			"byteOffset":81600,
			"target":34962
		},
		{
			"buffer":0,
			"byteLength":7992,
			"byteOffset":112200,
			"target":34963
		}
	],
	"samplers":[
		{
			"magFilter":9729,
			"minFilter":9987
		}
	],
	"buffers":[
		{
			"byteLength":120192,
			"uri":"birke_2.bin"
		}
	]
}
