{
	"asset":{
		"generator":"Khronos glTF Blender I/O v5.2.40",
		"version":"2.0"
	},
	"scene":0,
	"scenes":[
		{
			"name":"Scene",
			"nodes":[
				0
			]
		}
	],
	"nodes":[
		{
			"mesh":0,
			"name":"Birke"
		}
	],
	"materials":[
		{
			"alphaMode":"MASK",
			"doubleSided":true,
			"name":"Baum",
			"pbrMetallicRoughness":{
				"baseColorTexture":{
					"index":0
				},
				"metallicFactor":0,
				"roughnessFactor":0.8500000238418579
			}
		}
	],
	"meshes":[
		{
			"name":"Birke",
			"primitives":[
				{
					"attributes":{
						"POSITION":0,
						"NORMAL":1,
						"TEXCOORD_0":2,
						"COLOR_0":3
					},
					"indices":4,
					"material":0
				}
			]
		}
	],
	"textures":[
		{
			"sampler":0,
			"source":0
		}
	],
	"images":[
		{
			"mimeType":"image/png",
			"name":"Laub_Textur",
			"uri":"Laub_Textur.png"
		}
	],
	"accessors":[
		{
			"bufferView":0,
			"componentType":5126,
			"count":4006,
			"max":[
				2.548834800720215,
				11.564377784729004,
				2.5172791481018066
			],
			"min":[
				-2.2455968856811523,
				0,
				-2.395770311355591
			],
			"type":"VEC3"
		},
		{
			"bufferView":1,
			"componentType":5126,
			"count":4006,
			"type":"VEC3"
		},
		{
			"bufferView":2,
			"componentType":5126,
			"count":4006,
			"type":"VEC2"
		},
		{
			"bufferView":3,
			"componentType":5126,
			"count":4006,
			"type":"VEC3"
		},
		{
			"bufferView":4,
			"componentType":5123,
			"count":6258,
			"type":"SCALAR"
		}
	],
	"bufferViews":[
		{
			"buffer":0,
			"byteLength":48072,
			"byteOffset":0,
			"target":34962
		},
		{
			"buffer":0,
			"byteLength":48072,
			"byteOffset":48072,
			"target":34962
		},
		{
			"buffer":0,
			"byteLength":32048,
			"byteOffset":96144,
			"target":34962
		},
		{
			"buffer":0,
			"byteLength":48072,
			"byteOffset":128192,
			"target":34962
		},
		{
			"buffer":0,
			"byteLength":12516,
			"byteOffset":176264,
			"target":34963
		}
	],
	"samplers":[
		{
			"magFilter":9729,
			"minFilter":9987
		}
	],
	"buffers":[
		{
			"byteLength":188780,
			"uri":"birke_3.bin"
		}
	]
}
