{
	"asset":{
		"generator":"Khronos glTF Blender I/O v5.2.40",
		"version":"2.0"
	},
	"scene":0,
	"scenes":[
		{
			"name":"Scene",
			"nodes":[
				0
			]
		}
	],
	"nodes":[
		{
			"mesh":0,
			"name":"Busch"
		}
	],
	"materials":[
		{
			"alphaMode":"MASK",
			"doubleSided":true,
			"name":"Baum",
			"pbrMetallicRoughness":{
				"baseColorTexture":{
					"index":0
				},
				"metallicFactor":0,
				"roughnessFactor":0.8500000238418579
			}
		}
	],
	"meshes":[
		{
			"name":"Busch",
			"primitives":[
				{
					"attributes":{
						"POSITION":0,
						"NORMAL":1,
						"TEXCOORD_0":2,
						"COLOR_0":3
					},
					"indices":4,
					"material":0
				}
			]
		}
	],
	"textures":[
		{
			"sampler":0,
			"source":0
		}
	],
	"images":[
		{
			"mimeType":"image/png",
			"name":"Laub_Textur",
			"uri":"Laub_Textur.png"
		}
	],
	"accessors":[
		{
			"bufferView":0,
			"componentType":5126,
			"count":860,
			"max":[
				1.1490850448608398,
				1.4830957651138306,
				1.1489272117614746
			],
			"min":[
				-1.2070376873016357,
				0,
				-1.0051896572113037
			],
			"type":"VEC3"
		},
		{
			"bufferView":1,
			"componentType":5126,
			"count":860,
			"type":"VEC3"
		},
		{
			"bufferView":2,
			"componentType":5126,
			"count":860,
			"type":"VEC2"
		},
		{
			"bufferView":3,
			"componentType":5126,
			"count":860,
			"type":"VEC3"
		},
		{
			"bufferView":4,
			"componentType":5123,
			"count":1428,
			"type":"SCALAR"
		}
	],
	"bufferViews":[
		{
			"buffer":0,
			"byteLength":10320,
			"byteOffset":0,
			"target":34962
		},
		{
			"buffer":0,
			"byteLength":10320,
			"byteOffset":10320,
			"target":34962
		},
		{
			"buffer":0,
			"byteLength":6880,
			"byteOffset":20640,
			"target":34962
		},
		{
			"buffer":0,
			"byteLength":10320,
			"byteOffset":27520,
			"target":34962
		},
		{
			"buffer":0,
			"byteLength":2856,
			"byteOffset":37840,
			"target":34963
		}
	],
	"samplers":[
		{
			"magFilter":9729,
			"minFilter":9987
		}
	],
	"buffers":[
		{
			"byteLength":40696,
			"uri":"busch_3.bin"
		}
	]
}
