{
	"asset":{
		"generator":"Khronos glTF Blender I/O v5.2.40",
		"version":"2.0"
	},
	"scene":0,
	"scenes":[
		{
			"name":"Scene",
			"nodes":[
				0
			]
		}
	],
	"nodes":[
		{
			"mesh":0,
			"name":"Busch"
		}
	],
	"materials":[
		{
			"alphaMode":"MASK",
			"doubleSided":true,
			"name":"Baum",
			"pbrMetallicRoughness":{
				"baseColorTexture":{
					"index":0
				},
				"metallicFactor":0,
				"roughnessFactor":0.8500000238418579
			}
		}
	],
	"meshes":[
		{
			"name":"Busch",
			"primitives":[
				{
					"attributes":{
						"POSITION":0,
						"NORMAL":1,
						"TEXCOORD_0":2,
						"COLOR_0":3
					},
					"indices":4,
					"material":0
				}
			]
		}
	],
	"textures":[
		{
			"sampler":0,
			"source":0
		}
	],
	"images":[
		{
			"mimeType":"image/png",
			"name":"Laub_Textur",
			"uri":"Laub_Textur.png"
		}
	],
	"accessors":[
		{
			"bufferView":0,
			"componentType":5126,
			"count":593,
			"max":[
				0.8648505210876465,
				1.3708711862564087,
				0.6175128817558289
			],
			"min":[
				-1.0514869689941406,
				0,
				-1.1564806699752808
			],
			"type":"VEC3"
		},
		{
			"bufferView":1,
			"componentType":5126,
			"count":593,
			"type":"VEC3"
		},
		{
			"bufferView":2,
			"componentType":5126,
			"count":593,
			"type":"VEC2"
		},
		{
			"bufferView":3,
			"componentType":5126,
			"count":593,
			"type":"VEC3"
		},
		{
			"bufferView":4,
			"componentType":5123,
			"count":993,
			"type":"SCALAR"
		}
	],
	"bufferViews":[
		{
			"buffer":0,
			"byteLength":7116,
			"byteOffset":0,
			"target":34962
		},
		{
			"buffer":0,
			"byteLength":7116,
			"byteOffset":7116,
			"target":34962
		},
		{
			"buffer":0,
			"byteLength":4744,
			"byteOffset":14232,
			"target":34962
		},
		{
			"buffer":0,
			"byteLength":7116,
			"byteOffset":18976,
			"target":34962
		},
		{
			"buffer":0,
			"byteLength":1986,
			"byteOffset":26092,
			"target":34963
		}
	],
	"samplers":[
		{
			"magFilter":9729,
			"minFilter":9987
		}
	],
	"buffers":[
		{
			"byteLength":28080,
			"uri":"busch_1.bin"
		}
	]
}
