{
	"asset":{
		"generator":"Khronos glTF Blender I/O v5.2.40",
		"version":"2.0"
	},
	"scene":0,
	"scenes":[
		{
			"name":"Scene",
			"nodes":[
				0
			]
		}
	],
	"nodes":[
		{
			"mesh":0,
			"name":"Busch"
		}
	],
	"materials":[
		{
			"alphaMode":"MASK",
			"doubleSided":true,
			"name":"Baum",
			"pbrMetallicRoughness":{
				"baseColorTexture":{
					"index":0
				},
				"metallicFactor":0,
				"roughnessFactor":0.8500000238418579
			}
		}
	],
	"meshes":[
		{
			"name":"Busch",
			"primitives":[
				{
					"attributes":{
						"POSITION":0,
						"NORMAL":1,
						"TEXCOORD_0":2,
						"COLOR_0":3
					},
					"indices":4,
					"material":0
				}
			]
		}
	],
	"textures":[
		{
			"sampler":0,
			"source":0
		}
	],
	"images":[
		{
			"mimeType":"image/png",
			"name":"Laub_Textur",
			"uri":"Laub_Textur.png"
		}
	],
	"accessors":[
		{
			"bufferView":0,
			"componentType":5126,
			"count":633,
			"max":[
				1.0955805778503418,
				1.3986759185791016,
				0.760100781917572
			],
			"min":[
				-0.9707062244415283,
				0,
				-0.9180121421813965
			],
			"type":"VEC3"
		},
		{
			"bufferView":1,
			"componentType":5126,
			"count":633,
			"type":"VEC3"
		},
		{
			"bufferView":2,
			"componentType":5126,
			"count":633,
			"type":"VEC2"
		},
		{
			"bufferView":3,
			"componentType":5126,
			"count":633,
			"type":"VEC3"
		},
		{
			"bufferView":4,
			"componentType":5123,
			"count":1053,
			"type":"SCALAR"
		}
	],
	"bufferViews":[
		{
			"buffer":0,
			"byteLength":7596,
			"byteOffset":0,
			"target":34962
		},
		{
			"buffer":0,
			"byteLength":7596,
			"byteOffset":7596,
			"target":34962
		},
		{
			"buffer":0,
			"byteLength":5064,
			"byteOffset":15192,
			"target":34962
		},
		{
			"buffer":0,
			"byteLength":7596,
			"byteOffset":20256,
			"target":34962
		},
		{
			"buffer":0,
			"byteLength":2106,
			"byteOffset":27852,
			"target":34963
		}
	],
	"samplers":[
		{
			"magFilter":9729,
			"minFilter":9987
		}
	],
	"buffers":[
		{
			"byteLength":29960,
			"uri":"busch_2.bin"
		}
	]
}
