{
	"asset":{
		"generator":"Khronos glTF Blender I/O v5.2.40",
		"version":"2.0"
	},
	"scene":0,
	"scenes":[
		{
			"name":"Scene",
			"nodes":[
				0
			]
		}
	],
	"nodes":[
		{
			"mesh":0,
			"name":"Efeu"
		}
	],
	"materials":[
		{
			"alphaMode":"MASK",
			"doubleSided":true,
			"name":"Baum",
			"pbrMetallicRoughness":{
				"baseColorTexture":{
					"index":0
				},
				"metallicFactor":0,
				"roughnessFactor":0.8500000238418579
			}
		}
	],
	"meshes":[
		{
			"name":"Efeu",
			"primitives":[
				{
					"attributes":{
						"POSITION":0,
						"NORMAL":1,
						"TEXCOORD_0":2,
						"COLOR_0":3
					},
					"indices":4,
					"material":0
				}
			]
		}
	],
	"textures":[
		{
			"sampler":0,
			"source":0
		}
	],
	"images":[
		{
			"mimeType":"image/png",
			"name":"Laub_Textur",
			"uri":"Laub_Textur.png"
		}
	],
	"accessors":[
		{
			"bufferView":0,
			"componentType":5126,
			"count":412,
			"max":[
				1.74025297164917,
				2.609607458114624,
				0.14958646893501282
			],
			"min":[
				-1.8813592195510864,
				0,
				0.020598173141479492
			],
			"type":"VEC3"
		},
		{
			"bufferView":1,
			"componentType":5126,
			"count":412,
			"type":"VEC3"
		},
		{
			"bufferView":2,
			"componentType":5126,
			"count":412,
			"type":"VEC2"
		},
		{
			"bufferView":3,
			"componentType":5126,
			"count":412,
			"type":"VEC3"
		},
		{
			"bufferView":4,
			"componentType":5123,
			"count":618,
			"type":"SCALAR"
		}
	],
	"bufferViews":[
		{
			"buffer":0,
			"byteLength":4944,
			"byteOffset":0,
			"target":34962
		},
		{
			"buffer":0,
			"byteLength":4944,
			"byteOffset":4944,
			"target":34962
		},
		{
			"buffer":0,
			"byteLength":3296,
			"byteOffset":9888,
			"target":34962
		},
		{
			"buffer":0,
			"byteLength":4944,
			"byteOffset":13184,
			"target":34962
		},
		{
			"buffer":0,
			"byteLength":1236,
			"byteOffset":18128,
			"target":34963
		}
	],
	"samplers":[
		{
			"magFilter":9729,
			"minFilter":9987
		}
	],
	"buffers":[
		{
			"byteLength":19364,
			"uri":"efeu.bin"
		}
	]
}
