{
	"asset":{
		"generator":"Khronos glTF Blender I/O v5.2.40",
		"version":"2.0"
	},
	"scene":0,
	"scenes":[
		{
			"name":"Scene",
			"nodes":[
				0
			]
		}
	],
	"nodes":[
		{
			"mesh":0,
			"name":"Eiche"
		}
	],
	"materials":[
		{
			"name":"df_rinde",
			"pbrMetallicRoughness":{
				"baseColorFactor":[
					0.0423114113509655,
					0.02955683507025242,
					0.023153366521000862,
					1
				],
				"metallicFactor":0,
				"roughnessFactor":0.8999999761581421
			}
		},
		{
			"name":"df_rinde_hell",
			"pbrMetallicRoughness":{
				"baseColorFactor":[
					0.10461648553609848,
					0.07227185368537903,
					0.05126945674419403,
					1
				],
				"metallicFactor":0,
				"roughnessFactor":0.8999999761581421
			}
		},
		{
			"name":"df_laub_dunkel",
			"pbrMetallicRoughness":{
				"baseColorFactor":[
					0.013702083379030228,
					0.03560131415724754,
					0.01599629409611225,
					1
				],
				"metallicFactor":0,
				"roughnessFactor":0.8999999761581421
			}
		},
		{
			"name":"df_laub",
			"pbrMetallicRoughness":{
				"baseColorFactor":[
					0.02518685907125473,
					0.06301001459360123,
					0.023153366521000862,
					1
				],
				"metallicFactor":0,
				"roughnessFactor":0.8999999761581421
			}
		},
		{
			"name":"df_laub_oliv",
			"pbrMetallicRoughness":{
				"baseColorFactor":[
					0.061246052384376526,
					0.08228270709514618,
					0.026241222396492958,
					1
				],
				"metallicFactor":0,
				"roughnessFactor":0.8999999761581421
			}
		},
		{
			"name":"df_laub_welk",
			"pbrMetallicRoughness":{
				"baseColorFactor":[
					0.1119324266910553,
					0.08437620848417282,
					0.02955683507025242,
					1
				],
				"metallicFactor":0,
				"roughnessFactor":0.8999999761581421
			}
		},
		{
			"doubleSided":true,
			"name":"df_flechte",
			"pbrMetallicRoughness":{
				"baseColorFactor":[
					0.18116424977779388,
					0.22322796285152435,
					0.1441284716129303,
					1
				],
				"metallicFactor":0,
				"roughnessFactor":0.8999999761581421
			}
		}
	],
	"meshes":[
		{
			"name":"Eiche",
			"primitives":[
				{
					"attributes":{
						"POSITION":0,
						"NORMAL":1
					},
					"indices":2,
					"material":0
				},
				{
					"attributes":{
						"POSITION":3,
						"NORMAL":4
					},
					"indices":5,
					"material":1
				},
				{
					"attributes":{
						"POSITION":6,
						"NORMAL":7
					},
					"indices":8,
					"material":2
				},
				{
					"attributes":{
						"POSITION":9,
						"NORMAL":10
					},
					"indices":11,
					"material":3
				},
				{
					"attributes":{
						"POSITION":12,
						"NORMAL":13
					},
					"indices":14,
					"material":4
				},
				{
					"attributes":{
						"POSITION":15,
						"NORMAL":16
					},
					"indices":17,
					"material":5
				},
				{
					"attributes":{
						"POSITION":18,
						"NORMAL":19
					},
					"indices":20,
					"material":6
				}
			]
		}
	],
	"accessors":[
		{
			"bufferView":0,
			"componentType":5126,
			"count":2664,
			"max":[
				2.4519309997558594,
				5.926027774810791,
				3.735257625579834
			],
			"min":[
				-2.727794885635376,
				0,
				-3.3940579891204834
			],
			"type":"VEC3"
		},
		{
			"bufferView":1,
			"componentType":5126,
			"count":2664,
			"type":"VEC3"
		},
		{
			"bufferView":2,
			"componentType":5123,
			"count":3900,
			"type":"SCALAR"
		},
		{
			"bufferView":3,
			"componentType":5126,
			"count":60,
			"max":[
				1.5028722286224365,
				5.489320278167725,
				2.6941325664520264
			],
			"min":[
				1.2365550994873047,
				4.571420192718506,
				1.7053248882293701
			],
			"type":"VEC3"
		},
		{
			"bufferView":4,
			"componentType":5126,
			"count":60,
			"type":"VEC3"
		},
		{
			"bufferView":5,
			"componentType":5123,
			"count":84,
			"type":"SCALAR"
		},
		{
			"bufferView":6,
			"componentType":5126,
			"count":1735,
			"max":[
				3.1553375720977783,
				6.563662528991699,
				4.427052021026611
			],
			"min":[
				-3.3657262325286865,
				3.036262035369873,
				-4.212168216705322
			],
			"type":"VEC3"
		},
		{
			"bufferView":7,
			"componentType":5126,
			"count":1735,
			"type":"VEC3"
		},
		{
			"bufferView":8,
			"componentType":5123,
			"count":1737,
			"type":"SCALAR"
		},
		{
			"bufferView":9,
			"componentType":5126,
			"count":1737,
			"max":[
				3.1553375720977783,
				6.563662528991699,
				4.427052021026611
			],
			"min":[
				-3.3657262325286865,
				3.036262035369873,
				-4.305251598358154
			],
			"type":"VEC3"
		},
		{
			"bufferView":10,
			"componentType":5126,
			"count":1737,
			"type":"VEC3"
		},
		{
			"bufferView":11,
			"componentType":5123,
			"count":1737,
			"type":"SCALAR"
		},
		{
			"bufferView":12,
			"componentType":5126,
			"count":1863,
			"max":[
				2.9549639225006104,
				6.563662528991699,
				4.427052021026611
			],
			"min":[
				-3.3657262325286865,
				3.036262035369873,
				-4.305251598358154
			],
			"type":"VEC3"
		},
		{
			"bufferView":13,
			"componentType":5126,
			"count":1863,
			"type":"VEC3"
		},
		{
			"bufferView":14,
			"componentType":5123,
			"count":1863,
			"type":"SCALAR"
		},
		{
			"bufferView":15,
			"componentType":5126,
			"count":183,
			"max":[
				1.4767141342163086,
				6.118731498718262,
				0.692642867565155
			],
			"min":[
				-3.3657262325286865,
				3.1526038646698,
				-4.111155033111572
			],
			"type":"VEC3"
		},
		{
			"bufferView":16,
			"componentType":5126,
			"count":183,
			"type":"VEC3"
		},
		{
			"bufferView":17,
			"componentType":5123,
			"count":183,
			"type":"SCALAR"
		},
		{
			"bufferView":18,
			"componentType":5126,
			"count":108,
			"max":[
				2.0720717906951904,
				5.294977188110352,
				2.453361988067627
			],
			"min":[
				-0.9316872954368591,
				2.2117152214050293,
				-1.5250756740570068
			],
			"type":"VEC3"
		},
		{
			"bufferView":19,
			"componentType":5126,
			"count":108,
			"type":"VEC3"
		},
		{
			"bufferView":20,
			"componentType":5123,
			"count":162,
			"type":"SCALAR"
		}
	],
	"bufferViews":[
		{
			"buffer":0,
			"byteLength":31968,
			"byteOffset":0,
			"target":34962
		},
		{
			"buffer":0,
			"byteLength":31968,
			"byteOffset":31968,
			"target":34962
		},
		{
			"buffer":0,
			"byteLength":7800,
			"byteOffset":63936,
			"target":34963
		},
		{
			"buffer":0,
			"byteLength":720,
			"byteOffset":71736,
			"target":34962
		},
		{
			"buffer":0,
			"byteLength":720,
			"byteOffset":72456,
			"target":34962
		},
		{
			"buffer":0,
			"byteLength":168,
			"byteOffset":73176,
			"target":34963
		},
		{
			"buffer":0,
			"byteLength":20820,
			"byteOffset":73344,
			"target":34962
		},
		{
			"buffer":0,
			"byteLength":20820,
			"byteOffset":94164,
			"target":34962
		},
		{
			"buffer":0,
			"byteLength":3474,
			"byteOffset":114984,
			"target":34963
		},
		{
			"buffer":0,
			"byteLength":20844,
			"byteOffset":118460,
			"target":34962
		},
		{
			"buffer":0,
			"byteLength":20844,
			"byteOffset":139304,
			"target":34962
		},
		{
			"buffer":0,
			"byteLength":3474,
			"byteOffset":160148,
			"target":34963
		},
		{
			"buffer":0,
			"byteLength":22356,
			"byteOffset":163624,
			"target":34962
		},
		{
			"buffer":0,
			"byteLength":22356,
			"byteOffset":185980,
			"target":34962
		},
		{
			"buffer":0,
			"byteLength":3726,
			"byteOffset":208336,
			"target":34963
		},
		{
			"buffer":0,
			"byteLength":2196,
			"byteOffset":212064,
			"target":34962
		},
		{
			"buffer":0,
			"byteLength":2196,
			"byteOffset":214260,
			"target":34962
		},
		{
			"buffer":0,
			"byteLength":366,
			"byteOffset":216456,
			"target":34963
		},
		{
			"buffer":0,
			"byteLength":1296,
			"byteOffset":216824,
			"target":34962
		},
		{
			"buffer":0,
			"byteLength":1296,
			"byteOffset":218120,
			"target":34962
		},
		{
			"buffer":0,
			"byteLength":324,
			"byteOffset":219416,
			"target":34963
		}
	],
	"buffers":[
		{
			"byteLength":219740,
			"uri":"eiche_1.bin"
		}
	]
}
