{
	"asset":{
		"generator":"Khronos glTF Blender I/O v5.2.40",
		"version":"2.0"
	},
	"scene":0,
	"scenes":[
		{
			"name":"Scene",
			"nodes":[
				0
			]
		}
	],
	"nodes":[
		{
			"mesh":0,
			"name":"Eiche"
		}
	],
	"materials":[
		{
			"alphaMode":"MASK",
			"doubleSided":true,
			"name":"Baum",
			"pbrMetallicRoughness":{
				"baseColorTexture":{
					"index":0
				},
				"metallicFactor":0,
				"roughnessFactor":0.8500000238418579
			}
		}
	],
	"meshes":[
		{
			"name":"Eiche",
			"primitives":[
				{
					"attributes":{
						"POSITION":0,
						"NORMAL":1,
						"TEXCOORD_0":2,
						"COLOR_0":3
					},
					"indices":4,
					"material":0
				}
			]
		}
	],
	"textures":[
		{
			"sampler":0,
			"source":0
		}
	],
	"images":[
		{
			"mimeType":"image/png",
			"name":"Laub_Textur",
			"uri":"Laub_Textur.png"
		}
	],
	"accessors":[
		{
			"bufferView":0,
			"componentType":5126,
			"count":8501,
			"max":[
				5.69878625869751,
				9.97166633605957,
				4.350720405578613
			],
			"min":[
				-5.911873817443848,
				0,
				-5.675390243530273
			],
			"type":"VEC3"
		},
		{
			"bufferView":1,
			"componentType":5126,
			"count":8501,
			"type":"VEC3"
		},
		{
			"bufferView":2,
			"componentType":5126,
			"count":8501,
			"type":"VEC2"
		},
		{
			"bufferView":3,
			"componentType":5126,
			"count":8501,
			"type":"VEC3"
		},
		{
			"bufferView":4,
			"componentType":5123,
			"count":13227,
			"type":"SCALAR"
		}
	],
	"bufferViews":[
		{
			"buffer":0,
			"byteLength":102012,
			"byteOffset":0,
			"target":34962
		},
		{
			"buffer":0,
			"byteLength":102012,
			"byteOffset":102012,
			"target":34962
		},
		{
			"buffer":0,
			"byteLength":68008,
			"byteOffset":204024,
			"target":34962
		},
		{
			"buffer":0,
			"byteLength":102012,
			"byteOffset":272032,
			"target":34962
		},
		{
			"buffer":0,
			"byteLength":26454,
			"byteOffset":374044,
			"target":34963
		}
	],
	"samplers":[
		{
			"magFilter":9729,
			"minFilter":9987
		}
	],
	"buffers":[
		{
			"byteLength":400500,
			"uri":"eiche_5.bin"
		}
	]
}
