{
	"asset":{
		"generator":"Khronos glTF Blender I/O v5.2.40",
		"version":"2.0"
	},
	"scene":0,
	"scenes":[
		{
			"name":"Scene",
			"nodes":[
				0
			]
		}
	],
	"nodes":[
		{
			"mesh":0,
			"name":"Eiche"
		}
	],
	"materials":[
		{
			"name":"df_rinde",
			"pbrMetallicRoughness":{
				"baseColorFactor":[
					0.0423114113509655,
					0.02955683507025242,
					0.023153366521000862,
					1
				],
				"metallicFactor":0,
				"roughnessFactor":0.8999999761581421
			}
		},
		{
			"name":"df_rinde_hell",
			"pbrMetallicRoughness":{
				"baseColorFactor":[
					0.10461648553609848,
					0.07227185368537903,
					0.05126945674419403,
					1
				],
				"metallicFactor":0,
				"roughnessFactor":0.8999999761581421
			}
		},
		{
			"name":"df_laub_dunkel",
			"pbrMetallicRoughness":{
				"baseColorFactor":[
					0.013702083379030228,
					0.03560131415724754,
					0.01599629409611225,
					1
				],
				"metallicFactor":0,
				"roughnessFactor":0.8999999761581421
			}
		},
		{
			"name":"df_laub",
			"pbrMetallicRoughness":{
				"baseColorFactor":[
					0.02518685907125473,
					0.06301001459360123,
					0.023153366521000862,
					1
				],
				"metallicFactor":0,
				"roughnessFactor":0.8999999761581421
			}
		},
		{
			"name":"df_laub_oliv",
			"pbrMetallicRoughness":{
				"baseColorFactor":[
					0.061246052384376526,
					0.08228270709514618,
					0.026241222396492958,
					1
				],
				"metallicFactor":0,
				"roughnessFactor":0.8999999761581421
			}
		},
		{
			"name":"df_laub_welk",
			"pbrMetallicRoughness":{
				"baseColorFactor":[
					0.1119324266910553,
					0.08437620848417282,
					0.02955683507025242,
					1
				],
				"metallicFactor":0,
				"roughnessFactor":0.8999999761581421
			}
		},
		{
			"doubleSided":true,
			"name":"df_flechte",
			"pbrMetallicRoughness":{
				"baseColorFactor":[
					0.18116424977779388,
					0.22322796285152435,
					0.1441284716129303,
					1
				],
				"metallicFactor":0,
				"roughnessFactor":0.8999999761581421
			}
		}
	],
	"meshes":[
		{
			"name":"Eiche",
			"primitives":[
				{
					"attributes":{
						"POSITION":0,
						"NORMAL":1
					},
					"indices":2,
					"material":0
				},
				{
					"attributes":{
						"POSITION":3,
						"NORMAL":4
					},
					"indices":5,
					"material":1
				},
				{
					"attributes":{
						"POSITION":6,
						"NORMAL":7
					},
					"indices":8,
					"material":2
				},
				{
					"attributes":{
						"POSITION":9,
						"NORMAL":10
					},
					"indices":11,
					"material":3
				},
				{
					"attributes":{
						"POSITION":12,
						"NORMAL":13
					},
					"indices":14,
					"material":4
				},
				{
					"attributes":{
						"POSITION":15,
						"NORMAL":16
					},
					"indices":17,
					"material":5
				},
				{
					"attributes":{
						"POSITION":18,
						"NORMAL":19
					},
					"indices":20,
					"material":6
				}
			]
		}
	],
	"accessors":[
		{
			"bufferView":0,
			"componentType":5126,
			"count":2818,
			"max":[
				3.194506883621216,
				6.621650695800781,
				3.6902449131011963
			],
			"min":[
				-2.109853506088257,
				0,
				-2.5432770252227783
			],
			"type":"VEC3"
		},
		{
			"bufferView":1,
			"componentType":5126,
			"count":2818,
			"type":"VEC3"
		},
		{
			"bufferView":2,
			"componentType":5123,
			"count":4158,
			"type":"SCALAR"
		},
		{
			"bufferView":3,
			"componentType":5126,
			"count":480,
			"max":[
				2.795219898223877,
				6.316267967224121,
				1.4406417608261108
			],
			"min":[
				-2.863631010055542,
				3.44972825050354,
				-2.682521104812622
			],
			"type":"VEC3"
		},
		{
			"bufferView":4,
			"componentType":5126,
			"count":480,
			"type":"VEC3"
		},
		{
			"bufferView":5,
			"componentType":5123,
			"count":672,
			"type":"SCALAR"
		},
		{
			"bufferView":6,
			"componentType":5126,
			"count":1965,
			"max":[
				3.845999002456665,
				7.077373027801514,
				4.483673572540283
			],
			"min":[
				-2.4230339527130127,
				2.903517246246338,
				-3.2954750061035156
			],
			"type":"VEC3"
		},
		{
			"bufferView":7,
			"componentType":5126,
			"count":1965,
			"type":"VEC3"
		},
		{
			"bufferView":8,
			"componentType":5123,
			"count":1965,
			"type":"SCALAR"
		},
		{
			"bufferView":9,
			"componentType":5126,
			"count":1830,
			"max":[
				3.845999002456665,
				7.0507917404174805,
				4.483673572540283
			],
			"min":[
				-2.4230339527130127,
				2.903517246246338,
				-3.2954750061035156
			],
			"type":"VEC3"
		},
		{
			"bufferView":10,
			"componentType":5126,
			"count":1830,
			"type":"VEC3"
		},
		{
			"bufferView":11,
			"componentType":5123,
			"count":1830,
			"type":"SCALAR"
		},
		{
			"bufferView":12,
			"componentType":5126,
			"count":1836,
			"max":[
				3.845999002456665,
				7.077373027801514,
				4.483673572540283
			],
			"min":[
				-2.4230339527130127,
				2.903517246246338,
				-3.1488752365112305
			],
			"type":"VEC3"
		},
		{
			"bufferView":13,
			"componentType":5126,
			"count":1836,
			"type":"VEC3"
		},
		{
			"bufferView":14,
			"componentType":5123,
			"count":1836,
			"type":"SCALAR"
		},
		{
			"bufferView":15,
			"componentType":5126,
			"count":129,
			"max":[
				1.2954096794128418,
				6.530256271362305,
				4.483673572540283
			],
			"min":[
				-0.6731897592544556,
				3.159043312072754,
				-2.11629581451416
			],
			"type":"VEC3"
		},
		{
			"bufferView":16,
			"componentType":5126,
			"count":129,
			"type":"VEC3"
		},
		{
			"bufferView":17,
			"componentType":5123,
			"count":129,
			"type":"SCALAR"
		},
		{
			"bufferView":18,
			"componentType":5126,
			"count":72,
			"max":[
				1.4625450372695923,
				5.096712112426758,
				1.4700770378112793
			],
			"min":[
				-2.1080076694488525,
				3.0850818157196045,
				-1.7650865316390991
			],
			"type":"VEC3"
		},
		{
			"bufferView":19,
			"componentType":5126,
			"count":72,
			"type":"VEC3"
		},
		{
			"bufferView":20,
			"componentType":5123,
			"count":108,
			"type":"SCALAR"
		}
	],
	"bufferViews":[
		{
			"buffer":0,
			"byteLength":33816,
			"byteOffset":0,
			"target":34962
		},
		{
			"buffer":0,
			"byteLength":33816,
			"byteOffset":33816,
			"target":34962
		},
		{
			"buffer":0,
			"byteLength":8316,
			"byteOffset":67632,
			"target":34963
		},
		{
			"buffer":0,
			"byteLength":5760,
			"byteOffset":75948,
			"target":34962
		},
		{
			"buffer":0,
			"byteLength":5760,
			"byteOffset":81708,
			"target":34962
		},
		{
			"buffer":0,
			"byteLength":1344,
			"byteOffset":87468,
			"target":34963
		},
		{
			"buffer":0,
			"byteLength":23580,
			"byteOffset":88812,
			"target":34962
		},
		{
			"buffer":0,
			"byteLength":23580,
			"byteOffset":112392,
			"target":34962
		},
		{
			"buffer":0,
			"byteLength":3930,
			"byteOffset":135972,
			"target":34963
		},
		{
			"buffer":0,
			"byteLength":21960,
			"byteOffset":139904,
			"target":34962
		},
		{
			"buffer":0,
			"byteLength":21960,
			"byteOffset":161864,
			"target":34962
		},
		{
			"buffer":0,
			"byteLength":3660,
			"byteOffset":183824,
			"target":34963
		},
		{
			"buffer":0,
			"byteLength":22032,
			"byteOffset":187484,
			"target":34962
		},
		{
			"buffer":0,
			"byteLength":22032,
			"byteOffset":209516,
			"target":34962
		},
		{
			"buffer":0,
			"byteLength":3672,
			"byteOffset":231548,
			"target":34963
		},
		{
			"buffer":0,
			"byteLength":1548,
			"byteOffset":235220,
			"target":34962
		},
		{
			"buffer":0,
			"byteLength":1548,
			"byteOffset":236768,
			"target":34962
		},
		{
			"buffer":0,
			"byteLength":258,
			"byteOffset":238316,
			"target":34963
		},
		{
			"buffer":0,
			"byteLength":864,
			"byteOffset":238576,
			"target":34962
		},
		{
			"buffer":0,
			"byteLength":864,
			"byteOffset":239440,
			"target":34962
		},
		{
			"buffer":0,
			"byteLength":216,
			"byteOffset":240304,
			"target":34963
		}
	],
	"buffers":[
		{
			"byteLength":240520,
			"uri":"eiche_2.bin"
		}
	]
}
