{
	"asset":{
		"generator":"Khronos glTF Blender I/O v5.2.40",
		"version":"2.0"
	},
	"scene":0,
	"scenes":[
		{
			"name":"Scene",
			"nodes":[
				0
			]
		}
	],
	"nodes":[
		{
			"mesh":0,
			"name":"Eiche"
		}
	],
	"materials":[
		{
			"alphaMode":"MASK",
			"doubleSided":true,
			"name":"Baum",
			"pbrMetallicRoughness":{
				"baseColorTexture":{
					"index":0
				},
				"metallicFactor":0,
				"roughnessFactor":0.8500000238418579
			}
		}
	],
	"meshes":[
		{
			"name":"Eiche",
			"primitives":[
				{
					"attributes":{
						"POSITION":0,
						"NORMAL":1,
						"TEXCOORD_0":2,
						"COLOR_0":3
					},
					"indices":4,
					"material":0
				}
			]
		}
	],
	"textures":[
		{
			"sampler":0,
			"source":0
		}
	],
	"images":[
		{
			"mimeType":"image/png",
			"name":"Laub_Textur",
			"uri":"Laub_Textur.png"
		}
	],
	"accessors":[
		{
			"bufferView":0,
			"componentType":5126,
			"count":6541,
			"max":[
				5.184753894805908,
				9.424163818359375,
				6.1173810958862305
			],
			"min":[
				-4.685092926025391,
				0,
				-6.471419811248779
			],
			"type":"VEC3"
		},
		{
			"bufferView":1,
			"componentType":5126,
			"count":6541,
			"type":"VEC3"
		},
		{
			"bufferView":2,
			"componentType":5126,
			"count":6541,
			"type":"VEC2"
		},
		{
			"bufferView":3,
			"componentType":5126,
			"count":6541,
			"type":"VEC3"
		},
		{
			"bufferView":4,
			"componentType":5123,
			"count":10203,
			"type":"SCALAR"
		}
	],
	"bufferViews":[
		{
			"buffer":0,
			"byteLength":78492,
			"byteOffset":0,
			"target":34962
		},
		{
			"buffer":0,
			"byteLength":78492,
			"byteOffset":78492,
			"target":34962
		},
		{
			"buffer":0,
			"byteLength":52328,
			"byteOffset":156984,
			"target":34962
		},
		{
			"buffer":0,
			"byteLength":78492,
			"byteOffset":209312,
			"target":34962
		},
		{
			"buffer":0,
			"byteLength":20406,
			"byteOffset":287804,
			"target":34963
		}
	],
	"samplers":[
		{
			"magFilter":9729,
			"minFilter":9987
		}
	],
	"buffers":[
		{
			"byteLength":308212,
			"uri":"eiche_4.bin"
		}
	]
}
