{
	"asset":{
		"generator":"Khronos glTF Blender I/O v5.2.40",
		"version":"2.0"
	},
	"scene":0,
	"scenes":[
		{
			"name":"Scene",
			"nodes":[
				0
			]
		}
	],
	"nodes":[
		{
			"mesh":0,
			"name":"Eiche"
		}
	],
	"materials":[
		{
			"name":"df_rinde",
			"pbrMetallicRoughness":{
				"baseColorFactor":[
					0.0423114113509655,
					0.02955683507025242,
					0.023153366521000862,
					1
				],
				"metallicFactor":0,
				"roughnessFactor":0.8999999761581421
			}
		},
		{
			"name":"df_rinde_hell",
			"pbrMetallicRoughness":{
				"baseColorFactor":[
					0.10461648553609848,
					0.07227185368537903,
					0.05126945674419403,
					1
				],
				"metallicFactor":0,
				"roughnessFactor":0.8999999761581421
			}
		},
		{
			"name":"df_laub_dunkel",
			"pbrMetallicRoughness":{
				"baseColorFactor":[
					0.013702083379030228,
					0.03560131415724754,
					0.01599629409611225,
					1
				],
				"metallicFactor":0,
				"roughnessFactor":0.8999999761581421
			}
		},
		{
			"name":"df_laub",
			"pbrMetallicRoughness":{
				"baseColorFactor":[
					0.02518685907125473,
					0.06301001459360123,
					0.023153366521000862,
					1
				],
				"metallicFactor":0,
				"roughnessFactor":0.8999999761581421
			}
		},
		{
			"name":"df_laub_oliv",
			"pbrMetallicRoughness":{
				"baseColorFactor":[
					0.061246052384376526,
					0.08228270709514618,
					0.026241222396492958,
					1
				],
				"metallicFactor":0,
				"roughnessFactor":0.8999999761581421
			}
		},
		{
			"name":"df_laub_welk",
			"pbrMetallicRoughness":{
				"baseColorFactor":[
					0.1119324266910553,
					0.08437620848417282,
					0.02955683507025242,
					1
				],
				"metallicFactor":0,
				"roughnessFactor":0.8999999761581421
			}
		},
		{
			"doubleSided":true,
			"name":"df_flechte",
			"pbrMetallicRoughness":{
				"baseColorFactor":[
					0.18116424977779388,
					0.22322796285152435,
					0.1441284716129303,
					1
				],
				"metallicFactor":0,
				"roughnessFactor":0.8999999761581421
			}
		}
	],
	"meshes":[
		{
			"name":"Eiche",
			"primitives":[
				{
					"attributes":{
						"POSITION":0,
						"NORMAL":1
					},
					"indices":2,
					"material":0
				},
				{
					"attributes":{
						"POSITION":3,
						"NORMAL":4
					},
					"indices":5,
					"material":1
				},
				{
					"attributes":{
						"POSITION":6,
						"NORMAL":7
					},
					"indices":8,
					"material":2
				},
				{
					"attributes":{
						"POSITION":9,
						"NORMAL":10
					},
					"indices":11,
					"material":3
				},
				{
					"attributes":{
						"POSITION":12,
						"NORMAL":13
					},
					"indices":14,
					"material":4
				},
				{
					"attributes":{
						"POSITION":15,
						"NORMAL":16
					},
					"indices":17,
					"material":5
				},
				{
					"attributes":{
						"POSITION":18,
						"NORMAL":19
					},
					"indices":20,
					"material":6
				}
			]
		}
	],
	"accessors":[
		{
			"bufferView":0,
			"componentType":5126,
			"count":2761,
			"max":[
				2.5482702255249023,
				6.318946361541748,
				3.3565518856048584
			],
			"min":[
				-3.3987197875976562,
				0,
				-2.1712427139282227
			],
			"type":"VEC3"
		},
		{
			"bufferView":1,
			"componentType":5126,
			"count":2761,
			"type":"VEC3"
		},
		{
			"bufferView":2,
			"componentType":5123,
			"count":4104,
			"type":"SCALAR"
		},
		{
			"bufferView":3,
			"componentType":5126,
			"count":565,
			"max":[
				3.097722291946411,
				5.310504913330078,
				1.6785006523132324
			],
			"min":[
				-3.24631929397583,
				2.8755478858947754,
				-2.548276901245117
			],
			"type":"VEC3"
		},
		{
			"bufferView":4,
			"componentType":5126,
			"count":565,
			"type":"VEC3"
		},
		{
			"bufferView":5,
			"componentType":5123,
			"count":795,
			"type":"SCALAR"
		},
		{
			"bufferView":6,
			"componentType":5126,
			"count":1641,
			"max":[
				3.2324256896972656,
				6.855572700500488,
				4.272030830383301
			],
			"min":[
				-4.276248931884766,
				1.3829927444458008,
				-2.769089698791504
			],
			"type":"VEC3"
		},
		{
			"bufferView":7,
			"componentType":5126,
			"count":1641,
			"type":"VEC3"
		},
		{
			"bufferView":8,
			"componentType":5123,
			"count":1641,
			"type":"SCALAR"
		},
		{
			"bufferView":9,
			"componentType":5126,
			"count":1701,
			"max":[
				3.2324256896972656,
				6.855572700500488,
				4.272030830383301
			],
			"min":[
				-4.276248931884766,
				1.508284568786621,
				-2.885787010192871
			],
			"type":"VEC3"
		},
		{
			"bufferView":10,
			"componentType":5126,
			"count":1701,
			"type":"VEC3"
		},
		{
			"bufferView":11,
			"componentType":5123,
			"count":1701,
			"type":"SCALAR"
		},
		{
			"bufferView":12,
			"componentType":5126,
			"count":1506,
			"max":[
				3.2324256896972656,
				6.855572700500488,
				4.272030830383301
			],
			"min":[
				-4.276248931884766,
				1.3829927444458008,
				-2.885787010192871
			],
			"type":"VEC3"
		},
		{
			"bufferView":13,
			"componentType":5126,
			"count":1506,
			"type":"VEC3"
		},
		{
			"bufferView":14,
			"componentType":5123,
			"count":1506,
			"type":"SCALAR"
		},
		{
			"bufferView":15,
			"componentType":5126,
			"count":192,
			"max":[
				2.65982723236084,
				6.7636895179748535,
				4.272030830383301
			],
			"min":[
				-2.0651161670684814,
				1.3829927444458008,
				-0.8978089094161987
			],
			"type":"VEC3"
		},
		{
			"bufferView":16,
			"componentType":5126,
			"count":192,
			"type":"VEC3"
		},
		{
			"bufferView":17,
			"componentType":5123,
			"count":192,
			"type":"SCALAR"
		},
		{
			"bufferView":18,
			"componentType":5126,
			"count":84,
			"max":[
				2.4964420795440674,
				5.476825714111328,
				2.7375550270080566
			],
			"min":[
				-1.5706322193145752,
				1.5914547443389893,
				-1.7420693635940552
			],
			"type":"VEC3"
		},
		{
			"bufferView":19,
			"componentType":5126,
			"count":84,
			"type":"VEC3"
		},
		{
			"bufferView":20,
			"componentType":5123,
			"count":126,
			"type":"SCALAR"
		}
	],
	"bufferViews":[
		{
			"buffer":0,
			"byteLength":33132,
			"byteOffset":0,
			"target":34962
		},
		{
			"buffer":0,
			"byteLength":33132,
			"byteOffset":33132,
			"target":34962
		},
		{
			"buffer":0,
			"byteLength":8208,
			"byteOffset":66264,
			"target":34963
		},
		{
			"buffer":0,
			"byteLength":6780,
			"byteOffset":74472,
			"target":34962
		},
		{
			"buffer":0,
			"byteLength":6780,
			"byteOffset":81252,
			"target":34962
		},
		{
			"buffer":0,
			"byteLength":1590,
			"byteOffset":88032,
			"target":34963
		},
		{
			"buffer":0,
			"byteLength":19692,
			"byteOffset":89624,
			"target":34962
		},
		{
			"buffer":0,
			"byteLength":19692,
			"byteOffset":109316,
			"target":34962
		},
		{
			"buffer":0,
			"byteLength":3282,
			"byteOffset":129008,
			"target":34963
		},
		{
			"buffer":0,
			"byteLength":20412,
			"byteOffset":132292,
			"target":34962
		},
		{
			"buffer":0,
			"byteLength":20412,
			"byteOffset":152704,
			"target":34962
		},
		{
			"buffer":0,
			"byteLength":3402,
			"byteOffset":173116,
			"target":34963
		},
		{
			"buffer":0,
			"byteLength":18072,
			"byteOffset":176520,
			"target":34962
		},
		{
			"buffer":0,
			"byteLength":18072,
			"byteOffset":194592,
			"target":34962
		},
		{
			"buffer":0,
			"byteLength":3012,
			"byteOffset":212664,
			"target":34963
		},
		{
			"buffer":0,
			"byteLength":2304,
			"byteOffset":215676,
			"target":34962
		},
		{
			"buffer":0,
			"byteLength":2304,
			"byteOffset":217980,
			"target":34962
		},
		{
			"buffer":0,
			"byteLength":384,
			"byteOffset":220284,
			"target":34963
		},
		{
			"buffer":0,
			"byteLength":1008,
			"byteOffset":220668,
			"target":34962
		},
		{
			"buffer":0,
			"byteLength":1008,
			"byteOffset":221676,
			"target":34962
		},
		{
			"buffer":0,
			"byteLength":252,
			"byteOffset":222684,
			"target":34963
		}
	],
	"buffers":[
		{
			"byteLength":222936,
			"uri":"eiche_3.bin"
		}
	]
}
