{
	"asset":{
		"generator":"Khronos glTF Blender I/O v5.2.40",
		"version":"2.0"
	},
	"scene":0,
	"scenes":[
		{
			"name":"Scene",
			"nodes":[
				0
			]
		}
	],
	"nodes":[
		{
			"mesh":0,
			"name":"Erzvorkommen"
		}
	],
	"materials":[
		{
			"doubleSided":true,
			"name":"Vorkommen",
			"pbrMetallicRoughness":{
				"metallicFactor":0,
				"roughnessFactor":0.8500000238418579
			}
		}
	],
	"meshes":[
		{
			"name":"Erzvorkommen",
			"primitives":[
				{
					"attributes":{
						"POSITION":0,
						"NORMAL":1,
						"COLOR_0":2
					},
					"indices":3,
					"material":0
				}
			]
		}
	],
	"accessors":[
		{
			"bufferView":0,
			"componentType":5126,
			"count":6144,
			"max":[
				0.9092018604278564,
				0.9571764469146729,
				0.8864139318466187
			],
			"min":[
				-0.9092018604278564,
				0,
				-0.8864139318466187
			],
			"type":"VEC3"
		},
		{
			"bufferView":1,
			"componentType":5126,
			"count":6144,
			"type":"VEC3"
		},
		{
			"bufferView":2,
			"componentType":5126,
			"count":6144,
			"type":"VEC3"
		},
		{
			"bufferView":3,
			"componentType":5123,
			"count":6144,
			"type":"SCALAR"
		}
	],
	"bufferViews":[
		{
			"buffer":0,
			"byteLength":73728,
			"byteOffset":0,
			"target":34962
		},
		{
			"buffer":0,
			"byteLength":73728,
			"byteOffset":73728,
			"target":34962
		},
		{
			"buffer":0,
			"byteLength":73728,
			"byteOffset":147456,
			"target":34962
		},
		{
			"buffer":0,
			"byteLength":12288,
			"byteOffset":221184,
			"target":34963
		}
	],
	"buffers":[
		{
			"byteLength":233472,
			"uri":"erzvorkommen_1.bin"
		}
	]
}
