{
	"asset":{
		"generator":"Khronos glTF Blender I/O v5.2.40",
		"version":"2.0"
	},
	"scene":0,
	"scenes":[
		{
			"name":"Scene",
			"nodes":[
				0
			]
		}
	],
	"nodes":[
		{
			"mesh":0,
			"name":"Erzvorkommen"
		}
	],
	"materials":[
		{
			"name":"basalt",
			"pbrMetallicRoughness":{
				"baseColorFactor":[
					0.07618538290262222,
					0.07421357184648514,
					0.09084171056747437,
					1
				],
				"metallicFactor":0,
				"roughnessFactor":0.8999999761581421
			}
		},
		{
			"name":"basalt_hell",
			"pbrMetallicRoughness":{
				"baseColorFactor":[
					0.1441284716129303,
					0.14126329123973846,
					0.17144110798835754,
					1
				],
				"metallicFactor":0,
				"roughnessFactor":0.8999999761581421
			}
		},
		{
			"name":"erz_dunkel",
			"pbrMetallicRoughness":{
				"baseColorFactor":[
					0.1946178376674652,
					0.04970656707882881,
					0.012983032502233982,
					1
				],
				"metallicFactor":0,
				"roughnessFactor":0.8999999761581421
			}
		},
		{
			"name":"erz_glanz",
			"pbrMetallicRoughness":{
				"baseColorFactor":[
					0.715693473815918,
					0.7681511640548706,
					0.838798999786377,
					1
				],
				"metallicFactor":0,
				"roughnessFactor":0.8999999761581421
			}
		},
		{
			"name":"erz_rost",
			"pbrMetallicRoughness":{
				"baseColorFactor":[
					0.4793201684951782,
					0.13286831974983215,
					0.028426039963960648,
					1
				],
				"metallicFactor":0,
				"roughnessFactor":0.8999999761581421
			}
		}
	],
	"meshes":[
		{
			"name":"Erzvorkommen",
			"primitives":[
				{
					"attributes":{
						"POSITION":0,
						"NORMAL":1
					},
					"indices":2,
					"material":0
				},
				{
					"attributes":{
						"POSITION":3,
						"NORMAL":4
					},
					"indices":5,
					"material":1
				},
				{
					"attributes":{
						"POSITION":6,
						"NORMAL":7
					},
					"indices":8,
					"material":2
				},
				{
					"attributes":{
						"POSITION":9,
						"NORMAL":10
					},
					"indices":11,
					"material":3
				},
				{
					"attributes":{
						"POSITION":12,
						"NORMAL":13
					},
					"indices":14,
					"material":4
				}
			]
		}
	],
	"accessors":[
		{
			"bufferView":0,
			"componentType":5126,
			"count":1169,
			"max":[
				1.0218820571899414,
				0.7993070483207703,
				1.0361926555633545
			],
			"min":[
				-0.9571986198425293,
				0,
				-1.0361926555633545
			],
			"type":"VEC3"
		},
		{
			"bufferView":1,
			"componentType":5126,
			"count":1169,
			"type":"VEC3"
		},
		{
			"bufferView":2,
			"componentType":5123,
			"count":1269,
			"type":"SCALAR"
		},
		{
			"bufferView":3,
			"componentType":5126,
			"count":183,
			"max":[
				0.537447452545166,
				0.7993070483207703,
				0.8978721499443054
			],
			"min":[
				-0.7883545160293579,
				0.1034223809838295,
				-0.6428229808807373
			],
			"type":"VEC3"
		},
		{
			"bufferView":4,
			"componentType":5126,
			"count":183,
			"type":"VEC3"
		},
		{
			"bufferView":5,
			"componentType":5123,
			"count":183,
			"type":"SCALAR"
		},
		{
			"bufferView":6,
			"componentType":5126,
			"count":48,
			"max":[
				0.3453949987888336,
				0.7708899974822998,
				0.8978721499443054
			],
			"min":[
				-0.769113302230835,
				0.03754783049225807,
				-0.7860856056213379
			],
			"type":"VEC3"
		},
		{
			"bufferView":7,
			"componentType":5126,
			"count":48,
			"type":"VEC3"
		},
		{
			"bufferView":8,
			"componentType":5123,
			"count":48,
			"type":"SCALAR"
		},
		{
			"bufferView":9,
			"componentType":5126,
			"count":300,
			"max":[
				0.0586337149143219,
				0.5136663913726807,
				0.6942127346992493
			],
			"min":[
				-0.769210934638977,
				0.10632861405611038,
				-0.5753782987594604
			],
			"type":"VEC3"
		},
		{
			"bufferView":10,
			"componentType":5126,
			"count":300,
			"type":"VEC3"
		},
		{
			"bufferView":11,
			"componentType":5123,
			"count":300,
			"type":"SCALAR"
		},
		{
			"bufferView":12,
			"componentType":5126,
			"count":900,
			"max":[
				0.7514158487319946,
				0.825664758682251,
				1.0086207389831543
			],
			"min":[
				-1.0218820571899414,
				0,
				-0.8654283881187439
			],
			"type":"VEC3"
		},
		{
			"bufferView":13,
			"componentType":5126,
			"count":900,
			"type":"VEC3"
		},
		{
			"bufferView":14,
			"componentType":5123,
			"count":900,
			"type":"SCALAR"
		}
	],
	"bufferViews":[
		{
			"buffer":0,
			"byteLength":14028,
			"byteOffset":0,
			"target":34962
		},
		{
			"buffer":0,
			"byteLength":14028,
			"byteOffset":14028,
			"target":34962
		},
		{
			"buffer":0,
			"byteLength":2538,
			"byteOffset":28056,
			"target":34963
		},
		{
			"buffer":0,
			"byteLength":2196,
			"byteOffset":30596,
			"target":34962
		},
		{
			"buffer":0,
			"byteLength":2196,
			"byteOffset":32792,
			"target":34962
		},
		{
			"buffer":0,
			"byteLength":366,
			"byteOffset":34988,
			"target":34963
		},
		{
			"buffer":0,
			"byteLength":576,
			"byteOffset":35356,
			"target":34962
		},
		{
			"buffer":0,
			"byteLength":576,
			"byteOffset":35932,
			"target":34962
		},
		{
			"buffer":0,
			"byteLength":96,
			"byteOffset":36508,
			"target":34963
		},
		{
			"buffer":0,
			"byteLength":3600,
			"byteOffset":36604,
			"target":34962
		},
		{
			"buffer":0,
			"byteLength":3600,
			"byteOffset":40204,
			"target":34962
		},
		{
			"buffer":0,
			"byteLength":600,
			"byteOffset":43804,
			"target":34963
		},
		{
			"buffer":0,
			"byteLength":10800,
			"byteOffset":44404,
			"target":34962
		},
		{
			"buffer":0,
			"byteLength":10800,
			"byteOffset":55204,
			"target":34962
		},
		{
			"buffer":0,
			"byteLength":1800,
			"byteOffset":66004,
			"target":34963
		}
	],
	"buffers":[
		{
			"byteLength":67804,
			"uri":"erzvorkommen_2.bin"
		}
	]
}
