{
	"asset":{
		"generator":"Khronos glTF Blender I/O v5.2.40",
		"version":"2.0"
	},
	"scene":0,
	"scenes":[
		{
			"name":"Scene",
			"nodes":[
				0
			]
		}
	],
	"nodes":[
		{
			"mesh":0,
			"name":"Erzvorkommen"
		}
	],
	"materials":[
		{
			"doubleSided":true,
			"name":"Vorkommen",
			"pbrMetallicRoughness":{
				"metallicFactor":0,
				"roughnessFactor":0.8500000238418579
			}
		}
	],
	"meshes":[
		{
			"name":"Erzvorkommen",
			"primitives":[
				{
					"attributes":{
						"POSITION":0,
						"NORMAL":1,
						"COLOR_0":2
					},
					"indices":3,
					"material":0
				}
			]
		}
	],
	"accessors":[
		{
			"bufferView":0,
			"componentType":5126,
			"count":6636,
			"max":[
				1.0157761573791504,
				0.901504397392273,
				0.8726581335067749
			],
			"min":[
				-1.0157761573791504,
				0,
				-0.8726581335067749
			],
			"type":"VEC3"
		},
		{
			"bufferView":1,
			"componentType":5126,
			"count":6636,
			"type":"VEC3"
		},
		{
			"bufferView":2,
			"componentType":5126,
			"count":6636,
			"type":"VEC3"
		},
		{
			"bufferView":3,
			"componentType":5123,
			"count":6636,
			"type":"SCALAR"
		}
	],
	"bufferViews":[
		{
			"buffer":0,
			"byteLength":79632,
			"byteOffset":0,
			"target":34962
		},
		{
			"buffer":0,
			"byteLength":79632,
			"byteOffset":79632,
			"target":34962
		},
		{
			"buffer":0,
			"byteLength":79632,
			"byteOffset":159264,
			"target":34962
		},
		{
			"buffer":0,
			"byteLength":13272,
			"byteOffset":238896,
			"target":34963
		}
	],
	"buffers":[
		{
			"byteLength":252168,
			"uri":"erzvorkommen_3.bin"
		}
	]
}
