{
	"asset":{
		"generator":"Khronos glTF Blender I/O v5.2.40",
		"version":"2.0"
	},
	"extensionsUsed":[
		"KHR_materials_emissive_strength"
	],
	"scene":0,
	"scenes":[
		{
			"name":"Scene",
			"nodes":[
				0
			]
		}
	],
	"nodes":[
		{
			"mesh":0,
			"name":"Kristallvorkommen"
		}
	],
	"materials":[
		{
			"doubleSided":true,
			"name":"Vorkommen",
			"pbrMetallicRoughness":{
				"metallicFactor":0,
				"roughnessFactor":0.8500000238418579
			}
		},
		{
			"doubleSided":true,
			"emissiveFactor":[
				0.2015562504529953,
				0.5972017645835876,
				1
			],
			"extensions":{
				"KHR_materials_emissive_strength":{
					"emissiveStrength":1.5
				}
			},
			"name":"Kristall",
			"pbrMetallicRoughness":{
				"metallicFactor":0,
				"roughnessFactor":0.20000000298023224
			}
		}
	],
	"meshes":[
		{
			"name":"Kristallvorkommen",
			"primitives":[
				{
					"attributes":{
						"POSITION":0,
						"NORMAL":1,
						"COLOR_0":2
					},
					"indices":3,
					"material":0
				},
				{
					"attributes":{
						"POSITION":4,
						"NORMAL":5,
						"COLOR_0":6
					},
					"indices":7,
					"material":1
				}
			]
		}
	],
	"accessors":[
		{
			"bufferView":0,
			"componentType":5126,
			"count":9120,
			"max":[
				1.0851777791976929,
				0.739902138710022,
				0.8861798644065857
			],
			"min":[
				-1.0851777791976929,
				0,
				-0.8861798644065857
			],
			"type":"VEC3"
		},
		{
			"bufferView":1,
			"componentType":5126,
			"count":9120,
			"type":"VEC3"
		},
		{
			"bufferView":2,
			"componentType":5126,
			"count":9120,
			"type":"VEC3"
		},
		{
			"bufferView":3,
			"componentType":5123,
			"count":9120,
			"type":"SCALAR"
		},
		{
			"bufferView":4,
			"componentType":5126,
			"count":1248,
			"max":[
				0.8686408996582031,
				1.4488177299499512,
				0.7111639976501465
			],
			"min":[
				-0.8191406726837158,
				0,
				-0.8030000329017639
			],
			"type":"VEC3"
		},
		{
			"bufferView":5,
			"componentType":5126,
			"count":1248,
			"type":"VEC3"
		},
		{
			"bufferView":6,
			"componentType":5126,
			"count":1248,
			"type":"VEC3"
		},
		{
			"bufferView":7,
			"componentType":5123,
			"count":1794,
			"type":"SCALAR"
		}
	],
	"bufferViews":[
		{
			"buffer":0,
			"byteLength":109440,
			"byteOffset":0,
			"target":34962
		},
		{
			"buffer":0,
			"byteLength":109440,
			"byteOffset":109440,
			"target":34962
		},
		{
			"buffer":0,
			"byteLength":109440,
			"byteOffset":218880,
			"target":34962
		},
		{
			"buffer":0,
			"byteLength":18240,
			"byteOffset":328320,
			"target":34963
		},
		{
			"buffer":0,
			"byteLength":14976,
			"byteOffset":346560,
			"target":34962
		},
		{
			"buffer":0,
			"byteLength":14976,
			"byteOffset":361536,
			"target":34962
		},
		{
			"buffer":0,
			"byteLength":14976,
			"byteOffset":376512,
			"target":34962
		},
		{
			"buffer":0,
			"byteLength":3588,
			"byteOffset":391488,
			"target":34963
		}
	],
	"buffers":[
		{
			"byteLength":395076,
			"uri":"kristallvorkommen_1.bin"
		}
	]
}
