{
	"asset":{
		"generator":"Khronos glTF Blender I/O v5.2.40",
		"version":"2.0"
	},
	"extensionsUsed":[
		"KHR_materials_emissive_strength"
	],
	"scene":0,
	"scenes":[
		{
			"name":"Scene",
			"nodes":[
				0
			]
		}
	],
	"nodes":[
		{
			"mesh":0,
			"name":"Kristallvorkommen"
		}
	],
	"materials":[
		{
			"doubleSided":true,
			"name":"Vorkommen",
			"pbrMetallicRoughness":{
				"metallicFactor":0,
				"roughnessFactor":0.8500000238418579
			}
		},
		{
			"doubleSided":true,
			"emissiveFactor":[
				0.2015562504529953,
				0.5972017645835876,
				1
			],
			"extensions":{
				"KHR_materials_emissive_strength":{
					"emissiveStrength":1.5
				}
			},
			"name":"Kristall",
			"pbrMetallicRoughness":{
				"metallicFactor":0,
				"roughnessFactor":0.20000000298023224
			}
		}
	],
	"meshes":[
		{
			"name":"Kristallvorkommen",
			"primitives":[
				{
					"attributes":{
						"POSITION":0,
						"NORMAL":1,
						"COLOR_0":2
					},
					"indices":3,
					"material":0
				},
				{
					"attributes":{
						"POSITION":4,
						"NORMAL":5,
						"COLOR_0":6
					},
					"indices":7,
					"material":1
				}
			]
		}
	],
	"accessors":[
		{
			"bufferView":0,
			"componentType":5126,
			"count":6780,
			"max":[
				1.1082415580749512,
				0.5740706324577332,
				1.0582798719406128
			],
			"min":[
				-1.1082415580749512,
				0,
				-1.0582798719406128
			],
			"type":"VEC3"
		},
		{
			"bufferView":1,
			"componentType":5126,
			"count":6780,
			"type":"VEC3"
		},
		{
			"bufferView":2,
			"componentType":5126,
			"count":6780,
			"type":"VEC3"
		},
		{
			"bufferView":3,
			"componentType":5123,
			"count":6780,
			"type":"SCALAR"
		},
		{
			"bufferView":4,
			"componentType":5126,
			"count":1536,
			"max":[
				0.6402511596679688,
				1.7852542400360107,
				0.9622141122817993
			],
			"min":[
				-1.106015682220459,
				0,
				-0.9108611345291138
			],
			"type":"VEC3"
		},
		{
			"bufferView":5,
			"componentType":5126,
			"count":1536,
			"type":"VEC3"
		},
		{
			"bufferView":6,
			"componentType":5126,
			"count":1536,
			"type":"VEC3"
		},
		{
			"bufferView":7,
			"componentType":5123,
			"count":2208,
			"type":"SCALAR"
		}
	],
	"bufferViews":[
		{
			"buffer":0,
			"byteLength":81360,
			"byteOffset":0,
			"target":34962
		},
		{
			"buffer":0,
			"byteLength":81360,
			"byteOffset":81360,
			"target":34962
		},
		{
			"buffer":0,
			"byteLength":81360,
			"byteOffset":162720,
			"target":34962
		},
		{
			"buffer":0,
			"byteLength":13560,
			"byteOffset":244080,
			"target":34963
		},
		{
			"buffer":0,
			"byteLength":18432,
			"byteOffset":257640,
			"target":34962
		},
		{
			"buffer":0,
			"byteLength":18432,
			"byteOffset":276072,
			"target":34962
		},
		{
			"buffer":0,
			"byteLength":18432,
			"byteOffset":294504,
			"target":34962
		},
		{
			"buffer":0,
			"byteLength":4416,
			"byteOffset":312936,
			"target":34963
		}
	],
	"buffers":[
		{
			"byteLength":317352,
			"uri":"kristallvorkommen_2.bin"
		}
	]
}
