{
	"asset":{
		"generator":"Khronos glTF Blender I/O v5.2.40",
		"version":"2.0"
	},
	"extensionsUsed":[
		"KHR_materials_emissive_strength"
	],
	"scene":0,
	"scenes":[
		{
			"name":"Scene",
			"nodes":[
				0
			]
		}
	],
	"nodes":[
		{
			"mesh":0,
			"name":"Kristallvorkommen"
		}
	],
	"materials":[
		{
			"doubleSided":true,
			"name":"Vorkommen",
			"pbrMetallicRoughness":{
				"metallicFactor":0,
				"roughnessFactor":0.8500000238418579
			}
		},
		{
			"doubleSided":true,
			"emissiveFactor":[
				0.2015562504529953,
				0.5972017645835876,
				1
			],
			"extensions":{
				"KHR_materials_emissive_strength":{
					"emissiveStrength":1.5
				}
			},
			"name":"Kristall",
			"pbrMetallicRoughness":{
				"metallicFactor":0,
				"roughnessFactor":0.20000000298023224
			}
		}
	],
	"meshes":[
		{
			"name":"Kristallvorkommen",
			"primitives":[
				{
					"attributes":{
						"POSITION":0,
						"NORMAL":1,
						"COLOR_0":2
					},
					"indices":3,
					"material":0
				},
				{
					"attributes":{
						"POSITION":4,
						"NORMAL":5,
						"COLOR_0":6
					},
					"indices":7,
					"material":1
				}
			]
		}
	],
	"accessors":[
		{
			"bufferView":0,
			"componentType":5126,
			"count":9180,
			"max":[
				0.9094330072402954,
				0.7356052398681641,
				0.908195972442627
			],
			"min":[
				-0.9094330072402954,
				0,
				-0.7740721702575684
			],
			"type":"VEC3"
		},
		{
			"bufferView":1,
			"componentType":5126,
			"count":9180,
			"type":"VEC3"
		},
		{
			"bufferView":2,
			"componentType":5126,
			"count":9180,
			"type":"VEC3"
		},
		{
			"bufferView":3,
			"componentType":5123,
			"count":9180,
			"type":"SCALAR"
		},
		{
			"bufferView":4,
			"componentType":5126,
			"count":1536,
			"max":[
				0.7587465047836304,
				1.5111688375473022,
				0.4722635746002197
			],
			"min":[
				-0.508450984954834,
				0,
				-0.908195972442627
			],
			"type":"VEC3"
		},
		{
			"bufferView":5,
			"componentType":5126,
			"count":1536,
			"type":"VEC3"
		},
		{
			"bufferView":6,
			"componentType":5126,
			"count":1536,
			"type":"VEC3"
		},
		{
			"bufferView":7,
			"componentType":5123,
			"count":2208,
			"type":"SCALAR"
		}
	],
	"bufferViews":[
		{
			"buffer":0,
			"byteLength":110160,
			"byteOffset":0,
			"target":34962
		},
		{
			"buffer":0,
			"byteLength":110160,
			"byteOffset":110160,
			"target":34962
		},
		{
			"buffer":0,
			"byteLength":110160,
			"byteOffset":220320,
			"target":34962
		},
		{
			"buffer":0,
			"byteLength":18360,
			"byteOffset":330480,
			"target":34963
		},
		{
			"buffer":0,
			"byteLength":18432,
			"byteOffset":348840,
			"target":34962
		},
		{
			"buffer":0,
			"byteLength":18432,
			"byteOffset":367272,
			"target":34962
		},
		{
			"buffer":0,
			"byteLength":18432,
			"byteOffset":385704,
			"target":34962
		},
		{
			"buffer":0,
			"byteLength":4416,
			"byteOffset":404136,
			"target":34963
		}
	],
	"buffers":[
		{
			"byteLength":408552,
			"uri":"kristallvorkommen_3.bin"
		}
	]
}
