{
	"asset":{
		"generator":"Khronos glTF Blender I/O v5.2.40",
		"version":"2.0"
	},
	"scene":0,
	"scenes":[
		{
			"name":"Scene",
			"nodes":[
				0
			]
		}
	],
	"nodes":[
		{
			"mesh":0,
			"name":"Lehmvorkommen"
		}
	],
	"materials":[
		{
			"doubleSided":true,
			"name":"Vorkommen",
			"pbrMetallicRoughness":{
				"metallicFactor":0,
				"roughnessFactor":0.8500000238418579
			}
		}
	],
	"meshes":[
		{
			"name":"Lehmvorkommen",
			"primitives":[
				{
					"attributes":{
						"POSITION":0,
						"NORMAL":1,
						"COLOR_0":2
					},
					"indices":3,
					"material":0
				}
			]
		}
	],
	"accessors":[
		{
			"bufferView":0,
			"componentType":5126,
			"count":3031,
			"max":[
				1.2558298110961914,
				0.7056132555007935,
				1.1720244884490967
			],
			"min":[
				-1.2558298110961914,
				0,
				-1.1720244884490967
			],
			"type":"VEC3"
		},
		{
			"bufferView":1,
			"componentType":5126,
			"count":3031,
			"type":"VEC3"
		},
		{
			"bufferView":2,
			"componentType":5126,
			"count":3031,
			"type":"VEC3"
		},
		{
			"bufferView":3,
			"componentType":5123,
			"count":3189,
			"type":"SCALAR"
		}
	],
	"bufferViews":[
		{
			"buffer":0,
			"byteLength":36372,
			"byteOffset":0,
			"target":34962
		},
		{
			"buffer":0,
			"byteLength":36372,
			"byteOffset":36372,
			"target":34962
		},
		{
			"buffer":0,
			"byteLength":36372,
			"byteOffset":72744,
			"target":34962
		},
		{
			"buffer":0,
			"byteLength":6378,
			"byteOffset":109116,
			"target":34963
		}
	],
	"buffers":[
		{
			"byteLength":115496,
			"uri":"lehmvorkommen_1.bin"
		}
	]
}
