{
	"asset":{
		"generator":"Khronos glTF Blender I/O v5.2.40",
		"version":"2.0"
	},
	"scene":0,
	"scenes":[
		{
			"name":"Scene",
			"nodes":[
				0
			]
		}
	],
	"nodes":[
		{
			"mesh":0,
			"name":"Lehmvorkommen"
		}
	],
	"materials":[
		{
			"doubleSided":true,
			"name":"Vorkommen",
			"pbrMetallicRoughness":{
				"metallicFactor":0,
				"roughnessFactor":0.8500000238418579
			}
		}
	],
	"meshes":[
		{
			"name":"Lehmvorkommen",
			"primitives":[
				{
					"attributes":{
						"POSITION":0,
						"NORMAL":1,
						"COLOR_0":2
					},
					"indices":3,
					"material":0
				}
			]
		}
	],
	"accessors":[
		{
			"bufferView":0,
			"componentType":5126,
			"count":3505,
			"max":[
				1.1501877307891846,
				0.7108662724494934,
				1.0791738033294678
			],
			"min":[
				-1.1501877307891846,
				0,
				-1.0791738033294678
			],
			"type":"VEC3"
		},
		{
			"bufferView":1,
			"componentType":5126,
			"count":3505,
			"type":"VEC3"
		},
		{
			"bufferView":2,
			"componentType":5126,
			"count":3505,
			"type":"VEC3"
		},
		{
			"bufferView":3,
			"componentType":5123,
			"count":3663,
			"type":"SCALAR"
		}
	],
	"bufferViews":[
		{
			"buffer":0,
			"byteLength":42060,
			"byteOffset":0,
			"target":34962
		},
		{
			"buffer":0,
			"byteLength":42060,
			"byteOffset":42060,
			"target":34962
		},
		{
			"buffer":0,
			"byteLength":42060,
			"byteOffset":84120,
			"target":34962
		},
		{
			"buffer":0,
			"byteLength":7326,
			"byteOffset":126180,
			"target":34963
		}
	],
	"buffers":[
		{
			"byteLength":133508,
			"uri":"lehmvorkommen_3.bin"
		}
	]
}
