{
	"asset":{
		"generator":"Khronos glTF Blender I/O v5.2.40",
		"version":"2.0"
	},
	"scene":0,
	"scenes":[
		{
			"name":"Scene",
			"nodes":[
				0
			]
		}
	],
	"nodes":[
		{
			"mesh":0,
			"name":"Lehmvorkommen"
		}
	],
	"materials":[
		{
			"doubleSided":true,
			"name":"Vorkommen",
			"pbrMetallicRoughness":{
				"metallicFactor":0,
				"roughnessFactor":0.8500000238418579
			}
		}
	],
	"meshes":[
		{
			"name":"Lehmvorkommen",
			"primitives":[
				{
					"attributes":{
						"POSITION":0,
						"NORMAL":1,
						"COLOR_0":2
					},
					"indices":3,
					"material":0
				}
			]
		}
	],
	"accessors":[
		{
			"bufferView":0,
			"componentType":5126,
			"count":4381,
			"max":[
				1.0599839687347412,
				0.7232155799865723,
				1.1173605918884277
			],
			"min":[
				-1.0599839687347412,
				0,
				-1.1173605918884277
			],
			"type":"VEC3"
		},
		{
			"bufferView":1,
			"componentType":5126,
			"count":4381,
			"type":"VEC3"
		},
		{
			"bufferView":2,
			"componentType":5126,
			"count":4381,
			"type":"VEC3"
		},
		{
			"bufferView":3,
			"componentType":5123,
			"count":4575,
			"type":"SCALAR"
		}
	],
	"bufferViews":[
		{
			"buffer":0,
			"byteLength":52572,
			"byteOffset":0,
			"target":34962
		},
		{
			"buffer":0,
			"byteLength":52572,
			"byteOffset":52572,
			"target":34962
		},
		{
			"buffer":0,
			"byteLength":52572,
			"byteOffset":105144,
			"target":34962
		},
		{
			"buffer":0,
			"byteLength":9150,
			"byteOffset":157716,
			"target":34963
		}
	],
	"buffers":[
		{
			"byteLength":166868,
			"uri":"lehmvorkommen_2.bin"
		}
	]
}
