{
	"asset":{
		"generator":"Khronos glTF Blender I/O v5.2.40",
		"version":"2.0"
	},
	"scene":0,
	"scenes":[
		{
			"name":"Scene",
			"nodes":[
				0
			]
		}
	],
	"nodes":[
		{
			"mesh":0,
			"name":"Muscheln"
		}
	],
	"materials":[
		{
			"doubleSided":true,
			"name":"Vorkommen",
			"pbrMetallicRoughness":{
				"metallicFactor":0,
				"roughnessFactor":0.8500000238418579
			}
		}
	],
	"meshes":[
		{
			"name":"Muscheln",
			"primitives":[
				{
					"attributes":{
						"POSITION":0,
						"NORMAL":1,
						"COLOR_0":2
					},
					"indices":3,
					"material":0
				}
			]
		}
	],
	"accessors":[
		{
			"bufferView":0,
			"componentType":5126,
			"count":174,
			"max":[
				0.5309839248657227,
				0.07488355040550232,
				0.4362058639526367
			],
			"min":[
				-0.5309839248657227,
				0,
				-0.4362058639526367
			],
			"type":"VEC3"
		},
		{
			"bufferView":1,
			"componentType":5126,
			"count":174,
			"type":"VEC3"
		},
		{
			"bufferView":2,
			"componentType":5126,
			"count":174,
			"type":"VEC3"
		},
		{
			"bufferView":3,
			"componentType":5123,
			"count":198,
			"type":"SCALAR"
		}
	],
	"bufferViews":[
		{
			"buffer":0,
			"byteLength":2088,
			"byteOffset":0,
			"target":34962
		},
		{
			"buffer":0,
			"byteLength":2088,
			"byteOffset":2088,
			"target":34962
		},
		{
			"buffer":0,
			"byteLength":2088,
			"byteOffset":4176,
			"target":34962
		},
		{
			"buffer":0,
			"byteLength":396,
			"byteOffset":6264,
			"target":34963
		}
	],
	"buffers":[
		{
			"byteLength":6660,
			"uri":"muscheln.bin"
		}
	]
}
