{
	"asset":{
		"generator":"Khronos glTF Blender I/O v5.2.40",
		"version":"2.0"
	},
	"scene":0,
	"scenes":[
		{
			"name":"Scene",
			"nodes":[
				0
			]
		}
	],
	"nodes":[
		{
			"mesh":0,
			"name":"Palme"
		}
	],
	"materials":[
		{
			"name":"df_palme_stamm",
			"pbrMetallicRoughness":{
				"baseColorFactor":[
					0.07421357184648514,
					0.05448027700185776,
					0.03688944876194,
					1
				],
				"metallicFactor":0,
				"roughnessFactor":0.8999999761581421
			}
		},
		{
			"name":"df_palme_ring",
			"pbrMetallicRoughness":{
				"baseColorFactor":[
					0.0423114113509655,
					0.03071344457566738,
					0.022173885256052017,
					1
				],
				"metallicFactor":0,
				"roughnessFactor":0.8999999761581421
			}
		},
		{
			"doubleSided":true,
			"name":"df_palmblatt",
			"pbrMetallicRoughness":{
				"baseColorFactor":[
					0.03433980792760849,
					0.08228270709514618,
					0.028426039963960648,
					1
				],
				"metallicFactor":0,
				"roughnessFactor":0.8999999761581421
			}
		},
		{
			"name":"df_nuss",
			"pbrMetallicRoughness":{
				"baseColorFactor":[
					0.027320891618728638,
					0.017641954123973846,
					0.011612244881689548,
					1
				],
				"metallicFactor":0,
				"roughnessFactor":0.8999999761581421
			}
		}
	],
	"meshes":[
		{
			"name":"Palme",
			"primitives":[
				{
					"attributes":{
						"POSITION":0,
						"NORMAL":1
					},
					"indices":2,
					"material":0
				},
				{
					"attributes":{
						"POSITION":3,
						"NORMAL":4
					},
					"indices":5,
					"material":1
				},
				{
					"attributes":{
						"POSITION":6,
						"NORMAL":7
					},
					"indices":8,
					"material":2
				},
				{
					"attributes":{
						"POSITION":9,
						"NORMAL":10
					},
					"indices":11,
					"material":3
				}
			]
		}
	],
	"accessors":[
		{
			"bufferView":0,
			"componentType":5126,
			"count":140,
			"max":[
				0.8394034504890442,
				5.453145503997803,
				0.22992391884326935
			],
			"min":[
				-0.18951453268527985,
				0,
				-1.0183185338974
			],
			"type":"VEC3"
		},
		{
			"bufferView":1,
			"componentType":5126,
			"count":140,
			"type":"VEC3"
		},
		{
			"bufferView":2,
			"componentType":5123,
			"count":210,
			"type":"SCALAR"
		},
		{
			"bufferView":3,
			"componentType":5126,
			"count":140,
			"max":[
				1.0113047361373901,
				6.057386875152588,
				0.17886731028556824
			],
			"min":[
				-0.20875227451324463,
				0.5882017016410828,
				-1.1932711601257324
			],
			"type":"VEC3"
		},
		{
			"bufferView":4,
			"componentType":5126,
			"count":140,
			"type":"VEC3"
		},
		{
			"bufferView":5,
			"componentType":5123,
			"count":210,
			"type":"SCALAR"
		},
		{
			"bufferView":6,
			"componentType":5126,
			"count":432,
			"max":[
				3.5855588912963867,
				6.316549777984619,
				1.252013921737671
			],
			"min":[
				-1.5795211791992188,
				5.107415199279785,
				-3.4320833683013916
			],
			"type":"VEC3"
		},
		{
			"bufferView":7,
			"componentType":5126,
			"count":432,
			"type":"VEC3"
		},
		{
			"bufferView":8,
			"componentType":5123,
			"count":648,
			"type":"SCALAR"
		},
		{
			"bufferView":9,
			"componentType":5126,
			"count":120,
			"max":[
				1.0715328454971313,
				5.856482028961182,
				-0.7883904576301575
			],
			"min":[
				0.5949169397354126,
				5.647885322570801,
				-1.2296271324157715
			],
			"type":"VEC3"
		},
		{
			"bufferView":10,
			"componentType":5126,
			"count":120,
			"type":"VEC3"
		},
		{
			"bufferView":11,
			"componentType":5123,
			"count":120,
			"type":"SCALAR"
		}
	],
	"bufferViews":[
		{
			"buffer":0,
			"byteLength":1680,
			"byteOffset":0,
			"target":34962
		},
		{
			"buffer":0,
			"byteLength":1680,
			"byteOffset":1680,
			"target":34962
		},
		{
			"buffer":0,
			"byteLength":420,
			"byteOffset":3360,
			"target":34963
		},
		{
			"buffer":0,
			"byteLength":1680,
			"byteOffset":3780,
			"target":34962
		},
		{
			"buffer":0,
			"byteLength":1680,
			"byteOffset":5460,
			"target":34962
		},
		{
			"buffer":0,
			"byteLength":420,
			"byteOffset":7140,
			"target":34963
		},
		{
			"buffer":0,
			"byteLength":5184,
			"byteOffset":7560,
			"target":34962
		},
		{
			"buffer":0,
			"byteLength":5184,
			"byteOffset":12744,
			"target":34962
		},
		{
			"buffer":0,
			"byteLength":1296,
			"byteOffset":17928,
			"target":34963
		},
		{
			"buffer":0,
			"byteLength":1440,
			"byteOffset":19224,
			"target":34962
		},
		{
			"buffer":0,
			"byteLength":1440,
			"byteOffset":20664,
			"target":34962
		},
		{
			"buffer":0,
			"byteLength":240,
			"byteOffset":22104,
			"target":34963
		}
	],
	"buffers":[
		{
			"byteLength":22344,
			"uri":"palme_1.bin"
		}
	]
}
