{
	"asset":{
		"generator":"Khronos glTF Blender I/O v5.2.40",
		"version":"2.0"
	},
	"scene":0,
	"scenes":[
		{
			"name":"Scene",
			"nodes":[
				0
			]
		}
	],
	"nodes":[
		{
			"mesh":0,
			"name":"Palme"
		}
	],
	"materials":[
		{
			"alphaMode":"MASK",
			"doubleSided":true,
			"name":"Baum",
			"pbrMetallicRoughness":{
				"baseColorTexture":{
					"index":0
				},
				"metallicFactor":0,
				"roughnessFactor":0.8500000238418579
			}
		}
	],
	"meshes":[
		{
			"name":"Palme",
			"primitives":[
				{
					"attributes":{
						"POSITION":0,
						"NORMAL":1,
						"TEXCOORD_0":2,
						"COLOR_0":3
					},
					"indices":4,
					"material":0
				}
			]
		}
	],
	"textures":[
		{
			"sampler":0,
			"source":0
		}
	],
	"images":[
		{
			"mimeType":"image/png",
			"name":"Laub_Textur",
			"uri":"Laub_Textur.png"
		}
	],
	"accessors":[
		{
			"bufferView":0,
			"componentType":5126,
			"count":1472,
			"max":[
				1.4352058172225952,
				7.321267604827881,
				1.8945995569229126
			],
			"min":[
				-3.9474592208862305,
				0,
				-2.9940507411956787
			],
			"type":"VEC3"
		},
		{
			"bufferView":1,
			"componentType":5126,
			"count":1472,
			"type":"VEC3"
		},
		{
			"bufferView":2,
			"componentType":5126,
			"count":1472,
			"type":"VEC2"
		},
		{
			"bufferView":3,
			"componentType":5126,
			"count":1472,
			"type":"VEC3"
		},
		{
			"bufferView":4,
			"componentType":5123,
			"count":2460,
			"type":"SCALAR"
		}
	],
	"bufferViews":[
		{
			"buffer":0,
			"byteLength":17664,
			"byteOffset":0,
			"target":34962
		},
		{
			"buffer":0,
			"byteLength":17664,
			"byteOffset":17664,
			"target":34962
		},
		{
			"buffer":0,
			"byteLength":11776,
			"byteOffset":35328,
			"target":34962
		},
		{
			"buffer":0,
			"byteLength":17664,
			"byteOffset":47104,
			"target":34962
		},
		{
			"buffer":0,
			"byteLength":4920,
			"byteOffset":64768,
			"target":34963
		}
	],
	"samplers":[
		{
			"magFilter":9729,
			"minFilter":9987
		}
	],
	"buffers":[
		{
			"byteLength":69688,
			"uri":"palme_2.bin"
		}
	]
}
