{
	"asset":{
		"generator":"Khronos glTF Blender I/O v5.2.40",
		"version":"2.0"
	},
	"scene":0,
	"scenes":[
		{
			"name":"Scene",
			"nodes":[
				0
			]
		}
	],
	"nodes":[
		{
			"mesh":0,
			"name":"Schneetanne"
		}
	],
	"materials":[
		{
			"name":"df_rinde_dunkel",
			"pbrMetallicRoughness":{
				"baseColorFactor":[
					0.019382361322641373,
					0.014443843625485897,
					0.011612244881689548,
					1
				],
				"metallicFactor":0,
				"roughnessFactor":0.8999999761581421
			}
		},
		{
			"name":"df_rinde_hell",
			"pbrMetallicRoughness":{
				"baseColorFactor":[
					0.10461648553609848,
					0.07227185368537903,
					0.05126945674419403,
					1
				],
				"metallicFactor":0,
				"roughnessFactor":0.8999999761581421
			}
		},
		{
			"name":"df_nadel_dunkel",
			"pbrMetallicRoughness":{
				"baseColorFactor":[
					0.009134058840572834,
					0.02955683507025242,
					0.024157632142305374,
					1
				],
				"metallicFactor":0,
				"roughnessFactor":0.8999999761581421
			}
		},
		{
			"name":"df_nadel",
			"pbrMetallicRoughness":{
				"baseColorFactor":[
					0.016807375475764275,
					0.04970656707882881,
					0.0382043719291687,
					1
				],
				"metallicFactor":0,
				"roughnessFactor":0.8999999761581421
			}
		},
		{
			"name":"df_nadel_hell",
			"pbrMetallicRoughness":{
				"baseColorFactor":[
					0.028426039963960648,
					0.0802198201417923,
					0.05780543014407158,
					1
				],
				"metallicFactor":0,
				"roughnessFactor":0.8999999761581421
			}
		},
		{
			"name":"df_schnee",
			"pbrMetallicRoughness":{
				"baseColorFactor":[
					0.6653872728347778,
					0.715693473815918,
					0.7681511640548706,
					1
				],
				"metallicFactor":0,
				"roughnessFactor":0.8999999761581421
			}
		}
	],
	"meshes":[
		{
			"name":"Schneetanne",
			"primitives":[
				{
					"attributes":{
						"POSITION":0,
						"NORMAL":1
					},
					"indices":2,
					"material":0
				},
				{
					"attributes":{
						"POSITION":3,
						"NORMAL":4
					},
					"indices":5,
					"material":1
				},
				{
					"attributes":{
						"POSITION":6,
						"NORMAL":7
					},
					"indices":8,
					"material":2
				},
				{
					"attributes":{
						"POSITION":9,
						"NORMAL":10
					},
					"indices":11,
					"material":3
				},
				{
					"attributes":{
						"POSITION":12,
						"NORMAL":13
					},
					"indices":14,
					"material":4
				},
				{
					"attributes":{
						"POSITION":15,
						"NORMAL":16
					},
					"indices":17,
					"material":5
				}
			]
		}
	],
	"accessors":[
		{
			"bufferView":0,
			"componentType":5126,
			"count":3400,
			"max":[
				2.301893711090088,
				9.39026165008545,
				2.563169002532959
			],
			"min":[
				-2.4364986419677734,
				0,
				-2.5213382244110107
			],
			"type":"VEC3"
		},
		{
			"bufferView":1,
			"componentType":5126,
			"count":3400,
			"type":"VEC3"
		},
		{
			"bufferView":2,
			"componentType":5123,
			"count":4878,
			"type":"SCALAR"
		},
		{
			"bufferView":3,
			"componentType":5126,
			"count":60,
			"max":[
				0.02732846699655056,
				1.8844046592712402,
				1.2374293804168701
			],
			"min":[
				-2.669356107711792,
				1.6254433393478394,
				-0.05240415781736374
			],
			"type":"VEC3"
		},
		{
			"bufferView":4,
			"componentType":5126,
			"count":60,
			"type":"VEC3"
		},
		{
			"bufferView":5,
			"componentType":5123,
			"count":84,
			"type":"SCALAR"
		},
		{
			"bufferView":6,
			"componentType":5126,
			"count":410,
			"max":[
				2.3605010509490967,
				9.736176490783691,
				2.638216018676758
			],
			"min":[
				-2.386770725250244,
				0,
				-2.5744681358337402
			],
			"type":"VEC3"
		},
		{
			"bufferView":7,
			"componentType":5126,
			"count":410,
			"type":"VEC3"
		},
		{
			"bufferView":8,
			"componentType":5123,
			"count":570,
			"type":"SCALAR"
		},
		{
			"bufferView":9,
			"componentType":5126,
			"count":403,
			"max":[
				2.3605010509490967,
				9.736176490783691,
				2.638216018676758
			],
			"min":[
				-2.470224618911743,
				0,
				-2.5744681358337402
			],
			"type":"VEC3"
		},
		{
			"bufferView":10,
			"componentType":5126,
			"count":403,
			"type":"VEC3"
		},
		{
			"bufferView":11,
			"componentType":5123,
			"count":531,
			"type":"SCALAR"
		},
		{
			"bufferView":12,
			"componentType":5126,
			"count":370,
			"max":[
				2.3605010509490967,
				9.736176490783691,
				2.638216018676758
			],
			"min":[
				-2.470224618911743,
				0,
				-2.491631031036377
			],
			"type":"VEC3"
		},
		{
			"bufferView":13,
			"componentType":5126,
			"count":370,
			"type":"VEC3"
		},
		{
			"bufferView":14,
			"componentType":5123,
			"count":474,
			"type":"SCALAR"
		},
		{
			"bufferView":15,
			"componentType":5126,
			"count":189,
			"max":[
				2.3605010509490967,
				8.431581497192383,
				2.638216018676758
			],
			"min":[
				-2.470224618911743,
				0.4892905354499817,
				-2.5744681358337402
			],
			"type":"VEC3"
		},
		{
			"bufferView":16,
			"componentType":5126,
			"count":189,
			"type":"VEC3"
		},
		{
			"bufferView":17,
			"componentType":5123,
			"count":189,
			"type":"SCALAR"
		}
	],
	"bufferViews":[
		{
			"buffer":0,
			"byteLength":40800,
			"byteOffset":0,
			"target":34962
		},
		{
			"buffer":0,
			"byteLength":40800,
			"byteOffset":40800,
			"target":34962
		},
		{
			"buffer":0,
			"byteLength":9756,
			"byteOffset":81600,
			"target":34963
		},
		{
			"buffer":0,
			"byteLength":720,
			"byteOffset":91356,
			"target":34962
		},
		{
			"buffer":0,
			"byteLength":720,
			"byteOffset":92076,
			"target":34962
		},
		{
			"buffer":0,
			"byteLength":168,
			"byteOffset":92796,
			"target":34963
		},
		{
			"buffer":0,
			"byteLength":4920,
			"byteOffset":92964,
			"target":34962
		},
		{
			"buffer":0,
			"byteLength":4920,
			"byteOffset":97884,
			"target":34962
		},
		{
			"buffer":0,
			"byteLength":1140,
			"byteOffset":102804,
			"target":34963
		},
		{
			"buffer":0,
			"byteLength":4836,
			"byteOffset":103944,
			"target":34962
		},
		{
			"buffer":0,
			"byteLength":4836,
			"byteOffset":108780,
			"target":34962
		},
		{
			"buffer":0,
			"byteLength":1062,
			"byteOffset":113616,
			"target":34963
		},
		{
			"buffer":0,
			"byteLength":4440,
			"byteOffset":114680,
			"target":34962
		},
		{
			"buffer":0,
			"byteLength":4440,
			"byteOffset":119120,
			"target":34962
		},
		{
			"buffer":0,
			"byteLength":948,
			"byteOffset":123560,
			"target":34963
		},
		{
			"buffer":0,
			"byteLength":2268,
			"byteOffset":124508,
			"target":34962
		},
		{
			"buffer":0,
			"byteLength":2268,
			"byteOffset":126776,
			"target":34962
		},
		{
			"buffer":0,
			"byteLength":378,
			"byteOffset":129044,
			"target":34963
		}
	],
	"buffers":[
		{
			"byteLength":129424,
			"uri":"schneetanne_1.bin"
		}
	]
}
