{
	"asset":{
		"generator":"Khronos glTF Blender I/O v5.2.40",
		"version":"2.0"
	},
	"scene":0,
	"scenes":[
		{
			"name":"Scene",
			"nodes":[
				0
			]
		}
	],
	"nodes":[
		{
			"mesh":0,
			"name":"Schneetanne"
		}
	],
	"materials":[
		{
			"name":"df_rinde_dunkel",
			"pbrMetallicRoughness":{
				"baseColorFactor":[
					0.019382361322641373,
					0.014443843625485897,
					0.011612244881689548,
					1
				],
				"metallicFactor":0,
				"roughnessFactor":0.8999999761581421
			}
		},
		{
			"name":"df_rinde_hell",
			"pbrMetallicRoughness":{
				"baseColorFactor":[
					0.10461648553609848,
					0.07227185368537903,
					0.05126945674419403,
					1
				],
				"metallicFactor":0,
				"roughnessFactor":0.8999999761581421
			}
		},
		{
			"name":"df_nadel_dunkel",
			"pbrMetallicRoughness":{
				"baseColorFactor":[
					0.009134058840572834,
					0.02955683507025242,
					0.024157632142305374,
					1
				],
				"metallicFactor":0,
				"roughnessFactor":0.8999999761581421
			}
		},
		{
			"name":"df_nadel",
			"pbrMetallicRoughness":{
				"baseColorFactor":[
					0.016807375475764275,
					0.04970656707882881,
					0.0382043719291687,
					1
				],
				"metallicFactor":0,
				"roughnessFactor":0.8999999761581421
			}
		},
		{
			"name":"df_nadel_hell",
			"pbrMetallicRoughness":{
				"baseColorFactor":[
					0.028426039963960648,
					0.0802198201417923,
					0.05780543014407158,
					1
				],
				"metallicFactor":0,
				"roughnessFactor":0.8999999761581421
			}
		},
		{
			"name":"df_schnee",
			"pbrMetallicRoughness":{
				"baseColorFactor":[
					0.6653872728347778,
					0.715693473815918,
					0.7681511640548706,
					1
				],
				"metallicFactor":0,
				"roughnessFactor":0.8999999761581421
			}
		}
	],
	"meshes":[
		{
			"name":"Schneetanne",
			"primitives":[
				{
					"attributes":{
						"POSITION":0,
						"NORMAL":1
					},
					"indices":2,
					"material":0
				},
				{
					"attributes":{
						"POSITION":3,
						"NORMAL":4
					},
					"indices":5,
					"material":1
				},
				{
					"attributes":{
						"POSITION":6,
						"NORMAL":7
					},
					"indices":8,
					"material":2
				},
				{
					"attributes":{
						"POSITION":9,
						"NORMAL":10
					},
					"indices":11,
					"material":3
				},
				{
					"attributes":{
						"POSITION":12,
						"NORMAL":13
					},
					"indices":14,
					"material":4
				},
				{
					"attributes":{
						"POSITION":15,
						"NORMAL":16
					},
					"indices":17,
					"material":5
				}
			]
		}
	],
	"accessors":[
		{
			"bufferView":0,
			"componentType":5126,
			"count":3478,
			"max":[
				2.7736027240753174,
				9.331650733947754,
				2.7513678073883057
			],
			"min":[
				-2.3758389949798584,
				0,
				-2.853747844696045
			],
			"type":"VEC3"
		},
		{
			"bufferView":1,
			"componentType":5126,
			"count":3478,
			"type":"VEC3"
		},
		{
			"bufferView":2,
			"componentType":5123,
			"count":4962,
			"type":"SCALAR"
		},
		{
			"bufferView":3,
			"componentType":5126,
			"count":120,
			"max":[
				0.06549649685621262,
				1.7408881187438965,
				2.9395201206207275
			],
			"min":[
				-1.5275675058364868,
				0.8860147595405579,
				-2.274357318878174
			],
			"type":"VEC3"
		},
		{
			"bufferView":4,
			"componentType":5126,
			"count":120,
			"type":"VEC3"
		},
		{
			"bufferView":5,
			"componentType":5123,
			"count":168,
			"type":"SCALAR"
		},
		{
			"bufferView":6,
			"componentType":5126,
			"count":460,
			"max":[
				2.805126428604126,
				9.559249877929688,
				2.7389721870422363
			],
			"min":[
				-2.4703803062438965,
				0.030769243836402893,
				-2.9250011444091797
			],
			"type":"VEC3"
		},
		{
			"bufferView":7,
			"componentType":5126,
			"count":460,
			"type":"VEC3"
		},
		{
			"bufferView":8,
			"componentType":5123,
			"count":636,
			"type":"SCALAR"
		},
		{
			"bufferView":9,
			"componentType":5126,
			"count":392,
			"max":[
				2.805126428604126,
				9.559249877929688,
				2.7389721870422363
			],
			"min":[
				-2.4703803062438965,
				0.030769243836402893,
				-2.9250011444091797
			],
			"type":"VEC3"
		},
		{
			"bufferView":10,
			"componentType":5126,
			"count":392,
			"type":"VEC3"
		},
		{
			"bufferView":11,
			"componentType":5123,
			"count":528,
			"type":"SCALAR"
		},
		{
			"bufferView":12,
			"componentType":5126,
			"count":386,
			"max":[
				2.805126428604126,
				8.42275333404541,
				2.7389721870422363
			],
			"min":[
				-2.4703803062438965,
				0.030769243836402893,
				-2.9250011444091797
			],
			"type":"VEC3"
		},
		{
			"bufferView":13,
			"componentType":5126,
			"count":386,
			"type":"VEC3"
		},
		{
			"bufferView":14,
			"componentType":5123,
			"count":474,
			"type":"SCALAR"
		},
		{
			"bufferView":15,
			"componentType":5126,
			"count":162,
			"max":[
				2.198636293411255,
				8.42275333404541,
				2.7389721870422363
			],
			"min":[
				-2.4703803062438965,
				0.25423383712768555,
				-2.9250011444091797
			],
			"type":"VEC3"
		},
		{
			"bufferView":16,
			"componentType":5126,
			"count":162,
			"type":"VEC3"
		},
		{
			"bufferView":17,
			"componentType":5123,
			"count":162,
			"type":"SCALAR"
		}
	],
	"bufferViews":[
		{
			"buffer":0,
			"byteLength":41736,
			"byteOffset":0,
			"target":34962
		},
		{
			"buffer":0,
			"byteLength":41736,
			"byteOffset":41736,
			"target":34962
		},
		{
			"buffer":0,
			"byteLength":9924,
			"byteOffset":83472,
			"target":34963
		},
		{
			"buffer":0,
			"byteLength":1440,
			"byteOffset":93396,
			"target":34962
		},
		{
			"buffer":0,
			"byteLength":1440,
			"byteOffset":94836,
			"target":34962
		},
		{
			"buffer":0,
			"byteLength":336,
			"byteOffset":96276,
			"target":34963
		},
		{
			"buffer":0,
			"byteLength":5520,
			"byteOffset":96612,
			"target":34962
		},
		{
			"buffer":0,
			"byteLength":5520,
			"byteOffset":102132,
			"target":34962
		},
		{
			"buffer":0,
			"byteLength":1272,
			"byteOffset":107652,
			"target":34963
		},
		{
			"buffer":0,
			"byteLength":4704,
			"byteOffset":108924,
			"target":34962
		},
		{
			"buffer":0,
			"byteLength":4704,
			"byteOffset":113628,
			"target":34962
		},
		{
			"buffer":0,
			"byteLength":1056,
			"byteOffset":118332,
			"target":34963
		},
		{
			"buffer":0,
			"byteLength":4632,
			"byteOffset":119388,
			"target":34962
		},
		{
			"buffer":0,
			"byteLength":4632,
			"byteOffset":124020,
			"target":34962
		},
		{
			"buffer":0,
			"byteLength":948,
			"byteOffset":128652,
			"target":34963
		},
		{
			"buffer":0,
			"byteLength":1944,
			"byteOffset":129600,
			"target":34962
		},
		{
			"buffer":0,
			"byteLength":1944,
			"byteOffset":131544,
			"target":34962
		},
		{
			"buffer":0,
			"byteLength":324,
			"byteOffset":133488,
			"target":34963
		}
	],
	"buffers":[
		{
			"byteLength":133812,
			"uri":"schneetanne_2.bin"
		}
	]
}
