{
	"asset":{
		"generator":"Khronos glTF Blender I/O v5.2.40",
		"version":"2.0"
	},
	"scene":0,
	"scenes":[
		{
			"name":"Scene",
			"nodes":[
				0
			]
		}
	],
	"nodes":[
		{
			"mesh":0,
			"name":"Seerosen"
		}
	],
	"materials":[
		{
			"doubleSided":true,
			"name":"Vorkommen",
			"pbrMetallicRoughness":{
				"metallicFactor":0,
				"roughnessFactor":0.8500000238418579
			}
		}
	],
	"meshes":[
		{
			"name":"Seerosen",
			"primitives":[
				{
					"attributes":{
						"POSITION":0,
						"NORMAL":1,
						"COLOR_0":2
					},
					"indices":3,
					"material":0
				}
			]
		}
	],
	"accessors":[
		{
			"bufferView":0,
			"componentType":5126,
			"count":840,
			"max":[
				1.0322163105010986,
				0.0891561508178711,
				0.7204581499099731
			],
			"min":[
				-1.0322163105010986,
				0,
				-0.7204581499099731
			],
			"type":"VEC3"
		},
		{
			"bufferView":1,
			"componentType":5126,
			"count":840,
			"type":"VEC3"
		},
		{
			"bufferView":2,
			"componentType":5126,
			"count":840,
			"type":"VEC3"
		},
		{
			"bufferView":3,
			"componentType":5123,
			"count":1152,
			"type":"SCALAR"
		}
	],
	"bufferViews":[
		{
			"buffer":0,
			"byteLength":10080,
			"byteOffset":0,
			"target":34962
		},
		{
			"buffer":0,
			"byteLength":10080,
			"byteOffset":10080,
			"target":34962
		},
		{
			"buffer":0,
			"byteLength":10080,
			"byteOffset":20160,
			"target":34962
		},
		{
			"buffer":0,
			"byteLength":2304,
			"byteOffset":30240,
			"target":34963
		}
	],
	"buffers":[
		{
			"byteLength":32544,
			"uri":"seerosen_2.bin"
		}
	]
}
