{
	"asset":{
		"generator":"Khronos glTF Blender I/O v5.2.40",
		"version":"2.0"
	},
	"scene":0,
	"scenes":[
		{
			"name":"Scene",
			"nodes":[
				0
			]
		}
	],
	"nodes":[
		{
			"mesh":0,
			"name":"Steinvorkommen"
		}
	],
	"materials":[
		{
			"doubleSided":true,
			"name":"Vorkommen",
			"pbrMetallicRoughness":{
				"metallicFactor":0,
				"roughnessFactor":0.8500000238418579
			}
		}
	],
	"meshes":[
		{
			"name":"Steinvorkommen",
			"primitives":[
				{
					"attributes":{
						"POSITION":0,
						"NORMAL":1,
						"COLOR_0":2
					},
					"indices":3,
					"material":0
				}
			]
		}
	],
	"accessors":[
		{
			"bufferView":0,
			"componentType":5126,
			"count":10374,
			"max":[
				1.2130036354064941,
				0.8397107124328613,
				1.145526647567749
			],
			"min":[
				-1.2130036354064941,
				0,
				-1.145526647567749
			],
			"type":"VEC3"
		},
		{
			"bufferView":1,
			"componentType":5126,
			"count":10374,
			"type":"VEC3"
		},
		{
			"bufferView":2,
			"componentType":5126,
			"count":10374,
			"type":"VEC3"
		},
		{
			"bufferView":3,
			"componentType":5123,
			"count":10374,
			"type":"SCALAR"
		}
	],
	"bufferViews":[
		{
			"buffer":0,
			"byteLength":124488,
			"byteOffset":0,
			"target":34962
		},
		{
			"buffer":0,
			"byteLength":124488,
			"byteOffset":124488,
			"target":34962
		},
		{
			"buffer":0,
			"byteLength":124488,
			"byteOffset":248976,
			"target":34962
		},
		{
			"buffer":0,
			"byteLength":20748,
			"byteOffset":373464,
			"target":34963
		}
	],
	"buffers":[
		{
			"byteLength":394212,
			"uri":"steinvorkommen_3.bin"
		}
	]
}
