{
	"asset":{
		"generator":"Khronos glTF Blender I/O v5.2.40",
		"version":"2.0"
	},
	"scene":0,
	"scenes":[
		{
			"name":"Scene",
			"nodes":[
				0
			]
		}
	],
	"nodes":[
		{
			"mesh":0,
			"name":"Steinvorkommen"
		}
	],
	"materials":[
		{
			"name":"stein",
			"pbrMetallicRoughness":{
				"baseColorFactor":[
					0.2541520893573761,
					0.2345505803823471,
					0.2015562504529953,
					1
				],
				"metallicFactor":0,
				"roughnessFactor":0.8999999761581421
			}
		},
		{
			"name":"stein_hell",
			"pbrMetallicRoughness":{
				"baseColorFactor":[
					0.3967552185058594,
					0.37123769521713257,
					0.32314321398735046,
					1
				],
				"metallicFactor":0,
				"roughnessFactor":0.8999999761581421
			}
		},
		{
			"name":"stein_dunkel",
			"pbrMetallicRoughness":{
				"baseColorFactor":[
					0.13286831974983215,
					0.12213877588510513,
					0.10702310502529144,
					1
				],
				"metallicFactor":0,
				"roughnessFactor":0.8999999761581421
			}
		}
	],
	"meshes":[
		{
			"name":"Steinvorkommen",
			"primitives":[
				{
					"attributes":{
						"POSITION":0,
						"NORMAL":1
					},
					"indices":2,
					"material":0
				},
				{
					"attributes":{
						"POSITION":3,
						"NORMAL":4
					},
					"indices":5,
					"material":1
				},
				{
					"attributes":{
						"POSITION":6,
						"NORMAL":7
					},
					"indices":8,
					"material":2
				}
			]
		}
	],
	"accessors":[
		{
			"bufferView":0,
			"componentType":5126,
			"count":631,
			"max":[
				0.8242632746696472,
				0.767885148525238,
				1.1126394271850586
			],
			"min":[
				-0.4273226261138916,
				0,
				-0.993864119052887
			],
			"type":"VEC3"
		},
		{
			"bufferView":1,
			"componentType":5126,
			"count":631,
			"type":"VEC3"
		},
		{
			"bufferView":2,
			"componentType":5123,
			"count":717,
			"type":"SCALAR"
		},
		{
			"bufferView":3,
			"componentType":5126,
			"count":243,
			"max":[
				0.7686153650283813,
				0.767885148525238,
				1.0400855541229248
			],
			"min":[
				-0.3691706657409668,
				0.07818625122308731,
				-0.9624385237693787
			],
			"type":"VEC3"
		},
		{
			"bufferView":4,
			"componentType":5126,
			"count":243,
			"type":"VEC3"
		},
		{
			"bufferView":5,
			"componentType":5123,
			"count":243,
			"type":"SCALAR"
		},
		{
			"bufferView":6,
			"componentType":5126,
			"count":480,
			"max":[
				0.796951949596405,
				0.10935075581073761,
				0.9542141556739807
			],
			"min":[
				-0.8242632746696472,
				0,
				-1.1126394271850586
			],
			"type":"VEC3"
		},
		{
			"bufferView":7,
			"componentType":5126,
			"count":480,
			"type":"VEC3"
		},
		{
			"bufferView":8,
			"componentType":5123,
			"count":480,
			"type":"SCALAR"
		}
	],
	"bufferViews":[
		{
			"buffer":0,
			"byteLength":7572,
			"byteOffset":0,
			"target":34962
		},
		{
			"buffer":0,
			"byteLength":7572,
			"byteOffset":7572,
			"target":34962
		},
		{
			"buffer":0,
			"byteLength":1434,
			"byteOffset":15144,
			"target":34963
		},
		{
			"buffer":0,
			"byteLength":2916,
			"byteOffset":16580,
			"target":34962
		},
		{
			"buffer":0,
			"byteLength":2916,
			"byteOffset":19496,
			"target":34962
		},
		{
			"buffer":0,
			"byteLength":486,
			"byteOffset":22412,
			"target":34963
		},
		{
			"buffer":0,
			"byteLength":5760,
			"byteOffset":22900,
			"target":34962
		},
		{
			"buffer":0,
			"byteLength":5760,
			"byteOffset":28660,
			"target":34962
		},
		{
			"buffer":0,
			"byteLength":960,
			"byteOffset":34420,
			"target":34963
		}
	],
	"buffers":[
		{
			"byteLength":35380,
			"uri":"steinvorkommen_1.bin"
		}
	]
}
