{
	"asset":{
		"generator":"Khronos glTF Blender I/O v5.2.40",
		"version":"2.0"
	},
	"scene":0,
	"scenes":[
		{
			"name":"Scene",
			"nodes":[
				0
			]
		}
	],
	"nodes":[
		{
			"mesh":0,
			"name":"Tanne"
		}
	],
	"materials":[
		{
			"alphaMode":"MASK",
			"doubleSided":true,
			"name":"Baum",
			"pbrMetallicRoughness":{
				"baseColorTexture":{
					"index":0
				},
				"metallicFactor":0,
				"roughnessFactor":0.8500000238418579
			}
		}
	],
	"meshes":[
		{
			"name":"Tanne",
			"primitives":[
				{
					"attributes":{
						"POSITION":0,
						"NORMAL":1,
						"TEXCOORD_0":2,
						"COLOR_0":3
					},
					"indices":4,
					"material":0
				}
			]
		}
	],
	"textures":[
		{
			"sampler":0,
			"source":0
		}
	],
	"images":[
		{
			"mimeType":"image/png",
			"name":"Laub_Textur",
			"uri":"Laub_Textur.png"
		}
	],
	"accessors":[
		{
			"bufferView":0,
			"componentType":5126,
			"count":3901,
			"max":[
				3.396070718765259,
				8.737837791442871,
				3.3627965450286865
			],
			"min":[
				-3.17502760887146,
				0,
				-3.137396812438965
			],
			"type":"VEC3"
		},
		{
			"bufferView":1,
			"componentType":5126,
			"count":3901,
			"type":"VEC3"
		},
		{
			"bufferView":2,
			"componentType":5126,
			"count":3901,
			"type":"VEC2"
		},
		{
			"bufferView":3,
			"componentType":5126,
			"count":3901,
			"type":"VEC3"
		},
		{
			"bufferView":4,
			"componentType":5123,
			"count":5829,
			"type":"SCALAR"
		}
	],
	"bufferViews":[
		{
			"buffer":0,
			"byteLength":46812,
			"byteOffset":0,
			"target":34962
		},
		{
			"buffer":0,
			"byteLength":46812,
			"byteOffset":46812,
			"target":34962
		},
		{
			"buffer":0,
			"byteLength":31208,
			"byteOffset":93624,
			"target":34962
		},
		{
			"buffer":0,
			"byteLength":46812,
			"byteOffset":124832,
			"target":34962
		},
		{
			"buffer":0,
			"byteLength":11658,
			"byteOffset":171644,
			"target":34963
		}
	],
	"samplers":[
		{
			"magFilter":9729,
			"minFilter":9987
		}
	],
	"buffers":[
		{
			"byteLength":183304,
			"uri":"tanne_3.bin"
		}
	]
}
