{
	"asset":{
		"generator":"Khronos glTF Blender I/O v5.2.40",
		"version":"2.0"
	},
	"scene":0,
	"scenes":[
		{
			"name":"Scene",
			"nodes":[
				0
			]
		}
	],
	"nodes":[
		{
			"mesh":0,
			"name":"Tanne"
		}
	],
	"materials":[
		{
			"alphaMode":"MASK",
			"doubleSided":true,
			"name":"Baum",
			"pbrMetallicRoughness":{
				"baseColorTexture":{
					"index":0
				},
				"metallicFactor":0,
				"roughnessFactor":0.8500000238418579
			}
		}
	],
	"meshes":[
		{
			"name":"Tanne",
			"primitives":[
				{
					"attributes":{
						"POSITION":0,
						"NORMAL":1,
						"TEXCOORD_0":2,
						"COLOR_0":3
					},
					"indices":4,
					"material":0
				}
			]
		}
	],
	"textures":[
		{
			"sampler":0,
			"source":0
		}
	],
	"images":[
		{
			"mimeType":"image/png",
			"name":"Laub_Textur",
			"uri":"Laub_Textur.png"
		}
	],
	"accessors":[
		{
			"bufferView":0,
			"componentType":5126,
			"count":4093,
			"max":[
				3.2229135036468506,
				9.239076614379883,
				2.8743937015533447
			],
			"min":[
				-3.0384750366210938,
				0,
				-3.2614011764526367
			],
			"type":"VEC3"
		},
		{
			"bufferView":1,
			"componentType":5126,
			"count":4093,
			"type":"VEC3"
		},
		{
			"bufferView":2,
			"componentType":5126,
			"count":4093,
			"type":"VEC2"
		},
		{
			"bufferView":3,
			"componentType":5126,
			"count":4093,
			"type":"VEC3"
		},
		{
			"bufferView":4,
			"componentType":5123,
			"count":6117,
			"type":"SCALAR"
		}
	],
	"bufferViews":[
		{
			"buffer":0,
			"byteLength":49116,
			"byteOffset":0,
			"target":34962
		},
		{
			"buffer":0,
			"byteLength":49116,
			"byteOffset":49116,
			"target":34962
		},
		{
			"buffer":0,
			"byteLength":32744,
			"byteOffset":98232,
			"target":34962
		},
		{
			"buffer":0,
			"byteLength":49116,
			"byteOffset":130976,
			"target":34962
		},
		{
			"buffer":0,
			"byteLength":12234,
			"byteOffset":180092,
			"target":34963
		}
	],
	"samplers":[
		{
			"magFilter":9729,
			"minFilter":9987
		}
	],
	"buffers":[
		{
			"byteLength":192328,
			"uri":"tanne_1.bin"
		}
	]
}
