{
	"asset":{
		"generator":"Khronos glTF Blender I/O v5.2.40",
		"version":"2.0"
	},
	"scene":0,
	"scenes":[
		{
			"name":"Scene",
			"nodes":[
				0
			]
		}
	],
	"nodes":[
		{
			"mesh":0,
			"name":"Treibholz"
		}
	],
	"materials":[
		{
			"doubleSided":true,
			"name":"Vorkommen",
			"pbrMetallicRoughness":{
				"metallicFactor":0,
				"roughnessFactor":0.8500000238418579
			}
		}
	],
	"meshes":[
		{
			"name":"Treibholz",
			"primitives":[
				{
					"attributes":{
						"POSITION":0,
						"NORMAL":1,
						"COLOR_0":2
					},
					"indices":3,
					"material":0
				}
			]
		}
	],
	"accessors":[
		{
			"bufferView":0,
			"componentType":5126,
			"count":468,
			"max":[
				0.8209454417228699,
				0.19796396791934967,
				0.42099571228027344
			],
			"min":[
				-0.8209454417228699,
				0,
				-0.42099571228027344
			],
			"type":"VEC3"
		},
		{
			"bufferView":1,
			"componentType":5126,
			"count":468,
			"type":"VEC3"
		},
		{
			"bufferView":2,
			"componentType":5126,
			"count":468,
			"type":"VEC3"
		},
		{
			"bufferView":3,
			"componentType":5123,
			"count":732,
			"type":"SCALAR"
		}
	],
	"bufferViews":[
		{
			"buffer":0,
			"byteLength":5616,
			"byteOffset":0,
			"target":34962
		},
		{
			"buffer":0,
			"byteLength":5616,
			"byteOffset":5616,
			"target":34962
		},
		{
			"buffer":0,
			"byteLength":5616,
			"byteOffset":11232,
			"target":34962
		},
		{
			"buffer":0,
			"byteLength":1464,
			"byteOffset":16848,
			"target":34963
		}
	],
	"buffers":[
		{
			"byteLength":18312,
			"uri":"treibholz_3.bin"
		}
	]
}
