{
	"asset":{
		"generator":"Khronos glTF Blender I/O v5.2.40",
		"version":"2.0"
	},
	"extensionsUsed":[
		"KHR_materials_emissive_strength"
	],
	"scene":0,
	"scenes":[
		{
			"name":"Scene",
			"nodes":[
				0
			]
		}
	],
	"nodes":[
		{
			"mesh":0,
			"name":"Zauberbaum"
		}
	],
	"materials":[
		{
			"name":"bm_zauber_rinde",
			"pbrMetallicRoughness":{
				"baseColorFactor":[
					0.02518685907125473,
					0.021219009533524513,
					0.03310476616024971,
					1
				],
				"metallicFactor":0,
				"roughnessFactor":0.8999999761581421
			}
		},
		{
			"name":"bm_zauber_rinde_hell",
			"pbrMetallicRoughness":{
				"baseColorFactor":[
					0.04817182570695877,
					0.039546236395835876,
					0.06480326503515244,
					1
				],
				"metallicFactor":0,
				"roughnessFactor":0.8999999761581421
			}
		},
		{
			"name":"bm_zauber_violett",
			"pbrMetallicRoughness":{
				"baseColorFactor":[
					0.07618538290262222,
					0.04970656707882881,
					0.1946178376674652,
					1
				],
				"metallicFactor":0,
				"roughnessFactor":0.8999999761581421
			}
		},
		{
			"name":"bm_zauber_tuerkis",
			"pbrMetallicRoughness":{
				"baseColorFactor":[
					0.04970656707882881,
					0.21223075687885284,
					0.2158605009317398,
					1
				],
				"metallicFactor":0,
				"roughnessFactor":0.8999999761581421
			}
		},
		{
			"name":"bm_zauber_violett_hell",
			"pbrMetallicRoughness":{
				"baseColorFactor":[
					0.1441284716129303,
					0.09305896610021591,
					0.35153260827064514,
					1
				],
				"metallicFactor":0,
				"roughnessFactor":0.8999999761581421
			}
		},
		{
			"name":"bm_zauber_dunkel",
			"pbrMetallicRoughness":{
				"baseColorFactor":[
					0.027320891618728638,
					0.019382361322641373,
					0.0802198201417923,
					1
				],
				"metallicFactor":0,
				"roughnessFactor":0.8999999761581421
			}
		},
		{
			"emissiveFactor":[
				0.43415364623069763,
				0.2622506618499756,
				1
			],
			"extensions":{
				"KHR_materials_emissive_strength":{
					"emissiveStrength":4
				}
			},
			"name":"bm_zauber_glut",
			"pbrMetallicRoughness":{
				"baseColorFactor":[
					0.43415364623069763,
					0.2622506618499756,
					1,
					1
				],
				"metallicFactor":0,
				"roughnessFactor":0.8999999761581421
			}
		}
	],
	"meshes":[
		{
			"name":"Zauberbaum",
			"primitives":[
				{
					"attributes":{
						"POSITION":0,
						"NORMAL":1
					},
					"indices":2,
					"material":0
				},
				{
					"attributes":{
						"POSITION":3,
						"NORMAL":4
					},
					"indices":5,
					"material":1
				},
				{
					"attributes":{
						"POSITION":6,
						"NORMAL":7
					},
					"indices":8,
					"material":2
				},
				{
					"attributes":{
						"POSITION":9,
						"NORMAL":10
					},
					"indices":11,
					"material":3
				},
				{
					"attributes":{
						"POSITION":12,
						"NORMAL":13
					},
					"indices":14,
					"material":4
				},
				{
					"attributes":{
						"POSITION":15,
						"NORMAL":16
					},
					"indices":17,
					"material":5
				},
				{
					"attributes":{
						"POSITION":18,
						"NORMAL":19
					},
					"indices":20,
					"material":6
				}
			]
		}
	],
	"accessors":[
		{
			"bufferView":0,
			"componentType":5126,
			"count":1556,
			"max":[
				1.0927188396453857,
				5.967751979827881,
				1.0335588455200195
			],
			"min":[
				-1.2697958946228027,
				0,
				-1.7459781169891357
			],
			"type":"VEC3"
		},
		{
			"bufferView":1,
			"componentType":5126,
			"count":1556,
			"type":"VEC3"
		},
		{
			"bufferView":2,
			"componentType":5123,
			"count":2436,
			"type":"SCALAR"
		},
		{
			"bufferView":3,
			"componentType":5126,
			"count":808,
			"max":[
				1.0905388593673706,
				5.950631141662598,
				1.0335588455200195
			],
			"min":[
				-1.2697958946228027,
				0,
				-1.7459781169891357
			],
			"type":"VEC3"
		},
		{
			"bufferView":4,
			"componentType":5126,
			"count":808,
			"type":"VEC3"
		},
		{
			"bufferView":5,
			"componentType":5123,
			"count":1260,
			"type":"SCALAR"
		},
		{
			"bufferView":6,
			"componentType":5126,
			"count":402,
			"max":[
				0.757917046546936,
				6.297418594360352,
				1.6882081031799316
			],
			"min":[
				-1.6557626724243164,
				4.453160285949707,
				-2.1730194091796875
			],
			"type":"VEC3"
		},
		{
			"bufferView":7,
			"componentType":5126,
			"count":402,
			"type":"VEC3"
		},
		{
			"bufferView":8,
			"componentType":5123,
			"count":402,
			"type":"SCALAR"
		},
		{
			"bufferView":9,
			"componentType":5126,
			"count":396,
			"max":[
				0.757917046546936,
				6.297418594360352,
				1.6882081031799316
			],
			"min":[
				-1.7384568452835083,
				4.453160285949707,
				-2.1730194091796875
			],
			"type":"VEC3"
		},
		{
			"bufferView":10,
			"componentType":5126,
			"count":396,
			"type":"VEC3"
		},
		{
			"bufferView":11,
			"componentType":5123,
			"count":396,
			"type":"SCALAR"
		},
		{
			"bufferView":12,
			"componentType":5126,
			"count":468,
			"max":[
				0.757917046546936,
				6.370851516723633,
				1.6882081031799316
			],
			"min":[
				-1.7384568452835083,
				4.456446647644043,
				-2.1730194091796875
			],
			"type":"VEC3"
		},
		{
			"bufferView":13,
			"componentType":5126,
			"count":468,
			"type":"VEC3"
		},
		{
			"bufferView":14,
			"componentType":5123,
			"count":468,
			"type":"SCALAR"
		},
		{
			"bufferView":15,
			"componentType":5126,
			"count":774,
			"max":[
				0.757917046546936,
				6.141813278198242,
				1.6428165435791016
			],
			"min":[
				-1.7384568452835083,
				4.343501091003418,
				-2.1730194091796875
			],
			"type":"VEC3"
		},
		{
			"bufferView":16,
			"componentType":5126,
			"count":774,
			"type":"VEC3"
		},
		{
			"bufferView":17,
			"componentType":5123,
			"count":774,
			"type":"SCALAR"
		},
		{
			"bufferView":18,
			"componentType":5126,
			"count":660,
			"max":[
				0.4136590361595154,
				5.778219223022461,
				0.8305628895759583
			],
			"min":[
				-1.6369668245315552,
				4.283212184906006,
				-2.020660638809204
			],
			"type":"VEC3"
		},
		{
			"bufferView":19,
			"componentType":5126,
			"count":660,
			"type":"VEC3"
		},
		{
			"bufferView":20,
			"componentType":5123,
			"count":660,
			"type":"SCALAR"
		}
	],
	"bufferViews":[
		{
			"buffer":0,
			"byteLength":18672,
			"byteOffset":0,
			"target":34962
		},
		{
			"buffer":0,
			"byteLength":18672,
			"byteOffset":18672,
			"target":34962
		},
		{
			"buffer":0,
			"byteLength":4872,
			"byteOffset":37344,
			"target":34963
		},
		{
			"buffer":0,
			"byteLength":9696,
			"byteOffset":42216,
			"target":34962
		},
		{
			"buffer":0,
			"byteLength":9696,
			"byteOffset":51912,
			"target":34962
		},
		{
			"buffer":0,
			"byteLength":2520,
			"byteOffset":61608,
			"target":34963
		},
		{
			"buffer":0,
			"byteLength":4824,
			"byteOffset":64128,
			"target":34962
		},
		{
			"buffer":0,
			"byteLength":4824,
			"byteOffset":68952,
			"target":34962
		},
		{
			"buffer":0,
			"byteLength":804,
			"byteOffset":73776,
			"target":34963
		},
		{
			"buffer":0,
			"byteLength":4752,
			"byteOffset":74580,
			"target":34962
		},
		{
			"buffer":0,
			"byteLength":4752,
			"byteOffset":79332,
			"target":34962
		},
		{
			"buffer":0,
			"byteLength":792,
			"byteOffset":84084,
			"target":34963
		},
		{
			"buffer":0,
			"byteLength":5616,
			"byteOffset":84876,
			"target":34962
		},
		{
			"buffer":0,
			"byteLength":5616,
			"byteOffset":90492,
			"target":34962
		},
		{
			"buffer":0,
			"byteLength":936,
			"byteOffset":96108,
			"target":34963
		},
		{
			"buffer":0,
			"byteLength":9288,
			"byteOffset":97044,
			"target":34962
		},
		{
			"buffer":0,
			"byteLength":9288,
			"byteOffset":106332,
			"target":34962
		},
		{
			"buffer":0,
			"byteLength":1548,
			"byteOffset":115620,
			"target":34963
		},
		{
			"buffer":0,
			"byteLength":7920,
			"byteOffset":117168,
			"target":34962
		},
		{
			"buffer":0,
			"byteLength":7920,
			"byteOffset":125088,
			"target":34962
		},
		{
			"buffer":0,
			"byteLength":1320,
			"byteOffset":133008,
			"target":34963
		}
	],
	"buffers":[
		{
			"byteLength":134328,
			"uri":"zauberbaum_2.bin"
		}
	]
}
