{
	"asset":{
		"generator":"Khronos glTF Blender I/O v5.2.40",
		"version":"2.0"
	},
	"extensionsUsed":[
		"KHR_materials_emissive_strength"
	],
	"scene":0,
	"scenes":[
		{
			"name":"Scene",
			"nodes":[
				0
			]
		}
	],
	"nodes":[
		{
			"mesh":0,
			"name":"Zauberbaum"
		}
	],
	"materials":[
		{
			"name":"df_zauber_rinde",
			"pbrMetallicRoughness":{
				"baseColorFactor":[
					0.010960093699395657,
					0.009134058840572834,
					0.013702083379030228,
					1
				],
				"metallicFactor":0,
				"roughnessFactor":0.8999999761581421
			}
		},
		{
			"name":"df_zauber_blatt",
			"pbrMetallicRoughness":{
				"baseColorFactor":[
					0.03310476616024971,
					0.022173885256052017,
					0.06847816705703735,
					1
				],
				"metallicFactor":0,
				"roughnessFactor":0.8999999761581421
			}
		},
		{
			"name":"df_zauber_blatt_hell",
			"pbrMetallicRoughness":{
				"baseColorFactor":[
					0.06847816705703735,
					0.0423114113509655,
					0.13286831974983215,
					1
				],
				"metallicFactor":0,
				"roughnessFactor":0.8999999761581421
			}
		},
		{
			"emissiveFactor":[
				0.3762621283531189,
				0.19806931912899017,
				1
			],
			"extensions":{
				"KHR_materials_emissive_strength":{
					"emissiveStrength":4
				}
			},
			"name":"df_zauber_glut",
			"pbrMetallicRoughness":{
				"baseColorFactor":[
					0.3762621283531189,
					0.19806931912899017,
					1,
					1
				],
				"metallicFactor":0,
				"roughnessFactor":0.8999999761581421
			}
		}
	],
	"meshes":[
		{
			"name":"Zauberbaum",
			"primitives":[
				{
					"attributes":{
						"POSITION":0,
						"NORMAL":1
					},
					"indices":2,
					"material":0
				},
				{
					"attributes":{
						"POSITION":3,
						"NORMAL":4
					},
					"indices":5,
					"material":1
				},
				{
					"attributes":{
						"POSITION":6,
						"NORMAL":7
					},
					"indices":8,
					"material":2
				},
				{
					"attributes":{
						"POSITION":9,
						"NORMAL":10
					},
					"indices":11,
					"material":3
				}
			]
		}
	],
	"accessors":[
		{
			"bufferView":0,
			"componentType":5126,
			"count":1523,
			"max":[
				0.7872979044914246,
				5.0790910720825195,
				1.1836793422698975
			],
			"min":[
				-2.3789875507354736,
				0,
				-0.8052154183387756
			],
			"type":"VEC3"
		},
		{
			"bufferView":1,
			"componentType":5126,
			"count":1523,
			"type":"VEC3"
		},
		{
			"bufferView":2,
			"componentType":5123,
			"count":2403,
			"type":"SCALAR"
		},
		{
			"bufferView":3,
			"componentType":5126,
			"count":147,
			"max":[
				0.17469128966331482,
				5.40727424621582,
				1.546004056930542
			],
			"min":[
				-2.1092913150787354,
				4.218337535858154,
				-0.3578159511089325
			],
			"type":"VEC3"
		},
		{
			"bufferView":4,
			"componentType":5126,
			"count":147,
			"type":"VEC3"
		},
		{
			"bufferView":5,
			"componentType":5123,
			"count":147,
			"type":"SCALAR"
		},
		{
			"bufferView":6,
			"componentType":5126,
			"count":153,
			"max":[
				0.17469128966331482,
				5.40727424621582,
				1.546004056930542
			],
			"min":[
				-2.1092913150787354,
				4.218337535858154,
				-0.3578159511089325
			],
			"type":"VEC3"
		},
		{
			"bufferView":7,
			"componentType":5126,
			"count":153,
			"type":"VEC3"
		},
		{
			"bufferView":8,
			"componentType":5123,
			"count":153,
			"type":"SCALAR"
		},
		{
			"bufferView":9,
			"componentType":5126,
			"count":120,
			"max":[
				-0.39661744236946106,
				4.797187805175781,
				1.0285594463348389
			],
			"min":[
				-1.6081302165985107,
				4.413544178009033,
				0.38831111788749695
			],
			"type":"VEC3"
		},
		{
			"bufferView":10,
			"componentType":5126,
			"count":120,
			"type":"VEC3"
		},
		{
			"bufferView":11,
			"componentType":5123,
			"count":120,
			"type":"SCALAR"
		}
	],
	"bufferViews":[
		{
			"buffer":0,
			"byteLength":18276,
			"byteOffset":0,
			"target":34962
		},
		{
			"buffer":0,
			"byteLength":18276,
			"byteOffset":18276,
			"target":34962
		},
		{
			"buffer":0,
			"byteLength":4806,
			"byteOffset":36552,
			"target":34963
		},
		{
			"buffer":0,
			"byteLength":1764,
			"byteOffset":41360,
			"target":34962
		},
		{
			"buffer":0,
			"byteLength":1764,
			"byteOffset":43124,
			"target":34962
		},
		{
			"buffer":0,
			"byteLength":294,
			"byteOffset":44888,
			"target":34963
		},
		{
			"buffer":0,
			"byteLength":1836,
			"byteOffset":45184,
			"target":34962
		},
		{
			"buffer":0,
			"byteLength":1836,
			"byteOffset":47020,
			"target":34962
		},
		{
			"buffer":0,
			"byteLength":306,
			"byteOffset":48856,
			"target":34963
		},
		{
			"buffer":0,
			"byteLength":1440,
			"byteOffset":49164,
			"target":34962
		},
		{
			"buffer":0,
			"byteLength":1440,
			"byteOffset":50604,
			"target":34962
		},
		{
			"buffer":0,
			"byteLength":240,
			"byteOffset":52044,
			"target":34963
		}
	],
	"buffers":[
		{
			"byteLength":52284,
			"uri":"zauberbaum_1.bin"
		}
	]
}
