{
	"asset":{
		"generator":"Khronos glTF Blender I/O v5.2.40",
		"version":"2.0"
	},
	"extensionsUsed":[
		"KHR_materials_emissive_strength"
	],
	"scene":0,
	"scenes":[
		{
			"name":"Scene",
			"nodes":[
				0
			]
		}
	],
	"nodes":[
		{
			"mesh":0,
			"name":"beute_runenfragment"
		}
	],
	"materials":[
		{
			"doubleSided":true,
			"name":"Vorkommen",
			"pbrMetallicRoughness":{
				"metallicFactor":0,
				"roughnessFactor":0.8500000238418579
			}
		},
		{
			"doubleSided":true,
			"emissiveFactor":[
				1,
				0.43415364623069763,
				0.0802198201417923
			],
			"extensions":{
				"KHR_materials_emissive_strength":{
					"emissiveStrength":2.200000047683716
				}
			},
			"name":"beute_runenfragmentLeuchten",
			"pbrMetallicRoughness":{
				"metallicFactor":0,
				"roughnessFactor":0.5
			}
		}
	],
	"meshes":[
		{
			"name":"beute_runenfragment",
			"primitives":[
				{
					"attributes":{
						"POSITION":0,
						"NORMAL":1,
						"COLOR_0":2
					},
					"indices":3,
					"material":0
				},
				{
					"attributes":{
						"POSITION":4,
						"NORMAL":5,
						"COLOR_0":6
					},
					"indices":7,
					"material":1
				}
			]
		}
	],
	"accessors":[
		{
			"bufferView":0,
			"componentType":5126,
			"count":288,
			"max":[
				0.21130496263504028,
				0.4446587860584259,
				0.12221977114677429
			],
			"min":[
				-0.12281659245491028,
				0.0077676549553871155,
				-0.13162237405776978
			],
			"type":"VEC3"
		},
		{
			"bufferView":1,
			"componentType":5126,
			"count":288,
			"type":"VEC3"
		},
		{
			"bufferView":2,
			"componentType":5126,
			"count":288,
			"type":"VEC3"
		},
		{
			"bufferView":3,
			"componentType":5123,
			"count":288,
			"type":"SCALAR"
		},
		{
			"bufferView":4,
			"componentType":5126,
			"count":78,
			"max":[
				0.039302486926317215,
				0.3399999737739563,
				0.13919617235660553
			],
			"min":[
				-0.12022542953491211,
				0.019999999552965164,
				-0.10377641022205353
			],
			"type":"VEC3"
		},
		{
			"bufferView":5,
			"componentType":5126,
			"count":78,
			"type":"VEC3"
		},
		{
			"bufferView":6,
			"componentType":5126,
			"count":78,
			"type":"VEC3"
		},
		{
			"bufferView":7,
			"componentType":5123,
			"count":102,
			"type":"SCALAR"
		}
	],
	"bufferViews":[
		{
			"buffer":0,
			"byteLength":3456,
			"byteOffset":0,
			"target":34962
		},
		{
			"buffer":0,
			"byteLength":3456,
			"byteOffset":3456,
			"target":34962
		},
		{
			"buffer":0,
			"byteLength":3456,
			"byteOffset":6912,
			"target":34962
		},
		{
			"buffer":0,
			"byteLength":576,
			"byteOffset":10368,
			"target":34963
		},
		{
			"buffer":0,
			"byteLength":936,
			"byteOffset":10944,
			"target":34962
		},
		{
			"buffer":0,
			"byteLength":936,
			"byteOffset":11880,
			"target":34962
		},
		{
			"buffer":0,
			"byteLength":936,
			"byteOffset":12816,
			"target":34962
		},
		{
			"buffer":0,
			"byteLength":204,
			"byteOffset":13752,
			"target":34963
		}
	],
	"buffers":[
		{
			"byteLength":13956,
			"uri":"beute_runenfragment.bin"
		}
	]
}
