{
	"asset":{
		"generator":"Khronos glTF Blender I/O v5.2.40",
		"version":"2.0"
	},
	"scene":0,
	"scenes":[
		{
			"name":"Scene",
			"nodes":[
				0
			]
		}
	],
	"nodes":[
		{
			"mesh":0,
			"name":"bogen_glut"
		}
	],
	"materials":[
		{
			"doubleSided":true,
			"name":"bogen_glut",
			"pbrMetallicRoughness":{
				"metallicFactor":0,
				"roughnessFactor":0.699999988079071
			}
		}
	],
	"meshes":[
		{
			"name":"Bogenbogen_glut",
			"primitives":[
				{
					"attributes":{
						"POSITION":0,
						"NORMAL":1,
						"COLOR_0":2
					},
					"indices":3,
					"material":0
				}
			]
		}
	],
	"accessors":[
		{
			"bufferView":0,
			"componentType":5126,
			"count":2556,
			"max":[
				0.5712000131607056,
				0.06800000369548798,
				0.07040167599916458
			],
			"min":[
				-0.5712000131607056,
				0,
				-0.07040167599916458
			],
			"type":"VEC3"
		},
		{
			"bufferView":1,
			"componentType":5126,
			"count":2556,
			"type":"VEC3"
		},
		{
			"bufferView":2,
			"componentType":5126,
			"count":2556,
			"type":"VEC3"
		},
		{
			"bufferView":3,
			"componentType":5123,
			"count":3744,
			"type":"SCALAR"
		}
	],
	"bufferViews":[
		{
			"buffer":0,
			"byteLength":30672,
			"byteOffset":0,
			"target":34962
		},
		{
			"buffer":0,
			"byteLength":30672,
			"byteOffset":30672,
			"target":34962
		},
		{
			"buffer":0,
			"byteLength":30672,
			"byteOffset":61344,
			"target":34962
		},
		{
			"buffer":0,
			"byteLength":7488,
			"byteOffset":92016,
			"target":34963
		}
	],
	"buffers":[
		{
			"byteLength":99504,
			"uri":"bogen_glut.bin"
		}
	]
}
