{
	"asset":{
		"generator":"Khronos glTF Blender I/O v5.2.40",
		"version":"2.0"
	},
	"scene":0,
	"scenes":[
		{
			"name":"Scene",
			"nodes":[
				0
			]
		}
	],
	"nodes":[
		{
			"mesh":0,
			"name":"bogen_eibe"
		}
	],
	"materials":[
		{
			"doubleSided":true,
			"name":"bogen_eibe",
			"pbrMetallicRoughness":{
				"metallicFactor":0,
				"roughnessFactor":0.699999988079071
			}
		}
	],
	"meshes":[
		{
			"name":"Bogenbogen_eibe",
			"primitives":[
				{
					"attributes":{
						"POSITION":0,
						"NORMAL":1,
						"COLOR_0":2
					},
					"indices":3,
					"material":0
				}
			]
		}
	],
	"accessors":[
		{
			"bufferView":0,
			"componentType":5126,
			"count":2336,
			"max":[
				0.5952000021934509,
				0.06416000425815582,
				0.07489536702632904
			],
			"min":[
				-0.5952000021934509,
				0,
				-0.07489537447690964
			],
			"type":"VEC3"
		},
		{
			"bufferView":1,
			"componentType":5126,
			"count":2336,
			"type":"VEC3"
		},
		{
			"bufferView":2,
			"componentType":5126,
			"count":2336,
			"type":"VEC3"
		},
		{
			"bufferView":3,
			"componentType":5123,
			"count":3444,
			"type":"SCALAR"
		}
	],
	"bufferViews":[
		{
			"buffer":0,
			"byteLength":28032,
			"byteOffset":0,
			"target":34962
		},
		{
			"buffer":0,
			"byteLength":28032,
			"byteOffset":28032,
			"target":34962
		},
		{
			"buffer":0,
			"byteLength":28032,
			"byteOffset":56064,
			"target":34962
		},
		{
			"buffer":0,
			"byteLength":6888,
			"byteOffset":84096,
			"target":34963
		}
	],
	"buffers":[
		{
			"byteLength":90984,
			"uri":"bogen_eibe.bin"
		}
	]
}
