{
	"asset":{
		"generator":"Khronos glTF Blender I/O v5.2.40",
		"version":"2.0"
	},
	"scene":0,
	"scenes":[
		{
			"name":"Scene",
			"nodes":[
				0
			]
		}
	],
	"nodes":[
		{
			"mesh":0,
			"name":"bogen_elfen"
		}
	],
	"materials":[
		{
			"doubleSided":true,
			"name":"bogen_elfen",
			"pbrMetallicRoughness":{
				"metallicFactor":0,
				"roughnessFactor":0.699999988079071
			}
		}
	],
	"meshes":[
		{
			"name":"Bogenbogen_elfen",
			"primitives":[
				{
					"attributes":{
						"POSITION":0,
						"NORMAL":1,
						"COLOR_0":2
					},
					"indices":3,
					"material":0
				}
			]
		}
	],
	"accessors":[
		{
			"bufferView":0,
			"componentType":5126,
			"count":3452,
			"max":[
				0.6032000184059143,
				0.07200001180171967,
				0.06701619178056717
			],
			"min":[
				-0.6032000184059143,
				0,
				-0.06701619178056717
			],
			"type":"VEC3"
		},
		{
			"bufferView":1,
			"componentType":5126,
			"count":3452,
			"type":"VEC3"
		},
		{
			"bufferView":2,
			"componentType":5126,
			"count":3452,
			"type":"VEC3"
		},
		{
			"bufferView":3,
			"componentType":5123,
			"count":4896,
			"type":"SCALAR"
		}
	],
	"bufferViews":[
		{
			"buffer":0,
			"byteLength":41424,
			"byteOffset":0,
			"target":34962
		},
		{
			"buffer":0,
			"byteLength":41424,
			"byteOffset":41424,
			"target":34962
		},
		{
			"buffer":0,
			"byteLength":41424,
			"byteOffset":82848,
			"target":34962
		},
		{
			"buffer":0,
			"byteLength":9792,
			"byteOffset":124272,
			"target":34963
		}
	],
	"buffers":[
		{
			"byteLength":134064,
			"uri":"bogen_elfen.bin"
		}
	]
}
