{
	"asset":{
		"generator":"Khronos glTF Blender I/O v5.2.40",
		"version":"2.0"
	},
	"scene":0,
	"scenes":[
		{
			"name":"Scene",
			"nodes":[
				0
			]
		}
	],
	"nodes":[
		{
			"mesh":0,
			"name":"bogen_sturm"
		}
	],
	"materials":[
		{
			"doubleSided":true,
			"name":"bogen_sturm",
			"pbrMetallicRoughness":{
				"metallicFactor":0,
				"roughnessFactor":0.699999988079071
			}
		}
	],
	"meshes":[
		{
			"name":"Bogenbogen_sturm",
			"primitives":[
				{
					"attributes":{
						"POSITION":0,
						"NORMAL":1,
						"COLOR_0":2
					},
					"indices":3,
					"material":0
				}
			]
		}
	],
	"accessors":[
		{
			"bufferView":0,
			"componentType":5126,
			"count":2652,
			"max":[
				0.6319999694824219,
				0.07200000435113907,
				0.07370912283658981
			],
			"min":[
				-0.6319999694824219,
				0,
				-0.07370912283658981
			],
			"type":"VEC3"
		},
		{
			"bufferView":1,
			"componentType":5126,
			"count":2652,
			"type":"VEC3"
		},
		{
			"bufferView":2,
			"componentType":5126,
			"count":2652,
			"type":"VEC3"
		},
		{
			"bufferView":3,
			"componentType":5123,
			"count":3840,
			"type":"SCALAR"
		}
	],
	"bufferViews":[
		{
			"buffer":0,
			"byteLength":31824,
			"byteOffset":0,
			"target":34962
		},
		{
			"buffer":0,
			"byteLength":31824,
			"byteOffset":31824,
			"target":34962
		},
		{
			"buffer":0,
			"byteLength":31824,
			"byteOffset":63648,
			"target":34962
		},
		{
			"buffer":0,
			"byteLength":7680,
			"byteOffset":95472,
			"target":34963
		}
	],
	"buffers":[
		{
			"byteLength":103152,
			"uri":"bogen_sturm.bin"
		}
	]
}
