{
	"asset":{
		"generator":"Khronos glTF Blender I/O v5.2.40",
		"version":"2.0"
	},
	"scene":0,
	"scenes":[
		{
			"name":"Scene",
			"nodes":[
				0
			]
		}
	],
	"nodes":[
		{
			"mesh":0,
			"name":"bogen_lang"
		}
	],
	"materials":[
		{
			"doubleSided":true,
			"name":"bogen_lang",
			"pbrMetallicRoughness":{
				"metallicFactor":0,
				"roughnessFactor":0.699999988079071
			}
		}
	],
	"meshes":[
		{
			"name":"Bogenbogen_lang",
			"primitives":[
				{
					"attributes":{
						"POSITION":0,
						"NORMAL":1,
						"COLOR_0":2
					},
					"indices":3,
					"material":0
				}
			]
		}
	],
	"accessors":[
		{
			"bufferView":0,
			"componentType":5126,
			"count":2496,
			"max":[
				0.6992000341415405,
				0.06800000369548798,
				0.07952527701854706
			],
			"min":[
				-0.6992000341415405,
				0,
				-0.07952527701854706
			],
			"type":"VEC3"
		},
		{
			"bufferView":1,
			"componentType":5126,
			"count":2496,
			"type":"VEC3"
		},
		{
			"bufferView":2,
			"componentType":5126,
			"count":2496,
			"type":"VEC3"
		},
		{
			"bufferView":3,
			"componentType":5123,
			"count":3672,
			"type":"SCALAR"
		}
	],
	"bufferViews":[
		{
			"buffer":0,
			"byteLength":29952,
			"byteOffset":0,
			"target":34962
		},
		{
			"buffer":0,
			"byteLength":29952,
			"byteOffset":29952,
			"target":34962
		},
		{
			"buffer":0,
			"byteLength":29952,
			"byteOffset":59904,
			"target":34962
		},
		{
			"buffer":0,
			"byteLength":7344,
			"byteOffset":89856,
			"target":34963
		}
	],
	"buffers":[
		{
			"byteLength":97200,
			"uri":"bogen_lang.bin"
		}
	]
}
