{
	"asset":{
		"generator":"Khronos glTF Blender I/O v5.2.40",
		"version":"2.0"
	},
	"scene":0,
	"scenes":[
		{
			"name":"Scene",
			"nodes":[
				0
			]
		}
	],
	"nodes":[
		{
			"mesh":0,
			"name":"brust_kette"
		}
	],
	"materials":[
		{
			"doubleSided":true,
			"name":"brust_kette",
			"pbrMetallicRoughness":{
				"metallicFactor":0,
				"roughnessFactor":0.699999988079071
			}
		}
	],
	"meshes":[
		{
			"name":"Torso",
			"primitives":[
				{
					"attributes":{
						"POSITION":0,
						"NORMAL":1,
						"COLOR_0":2
					},
					"indices":3,
					"material":0
				}
			]
		}
	],
	"accessors":[
		{
			"bufferView":0,
			"componentType":5126,
			"count":1872,
			"max":[
				0.16957500576972961,
				0.4590001702308655,
				0.1071000024676323
			],
			"min":[
				-0.16957500576972961,
				0,
				-0.1071000024676323
			],
			"type":"VEC3"
		},
		{
			"bufferView":1,
			"componentType":5126,
			"count":1872,
			"type":"VEC3"
		},
		{
			"bufferView":2,
			"componentType":5126,
			"count":1872,
			"type":"VEC3"
		},
		{
			"bufferView":3,
			"componentType":5123,
			"count":2802,
			"type":"SCALAR"
		}
	],
	"bufferViews":[
		{
			"buffer":0,
			"byteLength":22464,
			"byteOffset":0,
			"target":34962
		},
		{
			"buffer":0,
			"byteLength":22464,
			"byteOffset":22464,
			"target":34962
		},
		{
			"buffer":0,
			"byteLength":22464,
			"byteOffset":44928,
			"target":34962
		},
		{
			"buffer":0,
			"byteLength":5604,
			"byteOffset":67392,
			"target":34963
		}
	],
	"buffers":[
		{
			"byteLength":72996,
			"uri":"brust_kette.bin"
		}
	]
}
