{
	"asset":{
		"generator":"Khronos glTF Blender I/O v5.2.40",
		"version":"2.0"
	},
	"scene":0,
	"scenes":[
		{
			"name":"Scene",
			"nodes":[
				0
			]
		}
	],
	"nodes":[
		{
			"mesh":0,
			"name":"brust_ahnen"
		}
	],
	"materials":[
		{
			"doubleSided":true,
			"name":"brust_ahnen",
			"pbrMetallicRoughness":{
				"metallicFactor":0,
				"roughnessFactor":0.699999988079071
			}
		}
	],
	"meshes":[
		{
			"name":"Torso",
			"primitives":[
				{
					"attributes":{
						"POSITION":0,
						"NORMAL":1,
						"COLOR_0":2
					},
					"indices":3,
					"material":0
				}
			]
		}
	],
	"accessors":[
		{
			"bufferView":0,
			"componentType":5126,
			"count":3264,
			"max":[
				0.2570570111274719,
				0.4687749743461609,
				0.11475000530481339
			],
			"min":[
				-0.2570570111274719,
				0,
				-0.11475000530481339
			],
			"type":"VEC3"
		},
		{
			"bufferView":1,
			"componentType":5126,
			"count":3264,
			"type":"VEC3"
		},
		{
			"bufferView":2,
			"componentType":5126,
			"count":3264,
			"type":"VEC3"
		},
		{
			"bufferView":3,
			"componentType":5123,
			"count":4770,
			"type":"SCALAR"
		}
	],
	"bufferViews":[
		{
			"buffer":0,
			"byteLength":39168,
			"byteOffset":0,
			"target":34962
		},
		{
			"buffer":0,
			"byteLength":39168,
			"byteOffset":39168,
			"target":34962
		},
		{
			"buffer":0,
			"byteLength":39168,
			"byteOffset":78336,
			"target":34962
		},
		{
			"buffer":0,
			"byteLength":9540,
			"byteOffset":117504,
			"target":34963
		}
	],
	"buffers":[
		{
			"byteLength":127044,
			"uri":"brust_ahnen.bin"
		}
	]
}
