{
	"asset":{
		"generator":"Khronos glTF Blender I/O v5.2.40",
		"version":"2.0"
	},
	"scene":0,
	"scenes":[
		{
			"name":"Scene",
			"nodes":[
				0
			]
		}
	],
	"nodes":[
		{
			"mesh":0,
			"name":"hammer_donner"
		}
	],
	"materials":[
		{
			"doubleSided":true,
			"name":"hammer_donner",
			"pbrMetallicRoughness":{
				"metallicFactor":0,
				"roughnessFactor":0.699999988079071
			}
		}
	],
	"meshes":[
		{
			"name":"Hammerstiel",
			"primitives":[
				{
					"attributes":{
						"POSITION":0,
						"NORMAL":1,
						"COLOR_0":2
					},
					"indices":3,
					"material":0
				}
			]
		}
	],
	"accessors":[
		{
			"bufferView":0,
			"componentType":5126,
			"count":2412,
			"max":[
				0.35999998450279236,
				0.20000000298023224,
				0.15299999713897705
			],
			"min":[
				-0.36000001430511475,
				0,
				-0.15299999713897705
			],
			"type":"VEC3"
		},
		{
			"bufferView":1,
			"componentType":5126,
			"count":2412,
			"type":"VEC3"
		},
		{
			"bufferView":2,
			"componentType":5126,
			"count":2412,
			"type":"VEC3"
		},
		{
			"bufferView":3,
			"componentType":5123,
			"count":3564,
			"type":"SCALAR"
		}
	],
	"bufferViews":[
		{
			"buffer":0,
			"byteLength":28944,
			"byteOffset":0,
			"target":34962
		},
		{
			"buffer":0,
			"byteLength":28944,
			"byteOffset":28944,
			"target":34962
		},
		{
			"buffer":0,
			"byteLength":28944,
			"byteOffset":57888,
			"target":34962
		},
		{
			"buffer":0,
			"byteLength":7128,
			"byteOffset":86832,
			"target":34963
		}
	],
	"buffers":[
		{
			"byteLength":93960,
			"uri":"hammer_donner.bin"
		}
	]
}
