{
	"asset":{
		"generator":"Khronos glTF Blender I/O v5.2.40",
		"version":"2.0"
	},
	"scene":0,
	"scenes":[
		{
			"name":"Scene",
			"nodes":[
				0
			]
		}
	],
	"nodes":[
		{
			"mesh":0,
			"name":"hammer_streit"
		}
	],
	"materials":[
		{
			"doubleSided":true,
			"name":"hammer_streit",
			"pbrMetallicRoughness":{
				"metallicFactor":0,
				"roughnessFactor":0.699999988079071
			}
		}
	],
	"meshes":[
		{
			"name":"Hammerstiel",
			"primitives":[
				{
					"attributes":{
						"POSITION":0,
						"NORMAL":1,
						"COLOR_0":2
					},
					"indices":3,
					"material":0
				}
			]
		}
	],
	"accessors":[
		{
			"bufferView":0,
			"componentType":5126,
			"count":2396,
			"max":[
				0.38999998569488525,
				0.1340000033378601,
				0.1600000113248825
			],
			"min":[
				-0.38999998569488525,
				0,
				-0.1600000113248825
			],
			"type":"VEC3"
		},
		{
			"bufferView":1,
			"componentType":5126,
			"count":2396,
			"type":"VEC3"
		},
		{
			"bufferView":2,
			"componentType":5126,
			"count":2396,
			"type":"VEC3"
		},
		{
			"bufferView":3,
			"componentType":5123,
			"count":3516,
			"type":"SCALAR"
		}
	],
	"bufferViews":[
		{
			"buffer":0,
			"byteLength":28752,
			"byteOffset":0,
			"target":34962
		},
		{
			"buffer":0,
			"byteLength":28752,
			"byteOffset":28752,
			"target":34962
		},
		{
			"buffer":0,
			"byteLength":28752,
			"byteOffset":57504,
			"target":34962
		},
		{
			"buffer":0,
			"byteLength":7032,
			"byteOffset":86256,
			"target":34963
		}
	],
	"buffers":[
		{
			"byteLength":93288,
			"uri":"hammer_streit.bin"
		}
	]
}
