{
	"asset":{
		"generator":"Khronos glTF Blender I/O v5.2.40",
		"version":"2.0"
	},
	"scene":0,
	"scenes":[
		{
			"name":"Scene",
			"nodes":[
				0
			]
		}
	],
	"nodes":[
		{
			"mesh":0,
			"name":"hammer_runen"
		}
	],
	"materials":[
		{
			"doubleSided":true,
			"name":"hammer_runen",
			"pbrMetallicRoughness":{
				"metallicFactor":0,
				"roughnessFactor":0.699999988079071
			}
		}
	],
	"meshes":[
		{
			"name":"Hammerstiel",
			"primitives":[
				{
					"attributes":{
						"POSITION":0,
						"NORMAL":1,
						"COLOR_0":2
					},
					"indices":3,
					"material":0
				}
			]
		}
	],
	"accessors":[
		{
			"bufferView":0,
			"componentType":5126,
			"count":2252,
			"max":[
				0.3499999940395355,
				0.1599999964237213,
				0.14000000059604645
			],
			"min":[
				-0.3499999940395355,
				0,
				-0.14000000059604645
			],
			"type":"VEC3"
		},
		{
			"bufferView":1,
			"componentType":5126,
			"count":2252,
			"type":"VEC3"
		},
		{
			"bufferView":2,
			"componentType":5126,
			"count":2252,
			"type":"VEC3"
		},
		{
			"bufferView":3,
			"componentType":5123,
			"count":3288,
			"type":"SCALAR"
		}
	],
	"bufferViews":[
		{
			"buffer":0,
			"byteLength":27024,
			"byteOffset":0,
			"target":34962
		},
		{
			"buffer":0,
			"byteLength":27024,
			"byteOffset":27024,
			"target":34962
		},
		{
			"buffer":0,
			"byteLength":27024,
			"byteOffset":54048,
			"target":34962
		},
		{
			"buffer":0,
			"byteLength":6576,
			"byteOffset":81072,
			"target":34963
		}
	],
	"buffers":[
		{
			"byteLength":87648,
			"uri":"hammer_runen.bin"
		}
	]
}
