{
	"asset":{
		"generator":"Khronos glTF Blender I/O v5.2.40",
		"version":"2.0"
	},
	"scene":0,
	"scenes":[
		{
			"name":"Scene",
			"nodes":[
				0
			]
		}
	],
	"nodes":[
		{
			"mesh":0,
			"name":"hammer_drachen"
		}
	],
	"materials":[
		{
			"doubleSided":true,
			"name":"hammer_drachen",
			"pbrMetallicRoughness":{
				"metallicFactor":0,
				"roughnessFactor":0.699999988079071
			}
		}
	],
	"meshes":[
		{
			"name":"Hammerstiel",
			"primitives":[
				{
					"attributes":{
						"POSITION":0,
						"NORMAL":1,
						"COLOR_0":2
					},
					"indices":3,
					"material":0
				}
			]
		}
	],
	"accessors":[
		{
			"bufferView":0,
			"componentType":5126,
			"count":2996,
			"max":[
				0.35350000858306885,
				0.2659396827220917,
				0.15000000596046448
			],
			"min":[
				-0.35349997878074646,
				0,
				-0.15000000596046448
			],
			"type":"VEC3"
		},
		{
			"bufferView":1,
			"componentType":5126,
			"count":2996,
			"type":"VEC3"
		},
		{
			"bufferView":2,
			"componentType":5126,
			"count":2996,
			"type":"VEC3"
		},
		{
			"bufferView":3,
			"componentType":5123,
			"count":4374,
			"type":"SCALAR"
		}
	],
	"bufferViews":[
		{
			"buffer":0,
			"byteLength":35952,
			"byteOffset":0,
			"target":34962
		},
		{
			"buffer":0,
			"byteLength":35952,
			"byteOffset":35952,
			"target":34962
		},
		{
			"buffer":0,
			"byteLength":35952,
			"byteOffset":71904,
			"target":34962
		},
		{
			"buffer":0,
			"byteLength":8748,
			"byteOffset":107856,
			"target":34963
		}
	],
	"buffers":[
		{
			"byteLength":116604,
			"uri":"hammer_drachen.bin"
		}
	]
}
