{
	"asset":{
		"generator":"Khronos glTF Blender I/O v5.2.40",
		"version":"2.0"
	},
	"scene":0,
	"scenes":[
		{
			"name":"Scene",
			"nodes":[
				0
			]
		}
	],
	"nodes":[
		{
			"mesh":0,
			"name":"hammer_eisen"
		}
	],
	"materials":[
		{
			"doubleSided":true,
			"name":"hammer_eisen",
			"pbrMetallicRoughness":{
				"metallicFactor":0,
				"roughnessFactor":0.699999988079071
			}
		}
	],
	"meshes":[
		{
			"name":"Hammerstiel",
			"primitives":[
				{
					"attributes":{
						"POSITION":0,
						"NORMAL":1,
						"COLOR_0":2
					},
					"indices":3,
					"material":0
				}
			]
		}
	],
	"accessors":[
		{
			"bufferView":0,
			"componentType":5126,
			"count":2156,
			"max":[
				0.3425000011920929,
				0.11999999731779099,
				0.11999999731779099
			],
			"min":[
				-0.3424999713897705,
				0,
				-0.11999999731779099
			],
			"type":"VEC3"
		},
		{
			"bufferView":1,
			"componentType":5126,
			"count":2156,
			"type":"VEC3"
		},
		{
			"bufferView":2,
			"componentType":5126,
			"count":2156,
			"type":"VEC3"
		},
		{
			"bufferView":3,
			"componentType":5123,
			"count":3192,
			"type":"SCALAR"
		}
	],
	"bufferViews":[
		{
			"buffer":0,
			"byteLength":25872,
			"byteOffset":0,
			"target":34962
		},
		{
			"buffer":0,
			"byteLength":25872,
			"byteOffset":25872,
			"target":34962
		},
		{
			"buffer":0,
			"byteLength":25872,
			"byteOffset":51744,
			"target":34962
		},
		{
			"buffer":0,
			"byteLength":6384,
			"byteOffset":77616,
			"target":34963
		}
	],
	"buffers":[
		{
			"byteLength":84000,
			"uri":"hammer_eisen.bin"
		}
	]
}
