{
	"asset":{
		"generator":"Khronos glTF Blender I/O v5.2.40",
		"version":"2.0"
	},
	"scene":0,
	"scenes":[
		{
			"name":"Scene",
			"nodes":[
				0
			]
		}
	],
	"nodes":[
		{
			"mesh":0,
			"name":"harnisch_nachtwind"
		}
	],
	"materials":[
		{
			"doubleSided":true,
			"name":"harnisch_nachtwind",
			"pbrMetallicRoughness":{
				"metallicFactor":0,
				"roughnessFactor":0.699999988079071
			}
		}
	],
	"meshes":[
		{
			"name":"Torso",
			"primitives":[
				{
					"attributes":{
						"POSITION":0,
						"NORMAL":1,
						"COLOR_0":2
					},
					"indices":3,
					"material":0
				}
			]
		}
	],
	"accessors":[
		{
			"bufferView":0,
			"componentType":5126,
			"count":3864,
			"max":[
				0.2284669280052185,
				0.4590001702308655,
				0.1117750033736229
			],
			"min":[
				-0.2284669280052185,
				0,
				-0.1117750033736229
			],
			"type":"VEC3"
		},
		{
			"bufferView":1,
			"componentType":5126,
			"count":3864,
			"type":"VEC3"
		},
		{
			"bufferView":2,
			"componentType":5126,
			"count":3864,
			"type":"VEC3"
		},
		{
			"bufferView":3,
			"componentType":5123,
			"count":5676,
			"type":"SCALAR"
		}
	],
	"bufferViews":[
		{
			"buffer":0,
			"byteLength":46368,
			"byteOffset":0,
			"target":34962
		},
		{
			"buffer":0,
			"byteLength":46368,
			"byteOffset":46368,
			"target":34962
		},
		{
			"buffer":0,
			"byteLength":46368,
			"byteOffset":92736,
			"target":34962
		},
		{
			"buffer":0,
			"byteLength":11352,
			"byteOffset":139104,
			"target":34963
		}
	],
	"buffers":[
		{
			"byteLength":150456,
			"uri":"harnisch_nachtwind.bin"
		}
	]
}
