{
	"asset":{
		"generator":"Khronos glTF Blender I/O v5.2.40",
		"version":"2.0"
	},
	"scene":0,
	"scenes":[
		{
			"name":"Scene",
			"nodes":[
				0
			]
		}
	],
	"nodes":[
		{
			"mesh":0,
			"name":"helm_runen"
		}
	],
	"materials":[
		{
			"doubleSided":true,
			"name":"helm_runen",
			"pbrMetallicRoughness":{
				"metallicFactor":0,
				"roughnessFactor":0.699999988079071
			}
		}
	],
	"meshes":[
		{
			"name":"Helm",
			"primitives":[
				{
					"attributes":{
						"POSITION":0,
						"NORMAL":1,
						"COLOR_0":2
					},
					"indices":3,
					"material":0
				}
			]
		}
	],
	"accessors":[
		{
			"bufferView":0,
			"componentType":5126,
			"count":5684,
			"max":[
				0.23278701305389404,
				0.28980886936187744,
				0.13400840759277344
			],
			"min":[
				-0.23278701305389404,
				0,
				-0.13400840759277344
			],
			"type":"VEC3"
		},
		{
			"bufferView":1,
			"componentType":5126,
			"count":5684,
			"type":"VEC3"
		},
		{
			"bufferView":2,
			"componentType":5126,
			"count":5684,
			"type":"VEC3"
		},
		{
			"bufferView":3,
			"componentType":5123,
			"count":8196,
			"type":"SCALAR"
		}
	],
	"bufferViews":[
		{
			"buffer":0,
			"byteLength":68208,
			"byteOffset":0,
			"target":34962
		},
		{
			"buffer":0,
			"byteLength":68208,
			"byteOffset":68208,
			"target":34962
		},
		{
			"buffer":0,
			"byteLength":68208,
			"byteOffset":136416,
			"target":34962
		},
		{
			"buffer":0,
			"byteLength":16392,
			"byteOffset":204624,
			"target":34963
		}
	],
	"buffers":[
		{
			"byteLength":221016,
			"uri":"helm_runen.bin"
		}
	]
}
