{
	"asset":{
		"generator":"Khronos glTF Blender I/O v5.2.40",
		"version":"2.0"
	},
	"scene":0,
	"scenes":[
		{
			"name":"Scene",
			"nodes":[
				0
			]
		}
	],
	"nodes":[
		{
			"mesh":0,
			"name":"helm_eisen"
		}
	],
	"materials":[
		{
			"doubleSided":true,
			"name":"helm_eisen",
			"pbrMetallicRoughness":{
				"metallicFactor":0,
				"roughnessFactor":0.699999988079071
			}
		}
	],
	"meshes":[
		{
			"name":"Helm",
			"primitives":[
				{
					"attributes":{
						"POSITION":0,
						"NORMAL":1,
						"COLOR_0":2
					},
					"indices":3,
					"material":0
				}
			]
		}
	],
	"accessors":[
		{
			"bufferView":0,
			"componentType":5126,
			"count":4444,
			"max":[
				0.12409999966621399,
				0.22950002551078796,
				0.13113895058631897
			],
			"min":[
				-0.12409999966621399,
				0,
				-0.13113895058631897
			],
			"type":"VEC3"
		},
		{
			"bufferView":1,
			"componentType":5126,
			"count":4444,
			"type":"VEC3"
		},
		{
			"bufferView":2,
			"componentType":5126,
			"count":4444,
			"type":"VEC3"
		},
		{
			"bufferView":3,
			"componentType":5123,
			"count":6366,
			"type":"SCALAR"
		}
	],
	"bufferViews":[
		{
			"buffer":0,
			"byteLength":53328,
			"byteOffset":0,
			"target":34962
		},
		{
			"buffer":0,
			"byteLength":53328,
			"byteOffset":53328,
			"target":34962
		},
		{
			"buffer":0,
			"byteLength":53328,
			"byteOffset":106656,
			"target":34962
		},
		{
			"buffer":0,
			"byteLength":12732,
			"byteOffset":159984,
			"target":34963
		}
	],
	"buffers":[
		{
			"byteLength":172716,
			"uri":"helm_eisen.bin"
		}
	]
}
