{
	"asset":{
		"generator":"Khronos glTF Blender I/O v5.2.40",
		"version":"2.0"
	},
	"scene":0,
	"scenes":[
		{
			"name":"Scene",
			"nodes":[
				0
			]
		}
	],
	"nodes":[
		{
			"mesh":0,
			"name":"hut_lehrling"
		}
	],
	"materials":[
		{
			"doubleSided":true,
			"name":"hut_lehrling",
			"pbrMetallicRoughness":{
				"metallicFactor":0,
				"roughnessFactor":0.699999988079071
			}
		}
	],
	"meshes":[
		{
			"name":"Krempe",
			"primitives":[
				{
					"attributes":{
						"POSITION":0,
						"NORMAL":1,
						"COLOR_0":2
					},
					"indices":3,
					"material":0
				}
			]
		}
	],
	"accessors":[
		{
			"bufferView":0,
			"componentType":5126,
			"count":3860,
			"max":[
				0.19074000418186188,
				0.2720000147819519,
				0.1832600086927414
			],
			"min":[
				-0.19074000418186188,
				0,
				-0.1832600086927414
			],
			"type":"VEC3"
		},
		{
			"bufferView":1,
			"componentType":5126,
			"count":3860,
			"type":"VEC3"
		},
		{
			"bufferView":2,
			"componentType":5126,
			"count":3860,
			"type":"VEC3"
		},
		{
			"bufferView":3,
			"componentType":5123,
			"count":5748,
			"type":"SCALAR"
		}
	],
	"bufferViews":[
		{
			"buffer":0,
			"byteLength":46320,
			"byteOffset":0,
			"target":34962
		},
		{
			"buffer":0,
			"byteLength":46320,
			"byteOffset":46320,
			"target":34962
		},
		{
			"buffer":0,
			"byteLength":46320,
			"byteOffset":92640,
			"target":34962
		},
		{
			"buffer":0,
			"byteLength":11496,
			"byteOffset":138960,
			"target":34963
		}
	],
	"buffers":[
		{
			"byteLength":150456,
			"uri":"hut_lehrling.bin"
		}
	]
}
