{
	"asset":{
		"generator":"Khronos glTF Blender I/O v5.2.40",
		"version":"2.0"
	},
	"scene":0,
	"scenes":[
		{
			"name":"Scene",
			"nodes":[
				0
			]
		}
	],
	"nodes":[
		{
			"mesh":0,
			"name":"hut_sterne"
		}
	],
	"materials":[
		{
			"doubleSided":true,
			"name":"hut_sterne",
			"pbrMetallicRoughness":{
				"metallicFactor":0,
				"roughnessFactor":0.699999988079071
			}
		}
	],
	"meshes":[
		{
			"name":"Krempe",
			"primitives":[
				{
					"attributes":{
						"POSITION":0,
						"NORMAL":1,
						"COLOR_0":2
					},
					"indices":3,
					"material":0
				}
			]
		}
	],
	"accessors":[
		{
			"bufferView":0,
			"componentType":5126,
			"count":3980,
			"max":[
				0.24276001751422882,
				0.37400001287460327,
				0.233240008354187
			],
			"min":[
				-0.24276001751422882,
				0,
				-0.233240008354187
			],
			"type":"VEC3"
		},
		{
			"bufferView":1,
			"componentType":5126,
			"count":3980,
			"type":"VEC3"
		},
		{
			"bufferView":2,
			"componentType":5126,
			"count":3980,
			"type":"VEC3"
		},
		{
			"bufferView":3,
			"componentType":5123,
			"count":5868,
			"type":"SCALAR"
		}
	],
	"bufferViews":[
		{
			"buffer":0,
			"byteLength":47760,
			"byteOffset":0,
			"target":34962
		},
		{
			"buffer":0,
			"byteLength":47760,
			"byteOffset":47760,
			"target":34962
		},
		{
			"buffer":0,
			"byteLength":47760,
			"byteOffset":95520,
			"target":34962
		},
		{
			"buffer":0,
			"byteLength":11736,
			"byteOffset":143280,
			"target":34963
		}
	],
	"buffers":[
		{
			"byteLength":155016,
			"uri":"hut_sterne.bin"
		}
	]
}
