{
	"asset":{
		"generator":"Khronos glTF Blender I/O v5.2.40",
		"version":"2.0"
	},
	"scene":0,
	"scenes":[
		{
			"name":"Scene",
			"nodes":[
				0
			]
		}
	],
	"nodes":[
		{
			"mesh":0,
			"name":"kappe_jaeger"
		}
	],
	"materials":[
		{
			"doubleSided":true,
			"name":"kappe_jaeger",
			"pbrMetallicRoughness":{
				"metallicFactor":0,
				"roughnessFactor":0.699999988079071
			}
		}
	],
	"meshes":[
		{
			"name":"Kappe",
			"primitives":[
				{
					"attributes":{
						"POSITION":0,
						"NORMAL":1,
						"COLOR_0":2
					},
					"indices":3,
					"material":0
				}
			]
		}
	],
	"accessors":[
		{
			"bufferView":0,
			"componentType":5126,
			"count":3344,
			"max":[
				0.11678746342658997,
				0.2218286097049713,
				0.15367287397384644
			],
			"min":[
				-0.11678746342658997,
				0,
				-0.15367287397384644
			],
			"type":"VEC3"
		},
		{
			"bufferView":1,
			"componentType":5126,
			"count":3344,
			"type":"VEC3"
		},
		{
			"bufferView":2,
			"componentType":5126,
			"count":3344,
			"type":"VEC3"
		},
		{
			"bufferView":3,
			"componentType":5123,
			"count":5004,
			"type":"SCALAR"
		}
	],
	"bufferViews":[
		{
			"buffer":0,
			"byteLength":40128,
			"byteOffset":0,
			"target":34962
		},
		{
			"buffer":0,
			"byteLength":40128,
			"byteOffset":40128,
			"target":34962
		},
		{
			"buffer":0,
			"byteLength":40128,
			"byteOffset":80256,
			"target":34962
		},
		{
			"buffer":0,
			"byteLength":10008,
			"byteOffset":120384,
			"target":34963
		}
	],
	"buffers":[
		{
			"byteLength":130392,
			"uri":"kappe_jaeger.bin"
		}
	]
}
