{
	"asset":{
		"generator":"Khronos glTF Blender I/O v5.2.40",
		"version":"2.0"
	},
	"scene":0,
	"scenes":[
		{
			"name":"Scene",
			"nodes":[
				0
			]
		}
	],
	"nodes":[
		{
			"mesh":0,
			"name":"kapuze"
		}
	],
	"materials":[
		{
			"doubleSided":true,
			"name":"kapuze",
			"pbrMetallicRoughness":{
				"metallicFactor":0,
				"roughnessFactor":0.699999988079071
			}
		}
	],
	"meshes":[
		{
			"name":"Kapuze",
			"primitives":[
				{
					"attributes":{
						"POSITION":0,
						"NORMAL":1,
						"COLOR_0":2
					},
					"indices":3,
					"material":0
				}
			]
		}
	],
	"accessors":[
		{
			"bufferView":0,
			"componentType":5126,
			"count":5240,
			"max":[
				0.16906872391700745,
				0.23800000548362732,
				0.15299999713897705
			],
			"min":[
				-0.16906872391700745,
				0,
				-0.15299999713897705
			],
			"type":"VEC3"
		},
		{
			"bufferView":1,
			"componentType":5126,
			"count":5240,
			"type":"VEC3"
		},
		{
			"bufferView":2,
			"componentType":5126,
			"count":5240,
			"type":"VEC3"
		},
		{
			"bufferView":3,
			"componentType":5123,
			"count":7860,
			"type":"SCALAR"
		}
	],
	"bufferViews":[
		{
			"buffer":0,
			"byteLength":62880,
			"byteOffset":0,
			"target":34962
		},
		{
			"buffer":0,
			"byteLength":62880,
			"byteOffset":62880,
			"target":34962
		},
		{
			"buffer":0,
			"byteLength":62880,
			"byteOffset":125760,
			"target":34962
		},
		{
			"buffer":0,
			"byteLength":15720,
			"byteOffset":188640,
			"target":34963
		}
	],
	"buffers":[
		{
			"byteLength":204360,
			"uri":"kapuze.bin"
		}
	]
}
