{
	"asset":{
		"generator":"Khronos glTF Blender I/O v5.2.40",
		"version":"2.0"
	},
	"scene":0,
	"scenes":[
		{
			"name":"Scene",
			"nodes":[
				0
			]
		}
	],
	"nodes":[
		{
			"mesh":0,
			"name":"klinge_mond"
		}
	],
	"materials":[
		{
			"doubleSided":true,
			"name":"klinge_mond",
			"pbrMetallicRoughness":{
				"metallicFactor":0,
				"roughnessFactor":0.699999988079071
			}
		}
	],
	"meshes":[
		{
			"name":"Blatt",
			"primitives":[
				{
					"attributes":{
						"POSITION":0,
						"NORMAL":1,
						"COLOR_0":2
					},
					"indices":3,
					"material":0
				}
			]
		}
	],
	"accessors":[
		{
			"bufferView":0,
			"componentType":5126,
			"count":2028,
			"max":[
				0.45272648334503174,
				0.053999997675418854,
				0.09581498056650162
			],
			"min":[
				-0.4527265131473541,
				0,
				-0.09581498056650162
			],
			"type":"VEC3"
		},
		{
			"bufferView":1,
			"componentType":5126,
			"count":2028,
			"type":"VEC3"
		},
		{
			"bufferView":2,
			"componentType":5126,
			"count":2028,
			"type":"VEC3"
		},
		{
			"bufferView":3,
			"componentType":5123,
			"count":2904,
			"type":"SCALAR"
		}
	],
	"bufferViews":[
		{
			"buffer":0,
			"byteLength":24336,
			"byteOffset":0,
			"target":34962
		},
		{
			"buffer":0,
			"byteLength":24336,
			"byteOffset":24336,
			"target":34962
		},
		{
			"buffer":0,
			"byteLength":24336,
			"byteOffset":48672,
			"target":34962
		},
		{
			"buffer":0,
			"byteLength":5808,
			"byteOffset":73008,
			"target":34963
		}
	],
	"buffers":[
		{
			"byteLength":78816,
			"uri":"klinge_mond.bin"
		}
	]
}
