{
	"asset":{
		"generator":"Khronos glTF Blender I/O v5.2.40",
		"version":"2.0"
	},
	"scene":0,
	"scenes":[
		{
			"name":"Scene",
			"nodes":[
				0
			]
		}
	],
	"nodes":[
		{
			"mesh":0,
			"name":"klinge_russ"
		}
	],
	"materials":[
		{
			"doubleSided":true,
			"name":"klinge_russ",
			"pbrMetallicRoughness":{
				"metallicFactor":0,
				"roughnessFactor":0.699999988079071
			}
		}
	],
	"meshes":[
		{
			"name":"Blatt",
			"primitives":[
				{
					"attributes":{
						"POSITION":0,
						"NORMAL":1,
						"COLOR_0":2
					},
					"indices":3,
					"material":0
				}
			]
		}
	],
	"accessors":[
		{
			"bufferView":0,
			"componentType":5126,
			"count":1676,
			"max":[
				0.42250001430511475,
				0.04800000041723251,
				0.07500000298023224
			],
			"min":[
				-0.42249995470046997,
				0,
				-0.07500000298023224
			],
			"type":"VEC3"
		},
		{
			"bufferView":1,
			"componentType":5126,
			"count":1676,
			"type":"VEC3"
		},
		{
			"bufferView":2,
			"componentType":5126,
			"count":1676,
			"type":"VEC3"
		},
		{
			"bufferView":3,
			"componentType":5123,
			"count":2424,
			"type":"SCALAR"
		}
	],
	"bufferViews":[
		{
			"buffer":0,
			"byteLength":20112,
			"byteOffset":0,
			"target":34962
		},
		{
			"buffer":0,
			"byteLength":20112,
			"byteOffset":20112,
			"target":34962
		},
		{
			"buffer":0,
			"byteLength":20112,
			"byteOffset":40224,
			"target":34962
		},
		{
			"buffer":0,
			"byteLength":4848,
			"byteOffset":60336,
			"target":34963
		}
	],
	"buffers":[
		{
			"byteLength":65184,
			"uri":"klinge_russ.bin"
		}
	]
}
