{
	"asset":{
		"generator":"Khronos glTF Blender I/O v5.2.40",
		"version":"2.0"
	},
	"scene":0,
	"scenes":[
		{
			"name":"Scene",
			"nodes":[
				0
			]
		}
	],
	"nodes":[
		{
			"mesh":0,
			"name":"klinge_schatten"
		}
	],
	"materials":[
		{
			"doubleSided":true,
			"name":"klinge_schatten",
			"pbrMetallicRoughness":{
				"metallicFactor":0,
				"roughnessFactor":0.699999988079071
			}
		}
	],
	"meshes":[
		{
			"name":"Blatt",
			"primitives":[
				{
					"attributes":{
						"POSITION":0,
						"NORMAL":1,
						"COLOR_0":2
					},
					"indices":3,
					"material":0
				}
			]
		}
	],
	"accessors":[
		{
			"bufferView":0,
			"componentType":5126,
			"count":2268,
			"max":[
				0.4625738859176636,
				0.053999997675418854,
				0.12595833837985992
			],
			"min":[
				-0.4625738561153412,
				0,
				-0.12595833837985992
			],
			"type":"VEC3"
		},
		{
			"bufferView":1,
			"componentType":5126,
			"count":2268,
			"type":"VEC3"
		},
		{
			"bufferView":2,
			"componentType":5126,
			"count":2268,
			"type":"VEC3"
		},
		{
			"bufferView":3,
			"componentType":5123,
			"count":3252,
			"type":"SCALAR"
		}
	],
	"bufferViews":[
		{
			"buffer":0,
			"byteLength":27216,
			"byteOffset":0,
			"target":34962
		},
		{
			"buffer":0,
			"byteLength":27216,
			"byteOffset":27216,
			"target":34962
		},
		{
			"buffer":0,
			"byteLength":27216,
			"byteOffset":54432,
			"target":34962
		},
		{
			"buffer":0,
			"byteLength":6504,
			"byteOffset":81648,
			"target":34963
		}
	],
	"buffers":[
		{
			"byteLength":88152,
			"uri":"klinge_schatten.bin"
		}
	]
}
