{
	"asset":{
		"generator":"Khronos glTF Blender I/O v5.2.40",
		"version":"2.0"
	},
	"scene":0,
	"scenes":[
		{
			"name":"Scene",
			"nodes":[
				0
			]
		}
	],
	"nodes":[
		{
			"mesh":0,
			"name":"krone_mond"
		}
	],
	"materials":[
		{
			"doubleSided":true,
			"name":"krone_mond",
			"pbrMetallicRoughness":{
				"metallicFactor":0,
				"roughnessFactor":0.699999988079071
			}
		}
	],
	"meshes":[
		{
			"name":"Reif",
			"primitives":[
				{
					"attributes":{
						"POSITION":0,
						"NORMAL":1,
						"COLOR_0":2
					},
					"indices":3,
					"material":0
				}
			]
		}
	],
	"accessors":[
		{
			"bufferView":0,
			"componentType":5126,
			"count":2424,
			"max":[
				0.09520000219345093,
				0.10410678386688232,
				0.11432500183582306
			],
			"min":[
				-0.09520000219345093,
				0,
				-0.11432500183582306
			],
			"type":"VEC3"
		},
		{
			"bufferView":1,
			"componentType":5126,
			"count":2424,
			"type":"VEC3"
		},
		{
			"bufferView":2,
			"componentType":5126,
			"count":2424,
			"type":"VEC3"
		},
		{
			"bufferView":3,
			"componentType":5123,
			"count":3444,
			"type":"SCALAR"
		}
	],
	"bufferViews":[
		{
			"buffer":0,
			"byteLength":29088,
			"byteOffset":0,
			"target":34962
		},
		{
			"buffer":0,
			"byteLength":29088,
			"byteOffset":29088,
			"target":34962
		},
		{
			"buffer":0,
			"byteLength":29088,
			"byteOffset":58176,
			"target":34962
		},
		{
			"buffer":0,
			"byteLength":6888,
			"byteOffset":87264,
			"target":34963
		}
	],
	"buffers":[
		{
			"byteLength":94152,
			"uri":"krone_mond.bin"
		}
	]
}
