{
	"asset":{
		"generator":"Khronos glTF Blender I/O v5.2.40",
		"version":"2.0"
	},
	"scene":0,
	"scenes":[
		{
			"name":"Scene",
			"nodes":[
				0
			]
		}
	],
	"nodes":[
		{
			"mesh":0,
			"name":"mantel_daemmerung"
		}
	],
	"materials":[
		{
			"doubleSided":true,
			"name":"mantel_daemmerung",
			"pbrMetallicRoughness":{
				"metallicFactor":0,
				"roughnessFactor":0.699999988079071
			}
		}
	],
	"meshes":[
		{
			"name":"Torso",
			"primitives":[
				{
					"attributes":{
						"POSITION":0,
						"NORMAL":1,
						"COLOR_0":2
					},
					"indices":3,
					"material":0
				}
			]
		}
	],
	"accessors":[
		{
			"bufferView":0,
			"componentType":5126,
			"count":4720,
			"max":[
				0.2771143317222595,
				0.6218234896659851,
				0.18657831847667694
			],
			"min":[
				-0.2771143317222595,
				0,
				-0.18657831847667694
			],
			"type":"VEC3"
		},
		{
			"bufferView":1,
			"componentType":5126,
			"count":4720,
			"type":"VEC3"
		},
		{
			"bufferView":2,
			"componentType":5126,
			"count":4720,
			"type":"VEC3"
		},
		{
			"bufferView":3,
			"componentType":5123,
			"count":7074,
			"type":"SCALAR"
		}
	],
	"bufferViews":[
		{
			"buffer":0,
			"byteLength":56640,
			"byteOffset":0,
			"target":34962
		},
		{
			"buffer":0,
			"byteLength":56640,
			"byteOffset":56640,
			"target":34962
		},
		{
			"buffer":0,
			"byteLength":56640,
			"byteOffset":113280,
			"target":34962
		},
		{
			"buffer":0,
			"byteLength":14148,
			"byteOffset":169920,
			"target":34963
		}
	],
	"buffers":[
		{
			"byteLength":184068,
			"uri":"mantel_daemmerung.bin"
		}
	]
}
