{
	"asset":{
		"generator":"Khronos glTF Blender I/O v5.2.40",
		"version":"2.0"
	},
	"scene":0,
	"scenes":[
		{
			"name":"Scene",
			"nodes":[
				0
			]
		}
	],
	"nodes":[
		{
			"mesh":0,
			"name":"maske_schatten"
		}
	],
	"materials":[
		{
			"doubleSided":true,
			"name":"maske_schatten",
			"pbrMetallicRoughness":{
				"metallicFactor":0,
				"roughnessFactor":0.699999988079071
			}
		}
	],
	"meshes":[
		{
			"name":"Kapuze",
			"primitives":[
				{
					"attributes":{
						"POSITION":0,
						"NORMAL":1,
						"COLOR_0":2
					},
					"indices":3,
					"material":0
				}
			]
		}
	],
	"accessors":[
		{
			"bufferView":0,
			"componentType":5126,
			"count":6304,
			"max":[
				0.16906872391700745,
				0.23800000548362732,
				0.15461499989032745
			],
			"min":[
				-0.16906872391700745,
				0,
				-0.15461499989032745
			],
			"type":"VEC3"
		},
		{
			"bufferView":1,
			"componentType":5126,
			"count":6304,
			"type":"VEC3"
		},
		{
			"bufferView":2,
			"componentType":5126,
			"count":6304,
			"type":"VEC3"
		},
		{
			"bufferView":3,
			"componentType":5123,
			"count":9390,
			"type":"SCALAR"
		}
	],
	"bufferViews":[
		{
			"buffer":0,
			"byteLength":75648,
			"byteOffset":0,
			"target":34962
		},
		{
			"buffer":0,
			"byteLength":75648,
			"byteOffset":75648,
			"target":34962
		},
		{
			"buffer":0,
			"byteLength":75648,
			"byteOffset":151296,
			"target":34962
		},
		{
			"buffer":0,
			"byteLength":18780,
			"byteOffset":226944,
			"target":34963
		}
	],
	"buffers":[
		{
			"byteLength":245724,
			"uri":"maske_schatten.bin"
		}
	]
}
