{
	"asset":{
		"generator":"Khronos glTF Blender I/O v5.2.40",
		"version":"2.0"
	},
	"scene":0,
	"scenes":[
		{
			"name":"Scene",
			"nodes":[
				0
			]
		}
	],
	"nodes":[
		{
			"mesh":0,
			"name":"robe_erzmagier"
		}
	],
	"materials":[
		{
			"doubleSided":true,
			"name":"robe_erzmagier",
			"pbrMetallicRoughness":{
				"metallicFactor":0,
				"roughnessFactor":0.699999988079071
			}
		}
	],
	"meshes":[
		{
			"name":"Torso",
			"primitives":[
				{
					"attributes":{
						"POSITION":0,
						"NORMAL":1,
						"COLOR_0":2
					},
					"indices":3,
					"material":0
				}
			]
		}
	],
	"accessors":[
		{
			"bufferView":0,
			"componentType":5126,
			"count":2316,
			"max":[
				0.19801071286201477,
				0.7649999856948853,
				0.14899085462093353
			],
			"min":[
				-0.19801071286201477,
				0,
				-0.14899085462093353
			],
			"type":"VEC3"
		},
		{
			"bufferView":1,
			"componentType":5126,
			"count":2316,
			"type":"VEC3"
		},
		{
			"bufferView":2,
			"componentType":5126,
			"count":2316,
			"type":"VEC3"
		},
		{
			"bufferView":3,
			"componentType":5123,
			"count":3438,
			"type":"SCALAR"
		}
	],
	"bufferViews":[
		{
			"buffer":0,
			"byteLength":27792,
			"byteOffset":0,
			"target":34962
		},
		{
			"buffer":0,
			"byteLength":27792,
			"byteOffset":27792,
			"target":34962
		},
		{
			"buffer":0,
			"byteLength":27792,
			"byteOffset":55584,
			"target":34962
		},
		{
			"buffer":0,
			"byteLength":6876,
			"byteOffset":83376,
			"target":34963
		}
	],
	"buffers":[
		{
			"byteLength":90252,
			"uri":"robe_erzmagier.bin"
		}
	]
}
