{
	"asset":{
		"generator":"Khronos glTF Blender I/O v5.2.40",
		"version":"2.0"
	},
	"scene":0,
	"scenes":[
		{
			"name":"Scene",
			"nodes":[
				0
			]
		}
	],
	"nodes":[
		{
			"mesh":0,
			"name":"robe_adept"
		}
	],
	"materials":[
		{
			"doubleSided":true,
			"name":"robe_adept",
			"pbrMetallicRoughness":{
				"metallicFactor":0,
				"roughnessFactor":0.699999988079071
			}
		}
	],
	"meshes":[
		{
			"name":"Torso",
			"primitives":[
				{
					"attributes":{
						"POSITION":0,
						"NORMAL":1,
						"COLOR_0":2
					},
					"indices":3,
					"material":0
				}
			]
		}
	],
	"accessors":[
		{
			"bufferView":0,
			"componentType":5126,
			"count":2160,
			"max":[
				0.19801071286201477,
				0.6715003252029419,
				0.14899085462093353
			],
			"min":[
				-0.19801071286201477,
				0,
				-0.14899085462093353
			],
			"type":"VEC3"
		},
		{
			"bufferView":1,
			"componentType":5126,
			"count":2160,
			"type":"VEC3"
		},
		{
			"bufferView":2,
			"componentType":5126,
			"count":2160,
			"type":"VEC3"
		},
		{
			"bufferView":3,
			"componentType":5123,
			"count":3234,
			"type":"SCALAR"
		}
	],
	"bufferViews":[
		{
			"buffer":0,
			"byteLength":25920,
			"byteOffset":0,
			"target":34962
		},
		{
			"buffer":0,
			"byteLength":25920,
			"byteOffset":25920,
			"target":34962
		},
		{
			"buffer":0,
			"byteLength":25920,
			"byteOffset":51840,
			"target":34962
		},
		{
			"buffer":0,
			"byteLength":6468,
			"byteOffset":77760,
			"target":34963
		}
	],
	"buffers":[
		{
			"byteLength":84228,
			"uri":"robe_adept.bin"
		}
	]
}
