{
	"asset":{
		"generator":"Khronos glTF Blender I/O v5.2.40",
		"version":"2.0"
	},
	"scene":0,
	"scenes":[
		{
			"name":"Scene",
			"nodes":[
				0
			]
		}
	],
	"nodes":[
		{
			"mesh":0,
			"name":"schuhe_wander"
		}
	],
	"materials":[
		{
			"doubleSided":true,
			"name":"schuhe_wander",
			"pbrMetallicRoughness":{
				"metallicFactor":0,
				"roughnessFactor":0.699999988079071
			}
		}
	],
	"meshes":[
		{
			"name":"Schuh",
			"primitives":[
				{
					"attributes":{
						"POSITION":0,
						"NORMAL":1,
						"COLOR_0":2
					},
					"indices":3,
					"material":0
				}
			]
		}
	],
	"accessors":[
		{
			"bufferView":0,
			"componentType":5126,
			"count":2048,
			"max":[
				0.11305000633001328,
				0.09775000810623169,
				0.09987500309944153
			],
			"min":[
				-0.11305000633001328,
				0,
				-0.09987500309944153
			],
			"type":"VEC3"
		},
		{
			"bufferView":1,
			"componentType":5126,
			"count":2048,
			"type":"VEC3"
		},
		{
			"bufferView":2,
			"componentType":5126,
			"count":2048,
			"type":"VEC3"
		},
		{
			"bufferView":3,
			"componentType":5123,
			"count":3060,
			"type":"SCALAR"
		}
	],
	"bufferViews":[
		{
			"buffer":0,
			"byteLength":24576,
			"byteOffset":0,
			"target":34962
		},
		{
			"buffer":0,
			"byteLength":24576,
			"byteOffset":24576,
			"target":34962
		},
		{
			"buffer":0,
			"byteLength":24576,
			"byteOffset":49152,
			"target":34962
		},
		{
			"buffer":0,
			"byteLength":6120,
			"byteOffset":73728,
			"target":34963
		}
	],
	"buffers":[
		{
			"byteLength":79848,
			"uri":"schuhe_wander.bin"
		}
	]
}
