{
	"asset":{
		"generator":"Khronos glTF Blender I/O v5.2.40",
		"version":"2.0"
	},
	"scene":0,
	"scenes":[
		{
			"name":"Scene",
			"nodes":[
				0
			]
		}
	],
	"nodes":[
		{
			"mesh":0,
			"name":"stab_frost"
		}
	],
	"materials":[
		{
			"doubleSided":true,
			"name":"stab_frost",
			"pbrMetallicRoughness":{
				"metallicFactor":0,
				"roughnessFactor":0.699999988079071
			}
		}
	],
	"meshes":[
		{
			"name":"Frostschaft",
			"primitives":[
				{
					"attributes":{
						"POSITION":0,
						"NORMAL":1,
						"COLOR_0":2
					},
					"indices":3,
					"material":0
				}
			]
		}
	],
	"accessors":[
		{
			"bufferView":0,
			"componentType":5126,
			"count":2112,
			"max":[
				0.8880000114440918,
				0.12283995747566223,
				0.06926748156547546
			],
			"min":[
				-0.8880000710487366,
				0,
				-0.06926748156547546
			],
			"type":"VEC3"
		},
		{
			"bufferView":1,
			"componentType":5126,
			"count":2112,
			"type":"VEC3"
		},
		{
			"bufferView":2,
			"componentType":5126,
			"count":2112,
			"type":"VEC3"
		},
		{
			"bufferView":3,
			"componentType":5123,
			"count":3126,
			"type":"SCALAR"
		}
	],
	"bufferViews":[
		{
			"buffer":0,
			"byteLength":25344,
			"byteOffset":0,
			"target":34962
		},
		{
			"buffer":0,
			"byteLength":25344,
			"byteOffset":25344,
			"target":34962
		},
		{
			"buffer":0,
			"byteLength":25344,
			"byteOffset":50688,
			"target":34962
		},
		{
			"buffer":0,
			"byteLength":6252,
			"byteOffset":76032,
			"target":34963
		}
	],
	"buffers":[
		{
			"byteLength":82284,
			"uri":"stab_frost.bin"
		}
	]
}
