{
	"asset":{
		"generator":"Khronos glTF Blender I/O v5.2.40",
		"version":"2.0"
	},
	"scene":0,
	"scenes":[
		{
			"name":"Scene",
			"nodes":[
				0
			]
		}
	],
	"nodes":[
		{
			"mesh":0,
			"name":"stab_eiche"
		}
	],
	"materials":[
		{
			"doubleSided":true,
			"name":"stab_eiche",
			"pbrMetallicRoughness":{
				"metallicFactor":0,
				"roughnessFactor":0.699999988079071
			}
		}
	],
	"meshes":[
		{
			"name":"Eichenschaft",
			"primitives":[
				{
					"attributes":{
						"POSITION":0,
						"NORMAL":1,
						"COLOR_0":2
					},
					"indices":3,
					"material":0
				}
			]
		}
	],
	"accessors":[
		{
			"bufferView":0,
			"componentType":5126,
			"count":3272,
			"max":[
				0.8367108106613159,
				0.12345737218856812,
				0.05545736104249954
			],
			"min":[
				-0.8367108702659607,
				0,
				-0.05545736104249954
			],
			"type":"VEC3"
		},
		{
			"bufferView":1,
			"componentType":5126,
			"count":3272,
			"type":"VEC3"
		},
		{
			"bufferView":2,
			"componentType":5126,
			"count":3272,
			"type":"VEC3"
		},
		{
			"bufferView":3,
			"componentType":5123,
			"count":4770,
			"type":"SCALAR"
		}
	],
	"bufferViews":[
		{
			"buffer":0,
			"byteLength":39264,
			"byteOffset":0,
			"target":34962
		},
		{
			"buffer":0,
			"byteLength":39264,
			"byteOffset":39264,
			"target":34962
		},
		{
			"buffer":0,
			"byteLength":39264,
			"byteOffset":78528,
			"target":34962
		},
		{
			"buffer":0,
			"byteLength":9540,
			"byteOffset":117792,
			"target":34963
		}
	],
	"buffers":[
		{
			"byteLength":127332,
			"uri":"stab_eiche.bin"
		}
	]
}
