{
	"asset":{
		"generator":"Khronos glTF Blender I/O v5.2.40",
		"version":"2.0"
	},
	"scene":0,
	"scenes":[
		{
			"name":"Scene",
			"nodes":[
				0
			]
		}
	],
	"nodes":[
		{
			"mesh":0,
			"name":"stab_sternen"
		}
	],
	"materials":[
		{
			"doubleSided":true,
			"name":"stab_sternen",
			"pbrMetallicRoughness":{
				"metallicFactor":0,
				"roughnessFactor":0.699999988079071
			}
		}
	],
	"meshes":[
		{
			"name":"Sternenschaft",
			"primitives":[
				{
					"attributes":{
						"POSITION":0,
						"NORMAL":1,
						"COLOR_0":2
					},
					"indices":3,
					"material":0
				}
			]
		}
	],
	"accessors":[
		{
			"bufferView":0,
			"componentType":5126,
			"count":2484,
			"max":[
				0.8653609156608582,
				0.2014666050672531,
				0.035999998450279236
			],
			"min":[
				-0.8653609752655029,
				0,
				-0.035999998450279236
			],
			"type":"VEC3"
		},
		{
			"bufferView":1,
			"componentType":5126,
			"count":2484,
			"type":"VEC3"
		},
		{
			"bufferView":2,
			"componentType":5126,
			"count":2484,
			"type":"VEC3"
		},
		{
			"bufferView":3,
			"componentType":5123,
			"count":3648,
			"type":"SCALAR"
		}
	],
	"bufferViews":[
		{
			"buffer":0,
			"byteLength":29808,
			"byteOffset":0,
			"target":34962
		},
		{
			"buffer":0,
			"byteLength":29808,
			"byteOffset":29808,
			"target":34962
		},
		{
			"buffer":0,
			"byteLength":29808,
			"byteOffset":59616,
			"target":34962
		},
		{
			"buffer":0,
			"byteLength":7296,
			"byteOffset":89424,
			"target":34963
		}
	],
	"buffers":[
		{
			"byteLength":96720,
			"uri":"stab_sternen.bin"
		}
	]
}
