{
	"asset":{
		"generator":"Khronos glTF Blender I/O v5.2.40",
		"version":"2.0"
	},
	"scene":0,
	"scenes":[
		{
			"name":"Scene",
			"nodes":[
				0
			]
		}
	],
	"nodes":[
		{
			"mesh":0,
			"name":"stab_sturm"
		}
	],
	"materials":[
		{
			"doubleSided":true,
			"name":"stab_sturm",
			"pbrMetallicRoughness":{
				"metallicFactor":0,
				"roughnessFactor":0.699999988079071
			}
		}
	],
	"meshes":[
		{
			"name":"Sturmschaft",
			"primitives":[
				{
					"attributes":{
						"POSITION":0,
						"NORMAL":1,
						"COLOR_0":2
					},
					"indices":3,
					"material":0
				}
			]
		}
	],
	"accessors":[
		{
			"bufferView":0,
			"componentType":5126,
			"count":3048,
			"max":[
				0.8527999520301819,
				0.18644583225250244,
				0.036000002175569534
			],
			"min":[
				-0.8528000116348267,
				0,
				-0.036000002175569534
			],
			"type":"VEC3"
		},
		{
			"bufferView":1,
			"componentType":5126,
			"count":3048,
			"type":"VEC3"
		},
		{
			"bufferView":2,
			"componentType":5126,
			"count":3048,
			"type":"VEC3"
		},
		{
			"bufferView":3,
			"componentType":5123,
			"count":4512,
			"type":"SCALAR"
		}
	],
	"bufferViews":[
		{
			"buffer":0,
			"byteLength":36576,
			"byteOffset":0,
			"target":34962
		},
		{
			"buffer":0,
			"byteLength":36576,
			"byteOffset":36576,
			"target":34962
		},
		{
			"buffer":0,
			"byteLength":36576,
			"byteOffset":73152,
			"target":34962
		},
		{
			"buffer":0,
			"byteLength":9024,
			"byteOffset":109728,
			"target":34963
		}
	],
	"buffers":[
		{
			"byteLength":118752,
			"uri":"stab_sturm.bin"
		}
	]
}
