{
	"asset":{
		"generator":"Khronos glTF Blender I/O v5.2.40",
		"version":"2.0"
	},
	"scene":0,
	"scenes":[
		{
			"name":"Scene",
			"nodes":[
				0
			]
		}
	],
	"nodes":[
		{
			"mesh":0,
			"name":"stab_glut"
		}
	],
	"materials":[
		{
			"doubleSided":true,
			"name":"stab_glut",
			"pbrMetallicRoughness":{
				"metallicFactor":0,
				"roughnessFactor":0.699999988079071
			}
		}
	],
	"meshes":[
		{
			"name":"Glutschaft",
			"primitives":[
				{
					"attributes":{
						"POSITION":0,
						"NORMAL":1,
						"COLOR_0":2
					},
					"indices":3,
					"material":0
				}
			]
		}
	],
	"accessors":[
		{
			"bufferView":0,
			"componentType":5126,
			"count":2520,
			"max":[
				0.8720567226409912,
				0.09411254525184631,
				0.047941647469997406
			],
			"min":[
				-0.872056782245636,
				0,
				-0.047941647469997406
			],
			"type":"VEC3"
		},
		{
			"bufferView":1,
			"componentType":5126,
			"count":2520,
			"type":"VEC3"
		},
		{
			"bufferView":2,
			"componentType":5126,
			"count":2520,
			"type":"VEC3"
		},
		{
			"bufferView":3,
			"componentType":5123,
			"count":3726,
			"type":"SCALAR"
		}
	],
	"bufferViews":[
		{
			"buffer":0,
			"byteLength":30240,
			"byteOffset":0,
			"target":34962
		},
		{
			"buffer":0,
			"byteLength":30240,
			"byteOffset":30240,
			"target":34962
		},
		{
			"buffer":0,
			"byteLength":30240,
			"byteOffset":60480,
			"target":34962
		},
		{
			"buffer":0,
			"byteLength":7452,
			"byteOffset":90720,
			"target":34963
		}
	],
	"buffers":[
		{
			"byteLength":98172,
			"uri":"stab_glut.bin"
		}
	]
}
