{
	"asset":{
		"generator":"Khronos glTF Blender I/O v5.2.40",
		"version":"2.0"
	},
	"scene":0,
	"scenes":[
		{
			"name":"Scene",
			"nodes":[
				0
			]
		}
	],
	"nodes":[
		{
			"mesh":0,
			"name":"stiefel_gruben"
		}
	],
	"materials":[
		{
			"doubleSided":true,
			"name":"stiefel_gruben",
			"pbrMetallicRoughness":{
				"metallicFactor":0,
				"roughnessFactor":0.699999988079071
			}
		}
	],
	"meshes":[
		{
			"name":"Schuh",
			"primitives":[
				{
					"attributes":{
						"POSITION":0,
						"NORMAL":1,
						"COLOR_0":2
					},
					"indices":3,
					"material":0
				}
			]
		}
	],
	"accessors":[
		{
			"bufferView":0,
			"componentType":5126,
			"count":2624,
			"max":[
				0.1164499968290329,
				0.1615000069141388,
				0.11220531910657883
			],
			"min":[
				-0.1164499968290329,
				0,
				-0.11220531910657883
			],
			"type":"VEC3"
		},
		{
			"bufferView":1,
			"componentType":5126,
			"count":2624,
			"type":"VEC3"
		},
		{
			"bufferView":2,
			"componentType":5126,
			"count":2624,
			"type":"VEC3"
		},
		{
			"bufferView":3,
			"componentType":5123,
			"count":3924,
			"type":"SCALAR"
		}
	],
	"bufferViews":[
		{
			"buffer":0,
			"byteLength":31488,
			"byteOffset":0,
			"target":34962
		},
		{
			"buffer":0,
			"byteLength":31488,
			"byteOffset":31488,
			"target":34962
		},
		{
			"buffer":0,
			"byteLength":31488,
			"byteOffset":62976,
			"target":34962
		},
		{
			"buffer":0,
			"byteLength":7848,
			"byteOffset":94464,
			"target":34963
		}
	],
	"buffers":[
		{
			"byteLength":102312,
			"uri":"stiefel_gruben.bin"
		}
	]
}
