{
	"asset":{
		"generator":"Khronos glTF Blender I/O v5.2.40",
		"version":"2.0"
	},
	"scene":0,
	"scenes":[
		{
			"name":"Scene",
			"nodes":[
				0
			]
		}
	],
	"nodes":[
		{
			"mesh":0,
			"name":"stiefel_elfen"
		}
	],
	"materials":[
		{
			"doubleSided":true,
			"name":"stiefel_elfen",
			"pbrMetallicRoughness":{
				"metallicFactor":0,
				"roughnessFactor":0.699999988079071
			}
		}
	],
	"meshes":[
		{
			"name":"Schuh",
			"primitives":[
				{
					"attributes":{
						"POSITION":0,
						"NORMAL":1,
						"COLOR_0":2
					},
					"indices":3,
					"material":0
				}
			]
		}
	],
	"accessors":[
		{
			"bufferView":0,
			"componentType":5126,
			"count":2960,
			"max":[
				0.12495000660419464,
				0.2720000147819519,
				0.11639074981212616
			],
			"min":[
				-0.12495000660419464,
				0,
				-0.11639074981212616
			],
			"type":"VEC3"
		},
		{
			"bufferView":1,
			"componentType":5126,
			"count":2960,
			"type":"VEC3"
		},
		{
			"bufferView":2,
			"componentType":5126,
			"count":2960,
			"type":"VEC3"
		},
		{
			"bufferView":3,
			"componentType":5123,
			"count":4404,
			"type":"SCALAR"
		}
	],
	"bufferViews":[
		{
			"buffer":0,
			"byteLength":35520,
			"byteOffset":0,
			"target":34962
		},
		{
			"buffer":0,
			"byteLength":35520,
			"byteOffset":35520,
			"target":34962
		},
		{
			"buffer":0,
			"byteLength":35520,
			"byteOffset":71040,
			"target":34962
		},
		{
			"buffer":0,
			"byteLength":8808,
			"byteOffset":106560,
			"target":34963
		}
	],
	"buffers":[
		{
			"byteLength":115368,
			"uri":"stiefel_elfen.bin"
		}
	]
}
