{
	"asset":{
		"generator":"Khronos glTF Blender I/O v5.2.40",
		"version":"2.0"
	},
	"scene":0,
	"scenes":[
		{
			"name":"Scene",
			"nodes":[
				0
			]
		}
	],
	"nodes":[
		{
			"mesh":0,
			"name":"weste_leder"
		}
	],
	"materials":[
		{
			"doubleSided":true,
			"name":"weste_leder",
			"pbrMetallicRoughness":{
				"metallicFactor":0,
				"roughnessFactor":0.699999988079071
			}
		}
	],
	"meshes":[
		{
			"name":"Torso",
			"primitives":[
				{
					"attributes":{
						"POSITION":0,
						"NORMAL":1,
						"COLOR_0":2
					},
					"indices":3,
					"material":0
				}
			]
		}
	],
	"accessors":[
		{
			"bufferView":0,
			"componentType":5126,
			"count":1992,
			"max":[
				0.1615000069141388,
				0.4590001702308655,
				0.11050000041723251
			],
			"min":[
				-0.1615000069141388,
				0,
				-0.11050000041723251
			],
			"type":"VEC3"
		},
		{
			"bufferView":1,
			"componentType":5126,
			"count":1992,
			"type":"VEC3"
		},
		{
			"bufferView":2,
			"componentType":5126,
			"count":1992,
			"type":"VEC3"
		},
		{
			"bufferView":3,
			"componentType":5123,
			"count":2976,
			"type":"SCALAR"
		}
	],
	"bufferViews":[
		{
			"buffer":0,
			"byteLength":23904,
			"byteOffset":0,
			"target":34962
		},
		{
			"buffer":0,
			"byteLength":23904,
			"byteOffset":23904,
			"target":34962
		},
		{
			"buffer":0,
			"byteLength":23904,
			"byteOffset":47808,
			"target":34962
		},
		{
			"buffer":0,
			"byteLength":5952,
			"byteOffset":71712,
			"target":34963
		}
	],
	"buffers":[
		{
			"byteLength":77664,
			"uri":"weste_leder.bin"
		}
	]
}
