{
	"asset":{
		"generator":"Khronos glTF Blender I/O v5.2.40",
		"version":"2.0"
	},
	"scene":0,
	"scenes":[
		{
			"name":"Scene",
			"nodes":[
				0,
				1,
				2
			]
		}
	],
	"nodes":[
		{
			"mesh":0,
			"name":"FluegelL"
		},
		{
			"mesh":1,
			"name":"FluegelR"
		},
		{
			"mesh":2,
			"name":"Vogel"
		}
	],
	"materials":[
		{
			"doubleSided":true,
			"name":"Vorkommen",
			"pbrMetallicRoughness":{
				"metallicFactor":0,
				"roughnessFactor":0.8500000238418579
			}
		}
	],
	"meshes":[
		{
			"name":"FluegelL",
			"primitives":[
				{
					"attributes":{
						"POSITION":0,
						"NORMAL":1,
						"COLOR_0":2
					},
					"indices":3,
					"material":0
				}
			]
		},
		{
			"name":"FluegelR",
			"primitives":[
				{
					"attributes":{
						"POSITION":4,
						"NORMAL":5,
						"COLOR_0":6
					},
					"indices":7,
					"material":0
				}
			]
		},
		{
			"name":"Vogel",
			"primitives":[
				{
					"attributes":{
						"POSITION":8,
						"NORMAL":9,
						"COLOR_0":10
					},
					"indices":11,
					"material":0
				}
			]
		}
	],
	"accessors":[
		{
			"bufferView":0,
			"componentType":5126,
			"count":5,
			"max":[
				0.05000000074505806,
				0,
				0
			],
			"min":[
				-0.10000000149011612,
				0,
				-0.20999999344348907
			],
			"type":"VEC3"
		},
		{
			"bufferView":1,
			"componentType":5126,
			"count":5,
			"type":"VEC3"
		},
		{
			"bufferView":2,
			"componentType":5126,
			"count":5,
			"type":"VEC3"
		},
		{
			"bufferView":3,
			"componentType":5123,
			"count":9,
			"type":"SCALAR"
		},
		{
			"bufferView":4,
			"componentType":5126,
			"count":5,
			"max":[
				0.05000000074505806,
				0,
				0.20999999344348907
			],
			"min":[
				-0.10000000149011612,
				0,
				0
			],
			"type":"VEC3"
		},
		{
			"bufferView":5,
			"componentType":5126,
			"count":5,
			"type":"VEC3"
		},
		{
			"bufferView":6,
			"componentType":5126,
			"count":5,
			"type":"VEC3"
		},
		{
			"bufferView":7,
			"componentType":5123,
			"count":9,
			"type":"SCALAR"
		},
		{
			"bufferView":8,
			"componentType":5126,
			"count":195,
			"max":[
				0.21000000834465027,
				0.05999999865889549,
				0.05999999865889549
			],
			"min":[
				-0.25999999046325684,
				-0.05999999865889549,
				-0.05999999865889549
			],
			"type":"VEC3"
		},
		{
			"bufferView":9,
			"componentType":5126,
			"count":195,
			"type":"VEC3"
		},
		{
			"bufferView":10,
			"componentType":5126,
			"count":195,
			"type":"VEC3"
		},
		{
			"bufferView":11,
			"componentType":5123,
			"count":261,
			"type":"SCALAR"
		}
	],
	"bufferViews":[
		{
			"buffer":0,
			"byteLength":60,
			"byteOffset":0,
			"target":34962
		},
		{
			"buffer":0,
			"byteLength":60,
			"byteOffset":60,
			"target":34962
		},
		{
			"buffer":0,
			"byteLength":60,
			"byteOffset":120,
			"target":34962
		},
		{
			"buffer":0,
			"byteLength":18,
			"byteOffset":180,
			"target":34963
		},
		{
			"buffer":0,
			"byteLength":60,
			"byteOffset":200,
			"target":34962
		},
		{
			"buffer":0,
			"byteLength":60,
			"byteOffset":260,
			"target":34962
		},
		{
			"buffer":0,
			"byteLength":60,
			"byteOffset":320,
			"target":34962
		},
		{
			"buffer":0,
			"byteLength":18,
			"byteOffset":380,
			"target":34963
		},
		{
			"buffer":0,
			"byteLength":2340,
			"byteOffset":400,
			"target":34962
		},
		{
			"buffer":0,
			"byteLength":2340,
			"byteOffset":2740,
			"target":34962
		},
		{
			"buffer":0,
			"byteLength":2340,
			"byteOffset":5080,
			"target":34962
		},
		{
			"buffer":0,
			"byteLength":522,
			"byteOffset":7420,
			"target":34963
		}
	],
	"buffers":[
		{
			"byteLength":7944,
			"uri":"vogel.bin"
		}
	]
}
